<?xml version="1.0" encoding="utf-8"?>
<!-- Generator: Adobe Illustrator 15.1.0, SVG Export Plug-In . SVG Version: 6.00 Build 0)  -->
<!DOCTYPE svg PUBLIC "-//W3C//DTD SVG 1.1//EN" "http://www.w3.org/Graphics/SVG/1.1/DTD/svg11.dtd">
<svg version="1.1" id="Layer_1" xmlns="http://www.w3.org/2000/svg" x="0px" y="0px"
	 width="376px" height="141px" viewBox="0 0 376 141"  xml:space="preserve">
<g>
	<path fill="#231F20" d="M351.836,33.447c0.9,1.421,1.768,2.567,2.395,3.833c0.943,1.906,0.031,3.19-2.096,2.886
		c-1.968-0.281-3.942-0.695-5.832-1.307c-2.173-0.704-4.346-1.036-6.605-0.856c-2.793,0.223-3.906,1.504-4.644,4.197
		c-0.731,2.679,0.234,4.159,2.419,5.524c3.321,2.073,6.474,4.401,8.859,7.61c2.146,2.882,4.041,5.992,3.61,9.641
		c-0.352,2.967-1.287,5.959-2.486,8.712c-2.116,4.854-6.24,7.451-11.191,9c-4.598,1.437-9.168,0.83-13.773,0.257
		c-2.356-0.293-4.72-0.558-7.089-0.702c-2.869-0.174-4.862,1.771-4.425,4.613c0.27,1.76,1.03,3.529,1.929,5.089
		c1.471,2.556,3.23,4.946,4.871,7.403c0.133,0.199,0.394,0.385,0.401,0.584c0.037,0.832,0.23,1.764-0.067,2.477
		c-0.407,0.975-1.429,0.791-2.322,0.57c-1.287-0.319-2.581-0.611-3.816-0.902c-1.328,2.059,0.349,4.445-1.562,6.346
		c-0.669-0.604-1.307-1.142-1.901-1.724c-1.766-1.731-3.537-3.458-5.266-5.226c-3.192-3.265-4.554-7.25-4.519-11.762
		c0.005-0.639,0.144-1.296,0.034-1.912c-0.174-0.982,0.104-1.654,0.871-2.293c0.604-0.502,1.095-1.175,1.518-1.847
		c2.663-4.233,6.813-4.944,11.3-4.733c2.068,0.098,4.143,0.752,6.178,0.613c2.597-0.176,5.261-0.602,7.702-1.467
		c2.456-0.87,4.732-2.316,6.986-3.678c4.682-2.824,6.061-8.226,3.806-13.686c-1.939-4.695-4.499-8.991-7.626-12.97
		c-2.773-3.528-4.038-7.598-4.136-12.023c-0.113-5.05,3.055-9.025,7.176-10.645c3.472-1.364,7.033-1.898,10.81-1.221
		c3.49,0.625,6.882,1.415,10.036,3.065c0.283,0.148,0.575,0.282,0.846,0.45c2.375,1.482,2.416,2.035,0.305,3.804
		C353.678,31.882,352.833,32.604,351.836,33.447 M353.259,30.388c0.064-0.267,0.129-0.533,0.193-0.8
		c-0.301-0.132-0.612-0.244-0.9-0.4c-4.714-2.566-9.66-4.255-15.114-3.665c-2.727,0.295-5.363,1.051-7.345,3.121
		c-2.869,2.999-2.895,6.6-1.849,10.297c0.542,1.915,1.651,3.528,3.444,4.74c0.373-0.897,0.65-1.64,0.986-2.356
		c1.648-3.509,4.308-5.386,8.298-5.356c2.595,0.02,5.082,0.297,7.443,1.451c0.912,0.444,1.903,0.762,3.126-0.139
		c-0.879-0.894-1.632-1.674-2.4-2.439c-1.337-1.331-1.199-2.026,0.575-2.734c0.519-0.207,1.089-0.297,1.583-0.545
		C351.98,31.223,352.61,30.784,353.259,30.388 M325.911,81.553c0.505,0.207,0.714,0.344,0.937,0.375
		c0.554,0.074,1.111,0.125,1.67,0.142c5.314,0.157,10.021-1.259,14.091-4.888c4.168-3.717,5.139-8.486,4.846-13.633
		c-0.234-4.107-2.992-7.013-5.796-9.623c-2.562-2.383-5.479-4.383-8.261-6.524c-0.334-0.257-0.805-0.337-1.515-0.621
		c0.219,0.608,0.254,0.935,0.426,1.154c3.026,3.851,5.327,8.123,7.491,12.498c1.757,3.554,1.826,7.05,0.24,10.615
		c-1.295,2.91-3.672,4.789-6.333,6.316C331.226,78.787,328.669,80.077,325.911,81.553 M308.721,103.67
		c0.171-0.076,0.343-0.152,0.513-0.229c-0.069-0.54-0.16-1.077-0.203-1.619c-0.193-2.38,0.407-2.914,2.72-2.463
		c0.902,0.176,1.812,0.316,3.285,0.57c-0.86-1.528-1.417-2.557-2.011-3.562c-1.057-1.789-2.174-3.543-3.198-5.35
		c-1.613-2.844-1.346-5.659,0.239-8.433c0.287-0.502,0.488-1.054,0.762-1.651c-5.992-0.791-8.658,2.758-10.237,6.965
		c-1.03,2.748-0.496,5.421,0.98,7.811c0.992,1.607,2.357,2.997,3.636,4.412C306.321,101.355,307.545,102.491,308.721,103.67"/>
	<path fill="#231F20" d="M285.052,43.312c-1.322-0.732-1.613-1.912-1.921-3.069c-0.595-2.233-1.172-4.469-1.748-6.707
		c-0.488-1.896-0.451-3.555,1.465-4.817c0.765-0.504,1.353-0.711,2.168-0.429c2.865,0.988,5.724,1.993,8.601,2.944
		c0.972,0.321,1.368,0.992,1.561,1.915c0.842,4.05,1.733,8.09,2.541,12.147c0.375,1.886-0.481,2.528-2.324,1.704
		c-2.033-0.909-4.008-1.95-5.989-2.971C287.981,43.294,286.607,42.396,285.052,43.312 M294.855,44.796
		c0.156-0.147,0.312-0.294,0.467-0.441c-0.577-2.393-1.256-4.766-1.71-7.182c-0.903-4.806-0.285-3.99-4.696-5.476
		c-1.627-0.547-3.195-1.427-5.116-1.359c-0.08,0.453-0.278,0.865-0.193,1.206c0.69,2.781,1.369,5.568,2.21,8.304
		c0.176,0.572,0.946,1.049,1.546,1.384c1.53,0.853,3.108,1.625,4.688,2.384C292.963,44.055,293.919,44.406,294.855,44.796"/>
	<path fill="#231F20" d="M296.842,67.56c-0.072,0.353-0.147,0.828-0.27,1.29c-1.135,4.322-2.095,8.703-4.086,12.749
		c-0.725,1.473-1.249,1.653-2.578,0.731c-2.583-1.793-4.956-3.834-6.259-6.789c-1.256-2.848-1.268-5.781,0.133-8.569
		c0.782-1.559,1.895-2.952,2.864-4.416c0.558-0.842,1.327-1.176,2.271-0.749c2.184,0.986,4.363,1.981,6.507,3.047
		C296.439,65.357,296.873,66.3,296.842,67.56 M290.785,80.368c0.437-0.905,0.911-1.645,1.163-2.452
		c0.711-2.281,1.394-4.574,1.973-6.891c1.052-4.202,0.46-5.254-3.634-6.827c-0.075-0.029-0.151-0.054-0.221-0.092
		c-1.209-0.644-2.087-0.209-2.904,0.773C282.7,70.243,283.994,76.957,290.785,80.368"/>
	<path fill="#231F20" d="M365.111,77.366c-0.461-0.318-0.977-0.554-1.328-0.94c-1.878-2.068-3.738-4.154-5.556-6.277
		c-1.048-1.225-1.044-2.066,0.195-3.079c1.166-0.952,2.498-1.715,3.805-2.479c1.517-0.886,3.082-1.688,4.632-2.517
		c1.556-0.832,2.244-0.801,3.391,0.468c1.603,1.777,3.142,3.616,4.629,5.492c1.061,1.338,1.008,1.839-0.375,2.998
		c-1.343,1.125-2.794,2.122-4.227,3.136c-1.173,0.831-2.377,1.618-3.587,2.395C366.229,76.857,365.713,77.064,365.111,77.366
		 M359.828,69.298c1.414,1.606,2.721,3.081,4.017,4.564c0.841,0.964,1.754,0.965,2.729,0.231c2.271-1.705,4.536-3.414,6.979-5.251
		c-1.27-1.483-2.332-2.749-3.422-3.992c-0.727-0.829-1.545-0.971-2.548-0.391c-0.892,0.515-1.901,0.824-2.792,1.339
		C363.166,66.735,361.3,67.345,359.828,69.298"/>
	<path fill="#00ADDD" d="M353.259,30.388c-0.65,0.397-1.279,0.836-1.959,1.175c-0.494,0.248-1.064,0.338-1.583,0.545
		c-1.774,0.708-1.913,1.403-0.574,2.735c0.768,0.765,1.521,1.545,2.399,2.439c-1.224,0.9-2.215,0.583-3.126,0.138
		c-2.36-1.153-4.849-1.431-7.442-1.451c-3.992-0.03-6.65,1.847-8.299,5.356c-0.336,0.716-0.613,1.46-0.986,2.356
		c-1.793-1.212-2.902-2.825-3.444-4.739c-1.046-3.698-1.02-7.299,1.849-10.298c1.98-2.07,4.618-2.826,7.345-3.121
		c5.455-0.589,10.4,1.099,15.114,3.665c0.288,0.156,0.6,0.268,0.9,0.401C353.388,29.855,353.324,30.122,353.259,30.388
		 M351.362,29.976c-0.117-0.062-0.249-0.191-0.35-0.17c-0.124,0.025-0.222,0.175-0.331,0.272c0.156,0.088,0.305,0.2,0.473,0.246
		C351.189,30.333,351.291,30.099,351.362,29.976"/>
	<path fill="#FFFFFF" d="M325.911,81.552c2.76-1.475,5.316-2.765,7.796-4.188c2.66-1.527,5.039-3.406,6.333-6.315
		c1.587-3.566,1.518-7.062-0.24-10.616c-2.163-4.375-4.465-8.647-7.491-12.498c-0.172-0.219-0.207-0.546-0.425-1.153
		c0.71,0.283,1.18,0.363,1.514,0.62c2.782,2.141,5.699,4.141,8.26,6.524c2.806,2.61,5.563,5.516,5.798,9.623
		c0.292,5.148-0.68,9.918-4.847,13.634c-4.069,3.629-8.776,5.045-14.092,4.887c-0.557-0.017-1.116-0.066-1.669-0.142
		C326.625,81.896,326.416,81.76,325.911,81.552"/>
	<path fill="#00ADDD" d="M308.721,103.67c-1.176-1.179-2.4-2.314-3.515-3.549c-1.278-1.415-2.644-2.805-3.636-4.412
		c-1.477-2.39-2.011-5.062-0.98-7.811c1.579-4.207,4.245-7.756,10.237-6.965c-0.273,0.598-0.475,1.149-0.762,1.651
		c-1.585,2.773-1.853,5.589-0.239,8.433c1.024,1.807,2.142,3.561,3.198,5.35c0.594,1.006,1.15,2.034,2.011,3.562
		c-1.474-0.254-2.383-0.395-3.285-0.57c-2.312-0.451-2.913,0.083-2.72,2.463c0.043,0.542,0.134,1.079,0.203,1.619
		C309.064,103.518,308.892,103.594,308.721,103.67"/>
	<path fill="#FFFFFF" d="M294.855,44.797c-0.936-0.391-1.891-0.742-2.805-1.18c-1.58-0.76-3.158-1.531-4.688-2.385
		c-0.6-0.334-1.37-0.812-1.546-1.383c-0.84-2.736-1.52-5.523-2.21-8.304c-0.085-0.341,0.113-0.753,0.193-1.206
		c1.921-0.068,3.488,0.812,5.115,1.359c4.412,1.486,3.794,0.67,4.697,5.476c0.454,2.416,1.133,4.789,1.71,7.181
		C295.167,44.502,295.011,44.649,294.855,44.797 M288.821,39.921c0.617-1.818-0.026-3.43-1.818-4.554
		C286.364,37.02,287.021,38.666,288.821,39.921 M290.33,35.146c-0.238,1.691,0.26,3.056,1.915,4.265
		C292.541,37.365,291.996,36.029,290.33,35.146"/>
	<path fill="#00ADDD" d="M290.785,80.368c-6.791-3.411-8.085-10.125-3.623-15.489c0.817-0.982,1.695-1.417,2.904-0.773
		c0.069,0.038,0.146,0.063,0.221,0.092c4.094,1.573,4.686,2.625,3.634,6.827c-0.579,2.316-1.262,4.609-1.973,6.891
		C291.696,78.724,291.221,79.463,290.785,80.368"/>
	<path fill="#FFFFFF" d="M359.828,69.298c1.473-1.953,3.338-2.562,4.963-3.5c0.892-0.515,1.901-0.824,2.793-1.339
		c1.003-0.58,1.821-0.438,2.548,0.391c1.09,1.243,2.152,2.509,3.422,3.992c-2.443,1.838-4.709,3.547-6.979,5.252
		c-0.976,0.733-1.889,0.732-2.729-0.23C362.548,72.379,361.242,70.904,359.828,69.298 M367.129,72.591
		c-0.131-2.301-1.509-3.724-3.598-3.925C364.29,70.338,365.348,71.52,367.129,72.591 M366.288,66.592
		c0.506,1.113,0.779,2.486,2.547,2.629C368.599,67.579,367.633,66.911,366.288,66.592"/>
	<path fill="#231F20" d="M351.362,29.976c-0.071,0.123-0.173,0.357-0.209,0.347c-0.167-0.045-0.315-0.158-0.471-0.246
		c0.108-0.096,0.207-0.247,0.331-0.272C351.113,29.784,351.244,29.913,351.362,29.976"/>
	<path fill="#231F20" d="M288.821,39.921c-1.8-1.255-2.458-2.901-1.818-4.554C288.794,36.491,289.438,38.102,288.821,39.921"/>
	<path fill="#231F20" d="M290.33,35.146c1.666,0.883,2.211,2.219,1.915,4.265C290.589,38.202,290.091,36.837,290.33,35.146"/>
	<path fill="#231F20" d="M367.128,72.591c-1.779-1.071-2.84-2.253-3.597-3.925C365.62,68.867,366.998,70.29,367.128,72.591"/>
	<path fill="#231F20" d="M366.288,66.592c1.346,0.319,2.312,0.987,2.547,2.629C367.067,69.078,366.793,67.705,366.288,66.592"/>
	<path fill="#231F20" d="M22.204,31.169c-2.111-1.769-2.07-2.322,0.305-3.804c0.27-0.168,0.562-0.303,0.845-0.451
		c3.155-1.649,6.546-2.439,10.036-3.064c3.777-0.677,7.338-0.144,10.81,1.221c4.121,1.62,7.289,5.594,7.176,10.645
		c-0.098,4.425-1.363,8.494-4.136,12.023c-3.127,3.979-5.687,8.275-7.626,12.969c-2.255,5.46-0.876,10.862,3.806,13.687
		c2.254,1.36,4.53,2.807,6.986,3.677c2.441,0.864,5.105,1.291,7.701,1.467c2.036,0.139,4.111-0.516,6.179-0.613
		c4.486-0.211,8.637,0.5,11.3,4.733c0.422,0.671,0.914,1.345,1.517,1.847c0.768,0.64,1.045,1.311,0.871,2.293
		c-0.109,0.615,0.03,1.273,0.035,1.912c0.035,4.512-1.327,8.496-4.519,11.762c-1.729,1.768-3.5,3.494-5.266,5.226
		c-0.594,0.582-1.232,1.119-1.902,1.724c-1.909-1.9-0.232-4.287-1.561-6.346c-1.235,0.291-2.529,0.583-3.817,0.901
		c-0.893,0.222-1.914,0.405-2.321-0.569c-0.299-0.713-0.105-1.645-0.068-2.477c0.008-0.2,0.269-0.385,0.402-0.584
		c1.64-2.457,3.4-4.848,4.871-7.403c0.897-1.56,1.659-3.329,1.929-5.089c0.436-2.842-1.556-4.787-4.426-4.613
		c-2.368,0.145-4.732,0.409-7.088,0.702c-4.606,0.574-9.176,1.179-13.774-0.258c-4.951-1.548-9.075-4.146-11.191-8.999
		c-1.199-2.753-2.135-5.745-2.486-8.712c-0.431-3.649,1.465-6.759,3.61-9.642c2.386-3.208,5.538-5.536,8.859-7.609
		c2.185-1.365,3.151-2.845,2.418-5.524c-0.736-2.693-1.849-3.975-4.642-4.197c-2.26-0.18-4.433,0.152-6.606,0.856
		c-1.889,0.612-3.864,1.026-5.832,1.307c-2.127,0.304-3.039-0.981-2.095-2.886c0.627-1.266,1.494-2.412,2.394-3.833
		C23.902,32.604,23.056,31.882,22.204,31.169 M25.434,31.563c0.494,0.247,1.065,0.338,1.583,0.545
		c1.775,0.708,1.912,1.403,0.575,2.734c-0.768,0.765-1.521,1.545-2.4,2.439c1.223,0.901,2.214,0.583,3.126,0.138
		c2.361-1.153,4.849-1.43,7.442-1.45c3.992-0.031,6.651,1.846,8.299,5.356c0.336,0.715,0.613,1.459,0.987,2.356
		c1.792-1.212,2.902-2.825,3.444-4.74c1.046-3.697,1.021-7.298-1.85-10.298c-1.98-2.069-4.617-2.826-7.343-3.12
		c-5.455-0.59-10.402,1.099-15.116,3.664c-0.287,0.157-0.599,0.268-0.899,0.401c0.064,0.266,0.128,0.533,0.193,0.8
		C24.125,30.784,24.755,31.223,25.434,31.563 M43.028,77.363c-2.661-1.527-5.039-3.406-6.333-6.316
		c-1.586-3.566-1.517-7.061,0.24-10.615c2.164-4.375,4.465-8.647,7.491-12.498c0.172-0.219,0.208-0.546,0.425-1.154
		c-0.71,0.283-1.18,0.364-1.514,0.621c-2.782,2.14-5.699,4.141-8.26,6.524c-2.804,2.61-5.563,5.515-5.796,9.623
		c-0.293,5.147,0.678,9.917,4.845,13.633c4.07,3.63,8.777,5.045,14.092,4.888c0.558-0.017,1.116-0.067,1.669-0.142
		c0.223-0.031,0.432-0.168,0.937-0.375C48.065,80.077,45.508,78.787,43.028,77.363 M71.528,100.121
		c1.278-1.416,2.644-2.805,3.636-4.412c1.476-2.39,2.011-5.062,0.98-7.81c-1.579-4.208-4.245-7.757-10.238-6.965
		c0.273,0.598,0.476,1.147,0.763,1.651c1.585,2.772,1.852,5.588,0.239,8.432c-1.025,1.807-2.142,3.561-3.198,5.35
		c-0.594,1.006-1.151,2.034-2.011,3.562c1.474-0.254,2.383-0.395,3.285-0.57c2.313-0.451,2.913,0.083,2.72,2.463
		c-0.044,0.542-0.134,1.079-0.203,1.619c0.17,0.076,0.341,0.152,0.512,0.229C69.189,102.491,70.414,101.356,71.528,100.121"/>
	<path fill="#231F20" d="M87.33,44.028c-1.982,1.021-3.957,2.063-5.99,2.971c-1.843,0.824-2.699,0.182-2.323-1.704
		c0.807-4.057,1.698-8.097,2.541-12.147c0.192-0.923,0.588-1.594,1.56-1.915c2.877-0.95,5.736-1.956,8.6-2.944
		c0.815-0.281,1.403-0.075,2.168,0.429c1.916,1.262,1.953,2.921,1.465,4.817c-0.576,2.238-1.154,4.475-1.748,6.707
		c-0.308,1.157-0.598,2.337-1.92,3.069C90.127,42.396,88.754,43.294,87.33,44.028 M84.684,43.616
		c1.581-0.759,3.158-1.531,4.689-2.384c0.599-0.335,1.369-0.812,1.545-1.384c0.841-2.736,1.521-5.523,2.211-8.304
		c0.084-0.341-0.113-0.753-0.193-1.205c-1.922-0.069-3.49,0.811-5.116,1.359c-4.412,1.485-3.794,0.669-4.697,5.475
		c-0.455,2.416-1.134,4.789-1.711,7.182c0.156,0.147,0.312,0.294,0.467,0.441C82.816,44.406,83.771,44.055,84.684,43.616"/>
	<path fill="#231F20" d="M81.31,64.854c2.144-1.066,4.324-2.06,6.507-3.046c0.944-0.428,1.713-0.094,2.271,0.749
		c0.969,1.464,2.082,2.857,2.864,4.415c1.401,2.788,1.39,5.721,0.133,8.569c-1.303,2.954-3.676,4.995-6.259,6.789
		c-1.329,0.922-1.854,0.741-2.578-0.73c-1.991-4.047-2.951-8.428-4.086-12.75c-0.122-0.462-0.197-0.937-0.27-1.289
		C79.861,66.3,80.296,65.358,81.31,64.854 M89.573,64.879c-0.817-0.981-1.695-1.417-2.904-0.772c-0.07,0.037-0.146,0.063-0.22,0.091
		c-4.095,1.573-4.688,2.625-3.635,6.827c0.58,2.316,1.262,4.609,1.973,6.89c0.252,0.81,0.726,1.548,1.163,2.453
		C92.741,76.956,94.035,70.243,89.573,64.879"/>
	<path fill="#231F20" d="M10.044,76.562c-1.21-0.776-2.415-1.563-3.587-2.395c-1.432-1.014-2.884-2.011-4.226-3.136
		c-1.383-1.159-1.438-1.66-0.376-2.998c1.487-1.876,3.026-3.715,4.63-5.492c1.145-1.269,1.835-1.3,3.39-0.468
		c1.549,0.829,3.115,1.631,4.631,2.517c1.307,0.764,2.639,1.527,3.805,2.479c1.24,1.013,1.244,1.854,0.196,3.079
		c-1.817,2.123-3.679,4.208-5.557,6.277c-0.35,0.387-0.867,0.622-1.327,0.94C11.021,77.064,10.505,76.857,10.044,76.562
		 M11.944,65.798c-0.892-0.515-1.902-0.824-2.793-1.339c-1.002-0.58-1.821-0.438-2.548,0.391c-1.089,1.243-2.153,2.509-3.421,3.992
		c2.442,1.838,4.709,3.546,6.978,5.251c0.976,0.733,1.889,0.732,2.731-0.231c1.295-1.483,2.601-2.958,4.016-4.564
		C15.435,67.345,13.57,66.735,11.944,65.798"/>
	<path fill="#00ADDD" d="M23.282,29.588c0.3-0.133,0.612-0.244,0.899-0.401c4.714-2.565,9.661-4.254,15.115-3.664
		c2.727,0.294,5.364,1.05,7.344,3.12c2.87,3,2.896,6.6,1.849,10.298c-0.541,1.915-1.651,3.528-3.443,4.739
		c-0.374-0.896-0.651-1.64-0.987-2.356c-1.649-3.509-4.307-5.386-8.299-5.355c-2.593,0.02-5.082,0.297-7.443,1.45
		c-0.911,0.445-1.902,0.762-3.126-0.138c0.879-0.894,1.633-1.674,2.401-2.439c1.337-1.331,1.2-2.026-0.576-2.734
		c-0.518-0.207-1.088-0.298-1.582-0.545c-0.679-0.34-1.309-0.779-1.96-1.176C23.41,30.122,23.346,29.854,23.282,29.588
		 M25.581,30.323c0.167-0.045,0.316-0.158,0.471-0.246c-0.109-0.096-0.207-0.247-0.33-0.273c-0.101-0.02-0.232,0.109-0.349,0.171
		C25.444,30.099,25.545,30.333,25.581,30.323"/>
	<path fill="#FFFFFF" d="M50.824,81.552c-2.76-1.475-5.317-2.765-7.796-4.188c-2.661-1.527-5.039-3.406-6.333-6.315
		c-1.587-3.566-1.518-7.062,0.24-10.616c2.163-4.375,4.465-8.647,7.491-12.498c0.172-0.219,0.207-0.546,0.425-1.153
		c-0.71,0.283-1.18,0.363-1.514,0.62c-2.782,2.141-5.699,4.141-8.26,6.524c-2.805,2.61-5.563,5.516-5.797,9.623
		c-0.292,5.148,0.679,9.918,4.846,13.634c4.07,3.629,8.777,5.045,14.092,4.887c0.557-0.017,1.116-0.066,1.669-0.142
		C50.11,81.896,50.319,81.76,50.824,81.552"/>
	<path fill="#00ADDD" d="M68.013,103.67c1.176-1.179,2.401-2.314,3.515-3.549c1.278-1.415,2.644-2.805,3.636-4.412
		c1.476-2.39,2.011-5.062,0.98-7.811c-1.579-4.207-4.245-7.756-10.237-6.965c0.273,0.599,0.475,1.149,0.762,1.651
		c1.585,2.773,1.852,5.589,0.239,8.433c-1.025,1.807-2.142,3.561-3.198,5.35c-0.594,1.006-1.151,2.034-2.011,3.562
		c1.474-0.254,2.383-0.395,3.285-0.57c2.313-0.451,2.913,0.083,2.72,2.463c-0.043,0.542-0.134,1.079-0.203,1.619
		C67.671,103.518,67.842,103.594,68.013,103.67"/>
	<path fill="#FFFFFF" d="M81.412,44.355c0.577-2.393,1.256-4.766,1.711-7.182c0.903-4.806,0.285-3.99,4.697-5.475
		c1.626-0.548,3.194-1.428,5.116-1.359c0.08,0.452,0.277,0.864,0.193,1.205c-0.69,2.781-1.37,5.568-2.211,8.304
		c-0.176,0.572-0.946,1.049-1.546,1.384c-1.53,0.853-3.108,1.625-4.688,2.384c-0.913,0.439-1.868,0.79-2.805,1.18
		C81.723,44.649,81.568,44.502,81.412,44.355 M89.732,35.367c-1.792,1.124-2.436,2.735-1.819,4.554
		C89.713,38.666,90.371,37.02,89.732,35.367 M84.489,39.41c1.656-1.208,2.155-2.573,1.915-4.265
		C84.739,36.029,84.193,37.364,84.489,39.41"/>
	<path fill="#00ADDD" d="M85.95,80.368c6.791-3.411,8.085-10.125,3.623-15.489c-0.817-0.982-1.695-1.417-2.904-0.773
		c-0.07,0.038-0.146,0.063-0.221,0.092c-4.094,1.573-4.686,2.625-3.634,6.827c0.579,2.316,1.262,4.609,1.973,6.891
		C85.039,78.724,85.513,79.463,85.95,80.368"/>
	<path fill="#FFFFFF" d="M12.891,73.863c-0.842,0.963-1.755,0.964-2.731,0.23c-2.269-1.705-4.536-3.414-6.979-5.252
		c1.269-1.483,2.332-2.749,3.422-3.992c0.727-0.829,1.545-0.971,2.548-0.391c0.891,0.515,1.901,0.824,2.793,1.339
		c1.625,0.938,3.49,1.547,4.962,3.5C15.492,70.905,14.186,72.379,12.891,73.863 M13.202,68.666
		c-2.087,0.201-3.465,1.624-3.596,3.925C11.386,71.52,12.445,70.338,13.202,68.666 M7.9,69.221c1.767-0.143,2.041-1.516,2.547-2.629
		C9.101,66.911,8.135,67.579,7.9,69.221"/>
	<path fill="#231F20" d="M25.373,29.976c0.071,0.123,0.173,0.357,0.209,0.347c0.167-0.045,0.316-0.158,0.471-0.246
		c-0.109-0.096-0.207-0.247-0.331-0.272C25.622,29.784,25.491,29.913,25.373,29.976"/>
	<path fill="#231F20" d="M87.913,39.921c1.8-1.255,2.458-2.901,1.819-4.554C87.94,36.491,87.296,38.102,87.913,39.921"/>
	<path fill="#231F20" d="M86.404,35.146c-1.666,0.883-2.211,2.219-1.915,4.265C86.146,38.202,86.644,36.837,86.404,35.146"/>
	<path fill="#231F20" d="M9.605,72.591c1.78-1.071,2.84-2.253,3.597-3.925C11.115,68.867,9.737,70.29,9.605,72.591"/>
	<path fill="#231F20" d="M10.447,66.592c-1.346,0.319-2.312,0.987-2.547,2.629C9.667,69.078,9.941,67.705,10.447,66.592"/>
	<path fill="#231F20" d="M221.987,19.167c-0.247-0.555-0.423-1.002-0.639-1.428c-0.611-1.205-1.277-2.383-1.851-3.605
		c-0.726-1.546-0.984-3.189-0.799-4.895c0.182-1.66,0.22-3.352,1.05-4.871c0.188-0.342,0.406-0.667,0.619-0.994
		c0.425-0.65,1.008-0.957,1.806-0.904c0.669,0.046,1.354,0.097,2.012,0.001c1.218-0.177,1.665,0.691,2.036,1.501
		c1.04,2.268,1.15,4.692,0.8,7.113c-0.259,1.788-0.714,3.549-1.11,5.315c-0.25,1.116-0.22,1.453,0.483,3.006
		c3.12,0.099,6.268,0.2,9.554,0.306c0.073-1.487,0.109-2.829,0.215-4.166c0.104-1.307,0.277-2.607,0.421-3.916
		c0.615-0.195,1.115-0.498,1.601-0.475c0.97,0.047,1.513,0.728,1.555,1.815c0.027,0.674-0.062,1.352-0.086,2.028
		c-0.041,1.211-0.076,2.422-0.103,3.633c-0.005,0.206,0.044,0.413,0.08,0.728c0.73,0,1.43-0.01,2.129,0.003
		c1.312,0.023,2.493,0.47,3.567,1.191c0.548,0.368,0.661,1.021,0.745,1.604c0.23,1.613,0.376,3.236,0.571,4.853
		c0.229,1.905,0.476,3.808,0.712,5.712c0.035,0.281,0.082,0.568,0.061,0.849c-0.126,1.741,0.003,3.464,0.334,5.175
		c0.034,0.172,0.144,0.377,0.086,0.512c-0.32,0.764-0.03,1.375,0.347,1.81c-0.067,0.62-0.127,1.098-0.168,1.578
		c-0.027,0.318,0.02,0.648-0.043,0.957c-0.546,2.647-0.195,5.322-0.245,7.983c-0.015,0.803,0.22,1.62,0.402,2.416
		c0.427,1.853,0.413,3.743,0.534,5.622c0.173,2.667,0.366,5.332,0.533,7.999c0.075,1.205,0.078,2.415,0.168,3.619
		c0.278,3.727,0.575,7.453,0.883,11.177c0.129,1.562,0.317,3.117,0.456,4.678c0.271,3.052,0.519,6.105,0.791,9.156
		c0.227,2.515,0.449,5.029,0.721,7.541c0.386,3.578,0.589,7.166,0.721,10.763c0.079,2.164,0.376,4.319,0.499,6.481
		c0.134,2.348,0.163,4.7,0.271,7.049c0.044,0.957,0.18,1.91,0.271,2.863c0.029,0.32,0.158,0.676,0.061,0.952
		c-0.341,0.979-0.481,1.938-0.261,2.976c0.114,0.533-0.283,0.957-0.785,1.145c-0.494,0.186-1.014,0.359-1.533,0.404
		c-1.276,0.109-2.563,0.107-3.841,0.215c-2.088,0.177-4.171,0.414-6.258,0.605c-0.744,0.069-1.494,0.073-2.241,0.116
		c-2.558,0.15-5.133,0.173-7.67,0.493c-3.024,0.382-6.045,0.307-9.071,0.289c-2.099-0.012-4.197-0.075-6.297-0.141
		c-2.165-0.069-4.329-0.178-6.495-0.25c-0.745-0.024-1.495,0.041-2.241,0.007c-1.527-0.068-3.054-0.177-4.579-0.265
		c-0.747-0.045-1.493-0.115-2.24-0.115c-4.987-0.006-9.974-0.051-14.959,0.043c-1.707,0.033-3.4,0.119-5.111-0.004
		c-1.266-0.09-2.553,0.113-3.831,0.185c-0.745,0.041-1.491,0.12-2.237,0.11c-1.889-0.022-3.77-0.026-5.637,0.357
		c-0.656,0.137-1.348,0.094-2.023,0.146c-1.064,0.084-2.127,0.181-3.191,0.271c-0.248,0.021-0.501,0.086-0.744,0.059
		c-2.61-0.287-5.178,0.104-7.756,0.427c-0.984,0.123-1.994,0.035-2.99,0.076c-1.277,0.053-2.553,0.208-3.827,0.186
		c-0.802-0.015-1.639-0.167-2.39-0.446c-1.27-0.472-1.706-1.449-1.562-2.789c0.091-0.844,0.075-1.707,0.026-2.555
		c-0.081-1.422-0.251-2.839-0.342-4.26c-0.18-2.807-0.301-5.617-0.503-8.421c-0.258-3.585-0.557-7.167-0.865-10.748
		c-0.335-3.899-0.673-7.799-1.06-11.692c-0.337-3.4-0.74-6.793-1.119-10.189c-0.332-2.971-0.658-5.942-1.012-8.91
		c-0.224-1.874-0.469-3.746-0.748-5.611c-0.495-3.304-1.035-6.6-1.533-9.903c-0.371-2.464-0.71-4.932-1.052-7.4
		c-0.073-0.529-0.101-1.064-0.133-1.596c-0.114-1.878-0.227-3.755-0.326-5.634c-0.055-1.028-0.113-2.057-0.103-3.085
		c0.004-0.447,0.067-0.959,0.293-1.324c0.472-0.765,0.544-1.598,0.592-2.435c0.082-1.419,0.141-2.841,0.137-4.262
		c-0.002-0.956-0.137-1.912-0.201-2.868c-0.098-1.451-0.209-2.901-0.266-4.354c-0.021-0.526,0.052-1.066,0.158-1.584
		c0.129-0.633,0.178-1.231,0.059-1.891c-0.21-1.161,0.654-2.111,1.812-2.065c1.851,0.073,3.652-0.323,5.474-0.522
		c0.331-0.036,0.643-0.248,1.067-0.422c-0.306-0.809-0.582-1.534-0.854-2.259c-0.113-0.298-0.338-0.609-0.312-0.896
		c0.109-1.199,0.228-2.393,0.82-3.499c0.473-0.881,1.351-1.05,2.103-1.458c0.545,0.272,0.742,0.657,0.565,1.235
		c-0.071,0.235-0.056,0.494-0.1,0.738c-0.314,1.71,0.761,3.029,1.264,4.509c0.045,0.133,0.164,0.243,0.198,0.376
		c0.18,0.725,0.688,0.825,1.358,0.911c1.625,0.209,3.151-0.369,4.732-0.463c0.544-0.033,0.867-0.376,1.069-0.905
		c0.896-2.345,0.939-2.358-0.265-4.551c-0.999-1.82-1.421-3.794-1.625-5.813c-0.148-1.469,0.31-2.888,0.779-4.271
		c0.082-0.244,0.325-0.469,0.549-0.622c0.463-0.314,0.992-0.534,1.442-0.863c0.711-0.518,1.511-0.556,2.328-0.535
		c0.598,0.014,1.015,0.35,1.211,0.894c0.546,1.51,0.889,3.046,0.946,4.677c0.091,2.637-0.281,5.173-1.124,7.661
		c-0.086,0.256-0.04,0.632,0.091,0.872c0.507,0.926,1.073,1.82,1.658,2.795c2.26,0.029,4.626-0.294,6.988-0.742
		c1.147-0.217,2.333-0.232,3.502-0.324c1.416-0.111,2.833-0.22,4.251-0.301c0.524-0.031,0.819-0.289,1.078-0.723
		c0.872-1.466,1.775-2.914,2.678-4.362c0.325-0.522,0.401-1.047,0.165-1.623c-0.203-0.494-0.352-1.011-0.57-1.498
		c-1.144-2.565-1.146-5.232-0.404-7.845c0.725-2.555,2.646-3.757,5.137-3.909c0.163-0.01,0.363,0.053,0.496,0.151
		c0.817,0.596,1.557,1.285,1.685,2.351c0.276,2.286,0.125,4.547-0.643,6.734c-0.529,1.506-1.083,3.005-1.693,4.48
		c-0.188,0.453-0.225,0.814,0.054,1.189c0.91,1.223,1.812,2.452,2.767,3.639c0.155,0.192,0.567,0.257,0.856,0.249
		c1.314-0.038,2.628-0.113,3.94-0.195c2.236-0.138,4.469-0.316,6.705-0.428c1.133-0.057,2.273-0.02,3.409,0.003
		c0.501,0.01,0.91-0.092,1.18-0.555c0.519-0.889,1.04-1.775,1.575-2.653c0.207-0.342,0.17-0.64,0.016-0.999
		c-0.904-2.108-1.4-4.322-1.64-6.599c-0.118-1.114-0.029-2.209,0.307-3.275c0.309-0.977,0.856-1.706,1.979-1.84
		c0.627-0.075,1.241-0.255,1.868-0.334c0.77-0.096,1.39,0.245,1.883,0.809c1.156,1.326,1.664,2.845,1.468,4.621
		c-0.267,2.42-0.731,4.783-1.791,7.157c0.517,0.601,1.056,1.238,1.607,1.864c0.304,0.347,0.735,0.626,0.921,1.023
		c0.312,0.676,0.811,0.67,1.41,0.653c1.1-0.032,2.201-0.033,3.301-0.002c1.598,0.045,3.195,0.293,4.79-0.014
		C221.098,19.437,221.459,19.312,221.987,19.167 M249.784,132.031c0-0.42,0.012-0.838-0.002-1.254
		c-0.02-0.568-0.073-1.138-0.09-1.707c-0.06-2.101-0.068-4.205-0.177-6.303c-0.152-2.953-0.378-5.902-0.571-8.852
		c-0.22-3.377-0.393-6.758-0.669-10.129c-0.3-3.65-0.712-7.291-1.044-10.939c-0.252-2.764-0.461-5.533-0.677-8.301
		c-0.176-2.228-0.303-4.459-0.506-6.684c-0.18-1.943-0.456-3.878-0.652-5.82c-0.117-1.166-0.188-2.337-0.23-3.507
		c-0.048-1.312,0.004-2.628-0.069-3.937c-0.087-1.56-0.359-3.115-0.374-4.673c-0.021-2.078-0.264-4.116-0.651-6.148
		c-0.154-0.802-0.315-1.615-0.337-2.427c-0.045-1.669-0.022-3.342,0.018-5.013c0.025-1.064,0.15-2.125,0.199-3.188
		c0.06-1.304-0.766-2.091-1.89-2.054c-1.602,0.052-3.209,0.024-4.804,0.162c-3.119,0.27-6.271,0.048-9.371,0.63
		c-0.485,0.092-0.995,0.057-1.494,0.067c-1.241,0.025-2.483,0.015-3.723,0.07c-1.67,0.074-3.337,0.218-5.006,0.291
		c-3.878,0.169-7.757,0.301-11.635,0.468c-3.024,0.13-6.05,0.448-9.071,0.398c-4.67-0.078-9.313,0.286-13.967,0.503
		c-0.284,0.013-0.566,0.055-0.848,0.093c-2.852,0.383-5.699,0.826-8.593,0.682c-1.312-0.065-2.629-0.214-3.937-0.165
		c-2.587,0.098-5.169,0.338-7.755,0.465c-4.764,0.231-9.535,0.354-14.277,0.924c-1.94,0.233-3.878,0.493-5.815,0.753
		c-0.717,0.096-1.233,0.448-1.551,1.142c-0.17,0.369-0.523,0.653-0.814,1c0.144,1.701,0.289,3.427,0.438,5.153
		c0.07,0.814,0.113,1.633,0.228,2.44c0.28,1.97,0.622,3.932,0.891,5.904c0.245,1.799,0.32,3.626,0.661,5.404
		c0.696,3.633,1.324,7.271,1.72,10.948c0.045,0.418,0.026,0.843,0.073,1.26c0.241,2.158,0.486,4.316,0.743,6.473
		c0.173,1.448,0.37,2.895,0.55,4.342c0.241,1.94,0.515,3.877,0.703,5.822c0.208,2.156,0.303,4.324,0.507,6.481
		c0.322,3.401,0.75,6.794,1.032,10.198c0.38,4.57,0.665,9.148,0.988,13.724c0.165,2.343,0.312,4.688,0.491,7.03
		c0.034,0.447,0.174,0.887,0.27,1.352c0.661,0,1.254,0.116,1.781-0.021c1.543-0.402,3.109-0.326,4.671-0.377
		c0.142-0.006,0.287-0.01,0.424-0.043c1.812-0.442,3.659-0.453,5.508-0.449c0.814,0.002,1.634,0.041,2.442-0.032
		c2.265-0.203,4.522-0.506,6.789-0.67c1.632-0.119,3.275-0.076,4.914-0.11c0.461-0.01,0.934,0.02,1.382-0.068
		c1.874-0.367,3.742-0.383,5.63-0.1c0.658,0.098,1.346,0.02,2.018-0.017c0.604-0.032,1.204-0.169,1.806-0.169
		c5.201-0.008,10.401-0.034,15.601,0.029c2.487,0.031,4.957,0.422,7.46,0.371c2.309-0.045,4.622,0.159,6.935,0.238
		c0.64,0.021,1.283-0.029,1.924-0.016c2.884,0.059,5.767,0.139,8.65,0.188c0.818,0.015,1.639-0.028,2.454-0.083
		c1.242-0.082,2.482-0.207,3.724-0.299c1.49-0.109,2.983-0.184,4.473-0.307c1.773-0.145,3.543-0.34,5.316-0.488
		c2.229-0.186,4.461-0.344,6.689-0.52C249.423,132.156,249.555,132.096,249.784,132.031 M140.673,42.362
		c0.06,0.007,0.2,0.056,0.327,0.035c1.753-0.29,3.504-0.588,5.291-0.552c0.07,0.002,0.141-0.019,0.212-0.031
		c4.789-0.808,9.639-0.89,14.469-1.204c1.386-0.09,2.771-0.184,4.155-0.279c0.781-0.053,1.561-0.151,2.341-0.156
		c2.208-0.016,4.417,0.035,6.625,0.006c1.952-0.025,3.903,0.056,5.85-0.342c1.383-0.284,2.824-0.293,4.242-0.398
		c1.738-0.129,3.478-0.234,5.218-0.345c0.993-0.063,1.988-0.181,2.979-0.163c4.629,0.085,9.255,0.008,13.867-0.338
		c5.938-0.444,11.888-0.513,17.831-0.765c1.849-0.079,3.694-0.243,5.54-0.379c0.923-0.068,1.842-0.204,2.766-0.233
		c2.99-0.097,5.982-0.151,8.975-0.241c0.596-0.018,1.19-0.121,1.848-0.193c0.219-2.282,0.023-4.47-0.356-6.631
		c-0.385-2.189-0.135-4.464-0.809-6.642c-0.786,0-1.46,0.02-2.133-0.004c-1.053-0.038-1.673,0.433-2.123,1.404
		c-0.938,2.025-1.909,4.038-3.315,5.81c-0.788,0.993-1.615,1.878-2.845,2.316c-1.163,0.413-2.209-0.173-2.515-1.329
		c-0.403-1.524,0.502-2.92,2.266-3.196c0.295-0.045,0.664-0.139,0.834-0.346c1.023-1.241,1.873-2.589,2.241-4.185
		c0.014-0.053-0.055-0.124-0.084-0.184c-0.062-0.038-0.122-0.106-0.182-0.107c-3.418-0.063-6.836-0.128-10.254-0.157
		c-0.214-0.002-0.534,0.245-0.63,0.455c-0.994,2.187-2.397,4.079-3.919,5.927c-0.696,0.845-1.53,1.343-2.399,1.877
		c-0.181,0.111-0.415,0.161-0.559,0.304c-0.512,0.511-1.15,0.501-1.789,0.481c-0.462-0.014-0.922-0.066-1.383-0.11
		c-0.897-0.087-1.627-1.108-1.356-1.894c0.127-0.372,1.82-2.219,2.172-2.414c0.474-0.262,0.939-0.298,1.424-0.043
		c0.152,0.08,0.316,0.136,0.538,0.23c1.376-1.403,2.963-2.606,3.557-4.694c-0.406-0.037-0.686-0.079-0.965-0.086
		c-3.206-0.078-6.41-0.168-9.617-0.218c-1.314-0.021-2.631,0.048-3.946,0.074c-0.533,0.009-0.919,0.186-1.218,0.689
		c-0.379,0.638-0.839,1.243-1.342,1.791c-1.342,1.467-2.677,2.945-4.107,4.323c-1.116,1.076-2.157,2.269-3.607,2.952
		c-0.154,0.073-0.319,0.195-0.402,0.339c-0.442,0.764-1.121,1.105-1.955,1.335c-1.371,0.379-2.692-0.336-2.952-1.747
		c-0.083-0.448-0.058-0.92-0.054-1.381c0.013-1.476,1.438-2.693,3.139-2.672c0.712,0.01,0.871,0.657,1.396,0.928
		c0.235-0.185,0.472-0.338,0.667-0.532c0.962-0.95,1.923-1.902,2.865-2.872c0.719-0.74,1.418-1.501,2.104-2.271
		c0.17-0.19,0.257-0.453,0.441-0.793c-0.502,0-0.855-0.026-1.206,0.004c-1.523,0.133-3.045,0.332-4.571,0.412
		c-2.346,0.123-4.691,0.102-7.032,0.419c-2.752,0.372-5.527,0.57-8.293,0.822c-0.502,0.045-0.844,0.224-1.139,0.651
		c-0.626,0.904-1.292,1.784-1.983,2.641c-1.373,1.705-2.916,3.271-4.16,5.083c-0.059,0.086-0.14,0.164-0.225,0.225
		c-0.547,0.396-1.076,0.824-1.653,1.172c-1.246,0.75-3.05,0.332-3.666-0.812c-0.854-1.586-0.377-3.013,1.151-3.857
		c0.622-0.344,1.23-0.235,1.75-0.109c1.135,0.276,1.734-0.352,2.328-1.069c0.721-0.872,1.416-1.765,2.102-2.665
		c0.194-0.254,0.543-0.473,0.386-0.967c-1.329,0.093-2.65,0.111-3.946,0.296c-2.219,0.316-4.422,0.756-6.676,0.762
		c-0.284,0-0.568,0.046-0.852,0.07c-1.559,0.134-3.118,0.376-4.676,0.363c-1.058-0.008-1.636,0.392-2.124,1.25
		c-0.649,1.142-1.256,2.356-2.131,3.308c-1.005,1.095-1.031,2.641-2.012,3.702c-0.1,0.109-0.013,0.392-0.013,0.435
		c-0.659,0.348-1.216,0.644-1.775,0.936c-0.855,0.447-1.648,0.096-2.302-0.369c-0.578-0.411-0.971-1.107-0.742-1.874
		c0.209-0.698,0.554-1.358,0.864-2.024c0.297-0.638,0.713-1.107,1.493-1.215c0.545-0.075,1.174-0.195,1.578-0.525
		c0.902-0.738,1.446-1.77,1.984-2.851c-1.594,0-3.044-0.036-4.492,0.013c-0.958,0.032-1.918,0.151-2.868,0.291
		c-1.3,0.19-2.59,0.453-3.89,0.654c-0.823,0.128-0.958,0.163-0.958,0.969c0.002,1.562,0.077,3.124,0.148,4.684
		c0.061,1.348,0.188,2.694,0.23,4.043C140.705,39.688,140.673,40.997,140.673,42.362 M222.528,5.522
		c-0.608,2.664-0.92,5.136,0.611,7.538C224.14,11.225,223.83,7.033,222.528,5.522 M157.339,15.643
		c0.081-0.004,0.161-0.008,0.241-0.013c0.408-1.994,0.237-3.985-0.152-5.968c-0.082-0.416-0.13-0.916-0.743-1.137
		c-0.197,0.747-0.422,1.442-0.551,2.155c-0.074,0.408-0.06,0.862,0.038,1.266c0.257,1.062,0.574,2.11,0.884,3.16
		C157.112,15.295,157.243,15.464,157.339,15.643 M183.052,5.12c-1.581,1.884-1.827,4.523-0.64,5.81
		C183.192,9.095,183.667,7.271,183.052,5.12 M182.881,20.813c-0.379-0.548-0.642-0.928-0.992-1.434
		c-0.373,0.574-0.648,0.997-0.924,1.42c0.043,0.074,0.086,0.148,0.129,0.223C181.625,20.96,182.155,20.898,182.881,20.813
		 M206.292,7.239c-0.177,1.051,0.076,1.855,0.384,2.819C207.04,9,207.059,8.157,206.292,7.239"/>
	<path fill="#FFFFFF" d="M249.785,132.031c-0.229,0.064-0.362,0.125-0.497,0.136c-2.229,0.177-4.462,0.335-6.69,0.521
		c-1.773,0.148-3.543,0.344-5.316,0.489c-1.489,0.122-2.982,0.196-4.472,0.306c-1.242,0.092-2.482,0.217-3.725,0.299
		c-0.815,0.056-1.636,0.097-2.453,0.082c-2.885-0.049-5.768-0.129-8.651-0.188c-0.642-0.013-1.284,0.038-1.924,0.017
		c-2.312-0.078-4.625-0.283-6.935-0.237c-2.503,0.05-4.973-0.341-7.459-0.371c-5.2-0.063-10.4-0.038-15.602-0.03
		c-0.602,0-1.202,0.137-1.806,0.17c-0.672,0.035-1.36,0.114-2.018,0.016c-1.888-0.282-3.756-0.268-5.629,0.099
		c-0.449,0.088-0.922,0.06-1.383,0.069c-1.639,0.035-3.282-0.008-4.914,0.109c-2.267,0.166-4.524,0.469-6.788,0.672
		c-0.809,0.071-1.628,0.033-2.443,0.031c-1.849-0.004-3.696,0.008-5.508,0.449c-0.137,0.033-0.282,0.037-0.424,0.042
		c-1.562,0.051-3.128-0.024-4.671,0.378c-0.527,0.137-1.12,0.021-1.781,0.021c-0.096-0.465-0.236-0.904-0.27-1.352
		c-0.178-2.343-0.326-4.688-0.491-7.031c-0.322-4.574-0.608-9.152-0.988-13.723c-0.282-3.404-0.71-6.796-1.032-10.197
		c-0.204-2.158-0.298-4.326-0.507-6.482c-0.188-1.945-0.462-3.883-0.703-5.821c-0.18-1.448-0.377-2.894-0.55-4.344
		c-0.256-2.156-0.502-4.313-0.743-6.472c-0.046-0.418-0.027-0.842-0.072-1.26c-0.397-3.677-1.025-7.316-1.721-10.948
		c-0.34-1.779-0.416-3.606-0.661-5.404c-0.269-1.972-0.61-3.934-0.891-5.904c-0.115-0.808-0.158-1.626-0.228-2.44
		c-0.148-1.726-0.294-3.452-0.438-5.153c0.291-0.348,0.645-0.632,0.814-1.001c0.318-0.694,0.834-1.046,1.551-1.142
		c1.937-0.259,3.875-0.519,5.815-0.753c4.742-0.57,9.513-0.692,14.277-0.924c2.586-0.126,5.168-0.366,7.755-0.464
		c1.309-0.05,2.625,0.1,3.937,0.165c2.894,0.143,5.741-0.3,8.593-0.683c0.282-0.037,0.564-0.079,0.848-0.093
		c4.653-0.217,9.297-0.58,13.967-0.503c3.021,0.051,6.047-0.267,9.071-0.398c3.878-0.166,7.757-0.299,11.635-0.467
		c1.67-0.073,3.336-0.218,5.006-0.291c1.239-0.056,2.481-0.045,3.723-0.07c0.499-0.01,1.009,0.024,1.494-0.067
		c3.1-0.582,6.252-0.361,9.371-0.631c1.595-0.138,3.202-0.109,4.804-0.162c1.124-0.036,1.95,0.751,1.89,2.054
		c-0.049,1.064-0.173,2.125-0.199,3.189c-0.04,1.67-0.062,3.343-0.018,5.013c0.021,0.811,0.184,1.624,0.337,2.426
		c0.388,2.032,0.631,4.07,0.651,6.148c0.015,1.559,0.286,3.113,0.374,4.674c0.073,1.309,0.021,2.625,0.069,3.936
		c0.043,1.171,0.113,2.342,0.23,3.507c0.195,1.942,0.473,3.878,0.651,5.821c0.205,2.225,0.332,4.457,0.507,6.684
		c0.216,2.768,0.425,5.536,0.677,8.301c0.332,3.647,0.744,7.288,1.044,10.939c0.275,3.372,0.449,6.752,0.67,10.129
		c0.192,2.95,0.418,5.898,0.57,8.852c0.108,2.099,0.116,4.203,0.178,6.303c0.016,0.57,0.069,1.138,0.089,1.707
		C249.795,131.193,249.785,131.611,249.785,132.031 M187.31,107.682c-0.961,0.537-1.819,0.625-2.727,0.43
		c-0.307-0.066-0.648-0.096-0.954-0.037c-1.66,0.312-3.324,0.296-4.997,0.148c-0.348-0.031-0.713,0.016-1.059,0.086
		c-1.142,0.228-2.268,0.592-3.42,0.698c-1.384,0.129-2.479,0.789-3.554,1.543c-0.174,0.122-0.312,0.397-0.334,0.616
		c-0.134,1.322-0.093,2.627,0.427,3.887c0.23,0.557,0.47,1.145,0.518,1.732c0.197,2.439,0.312,4.886,0.48,7.328
		c0.048,0.707,0.126,1.414,0.994,1.686c0.24,0.074,0.438,0.346,0.61,0.562c0.812,1.024,1.831,1.351,3.084,0.976
		c0.34-0.103,0.688-0.187,1.039-0.241c2.598-0.396,5.199-0.777,7.796-1.179c0.561-0.086,1.111-0.243,1.668-0.353
		c0.984-0.195,1.955-0.166,2.964-0.08c1.959,0.166,3.936,0.078,5.901,0.217c0.31,0.021,0.629-0.158,0.944-0.157
		c3.089,0.009,6.152-0.674,9.255-0.325c0.277,0.031,0.566-0.054,0.85-0.068c1.173-0.065,2.344-0.144,3.517-0.178
		c1.24-0.037,2.494,0.064,3.723-0.066c1.531-0.164,3.163-0.153,4.319-1.479c0.08-0.092,0.252-0.113,0.387-0.15
		c1.356-0.379,1.543-0.623,1.517-1.998c-0.004-0.215-0.021-0.428-0.029-0.643c-0.055-1.457-0.074-2.91,0.214-4.357
		c0.409-2.053,0.923-4.09,1.021-6.196c0.041-0.896-0.247-1.66-1.017-2.081c-0.632-0.346-1.313-0.691-2.128-0.495
		c-0.437,0.104-0.92,0.031-1.38,0.011c-0.818-0.039-1.634-0.113-2.452-0.146c-1.482-0.058-2.939-0.287-4.451-0.164
		c-1.564,0.127-3.166-0.177-4.75-0.296c-0.062-0.006-0.119-0.068-0.247-0.145c-0.024-0.229-0.079-0.504-0.082-0.781
		c-0.01-1.172,0.119-2.359-0.033-3.512c-0.289-2.191-0.349-4.39-0.425-6.589c-0.135-3.915-0.059-7.837-0.482-11.739
		c-0.111-1.027-0.2-2.058-0.248-3.088c-0.128-2.738-0.227-5.478-0.34-8.216c-0.058-1.386-0.125-2.771-0.182-4.158
		c-0.019-0.459,0.019-0.924-0.038-1.378c-0.153-1.27-0.46-2.534-0.489-3.805c-0.041-1.785-0.206-3.548-0.442-5.313
		c-0.118-0.877-0.068-1.775-0.138-2.66c-0.047-0.592-0.318-1.174,0.029-1.766c0.056-0.094,0.002-0.278-0.048-0.402
		c-0.342-0.851-1.516-1.691-2.421-1.593c-1.835,0.2-3.662,0.478-5.489,0.74c-1.087,0.155-2.17,0.342-3.255,0.51
		c-0.315,0.05-0.636,0.072-0.951,0.128c-1.812,0.319-3.623,0.647-5.437,0.963c-0.134,0.024-0.296,0.009-0.42-0.045
		c-0.636-0.272-1.119,0.066-1.558,0.421c-1.501,1.211-2.791,2.613-3.902,4.204c-1.282,1.836-2.625,3.634-4.021,5.385
		c-1.301,1.635-2.735,3.164-4.058,4.782c-2.287,2.798-4.535,5.628-6.796,8.447c-0.491,0.613-0.517,1.354-0.033,1.961
		c0.374,0.467,0.788,0.905,1.211,1.332c1.898,1.911,3.812,3.807,5.705,5.725c0.347,0.352,0.647,0.756,0.927,1.166
		c0.452,0.66,1.06,1.027,1.849,1.127c0.277,0.035,0.55,0.115,0.818,0.197c1.086,0.334,2.191-0.094,2.813-1.084
		c0.846-1.35,1.779-2.651,2.531-4.051c1.098-2.046,2.842-3.506,4.388-5.246c0.085,0.202,0.169,0.323,0.187,0.454
		c0.189,1.374,0.372,2.749,0.549,4.124c0.463,3.598,0.935,7.194,1.378,10.795c0.247,2.012,0.465,4.026,0.655,6.043
		c0.113,1.202,0.019,2.438,0.248,3.612C187.315,104.873,187.057,106.279,187.31,107.682 M209.351,71.415
		c-0.149,0-0.221,0.001-0.291,0c-1.08-0.018-1.077-0.017-1.461,1.019c-0.061,0.164-0.166,0.312-0.234,0.475
		c-0.253,0.603-0.102,1.098,0.39,1.52c1.062,0.912,2.309,1.164,3.657,1.037c0.423-0.039,0.839-0.195,1.261-0.208
		c1.638-0.048,2.825-0.971,3.704-2.166c1.523-2.069,1.16-3.976,0.022-6.089c-0.256-0.475-0.684-0.9-1.122-1.228
		c-1.041-0.78-2.158-1.459-3.204-2.232c-0.826-0.611-1.593-1.302-2.386-1.957c-0.488-0.404-0.682-0.945-0.493-1.525
		c0.274-0.843,0.616-1.669,0.987-2.475c0.147-0.322,0.425-0.467,0.881-0.357c1.404,0.337,2.451,1.454,2.665,2.956
		c0.069,0.491,0.159,0.981,0.28,1.46c0.139,0.535,0.505,0.808,1.065,0.895c1.195,0.184,2.222-0.776,2.242-2.087
		c0.02-1.358-0.415-2.563-1.141-3.683c-0.229-0.355-0.408-0.794-0.732-1.027c-0.89-0.638-1.836-1.198-2.772-1.77
		c-0.912-0.557-1.963-0.019-2.907-0.341c-0.604,0.432-1.335,0.76-1.785,1.315c-1.102,1.356-1.927,2.908-2.494,4.56
		c-0.518,1.506-0.33,2.988,0.819,4.16c0.889,0.906,1.895,1.705,2.893,2.495c1.193,0.943,2.417,1.85,3.664,2.72
		c0.332,0.232,0.514,0.475,0.546,0.844c0.055,0.644,0.11,1.297-0.514,1.744c-0.658,0.471-1.423,0.592-2.115,0.259
		C210.27,71.485,209.831,71.263,209.351,71.415 M221.813,57.285c0.066,0.726,0.101,1.36,0.188,1.986
		c0.552,3.978,0.998,7.963,1.059,11.985c0.021,1.374,0.666,1.93,2.118,1.918c1.024-0.009,1.783-0.842,1.785-1.984
		c0.001-1.097-0.01-2.195-0.024-3.292c-0.003-0.212-0.046-0.424-0.074-0.636c-0.077-0.598-0.161-1.196-0.234-1.796
		c-0.228-1.871-0.463-3.741-0.675-5.614c-0.103-0.906-0.285-1.822,0.133-2.864c0.737-0.018,1.565-0.225,2.27-0.014
		c1.521,0.456,2.877,0.04,4.227-0.502c0.439-0.176,0.818-0.56,1.159-0.912c0.336-0.348,0.278-0.82-0.013-1.151
		c-0.623-0.71-1.377-1.205-2.387-1.201c-1.101,0.006-2.203-0.07-3.303-0.037c-1.206,0.035-2.407,0.184-3.613,0.229
		c-1.313,0.049-2.63,0.035-3.944,0.049c-1.133,0.011-2.119,0.916-2.127,1.953c-0.006,0.666,1.042,1.641,1.814,1.706
		C220.693,57.151,221.211,57.22,221.813,57.285 M232.714,77.281c-1.187-1.479-2.044-1.914-3.417-1.506
		c-1.049,0.313-2.088,0.371-3.158,0.377c-0.949,0.004-1.93-0.176-2.822,0.339c-0.085,0.048-0.212,0.047-0.315,0.034
		c-1.692-0.215-3.292,0.451-4.959,0.526c-1.02,0.046-2.035,0.265-3.047,0.437c-1.325,0.226-2.637,0.602-3.969,0.687
		c-1.187,0.076-1.825,0.606-2.197,1.647c-0.196,0.551-0.022,1.199,0.514,1.443c0.852,0.387,1.722,0.561,2.69,0.34
		c1.512-0.344,3.05-0.569,4.579-0.834c0.206-0.037,0.423-0.002,0.635-0.012c0.247-0.012,0.495-0.021,0.739-0.061
		c1.709-0.27,3.401-0.617,5.145-0.684c1.199-0.045,2.385-0.316,3.602-0.125c0.37,0.059,0.776-0.061,1.158-0.143
		c0.764-0.164,1.512-0.422,2.282-0.525C231.396,79.057,232.139,78.337,232.714,77.281"/>
	<path fill="#00ADDD" d="M140.673,42.362c0-1.366,0.032-2.675-0.009-3.983c-0.041-1.349-0.169-2.695-0.23-4.043
		c-0.07-1.56-0.146-3.122-0.147-4.684c-0.001-0.806,0.134-0.841,0.958-0.969c1.299-0.201,2.589-0.464,3.89-0.654
		c0.95-0.14,1.909-0.259,2.867-0.292c1.448-0.048,2.899-0.012,4.493-0.012c-0.538,1.081-1.082,2.113-1.985,2.851
		c-0.403,0.329-1.032,0.45-1.578,0.525c-0.78,0.108-1.195,0.577-1.492,1.215c-0.311,0.666-0.656,1.326-0.865,2.024
		c-0.229,0.767,0.165,1.463,0.743,1.874c0.654,0.465,1.446,0.815,2.302,0.369c0.559-0.292,1.115-0.588,1.774-0.936
		c0-0.043-0.087-0.326,0.014-0.435c0.981-1.061,1.006-2.607,2.012-3.702c0.875-0.952,1.481-2.166,2.13-3.308
		c0.488-0.858,1.066-1.258,2.125-1.25c1.557,0.013,3.117-0.229,4.675-0.363c0.284-0.024,0.568-0.07,0.852-0.07
		c2.255-0.006,4.457-0.446,6.677-0.762c1.296-0.186,2.616-0.203,3.945-0.296c0.157,0.494-0.192,0.713-0.386,0.967
		c-0.685,0.9-1.38,1.793-2.101,2.665c-0.594,0.717-1.193,1.345-2.328,1.069c-0.521-0.126-1.129-0.235-1.75,0.109
		c-1.529,0.844-2.006,2.271-1.152,3.857c0.617,1.144,2.42,1.562,3.667,0.812c0.576-0.348,1.105-0.776,1.652-1.172
		c0.085-0.061,0.166-0.139,0.226-0.225c1.243-1.812,2.787-3.378,4.16-5.083c0.69-0.857,1.357-1.737,1.983-2.641
		c0.295-0.427,0.637-0.606,1.138-0.651c2.767-0.252,5.542-0.45,8.293-0.822c2.341-0.317,4.688-0.296,7.032-0.419
		c1.527-0.08,3.048-0.279,4.573-0.412c0.349-0.03,0.703-0.004,1.206-0.004c-0.187,0.34-0.273,0.603-0.442,0.793
		c-0.687,0.77-1.386,1.531-2.105,2.271c-0.94,0.97-1.901,1.922-2.863,2.872c-0.196,0.194-0.434,0.347-0.668,0.532
		c-0.525-0.271-0.685-0.918-1.397-0.928c-1.699-0.022-3.125,1.196-3.137,2.672c-0.004,0.461-0.03,0.932,0.053,1.381
		c0.26,1.411,1.581,2.126,2.952,1.747c0.833-0.23,1.513-0.572,1.955-1.335c0.083-0.144,0.248-0.266,0.403-0.339
		c1.448-0.683,2.49-1.876,3.606-2.952c1.431-1.378,2.767-2.856,4.108-4.323c0.502-0.548,0.961-1.153,1.341-1.791
		c0.299-0.503,0.685-0.68,1.217-0.689c1.316-0.026,2.633-0.095,3.948-0.074c3.206,0.05,6.411,0.139,9.616,0.218
		c0.279,0.007,0.558,0.049,0.964,0.086c-0.593,2.088-2.18,3.291-3.556,4.694c-0.222-0.094-0.387-0.15-0.538-0.23
		c-0.485-0.255-0.949-0.219-1.424,0.043c-0.353,0.195-2.045,2.042-2.172,2.414c-0.27,0.786,0.459,1.807,1.356,1.894
		c0.46,0.044,0.921,0.096,1.382,0.11c0.64,0.02,1.279,0.03,1.79-0.481c0.144-0.143,0.377-0.193,0.559-0.304
		c0.868-0.534,1.703-1.033,2.398-1.877c1.523-1.848,2.926-3.74,3.92-5.927c0.095-0.21,0.416-0.457,0.63-0.455
		c3.418,0.029,6.836,0.094,10.254,0.157c0.061,0.001,0.119,0.068,0.182,0.107c0.028,0.06,0.097,0.131,0.085,0.184
		c-0.369,1.596-1.219,2.944-2.241,4.185c-0.171,0.207-0.541,0.3-0.834,0.346c-1.765,0.276-2.67,1.672-2.267,3.196
		c0.307,1.155,1.353,1.742,2.516,1.329c1.229-0.438,2.055-1.323,2.844-2.316c1.406-1.772,2.377-3.785,3.316-5.81
		c0.449-0.971,1.069-1.442,2.122-1.404c0.673,0.023,1.348,0.004,2.134,0.004c0.672,2.178,0.423,4.453,0.808,6.642
		c0.38,2.161,0.575,4.349,0.357,6.631c-0.658,0.072-1.252,0.175-1.85,0.193c-2.99,0.09-5.982,0.144-8.974,0.24
		c-0.924,0.03-1.843,0.166-2.765,0.234c-1.848,0.136-3.692,0.3-5.541,0.379c-5.943,0.252-11.894,0.321-17.831,0.765
		c-4.612,0.346-9.239,0.423-13.867,0.338c-0.992-0.018-1.986,0.1-2.979,0.163c-1.74,0.111-3.479,0.216-5.219,0.345
		c-1.417,0.105-2.858,0.114-4.241,0.398c-1.947,0.398-3.898,0.316-5.851,0.342c-2.207,0.029-4.416-0.022-6.624-0.007
		c-0.781,0.006-1.561,0.104-2.341,0.157c-1.385,0.094-2.77,0.189-4.155,0.279c-4.831,0.314-9.68,0.396-14.47,1.204
		c-0.07,0.012-0.141,0.033-0.211,0.031c-1.787-0.036-3.538,0.262-5.291,0.552C140.872,42.418,140.733,42.37,140.673,42.362"/>
	<path fill="#FFFFFF" d="M222.528,5.522c1.302,1.511,1.612,5.702,0.61,7.539C221.609,10.658,221.92,8.187,222.528,5.522"/>
	<path fill="#FFFFFF" d="M157.339,15.643c-0.096-0.179-0.227-0.347-0.284-0.538c-0.309-1.049-0.627-2.097-0.884-3.16
		c-0.097-0.404-0.111-0.857-0.038-1.265c0.129-0.713,0.355-1.409,0.552-2.156c0.612,0.222,0.66,0.722,0.742,1.138
		c0.39,1.982,0.561,3.974,0.152,5.967C157.5,15.634,157.419,15.639,157.339,15.643"/>
	<path fill="#FFFFFF" d="M183.052,5.12c0.615,2.15,0.14,3.975-0.64,5.81C181.225,9.642,181.471,7.003,183.052,5.12"/>
	<path fill="#FFFFFF" d="M182.881,20.813c-0.726,0.084-1.256,0.146-1.787,0.208c-0.043-0.074-0.086-0.148-0.129-0.222
		c0.276-0.423,0.551-0.846,0.925-1.42C182.239,19.885,182.502,20.266,182.881,20.813"/>
	<path fill="#FFFFFF" d="M206.292,7.239c0.768,0.917,0.748,1.76,0.384,2.819C206.368,9.095,206.115,8.291,206.292,7.239"/>
	<path fill="#231F20" d="M187.31,107.682c-0.252-1.402,0.006-2.809-0.271-4.224c-0.229-1.175-0.135-2.41-0.248-3.612
		c-0.19-2.017-0.407-4.031-0.655-6.043c-0.443-3.601-0.915-7.197-1.378-10.795c-0.177-1.375-0.36-2.75-0.549-4.124
		c-0.018-0.131-0.101-0.252-0.187-0.454c-1.546,1.74-3.29,3.2-4.388,5.246c-0.751,1.399-1.685,2.701-2.531,4.051
		c-0.622,0.99-1.727,1.418-2.813,1.084c-0.268-0.082-0.541-0.162-0.818-0.197c-0.789-0.1-1.397-0.467-1.849-1.127
		c-0.279-0.41-0.579-0.814-0.926-1.166c-1.893-1.918-3.807-3.813-5.706-5.726c-0.423-0.426-0.837-0.864-1.211-1.331
		c-0.484-0.605-0.458-1.348,0.033-1.961c2.261-2.818,4.509-5.649,6.796-8.447c1.323-1.618,2.757-3.147,4.058-4.782
		c1.395-1.751,2.738-3.549,4.02-5.385c1.111-1.591,2.401-2.993,3.902-4.204c0.439-0.355,0.923-0.693,1.558-0.421
		c0.125,0.054,0.286,0.069,0.421,0.045c1.813-0.316,3.624-0.644,5.436-0.963c0.315-0.056,0.635-0.078,0.951-0.128
		c1.086-0.168,2.168-0.355,3.255-0.51c1.828-0.262,3.654-0.54,5.489-0.74c0.905-0.098,2.079,0.742,2.421,1.593
		c0.05,0.124,0.104,0.308,0.049,0.402c-0.349,0.592-0.077,1.174-0.031,1.766c0.07,0.885,0.021,1.783,0.139,2.66
		c0.236,1.765,0.4,3.528,0.442,5.313c0.029,1.271,0.335,2.535,0.49,3.805c0.055,0.455,0.018,0.919,0.037,1.378
		c0.057,1.387,0.124,2.772,0.181,4.158c0.114,2.738,0.212,5.478,0.34,8.216c0.049,1.03,0.138,2.061,0.248,3.088
		c0.425,3.902,0.349,7.824,0.483,11.739c0.076,2.199,0.136,4.397,0.426,6.589c0.152,1.152,0.022,2.34,0.033,3.512
		c0.002,0.277,0.056,0.553,0.081,0.781c0.128,0.076,0.185,0.141,0.247,0.145c1.585,0.121,3.185,0.423,4.75,0.296
		c1.512-0.123,2.969,0.106,4.451,0.164c0.817,0.032,1.634,0.106,2.452,0.146c0.461,0.021,0.943,0.094,1.38-0.011
		c0.815-0.196,1.496,0.149,2.129,0.495c0.769,0.421,1.057,1.186,1.016,2.081c-0.098,2.106-0.611,4.144-1.021,6.196
		c-0.288,1.447-0.269,2.9-0.214,4.357c0.008,0.215,0.025,0.428,0.029,0.643c0.026,1.375-0.161,1.619-1.517,1.998
		c-0.134,0.037-0.306,0.059-0.387,0.152c-1.156,1.323-2.788,1.312-4.319,1.477c-1.229,0.131-2.482,0.029-3.723,0.066
		c-1.174,0.034-2.345,0.112-3.517,0.178c-0.284,0.015-0.573,0.1-0.85,0.068c-3.102-0.349-6.166,0.334-9.255,0.325
		c-0.314-0.001-0.635,0.179-0.944,0.157c-1.966-0.139-3.943-0.051-5.901-0.217c-1.009-0.086-1.98-0.115-2.965,0.08
		c-0.557,0.109-1.107,0.267-1.667,0.353c-2.598,0.401-5.199,0.782-7.797,1.179c-0.351,0.055-0.699,0.139-1.038,0.241
		c-1.254,0.375-2.273,0.049-3.085-0.976c-0.172-0.217-0.37-0.488-0.61-0.562c-0.868-0.271-0.946-0.979-0.994-1.686
		c-0.167-2.442-0.283-4.889-0.48-7.328c-0.047-0.588-0.288-1.176-0.518-1.732c-0.52-1.26-0.561-2.564-0.427-3.887
		c0.022-0.219,0.161-0.494,0.335-0.616c1.074-0.754,2.17-1.413,3.553-1.543c1.152-0.106,2.278-0.471,3.42-0.698
		c0.346-0.07,0.711-0.117,1.059-0.086c1.673,0.147,3.337,0.164,4.998-0.148c0.305-0.059,0.646-0.029,0.954,0.037
		C185.491,108.307,186.349,108.219,187.31,107.682 M205.33,110.865c-0.358,0.703-1.009,0.992-1.674,1.348
		c-0.481,0.257-0.736,0.266-1.221,0.079c-1.041-0.401-1.354-1.218-1.398-2.171c-0.082-1.737-0.082-3.479-0.117-5.217
		c-0.022-1.174-0.019-2.346-0.079-3.518c-0.069-1.381-0.203-2.76-0.298-4.14c-0.096-1.407-0.118-2.815-0.243-4.226
		c-0.205-2.297-0.138-4.615-0.196-6.926c-0.015-0.568-0.037-1.14-0.118-1.701c-0.223-1.551-0.425-3.096-0.288-4.676
		c0.054-0.624-0.114-1.267-0.173-1.902c-0.072-0.776-0.175-1.553-0.193-2.33c-0.016-0.672,0.166-1.358,0.088-2.019
		c-0.229-1.943-0.486-3.875-0.339-5.842c0.044-0.598-0.004-1.22-0.121-1.809c-0.604-3.049-0.666-6.148-0.915-9.23
		c-0.024-0.305-0.063-0.608-0.11-1.032c-0.845,0.081-1.585,0.119-2.314,0.228c-1.58,0.235-3.107,0.792-4.735,0.751
		c-0.271-0.006-0.547,0.126-0.817,0.205c-1.271,0.37-2.596,0.801-3.882,0.544c-1.372-0.274-2.016,0.466-2.713,1.317
		c-0.157,0.192-0.276,0.414-0.417,0.62c-0.743,1.083-1.449,2.194-2.24,3.241c-1.389,1.84-2.812,3.654-4.257,5.45
		c-0.622,0.774-1.366,1.45-1.996,2.219c-1.439,1.754-2.849,3.532-4.258,5.312c-0.785,0.994-1.543,2.009-2.385,3.105
		c2.158,2.025,4.244,3.982,6.409,6.014c0.492-0.617,1.042-1.049,1.24-1.605c0.542-1.518,1.518-2.713,2.543-3.898
		c0.765-0.885,1.483-1.811,2.244-2.699c0.825-0.965,1.485-2.082,2.591-2.791c0.154-0.099,0.299-0.33,0.312-0.51
		c0.076-1.043,0.691-1.566,1.623-1.88c0.912-0.308,1.706-0.078,2.13,0.8c0.305,0.63,0.609,1.298,0.717,1.981
		c0.428,2.702,0.811,5.412,1.15,8.127c0.462,3.71,0.873,7.426,1.295,11.14c0.226,1.981,0.476,3.961,0.628,5.947
		c0.235,3.049,0.408,6.104,0.582,9.156c0.041,0.717-0.564,1.354-1.272,1.556c-0.608,0.175-1.295,0.296-1.77,0.667
		c-1.104,0.865-2.31,1.165-3.666,1.083c-0.388-0.024-0.791-0.032-1.168,0.044c-1.404,0.287-2.811,0.329-4.233,0.188
		c-0.277-0.026-0.567,0.023-0.846,0.072c-1.223,0.215-2.445,0.438-3.665,0.67c-0.232,0.045-0.453,0.146-0.79,0.258
		c0.11,0.492,0.197,0.934,0.308,1.369c0.208,0.824,0.45,1.642,0.642,2.47c0.413,1.784,0.416,3.604,0.473,5.421
		c0.015,0.479,0.115,0.956,0.188,1.523c0.852-0.164,1.574-0.336,2.306-0.441c2.005-0.289,4.018-0.53,6.021-0.832
		c1.084-0.163,2.158-0.395,3.23-0.623c0.95-0.202,1.884-0.214,2.859-0.111c1.552,0.161,3.127,0.275,4.681,0.2
		c3.124-0.151,6.24-0.446,9.359-0.674c0.282-0.021,0.568,0.015,0.852,0.022c0.707,0.018,1.415,0.062,2.121,0.045
		c1.564-0.037,3.127-0.164,4.689-0.143c1.359,0.02,2.682-0.128,4.125-0.438c0.013-0.471,0.033-0.918,0.038-1.365
		c0.009-0.779-0.086-1.573,0.033-2.335c0.24-1.541,0.595-3.063,0.903-4.595c0.111-0.551-0.047-0.852-0.585-0.912
		c-1.66-0.186-3.321-0.379-4.985-0.49c-1.349-0.092-2.704-0.068-4.057-0.09C206.571,110.857,205.967,110.865,205.33,110.865"/>
	<path fill="#231F20" d="M209.35,71.415c0.481-0.152,0.92,0.07,1.427,0.313c0.69,0.333,1.455,0.212,2.114-0.259
		c0.623-0.447,0.569-1.099,0.514-1.743c-0.031-0.37-0.214-0.613-0.546-0.845c-1.247-0.87-2.472-1.777-3.664-2.72
		c-0.998-0.789-2.004-1.589-2.893-2.495c-1.148-1.171-1.337-2.653-0.818-4.16c0.566-1.652,1.392-3.204,2.492-4.56
		c0.451-0.555,1.183-0.883,1.785-1.315c0.946,0.322,1.996-0.216,2.908,0.341c0.936,0.572,1.883,1.132,2.773,1.771
		c0.322,0.233,0.503,0.672,0.732,1.026c0.724,1.121,1.159,2.325,1.139,3.684c-0.019,1.31-1.046,2.271-2.241,2.086
		c-0.562-0.087-0.928-0.359-1.064-0.895c-0.123-0.479-0.211-0.969-0.281-1.46c-0.215-1.502-1.261-2.619-2.666-2.956
		c-0.455-0.11-0.732,0.036-0.881,0.357c-0.371,0.807-0.712,1.632-0.985,2.476c-0.189,0.58,0.004,1.121,0.491,1.524
		c0.793,0.656,1.561,1.346,2.387,1.957c1.047,0.773,2.163,1.453,3.204,2.232c0.438,0.328,0.866,0.753,1.122,1.228
		c1.138,2.114,1.501,4.02-0.021,6.089c-0.88,1.194-2.068,2.118-3.705,2.166c-0.422,0.012-0.837,0.169-1.261,0.208
		c-1.35,0.127-2.597-0.125-3.657-1.037c-0.492-0.422-0.643-0.917-0.39-1.52c0.067-0.162,0.174-0.31,0.234-0.474
		c0.383-1.037,0.381-1.038,1.46-1.02C209.131,71.416,209.203,71.415,209.35,71.415"/>
	<path fill="#231F20" d="M221.813,57.285c-0.601-0.066-1.121-0.134-1.642-0.178c-0.774-0.065-1.821-1.039-1.816-1.705
		c0.008-1.037,0.995-1.943,2.127-1.954c1.316-0.013,2.632,0,3.946-0.049c1.205-0.045,2.407-0.193,3.613-0.229
		c1.099-0.032,2.2,0.043,3.302,0.038c1.009-0.005,1.764,0.491,2.387,1.201c0.29,0.331,0.35,0.803,0.012,1.151
		c-0.34,0.352-0.719,0.735-1.157,0.912c-1.351,0.542-2.705,0.958-4.229,0.501c-0.703-0.21-1.531-0.003-2.269,0.014
		c-0.417,1.043-0.235,1.959-0.133,2.864c0.213,1.873,0.446,3.744,0.676,5.615c0.072,0.599,0.155,1.197,0.233,1.796
		c0.027,0.212,0.071,0.423,0.074,0.636c0.015,1.097,0.026,2.195,0.024,3.292c-0.001,1.142-0.761,1.976-1.784,1.983
		c-1.453,0.012-2.099-0.543-2.119-1.918c-0.06-4.021-0.507-8.007-1.059-11.984C221.914,58.645,221.88,58.011,221.813,57.285"/>
	<path fill="#231F20" d="M232.714,77.281c-0.575,1.056-1.318,1.775-2.541,1.941c-0.771,0.104-1.519,0.361-2.282,0.525
		c-0.382,0.082-0.788,0.201-1.158,0.143c-1.217-0.191-2.402,0.08-3.602,0.125c-1.743,0.066-3.436,0.414-5.145,0.684
		c-0.244,0.039-0.492,0.049-0.739,0.061c-0.212,0.01-0.429-0.025-0.635,0.012c-1.529,0.265-3.067,0.49-4.579,0.834
		c-0.969,0.221-1.839,0.047-2.69-0.34c-0.536-0.244-0.71-0.893-0.514-1.443c0.372-1.041,1.011-1.571,2.197-1.647
		c1.332-0.085,2.644-0.461,3.969-0.687c1.012-0.172,2.027-0.391,3.047-0.437c1.667-0.075,3.267-0.741,4.959-0.526
		c0.104,0.013,0.23,0.014,0.315-0.034c0.893-0.515,1.873-0.335,2.822-0.339c1.07-0.006,2.109-0.063,3.158-0.377
		C230.67,75.367,231.528,75.802,232.714,77.281"/>
	<path fill="#00ADDD" d="M205.33,110.865c0.638,0,1.241-0.008,1.844,0.002c1.353,0.021,2.708-0.002,4.057,0.09
		c1.664,0.111,3.325,0.305,4.985,0.49c0.538,0.061,0.696,0.361,0.585,0.912c-0.309,1.531-0.663,3.054-0.903,4.595
		c-0.119,0.762-0.024,1.556-0.033,2.335c-0.005,0.447-0.025,0.895-0.038,1.365c-1.443,0.31-2.766,0.457-4.125,0.438
		c-1.562-0.021-3.125,0.105-4.689,0.143c-0.706,0.017-1.414-0.027-2.121-0.045c-0.283-0.008-0.569-0.043-0.852-0.022
		c-3.119,0.228-6.235,0.522-9.359,0.674c-1.554,0.075-3.129-0.039-4.681-0.2c-0.975-0.103-1.909-0.091-2.859,0.111
		c-1.072,0.229-2.146,0.46-3.23,0.623c-2.003,0.302-4.016,0.543-6.021,0.832c-0.732,0.105-1.454,0.277-2.306,0.441
		c-0.073-0.567-0.173-1.045-0.188-1.523c-0.057-1.816-0.06-3.637-0.473-5.421c-0.192-0.828-0.434-1.646-0.642-2.47
		c-0.111-0.436-0.198-0.877-0.308-1.369c0.337-0.112,0.558-0.213,0.79-0.258c1.22-0.232,2.442-0.455,3.665-0.67
		c0.279-0.049,0.569-0.099,0.846-0.072c1.422,0.142,2.829,0.1,4.233-0.188c0.377-0.076,0.78-0.068,1.168-0.044
		c1.356,0.082,2.562-0.218,3.666-1.083c0.474-0.371,1.161-0.492,1.77-0.667c0.708-0.202,1.313-0.839,1.272-1.556
		c-0.174-3.053-0.347-6.107-0.582-9.156c-0.152-1.986-0.402-3.966-0.628-5.947c-0.422-3.714-0.833-7.43-1.295-11.14
		c-0.339-2.715-0.722-5.425-1.15-8.127c-0.108-0.683-0.412-1.351-0.717-1.981c-0.424-0.878-1.218-1.108-2.13-0.8
		c-0.932,0.314-1.547,0.837-1.623,1.88c-0.013,0.18-0.158,0.411-0.312,0.51c-1.106,0.709-1.766,1.826-2.591,2.791
		c-0.761,0.889-1.479,1.814-2.244,2.699c-1.025,1.186-2.001,2.381-2.543,3.898c-0.198,0.557-0.748,0.988-1.24,1.605
		c-2.165-2.031-4.251-3.988-6.409-6.014c0.842-1.097,1.6-2.111,2.385-3.105c1.409-1.779,2.819-3.558,4.258-5.312
		c0.63-0.769,1.374-1.445,1.996-2.219c1.445-1.796,2.868-3.61,4.257-5.45c0.791-1.047,1.497-2.158,2.24-3.241
		c0.141-0.206,0.26-0.428,0.417-0.62c0.697-0.851,1.341-1.591,2.713-1.317c1.286,0.257,2.611-0.174,3.882-0.544
		c0.271-0.079,0.547-0.211,0.817-0.205c1.628,0.041,3.155-0.516,4.735-0.751c0.729-0.109,1.47-0.147,2.314-0.228
		c0.047,0.424,0.086,0.727,0.11,1.032c0.249,3.082,0.311,6.181,0.915,9.23c0.117,0.589,0.165,1.211,0.121,1.809
		c-0.147,1.967,0.11,3.899,0.339,5.842c0.078,0.66-0.104,1.347-0.088,2.019c0.019,0.777,0.121,1.554,0.193,2.33
		c0.059,0.636,0.227,1.278,0.173,1.902c-0.137,1.58,0.065,3.125,0.288,4.676c0.081,0.562,0.104,1.133,0.118,1.701
		c0.059,2.311-0.009,4.629,0.196,6.926c0.125,1.41,0.147,2.818,0.243,4.226c0.095,1.38,0.229,2.759,0.298,4.14
		c0.061,1.172,0.057,2.344,0.079,3.518c0.035,1.738,0.035,3.479,0.117,5.217c0.045,0.953,0.357,1.77,1.398,2.171
		c0.484,0.187,0.739,0.178,1.221-0.079C204.321,111.857,204.971,111.568,205.33,110.865"/>
</g>
</svg>
