<?xml version="1.0" encoding="utf-8"?>
<!-- Generator: Adobe Illustrator 15.1.0, SVG Export Plug-In . SVG Version: 6.00 Build 0)  -->
<!DOCTYPE svg PUBLIC "-//W3C//DTD SVG 1.1//EN" "http://www.w3.org/Graphics/SVG/1.1/DTD/svg11.dtd">
<svg version="1.1" id="Layer_1" xmlns="http://www.w3.org/2000/svg" x="0px" y="0px"
	 width="150px" height="114px" viewBox="0 0 150 114"  xml:space="preserve">
<path fill="#231F20" d="M134.479,46.312c-0.117-5.593-0.422-11.195-1.26-16.732c-0.719-4.793-0.833-9.855-3.319-14.169
	c-1.846-3.203-5.497-2.752-8.66-2.854c-4.524-0.146-9.052-0.373-13.582-0.353c-7.344,0.035-14.668-0.649-22.039-0.264
	c-8.516,0.444-17.062,0.352-25.593,0.524c-10.161,0-20.292,0.983-30.47,0.901c-2.199-0.017-4.431-0.056-6.558,0.501
	c-2.127,0.556-4.179,1.799-5.193,3.749c-0.877,1.685-0.888,3.669-0.878,5.568c0.007,1.703,0.015,3.403,0.022,5.105
	c0.039,8.513,0.078,17.025,0.117,25.537c0.019,4.255,0.144,8.523,0.058,12.776c-0.021,1.092-0.064,2.192-0.093,3.294
	c-0.208,0.12-0.354,0.334-0.318,0.663c0.104,0.955,0.214,1.97,0.344,3.008c0.084,1.586,0.29,3.158,0.751,4.698
	c0.022,0.072,0.047,0.146,0.068,0.22c0.387,1.732,0.904,3.425,1.619,4.974c0.112,0.322,0.217,0.649,0.331,0.975
	c1.582,4.52,5.362,6.199,9.864,6.528c7.844,0.574,15.696-0.315,23.546-0.159c0.154,0.003,0.329,0.017,0.421,0.139
	c0.077,0.106,0.065,0.248,0.049,0.376c-0.093,0.79-0.187,1.58-0.282,2.371c-0.02,0.175-0.048,0.366-0.176,0.484
	c-0.131,0.124-0.324,0.14-0.502,0.148c-1.414,0.071-2.828,0.141-4.241,0.214c-1.555,0.077-3.189,0.178-4.511,1.004
	c-2.052,1.28-2.742,4.438-3.414,6.601c-0.234,0.752,0.223,1.392,1.009,1.426c4.455,0.194,8.913,0.463,13.371,0.458
	c4.987-0.005,9.973-0.305,14.961-0.429c3.414-0.082,6.831-0.026,10.242-0.14c4.723-0.162,9.438-0.536,14.157-0.609
	c3.668-0.056,7.341,0.22,11.01,0.315c1.112,0.03,2.243,0.065,3.338-0.093c1.234-0.179,1.714-0.996,1.276-2.146
	c-0.699-1.838-1.492-3.642-2.295-5.438c-1.143-2.547-4.203-1.844-6.5-2.214c-0.365-0.059-0.743-0.131-1.05-0.342
	c-0.811-0.554-0.764-1.74-0.628-2.713c0.027-0.2,0.069-0.418,0.224-0.543c0.008-0.007,0.017-0.014,0.024-0.02
	c0.118-0.081,0.269-0.098,0.412-0.109c4.159-0.37,8.347-0.104,12.521-0.214c4.176-0.112,8.43-0.626,12.188-2.447
	c6.128-2.967,8.054-8.271,8.694-14.664C134.398,63.615,134.66,54.957,134.479,46.312 M28.398,14.993
	c0.021,0.056,0.039,0.112,0.059,0.168H26.98c-0.001-0.056-0.003-0.112-0.004-0.168H28.398z M102.678,94.936
	c1.877,0.024,2.691,0.625,2.973,2.451c0.207,1.338,0.436,2.526,1.702,3.269c0.099,0.059,0.055,0.359,0.093,0.68
	c-0.469,0.06-0.901,0.168-1.332,0.157c-4.919-0.117-9.837-0.37-14.753-0.35c-4.188,0.014-8.372,0.403-12.561,0.495
	c-2.856,0.062-5.717-0.173-8.576-0.136c-1.215,0.017-2.372,0.048-3.562-0.326c-0.438-0.135-1.059,0.315-1.736,0.547
	c-0.351-0.848-1.083-0.942-2.021-0.818c-1.352,0.179-2.725,0.174-4.091,0.245c-0.09,1.017-0.748,1.138-1.903,1.132
	c0.746-0.506,1.202-0.814,1.658-1.122c-0.513-0.028-1.041-0.149-1.533-0.065c-1.724,0.296-3.421,0.812-5.152,0.961
	c-2.638,0.229-5.302,0.5-7.937-0.128c-0.312-0.04-0.896-0.085-0.896-0.126c0.003-0.552,0.319-0.771,0.864-0.633
	c0.095-0.488,0.253-0.976,0.273-1.468c0.078-1.991,1.128-3.266,2.871-3.356c2.729-0.144,5.453-0.411,8.182-0.626
	c0.008,0.011-0.099-0.157-0.293-0.472c0.213-0.103,0.412-0.282,0.612-0.283c4.653-0.059,9.307-0.087,13.96-0.14
	c1.832-0.021,3.662-0.097,5.493-0.123c3.793-0.055,7.588-0.064,11.382-0.147c3.677-0.082,7.332,0.029,10.993,0.478
	C99.119,95.244,100.913,94.915,102.678,94.936 M58.917,90.606c7.93-0.173,15.86-0.302,23.791-0.476
	c3.985-0.086,7.975-0.23,11.959-0.349c0.262-0.009,0.543-0.076,0.783-0.005c0.591,0.176,1.546,0.3,1.656,0.654
	c0.204,0.684,0.113,1.619-0.226,2.245c-0.203,0.371-1.124,0.487-1.72,0.48c-2.356-0.028-4.712-0.181-7.068-0.238
	c-8.396-0.207-16.781,0.137-25.162,0.561c-2.075,0.104-4.161,0.016-6.23,0.016C56.534,91.292,57.015,90.649,58.917,90.606
	 M132.03,69.786c-0.33,3.71-0.427,7.062-2.79,10.13c-1.969,2.56-4.799,4.417-7.812,5.515c-4.64,1.686-9.678,1.803-14.616,1.901
	c-9.581,0.186-19.158,0.374-28.736,0.563c-8.553,0.169-17.105,0.338-25.657,0.506c-4.874,0.092-9.743,0.43-14.617,0.48
	c-2.471,0.027-4.945-0.018-7.411-0.206c-1.082-0.082-2.178-0.332-3.246-0.406c-0.211-0.013-0.417-0.013-0.62-0.01
	c-0.062-0.043-0.118-0.09-0.196-0.118c-3.783-1.34-5.643-5.121-6.669-9.199c-0.45-2.158-0.686-4.382-0.82-6.576
	c-0.153-2.513-0.204-5.027-0.193-7.543c0.009-2.138,0.062-4.275,0.135-6.413c0.144-4.224,0.032-8.421,0.09-12.644
	c0.034-2.557,0.007-5.139,0.352-7.661c-0.325-2.8,0.086-5.885-0.184-8.827c-0.296-3.242-1.798-9.525,1.027-12.052
	c1.393-1.244,3.323-1.147,5.092-1.352c2.015-0.233,6.292,0.156,8.31-0.033c4.036-0.377,5.947-0.479,9.994-0.708
	c7.918-0.447,15.948-0.649,23.815-0.756c8.524-0.115,17.052-0.118,25.575-0.016c10.132,0.123,20.081,0.757,30.228,0.203
	c1.969-0.107,4.168-0.272,5.312,1.7c0.553,0.958,1.147,1.944,1.437,2.996c1.106,3.995,1.406,8.125,2.003,12.208
	c0.23,1.597,0.037,3.229,0.128,4.836c0.108,1.899,0.209,3.799,0.297,5.698c0.177,3.734,0.306,7.469,0.344,11.206
	C132.657,58.74,132.521,64.275,132.03,69.786"/>
<path fill="none" stroke="#231F20" stroke-miterlimit="10" d="M134.479,46.312c-0.117-5.593-0.422-11.195-1.26-16.732
	c-0.719-4.793-0.833-9.855-3.319-14.169c-1.846-3.203-5.497-2.752-8.66-2.854c-4.524-0.146-9.052-0.373-13.582-0.353
	c-7.344,0.035-14.668-0.649-22.039-0.264c-8.516,0.444-17.062,0.352-25.593,0.524c-10.161,0-20.292,0.983-30.47,0.901
	c-2.199-0.017-4.431-0.056-6.558,0.501c-2.127,0.556-4.179,1.799-5.193,3.749c-0.877,1.685-0.888,3.669-0.878,5.568
	c0.007,1.703,0.015,3.403,0.022,5.105c0.039,8.513,0.078,17.025,0.117,25.537c0.019,4.255,0.144,8.523,0.058,12.776
	c-0.021,1.092-0.064,2.192-0.093,3.294c-0.208,0.12-0.354,0.334-0.318,0.663c0.104,0.955,0.214,1.97,0.344,3.008
	c0.084,1.586,0.29,3.158,0.751,4.698c0.022,0.072,0.047,0.146,0.068,0.22c0.387,1.732,0.904,3.425,1.619,4.974
	c0.112,0.322,0.217,0.649,0.331,0.975c1.582,4.52,5.362,6.199,9.864,6.528c7.844,0.574,15.696-0.315,23.546-0.159
	c0.154,0.003,0.329,0.017,0.421,0.139c0.077,0.106,0.065,0.248,0.049,0.376c-0.093,0.79-0.187,1.58-0.282,2.371
	c-0.02,0.175-0.048,0.366-0.176,0.484c-0.131,0.124-0.324,0.14-0.502,0.148c-1.414,0.071-2.828,0.141-4.241,0.214
	c-1.555,0.077-3.189,0.178-4.511,1.004c-2.052,1.28-2.742,4.438-3.414,6.601c-0.234,0.752,0.223,1.392,1.009,1.426
	c4.455,0.194,8.913,0.463,13.371,0.458c4.987-0.005,9.973-0.305,14.961-0.429c3.414-0.082,6.831-0.026,10.242-0.14
	c4.723-0.162,9.438-0.536,14.157-0.609c3.668-0.056,7.341,0.22,11.01,0.315c1.112,0.03,2.243,0.065,3.338-0.093
	c1.234-0.179,1.714-0.996,1.276-2.146c-0.699-1.838-1.492-3.642-2.295-5.438c-1.143-2.547-4.203-1.844-6.5-2.214
	c-0.365-0.059-0.743-0.131-1.05-0.342c-0.811-0.554-0.764-1.74-0.628-2.713c0.027-0.2,0.069-0.418,0.224-0.543
	c0.008-0.007,0.017-0.014,0.024-0.02c0.118-0.081,0.269-0.098,0.412-0.109c4.159-0.37,8.347-0.104,12.521-0.214
	c4.176-0.112,8.43-0.626,12.188-2.447c6.128-2.967,8.054-8.271,8.694-14.664C134.398,63.615,134.66,54.957,134.479,46.312z
	 M28.398,14.993c0.021,0.056,0.039,0.112,0.059,0.168H26.98c-0.001-0.056-0.003-0.112-0.004-0.168H28.398z M102.678,94.936
	c1.877,0.024,2.691,0.625,2.973,2.451c0.207,1.338,0.436,2.526,1.702,3.269c0.099,0.059,0.055,0.359,0.093,0.68
	c-0.469,0.06-0.901,0.168-1.332,0.157c-4.919-0.117-9.837-0.37-14.753-0.35c-4.188,0.014-8.372,0.403-12.561,0.495
	c-2.856,0.062-5.717-0.173-8.576-0.136c-1.215,0.017-2.372,0.048-3.562-0.326c-0.438-0.135-1.059,0.315-1.736,0.547
	c-0.351-0.848-1.083-0.942-2.021-0.818c-1.352,0.179-2.725,0.174-4.091,0.245c-0.09,1.017-0.748,1.138-1.903,1.132
	c0.746-0.506,1.202-0.814,1.658-1.122c-0.513-0.028-1.041-0.149-1.533-0.065c-1.724,0.296-3.421,0.812-5.152,0.961
	c-2.638,0.229-5.302,0.5-7.937-0.128c-0.312-0.04-0.896-0.085-0.896-0.126c0.003-0.552,0.319-0.771,0.864-0.633
	c0.095-0.488,0.253-0.976,0.273-1.468c0.078-1.991,1.128-3.266,2.871-3.356c2.729-0.144,5.453-0.411,8.182-0.626
	c0.008,0.011-0.099-0.157-0.293-0.472c0.213-0.103,0.412-0.282,0.612-0.283c4.653-0.059,9.307-0.087,13.96-0.14
	c1.832-0.021,3.662-0.097,5.493-0.123c3.793-0.055,7.588-0.064,11.382-0.147c3.677-0.082,7.332,0.029,10.993,0.478
	C99.119,95.244,100.913,94.915,102.678,94.936z M58.917,90.606c7.93-0.173,15.86-0.302,23.791-0.476
	c3.985-0.086,7.975-0.23,11.959-0.349c0.262-0.009,0.543-0.076,0.783-0.005c0.591,0.176,1.546,0.3,1.656,0.654
	c0.204,0.684,0.113,1.619-0.226,2.245c-0.203,0.371-1.124,0.487-1.72,0.48c-2.356-0.028-4.712-0.181-7.068-0.238
	c-8.396-0.207-16.781,0.137-25.162,0.561c-2.075,0.104-4.161,0.016-6.23,0.016C56.534,91.292,57.015,90.649,58.917,90.606z
	 M132.03,69.786c-0.33,3.71-0.427,7.062-2.79,10.13c-1.969,2.56-4.799,4.417-7.812,5.515c-4.64,1.686-9.678,1.803-14.616,1.901
	c-9.581,0.186-19.158,0.374-28.736,0.563c-8.553,0.169-17.105,0.338-25.657,0.506c-4.874,0.092-9.743,0.43-14.617,0.48
	c-2.471,0.027-4.945-0.018-7.411-0.206c-1.082-0.082-2.178-0.332-3.246-0.406c-0.211-0.013-0.417-0.013-0.62-0.01
	c-0.062-0.043-0.118-0.09-0.196-0.118c-3.783-1.34-5.643-5.121-6.669-9.199c-0.45-2.158-0.686-4.382-0.82-6.576
	c-0.153-2.513-0.204-5.027-0.193-7.543c0.009-2.138,0.062-4.275,0.135-6.413c0.144-4.224,0.032-8.421,0.09-12.644
	c0.034-2.557,0.007-5.139,0.352-7.661c-0.325-2.8,0.086-5.885-0.184-8.827c-0.296-3.242-1.798-9.525,1.027-12.052
	c1.393-1.244,3.323-1.147,5.092-1.352c2.015-0.233,6.292,0.156,8.31-0.033c4.036-0.377,5.947-0.479,9.994-0.708
	c7.918-0.447,15.948-0.649,23.815-0.756c8.524-0.115,17.052-0.118,25.575-0.016c10.132,0.123,20.081,0.757,30.228,0.203
	c1.969-0.107,4.168-0.272,5.312,1.7c0.553,0.958,1.147,1.944,1.437,2.996c1.106,3.995,1.406,8.125,2.003,12.208
	c0.23,1.597,0.037,3.229,0.128,4.836c0.108,1.899,0.209,3.799,0.297,5.698c0.177,3.734,0.306,7.469,0.344,11.206
	C132.657,58.74,132.521,64.275,132.03,69.786z"/>
<path fill="#00ADDD" d="M56.701,93.494c-0.166-2.202,0.314-2.846,2.216-2.888c7.93-0.173,15.86-0.302,23.791-0.476
	c3.985-0.085,7.975-0.23,11.959-0.35c0.262-0.008,0.543-0.075,0.781-0.003c0.593,0.175,1.548,0.299,1.658,0.653
	c0.205,0.683,0.113,1.618-0.227,2.245c-0.202,0.371-1.123,0.488-1.719,0.48c-2.356-0.028-4.712-0.18-7.068-0.238
	c-8.396-0.207-16.781,0.138-25.162,0.561C60.855,93.584,58.769,93.494,56.701,93.494"/>
<path fill="#FFFFFF" d="M107.353,100.655c-1.266-0.741-1.493-1.93-1.702-3.269c-0.281-1.826-1.096-2.426-2.973-2.451
	c-1.765-0.021-3.559,0.31-5.29,0.096c-3.661-0.449-7.316-0.561-10.993-0.479c-3.794,0.083-7.589,0.093-11.382,0.147
	c-1.831,0.026-3.661,0.103-5.493,0.123c-4.653,0.053-9.306,0.081-13.96,0.141c-0.2,0-0.398,0.18-0.611,0.281
	c0.193,0.314,0.301,0.484,0.292,0.472c-2.729,0.216-5.452,0.484-8.182,0.627c-1.743,0.091-2.792,1.364-2.871,3.356
	c-0.02,0.492-0.177,0.979-0.272,1.468c0.011,0.255,0.021,0.51,0.031,0.76c0.419,0.101,0.836,0.169,1.256,0.227
	c0.195,0.179,0.457,0.298,0.799,0.295c3.669-0.024,7.322-0.109,10.973-0.213c-0.023,0.015-0.041,0.028-0.064,0.045
	c0.395,0.002,0.726-0.015,1.001-0.072c5.613-0.169,11.222-0.391,16.842-0.622c1.35,0.043,2.697,0.082,4.046,0.052
	c4.188-0.094,8.375-0.482,12.561-0.497c4.916-0.02,9.835,0.233,14.753,0.351c0.431,0.012,0.863-0.098,1.331-0.158
	C107.407,101.015,107.452,100.713,107.353,100.655"/>
<path fill="#FFFFFF" d="M43.916,101.168c0.011,0.254,0.021,0.51,0.032,0.76c-0.312-0.041-0.896-0.087-0.896-0.127
	C43.055,101.248,43.371,101.03,43.916,101.168"/>
<path fill="#FFFFFF" d="M28.457,15.161h-1.476c-0.001-0.056-0.003-0.112-0.005-0.168h1.422
	C28.418,15.049,28.437,15.105,28.457,15.161"/>
<path fill="#231F20" d="M123.67,53.481c-0.301-4.315-0.346-8.649-0.415-12.978c-0.069-4.396,0.014-8.797-0.062-13.194
	c-0.023-1.296-0.29-2.604-0.588-3.872c-0.122-0.521-0.524-1.188-0.977-1.381c-1.487-0.634-2.938-1.326-4.681-1.318
	c-11.091,0.056-22.184-0.025-33.275,0.02c-6.034,0.025-12.071,0.207-18.104,0.322c-6.756,0.129-13.516,0.224-20.269,0.404
	c-6.021,0.162-12.04,0.421-18.109,0.639c-1.468,1.079-2.012,2.613-1.965,4.448c0.029,1.133,0.099,2.265,0.097,3.399
	c-0.007,5.502-0.092,11.002-0.094,16.503c-0.001,3.206,0.125,6.411,0.101,9.618c-0.01,1.503-0.312,3.002-0.351,4.505
	c-0.151,5.923,0.533,11.789,1.24,17.655c0.171,1.426,0.852,2.303,2.196,2.684c0.694,0.197,1.397,0.407,2.11,0.469
	c1.601,0.142,3.203,0.26,4.805,0.391c7.31,0.772,14.834,0.438,22.126,0.468c2.845,0.011,5.692,0.006,8.537-0.007
	c1.312,0.043,2.621,0.077,3.927,0.101c0.958,0.019,1.921,0.035,2.883,0.05c1.76-0.061,3.523-0.116,5.283-0.178
	c4.744-0.012,9.488-0.024,14.232-0.036c4.282-0.01,8.597,0.139,12.857-0.267c2.46,0.139,5.224-0.437,7.486-0.592
	c3.23-0.22,6.699-0.105,9.822-1.057c0.338-0.026,0.675-0.042,1.012-0.071c0.248-0.136,0.404-0.22,0.404-0.22
	c0.149-2.008,0.372-3.759,0.395-5.511C124.391,67.469,124.155,60.475,123.67,53.481 M121.554,78.65
	c-0.18,0.011-0.358,0.021-0.541,0.031c-0.089-0.032-0.188-0.055-0.307-0.05c-16.806,0.772-33.628,1.12-50.452,1.085
	c-0.243-0.04-0.484-0.057-0.726-0.052c-0.774,0.016-1.548,0.034-2.322,0.05c-0.784-0.003-1.567,0.006-2.35-0.001
	c-0.117,0-0.216,0.027-0.306,0.062c-1.612,0.037-3.226,0.069-4.839,0.078c-1.435,0.011-2.874-0.217-4.308-0.213
	c-1.499,0.004-2.998,0.146-4.495,0.252c-0.681,0.049-1.361,0.139-2.041,0.205h-8.245c-1.955-0.076-3.907-0.221-5.853-0.508
	c-1.293-0.189-2.626-0.098-3.933-0.213c-1.906-0.17-2.373-0.507-2.536-2.336c-0.494-5.553-1.37-11.133-1.191-16.674
	c0.265-8.262,0.143-16.514,0.286-24.773c0.039-2.173-0.155-4.345-0.169-6.521c-0.002-0.25,0.073-0.503,0.14-0.94
	c0.63-0.085,1.258-0.2,1.889-0.25c2.797-0.23,5.593-0.513,8.396-0.639c3.797-0.169,7.599-0.207,11.398-0.312
	c2.096-0.061,4.195-0.257,6.287-0.201c6.773,0.191,13.541,0.582,20.317,0.697c1.978,0.032,3.955-0.043,5.931-0.103
	c1.151-0.036,2.301,0.012,3.45-0.005c3.534-0.048,7.067-0.108,10.603-0.16c4.058-0.058,8.122-0.025,12.181-0.188
	c3.729-0.148,7.451-0.496,11.173-0.779c0.291-0.022,0.57-0.225,0.961-0.389c-0.61-0.841-1.355-0.655-2.029-0.616
	c-3.404,0.201-6.804,0.464-10.209,0.615c-1.369,0.061-2.749-0.129-4.127-0.174c-1.309-0.043-2.623-0.094-3.933-0.057
	c-2.754,0.079-5.507,0.217-8.262,0.321c-2.031,0.078-4.063,0.211-6.096,0.199c-2.884-0.019-5.763-0.165-8.646-0.22
	c-1.823-0.037-3.648,0.032-5.472-0.015c-3.738-0.095-7.478-0.342-11.216-0.332c-4.985,0.011-9.97,0.196-14.954,0.329
	c-2.032,0.056-4.064,0.135-6.093,0.262c-0.263,0.016-0.504,0.02-0.722-0.002c-0.005,0.002-0.008,0.004-0.013,0.006
	c-1.004,0.277-2.022,0.417-3.062,0.427c-0.104,0.001-0.184-0.035-0.25-0.083c-2.107,0.208-4.021,0.414-5.927,0.547
	c-0.834,0.06-1.769,0.085-1.896-1.156c-0.124-1.223,0.218-1.688,1.716-2.125c-0.023,0.964-0.151,2.001,1.124,2.294
	c1.187-0.34,0.572-1.452,0.92-2.17c0.592-0.373,0.974-0.189,1.158,0.458c0.196,0.691,0.309,1.61,1.273,1.399
	c1.151-0.251,0.471-1.274,0.558-2.187h1.825c-0.777,0.591-0.696,1.294-0.354,2.116c0.639-0.015,1.265-0.083,1.886-0.204
	c-0.087-0.172-0.16-0.378-0.205-0.645c-0.082-0.482-0.832-0.851-1.291-1.269c0.436-0.122,0.868-0.33,1.307-0.347
	c3.607-0.142,7.213-0.31,10.821-0.355c5.506-0.068,11.014-0.005,16.52-0.076c5.581-0.072,11.158-0.292,16.737-0.345
	c2.819-0.029,5.638,0.214,8.458,0.25c2.098,0.026,4.197-0.126,6.294-0.125c5.315,0.004,10.631,0.008,15.947,0.1
	c2.289,0.039,4.575,0.316,6.863,0.449c1.796,0.105,2.108,0.273,2.143,2.054c0.078,3.731-0.03,7.464,0.053,11.194
	c0.095,4.264,0.327,8.523,0.471,12.784c0.039,1.112-0.074,2.228-0.052,3.34c0.082,4.265,0.181,8.529,0.293,12.795
	c0.088,3.344,0.225,6.69,0.286,10.035C121.812,76.379,121.645,77.48,121.554,78.65"/>
<path fill="none" stroke="#231F20" stroke-miterlimit="10" d="M123.67,53.481c-0.301-4.315-0.346-8.649-0.415-12.978
	c-0.069-4.396,0.014-8.797-0.062-13.194c-0.023-1.296-0.29-2.604-0.588-3.872c-0.122-0.521-0.524-1.188-0.977-1.381
	c-1.487-0.634-2.938-1.326-4.681-1.318c-11.091,0.056-22.184-0.025-33.275,0.02c-6.034,0.025-12.071,0.207-18.104,0.322
	c-6.756,0.129-13.516,0.224-20.269,0.404c-6.021,0.162-12.04,0.421-18.109,0.639c-1.468,1.079-2.012,2.613-1.965,4.448
	c0.029,1.133,0.099,2.265,0.097,3.399c-0.007,5.502-0.092,11.002-0.094,16.503c-0.001,3.206,0.125,6.411,0.101,9.618
	c-0.01,1.503-0.312,3.002-0.351,4.505c-0.151,5.923,0.533,11.789,1.24,17.655c0.171,1.426,0.852,2.303,2.196,2.684
	c0.694,0.197,1.397,0.407,2.11,0.469c1.601,0.142,3.203,0.26,4.805,0.391c7.31,0.772,14.834,0.438,22.126,0.468
	c2.845,0.011,5.692,0.006,8.537-0.007c1.312,0.043,2.621,0.077,3.927,0.101c0.958,0.019,1.921,0.035,2.883,0.05
	c1.76-0.061,3.523-0.116,5.283-0.178c4.744-0.012,9.488-0.024,14.232-0.036c4.282-0.01,8.597,0.139,12.857-0.267
	c2.46,0.139,5.224-0.437,7.486-0.592c3.23-0.22,6.699-0.105,9.822-1.057c0.338-0.026,0.675-0.042,1.012-0.071
	c0.248-0.136,0.404-0.22,0.404-0.22c0.149-2.008,0.372-3.759,0.395-5.511C124.391,67.469,124.155,60.475,123.67,53.481z
	 M121.554,78.65c-0.18,0.011-0.358,0.021-0.541,0.031c-0.089-0.032-0.188-0.055-0.307-0.05c-16.806,0.772-33.628,1.12-50.452,1.085
	c-0.243-0.04-0.484-0.057-0.726-0.052c-0.774,0.016-1.548,0.034-2.322,0.05c-0.784-0.003-1.567,0.006-2.35-0.001
	c-0.117,0-0.216,0.027-0.306,0.062c-1.612,0.037-3.226,0.069-4.839,0.078c-1.435,0.011-2.874-0.217-4.308-0.213
	c-1.499,0.004-2.998,0.146-4.495,0.252c-0.681,0.049-1.361,0.139-2.041,0.205h-8.245c-1.955-0.076-3.907-0.221-5.853-0.508
	c-1.293-0.189-2.626-0.098-3.933-0.213c-1.906-0.17-2.373-0.507-2.536-2.336c-0.494-5.553-1.37-11.133-1.191-16.674
	c0.265-8.262,0.143-16.514,0.286-24.773c0.039-2.173-0.155-4.345-0.169-6.521c-0.002-0.25,0.073-0.503,0.14-0.94
	c0.63-0.085,1.258-0.2,1.889-0.25c2.797-0.23,5.593-0.513,8.396-0.639c3.797-0.169,7.599-0.207,11.398-0.312
	c2.096-0.061,4.195-0.257,6.287-0.201c6.773,0.191,13.541,0.582,20.317,0.697c1.978,0.032,3.955-0.043,5.931-0.103
	c1.151-0.036,2.301,0.012,3.45-0.005c3.534-0.048,7.067-0.108,10.603-0.16c4.058-0.058,8.122-0.025,12.181-0.188
	c3.729-0.148,7.451-0.496,11.173-0.779c0.291-0.022,0.57-0.225,0.961-0.389c-0.61-0.841-1.355-0.655-2.029-0.616
	c-3.404,0.201-6.804,0.464-10.209,0.615c-1.369,0.061-2.749-0.129-4.127-0.174c-1.309-0.043-2.623-0.094-3.933-0.057
	c-2.754,0.079-5.507,0.217-8.262,0.321c-2.031,0.078-4.063,0.211-6.096,0.199c-2.884-0.019-5.763-0.165-8.646-0.22
	c-1.823-0.037-3.648,0.032-5.472-0.015c-3.738-0.095-7.478-0.342-11.216-0.332c-4.985,0.011-9.97,0.196-14.954,0.329
	c-2.032,0.056-4.064,0.135-6.093,0.262c-0.263,0.016-0.504,0.02-0.722-0.002c-0.005,0.002-0.008,0.004-0.013,0.006
	c-1.004,0.277-2.022,0.417-3.062,0.427c-0.104,0.001-0.184-0.035-0.25-0.083c-2.107,0.208-4.021,0.414-5.927,0.547
	c-0.834,0.06-1.769,0.085-1.896-1.156c-0.124-1.223,0.218-1.688,1.716-2.125c-0.023,0.964-0.151,2.001,1.124,2.294
	c1.187-0.34,0.572-1.452,0.92-2.17c0.592-0.373,0.974-0.189,1.158,0.458c0.196,0.691,0.309,1.61,1.273,1.399
	c1.151-0.251,0.471-1.274,0.558-2.187h1.825c-0.777,0.591-0.696,1.294-0.354,2.116c0.639-0.015,1.265-0.083,1.886-0.204
	c-0.087-0.172-0.16-0.378-0.205-0.645c-0.082-0.482-0.832-0.851-1.291-1.269c0.436-0.122,0.868-0.33,1.307-0.347
	c3.607-0.142,7.213-0.31,10.821-0.355c5.506-0.068,11.014-0.005,16.52-0.076c5.581-0.072,11.158-0.292,16.737-0.345
	c2.819-0.029,5.638,0.214,8.458,0.25c2.098,0.026,4.197-0.126,6.294-0.125c5.315,0.004,10.631,0.008,15.947,0.1
	c2.289,0.039,4.575,0.316,6.863,0.449c1.796,0.105,2.108,0.273,2.143,2.054c0.078,3.731-0.03,7.464,0.053,11.194
	c0.095,4.264,0.327,8.523,0.471,12.784c0.039,1.112-0.074,2.228-0.052,3.34c0.082,4.265,0.181,8.529,0.293,12.795
	c0.088,3.344,0.225,6.69,0.286,10.035C121.812,76.379,121.645,77.48,121.554,78.65z"/>
<path fill="#FFFFFF" d="M41.21,52.007c0.64,0,1.274,0.03,1.905-0.005c2.615-0.142,5.228-0.339,7.844-0.45
	c2.685-0.115,5.372-0.152,8.059-0.22c1.959-0.049,3.918-0.098,5.875-0.142c2.226-0.048,4.457-0.027,6.676-0.159
	c2.074-0.124,2.669-0.768,2.693-2.833c0.051-4.395,0.052-8.789,0.036-13.184c-0.007-1.589-0.738-2.542-2.264-2.706
	c-2.404-0.256-4.842-0.586-7.238-0.436c-3.992,0.25-7.969,0.458-11.966,0.28c-0.781-0.036-1.57,0.122-2.354,0.117
	c-2.087-0.012-4.178,0.01-6.258-0.126c-1.499-0.098-2.382,0.278-2.81,1.725c-0.218,0.737-0.205,1.548-0.241,2.33
	c-0.144,3.139-0.279,6.281-0.39,9.423C40.705,47.701,40.473,49.798,41.21,52.007 M84.808,69.649c0.016,0.001,0.03,0.002,0.043,0.004
	c0,1.575-0.023,3.151,0.008,4.727c0.03,1.362,0.511,1.754,1.804,1.62c0.581-0.06,1.169-0.098,1.752-0.077
	c2.76,0.096,5.504,0.096,8.234-0.447c1.022-0.201,2.083-0.247,3.129-0.294c2.235-0.1,2.445-0.288,2.523-2.526
	c0.012-0.393,0.001-0.79,0.004-1.182c0.022-2.035-0.022-4.072,0.091-6.101c0.168-2.942,0.486-5.871,0.674-8.809
	c0.107-1.694-0.44-2.397-2.136-2.59c-1.226-0.139-2.486-0.014-3.73,0.001c-2.881,0.034-5.762,0.066-8.643,0.111
	c-0.586,0.009-1.189-0.015-1.751,0.121c-1.682,0.409-1.882,0.748-1.768,2.479c0.078,1.111,0.165,2.228,0.132,3.34
	C85.083,63.234,84.934,66.441,84.808,69.649 M79.671,67.692c0.852-0.819,1.323-1.538,1.125-2.578
	c-0.084-0.437-0.004-0.911,0.054-1.361c0.353-2.726,0.729-5.449,1.072-8.176c0.157-1.224-0.088-1.532-1.258-1.702
	c-0.323-0.048-0.653-0.044-0.981-0.046c-3.079-0.012-6.158-0.064-9.235-0.01c-1.5,0.027-3.003,0.204-4.493,0.406
	c-1.417,0.192-1.969,0.672-1.975,1.739c-0.02,3.077,0.027,6.158,0.048,9.236c0.006,0.945,0.512,1.453,1.416,1.572
	c0.451,0.06,0.914,0.078,1.37,0.065c3.271-0.084,6.542-0.183,9.813-0.271C77.734,66.535,78.89,66.385,79.671,67.692 M50.189,53.811
	v0.075c-1.902,0-3.806-0.04-5.707,0.009c-2.649,0.071-3.324,0.819-3.293,3.503c0.003,0.264,0.022,0.525,0.034,0.787
	c0.15,2.998,0.309,5.998,0.445,9c0.047,1.02,0.273,1.245,1.306,1.203c2.615-0.105,5.233-0.147,7.843-0.321
	c2.612-0.18,5.22-0.438,7.82-0.751c1.522-0.183,1.705-0.466,1.829-2.021c0.124-1.566,0.231-3.134,0.355-4.702
	c0.12-1.499,0.277-2.999,0.376-4.5c0.106-1.601-0.379-2.132-1.987-2.267c-0.259-0.021-0.523-0.012-0.786-0.014
	C55.681,53.811,52.935,53.811,50.189,53.811 M105.323,30.241c-1.085,0.995-1.528,2.267-1.378,3.545
	c0.374,3.196,0.399,6.377,0.404,9.591c0.011,4.315,0.562,8.628,0.873,12.942c0.321,4.446,0.621,8.895,0.973,13.339
	c0.1,1.303,0.314,2.601,0.538,3.891c0.053,0.302,0.353,0.561,0.539,0.839C106.572,59.627,104.751,45.015,105.323,30.241
	 M37.996,33.043c-0.2-0.032-0.402-0.065-0.605-0.099c-0.637,0.693-0.594,1.611-0.573,2.491c0.102,4.259,0.403,8.522,0.305,12.774
	c-0.184,7.952,0.602,15.856,0.918,23.781c0.032,0.794-0.148,1.688,0.666,2.614c0.201-0.584,0.441-0.967,0.445-1.35
	c0.012-1.245-0.021-2.492-0.11-3.732c-0.311-4.249-0.84-8.488-0.941-12.74c-0.171-7.277-0.082-14.562-0.104-21.842
	C37.994,34.31,37.996,33.675,37.996,33.043 M82.781,35.917c-0.854-1.136-1.687-2.426-3.211-1.576
	c-0.762,0.426-1.665,1.066-1.206,2.639c0.825-0.659,1.478-1.178,2.119-1.689c0.884,0.71,1.12,2.223,2.403,1.917
	c0.946-0.225,1.767-0.968,2.643-1.479c1.543,1.374,1.532,1.362,3.044-0.171c0.34-0.346,0.787-0.59,1.212-0.897
	c0.684,0.651,1.233,1.177,1.817,1.734c0.589-0.32,1.086-0.59,1.545-0.841c1.244,1.077,1.235,1.06,2.784,0.221
	c0.368-0.199,0.821-0.238,1.259-0.359c-0.63-1.275-0.63-1.275-2.588-0.803c-0.68-1.765-1.866-0.625-2.949-0.342
	c-1.789-1.955-3.028-0.266-4.334,0.65C85.312,33.612,85.025,33.666,82.781,35.917 M95.138,46.233
	c0.014-0.208,0.026-0.417,0.039-0.625c-0.401-0.133-0.805-0.378-1.206-0.379c-4.657-0.023-9.314-0.018-13.971,0.02
	c-0.363,0.002-0.725,0.299-1.086,0.458c0.024,0.155,0.048,0.31,0.071,0.464c3.35,0.79,6.815-0.01,10.209,0.465
	C91.117,46.904,93.151,46.393,95.138,46.233 M78.52,70.639c-0.162-0.691-0.138-1.161-0.36-1.428
	c-0.649-0.775-1.853-0.893-2.875-0.42c-0.455,0.21-1.032,0.62-1.39,0.488c-1.3-0.479-2.507-0.627-3.768,0.087
	c-0.238,0.134-0.635,0.001-0.957-0.033c-2.276-0.245-2.68-0.018-3.951,2.285c0.834,0.435,1.35-0.149,1.881-0.575
	c0.517-0.415,1.027-0.581,1.591-0.138c0.92,0.719,1.696,0.371,2.454-0.291c0.552-0.484,1.154-0.673,1.727-0.057
	c0.844,0.912,1.602,0.586,2.387-0.077c0.34-0.284,0.733-0.509,1.065-0.736C77,70.021,77.583,70.259,78.52,70.639 M64.897,74.92
	c1.714,1.542,1.89,1.599,3.289,0.65c0.765-0.519,1.417-0.736,2.355-0.348c0.496,0.207,1.218-0.101,1.831-0.216
	c0.55-0.104,1.258-0.552,1.611-0.35c1.837,1.059,3.107-0.562,4.971-0.575c-0.74-1.03-1.449-0.947-2.153-0.868
	c-0.518,0.06-1.16,0.356-1.525,0.151c-1.945-1.086-3.929,0.896-5.85-0.146c-0.154-0.083-0.56,0.074-0.708,0.243
	C67.793,74.513,66.551,74.804,64.897,74.92 M48.396,75.277c1.571,2.002,2.791,0.22,3.863-0.23c0.912,0.179,1.784,0.636,2.177,0.375
	c0.936-0.622,1.821-0.426,3.156-0.12c-0.301-0.676-0.364-1.145-0.625-1.321c-0.355-0.241-0.859-0.272-1.306-0.368
	c-2.557-0.535-5.007,1.094-7.576,0.387c-0.104-0.028-0.251,0.061-0.37,0.115c-1.145,0.522-2.287,1.053-3.406,1.565
	C45.634,76.938,45.698,76.934,48.396,75.277 M78.027,39.849c0.276,0.342,0.354,0.523,0.438,0.526
	c5.304,0.202,10.613,0.394,15.919,0.57c0.379,0.013,0.761-0.093,1.139-0.157c0.043-0.007,0.082-0.095,0.099-0.153
	c0.019-0.057,0.005-0.121,0.005-0.414c-0.602-0.155-1.271-0.454-1.947-0.477c-4.917-0.162-9.833-0.276-14.751-0.373
	C78.665,39.365,78.398,39.646,78.027,39.849 M78.413,49.108c5.205,1.481,10.07,0.391,14.892,0.404
	c0.656,0.002,1.438,0.12,2.027-0.99c-5.449-0.527-10.7,0.473-15.922-0.03C79.22,48.475,79.003,48.733,78.413,49.108 M78.673,42.916
	c-0.011,0.19-0.025,0.379-0.036,0.569c0.732,0.061,1.462,0.173,2.195,0.174c2.553,0.009,5.108-0.041,7.663-0.029
	c1.438,0.006,2.876,0.114,4.315,0.13c0.689,0.007,1.401-0.061,1.793-1.25C89.143,42.503,83.884,41.762,78.673,42.916 M57.107,71.686
	c0.451-0.699,0.472-1.323-0.092-1.667c-0.51-0.311-1.189-0.458-1.796-0.467c-0.546-0.01-1.206,0.538-1.629,0.371
	c-1.702-0.675-3.054-0.12-4.242,0.95c-2.81-1.192-4.013-0.845-5.082,1.653c0.649-0.264,1.16-0.355,1.519-0.642
	c0.731-0.579,1.388-0.652,2.113-0.038c1.069,0.904,2.051,0.651,2.948-0.273c0.642-0.659,1.292-0.864,2.053-0.191
	c0.531,0.471,1.074,0.365,1.612-0.015c0.37-0.258,0.751-0.494,1.187-0.782C56.177,70.958,56.608,71.294,57.107,71.686
	 M42.313,79.766c0.002-0.134,0.004-0.272,0.006-0.408c-0.211,0.046-0.423,0.087-0.63,0.14c-0.017,0.005-0.017,0.16-0.009,0.162
	C41.89,79.701,42.102,79.733,42.313,79.766"/>
<path fill="#FFFFFF" d="M35.64,23.509c-1.033,0.768-0.603,1.721-0.023,2.884c-2.416,0.23-4.543,0.471-6.676,0.62
	c-0.835,0.06-1.768,0.085-1.896-1.156c-0.124-1.223,0.217-1.688,1.717-2.125c-0.025,0.964-0.151,2,1.123,2.294
	c1.187-0.34,0.572-1.452,0.92-2.17c0.592-0.373,0.973-0.189,1.158,0.458c0.197,0.691,0.309,1.61,1.272,1.399
	c1.152-0.251,0.473-1.274,0.559-2.187h1.857L35.64,23.509z"/>
<path fill="#231F20" d="M41.21,52.008c-0.737-2.21-0.506-4.308-0.432-6.388c0.111-3.141,0.246-6.284,0.389-9.424
	c0.036-0.78,0.023-1.592,0.241-2.33c0.428-1.446,1.311-1.822,2.81-1.724c2.08,0.135,4.17,0.114,6.257,0.126
	c0.785,0.005,1.573-0.152,2.355-0.117c3.998,0.178,7.976-0.031,11.966-0.279c2.396-0.15,4.834,0.179,7.239,0.434
	c1.526,0.164,2.257,1.117,2.264,2.707c0.016,4.395,0.015,8.789-0.036,13.184c-0.024,2.065-0.619,2.709-2.693,2.833
	c-2.219,0.132-4.451,0.11-6.676,0.159c-1.958,0.044-3.917,0.093-5.875,0.142c-2.687,0.068-5.374,0.105-8.059,0.22
	c-2.616,0.111-5.229,0.308-7.844,0.45C42.484,52.037,41.85,52.008,41.21,52.008 M50.441,33.783c-2.367,0-4.451-0.04-6.532,0.015
	c-1.249,0.034-1.426,0.364-1.426,1.577c0,3.398-0.049,6.798-0.079,10.196c-0.01,1.05-0.075,2.103-0.021,3.147
	c0.07,1.341,0.368,1.529,1.743,1.441c1.503-0.095,3.008-0.166,4.512-0.211c1.64-0.049,3.284-0.006,4.917-0.104
	c1.01-0.059,1.237-0.449,1.09-1.431c-0.112-0.755-0.378-1.376-1.216-1.608c-1.304-0.36-1.942-1.385-2.11-2.597
	c-0.186-1.345-0.118-2.723-0.173-4.088c-0.032-0.77,0.209-1.783-0.186-2.259C49.912,36.597,49.666,35.358,50.441,33.783
	 M52.382,37.81c-0.082,1.107-0.178,2.136-0.231,3.166c-0.184,3.551,0.466,3.59,3.618,4.374c0.246,0.06,0.549-0.079,0.778,0.004
	c0.457,0.17,1.119,0.33,1.268,0.676c0.313,0.724-0.382,0.976-0.943,1.195c-0.06,0.025-0.122,0.046-0.185,0.066
	c-0.789,0.263-0.913,0.87-0.788,1.576c0.124,0.689,0.612,0.969,1.262,1.019c1.239,0.095,2.479,0.209,3.72,0.251
	c0.337,0.012,0.683-0.207,0.835-0.256c-0.072-1.063-0.264-1.958-0.161-2.814c0.172-1.416,0.554-2.806,0.817-4.212
	c0.333-1.777-0.647-3.037-1.863-4.047c-1.425-1.186-3.02-0.461-3.638,1.301c-0.475,1.359,0.271,2.327,0.917,3.681
	c-0.798,0.119-1.479,0.436-1.947,0.239c-0.768-0.32-0.416-1.11-0.272-1.738c0.058-0.256,0.142-0.507,0.17-0.766
	c0.112-0.998,0.651-1.992,0.131-3.017C53.813,38.91,53.813,38.91,52.382,37.81 M65.886,35.245c2.141,0.431,2.139,0.431,2.299,2.678
	c0.014,0.194,0.005,0.424,0.104,0.571c0.71,1.056,0.403,2.125-0.016,3.251c1.77,1.361,1.576,2.924,0.631,4.691
	c-0.505,0.945-0.675,2.067-1.085,3.399c1.289,0,2.307,0.055,3.316-0.016c1.286-0.088,1.444-0.283,1.514-1.543
	c0.032-0.588,0.008-1.18-0.009-1.769c-0.108-3.854-0.214-7.709-0.341-11.564c-0.012-0.37-0.161-0.734-0.27-1.204
	c-1.488-0.121-2.914-0.307-4.344-0.336C66.22,33.374,66.109,33.552,65.886,35.245 M66.407,46.053
	c0.665-0.884,0.941-1.664,0.501-2.873C66.119,44.145,65.491,44.855,66.407,46.053 M66.979,37.514
	c-1.55,0.478-1.55,0.478-0.793,1.921C66.51,38.653,66.744,38.083,66.979,37.514 M56.809,37.107c0.919,0.118,1.453-0.148,1.733-0.913
	C58.103,36.755,56.886,35.384,56.809,37.107 M65.381,41.079c-1.133,0.516-1.133,0.516-1.205,1.589
	c0.298-0.326,0.527-0.539,0.712-0.785C65.076,41.631,65.217,41.348,65.381,41.079 M64.237,45.043
	c0.166-0.379,0.382-0.646,0.317-0.769c-0.127-0.245-0.409-0.411-0.626-0.608c-0.133,0.19-0.41,0.429-0.366,0.56
	C63.648,44.479,63.914,44.672,64.237,45.043 M62.83,34.165c1.061,0.55,1.061,0.55,1.718,0.148
	C63.954,34.262,63.544,34.228,62.83,34.165 M51.113,35.595c0.014,0.113,0.028,0.226,0.043,0.338
	c0.403-0.054,0.805-0.109,1.209-0.165l-0.04-0.321C51.921,35.498,51.516,35.547,51.113,35.595 M66.176,48.472l0.255,0.194
	c0.107-0.053,0.291-0.092,0.305-0.164c0.038-0.188,0.002-0.392-0.005-0.588C66.546,48.099,66.361,48.286,66.176,48.472
	 M54.14,36.961c0.071-0.076,0.196-0.152,0.198-0.229c0-0.075-0.124-0.153-0.194-0.23c-0.07,0.077-0.196,0.15-0.197,0.229
	C53.945,36.806,54.07,36.884,54.14,36.961"/>
<path fill="none" stroke="#231F20" stroke-miterlimit="10" d="M41.21,52.008c-0.737-2.21-0.506-4.308-0.432-6.388
	c0.111-3.141,0.246-6.284,0.389-9.424c0.036-0.78,0.023-1.592,0.241-2.33c0.428-1.446,1.311-1.822,2.81-1.724
	c2.08,0.135,4.17,0.114,6.257,0.126c0.785,0.005,1.573-0.152,2.355-0.117c3.998,0.178,7.976-0.031,11.966-0.279
	c2.396-0.15,4.834,0.179,7.239,0.434c1.526,0.164,2.257,1.117,2.264,2.707c0.016,4.395,0.015,8.789-0.036,13.184
	c-0.024,2.065-0.619,2.709-2.693,2.833c-2.219,0.132-4.451,0.11-6.676,0.159c-1.958,0.044-3.917,0.093-5.875,0.142
	c-2.687,0.068-5.374,0.105-8.059,0.22c-2.616,0.111-5.229,0.308-7.844,0.45C42.484,52.037,41.85,52.008,41.21,52.008z
	 M50.441,33.783c-2.367,0-4.451-0.04-6.532,0.015c-1.249,0.034-1.426,0.364-1.426,1.577c0,3.398-0.049,6.798-0.079,10.196
	c-0.01,1.05-0.075,2.103-0.021,3.147c0.07,1.341,0.368,1.529,1.743,1.441c1.503-0.095,3.008-0.166,4.512-0.211
	c1.64-0.049,3.284-0.006,4.917-0.104c1.01-0.059,1.237-0.449,1.09-1.431c-0.112-0.755-0.378-1.376-1.216-1.608
	c-1.304-0.36-1.942-1.385-2.11-2.597c-0.186-1.345-0.118-2.723-0.173-4.088c-0.032-0.77,0.209-1.783-0.186-2.259
	C49.912,36.597,49.666,35.358,50.441,33.783z M52.382,37.81c-0.082,1.107-0.178,2.136-0.231,3.166
	c-0.184,3.551,0.466,3.59,3.618,4.374c0.246,0.06,0.549-0.079,0.778,0.004c0.457,0.17,1.119,0.33,1.268,0.676
	c0.313,0.724-0.382,0.976-0.943,1.195c-0.06,0.025-0.122,0.046-0.185,0.066c-0.789,0.263-0.913,0.87-0.788,1.576
	c0.124,0.689,0.612,0.969,1.262,1.019c1.239,0.095,2.479,0.209,3.72,0.251c0.337,0.012,0.683-0.207,0.835-0.256
	c-0.072-1.063-0.264-1.958-0.161-2.814c0.172-1.416,0.554-2.806,0.817-4.212c0.333-1.777-0.647-3.037-1.863-4.047
	c-1.425-1.186-3.02-0.461-3.638,1.301c-0.475,1.359,0.271,2.327,0.917,3.681c-0.798,0.119-1.479,0.436-1.947,0.239
	c-0.768-0.32-0.416-1.11-0.272-1.738c0.058-0.256,0.142-0.507,0.17-0.766c0.112-0.998,0.651-1.992,0.131-3.017
	C53.813,38.91,53.813,38.91,52.382,37.81z M65.886,35.245c2.141,0.431,2.139,0.431,2.299,2.678c0.014,0.194,0.005,0.424,0.104,0.571
	c0.71,1.056,0.403,2.125-0.016,3.251c1.77,1.361,1.576,2.924,0.631,4.691c-0.505,0.945-0.675,2.067-1.085,3.399
	c1.289,0,2.307,0.055,3.316-0.016c1.286-0.088,1.444-0.283,1.514-1.543c0.032-0.588,0.008-1.18-0.009-1.769
	c-0.108-3.854-0.214-7.709-0.341-11.564c-0.012-0.37-0.161-0.734-0.27-1.204c-1.488-0.121-2.914-0.307-4.344-0.336
	C66.22,33.374,66.109,33.552,65.886,35.245z M66.407,46.053c0.665-0.884,0.941-1.664,0.501-2.873
	C66.119,44.145,65.491,44.855,66.407,46.053z M66.979,37.514c-1.55,0.478-1.55,0.478-0.793,1.921
	C66.51,38.653,66.744,38.083,66.979,37.514z M56.809,37.107c0.919,0.118,1.453-0.148,1.733-0.913
	C58.103,36.755,56.886,35.384,56.809,37.107z M65.381,41.079c-1.133,0.516-1.133,0.516-1.205,1.589
	c0.298-0.326,0.527-0.539,0.712-0.785C65.076,41.631,65.217,41.348,65.381,41.079z M64.237,45.043
	c0.166-0.379,0.382-0.646,0.317-0.769c-0.127-0.245-0.409-0.411-0.626-0.608c-0.133,0.19-0.41,0.429-0.366,0.56
	C63.648,44.479,63.914,44.672,64.237,45.043z M62.83,34.165c1.061,0.55,1.061,0.55,1.718,0.148
	C63.954,34.262,63.544,34.228,62.83,34.165z M51.113,35.595c0.014,0.113,0.028,0.226,0.043,0.338
	c0.403-0.054,0.805-0.109,1.209-0.165l-0.04-0.321C51.921,35.498,51.516,35.547,51.113,35.595z M66.176,48.472l0.255,0.194
	c0.107-0.053,0.291-0.092,0.305-0.164c0.038-0.188,0.002-0.392-0.005-0.588C66.546,48.099,66.361,48.286,66.176,48.472z
	 M54.14,36.961c0.071-0.076,0.196-0.152,0.198-0.229c0-0.075-0.124-0.153-0.194-0.23c-0.07,0.077-0.196,0.15-0.197,0.229
	C53.945,36.806,54.07,36.884,54.14,36.961z"/>
<path fill="#231F20" d="M84.808,69.648c0.126-3.206,0.275-6.414,0.366-9.623c0.033-1.111-0.054-2.229-0.132-3.34
	c-0.114-1.73,0.085-2.07,1.768-2.479c0.562-0.136,1.166-0.112,1.751-0.121c2.881-0.045,5.762-0.077,8.643-0.111
	c1.245-0.015,2.505-0.139,3.731,0c1.694,0.191,2.241,0.896,2.135,2.589c-0.188,2.938-0.507,5.867-0.674,8.809
	c-0.113,2.027-0.068,4.065-0.09,6.101c-0.004,0.393,0.008,0.788-0.006,1.182c-0.077,2.239-0.288,2.427-2.522,2.526
	c-1.046,0.048-2.106,0.093-3.129,0.295c-2.73,0.543-5.475,0.543-8.235,0.446c-0.583-0.021-1.17,0.018-1.751,0.077
	c-1.293,0.134-1.774-0.258-1.804-1.619c-0.031-1.576-0.008-3.151-0.008-4.729C84.838,69.652,84.823,69.65,84.808,69.648
	 M87.075,56.037c0,3.427,0.002,6.623-0.005,9.822c0,0.312-0.068,0.624-0.088,0.938c-0.129,1.875-0.298,3.754-0.357,5.634
	c-0.032,1.002,0.64,1.609,1.598,1.669c1.693,0.099,3.402,0.178,5.095,0.08c1.956-0.112,3.897-0.435,5.85-0.646
	c1.242-0.136,1.412-0.259,1.438-1.6c0.034-1.945,0.009-3.888,0.009-5.992c-1.392,0.032-2.549-0.568-3.597,0.422
	c-0.124,0.118-0.384,0.192-0.549,0.149c-1.836-0.468-3.632-0.028-5.438,0.196c-0.706,0.089-1.184-0.202-1.275-0.894
	c-0.081-0.602-0.017-1.223-0.017-2.08c0.807,0.342,1.309,0.554,1.843,0.781c0.72-0.822,1.265-1.553,2.605-1.447
	c1.25,0.099,2.132,0.271,2.641,1.465c0.07,0.168,0.256,0.383,0.406,0.401c0.888,0.104,1.811,0.324,2.663,0.18
	c0.899-0.153,0.753-1.104,0.795-1.803c0.115-1.896,0.222-3.789,0.292-5.688c0.049-1.29-0.278-1.707-1.558-1.741
	c-1.369-0.034-2.745,0.127-4.12,0.148c-1.889,0.027-3.78,0.004-5.672,0.003C88.798,56.037,87.963,56.037,87.075,56.037"/>
<path fill="none" stroke="#231F20" stroke-miterlimit="10" d="M84.808,69.648c0.126-3.206,0.275-6.414,0.366-9.623
	c0.033-1.111-0.054-2.229-0.132-3.34c-0.114-1.73,0.085-2.07,1.768-2.479c0.562-0.136,1.166-0.112,1.751-0.121
	c2.881-0.045,5.762-0.077,8.643-0.111c1.245-0.015,2.505-0.139,3.731,0c1.694,0.191,2.241,0.896,2.135,2.589
	c-0.188,2.938-0.507,5.867-0.674,8.809c-0.113,2.027-0.068,4.065-0.09,6.101c-0.004,0.393,0.008,0.788-0.006,1.182
	c-0.077,2.239-0.288,2.427-2.522,2.526c-1.046,0.048-2.106,0.093-3.129,0.295c-2.73,0.543-5.475,0.543-8.235,0.446
	c-0.583-0.021-1.17,0.018-1.751,0.077c-1.293,0.134-1.774-0.258-1.804-1.619c-0.031-1.576-0.008-3.151-0.008-4.729
	C84.838,69.652,84.823,69.65,84.808,69.648z M87.075,56.037c0,3.427,0.002,6.623-0.005,9.822c0,0.312-0.068,0.624-0.088,0.938
	c-0.129,1.875-0.298,3.754-0.357,5.634c-0.032,1.002,0.64,1.609,1.598,1.669c1.693,0.099,3.402,0.178,5.095,0.08
	c1.956-0.112,3.897-0.435,5.85-0.646c1.242-0.136,1.412-0.259,1.438-1.6c0.034-1.945,0.009-3.888,0.009-5.992
	c-1.392,0.032-2.549-0.568-3.597,0.422c-0.124,0.118-0.384,0.192-0.549,0.149c-1.836-0.468-3.632-0.028-5.438,0.196
	c-0.706,0.089-1.184-0.202-1.275-0.894c-0.081-0.602-0.017-1.223-0.017-2.08c0.807,0.342,1.309,0.554,1.843,0.781
	c0.72-0.822,1.265-1.553,2.605-1.447c1.25,0.099,2.132,0.271,2.641,1.465c0.07,0.168,0.256,0.383,0.406,0.401
	c0.888,0.104,1.811,0.324,2.663,0.18c0.899-0.153,0.753-1.104,0.795-1.803c0.115-1.896,0.222-3.789,0.292-5.688
	c0.049-1.29-0.278-1.707-1.558-1.741c-1.369-0.034-2.745,0.127-4.12,0.148c-1.889,0.027-3.78,0.004-5.672,0.003
	C88.798,56.037,87.963,56.037,87.075,56.037z"/>
<path fill="#231F20" d="M79.671,67.692c-0.781-1.309-1.937-1.157-3.044-1.125c-3.273,0.088-6.542,0.187-9.812,0.271
	c-0.457,0.013-0.92-0.006-1.371-0.065c-0.904-0.119-1.41-0.628-1.416-1.572c-0.021-3.078-0.067-6.159-0.048-9.236
	c0.007-1.066,0.558-1.547,1.976-1.739c1.489-0.203,2.992-0.379,4.492-0.406c3.078-0.054,6.159-0.001,9.236,0.01
	c0.328,0.002,0.658-0.002,0.981,0.046c1.17,0.17,1.415,0.478,1.257,1.702c-0.343,2.727-0.719,5.451-1.071,8.176
	c-0.058,0.45-0.138,0.925-0.054,1.361C80.994,66.154,80.522,66.873,79.671,67.692 M68.51,59.652
	c1.837,0.518,1.837,0.518,1.871,2.393c0.011,0.655,0.025,1.312,0.036,1.966c0.012,0.951,0.586,1.219,1.425,1.202
	c1.07-0.021,1.5-0.369,1.524-1.35c0.009-0.389-0.086-0.779-0.151-1.168c-0.188-1.137,0.359-1.931,1.283-2.432
	c1.532-0.831,3.092-1.614,4.683-2.327c0.711-0.319,1.344-0.612,1.267-1.5c-0.096-1.061-0.968-0.917-1.652-0.924
	c-3.274-0.033-6.551-0.058-9.825-0.021c-0.841,0.009-1.706,0.167-2.51,0.42c-0.316,0.097-0.635,0.618-0.684,0.981
	c-0.03,0.222,0.451,0.739,0.702,0.738C67.896,57.628,68.437,58.438,68.51,59.652 M67.229,64.806c-0.06-1.054-0.121-1.737-0.131-2.42
	c-0.011-0.721,0.107-1.449,0.012-2.154c-0.049-0.369-0.428-0.693-0.658-1.041c-0.269,0.305-0.751,0.598-0.769,0.918
	c-0.082,1.364-0.095,2.746,0.026,4.109c0.032,0.358,0.61,0.931,0.972,0.956c2.051,0.151,2.494,0.109,2.694-2.023
	c0.059-0.618-0.059-1.253-0.102-2.005C67.273,61.701,68.585,63.59,67.229,64.806 M77.379,64.689
	c1.024,0.286,1.823,0.304,2.064-0.545c0.445-1.588,0.519-3.237,0.528-4.895c-1.716,0.065-1.932,0.143-2.086,1.111
	C77.663,61.753,77.552,63.164,77.379,64.689 M76.344,60.976c-1.779,0.108-2.083,0.416-1.865,1.866
	c0.068,0.445,0.134,0.91,0.315,1.312c0.108,0.24,0.445,0.53,0.671,0.523c0.234-0.005,0.577-0.3,0.669-0.543
	C76.527,63.108,76.788,62.052,76.344,60.976"/>
<path fill="none" stroke="#231F20" stroke-miterlimit="10" d="M79.671,67.692c-0.781-1.309-1.937-1.157-3.044-1.125
	c-3.273,0.088-6.542,0.187-9.812,0.271c-0.457,0.013-0.92-0.006-1.371-0.065c-0.904-0.119-1.41-0.628-1.416-1.572
	c-0.021-3.078-0.067-6.159-0.048-9.236c0.007-1.066,0.558-1.547,1.976-1.739c1.489-0.203,2.992-0.379,4.492-0.406
	c3.078-0.054,6.159-0.001,9.236,0.01c0.328,0.002,0.658-0.002,0.981,0.046c1.17,0.17,1.415,0.478,1.257,1.702
	c-0.343,2.727-0.719,5.451-1.071,8.176c-0.058,0.45-0.138,0.925-0.054,1.361C80.994,66.154,80.522,66.873,79.671,67.692z
	 M68.51,59.652c1.837,0.518,1.837,0.518,1.871,2.393c0.011,0.655,0.025,1.312,0.036,1.966c0.012,0.951,0.586,1.219,1.425,1.202
	c1.07-0.021,1.5-0.369,1.524-1.35c0.009-0.389-0.086-0.779-0.151-1.168c-0.188-1.137,0.359-1.931,1.283-2.432
	c1.532-0.831,3.092-1.614,4.683-2.327c0.711-0.319,1.344-0.612,1.267-1.5c-0.096-1.061-0.968-0.917-1.652-0.924
	c-3.274-0.033-6.551-0.058-9.825-0.021c-0.841,0.009-1.706,0.167-2.51,0.42c-0.316,0.097-0.635,0.618-0.684,0.981
	c-0.03,0.222,0.451,0.739,0.702,0.738C67.896,57.628,68.437,58.438,68.51,59.652z M67.229,64.806
	c-0.06-1.054-0.121-1.737-0.131-2.42c-0.011-0.721,0.107-1.449,0.012-2.154c-0.049-0.369-0.428-0.693-0.658-1.041
	c-0.269,0.305-0.751,0.598-0.769,0.918c-0.082,1.364-0.095,2.746,0.026,4.109c0.032,0.358,0.61,0.931,0.972,0.956
	c2.051,0.151,2.494,0.109,2.694-2.023c0.059-0.618-0.059-1.253-0.102-2.005C67.273,61.701,68.585,63.59,67.229,64.806z
	 M77.379,64.689c1.024,0.286,1.823,0.304,2.064-0.545c0.445-1.588,0.519-3.237,0.528-4.895c-1.716,0.065-1.932,0.143-2.086,1.111
	C77.663,61.753,77.552,63.164,77.379,64.689z M76.344,60.976c-1.779,0.108-2.083,0.416-1.865,1.866
	c0.068,0.445,0.134,0.91,0.315,1.312c0.108,0.24,0.445,0.53,0.671,0.523c0.234-0.005,0.577-0.3,0.669-0.543
	C76.527,63.108,76.788,62.052,76.344,60.976z"/>
<path fill="#231F20" d="M50.189,53.811c2.746,0,5.491,0,8.236,0.001c0.263,0,0.526-0.008,0.786,0.013
	c1.608,0.135,2.093,0.666,1.987,2.267c-0.099,1.503-0.256,3.001-0.376,4.5c-0.124,1.567-0.231,3.136-0.355,4.702
	c-0.125,1.555-0.307,1.839-1.829,2.021c-2.6,0.312-5.208,0.571-7.82,0.751c-2.61,0.174-5.229,0.216-7.843,0.321
	c-1.033,0.042-1.259-0.184-1.306-1.203c-0.136-3.002-0.295-6.002-0.445-9c-0.012-0.262-0.031-0.524-0.034-0.787
	c-0.03-2.684,0.645-3.433,3.293-3.503c1.901-0.05,3.804-0.009,5.707-0.009V53.811z M43.392,67.058
	c4.511-0.286,8.877-0.558,13.243-0.848c0.388-0.024,0.764-0.187,1.15-0.256c1.011-0.179,1.374-0.796,1.419-1.793
	c0.104-2.223,0.316-4.44,0.44-6.661c0.039-0.687-0.069-1.382-0.103-1.961c-0.338-0.153-0.455-0.251-0.572-0.254
	c-4.374-0.053-8.747-0.098-13.122-0.138c-0.654-0.006-1.31,0.008-1.962,0.043c-0.704,0.039-1.077,0.437-1.073,1.142
	C42.819,59.785,42.516,63.256,43.392,67.058"/>
<path fill="none" stroke="#231F20" stroke-miterlimit="10" d="M50.189,53.811c2.746,0,5.491,0,8.236,0.001
	c0.263,0,0.526-0.008,0.786,0.013c1.608,0.135,2.093,0.666,1.987,2.267c-0.099,1.503-0.256,3.001-0.376,4.5
	c-0.124,1.567-0.231,3.136-0.355,4.702c-0.125,1.555-0.307,1.839-1.829,2.021c-2.6,0.312-5.208,0.571-7.82,0.751
	c-2.61,0.174-5.229,0.216-7.843,0.321c-1.033,0.042-1.259-0.184-1.306-1.203c-0.136-3.002-0.295-6.002-0.445-9
	c-0.012-0.262-0.031-0.524-0.034-0.787c-0.03-2.684,0.645-3.433,3.293-3.503c1.901-0.05,3.804-0.009,5.707-0.009V53.811z
	 M43.392,67.058c4.511-0.286,8.877-0.558,13.243-0.848c0.388-0.024,0.764-0.187,1.15-0.256c1.011-0.179,1.374-0.796,1.419-1.793
	c0.104-2.223,0.316-4.44,0.44-6.661c0.039-0.687-0.069-1.382-0.103-1.961c-0.338-0.153-0.455-0.251-0.572-0.254
	c-4.374-0.053-8.747-0.098-13.122-0.138c-0.654-0.006-1.31,0.008-1.962,0.043c-0.704,0.039-1.077,0.437-1.073,1.142
	C42.819,59.785,42.516,63.256,43.392,67.058z"/>
<path fill="#231F20" d="M105.323,30.241c-0.572,14.774,1.249,29.385,1.949,44.146c-0.187-0.278-0.486-0.537-0.539-0.84
	c-0.225-1.289-0.438-2.587-0.539-3.89c-0.351-4.444-0.65-8.892-0.972-13.339c-0.312-4.313-0.862-8.627-0.872-12.942
	c-0.006-3.213-0.031-6.395-0.406-9.591C103.795,32.506,104.239,31.236,105.323,30.241"/>
<path fill="none" stroke="#231F20" stroke-miterlimit="10" d="M105.323,30.241c-0.572,14.774,1.249,29.385,1.949,44.146
	c-0.187-0.278-0.486-0.537-0.539-0.84c-0.225-1.289-0.438-2.587-0.539-3.89c-0.351-4.444-0.65-8.892-0.972-13.339
	c-0.312-4.313-0.862-8.627-0.872-12.942c-0.006-3.213-0.031-6.395-0.406-9.591C103.795,32.506,104.239,31.236,105.323,30.241z"/>
<path fill="#231F20" d="M37.996,33.043c0,0.632-0.002,1.266,0,1.898c0.021,7.28-0.068,14.565,0.104,21.842
	c0.101,4.251,0.631,8.492,0.94,12.74c0.09,1.24,0.124,2.487,0.111,3.732c-0.004,0.383-0.244,0.766-0.445,1.35
	c-0.814-0.927-0.634-1.818-0.666-2.614c-0.316-7.925-1.102-15.829-0.917-23.781c0.098-4.253-0.203-8.515-0.306-12.774
	c-0.021-0.88-0.064-1.798,0.573-2.491C37.592,32.978,37.796,33.011,37.996,33.043"/>
<path fill="none" stroke="#231F20" stroke-miterlimit="10" d="M37.996,33.043c0,0.632-0.002,1.266,0,1.898
	c0.021,7.28-0.068,14.565,0.104,21.842c0.101,4.251,0.631,8.492,0.94,12.74c0.09,1.24,0.124,2.487,0.111,3.732
	c-0.004,0.383-0.244,0.766-0.445,1.35c-0.814-0.927-0.634-1.818-0.666-2.614c-0.316-7.925-1.102-15.829-0.917-23.781
	c0.098-4.253-0.203-8.515-0.306-12.774c-0.021-0.88-0.064-1.798,0.573-2.491C37.592,32.978,37.796,33.011,37.996,33.043z"/>
<path fill="#231F20" d="M82.781,35.917c2.243-2.25,2.531-2.305,4.538-0.996c1.306-0.917,2.545-2.605,4.334-0.65
	c1.083-0.283,2.269-1.423,2.949,0.342c1.958-0.472,1.958-0.472,2.588,0.803c-0.438,0.121-0.891,0.161-1.259,0.359
	c-1.55,0.839-1.54,0.855-2.784-0.221c-0.46,0.25-0.957,0.521-1.545,0.84c-0.584-0.556-1.134-1.082-1.817-1.733
	c-0.424,0.307-0.872,0.551-1.211,0.897c-1.513,1.533-1.502,1.545-3.045,0.172c-0.876,0.51-1.696,1.254-2.643,1.479
	c-1.283,0.305-1.52-1.207-2.403-1.917c-0.642,0.512-1.293,1.031-2.119,1.689c-0.46-1.572,0.444-2.213,1.206-2.639
	C81.096,33.491,81.927,34.782,82.781,35.917"/>
<path fill="none" stroke="#231F20" stroke-miterlimit="10" d="M82.781,35.917c2.243-2.25,2.531-2.305,4.538-0.996
	c1.306-0.917,2.545-2.605,4.334-0.65c1.083-0.283,2.269-1.423,2.949,0.342c1.958-0.472,1.958-0.472,2.588,0.803
	c-0.438,0.121-0.891,0.161-1.259,0.359c-1.55,0.839-1.54,0.855-2.784-0.221c-0.46,0.25-0.957,0.521-1.545,0.84
	c-0.584-0.556-1.134-1.082-1.817-1.733c-0.424,0.307-0.872,0.551-1.211,0.897c-1.513,1.533-1.502,1.545-3.045,0.172
	c-0.876,0.51-1.696,1.254-2.643,1.479c-1.283,0.305-1.52-1.207-2.403-1.917c-0.642,0.512-1.293,1.031-2.119,1.689
	c-0.46-1.572,0.444-2.213,1.206-2.639C81.096,33.491,81.927,34.782,82.781,35.917z"/>
<path fill="#231F20" d="M95.138,46.233c-1.985,0.159-4.021,0.67-5.943,0.401c-3.394-0.476-6.861,0.324-10.209-0.465
	c-0.023-0.154-0.047-0.309-0.071-0.464c0.361-0.159,0.724-0.455,1.085-0.458c4.656-0.038,9.315-0.042,13.972-0.02
	c0.401,0.001,0.805,0.246,1.206,0.379C95.165,45.816,95.151,46.025,95.138,46.233"/>
<path fill="none" stroke="#231F20" stroke-miterlimit="10" d="M95.138,46.233c-1.985,0.159-4.021,0.67-5.943,0.401
	c-3.394-0.476-6.861,0.324-10.209-0.465c-0.023-0.154-0.047-0.309-0.071-0.464c0.361-0.159,0.724-0.455,1.085-0.458
	c4.656-0.038,9.315-0.042,13.972-0.02c0.401,0.001,0.805,0.246,1.206,0.379C95.165,45.816,95.151,46.025,95.138,46.233z"/>
<path fill="#231F20" d="M78.52,70.639c-0.937-0.38-1.52-0.618-2.195-0.895c-0.332,0.228-0.726,0.452-1.066,0.736
	c-0.784,0.663-1.542,0.989-2.386,0.078c-0.573-0.617-1.175-0.428-1.727,0.056c-0.757,0.661-1.533,1.01-2.454,0.291
	c-0.565-0.443-1.074-0.277-1.591,0.138c-0.531,0.427-1.046,1.01-1.881,0.575c1.271-2.303,1.675-2.531,3.951-2.285
	c0.322,0.034,0.719,0.168,0.957,0.033c1.261-0.714,2.468-0.566,3.768-0.087c0.358,0.132,0.935-0.278,1.39-0.488
	c1.022-0.474,2.223-0.355,2.875,0.42C78.382,69.479,78.357,69.947,78.52,70.639"/>
<path fill="none" stroke="#231F20" stroke-miterlimit="10" d="M78.52,70.639c-0.937-0.38-1.52-0.618-2.195-0.895
	c-0.332,0.228-0.726,0.452-1.066,0.736c-0.784,0.663-1.542,0.989-2.386,0.078c-0.573-0.617-1.175-0.428-1.727,0.056
	c-0.757,0.661-1.533,1.01-2.454,0.291c-0.565-0.443-1.074-0.277-1.591,0.138c-0.531,0.427-1.046,1.01-1.881,0.575
	c1.271-2.303,1.675-2.531,3.951-2.285c0.322,0.034,0.719,0.168,0.957,0.033c1.261-0.714,2.468-0.566,3.768-0.087
	c0.358,0.132,0.935-0.278,1.39-0.488c1.022-0.474,2.223-0.355,2.875,0.42C78.382,69.479,78.357,69.947,78.52,70.639z"/>
<path fill="#231F20" d="M64.897,74.919c1.654-0.115,2.896-0.406,3.821-1.458c0.148-0.167,0.554-0.325,0.708-0.242
	c1.921,1.043,3.904-0.94,5.85,0.146c0.366,0.205,1.008-0.092,1.525-0.15c0.704-0.081,1.413-0.163,2.153,0.868
	c-1.863,0.011-3.133,1.633-4.971,0.575c-0.353-0.203-1.061,0.243-1.611,0.348c-0.613,0.117-1.335,0.425-1.831,0.218
	c-0.938-0.39-1.59-0.172-2.355,0.347C66.787,76.519,66.611,76.462,64.897,74.919"/>
<path fill="none" stroke="#231F20" stroke-miterlimit="10" d="M64.897,74.919c1.654-0.115,2.896-0.406,3.821-1.458
	c0.148-0.167,0.554-0.325,0.708-0.242c1.921,1.043,3.904-0.94,5.85,0.146c0.366,0.205,1.008-0.092,1.525-0.15
	c0.704-0.081,1.413-0.163,2.153,0.868c-1.863,0.011-3.133,1.633-4.971,0.575c-0.353-0.203-1.061,0.243-1.611,0.348
	c-0.613,0.117-1.335,0.425-1.831,0.218c-0.938-0.39-1.59-0.172-2.355,0.347C66.787,76.519,66.611,76.462,64.897,74.919z"/>
<path fill="#231F20" d="M48.396,75.277c-2.698,1.656-2.763,1.661-4.087,0.402c1.119-0.513,2.261-1.043,3.406-1.565
	c0.118-0.055,0.265-0.144,0.37-0.114c2.569,0.706,5.02-0.923,7.577-0.388c0.446,0.096,0.95,0.127,1.305,0.367
	c0.262,0.178,0.325,0.646,0.626,1.322c-1.334-0.306-2.22-0.502-3.155,0.12c-0.394,0.261-1.266-0.196-2.177-0.375
	C51.187,75.497,49.968,77.279,48.396,75.277"/>
<path fill="none" stroke="#231F20" stroke-miterlimit="10" d="M48.396,75.277c-2.698,1.656-2.763,1.661-4.087,0.402
	c1.119-0.513,2.261-1.043,3.406-1.565c0.118-0.055,0.265-0.144,0.37-0.114c2.569,0.706,5.02-0.923,7.577-0.388
	c0.446,0.096,0.95,0.127,1.305,0.367c0.262,0.178,0.325,0.646,0.626,1.322c-1.334-0.306-2.22-0.502-3.155,0.12
	c-0.394,0.261-1.266-0.196-2.177-0.375C51.187,75.497,49.968,77.279,48.396,75.277z"/>
<path fill="#231F20" d="M78.027,39.849c0.371-0.204,0.638-0.484,0.9-0.479c4.918,0.097,9.834,0.21,14.751,0.373
	c0.677,0.023,1.346,0.323,1.947,0.477c0,0.293,0.014,0.358-0.005,0.415c-0.017,0.058-0.056,0.146-0.099,0.153
	c-0.378,0.064-0.76,0.17-1.139,0.158c-5.306-0.178-10.615-0.369-15.919-0.571C78.382,40.373,78.304,40.192,78.027,39.849"/>
<path fill="none" stroke="#231F20" stroke-miterlimit="10" d="M78.027,39.849c0.371-0.204,0.638-0.484,0.9-0.479
	c4.918,0.097,9.834,0.21,14.751,0.373c0.677,0.023,1.346,0.323,1.947,0.477c0,0.293,0.014,0.358-0.005,0.415
	c-0.017,0.058-0.056,0.146-0.099,0.153c-0.378,0.064-0.76,0.17-1.139,0.158c-5.306-0.178-10.615-0.369-15.919-0.571
	C78.382,40.373,78.304,40.192,78.027,39.849z"/>
<path fill="#231F20" d="M78.413,49.108c0.59-0.375,0.807-0.633,0.996-0.616c5.223,0.502,10.474-0.497,15.924,0.03
	c-0.591,1.109-1.372,0.992-2.028,0.99C88.483,49.5,83.618,50.588,78.413,49.108"/>
<path fill="none" stroke="#231F20" stroke-miterlimit="10" d="M78.413,49.108c0.59-0.375,0.807-0.633,0.996-0.616
	c5.223,0.502,10.474-0.497,15.924,0.03c-0.591,1.109-1.372,0.992-2.028,0.99C88.483,49.5,83.618,50.588,78.413,49.108z"/>
<path fill="#231F20" d="M78.673,42.916c5.211-1.154,10.47-0.412,15.931-0.407c-0.392,1.19-1.104,1.258-1.793,1.251
	c-1.439-0.015-2.878-0.124-4.315-0.13c-2.554-0.011-5.11,0.038-7.663,0.03c-0.733-0.002-1.463-0.115-2.195-0.175
	C78.647,43.295,78.662,43.105,78.673,42.916"/>
<path fill="none" stroke="#231F20" stroke-miterlimit="10" d="M78.673,42.916c5.211-1.154,10.47-0.412,15.931-0.407
	c-0.392,1.19-1.104,1.258-1.793,1.251c-1.439-0.015-2.878-0.124-4.315-0.13c-2.554-0.011-5.11,0.038-7.663,0.03
	c-0.733-0.002-1.463-0.115-2.195-0.175C78.647,43.295,78.662,43.105,78.673,42.916z"/>
<path fill="#231F20" d="M57.107,71.686c-0.5-0.391-0.931-0.728-1.41-1.101c-0.435,0.288-0.817,0.524-1.187,0.782
	c-0.539,0.38-1.082,0.485-1.613,0.016c-0.761-0.674-1.412-0.469-2.053,0.19c-0.897,0.925-1.879,1.178-2.948,0.273
	c-0.726-0.614-1.382-0.541-2.113,0.038c-0.359,0.286-0.87,0.378-1.519,0.642c1.069-2.499,2.272-2.846,5.082-1.653
	c1.188-1.072,2.54-1.625,4.242-0.95c0.424,0.167,1.083-0.381,1.628-0.371c0.608,0.009,1.286,0.156,1.796,0.467
	C57.58,70.362,57.559,70.985,57.107,71.686"/>
<path fill="none" stroke="#231F20" stroke-miterlimit="10" d="M57.107,71.686c-0.5-0.391-0.931-0.728-1.41-1.101
	c-0.435,0.288-0.817,0.524-1.187,0.782c-0.539,0.38-1.082,0.485-1.613,0.016c-0.761-0.674-1.412-0.469-2.053,0.19
	c-0.897,0.925-1.879,1.178-2.948,0.273c-0.726-0.614-1.382-0.541-2.113,0.038c-0.359,0.286-0.87,0.378-1.519,0.642
	c1.069-2.499,2.272-2.846,5.082-1.653c1.188-1.072,2.54-1.625,4.242-0.95c0.424,0.167,1.083-0.381,1.628-0.371
	c0.608,0.009,1.286,0.156,1.796,0.467C57.58,70.362,57.559,70.985,57.107,71.686z"/>
<path fill="#231F20" d="M42.313,79.766c-0.211-0.032-0.423-0.064-0.633-0.106c-0.008-0.002-0.008-0.157,0.009-0.162
	c0.207-0.053,0.419-0.094,0.63-0.14C42.317,79.493,42.315,79.632,42.313,79.766"/>
<path fill="none" stroke="#231F20" stroke-miterlimit="10" d="M42.313,79.766c-0.211-0.032-0.423-0.064-0.633-0.106
	c-0.008-0.002-0.008-0.157,0.009-0.162c0.207-0.053,0.419-0.094,0.63-0.14C42.317,79.493,42.315,79.632,42.313,79.766z"/>
<path fill="#00ADDD" d="M50.441,33.783c-0.776,1.576-0.529,2.815,0.52,4.077c0.396,0.477,0.155,1.491,0.186,2.26
	c0.056,1.365-0.012,2.744,0.173,4.088c0.168,1.213,0.806,2.237,2.11,2.597c0.838,0.232,1.103,0.854,1.216,1.609
	c0.146,0.981-0.082,1.371-1.09,1.43c-1.635,0.097-3.277,0.055-4.917,0.104c-1.504,0.045-3.01,0.117-4.512,0.211
	c-1.375,0.087-1.673-0.101-1.743-1.441c-0.055-1.044,0.01-2.098,0.02-3.147c0.03-3.398,0.079-6.798,0.079-10.197
	c0-1.212,0.176-1.542,1.426-1.577C45.99,33.742,48.074,33.783,50.441,33.783"/>
<path fill="#FFFFFF" d="M52.382,37.81c1.432,1.1,1.432,1.1,3.488,0.699c0.521,1.025-0.019,2.019-0.13,3.017
	c-0.029,0.258-0.114,0.51-0.17,0.766c-0.144,0.628-0.496,1.418,0.272,1.738c0.467,0.196,1.149-0.121,1.947-0.239
	c-0.646-1.354-1.393-2.322-0.918-3.681c0.618-1.763,2.212-2.487,3.638-1.301c1.215,1.011,2.196,2.271,1.863,4.047
	c-0.264,1.406-0.644,2.796-0.816,4.212c-0.104,0.856,0.088,1.75,0.161,2.814c-0.152,0.049-0.499,0.268-0.836,0.256
	c-1.239-0.042-2.48-0.157-3.719-0.251c-0.649-0.05-1.139-0.33-1.262-1.018c-0.125-0.707,0-1.314,0.789-1.577
	c0.063-0.021,0.125-0.042,0.185-0.065c0.561-0.22,1.255-0.472,0.943-1.196c-0.149-0.347-0.812-0.506-1.269-0.676
	c-0.228-0.083-0.532,0.056-0.777-0.004c-3.153-0.783-3.802-0.822-3.618-4.374C52.205,39.946,52.301,38.917,52.382,37.81
	 M53.73,42.644c0.887-1.664,0.887-1.664-0.167-2.383C52.862,41.462,52.862,41.462,53.73,42.644 M59.85,42.519
	c0.968-1.202,0.968-1.202,0.137-2.235C59.004,41.438,59.004,41.438,59.85,42.519"/>
<path fill="#00ADDD" d="M65.887,35.245c0.222-1.692,0.333-1.872,1.798-1.843c1.429,0.029,2.856,0.215,4.345,0.336
	c0.107,0.47,0.256,0.834,0.269,1.204c0.127,3.855,0.233,7.71,0.341,11.564c0.017,0.589,0.04,1.181,0.008,1.769
	c-0.069,1.259-0.226,1.455-1.513,1.543c-1.009,0.071-2.027,0.016-3.315,0.016c0.41-1.332,0.581-2.454,1.084-3.398
	c0.945-1.768,1.14-3.332-0.631-4.692c0.42-1.126,0.728-2.195,0.016-3.251c-0.098-0.148-0.089-0.377-0.104-0.571
	C68.025,35.676,68.027,35.675,65.887,35.245"/>
<path fill="#FFFFFF" d="M66.407,46.053c-0.916-1.198-0.289-1.909,0.501-2.874C67.348,44.39,67.073,45.17,66.407,46.053"/>
<path fill="#FFFFFF" d="M66.979,37.514c-0.236,0.569-0.47,1.139-0.793,1.921C65.43,37.992,65.43,37.992,66.979,37.514"/>
<path fill="#FFFFFF" d="M56.809,37.107c0.078-1.723,1.293-0.353,1.734-0.913C58.262,36.959,57.729,37.225,56.809,37.107"/>
<path fill="#FFFFFF" d="M65.381,41.079c-0.163,0.269-0.305,0.552-0.493,0.804c-0.185,0.246-0.414,0.459-0.712,0.785
	C64.248,41.594,64.248,41.594,65.381,41.079"/>
<path fill="#FFFFFF" d="M64.237,45.043c-0.323-0.371-0.589-0.564-0.675-0.817c-0.044-0.13,0.233-0.37,0.366-0.56
	c0.217,0.198,0.499,0.363,0.626,0.608C64.619,44.397,64.403,44.665,64.237,45.043"/>
<path fill="#FFFFFF" d="M62.83,34.165c0.714,0.062,1.124,0.096,1.717,0.149C63.891,34.715,63.891,34.715,62.83,34.165"/>
<path fill="#FFFFFF" d="M51.113,35.595c0.404-0.047,0.808-0.097,1.212-0.147l0.04,0.321c-0.403,0.054-0.806,0.109-1.209,0.165
	C51.142,35.821,51.126,35.708,51.113,35.595"/>
<path fill="#FFFFFF" d="M66.177,48.472c0.185-0.186,0.37-0.373,0.554-0.558c0.008,0.196,0.044,0.4,0.006,0.588
	c-0.016,0.072-0.199,0.11-0.305,0.165L66.177,48.472z"/>
<path fill="#FFFFFF" d="M54.139,36.961c-0.068-0.077-0.194-0.155-0.192-0.231c0.001-0.078,0.127-0.151,0.197-0.229
	c0.07,0.077,0.195,0.155,0.193,0.23C54.336,36.81,54.211,36.885,54.139,36.961"/>
<path fill="#00ADDD" d="M87.075,56.037c0.888,0,1.723,0,2.557,0c1.892,0.001,3.784,0.024,5.673-0.003
	c1.376-0.021,2.75-0.182,4.121-0.147c1.278,0.033,1.605,0.451,1.558,1.74c-0.072,1.898-0.178,3.792-0.292,5.687
	c-0.043,0.701,0.104,1.652-0.795,1.805c-0.854,0.144-1.776-0.076-2.664-0.181c-0.15-0.019-0.336-0.234-0.405-0.402
	c-0.51-1.192-1.392-1.366-2.641-1.464c-1.341-0.105-1.887,0.624-2.606,1.446c-0.533-0.226-1.036-0.438-1.843-0.78
	c0,0.856-0.064,1.479,0.016,2.079c0.094,0.692,0.57,0.983,1.276,0.895c1.807-0.225,3.603-0.664,5.438-0.196
	c0.165,0.043,0.424-0.031,0.549-0.149c1.05-0.99,2.205-0.39,3.597-0.422c0,2.104,0.025,4.048-0.01,5.992
	c-0.024,1.341-0.193,1.464-1.437,1.6c-1.952,0.211-3.894,0.533-5.85,0.646c-1.692,0.099-3.401,0.019-5.095-0.081
	c-0.958-0.06-1.63-0.667-1.599-1.667c0.06-1.881,0.229-3.76,0.358-5.635c0.02-0.314,0.087-0.626,0.088-0.938
	C87.078,62.66,87.075,59.465,87.075,56.037 M92.493,60.865c0.576,0.297,1.075,0.554,1.785,0.92c0.546-1.769,2.029-0.307,2.988-0.923
	c-0.694-1.961-1.104-2.181-2.688-1.559c-0.281,0.111-0.695,0.254-0.898,0.132c-0.951-0.569-1.744-0.222-2.454,0.36
	c-0.564-0.404-1.046-0.75-1.528-1.091c-0.139,0.07-0.275,0.144-0.41,0.216c0.109,0.719,0.115,1.475,0.346,2.151
	c0.505,1.472,1.129,1.586,2.21,0.51C92.065,61.358,92.268,61.114,92.493,60.865 M97.908,70.287
	c-0.756-0.113-1.563-0.399-2.334-0.313c-1.742,0.195-3.462,0.566-5.186,0.884c-0.317,0.057-0.649,0.147-0.915,0.314
	c-0.197,0.121-0.449,0.425-0.412,0.588c0.065,0.268,0.292,0.581,0.539,0.703c0.264,0.133,0.638,0.125,0.949,0.082
	c2.063-0.284,4.13-0.577,6.187-0.908C97.313,71.545,97.893,71.34,97.908,70.287"/>
<path fill="#FFFFFF" d="M68.51,59.652c-0.073-1.214-0.613-2.024-2.033-2.022c-0.251,0.001-0.732-0.516-0.702-0.738
	c0.049-0.364,0.368-0.883,0.684-0.982c0.804-0.252,1.668-0.41,2.51-0.419c3.274-0.036,6.551-0.012,9.825,0.021
	c0.685,0.007,1.557-0.136,1.652,0.924c0.077,0.889-0.556,1.182-1.267,1.5c-1.591,0.712-3.151,1.496-4.683,2.327
	c-0.923,0.501-1.471,1.295-1.283,2.432c0.065,0.389,0.16,0.779,0.151,1.167c-0.024,0.981-0.454,1.33-1.524,1.351
	c-0.839,0.017-1.413-0.251-1.425-1.202c-0.01-0.653-0.025-1.312-0.036-1.966C70.347,60.17,70.347,60.17,68.51,59.652"/>
<path fill="#FFFFFF" d="M67.229,64.806c1.356-1.216,0.044-3.104,2.044-3.661c0.043,0.754,0.161,1.389,0.102,2.006
	c-0.2,2.133-0.643,2.175-2.693,2.023c-0.361-0.025-0.94-0.598-0.973-0.956c-0.12-1.363-0.106-2.745-0.025-4.109
	c0.018-0.32,0.5-0.613,0.768-0.918c0.23,0.348,0.609,0.673,0.658,1.041c0.094,0.705-0.022,1.434-0.012,2.154
	C67.108,63.068,67.169,63.752,67.229,64.806"/>
<path fill="#FFFFFF" d="M77.379,64.688c0.174-1.524,0.284-2.936,0.506-4.327c0.154-0.969,0.371-1.046,2.087-1.111
	c-0.01,1.657-0.083,3.307-0.528,4.895C79.202,64.993,78.403,64.976,77.379,64.688"/>
<path fill="#FFFFFF" d="M76.344,60.976c0.444,1.076,0.184,2.133-0.209,3.159c-0.093,0.243-0.436,0.538-0.669,0.543
	c-0.226,0.007-0.563-0.283-0.671-0.523c-0.181-0.402-0.247-0.867-0.315-1.312C74.26,61.392,74.564,61.084,76.344,60.976"/>
<path fill="#00ADDD" d="M43.391,67.058c-0.875-3.802-0.573-7.273-0.582-10.727c-0.002-0.704,0.37-1.104,1.073-1.141
	c0.653-0.038,1.31-0.05,1.963-0.044c4.375,0.041,8.748,0.085,13.121,0.137c0.118,0.003,0.235,0.101,0.573,0.255
	c0.034,0.579,0.141,1.273,0.103,1.961c-0.125,2.221-0.337,4.438-0.44,6.661c-0.046,0.998-0.409,1.613-1.419,1.794
	c-0.387,0.068-0.763,0.23-1.151,0.255C52.27,66.499,47.902,66.772,43.391,67.058 M49.106,63.499
	c-0.046,1.75,0.921,2.473,2.236,1.678c0.798-0.48,1.486-1.273,1.998-2.072c0.748-1.172,0.356-2.681-0.623-3.066
	c-1.135-0.448-2.817,0.323-3.198,1.522C49.304,62.244,49.215,62.969,49.106,63.499 M55.857,57.458
	c-2.654-0.152-5.177-0.298-7.701-0.429c-0.323-0.018-0.701-0.045-0.966,0.096c-0.3,0.16-0.501,0.506-0.744,0.77
	c0.281,0.223,0.547,0.617,0.844,0.641c2.284,0.182,4.574,0.317,6.865,0.404C54.867,58.967,55.635,58.88,55.857,57.458"/>
<path fill="#231F20" d="M53.73,42.644c-0.868-1.182-0.868-1.182-0.167-2.383C54.617,40.98,54.617,40.98,53.73,42.644"/>
<path fill="none" stroke="#231F20" stroke-miterlimit="10" d="M53.73,42.644c-0.868-1.182-0.868-1.182-0.167-2.383
	C54.617,40.98,54.617,40.98,53.73,42.644z"/>
<path fill="#231F20" d="M59.85,42.519c-0.846-1.081-0.846-1.081,0.137-2.235C60.818,41.317,60.818,41.317,59.85,42.519"/>
<path fill="none" stroke="#231F20" stroke-miterlimit="10" d="M59.85,42.519c-0.846-1.081-0.846-1.081,0.137-2.235
	C60.818,41.317,60.818,41.317,59.85,42.519z"/>
<path fill="#231F20" d="M92.493,60.864c-0.227,0.25-0.428,0.494-0.649,0.718c-1.082,1.075-1.705,0.962-2.211-0.51
	c-0.231-0.677-0.235-1.433-0.347-2.151c0.136-0.073,0.273-0.146,0.411-0.218c0.482,0.343,0.964,0.688,1.528,1.093
	c0.711-0.582,1.502-0.93,2.454-0.36c0.203,0.122,0.618-0.021,0.898-0.132c1.584-0.622,1.993-0.402,2.688,1.56
	c-0.959,0.616-2.442-0.847-2.988,0.923C93.568,61.419,93.069,61.162,92.493,60.864"/>
<path fill="none" stroke="#231F20" stroke-miterlimit="10" d="M92.493,60.864c-0.227,0.25-0.428,0.494-0.649,0.718
	c-1.082,1.075-1.705,0.962-2.211-0.51c-0.231-0.677-0.235-1.433-0.347-2.151c0.136-0.073,0.273-0.146,0.411-0.218
	c0.482,0.343,0.964,0.688,1.528,1.093c0.711-0.582,1.502-0.93,2.454-0.36c0.203,0.122,0.618-0.021,0.898-0.132
	c1.584-0.622,1.993-0.402,2.688,1.56c-0.959,0.616-2.442-0.847-2.988,0.923C93.568,61.419,93.069,61.162,92.493,60.864z"/>
<path fill="#231F20" d="M97.908,70.287c-0.016,1.053-0.595,1.258-1.172,1.35c-2.057,0.331-4.123,0.624-6.187,0.908
	c-0.312,0.043-0.686,0.051-0.949-0.082c-0.247-0.122-0.474-0.436-0.539-0.703c-0.037-0.163,0.215-0.467,0.412-0.588
	c0.266-0.167,0.598-0.258,0.915-0.314c1.724-0.317,3.443-0.688,5.186-0.884C96.345,69.888,97.152,70.174,97.908,70.287"/>
<path fill="none" stroke="#231F20" stroke-miterlimit="10" d="M97.908,70.287c-0.016,1.053-0.595,1.258-1.172,1.35
	c-2.057,0.331-4.123,0.624-6.187,0.908c-0.312,0.043-0.686,0.051-0.949-0.082c-0.247-0.122-0.474-0.436-0.539-0.703
	c-0.037-0.163,0.215-0.467,0.412-0.588c0.266-0.167,0.598-0.258,0.915-0.314c1.724-0.317,3.443-0.688,5.186-0.884
	C96.345,69.888,97.152,70.174,97.908,70.287z"/>
<path fill="#231F20" d="M49.106,63.499c0.108-0.53,0.197-1.255,0.414-1.938c0.381-1.199,2.062-1.971,3.197-1.523
	c0.979,0.385,1.371,1.895,0.623,3.066c-0.512,0.798-1.199,1.591-1.998,2.072C50.027,65.971,49.06,65.251,49.106,63.499
	 M52.328,62.951c-0.447-0.354-0.705-0.701-0.872-0.66c-0.31,0.073-0.628,0.326-0.814,0.598c-0.062,0.089,0.314,0.671,0.414,0.651
	C51.422,63.466,51.758,63.232,52.328,62.951"/>
<path fill="none" stroke="#231F20" stroke-miterlimit="10" d="M49.106,63.499c0.108-0.53,0.197-1.255,0.414-1.938
	c0.381-1.199,2.062-1.971,3.197-1.523c0.979,0.385,1.371,1.895,0.623,3.066c-0.512,0.798-1.199,1.591-1.998,2.072
	C50.027,65.971,49.06,65.251,49.106,63.499z M52.328,62.951c-0.447-0.354-0.705-0.701-0.872-0.66
	c-0.31,0.073-0.628,0.326-0.814,0.598c-0.062,0.089,0.314,0.671,0.414,0.651C51.422,63.466,51.758,63.232,52.328,62.951z"/>
<path fill="#231F20" d="M55.857,57.458c-0.222,1.422-0.99,1.509-1.702,1.481c-2.291-0.087-4.581-0.223-6.865-0.404
	c-0.297-0.023-0.563-0.418-0.844-0.641c0.243-0.264,0.444-0.61,0.744-0.77c0.265-0.141,0.643-0.113,0.966-0.096
	C50.68,57.16,53.203,57.306,55.857,57.458"/>
<path fill="none" stroke="#231F20" stroke-miterlimit="10" d="M55.857,57.458c-0.222,1.422-0.99,1.509-1.702,1.481
	c-2.291-0.087-4.581-0.223-6.865-0.404c-0.297-0.023-0.563-0.418-0.844-0.641c0.243-0.264,0.444-0.61,0.744-0.77
	c0.265-0.141,0.643-0.113,0.966-0.096C50.68,57.16,53.203,57.306,55.857,57.458z"/>
<path fill="#FFFFFF" d="M52.328,62.951c-0.57,0.281-0.906,0.515-1.272,0.589c-0.1,0.02-0.476-0.562-0.414-0.651
	c0.186-0.271,0.505-0.524,0.814-0.598C51.624,62.25,51.881,62.598,52.328,62.951"/>
</svg>
