<?xml version="1.0" encoding="utf-8"?>
<!-- Generator: Adobe Illustrator 15.1.0, SVG Export Plug-In . SVG Version: 6.00 Build 0)  -->
<!DOCTYPE svg PUBLIC "-//W3C//DTD SVG 1.1//EN" "http://www.w3.org/Graphics/SVG/1.1/DTD/svg11.dtd">
<svg version="1.1" id="Layer_1" xmlns="http://www.w3.org/2000/svg" x="0px" y="0px"
	 width="1224px" height="477.898px" viewBox="-245 -67.398 1224 477.898"
	 xml:space="preserve">
<path fill="#00ADDD" d="M-17.875,177.958c2.37-1.287,0.261-4.923-2.111-3.636c-1.192,0.647-2.139,1.498-2.862,2.504
	c-0.786-0.458-1.766-0.612-2.786-0.335c-1.066,0.292-1.795,1.503-1.461,2.589c0.271,0.878,0.468,1.743,0.673,2.617
	c-3.633,3.906,0.005,15.336,0.956,19.062c0.209,0.815,0.978,1.43,1.803,1.526c0.134,0.271,0.268,0.542,0.424,0.813
	c0.785,1.358,2.833,1.375,3.613,0c1.001-1.762,1.508-3.563,1.551-5.354c0.292-0.769,0.481-1.602,0.55-2.5
	C-17.161,190.473-23.46,180.985-17.875,177.958"/>
<path fill="#00ADDD" d="M-16.955,344.635c-3.169-10.664-2.371-23.49-2.598-34.529c-0.226-11.026-0.124-22.053-0.005-33.076
	c0.236-21.694,0.511-43.389,0.764-65.081c0.096-8.131-12.455-8.136-12.551,0c-0.271,23.071-0.582,46.143-0.807,69.215
	c-0.107,11.026-0.161,22.051,0.146,33.073c0.305,10.932-0.19,23.196,2.948,33.755C-26.75,355.757-14.633,352.45-16.955,344.635"/>
<path fill="#00ADDD" d="M45.97,357.76c-0.435-5.363-8.806-5.406-8.367,0c1.312,16.132,2.642,32.266,3.989,48.391
	c0.447,5.361,8.818,5.406,8.366,0C48.612,390.025,47.284,373.892,45.97,357.76"/>
<path fill="#00ADDD" d="M128.748,324.535l-0.89-4.764c-0.403-2.171-3.12-3.6-5.146-2.942c-2.304,0.751-3.355,2.857-2.923,5.181
	l0.89,4.764c0.405,2.169,3.121,3.601,5.147,2.942C128.131,328.962,129.182,326.857,128.748,324.535"/>
<path fill="#00ADDD" d="M362.588,318.766c0.041-5.255-6.237-6.42-9.079-3.509c-1.721,0.678-3.056,2.224-3.026,4.665
	c0.256,19.628,0.512,39.258,0.767,58.887c0.122,9.34-4.198,29.543,7.673,33.512c3.067,1.022,6.868-1.757,6.622-5.079
	C363.354,377.791,362.367,348.297,362.588,318.766"/>
<path fill="#00ADDD" d="M417.98,352.516c-0.23-4.404-0.455-8.81-0.684-13.216c-0.044-0.83-0.35-1.481-0.796-1.971
	c-0.142-1.444-0.283-2.889-0.422-4.332c-0.392-4.008-6.673-4.052-6.276,0c0.636,6.508,1.27,13.014,1.903,19.519l1.364,26.293
	c0.376,7.287-1.53,18.351,4.229,23.881c1.804,1.729,5.638,0.634,5.357-2.235C421.095,384.48,419.538,368.498,417.98,352.516"/>
<path fill="#00ADDD" d="M545.443,369.65c-0.278-11.504-0.367-23.038-1.343-34.511c-1.052-12.374-3.37-24.459,0.512-36.584
	c2.113-6.594-6.319-9.954-10.411-6.069c-3.148-0.073-6.096,0.203-9.235,0.663c-2.674,0.387-4.61,3.57-4.606,6.088
	c0.002,0.66,0.002,1.319,0.003,1.978c-0.9,2.755-0.884,5.714,0.236,9.008c0.194,0.574,0.467,1.07,0.771,1.529
	c-1.395,19.875-2.231,39.804-0.032,59.663c1.25,11.265,3.112,22.582,6.104,33.52c1.615,5.894,4.338,13.083,11.622,12.188
	c6.186-0.765,7.197-5.967,7.262-11.341C546.466,393.76,545.736,381.667,545.443,369.65"/>
<path fill="#00ADDD" d="M660.068,302.985c-0.077-8.123-12.63-8.145-12.551,0c0.349,36.667,0.695,73.333,1.042,110
	c0.077,8.122,12.629,8.145,12.551,0C660.764,376.318,660.416,339.652,660.068,302.985"/>
<path fill="#00ADDD" d="M772.09,292.354c-1.575-5.21-7.548-5.412-10.591-2.629c-3.749-2.396-10.708,1.016-9.888,7.138
	c1.845,13.758,3.603,27.603,3.204,41.512c-0.353,12.308-1.915,24.544-2.261,36.861c-0.563,20.158-1.791,42.644,11.355,59.249
	c3.701,4.671,10.373,0.4,10.714-4.465c1.664-23.743,2.034-47.528,1.853-71.328C776.312,337.049,778.415,313.292,772.09,292.354"/>
<path fill="#00ADDD" d="M934.61,353.538c0.878-0.834,1.383-2.082,1.201-3.752c-1.332-12.273-1.458-24.5-0.379-36.798
	c0.59-6.744-9.871-6.705-10.459,0c-1.08,12.298-0.952,24.526,0.38,36.798c0.109,1.019,0.466,1.86,0.953,2.567
	c-0.002,0.04-0.017,0.081-0.02,0.117c-0.978,18.819-0.566,37.555,1.238,56.308c0.514,5.344,8.886,5.397,8.365,0
	C934.122,390.378,933.702,371.996,934.61,353.538"/>
<path fill="#00ADDD" d="M847.348,416.621c-1.82-4.463-2.283-9.171-2.349-13.955c0.055-0.228,0.114-0.448,0.163-0.675
	c1.262-5.788,0.84-11.233-0.216-16.947c2.015-3.076,0.652-8.376-4.138-8.376c-0.442,0-0.851,0.05-1.231,0.132
	c-2.934-2.124-8.396-0.766-8.634,4.089c-0.385,7.818-0.018,15.48,0.953,23.248c0.091,0.715,0.335,1.915,0.654,3.393
	c-2.012,8.55-3.752,16.967,1.126,25.457c1.676,2.92,5.856,3.48,8.213,1.068c3.484-3.57,3.839-7.496,3.356-11.767
	C847.209,421.328,848.443,419.305,847.348,416.621"/>
<path fill="#00ADDD" d="M708.214,377.214c-1.256,14.355-1.881,28.725-1.874,43.13c0.003,6.773,10.462,6.783,10.458,0
	c-0.006-14.409,0.618-28.774,1.875-43.13C719.263,370.469,708.801,370.509,708.214,377.214"/>
<path fill="#231F20" d="M125.614,347.454c0.341,1.972,0.931,3.938,0.972,5.917c0.139,6.895,0.051,13.793,0.131,20.689
	c0.03,2.688,0.292,5.375,0.42,8.063c0.113,2.35,0.27,4.699,0.244,7.052c-0.019,1.52-0.248,3.309-2.194,3.426
	c-1.999,0.124-2.873-1.422-3.271-3.198c-0.146-0.653-0.147-1.346-0.321-1.993c-0.608-2.273-1.258-4.534-1.904-6.796
	c-0.719-2.521-2.25-3.578-4.906-2.908c-2.43,0.616-4.921,0.994-7.351,1.622c-6.252,1.621-12.544,1.658-18.899,0.758
	c-4.541-0.643-5.478,0.415-4.785,4.889c0.487,3.152,0.99,6.312,1.244,9.486c0.212,2.663-0.504,4.983-3.935,5.932
	c-0.303-1.007-0.678-1.863-0.812-2.754c-1.412-9.312-2.703-18.654-4.2-27.953c-0.774-4.804-1.157-4.986-5.882-4.527
	c-6.482,0.637-12.946,1.41-19.61,4.17c0.43,5.819,0.87,11.623,1.28,17.431c0.238,3.355,0.466,6.714,0.605,10.069
	c0.041,0.99,0.062,2.196-0.443,2.933c-0.58,0.846-1.779,1.781-2.661,1.734c-0.693-0.035-1.788-1.46-1.877-2.356
	c-0.475-4.682-0.701-9.389-0.982-14.091c-0.211-3.528-0.324-7.062-0.592-10.584c-0.088-1.156-0.326-2.4-0.868-3.398
	c-0.407-0.747-1.723-1.787-2.084-1.606c-0.843,0.427-1.913,1.524-1.901,2.337c0.043,3.355,0.572,6.704,0.702,10.063
	c0.193,5.037,0.314,10.083,0.241,15.122c-0.035,2.404-0.673,4.729-4.435,4.565c-0.288-2.712-0.679-5.327-0.819-7.961
	c-0.29-5.371-0.327-10.755-0.692-16.116c-0.304-4.46-1.558-5.273-5.829-4.237c-1.134,0.272-2.239,0.68-3.338,1.079
	c-1.793,0.646-2.767,1.803-2.33,3.852c0.699,3.272,1.533,6.53,2.006,9.842c0.948,6.645,1.77,13.312,2.48,19.989
	c0.283,2.655-1.33,3.955-4.554,4.296c-2.159-6.706-1.186-13.852-2.576-20.628c-1.382-6.747-2.363-13.578-3.44-20.386
	c-1.097-6.94-2.097-13.894-3.195-21.218c-5.192,0-10.966-0.167-16.727,0.063c-3.491,0.14-6.948,1.001-10.436,1.373
	c-12.793,1.367-25.604,2.562-38.382,4.05c-3.943,0.457-7.854,1.475-11.688,2.552c-3.917,1.104-4.202,1.756-4,5.74
	c0.195,3.861,0.462,7.722,0.588,11.586c0.415,12.777,0.784,25.559,1.166,38.337c0.03,1.013,0.108,2.026,0.032,3.026
	c-0.204,2.693-1.642,3.829-4.715,3.417c-0.39-3.018-1.006-5.974-1.117-8.951c-0.44-11.75-0.7-23.512-1.068-35.264
	c-0.341-10.922-0.708-21.842-1.114-32.762c-0.185-4.958-0.823-5.478-5.707-5.002c-4.492,0.448-8.99,0.87-13.472,1.404
	c-2.12,0.256-4.21,0.755-6.379,1.159c0,4.528-0.193,8.677,0.055,12.796c0.229,3.852,0.9,7.673,1.428,11.502
	c0.136,0.985,0.166,2.225,0.754,2.872c3.743,4.117,3.468,9.375,4.002,14.308c1.048,9.689,1.736,19.421,2.57,29.135
	c0.072,0.837,0.472,1.888,0.117,2.463c-0.716,1.161-1.695,2.631-2.844,2.945c-1.897,0.522-2.491-1.166-2.584-2.83
	c-0.48-8.558-0.926-17.114-1.422-25.672c-0.251-4.302-0.288-8.658-2.417-12.811c-4.323,1.441-6.481,3.888-6.262,8.553
	c0.57,12.093,0.879,24.2,1.298,36.305c0.029,0.838,0.358,1.781,0.078,2.484c-0.326,0.82-1.15,1.975-1.794,1.997
	c-0.956,0.037-2.375-0.545-2.809-1.315c-0.612-1.09-0.634-2.583-0.681-3.912c-0.375-10.416-0.7-20.835-1.032-31.253
	c-0.022-0.671,0.045-1.349,0.023-2.021c-0.163-4.831-1.056-5.595-5.74-5.071c-1.422,0.16-2.861,0.16-4.232,0.23
	c-0.518-4.321-0.825-8.136-1.468-11.889c-0.684-4-1.399-4.553-5.313-4.24c-9.989,0.812-19.963,1.814-29.955,2.598
	c-4.993,0.388-10.008,0.463-15.014,0.697c-1.334,0.06-2.685,0.06-4.002,0.259c-3.252,0.508-4.216,1.278-4.335,4.482
	c-0.198,5.374-0.141,10.767-0.017,16.146c0.224,9.75,0.596,19.496,0.846,29.247c0.023,0.972-0.102,2.158-0.644,2.877
	c-0.496,0.663-1.656,1.099-2.514,1.089c-0.562-0.006-1.26-0.907-1.617-1.563c-0.296-0.545-0.22-1.312-0.246-1.979
	c-0.491-12.608-1.031-25.219-1.421-37.834c-0.125-4.031,0.276-8.074,0.208-12.107c-0.071-4.206,1.938-6.981,5.387-8.974
	c4.063-2.341,8.2-4.562,12.143-7.09c3.201-2.059,3.102-2.575,2.096-6.296c-0.585-2.157-2.918-4.464-1.046-6.562
	c1.954-2.193,4.254-0.247,6.36,0.675c0.695,0.305,1.644,0.146,2.456,0.038c6.127-0.812,12.25-1.657,18.372-2.504
	c4.065-0.565,4.246-0.754,4.612-4.517c0.69-7.035,2.043-9.139,8.99-10.658c5.681-1.245,11.578-1.527,17.393-2.094
	c10.14-0.985,20.292-1.87,30.441-2.766c4.94-0.436,7.57,2.146,8.14,7.217c0.706,6.297,1.808,12.543,2.677,18.82
	c0.252,1.825,0.301,3.682,0.428,5.526c0.291,4.188,1.212,4.911,5.42,4.114c1.312-0.253,2.576-0.774,3.889-0.995
	c5.59-0.952,11.186-1.854,16.786-2.737c1.942-0.308,3.896-0.514,5.917-0.771c0-4.764,0.081-9.097-0.018-13.428
	c-0.15-6.553-0.43-13.101-0.646-19.653c-0.253-7.734-0.608-15.462-0.71-23.198c-0.078-5.874,0.165-11.76,0.273-17.637
	c0.165-8.75,0.298-17.498,0.529-26.245c0.083-3.187,0.547-6.37,0.586-9.555c0.056-4.527-0.063-9.061-0.213-13.582
	c-0.18-5.381-0.479-10.755-0.708-16.127c-0.077-1.816,0.401-3.478,2.277-4.062c3.028-0.946,2.922-3.321,2.809-5.71
	c-0.299-6.381-0.656-12.761-0.982-19.145c-0.042-0.842-0.002-1.686-0.066-2.525c-0.243-3.188,1.412-4.887,4.205-6.067
	c6.541-2.77,6.491-2.905,5.537-10.09c-0.353-2.659-0.639-5.376-0.47-8.037c0.098-1.542,0.751-3.601,1.877-4.397
	c2.109-1.501,2.392-3.44,2.745-5.617c1.357-8.354,3.761-16.324,8.272-23.594c2.91-4.69,4.124-9.783,3.236-15.438
	c-0.572-3.632-0.323-7.389-0.515-11.086c-0.114-2.222,0.2-4.032,3.467-4.338c0.27,1.481,0.68,2.884,0.754,4.305
	c0.169,3.19,0.147,6.395,0.249,9.59c0.084,2.679,0.702,5.099,1.793,7.677c1.393,3.283,1.644,7.172,1.845,10.828
	c0.291,5.203,0.022,10.436,0.139,15.653c0.035,1.646,0.03,3.653,0.91,4.848c4.175,5.662,4.335,12.218,4.699,18.775
	c0.057,0.994,0.155,1.992,0.313,2.972c0.047,0.298,0.365,0.544,0.56,0.816c0.148,0.079,0.29,0.222,0.443,0.235
	c8.513,0.744,8.545,0.74,9.105,9.615c0.444,7.045,0.706,14.105,1.246,21.139c0.147,1.933,1.103,3.786,1.525,5.711
	c0.825,3.766,1.859,7.52,2.223,11.336c0.64,6.692,0.987,13.424,1.19,20.145c0.389,12.944,0.854,25.896,0.82,38.849
	c-0.061,24.734-0.469,49.472-0.691,74.209c-0.056,6.229-0.014,12.461,0.105,18.689c0.07,3.852,0.955,4.505,4.569,3.732
	c1.306-0.278,2.607-0.619,3.878-1.038c3.602-1.191,7.188-2.437,11.277-3.831c0.806-3.244,0.164-6.932-1.032-10.917
	c-0.495,0.653-1.326,1.259-1.424,1.97c-0.321,2.324-0.223,4.711-0.625,7.016c-0.125,0.71-1.326,1.698-2.04,1.704
	c-0.662,0.005-1.792-1.057-1.913-1.787c-0.417-2.473-0.761-5.028-0.564-7.504c0.101-1.257,1.146-2.93,2.239-3.512
	c2.778-1.483,3.568-3.603,3.56-6.574c-0.024-8.616,0.016-8.741,8.019-11.12c3.823-1.139,7.795-1.823,11.74-2.467
	c3.755-0.612,5.224,0.62,5.466,4.392c0.14,2.175-0.116,4.376-0.037,6.56c0.041,1.131,0.42,2.25,0.667,3.48
	c1.768,0.384,3.353,0.722,4.902,1.059c-0.197,3.427-0.381,6.645-0.563,9.842c6.06,0.506,6.601,1.167,6.979,6.725
	c0.181,2.669,0.712,5.318,1.08,7.98c0.287,2.088,1.581,3.25,3.496,3.837c6.612,2.031,26.054-0.033,33.117-3.592
	c0.238-3.609-1.474-6.699-2.939-9.88c-1.049-2.273-2.139-4.56-2.875-6.948c-0.753-2.437-0.389-4.701,2.337-5.889
	c2.961-1.295,3.033-3.635,2.311-6.341c-0.737-2.761-1.302-5.568-2.026-8.335c-0.599-2.285-0.128-4.1,2.228-4.862
	c3.026-0.983,3.297-3.028,2.333-5.556c-1.898-4.962-0.131-8.519,4.19-10.972c2.72-1.545,3.051-3.635,2.239-6.391
	c-1.57-5.322-3.058-10.672-4.462-16.04c-0.395-1.511-1.424-3.202,0.571-4.923c2.62,1.538,2.291,4.473,3.069,6.824
	c0.894,2.709,1.784,5.422,2.594,8.157c0.752,2.543,1.398,5.122,2.229,8.193c2.599-0.82,4.786-1.474,6.943-2.214
	c1.42-0.486,2.762-1.234,4.205-1.607c3.01-0.772,4.717-0.012,5.328,2.892c1.553,7.38,2.923,14.798,4.141,22.24
	c0.504,3.071-0.238,6.362,3.557,8.181c0.984,0.47,1.107,2.963,1.443,4.56c1.207,5.749,2.308,11.518,3.523,17.259
	c0.163,0.769,0.751,1.448,1.35,2.55c3.364-1.282,6.598-2.562,9.864-3.747c3.224-1.162,4.417-1.073,5.651,2.056
	c1.705,4.325,3.096,8.907,3.706,13.502c1.126,8.474,0.846,8.471,9.499,7.857c3.668-0.26,7.373-0.102,11.028-0.483
	c6.105-0.633,9.726,2.641,12.466,7.503c0.727,1.29,1.355,2.637,2.166,4.229c3.959-0.761,7.703-1.472,11.444-2.201
	c2.415-0.468,2.64-2.173,2.382-4.216c-0.442-3.504-0.92-7.01-1.201-10.53c-0.501-6.323,1.574-8.525,7.926-8.908
	c2.291-0.138,4.561-0.634,6.842-0.954c0.479-0.068,1.11-0.318,1.426-0.107c5.312,3.521,10.628,0.777,15.923,0.033
	c1.952-0.276,3.861-0.833,5.801-1.27c0-4.191-0.027-8.013,0.007-11.835c0.045-5.118,1.406-6.19,6.437-7.566
	c4.805-1.306,9.406-3.403,14.042-5.285c3.212-1.301,6.332-2.824,9.886-4.421c2.237,4.418,2.268,8.646,2.807,12.72
	c0.523,3.949,0.742,7.938,1.137,12.373c1.896-0.119,3.337-0.241,4.778-0.305c3.507-0.155,7.015-0.431,10.519-0.387
	c4.118,0.044,4.932,0.536,5.879,4.713c1.107,4.894,1.682,9.91,2.475,14.867c0.329,2.072,0.624,4.144,1.02,6.789
	c2.309-0.736,3.917-1.093,5.397-1.744c5.52-2.424,10.948-5.055,16.509-7.372c2.728-1.134,3.858-2.97,3.881-5.792
	c0.086-11.772,0.317-23.548,0.236-35.32c-0.025-3.498-0.884-6.993-1.376-10.487c-0.248-1.754-1.065-3.569,0.629-5.335
	c3.269,1.107,3.556,3.911,3.699,6.49c0.455,8.217,0.859,16.451,0.982,24.684c0.138,9.24,0.016,18.485-0.129,27.727
	c-0.087,5.541-0.565,11.076-0.625,16.619c-0.032,3.007,0.477,6.023,0.676,9.042c0.087,1.328,0.137,2.685-0.047,3.993
	c-0.071,0.502-0.865,1.293-1.288,1.261c-0.704-0.041-1.701-0.473-1.984-1.039c-0.507-1.021-0.776-2.251-0.799-3.404
	c-0.115-6.207-0.071-12.42-0.197-18.63c-0.039-1.939-0.438-3.881-0.734-6.336c-7.244,3.51-14.558,5.278-20.547,10.058
	c-1.894,1.515-2.277,3.123-2.011,5.25c0.525,4.172,1.053,8.345,1.503,12.523c0.136,1.266,0.02,2.561,0.02,4.003
	c-3.12-0.135-3.543-2.056-3.766-4.141c-0.358-3.34-0.677-6.689-1.078-10.022c-0.16-1.334-0.445-2.66-0.753-3.966
	c-1.585-6.774-2.277-7.399-9.175-7.087c-14.189,0.646-28.404,1.031-42.549,2.225c-15.32,1.285-30.587,3.252-45.843,5.205
	c-3.012,0.385-5.865,2.03-9.309,3.282c1.466,6.583,2.812,12.616,4.159,18.653c0.33,1.475,0.956,2.958,0.896,4.417
	c-0.04,0.919-0.971,2.363-1.73,2.53c-0.744,0.166-2.333-0.809-2.583-1.596c-1.018-3.199-1.644-6.52-2.447-9.782
	c-1.604-6.534-3.078-13.101-4.89-19.572c-1.621-5.797-3.763-7.222-9.884-7.029c-4.67,0.145-9.336,0.454-13.996,0.792
	c-3.952,0.291-4.284,0.781-4,4.633c0.198,2.682,0.48,5.378,0.346,8.052c-0.054,1.066-0.957,2.765-1.777,2.976
	c-1.793,0.46-2.663-1.127-2.844-2.734c-0.437-3.84-0.791-7.697-1.048-11.558c-0.356-5.364-0.448-10.749-0.943-16.101
	c-0.243-2.611-1.146-5.161-1.75-7.742c-4.452-0.611-7.494,1.557-10.376,3.729c-0.828,0.627-1.171,2.41-1.105,3.632
	c0.263,4.866,0.764,9.716,1.204,14.57c0.104,1.152,0.312,2.293,0.467,3.396c-3.483,1.192-4.29,1.044-4.964-1.643
	c-0.733-2.922-1.268-5.947-1.417-8.953c-0.258-5.222-0.94-10.312-2.233-15.404c-1.491-5.858-2.367-11.874-3.531-17.815
	c-0.32-1.626-0.711-3.238-1.229-5.573c-8.03,2.43-15.764,4.767-23.497,7.104c0.116-5.181-1.051-10.126-2.363-15.478
	c-1.869,0.269-3.394,0.486-5.408,0.779c0.686,2.929,1.327,5.292,1.783,7.689C120.247,344.037,121.904,346.626,125.614,347.454
	 M4.546,205.363c-0.573,0.104-1.148,0.203-1.722,0.311c0,1.756,0.019,3.514-0.005,5.269c-0.028,2.004,0.037,4.02-0.232,5.991
	c-0.074,0.55-1.175,1.323-1.814,1.331c-0.581,0.01-1.561-0.802-1.69-1.398c-0.489-2.29-0.756-4.634-1.017-6.968
	c-0.465-4.176-0.954-4.613-4.968-4.146c-1.329,0.154-2.662,0.273-3.983,0.483c-5.436,0.855-10.861,1.775-16.3,2.607
	c-2.875,0.44-3.969,2.07-3.712,4.904c0.303,3.347,0.461,6.696,0.736,10.045c0.245,3.007,0.871,6.017,0.798,9.016
	c-0.393,16.305-1.037,32.603-1.396,48.906c-0.107,4.86,0.551,9.732,0.63,14.604c0.174,10.77,0.108,21.539,0.323,32.305
	c0.114,5.705,0.61,11.4,0.937,17.1c0.064,1.113,0.146,2.226,0.213,3.224c0.648,0.191,0.979,0.403,1.282,0.363
	c10.275-1.281,20.55-2.585,30.824-3.882c2.12-0.264,2.717-1.713,2.722-3.566c0.006-3.871-0.041-7.74-0.048-11.61
	c-0.026-13.763-0.06-27.523-0.048-41.286c0.002-1.328,0.071-2.751,0.535-3.964c0.312-0.81,1.378-1.328,2.106-1.977
	c0.369,0.155,0.737,0.312,1.104,0.465c0,3.645-0.134,7.289,0.027,10.924c0.401,9.23,0.957,18.452,1.41,27.683
	c0.307,6.208,0.481,12.427,0.833,18.635c0.265,4.7,1.019,5.085,6.52,3.421c0.122-5.043,0.39-10.232,0.338-15.41
	c-0.071-7.224-0.758-14.453-0.505-21.656c0.44-12.421,1.41-24.808,0.978-37.271c-0.354-10.213,0.054-20.455-0.149-30.679
	c-0.188-9.398-0.701-18.794-1.167-28.187c-0.065-1.302-0.508-2.654-1.076-3.841c-0.869-1.807-2.746-2.319-4.25-1.479
	c-1.034,0.574-1.692,2.255-2.005,3.565c-0.197,0.819,0.69,1.852,0.86,2.831c0.624,3.602-0.348,5.428-3.715,7.081
	C5.501,214.907,8.326,209.129,4.546,205.363 M318.396,383.595c0-4.123,0.313-7.831-0.069-11.464
	c-0.707-6.731-2.401-7.953-9.174-7.128c-20.378,2.472-40.753,4.998-61.127,7.527c-1.111,0.14-2.194,0.519-3.373,0.807
	c-1.035,5.24-0.719,10.153,0.496,15.014C269.53,386.769,293.617,385.202,318.396,383.595 M-13.221,202.179
	c9.102-0.554,17.843-1.087,27.026-1.646c-0.219-3.267-0.476-6.066-0.574-8.871c-0.101-2.855,0.014-5.721-0.071-8.579
	c-0.079-2.686-0.082-5.397-0.493-8.044c-0.763-4.904-2.252-5.413-6.584-2.542c1.332,9.964,1.332,9.964-2.725,11.474
	c-2.408-3.011-0.113-7.666-3.708-11.132c0,1.661-0.058,2.588,0.012,3.507c0.147,2.009,0.568,4.027,0.452,6.015
	c-0.055,0.934-1.094,1.81-1.688,2.711c-0.732-0.746-1.849-1.375-2.115-2.261c-0.627-2.081-0.763-4.302-1.267-6.429
	c-0.231-0.976-0.858-1.861-1.307-2.785c-0.35,0.035-0.702,0.075-1.053,0.111c-0.223,1.193-0.675,2.401-0.617,3.576
	c0.094,2.011,0.548,3.995,0.779,5.995c0.243,2.113,0.005,3.997-2.792,4.686c-2.783-4.121-1.123-9.343-3.679-13.983
	c-3.245,0.705-6.53,1.183-9.631,2.218c-1.112,0.372-2.467,2.035-2.547,3.188c-0.543,8.046,0.032,16.052,1.443,23.923
	c5.852,0.562,6.205,0.254,5.642-5.095c-0.564-5.354-1.235-10.696-1.792-16.05c-0.214-2.033-0.299-4.128,2.867-4.105
	C-14.352,185.816-15.176,194.289-13.221,202.179 M-174.646,362.081c0.097,0.439,0.195,0.879,0.292,1.316
	c1.282,0.222,2.578,0.689,3.845,0.621c6.828-0.375,13.646-0.866,20.469-1.346c9.99-0.701,19.974-1.478,29.968-2.109
	c2.613-0.166,4.837-0.934,6.892-2.565c1.697-1.354,3.63-2.394,5.383-3.683c0.804-0.588,1.423-1.428,2.902-2.948
	c-11.123,0.486-21.021,1.285-30.898,2.912c-8.544,1.404-17.196,2.591-25.831,2.844
	C-166.958,357.286-170.412,360.231-174.646,362.081 M-112.88,326.581c-0.045-0.341-0.09-0.676-0.136-1.021
	c-3.923,0.543-7.914,0.794-11.744,1.722c-3.202,0.774-4.143,3.393-3.586,7.244c0.472,3.269,2.942,2.77,4.979,2.686
	c5.315-0.225,10.63-0.562,15.929-1.048c5.942-0.548,11.875-1.228,17.792-2.001c2.754-0.363,3.851-2.217,3.707-5.544
	c-0.135-3.098-1.19-4.465-4.178-4.43c-3.644,0.054-7.286,0.49-10.917,0.886C-104.991,325.501-108.932,326.073-112.88,326.581
	 M-158.391,352.254c1.965,0,3.601,0.09,5.226-0.015c15.334-0.985,30.294-5.274,45.742-5.279c1.69,0,3.547,0.188,3.675-2.281
	c0.106-2.085-1.435-3.549-3.854-3.713c-0.828-0.057-1.668,0.05-2.501,0.105c-10.989,0.761-21.99,1.402-32.963,2.352
	c-5.106,0.438-10.163,1.477-15.325,2.256V352.254z M130.148,342.39c5.106-0.888,9.294-2.921,13.534-4.706
	c0.722-0.305,1.508-1.582,1.473-2.375c-0.134-3.011-0.49-6.027-0.959-9.007c-0.344-2.189-1.819-3.347-3.981-2.593
	c-2.802,0.974-5.532,2.199-8.208,3.495c-2.441,1.183-4.318,0.646-5.025-1.958c-0.386-1.423-0.146-3.005-0.376-4.488
	c-0.159-1.026-0.638-2.002-1.368-4.163c-1.312,1.908-2.472,2.839-2.558,3.865c-0.215,2.529,0.044,5.31,2.396,6.789
	c2.181,1.37,2.552,3.302,2.96,5.479C128.617,335.822,129.373,338.89,130.148,342.39 M2.128,166.972c0-3.879,0.2-7.898-0.082-11.88
	c-0.15-2.103-0.875-4.277-1.811-6.185c-1.943-3.974-5.586-4.506-8.287-1.022c-1.196,1.548-1.77,3.993-1.719,6.012
	c0.072,2.811,1.293,5.583,1.49,8.41c0.387,5.503,0.633,7.264,8.694,5.44C0.882,167.646,1.309,167.349,2.128,166.972 M281.17,363.294
	c3.255-0.352,5.896-0.585,8.52-0.926c2.291-0.307,3.606-1.544,3.526-4.031c-0.088-2.847,0.204-5.748-0.234-8.534
	c-1.175-7.472-1.486-8.752-8.382-4.39c-0.846,0.538-1.811,0.934-2.53,1.605c-0.688,0.642-1.591,1.554-1.594,2.354
	C280.455,353.84,279.837,358.365,281.17,363.294 M-103.541,356.428c-5.123,1.542-8.01,4.665-11.315,7.098
	c-0.469,0.347-0.972,1.193-0.875,1.688c0.727,3.666-0.543,7.752,2.278,11.28c3.567-0.433,7.332-0.156,10.347-2.688
	c0.917-0.771,2.027-2.183,1.913-3.167C-101.724,366.064-102.656,361.536-103.541,356.428 M50.954,364.658
	c5.038-1.167,10.051-2.287,15.032-3.532c0.714-0.177,1.858-1.017,1.818-1.456c-0.229-2.443-0.361-5.054-1.371-7.206
	c-0.455-0.958-2.996-1.594-4.385-1.324c-4.202,0.826-8.304,2.168-12.509,3.33C49.017,358.226,48.78,361.487,50.954,364.658
	 M241.43,389.265c-0.444-4.765-0.874-9.078-1.239-13.396c-0.33-3.887-1.379-5.072-4.68-5.097c-3.706-0.03-5.058,1.232-5.212,5.087
	c-0.074,1.843-0.054,3.703,0.141,5.53c0.96,8.952,1.621,9.433,10.633,8.107C241.223,389.477,241.351,389.32,241.43,389.265
	 M-3.55,116.238c-1.083,1.786-1.522,2.458-1.912,3.157c-3.637,6.53-2.23,13.365-1.087,20.142c0.122,0.72,1.2,1.771,1.844,1.778
	c0.757,0.005,1.656-0.845,2.237-1.539c0.367-0.44,0.347-1.279,0.352-1.939C-2.072,131.029-1.192,124.162-3.55,116.238
	 M62.034,335.312c-1.825,0-2.976-0.125-4.088,0.02c-3.817,0.518-4.343,1.278-4.194,5.162c0.106,2.759,0.02,5.524,0.02,8.284
	c7.085-0.01,8.756-1.551,8.651-8.018C62.395,339.134,62.198,337.511,62.034,335.312 M140.418,309.945
	c-1.796,0.704-3.63,1.419-5.457,2.147c-4.934,1.957-5.477,3.59-2.91,8.721C141.017,320.402,144.575,317.739,140.418,309.945
	 M276.242,357.29c-0.212-1.68-0.244-3.726-0.814-5.611c-0.25-0.83-1.691-1.933-2.426-1.819c-1.034,0.158-2.671,1.273-2.729,2.082
	c-0.256,3.458-0.13,6.954,0.069,10.427c0.093,1.588,1.376,2.14,2.892,2.092c1.556-0.042,2.539-0.797,2.722-2.35
	C276.127,360.622,276.139,359.111,276.242,357.29 M-81.473,323.973c0,1.996-0.157,3.812,0.033,5.594
	c0.333,3.108,1.494,3.968,4.618,3.773c2.702-0.166,3.551-1.161,3.631-4.266C-73.053,323.753-74.902,322.473-81.473,323.973
	 M121.467,366.09c0.242-0.133,0.484-0.267,0.725-0.403c-0.168-3.64-0.201-7.297-0.586-10.912c-0.117-1.097-0.995-2.492-1.928-2.996
	c-0.754-0.401-2.625-0.023-3.076,0.646c-0.613,0.901-0.819,2.631-0.37,3.627C117.784,359.485,119.693,362.757,121.467,366.09
	 M-16.434,153.281c0,5.562-0.034,10.254,0.063,14.947c0.008,0.381,1.167,1.157,1.372,1.038c0.747-0.447,1.926-1.275,1.854-1.812
	C-13.74,162.929-13.59,158.188-16.434,153.281 M49.195,349.006c-0.291-3.484,0.648-7.197-2.046-10.387
	C45.144,342.261,45.842,346.636,49.195,349.006 M-12.762,137.527c-0.385,2.485-0.769,4.967-1.233,7.959
	C-9.52,143.14-9.282,141.843-12.762,137.527"/>
<path fill="#231F20" d="M520.23,370.723c-0.556-2.088-1.504-4.163-1.59-6.269c-0.295-7.05-0.209-14.119-0.393-21.174
	c-0.364-14.133-1.086-28.261-1.128-42.395c-0.026-9.521-1.29-8.678,8.699-10.232c2.478-0.383,4.98-0.599,7.465-0.954
	c2.478-0.353,4.943-0.775,7.796-1.23c0.613-3.636,3.396-4.762,6.761-5.053c2.827-0.247,5.651-0.614,8.481-0.694
	c3.133-0.086,4.41,0.718,4.863,3.879c0.855,5.977,2.174,12.097,1.669,18.021c-0.869,10.158,0.01,20.145,0.718,30.21
	c0.579,8.217,0.525,16.474,1.019,24.703c0.606,10.073-1.207,8.691,9.323,12.661c1.389,0.526,3.153,0.871,3.986,1.917
	c3.434,4.288,7.415,1.341,11.131,1.028c0.718-0.059,1.557-1.63,1.893-2.648c0.469-1.417,0.548-2.972,0.725-4.476
	c0.259-2.194,1.506-3.256,3.639-3.421c8.997-0.705,17.98-1.664,26.989-2.064c8.271-0.366,9.178,0.783,9.411,9.096
	c0.035,1.309,0.253,2.61,0.39,3.965c3.026-0.273,5.768-0.55,8.513-0.753c2.023-0.153,3.008-1.249,3.117-3.226
	c0.039-0.67,0.057-1.346,0.049-2.015c-0.103-8.908-0.348-17.814-0.273-26.72c0.057-6.714,0.769-13.428,0.739-20.14
	c-0.035-7.888-0.623-15.771-0.826-23.657c-0.049-1.923,0.295-3.91,0.792-5.772c0.604-2.258,1.547-4.425,2.382-6.617
	c1.69-4.449,3.783-8.536,7.966-11.319c1.128-0.749,2.003-2.739,2.028-4.179c0.097-5.712-0.189-11.428-0.333-17.144
	c-0.045-1.677-0.352-3.405-0.027-5.009c0.181-0.879,1.419-1.543,2.179-2.308c0.73,0.765,2.003,1.461,2.103,2.302
	c0.591,5.001,0.955,10.03,1.298,15.058c0.225,3.283,0.281,6.581,0.398,9.522c1.012,0.451,1.365,0.763,1.606,0.689
	c5.371-1.564,8.335,1.035,10.576,5.668c1.745,3.612,4.139,6.901,6.155,10.386c0.577,0.991,1.416,2.319,1.164,3.22
	c-0.929,3.342,0.64,6.244,1.105,9.338c2.525,16.808,4.805,33.642,4.364,50.716c-0.064,2.413,0.479,4.842,0.776,7.596
	c4.852-0.692,8.949-1.314,13.057-1.854c1.65-0.22,3.326-0.379,4.988-0.369c3.957,0.025,4.916,1.087,4.872,5.19
	c-0.006,0.671-0.118,1.341-0.182,2.012c-0.179,1.869,0.775,2.85,2.514,3.115c1.488,0.229,2.982,0.46,4.484,0.52
	c9.915,0.363,19.703-0.417,29.324-3.068c2.17-0.599,2.973-1.676,3.134-3.824c1.085-14.448,1.375-28.882,0.343-43.357
	c-0.612-8.564-0.875-17.146-3.222-25.484c-0.638-2.27,0.284-3.996,2.319-5.019c2.318-1.167,2.84-3.077,2.66-5.454
	c-0.229-3.02-0.132-6.083-0.567-9.068c-1.797-12.396-0.985-24.45,3.616-36.226c2.201-5.622,3.716-11.518,5.736-17.216
	c0.77-2.165,2.179-4.093,3.116-6.209c0.592-1.332,1.196-2.81,1.197-4.222c0.023-13.959,0.338-27.938-1.785-41.808
	c-0.219-1.434-0.029-2.927-0.029-4.649c2.942,0.221,3.468,2.186,3.662,4.145c0.771,7.863,1.641,15.72,2.062,23.602
	c0.349,6.549,0.164,13.127,0.119,19.692c-0.021,2.921,0.812,4.679,3.691,6.311c5.524,3.135,9.653,7.395,11.976,14.101
	c5.024,14.511,5.841,29.265,5.256,44.312c-0.079,2.018,0.001,4.04-0.025,6.058c-0.024,2.144,0.374,3.935,2.648,4.919
	c1.71,0.736,2.223,2.297,2.165,4.176c-0.123,3.969-0.303,7.957-0.089,11.919c0.446,8.261-0.42,16.431-1.229,24.623
	c-0.359,3.647-0.315,7.355-0.239,11.032c0.215,10.393,0.669,20.776,0.787,31.17c0.151,13.787,0.062,27.574,0.103,41.363
	c0.006,1.805,0.164,3.608,0.29,6.126c2.442-0.669,4.396-0.96,6.146-1.727c6.747-2.937,13.811-3.86,21.076-3.759
	c1.002,0.014,2.006-0.078,3.01-0.08c2.537-0.002,3.626-1.347,3.544-3.807c-0.155-4.54-0.292-9.082-0.469-13.621
	c-0.151-3.867-0.462-7.736-0.468-11.601c-0.002-1.806,0.481-3.635,0.873-5.425c0.413-1.887,1.703-2.66,3.61-2.874
	c3.627-0.407,7.22-1.213,10.854-1.481c2.47-0.183,4.986,0.338,7.483,0.39c1.648,0.031,3.302-0.22,4.609-0.316
	c1.273-2.135,1.936-4.627,3.49-5.49c1.859-1.034,4.481-0.822,6.78-0.889c9.988-0.288,19.983-0.479,29.921-0.704
	c1.71-3.781,1.681-7.276,1.678-10.795c-0.001-4.101,0.405-4.608,4.423-5.218c3.301-0.503,6.639-0.775,9.964-1.135
	c1.808-0.199,2.866,0.741,3.312,2.399c1.157,4.344,2.57,8.65,3.289,13.068c0.558,3.436,0.257,7.018,0.261,10.529
	c0.002,1.681-0.295,3.365-0.243,5.041c0.313,9.895,0.634,19.789,1.068,29.681c0.188,4.36,1.081,4.773,5.945,3.166
	c-1.769-18.241-0.485-36.563-0.981-54.85c-0.39-14.438-1.626-28.854-2.619-43.268c-0.482-7.05,0.556-8.793,7.525-10.794
	c2.648-0.758,5.195-2.151,8.189-0.757c1.017,0.47,2.591-0.275,3.907-0.479c6.104-0.947,12.19-2.032,18.315-2.812
	c5.151-0.654,6.683,0.355,7.817,5.483c0.724,3.247,0.948,6.658,0.953,9.996c0.01,12.451-0.166,24.908-0.272,37.36
	c-0.012,1.174-0.188,2.374-0.032,3.524c1.219,8.955-0.679,17.757-1.212,26.624c-0.556,9.231-1.017,18.47-1.353,27.713
	c-0.173,4.705,0.021,9.423,0.028,14.138c0.001,1.525,0.086,3.159-1.908,3.589c-1.77,0.386-3.242-0.878-3.759-3.2
	c-0.146-0.65-0.205-1.336-0.188-2.006c0.164-6.205,0.512-12.407,0.502-18.607c-0.029-16.477,3.479-32.742,2.082-49.366
	c-0.81-9.638,0.725-19.469,1.068-29.219c0.171-4.876,0.181-9.77-0.002-14.641c-0.199-5.362-1.494-6.751-6.724-6.352
	c-4.97,0.384-9.884,1.484-14.814,2.331c-2.53,0.435-3.5,1.895-3.457,4.602c0.138,8.585,0.192,17.174-0.058,25.753
	c-0.37,12.611-1.319,25.211-1.482,37.818c-0.139,10.757,0.402,21.523,0.809,32.279c0.218,5.712,0.102,6.086-5.618,7.388
	c-2.768,0.628-5.521,1.432-8.327,1.759c-2.827,0.331-3.71,1.82-3.555,4.4c0.07,1.173,0.147,2.365,0.044,3.531
	c-0.155,1.754-1.069,2.728-3.194,2.521c-0.271-0.796-0.694-1.536-0.752-2.304c-0.66-8.712-1.605-17.421-1.793-26.147
	c-0.192-9.046,0.283-18.107,0.623-27.155c0.178-4.83-0.287-5.539-5.043-5.837c-0.666-0.041-1.34-0.217-1.997-0.167
	c-6.74,0.528-6.946,1.511-6.657,6.741c0.241,4.364,0.622,8.722,0.733,13.086c0.149,6.035-0.028,12.08,0.189,18.112
	c0.138,3.853,0.735,7.692,1.11,11.539c0.065,0.668,0.061,1.346,0.08,2.017c0.055,1.873,0.274,4.275-2.229,4.268
	c-2.674-0.005-1.918-2.607-2.055-4.315c-0.256-3.175-0.428-6.358-0.628-9.537c-0.074-1.173-0.354-2.395-0.143-3.521
	c1.792-9.592-0.497-19.128-0.344-28.7c0.089-5.606-0.615-6.036-6.151-5.828c-9.683,0.357-19.365,0.801-29.046,1.238
	c-0.54,0.024-1.07,0.336-1.548,1.44c1.562,0.065,3.127,0.177,4.692,0.185c6.692,0.041,13.384-0.026,20.075,0.116
	c2.069,0.043,4.131,0.611,6.372,0.965c-2.276,8.012-1.115,15.477-0.714,22.942c0.306,5.709,0.303,11.433,0.471,17.149
	c0.104,3.53,0.254,7.059,0.431,10.587c0.078,1.58,0.201,3.331-1.88,3.432c-2.131,0.104-2.179-1.824-2.184-3.286
	c-0.021-5.208,0.252-10.423,0.136-15.631c-0.175-7.906-0.563-15.807-0.91-23.709c-0.066-1.508-0.298-3.019-0.595-4.499
	c-0.664-3.316-1.293-3.959-4.668-4.044c-4.347-0.104-8.704-0.086-13.047,0.093c-5.68,0.232-11.354,0.619-17.021,1.045
	c-3.657,0.273-4.375,1.025-4.53,4.629c-0.095,2.183-0.091,4.393,0.132,6.563c1.301,12.767,0.667,25.525,0.016,38.287
	c-0.129,2.553-0.148,2.553-2.938,4.482c-0.358-1.404-0.909-2.611-0.927-3.826c-0.071-5.216,0.088-10.436,0.034-15.652
	c-0.109-10.59-0.293-21.183-0.487-31.771c-0.012-0.617-0.39-1.232-0.548-1.693c-0.521-0.238-0.828-0.513-1.123-0.495
	c-10.287,0.562-9.216-0.215-9.241,9.067c-0.017,5.533,0.649,11.072,0.968,16.612c0.1,1.678,0.157,3.367,0.067,5.046
	c-0.256,4.815-2.425,6.872-7.306,7.083c-5.174,0.228-10.423-0.007-15.496,0.833c-4.886,0.807-9.6,2.685-14.364,4.175
	c-1.877,0.588-3.681,1.398-6.226,2.381c-0.312-1.996-0.695-3.379-0.712-4.765c-0.099-8.25-0.089-16.498-0.156-24.748
	c-0.044-5.372-0.196-10.746-0.226-16.115c-0.013-2.344-1.145-3.271-3.376-3.405c-3.307-0.198-4.629,0.388-5.163,2.618
	c-0.113,0.485-0.135,1.003-0.151,1.504c-0.384,11.77-0.758,23.539-1.146,35.307c-0.042,1.338,0.285,2.972-0.357,3.925
	c-0.684,1.018-2.271,1.58-3.568,1.888c-0.296,0.073-1.518-1.727-1.486-2.638c0.327-9.409,0.829-18.813,1.271-28.22
	c0.103-2.185,0.259-4.374,0.225-6.557c-0.315-20.016-0.531-40.032-1.083-60.037c-0.222-8.062-1.25-16.096-1.797-24.147
	c-0.115-1.718,0.272-3.472,0.448-5.4c3.356,0.507,3.403,2.719,3.686,4.6c0.477,3.155,0.871,6.333,1.112,9.52
	c0.814,10.729,1.771,21.451,2.251,32.197c0.396,8.889,0.174,17.807,0.275,26.711c0.018,1.636,0.247,3.272,0.398,5.115
	c1.356,0,2.329,0.121,3.258-0.021c5.251-0.804,5.489-0.903,5.306-6.409c-0.56-17.177,0.497-34.3,1.394-51.434
	c0.297-5.684,0.002-11.398,0.04-17.101c0.019-2.729-1.24-3.776-3.924-4.075c-2.772-0.308-5.467-1.312-8.213-1.93
	c-1.114-0.253-2.306-0.531-3.411-0.392c-5.969,0.762-11.932,1.578-17.871,2.526c-3.374,0.538-3.846,1.187-3.267,4.284
	c2.771,14.822,2.541,29.804,2.403,44.771c-0.075,8.074-0.562,16.141-1.057,24.203c-0.097,1.558-1.143,3.036-1.637,4.588
	c-0.486,1.532-1.208,3.123-1.174,4.676c0.166,7.729,0.536,15.452,0.85,23.177c0.211,5.208,0.502,10.415,0.633,15.625
	c0.036,1.361-0.383,2.733-0.622,4.317c-3.346-0.942-2.962-3.201-3.028-5.078c-0.336-9.755-0.559-19.512-0.897-29.266
	c-0.1-2.853-0.216-5.735-0.742-8.522c-0.539-2.888-1.682-3.575-4.229-2.667c-6.43,2.292-13.172,1.807-19.779,2.401
	c-5.289,0.474-5.44,0.213-5.359,5.447c0.164,10.418,0.439,20.831,0.736,31.241c0.125,4.463-0.042,4.89-3.88,6.475
	c-1.897-1.733-1.861-4.165-1.899-6.445c-0.096-6.733,0.019-13.467-0.045-20.203c-0.043-4.542-0.205-9.086-0.403-13.623
	c-0.049-1.116-0.461-2.211-0.711-3.334c-3.107-0.312-3.014,1.729-3.115,3.549c-0.314,5.697-0.549,11.404-0.91,17.1
	c-0.329,5.206-0.781,10.404-1.185,15.606c-0.038,0.502,0.036,1.12-0.229,1.479c-0.638,0.866-1.441,1.608-2.181,2.409
	c-0.665-1.008-1.929-2.029-1.893-3.008c0.173-4.869,0.765-9.719,1.067-14.586c0.668-10.694,1.252-21.4,1.911-32.837
	c-4.854,0.42-9.455,0.517-13.939,1.297c-3.359,0.587-4.453,2.577-4.38,6.307c0.199,9.732,0.51,19.465,0.684,29.197
	c0.066,3.702,0.007,7.415-0.272,11.102c-0.065,0.862-1.256,1.643-1.929,2.463c-0.768-0.762-1.834-1.396-2.218-2.317
	c-0.436-1.025-0.308-2.312-0.319-3.488c-0.09-9.421,0.031-18.856-0.27-28.271c-0.54-16.98-1.092-33.966-2.106-50.924
	c-0.523-8.713-1.848-17.396-3.188-26.037c-0.918-5.894-1.215-5.834-7.06-6.311c-1.664-0.139-3.314-0.479-4.982-0.555
	c-3.546-0.162-4.523,0.72-4.591,4.257c-0.067,3.531-0.005,7.069,0.072,10.6c0.192,8.89,0.545,17.782,0.619,26.675
	c0.089,10.096-0.078,20.199-0.096,30.295c-0.012,6.714,0.051,13.425,0.061,20.135c0.014,7.741,0.075,15.482-0.044,23.225
	c-0.024,1.705,0.146,4.291-2.417,4.241c-2.638-0.048-2.149-2.587-2.156-4.327c-0.074-19.861-0.104-39.721-0.119-59.582
	c-0.01-6.874-0.011-13.748,0.09-20.618c0.095-6.548,0.437-13.095,0.45-19.643c0.007-3.69-0.32-7.394-0.709-11.065
	c-0.146-1.389-0.881-2.712-1.509-4.525c-2.478,1.131-4.6,1.765-6.295,3.004c-1.017,0.741-1.855,2.405-1.901,3.686
	c-0.161,4.366,0.047,8.745,0.149,13.119c0.091,3.861,0.293,7.722,0.322,11.583c0.109,12.784,0.061,25.566,0.262,38.344
	c0.216,13.622,0.657,27.241,0.957,40.861c0.029,1.325-0.023,2.751-0.485,3.959c-0.279,0.727-1.448,1.572-2.166,1.526
	c-0.697-0.04-1.8-1.096-1.897-1.815c-0.31-2.323-0.222-4.698-0.314-7.055c-0.246-6.382-0.357-12.777-0.83-19.146
	c-0.298-3.999-0.648-4.173-4.42-4.853c-2.434-0.439-4.913-0.647-7.62-0.99c-0.301,1.268-0.717,2.188-0.702,3.104
	c0.107,7.905,0.334,15.802,0.426,23.706c0.021,1.726,0.351,3.855-2.992,4.398c-0.279-1.962-0.759-3.833-0.774-5.703
	c-0.099-10.428-0.083-20.854-0.107-31.284c-0.011-5.297-0.97-6.167-6.209-5.673c-6.978,0.657-13.956,1.355-20.938,1.943
	c-4.325,0.367-5.306,1.08-5.115,5.634c0.312,7.525,0.998,15.032,1.527,22.549c0.116,1.674,0.407,3.363,0.265,5.016
	c-0.071,0.807-0.958,1.542-1.476,2.311c-0.757-0.748-1.701-1.382-2.203-2.27c-0.372-0.657-0.139-1.646-0.22-2.481
	c-0.461-4.85-0.815-9.716-1.436-14.553c-0.624-4.87-1.939-5.692-6.723-4.574c-1.271,0.297-2.49,0.829-3.877,1.302
	c-0.533,7.631,2.111,15.2,0.399,22.675c-3.156-0.217-3.2-1.869-3.33-3.35c-0.327-3.688-0.588-7.379-0.849-11.071
	c-0.13-1.844-0.102-3.71-0.328-5.54c-0.979-7.894-2.67-9.384-11.579-9.821c0,1.791,0.01,3.561-0.004,5.326
	c-0.045,6.886-0.045,13.778-0.188,20.662c-0.036,1.737,0.182,4.263-2.482,4.096c-2.583-0.159-2.012-2.352-1.978-4.271
	c0.177-9.754,0.458-19.521,0.186-29.267c-0.379-13.618-1.276-27.222-1.835-40.837c-0.405-9.909-0.562-19.825-0.949-29.735
	c-0.138-3.521-0.579-7.027-0.992-10.53c-0.202-1.725-1.298-2.812-3.078-2.641c-2.949,0.288-5.875,0.762-8.462,1.108
	c-0.386,0.964-0.658,1.298-0.609,1.574c2.3,13.873,0.594,27.877,1.266,41.805c0.965,19.976,1.467,39.968,2.163,59.955
	c0.059,1.725,1.114,4.226-1.787,4.269c-2.355,0.03-2.506-2.292-2.574-4.184c-0.33-8.911-0.629-17.82-0.973-26.729
	c-0.632-16.471-1.343-32.939-1.897-49.411c-0.136-4.021,0.092-8.07,0.384-12.088c0.258-3.541,0.253-6.979-1.132-10.862
	c-6.352,0.753-12.431,1.48-18.914,2.255c-0.952,6.591-0.675,12.771-0.312,18.952c0.237,4.025,0.6,8.05,0.701,12.084
	c0.335,13.286,0.598,26.574,0.827,39.864c0.037,2.069,0.619,4.684-2.84,4.711L520.23,370.723z M928.538,412.58
	c4.502-0.628,4.852-1.03,4.677-5.113c-0.189-4.537-0.369-9.073-0.491-13.612c-0.193-7.221-0.63-14.45-0.437-21.664
	c0.263-9.908,1.082-19.798,1.533-29.704c0.367-8.056,0.615-16.119,0.763-24.186c0.04-2.331-0.254-4.715-0.726-7
	c-0.613-2.972-2.29-3.8-5.172-2.922c-3.312,1.008-4.112,2.504-3.592,7.162c1.871,16.717,2.623,33.5,2.847,50.312
	c0.091,6.729-0.039,13.458,0.051,20.188C928.113,394.888,928.352,403.735,928.538,412.58 M758.465,286.747
	c2.352-0.202,4.006-0.187,5.591-0.51c3.764-0.773,4.152-1.236,4.168-4.972c0.027-5.88,0.012-11.76-0.105-17.634
	c-0.064-3.352-0.599-3.904-3.714-4.051c-2.618-0.126-5.24-0.028-8.242-0.028C755.851,268.903,757.104,277.44,758.465,286.747
	 M774.128,285.572c1.646,0.389,2.911,0.878,4.202,0.963c4.552,0.301,5.836-1.018,6.028-5.714c0.155-3.68,0.457-7.354,0.646-11.034
	c0.096-1.841,0.2-3.689,0.103-5.526c-0.212-3.901-0.688-4.326-4.407-4.469c-0.667-0.027-1.335-0.031-2,0
	c-4.665,0.212-5.526,0.922-5.443,5.754C773.365,272.049,773.805,278.541,774.128,285.572 M674.959,291.958
	c-2.008-3.998-3.601-6.871-4.911-9.859c-1.111-2.538-2.787-2.811-5.245-2.313c-2.592,0.528-3.139,2.112-3.062,4.345
	c0.045,1.341,0.089,2.682,0.124,4.021c0.055,1.795,1.055,2.867,2.733,3.046C667.66,291.522,670.744,291.66,674.959,291.958
	 M909.731,353.267c-2.278,0.202-4.56,0.311-6.811,0.632c-2.241,0.317-2.154,2.212-2.231,3.866c-0.079,1.678-0.213,3.783,1.869,4.071
	c2.369,0.328,5.153,0.577,7.188-0.377c2.202-1.033,1.069-3.855,0.854-5.944C910.539,354.897,910.15,354.313,909.731,353.267
	 M767.484,255.05c1.793-5.587,1.493-6.096-3.633-6.55c-1.157-0.101-2.306-0.247-3.464-0.304c-3.144-0.138-3.738,0.348-4.049,3.562
	c-0.138,1.424-0.024,2.872-0.024,4.36C760.471,255.723,764.033,255.38,767.484,255.05 M778.862,255.658
	c4.879-0.063,6.431-1.949,4.772-5.227c-0.836-1.653-2.222-1.961-3.741-1.547c-1.943,0.524-4.522-0.106-5.442,2.549
	c-0.668,1.906,0.384,3.66,2.376,4.064C777.624,255.662,778.461,255.633,778.862,255.658 M655.76,280.009
	c-2.771,4.253-5.706,7.419-5.553,12.161C656.769,291.689,657.894,289.416,655.76,280.009 M758.824,244.158
	c2.099,0.123,3.865,0.316,5.63,0.299c1.68-0.012,3.483-0.226,3.562-2.479c0.096-2.693-1.943-2.602-3.782-2.633
	c-0.82-0.013-1.642-0.018-2.458,0.051C759.286,239.607,758.421,241.046,758.824,244.158 M779.364,240.29
	c-1.509,0.138-2.319-0.022-2.801,0.306c-0.851,0.585-1.969,1.369-2.139,2.232c-0.318,1.623,0.906,2.344,2.464,2.358
	c0.663,0.009,1.337,0.01,1.993-0.08c1.542-0.205,3.353-0.609,2.89-2.553C781.524,241.504,779.928,240.782,779.364,240.29
	 M778.527,235.404c0.537-4.92-0.126-5.467-4.836-3.965C773.489,236.185,773.695,236.353,778.527,235.404 M765.393,230.337
	c-1.603,1.162-2.762,1.998-3.914,2.838c0.729,0.673,1.398,1.817,2.201,1.921c1.521,0.195,3.549,0.322,3.81-1.904
	C767.57,232.499,766.404,231.656,765.393,230.337 M764.575,227.351c1.392-2.594,1.392-2.594,0.624-4.942
	C763.86,224.444,763.86,224.444,764.575,227.351 M772.438,224.594c-0.325,0.208-0.651,0.413-0.979,0.617
	c0.456,0.825,0.903,1.65,1.356,2.47c0.502-0.3,1.004-0.602,1.506-0.901C773.691,226.051,773.066,225.323,772.438,224.594"/>
<path fill="#231F20" d="M368.229,280.347c2.94,2.427,6.921,3.468,8.414,7.81c1.01,2.927,3.273,5.422,4.994,8.102
	c0.993,1.545,2.01,3.075,3.041,4.598c1.032,1.521,1.764,3.657,3.204,4.424c3.798,2.02,3.93,5.544,4.432,8.965
	c0.515,3.491,0.905,7.013,1.19,10.529c1.331,16.415,2.602,32.833,3.92,49.244c0.066,0.807,0.385,1.593,0.688,2.784
	c1.693-0.744,3.105-1.575,4.628-1.986c4.651-1.26,5.455-1.515,5.111-7.548c-0.598-10.403-1.294-20.798-1.945-31.198
	c-0.063-1.008-0.149-2.014-0.158-3.024c-0.031-4.301,0.534-5.128,4.725-6.528c2.223-0.745,4.471-1.745,6.753-1.886
	c5.479-0.329,10.325-2.65,15.392-4.291c4.21-1.361,5.085-0.783,5.344,3.61c0.68,11.579,1.283,23.161,2.02,34.735
	c0.179,2.787,0.757,5.55,1.215,8.76c3.539-0.643,6.448-1.171,9.188-1.669c0.36-0.446,0.748-0.704,0.746-0.961
	c-0.037-8.691,1.074-17.41-0.459-26.063c-0.253-1.427-1.062-2.777-1.733-4.101c-2.696-5.303-1.319-8.882,4.3-11.099
	c3.893-1.532,7.729-3.176,12.074-3.004c1.257,0.05,2.545-0.642,4.513-1.189c0.42-3.521,1.394-7.168,1.176-10.743
	c-0.529-8.695,5.935-13.212,12.584-12.944c4.326,0.18,8.672-0.204,13.011-0.318c3.758-0.101,4.333,0.42,4.721,4.177
	c0.02,0.165,0.029,0.333,0.035,0.502c0.682,15.225,2.316,30.388,1.839,45.68c-0.236,7.534,0.596,15.105,0.982,22.658
	c0.042,0.805,0.343,1.59,0.68,3.073c5.172-0.242,10.277-0.477,15.384-0.718l-0.067-0.058c4.26,8.581,5.904,17.358,4.175,22.795
	c-2.726,0.003-2.937-1.933-3.252-4.011c-0.583-3.814-1.32-7.609-2.065-11.396c-0.409-2.077-1.568-3.02-3.876-3.017
	c-3.469,0.005-6.933-0.46-11.103-0.773c0.189,3.673,0.332,7.47,0.598,11.253c0.435,6.203,1.048,12.394,1.398,18.599
	c0.186,3.313-0.448,3.821-4.24,4.685c-0.175-0.264-0.519-0.539-0.517-0.807c0.071-7.924-1.402-15.74-1.843-23.585
	c-0.984-17.623-0.964-35.306-1.305-52.964c-0.069-3.534,0.128-7.072,0.083-10.607c-0.017-1.303-0.379-2.601-0.571-3.817
	c-6.667-0.95-8.759,0.374-12.705,8.175c-0.408-1.243-0.788-2.092-0.959-2.983c-0.452-2.341-1.601-3.576-4.156-3.24
	c-2.462,0.319-2.799,1.947-2.791,3.979c0.026,6.565-0.105,13.135,0.031,19.7c0.317,15.141,0.739,30.279,1.174,45.415
	c0.061,2.01,0.571,4.004,0.643,6.018c0.051,1.479-0.159,3.001-0.488,4.454c-0.105,0.451-0.979,0.999-1.508,1.007
	c-0.523,0.007-1.284-0.497-1.532-0.986c-0.445-0.879-0.727-1.897-0.827-2.884c-0.834-8.203-1.906-16.397-2.321-24.623
	c-0.414-8.222-0.07-16.486-0.217-24.725c-0.092-5.211-0.299-10.433-0.782-15.62c-0.382-4.076-1.022-4.576-5.131-4.238
	c-3.31,0.268-6.597,0.971-9.855,1.649c-2.341,0.489-3.329,2.068-2.842,4.493c2.502,12.502,1.023,25.188,1.725,37.769
	c0.478,8.553,1.403,17.079,2.149,25.613c0.073,0.836,0.628,1.783,0.373,2.455c-0.414,1.097-1.1,2.4-2.049,2.918
	c-1.404,0.765-2.685-0.202-3.057-1.667c-0.411-1.601-0.562-3.296-0.629-4.962c-0.337-8.361-0.612-16.724-0.922-25.45
	c-2.773,0.589-5.338,1.139-7.908,1.677c-1.867,0.39-2.33,1.79-2.271,3.406c0.122,3.364,0.374,6.723,0.535,10.084
	c0.218,4.538,0.453,9.074,0.582,13.613c0.071,2.568-0.979,4.172-4.588,3.794c-2.36-25.283-2.939-50.728-4.99-76.091
	c-4.512-0.771-7.668,1.363-10.831,3.036c-0.771,0.406-1.116,2.344-1.044,3.539c0.805,13.771,1.548,27.545,2.689,41.288
	c0.71,8.543,2.119,17.024,3.127,25.547c0.445,3.777,0.088,4.106-3.999,4.605c-0.334-1.416-0.832-2.84-0.991-4.304
	c-1.237-11.534-2.593-23.062-3.553-34.619c-0.851-10.223-1.238-20.483-1.829-30.727c-0.021-0.333-0.032-0.674-0.06-1.009
	c-0.135-1.582-0.398-3.24-2.409-3.199c-2.257,0.052-2.55,1.8-2.455,3.617c0.439,8.381,0.697,16.778,1.381,25.143
	c0.971,11.893,2.285,23.759,3.383,35.643c0.185,1.999,0.262,4.073-0.093,6.021c-0.148,0.822-1.456,1.734-2.403,1.982
	c-0.456,0.118-1.743-1.128-1.869-1.888c-0.656-3.982-1.034-8.007-1.561-12.01c-0.309-2.333-0.713-4.654-1.07-6.979
	c-0.312-2.046-1.597-2.877-3.532-2.729c-1.16,0.085-2.333,0.278-3.455,0.581c-3.637,0.988-4.041,1.587-3.549,5.324
	c0.665,5.006,1.457,9.988,2.078,15.001c0.288,2.328,0.563,4.717,0.328,7.027c-0.101,1.002-1.345,2.391-2.341,2.688
	c-1.688,0.506-2.168-1.044-2.358-2.477c-0.619-4.669-1.422-9.323-1.82-14.013c-0.694-8.202-1.051-16.437-1.731-24.642
	c-0.528-6.365-1.391-12.703-2-19.063c-0.369-3.847-0.588-7.714-0.79-11.57c-0.378-7.222-0.678-14.439-1.057-21.658
	c-0.042-0.811-0.362-1.602-0.624-2.688c-1.225-0.056-2.358-0.288-3.439-0.129c-4.454,0.648-8.898,1.378-13.336,2.151
	c-4.563,0.79-5.014,1.772-5,6.391c0.045,14.801-0.201,29.601-0.197,44.401c0.003,8.74,0.245,17.484,0.423,26.221
	c0.053,2.695,0.296,5.379,0.364,8.072c0.042,1.542-0.034,3.284-2.129,3.307c-1.843,0.021-1.923-1.61-1.947-2.948
	c-0.234-12.771-0.48-25.539-0.613-38.312c-0.076-7.216,0.064-14.435,0.091-21.655c0.021-5.882,0.096-11.764-0.011-17.644
	c-0.033-1.772-0.594-3.536-0.958-5.546c-2.079,0.184-3.704,0.465-5.326,0.441c-3.978-0.059-6.098-2.229-6.225-6.208
	c-0.042-1.346-0.007-2.696-0.035-4.044c-0.094-4.383-0.571-8.898,4.1-11.57c3.424-6.376,8.905-10.854,14.161-15.534
	C367.822,280.631,368.229,280.347,368.229,280.347 M372.141,290.241c-2.512,2.469-5.621,4.117-6.289,7.296
	c-0.889,4.208-0.44,8.573,0.523,13.249c5.49-0.424,10.411-1.328,15.847-2.61C378.711,301.93,375.579,296.354,372.141,290.241
	 M353.694,313.227c7.095,0.186,8.23-0.938,7.717-6.909c-0.059-0.667-0.12-1.335-0.219-2c-0.336-2.205-1.626-3.188-3.829-2.973
	c-1.949,0.186-3.754,0.697-3.806,3.095C353.494,307.381,353.641,310.331,353.694,313.227 M496.909,300.327
	c-8.758-1.22-10.241,0.305-8.579,7.565c0.42,1.832,1.083,3.156,3.218,3.053c1.888-0.095,3.881-0.262,4.341-2.529
	C496.403,305.854,496.562,303.22,496.909,300.327 M476.236,311.528c2.308-0.112,4.646-0.228,7.496-0.365
	c-0.097-1.8-0.063-3.239-0.278-4.641c-0.224-1.456-0.46-3.117-2.463-3.171c-1.827-0.045-2.48,1.2-2.908,2.794
	C477.626,307.857,476.941,309.512,476.236,311.528 M359.226,295.891c4.771-1.343,8.954-6.122,9.446-10.231
	C364.13,287.952,360.765,291.056,359.226,295.891"/>
<path fill="#231F20" d="M884.539,7.487c5.474-2.328,10.678-5.37,16.976-4.907c6.826,0.496,13.676,0.616,19.599,5.09
	c1.263,0.952,3.931,0.65,5.725,0.137c6.984-1.992,13.847-1.698,20.812,0.042c5.595,1.397,10.101,4.257,13.653,8.789
	c1.021,1.303,2.287,2.412,3.487,3.561c1.815,1.737,3.861,3.269,5.473,5.176c4.103,4.858,3.771,8.678-1.223,12.479
	c-2.5,1.906-5.406,3.29-8.149,4.87c-0.572,0.333-1.333,0.374-1.853,0.76c-8.204,6.078-17.475,4.351-26.595,3.707
	c-0.499-0.036-0.993-0.155-1.49-0.219c-4.999-0.651-5.015-0.656-7.41,3.805c-3.608,6.724-8.365,12.133-15.899,14.528
	c-3.455,1.103-6.883,1.159-10.386,0.309c-5.742-1.393-11.176-3.45-15.996-6.994c-1.729-1.269-3.604-2.346-5.804-3.766
	c-1.236,1.767-2.383,3.172-3.277,4.719c-3.263,5.643-8.588,8.434-14.453,10.12c-2.256,0.647-5.097,0.457-7.346-0.314
	c-7.16-2.449-13.809-5.865-19.314-11.354c-2.207-2.193-5.11-3.7-7.776-5.393c-2.168-1.379-3.351,0.441-4.629,1.72
	c-5.905,5.9-12.718,10.394-20.62,13.03c-7.369,2.456-14.813,2.551-22.116-0.328c-6.42-2.528-11.021-6.893-12.951-13.763
	c-0.491-1.754-1.064-3.477-1.71-5.574c-2.863,0.807-5.379,1.544-7.91,2.218c-1.454,0.388-2.917,0.804-4.404,0.977
	c-5.995,0.708-9.069-2.968-6.982-8.596c1.158-3.127,2.899-6.036,4.379-9.044c0.283-0.572,0.585-1.136,0.891-1.725
	c-2.864-1.466-5.547-2.767-8.158-4.196c-2.762-1.51-4.031-3.91-3.835-7.094c0.416-6.712,2.696-12.062,8.646-16.103
	c8.637-5.863,17.384-6.155,26.714-2.65c1.566,0.585,3.167,1.106,4.661,1.85c2.87,1.422,5.358,0.999,7.953-0.853
	c8.623-6.157,18.336-6.699,28.332-5.001c1.894,0.32,3.756,1.401,5.407,2.48c2.924,1.911,5.732,2.636,8.764,0.341
	c4.991-3.781,10.808-5.111,16.856-5.804c1.134-0.129,2.436-0.392,3.288-1.067c3.52-2.779,7.6-2.699,11.531-2.063
	c5.587,0.904,11.093,2.375,16.602,3.722c0.876,0.212,1.944,0.875,2.33,1.633c1.884,3.74,3.675,7.539,5.283,11.407
	c1.033,2.482,0.865,2.552-2.32,4.521c-1.979-4.029-4.088-7.989-5.881-12.089c-1.316-3.006-3.235-4.596-6.57-4.152
	c-0.162,0.021-0.337,0.02-0.499-0.013c-10.308-2.076-20.219,0.287-30.187,2.539c-3.424,0.773-6.202,2.347-8.627,4.76
	c-0.238,0.234-0.43,0.517-0.667,0.754c-4.84,4.773-5.748,4.805-10.406,0.039c-2.059-2.107-4.364-3.781-7.329-4.013
	c-9.883-0.765-19.507-0.291-27.188,7.243c-1.941,1.904-3.837,1.549-5.955,0.602c-5.678-2.54-11.509-4.528-17.729-5.292
	c-6.917-0.855-15.328,3.926-17.919,10.374c-2.783,6.931,1.205,13.565,8.64,14.265c1.62,0.151,3.265,0.021,4.641,0.021
	c1.422,2.419-0.059,3.306-1.139,4.66c-2.378,2.989-4.479,6.207-6.516,9.446c-0.56,0.892-0.484,2.187-0.774,3.687
	c4.766,0.181,8.812-1.111,12.744-2.909c1.521-0.695,2.933-1.684,4.504-2.212c2.879-0.971,4.431,0.497,4.102,3.589
	c-0.194,1.809-0.546,3.665-0.357,5.447c0.819,7.801,5.424,12.432,12.688,14.554c8.93,2.61,17.314,0.996,24.853-4.213
	c4.659-3.219,9.092-6.87,13.186-10.792c2.843-2.727,6.785-2.31,9.591-0.271c2.967,2.151,5.517,4.884,8.496,7.021
	c4.192,3.014,8.373,6.218,12.99,8.436c6.871,3.3,16.573-0.171,20.622-6.757c1.571-2.544,2.962-5.199,4.801-8.461
	c1.605,1.185,2.946,2.266,4.375,3.208c4.312,2.833,8.419,6.13,13.043,8.303c11.224,5.281,21.9-0.163,27.904-9.891
	c0.176-0.284,0.3-0.599,0.451-0.9c4.007-7.837,2.939-7.281,11.834-6.474c3.326,0.3,6.672,0.394,10.013,0.574
	c10.121,0.527,18.537-3.673,26.197-9.762c3.807-3.023,3.769-5.459-0.059-8.551c-3.507-2.826-6.692-5.836-9.661-9.314
	c-4.95-5.798-12.234-6.639-19.376-6.218c-4.275,0.25-8.52,1.46-12.716,2.503c-1.87,0.467-3.211,0.251-4.493-1.152
	c-2.909-3.179-6.838-4.239-10.848-4.652c-6.017-0.62-12.032-0.628-17.675,2.22c-1.183,0.598-2.505,0.958-3.802,1.273
	C886.708,10.554,885.345,9.863,884.539,7.487"/>
<path fill="#231F20" d="M-134.469-3.294c-3.445-0.579-6.071-0.983-8.682-1.466c-6.278-1.161-10.485-5.171-11.622-11.133
	c-1.159-6.075,0.123-12.272,5.272-16.519c4.883-4.025,10.393-6.804,17.089-5.617c0.796,0.14,1.636,0.02,2.912,0.02
	c0.493-1.599,1.173-3.125,1.414-4.716c0.762-5.041,3.578-8.368,7.759-11.106c8.492-5.566,17.469-7.128,27.239-4.543
	c4.14,1.093,7.807,2.777,10.494,6.364c1.263,1.688,3.027,2.998,4.715,4.624c1.951-1.381,3.536-2.573,5.188-3.654
	c6.669-4.377,14.001-5.365,21.655-3.838c3.254,0.651,6.417,1.842,9.552,2.981c5.138,1.869,8.637,5.053,8.189,11.153
	c-0.032,0.454,0.27,0.939,0.452,1.398c0.056,0.137,0.229,0.227,0.422,0.406c0.412,0,0.977,0.167,1.375-0.025
	c6.886-3.28,14.003-2.562,21.16-1.31c9.359,1.639,14.026,7.955,12.906,17.451c-0.054,0.464,0.153,0.957,0.342,2.024
	c1.804-0.367,3.517-0.802,5.256-1.05c7.29-1.048,14.173-0.769,20.402,4.224c6.894,5.525,8.727,15.166,3.46,22.948
	c-4.352,6.432-4.539,5.437,0.833,10.577c3.006,2.88,5.217,5.979,3.983,10.667c-1.416,5.391-3.13,10.565-8.788,12.667
	C17.696,43.25,6.69,45.863-4.715,41.397c-2.316-0.907-3.949-0.57-5.435,1.818c-6.37,10.238-16.099,12.852-27.351,11.712
	c-4.533-0.458-7.73-3.329-10.273-6.636c-2.526-3.284-4.309-7.149-6.423-10.753c-0.407-0.694-0.837-1.373-1.435-2.345
	c-1.292,0.893-2.391,1.573-3.4,2.367c-5.648,4.452-12.06,7.355-19.052,8.587c-11.347,2.006-20.605-2.3-28.316-10.491
	c-1.493-1.584-2.838-3.314-4.247-4.978c-1.487-1.756-3.195-2.18-5.364-1.214c-2.441,1.091-4.912,2.232-7.487,2.879
	c-3.048,0.766-6.211,1.115-9.343,1.493c-7.354,0.884-14.849-8.466-12.666-15.677c0.484-1.593,0.658-3.298,0.836-4.97
	c0.58-5.448,2.906-9.944,7.033-13.515C-136.768-1.078-135.952-1.897-134.469-3.294 M-126.027-6.574
	c-0.583,3.37-2.938,3.805-4.745,4.8c-4.958,2.726-8.45,6.496-9.189,12.407c-0.229,1.828-0.753,3.623-1.179,5.419
	c-2.242,9.511,3.978,16.202,13.498,14c4.666-1.082,9.068-3.318,13.584-5.05c1.589-0.607,3.159-1.271,4.788-1.927
	c1.798,6.708,6.065,10.961,10.679,14.311c9.451,6.858,19.805,7.324,30.309,2.066c5.018-2.51,9.086-6.232,12.94-10.241
	c0.745-0.775,1.699-1.345,3.134-2.461c0.723,2.078,1.547,3.551,1.717,5.097c0.512,4.691,2.613,8.78,5.15,12.467
	c3.349,4.87,7.895,7.962,14.344,7.646c9.231-0.452,14.595-4.245,17.407-13.002c1.188-3.694,2.676-4.437,6.331-3.055
	c1.722,0.648,3.37,1.493,5.099,2.114c10.408,3.745,20.535,2.143,30.147-2.471c6.267-3.011,6.999-12.132,1.847-16.887
	c-1.474-1.359-3.112-2.542-4.718-3.75c-1.837-1.38-2.083-2.923-0.638-4.726c1.156-1.439,2.385-2.826,3.457-4.326
	c7.156-10.025,3.005-21.888-8.395-23.655c-5.492-0.852-10.979-0.655-16.258,1.664c-1.704,0.745-4.329,1.751-5.438,0.999
	c-2.373-1.606-0.17-3.884,0.514-5.826c2.364-6.723-0.273-13.375-6.995-15.544c-7.587-2.444-15.366-3.429-22.73,1.298
	c-1.74,1.117-3.597,2.521-6.112,1.51c0-1.395-0.061-2.708,0.008-4.013c0.388-7.284-0.72-9.144-7.276-12.046
	c-0.918-0.406-1.82-0.878-2.775-1.163c-10.363-3.085-20.126-2.955-28.373,5.372c-0.992,0.998-2.165,1.814-3.246,2.709
	c-1.479-2.084-2.539-3.752-3.765-5.28c-6.509-8.111-21.37-10.08-31.537-5.551c-4.724,2.102-8.151,5.158-8.728,10.705
	c-0.188,1.825-0.873,3.592-1.214,5.405c-0.876,4.669-1.011,4.832-5.462,3.386c-4.672-1.517-9.106-1.454-13.56,0.94
	c-5.416,2.909-8.567,9.387-7.287,15.669c1.167,5.716,5.379,9.166,11.836,9.75C-134.729-7.447-130.607-7.021-126.027-6.574"/>
<path fill="#231F20" d="M-184.894,117.569c0.357-1.498,0.683-2.932,1.044-4.36c2.586-10.203,9.336-15.968,19.304-18.227
	c4.562-1.033,8.621-0.08,11.986,3.366c0.681,0.701,1.533,1.232,1.995,1.599c4.437-2.632,8.455-5.28,12.713-7.458
	c4.817-2.465,9.899-2.569,15.104-0.877c6.73,2.189,12.279,6.1,16.911,11.336c3.095,3.5,4.157,7.65,2.631,12.216
	c-0.739,2.216-1.664,4.366-2.705,7.067c4.175,2.299,7.439,5.427,9.589,9.802c3.523,7.165,2.414,13.496-4.045,18.16
	c-4.065,2.936-8.225,5.918-12.753,7.965c-3.705,1.676-8.004,2.046-12.065,2.882c-1.094,0.226-2.275,0.033-3.188,0.033
	c-0.337,0.388-0.528,0.501-0.542,0.636c-1.293,11.184-9.666,15.601-18.467,19.674c-9.598,4.446-19.598,3.858-29.518,2.057
	c-3.626-0.659-7.001-2.972-10.357-4.777c-1.863-1.003-3.453-2.522-5.273-3.889c-1.347,1.071-2.403,1.852-3.396,2.708
	c-6.649,5.729-14.441,8.262-23.093,8.262c-8.361,0-14.783-4.21-19.751-10.419c-4.643-5.799-5.288-18.619,5.32-25.084
	c3.429-2.092,6.902-4.19,10.569-5.784c3.135-1.368,4.309-3.434,4.07-6.665c-0.074-1.003,0.056-2.019,0.018-3.031
	c-0.174-4.515,1.442-8.213,4.924-11.083c0.389-0.318,0.755-0.665,1.119-1.015c7.115-6.815,15.02-9.928,24.589-5.345
	c0.442,0.211,0.959,0.291,1.453,0.361C-186.386,117.727-186.05,117.648-184.894,117.569 M-152.328,113.406
	c-1.729-1.434-0.34-3.062-0.149-4.558c0.597-4.658-2.727-9.691-7.072-9.959c-6.229-0.386-12.009,0.992-16.305,6.034
	c-4.378,5.144-6.253,10.687-2.46,17.078c0.801,1.348,1.281,3.146-0.358,4.005c-0.874,0.458-2.579-0.002-3.578-0.602
	c-4.491-2.707-9.16-4.979-14.367-5.64c-2.226-0.285-4.784-0.2-6.814,0.641c-8.875,3.679-13.049,11.346-11.844,20.993
	c0.645,5.161,0.336,5.147-4.656,7.128c-4.471,1.775-8.98,3.831-12.877,6.605c-6.981,4.973-7.31,13.581-1.288,19.596
	c10.734,10.729,30.131,8.745,38.652-3.907c0.952-1.414,2.204-2.624,3.722-4.401c2.682,7.552,8.131,10.967,14.321,12.659
	c12.43,3.396,24.53,1.981,35.755-4.652c2.264-1.337,4.274-3.238,6.099-5.174c2.931-3.1,2.892-5.527,0.353-8.927
	c-0.56-0.753-1.012-1.589-1.54-2.426c2.142-2.362,4.521-1.214,6.766-1.221c3.976-0.013,8.357,0.812,11.838-0.573
	c5.979-2.379,11.492-6.031,16.98-9.505c1.335-0.845,2.252-2.968,2.606-4.665c1.36-6.53-4.117-14.087-10.696-15.005
	c-1.773-0.244-3.284-0.605-3.663-2.967c0.714-0.937,1.51-1.991,2.316-3.04c6.162-8.001,5.558-13.494-2.188-19.886
	c-0.519-0.427-1.013-0.888-1.568-1.262c-4.96-3.305-10.461-6.56-16.304-5.434c-9.779,1.883-16.848,5.024-19.167,15.727
	C-150.103,111.392-150.046,113.247-152.328,113.406"/>
<path fill="#231F20" d="M876.807,153.844c1.717-0.11,3.464-0.489,5.139-0.286c7.115,0.873,14.352,1.382,20.78,5.087
	c2.058,1.182,3.902,0.432,5.739-0.367c5.729-2.482,11.689-4.096,17.881-4.684c2.343-0.224,4.968-1.207,7.088,1.14
	c-0.39,2.358-2.196,2.107-3.802,2.432c-5.22,1.048-10.454,2.084-15.602,3.442c-2.035,0.538-3.897,1.839-5.76,2.93
	c-2.513,1.471-5.171,1.806-6.896-0.16c-4.208-4.802-9.842-5.195-15.492-5.912c-3.066-0.392-6.087-1.14-9.131-1.727
	C876.771,155.106,876.789,154.476,876.807,153.844"/>
<path fill="#231F20" d="M885.086,187.67c6.535,1.186,10.199,6.213,15.047,10.169c1.336-0.539,2.856-1.134,4.367-1.762
	c5.493-2.291,11.184-3.494,17.131-2.894c1.644,0.167,3.226,0.933,4.954,1.456c-1.221,2.758-3.114,2.316-4.635,2.207
	c-7.401-0.549-14.19,1.035-20.589,4.937c-3.773,2.295-4.963,1.458-7.635-2.351c-1.896-2.701-4.444-4.945-6.732-7.358
	C886.03,191.062,884.153,190.661,885.086,187.67"/>
<path fill="#231F20" d="M968.133,177.092c0.372,2.636-0.914,3.12-2.314,3.176c-8.344,0.343-15.415,4.016-22.204,8.455
	c-1.934,1.266-3.844,1.281-5.495-0.332c-3.917-3.834-7.743-7.759-11.774-11.822c1.562-1.889,3.21-1.252,4.713-0.13
	c2.143,1.601,4.268,3.252,6.213,5.087c3.053,2.877,5.875,3.207,9.836,1.19c4.862-2.47,10.249-3.948,15.502-5.538
	C964.344,176.647,966.368,177.092,968.133,177.092"/>
<path fill="#231F20" d="M368.229,280.347c0,0-0.406,0.284-0.403,0.284c-2.734-0.208-4.152-1.565-4.439-4.439
	c-0.653-6.495-1.57-12.962-2.244-19.459c-0.112-1.089,0.16-2.469,0.792-3.306c0.589-0.779,1.896-1.38,2.872-1.355
	c0.56,0.011,1.502,1.381,1.569,2.202C367.073,262.958,367.631,271.65,368.229,280.347"/>
<path fill="#231F20" d="M491.482,268.022c0.253,2.254,0.687,4.014,0.602,5.747c-0.234,4.659-0.602,9.317-1.099,13.958
	c-0.172,1.61-0.551,3.395-1.451,4.654c-0.58,0.812-2.339,1.197-3.451,1.022c-0.592-0.093-1.364-1.813-1.312-2.761
	c0.325-5.996,0.8-11.986,1.353-17.964C486.386,269.83,486.796,269.565,491.482,268.022"/>
<path fill="#231F20" d="M773.135,373.116c-3.797,3.844-13.675,4.175-18.6,0.961C758.346,371.458,764.095,371.115,773.135,373.116"/>
<path fill="#00ADDD" d="M-103.54,356.428c0.885,5.11,1.815,9.633,2.349,14.212c0.114,0.984-0.997,2.396-1.913,3.167
	c-3.015,2.531-6.78,2.255-10.347,2.688c-2.822-3.528-1.551-7.616-2.278-11.283c-0.098-0.496,0.404-1.339,0.875-1.686
	C-111.551,361.093-108.664,357.97-103.54,356.428"/>
<path fill="#00ADDD" d="M241.431,389.261c-0.079,0.058-0.208,0.217-0.357,0.236c-9.013,1.325-9.674,0.844-10.633-8.105
	c-0.195-1.829-0.216-3.69-0.143-5.533c0.155-3.85,1.509-5.115,5.214-5.091c3.3,0.029,4.35,1.21,4.679,5.103
	C240.557,380.188,240.988,384.503,241.431,389.261"/>
<path fill="#00ADDD" d="M276.242,357.29c-0.102,1.821-0.115,3.332-0.287,4.82c-0.183,1.557-1.166,2.308-2.722,2.353
	c-1.515,0.045-2.799-0.507-2.892-2.095c-0.199-3.472-0.325-6.969-0.069-10.423c0.058-0.812,1.696-1.928,2.729-2.085
	c0.735-0.11,2.176,0.989,2.428,1.821C275.998,353.564,276.03,355.61,276.242,357.29"/>
<path fill="#00ADDD" d="M-81.473,323.973c6.571-1.5,8.421-0.22,8.282,5.105c-0.081,3.104-0.93,4.1-3.631,4.262
	c-3.122,0.191-4.284-0.665-4.615-3.772C-81.63,327.785-81.473,325.97-81.473,323.973"/>
<path fill="#00ADDD" d="M125.614,347.454c-3.71-0.827-5.367-3.421-6.041-6.958c-0.457-2.397-1.097-4.764-1.785-7.689
	c2.017-0.293,3.539-0.51,5.41-0.781c1.31,5.354,2.479,10.3,2.363,15.477C125.56,347.502,125.614,347.454,125.614,347.454"/>
<path fill="#00ADDD" d="M121.469,366.09c-1.775-3.333-3.685-6.604-5.234-10.043c-0.449-0.994-0.245-2.722,0.37-3.626
	c0.449-0.67,2.322-1.048,3.074-0.646c0.934,0.503,1.812,1.899,1.928,2.995c0.387,3.619,0.418,7.275,0.588,10.916
	C121.952,365.823,121.711,365.958,121.469,366.09"/>
<path fill="#00ADDD" d="M-16.434,153.28c2.844,4.905,2.694,9.645,3.289,14.173c0.071,0.538-1.108,1.369-1.854,1.812
	c-0.204,0.123-1.363-0.656-1.372-1.037C-16.468,163.539-16.434,158.844-16.434,153.28"/>
<path fill="#00ADDD" d="M49.195,349.006c-3.353-2.37-4.051-6.744-2.046-10.387C49.843,341.809,48.904,345.521,49.195,349.006"/>
<path fill="#00ADDD" d="M-12.762,137.527c3.48,4.316,3.243,5.613-1.233,7.959C-13.531,142.493-13.147,140.012-12.762,137.527"/>
<path fill="#00ADDD" d="M758.465,286.743c-1.363-9.303-2.617-17.843-2.303-27.187c3.002,0,5.628-0.101,8.238,0.025
	c3.119,0.147,3.651,0.699,3.718,4.054c0.117,5.874,0.133,11.752,0.105,17.634c-0.016,3.734-0.402,4.196-4.168,4.969
	C762.471,286.565,760.818,286.545,758.465,286.743"/>
<path fill="#00ADDD" d="M767.484,255.05c-3.451,0.327-7.016,0.669-11.171,1.069c0-1.489-0.112-2.938,0.024-4.361
	c0.314-3.214,0.909-3.699,4.05-3.562c1.158,0.053,2.307,0.203,3.461,0.307C768.974,248.954,769.277,249.467,767.484,255.05"/>
<path fill="#00ADDD" d="M655.76,280.009c2.134,9.407,1.009,11.677-5.553,12.161C650.057,287.431,652.985,284.262,655.76,280.009"/>
<path fill="#00ADDD" d="M758.824,244.157c-0.403-3.113,0.461-4.55,2.952-4.761c0.815-0.068,1.64-0.062,2.458-0.049
	c1.84,0.032,3.878-0.062,3.782,2.631c-0.079,2.254-1.883,2.469-3.562,2.482C762.689,244.475,760.923,244.279,758.824,244.157"/>
<path fill="#00ADDD" d="M765.389,230.336c1.016,1.318,2.182,2.161,2.097,2.855c-0.257,2.228-2.284,2.104-3.808,1.904
	c-0.803-0.104-1.474-1.248-2.203-1.921C762.634,232.335,763.788,231.499,765.389,230.336"/>
<path fill="#00ADDD" d="M764.575,227.348c-0.717-2.903-0.717-2.903,0.624-4.939C765.967,224.757,765.967,224.757,764.575,227.348"/>
<path fill="#00ADDD" d="M353.694,313.227c-0.053-2.899-0.2-5.842-0.136-8.785c0.052-2.397,1.856-2.906,3.806-3.096
	c2.203-0.216,3.492,0.768,3.829,2.975c0.099,0.665,0.16,1.33,0.219,2C361.922,312.291,360.789,313.412,353.694,313.227"/>
<path fill="#00ADDD" d="M476.236,311.528c0.705-2.016,1.388-3.671,1.849-5.384c0.428-1.593,1.081-2.841,2.909-2.789
	c2,0.05,2.238,1.711,2.463,3.167c0.213,1.401,0.181,2.843,0.277,4.638C480.884,311.3,478.544,311.415,476.236,311.528"/>
<path fill="#00ADDD" d="M359.226,295.891c1.54-4.835,4.905-7.938,9.446-10.231C368.18,289.769,363.996,294.548,359.226,295.891"/>
<path fill="#231F20" d="M-20.708,346.863c-0.444-6.579-1.019-12.731-1.242-18.893c-0.376-10.401-0.821-20.811-0.694-31.211
	c0.13-10.571,0.868-21.141,1.428-31.706c0.9-16.961,0.862-33.912-0.42-50.857c-0.05-0.668-0.249-1.378-0.088-1.996
	c0.149-0.577,0.614-1.418,1.059-1.5c0.706-0.131,1.938,0.035,2.189,0.496c0.695,1.274,1.284,2.738,1.41,4.172
	c1.296,14.925,1.96,29.854,0.299,44.804c-0.277,2.502-0.174,5.043-0.228,7.566c-0.261,12.099-0.813,24.206-0.688,36.3
	c0.12,11.758,0.937,23.513,1.439,35.265c0.058,1.343,0.143,2.694,0.066,4.033C-16.305,345.55-17.659,346.52-20.708,346.863"/>
<path fill="#231F20" d="M-6.332,272.697c0.396,5.81,0.95,10.767,1.032,15.735c0.177,10.525,0.109,21.051,0.141,31.581
	c0.021,6.866,0.093,13.729,0.002,20.593c-0.013,1.038-0.519,2.358-1.257,3.044c-1.484,1.371-3.413,0.198-3.553-2.326
	c-0.232-4.18-0.166-8.369-0.256-12.558c-0.08-3.845-0.193-7.695-0.314-11.54c-0.036-1.174-0.226-2.346-0.201-3.514
	c0.244-11.389,0.5-22.781,0.797-34.169C-9.877,277.147-10.271,274.478-6.332,272.697"/>
<path fill="#231F20" d="M0.374,339.882c-2.673-5.124-2.384-19.913,0.604-24.318c0.534,0.948,1.283,1.706,1.364,2.529
	c0.526,5.308,1.125,10.623,1.231,15.95C3.617,336.247,3.672,339.188,0.374,339.882"/>
<path fill="#231F20" d="M-7.628,208.927c0.241,2.087,0.501,4.181,0.72,6.271c0.278,2.671,0.656,5.342,0.692,8.016
	c0.008,0.755-0.918,1.938-1.643,2.156c-0.68,0.205-2.255-0.44-2.416-1.002c-1.236-4.355-2.326-8.811-0.849-13.32
	c0.311-0.953,1.434-1.638,2.185-2.442C-8.502,208.712-8.065,208.821-7.628,208.927"/>
</svg>
