<?xml version="1.0" encoding="utf-8"?>
<!-- Generator: Adobe Illustrator 15.1.0, SVG Export Plug-In . SVG Version: 6.00 Build 0)  -->
<!DOCTYPE svg PUBLIC "-//W3C//DTD SVG 1.1//EN" "http://www.w3.org/Graphics/SVG/1.1/DTD/svg11.dtd">
<svg version="1.1" id="Layer_1" xmlns="http://www.w3.org/2000/svg" x="0px" y="0px"
	 width="150px" height="114px" viewBox="0 0 150 114"  xml:space="preserve">
<g>
	<path fill="#231F20" d="M134.917,46.154c-0.569-0.301-1.189-0.511-1.8-0.71c-1.93-0.649-3.92-1.16-5.79-1.95
		c-1.06-0.449-9.33-2.5-9.61-2.59c-1.039-0.33-3.09-1.051-3.09-1.051s-12.41-4.39-13.399-4.729c-1.271-0.431-2.5-0.991-3.75-1.5
		c-0.96-0.381-1.391-1.031-1.41-2.121c-0.06-2.29-0.21-4.57-0.44-6.839c-0.08-0.761-0.439-1.531-0.869-2.181
		c-0.19-0.29-0.881-0.439-1.28-0.359c-0.29,0.049-0.7,0.639-0.67,0.92c0.42,3.509-0.48,6.5-1.21,7.219
		c-0.45-1.01-0.92-5.41-1.36-6.2c-0.6-1.079-1.57-1.329-2.66-0.779c-1.319,0.671-1.93,2.091-1.2,3.45
		c1.08,2.02,0.87,4.189,1.101,6.319c0.05,0.47-0.021,1.021-0.22,1.45c-0.181,0.39-0.57,0.76-0.95,0.96
		c-2.08,1.081-4.24,2-6.261,3.18c-1.67,1.181-1.67,1.181-3.699,0.42c-3.051-1.159-6.141-2.279-9.12-3.6
		c-4.181-1.85-8.29-3.86-12.41-5.83c-3.34-1.589-6.61-3.36-10.01-4.81c-4.82-2.061-9.74-3.88-14.62-5.83
		c-2.65-1.061-5.101-2.73-8.25-2.75c-0.07,0.051-0.22,0.109-0.4,0.171c-1.38,0.438-2.62,1.17-3.819,1.979
		c-0.12,0.08-0.24,0.151-0.37,0.21c-1.53,0.721-2.011,1.99-2.051,3.46c-0.029,1.66-0.609,2.392,0,4.181
		c0.75,2.22,4.511,4.461,5.431,4.671c0.6,0.13,1.18,0.38,1.76,0.589c3.82,1.39,7.69,2.6,11.74,3.24c3.46,0.56,6.88,1.45,10.28,2.301
		c3.71,0.929,7.39,1.989,11.079,2.969c2.511,0.67,5.04,1.23,7.521,1.99c1.38,0.42,3.54,0.94,4.49,2.31
		c-0.24,0.261-1.15,0.591-1.391,0.7c-2.479,1.111-4.949,2.24-7.47,3.25c-4.07,1.641-8.229,3.071-11.95,5.46
		c-0.96,0.62-2.609,1.49-3.649,1.96c-2.32,1.061-4.7,2.011-6.92,3.25c-3.45,1.92-6.761,4.09-10.12,6.16
		c-0.36,0.23-0.681,0.54-0.98,0.851c-1.149,1.229-1.3,2.569-0.37,3.979c0.4,0.61,1.011,1.09,1.4,1.71
		c0.34,0.55,0.7,1.21,0.689,1.821c-0.02,1.699-0.239,3.389-0.399,5.34c-2.26,0.439-2.101,0.949-3.25,3.269
		c0.06,0.551,0.47,1.171,0.91,1.36c1.449,0.661,2.52,1.121,4.04,1.6c1.939,0.602,3.319,1.23,5.279,1.771
		c2.08,0.569,4.221,1.379,6.311,1.91c5.03,1.25,9.49,3.039,14.52,4.289c2.391,0.591,4.74,1.33,7.141,1.899
		c2.63,0.63,5.29,1.17,7.939,1.7c1.561,0.321,3.141,0.55,4.7,0.821c0.66,0.119,1.33-0.12,1.74-0.651
		c1.25-1.609,2.91-2.729,4.729-3.58c1.391-0.649,2.88-1.099,4.261-1.769c3.6-1.75,7.14-3.631,10.76-5.341
		c3.46-1.63,7-3.08,10.49-4.65c6.02-2.7,12-5.5,18.05-8.14c3.13-1.36,6.12-2.94,8.96-4.811c0.699-0.46,1.479-1.09,1.75-1.819
		c0.47-1.239,0.729-2.62,0.76-3.94c0.07-2.81,0.03-5.629-0.15-8.44c-0.109-1.77,0.261-3.42,0.78-5.05
		C136.537,48.045,136.027,46.714,134.917,46.154 M86.067,37.313c0.06,1.642-0.8,2.801-1.45,4c-0.18,0.33-1,0.551-1.46,0.46
		c-1.149-0.22-2.22-1.119-3.75-1.789C81.258,38.585,84.077,38.144,86.067,37.313 M64.058,41.034c-5.07-1.55-10.12-3.181-15.23-4.55
		c-3.99-1.069-8.069-1.75-12.1-2.689c-2.391-0.561-4.771-1.21-7.12-1.951c-3.78-1.179-7.51-2.53-11.03-4.399
		c-1.64-0.87-2.29-2.899-1.41-4.551c0.45-0.84,0.801-1.819,1.92-2.13c0.24-0.069,0.391-0.439,0.631-0.609
		c0.01-0.011,0.02-0.011,0.02-0.011c1-0.71,2.26-0.938,3.46-0.688c0.89,0.199,1.7,0.38,2.48,0.63c2.58,0.849,5.109,1.819,7.67,2.729
		c3.479,1.231,7,2.352,10.439,3.69c3.74,1.44,7.41,3.05,11.08,4.64c3.79,1.641,7.561,3.312,11.311,5.04
		c3.409,1.58,6.77,3.271,10.17,4.87c1.34,0.63,2.729,1.141,4.08,1.741c0.56,0.25,1.109,0.529,1.63,0.859
		c0.649,0.42,0.56,1.029,0.27,1.641c-0.3,0.609-0.75,0.679-1.38,0.509c-0.56-0.139-1.16-0.09-1.74-0.139
		c-0.3-0.031-0.609-0.051-0.89-0.131c-3.12-0.949-6.24-1.891-9.35-2.869C67.317,42.144,65.707,41.534,64.058,41.034 M65.857,93.404
		c-1.93-0.351-3.71-0.989-5.65-1.391c-5.069-1.02-10.12-2.13-15.1-3.51c-3.811-1.049-7.71-1.77-11.35-3.47
		c-1.98-0.931-4.23-1.311-6.391-1.84c-0.95-0.23-3.41-1.95-2.17-1.609c2.021,0.379,4.021,0.599,5.93,1.159
		c3.24,0.97,6.391,2.25,9.631,3.22c4.079,1.23,8.199,2.29,12.3,3.42c1.96,0.55,3.92,1.11,5.88,1.63c1.729,0.46,3.479,0.84,5.2,1.311
		c0.479,0.131,0.97,0.229,1.439,0.39c0.391,0.121,0.811,0.18,1.22,0.21c1.561,0.11,3.11,0.411,4.74,1.63
		C69.337,94.494,67.457,94.384,65.857,93.404 M72.627,93.313c-0.729-0.319-1.5-0.55-2.14-0.97c-1.36-0.91-2.84-1.34-4.44-1.7
		c-3.06-0.71-6.05-1.71-9.09-2.54c-1.72-0.47-3.479-0.79-5.189-1.279c-4.63-1.33-9.23-2.71-13.851-4.07
		c-2.12-0.629-4.26-1.23-6.38-1.879c-0.7-0.221-1.38-0.551-2.04-0.871c-0.529-0.25-0.52-2.1-0.439-3.12
		c0.06-0.7-0.29-2.189,0.38-4.1c0.07-0.221,0.21-0.431,0.33-0.67c0.399,0,0.779-0.091,1.12,0.011c3.14,0.909,6.27,1.849,9.399,2.779
		c3.311,0.979,6.62,1.96,9.931,2.939c4.02,1.19,8.06,2.321,12.05,3.59c1.93,0.611,3.76,1.521,5.66,2.231
		c0.979,0.369,2.02,0.589,3.02,0.889c1.53,0.44,1.71,0.66,1.76,2.151c0.08,1.969,0.15,3.949,0.2,5.92
		C72.917,92.784,72.787,92.955,72.627,93.313 M129.947,68.085c-0.62,0.389-12.43,5.219-13.32,5.609c-2.989,1.29-5.989,2.55-9,3.8
		c-1.069,0.439-2.18,0.801-3.26,1.229c-0.63,0.24-4.03,1.92-5.22,2.231c-0.79,0.199-12.271,7.229-13.87,7.329
		c-0.16,0.18-5.91,3.5-8.67,4.6c-0.1-0.11-0.2-0.219-0.311-0.33l0.11-2.2c0-1.64,0.021-3.35-0.01-5.069
		c-0.021-0.829-1.51-4.391-0.99-4.579c3.15-1.142,15.23-6.131,15.88-7.321c0.141-0.259,5.811-3.52,7.38-4.049
		c1.63-0.562,2.391-1.301,3.95-2.011c0.94-0.431,4.91-2.181,6.61-2.98c1.109-0.53,2.229-1.09,3.399-1.42
		c1.15-0.33,4.74-3.08,5.931-3.25c0,0,2.069-0.58,2.95-0.95c0,0,4.649-2.389,5.38-3.37c0.71-0.949,4.43-1.8,5.47-2.39
		c0,3.04,0.71,10.241,0.71,13.14C132.607,66.354,130.617,67.665,129.947,68.085 M132.077,49.773c-5.87,3.03-11.74,6.051-17.61,9.062
		c-2.359,1.21-4.729,2.389-7.09,3.609c-0.76,0.391-1.46,0.409-2.3,0.17c-2.92-0.87-5.93-1.13-8.97-1.159
		c-0.29,0-0.65,0.039-0.87,0.21c-0.2,0.148-0.35,0.489-0.37,0.759c0,0.161,0.271,0.451,0.46,0.491
		c0.601,0.108,1.22,0.179,1.83,0.179c2.32,0.021,3.86,0.01,6.18,0.01c0.03,0.131,0.841,0.261,0.88,0.391
		c-0.159,0.149-0.3,0.33-0.479,0.421c-3.28,1.719-6.54,3.469-9.86,5.108c-4.09,2.04-8.229,3.961-12.33,5.971
		c-1.38,0.68-2.689,1.5-4.079,2.18c-0.921,0.46-1.921,0.76-2.87,1.161c-0.49,0.219-0.96,0.489-1.431,0.759
		c-0.8,0.46-1.569,0.97-2.39,1.38c-0.37,0.181-0.86,0.29-1.24,0.2c-3.229-0.78-6.55-1.339-9.64-2.49c-3.79-1.399-7.67-2.279-11.61-3
		c-0.24-0.04-0.479-0.109-0.72-0.189c-2.67-0.931-5.31-1.931-8.01-2.76c-1.641-0.511-3.391-0.671-5.05-1.12
		c-2.261-0.601-4.5-1.29-6.721-2.029c-1.66-0.562-1.75-1.321-0.319-2.42c0.729-0.562,1.6-0.941,2.35-1.481
		c2.36-1.71,4.99-2.849,7.69-3.91c2.05-0.81,3.85-2.21,5.84-3.21c3.739-1.869,7.54-3.64,11.31-5.47c0.89-0.429,1.71-1.009,2.62-1.37
		c3.09-1.239,6.2-2.429,9.31-3.59c0.891-0.339,1.671-0.64,2.101-1.64c0.17-0.409,0.97-0.811,1.46-0.789
		c1.09,0.049,2.21,0.259,3.24,0.608c2.449,0.83,4.85,1.78,7.52,2.771c-0.76,2.349,0.94,3.438-2.26,6.719
		c-0.4,0.891-1.64,1.38-2.49,2.08c-0.649,0.531-1.39,1.021-1.89,1.67c-0.601,0.8-0.42,1.521,0.479,2.01
		c0.69,0.37,1.49,0.602,2.271,0.74c2.359,0.44,4.729,0.851,7.109,1.181c0.91,0.13,1.86,0.09,2.771-0.021
		c1.24-0.15,1.75-0.69,1.76-1.97c0.01-2.021,0.33-4.101-0.91-5.94c-0.18-0.27-0.25-0.75-0.14-1.04c0.65-1.729,1.36-3.439,2.07-5.139
		c0.06-0.141,0.279-0.21,0.52-0.361c0.28,0.2,0.561,0.42,0.85,0.62c1.5,1.031,2.58,0.98,3.771-0.339c0.7-0.771,1.33-1.641,1.8-2.571
		c0.82-1.63,0.34-2.849-1.3-3.649c-0.43-0.21-1.68-0.58-2.271-0.779c-0.029-2.38,1.19-4.351,2.25-6.71
		c0.73,0.199,1.44,0.319,2.091,0.589c1.699,0.701,3.359,1.531,5.069,2.201c2.181,0.849,4.391,1.639,6.61,2.379
		c4.979,1.65,9.99,3.21,14.96,4.89c2.57,0.87,5.07,1.92,7.6,2.91c0.44,0.17,0.84,0.48,1.44,0.83
		C132.657,49.254,132.407,49.594,132.077,49.773"/>
	<path fill="#00ADDD" d="M82.327,45.294c-0.3,0.609-0.75,0.681-1.38,0.511c-0.56-0.141-1.16-0.09-1.74-0.141
		c-0.3-0.029-0.609-0.051-0.89-0.131c-3.12-0.949-6.24-1.889-9.35-2.869c-1.65-0.52-3.261-1.131-4.91-1.631
		c-5.07-1.55-10.12-3.179-15.23-4.55c-3.989-1.069-8.069-1.75-12.1-2.689c-2.39-0.561-4.771-1.21-7.12-1.949
		c-3.78-1.181-7.51-2.53-11.03-4.401c-1.64-0.87-2.29-2.899-1.41-4.549c0.45-0.84,0.801-1.821,1.921-2.13
		c0.239-0.071,0.39-0.441,0.63-0.611c0.01-0.009,0.02-0.009,0.02-0.009c1-0.71,2.26-0.94,3.46-0.69c0.891,0.199,1.7,0.38,2.48,0.63
		c2.58,0.851,5.109,1.819,7.67,2.73c3.479,1.229,7,2.35,10.439,3.69c3.74,1.438,7.41,3.05,11.08,4.64
		c3.79,1.639,7.561,3.31,11.311,5.04c3.41,1.58,6.77,3.27,10.17,4.87c1.34,0.63,2.729,1.139,4.08,1.739
		c0.56,0.25,1.109,0.529,1.63,0.859C82.707,44.073,82.617,44.685,82.327,45.294"/>
	<path fill="#00ADDD" d="M133.067,66.104c-0.46,0.25-2.45,1.562-3.12,1.98c-0.62,0.39-12.43,5.22-13.32,5.61
		c-2.989,1.29-5.989,2.55-9,3.8c-1.069,0.439-2.18,0.8-3.26,1.229c-0.63,0.24-4.03,1.92-5.22,2.231
		c-0.79,0.199-12.271,7.229-13.87,7.329c-0.16,0.18-5.91,3.5-8.67,4.6c-0.1-0.109-0.2-0.219-0.311-0.33l0.11-2.2
		c0-1.64,0.021-3.35-0.01-5.069c-0.021-0.829-1.51-4.391-0.99-4.579c3.15-1.141,15.23-6.131,15.88-7.321
		c0.141-0.259,5.811-3.52,7.38-4.05c1.63-0.56,2.391-1.3,3.95-2.01c0.94-0.431,4.91-2.181,6.61-2.98
		c1.109-0.529,2.229-1.09,3.399-1.42c1.15-0.33,4.74-3.08,5.931-3.25c0,0,2.069-0.58,2.95-0.95c0,0,4.649-2.39,5.38-3.37
		c0.71-0.949,4.43-1.8,5.47-2.39C132.357,56.004,133.067,63.205,133.067,66.104"/>
	<path fill="#231F20" d="M92.313,56.778c1.521-1.321,2.838-2.161,4.484-2.625c3.014-0.849,5.963-1.927,8.948-2.882
		c0.535-0.171,1.276-0.662,1.599,0.153c0.344,0.873-0.494,1.174-1.109,1.388c-1.854,0.646-3.722,1.265-5.605,1.817
		c-2.299,0.675-4.62,1.277-6.935,1.901C93.357,56.622,93.006,56.657,92.313,56.778"/>
	<path fill="#231F20" d="M65.383,60.491c-3.439-1.347-7.427-1.132-10.455-3.647c0.043-0.132,0.086-0.264,0.128-0.397
		c1.682,0.595,3.362,1.188,5.045,1.781l0.177-0.441c-0.803-0.303-1.609-0.595-2.407-0.907c-0.754-0.295-1.648-0.451-1.825-1.811
		c3.245,1.059,6.175,2.221,8.855,3.948c0.357,0.231,0.566,0.694,0.843,1.049C65.623,60.209,65.502,60.35,65.383,60.491"/>
	<path fill="#231F20" d="M67.717,59.2c-1.228-1.377-2.256-2.5-3.248-3.655c-0.845-0.98-1.673-1.978-2.444-3.016
		c-0.162-0.219-0.038-0.65-0.046-0.983c0.282,0.006,0.632-0.095,0.835,0.034c2.182,1.396,3.836,3.272,4.949,5.611
		c0.154,0.325,0.198,0.712,0.239,1.077C68.021,58.427,67.907,58.603,67.717,59.2 M65.465,55.305c0.116-0.101,0.233-0.2,0.351-0.301
		c-0.411-0.405-0.823-0.811-1.234-1.217c-0.086,0.087-0.172,0.174-0.258,0.26C64.703,54.467,65.084,54.886,65.465,55.305"/>
</g>
</svg>
