<?xml version="1.0" encoding="utf-8"?>
<!-- Generator: Adobe Illustrator 15.1.0, SVG Export Plug-In . SVG Version: 6.00 Build 0)  -->
<!DOCTYPE svg PUBLIC "-//W3C//DTD SVG 1.1//EN" "http://www.w3.org/Graphics/SVG/1.1/DTD/svg11.dtd">
<svg version="1.1" id="Layer_1" xmlns="http://www.w3.org/2000/svg" x="0px" y="0px"
	 width="272px" height="272px" viewBox="0 0 272 272"  xml:space="preserve">
<path fill="#231F20" d="M159.039,39.153c1.287-0.737,1.213-1.879,1.369-2.978c0.076-0.55,0.421-1.393,0.796-1.485
	c0.463-0.115,1.228,0.28,1.614,0.688c1.955,2.065,2.764,4.673,3.026,7.417c0.379,3.967-0.243,7.867-1.894,11.458
	c-1.918,4.177-5.526,6.601-9.866,7.712c-4.506,1.154-9.086,1.677-13.772,0.729c-2.328-0.472-4.769-0.613-7.15-0.555
	c-3.118,0.079-6.374,0.253-8.217,3.426c-2.063,3.55-2.795,7.319-1.183,11.25c1.344,3.282,3.27,6.244,5.643,8.863
	c1.928,2.129,4.06,4.072,6.092,6.107c1.723,1.725,3.764,2.946,5.989,3.906c1.172,0.505,2.276,1.163,3.437,1.695
	c4.065,1.867,5.94,5.226,6.29,9.493c0.175,2.138,0.042,4.308-0.049,6.46c-0.219,5.165,1.179,7.114,6.166,8.435
	c0.309,0.081,0.645,0.095,0.932,0.221c2.064,0.907,3.434,0.281,4.908-1.467c3.752-4.455,9.916-3.498,12.318,1.81
	c1.752,3.865,2.187,8.072,2.017,12.211c-0.24,5.814-0.826,11.63-1.603,17.399c-0.345,2.56-1.461,5.026-2.34,7.495
	c-0.508,1.424-1.238,2.768-1.879,4.145c-0.166,0.357-0.307,0.756-0.566,1.039c-3.064,3.361-6.02,6.839-9.282,9.998
	c-1.75,1.693-4.021,2.855-6.09,4.207c-0.815,0.531-1.539,0.471-2.326-0.342c-0.56-0.576-1.479-0.949-2.298-1.101
	c-3.899-0.724-5.733-3.249-6.156-6.958c-0.492-4.322-0.425-8.666,0.85-12.842c1.887-6.189,3.992-12.312,6.065-18.443
	c0.433-1.278,1.135-2.464,1.696-3.701c0.222-0.49,0.396-1.002,0.576-1.467c-2.111-1.585-2.465-1.47-3.36,0.641
	c-1.183,2.792-2.642,5.48-3.649,8.33c-1.253,3.535-2.471,7.135-3.15,10.809c-0.869,4.699-1.323,9.49-1.696,14.261
	c-0.253,3.226,0.989,6.106,3.028,8.628c1.834,2.267,4.41,3.348,6.975,4.459c0.143,0.062,0.324,0.031,0.471,0.085
	c3.254,1.231,5.898,0.731,8.299-2.089c2.055-2.414,4.685-4.328,6.971-6.555c5.693-5.547,8.781-12.482,10.475-20.116
	c0.707-3.186,1.67-6.3,1.735-9.64c0.133-6.75-0.081-13.438-2.209-19.913c-0.988-3.006-2.349-5.85-5.418-7.294
	c-3.054-1.436-6.216-1.994-9.499-0.64c-0.905,0.374-1.874,0.593-2.87,0.9c-0.328-1.408,0.483-1.828,1.187-2.039
	c1.672-0.5,3.398-1.159,5.102-1.155c3.275,0.006,6.51,0.474,9.471,2.18c3.387,1.954,6.939,3.621,10.303,5.612
	c6.396,3.787,12.748,7.65,19.043,11.605c6.223,3.91,12.362,7.955,18.52,11.971c5.415,3.534,10.77,7.16,16.211,10.65
	c5.652,3.625,11.402,7.098,17.062,10.712c3.433,2.192,6.793,4.499,10.15,6.806c1.589,1.092,1.414,2.704-0.428,3.453
	c-1.547,0.63-3.168,1.161-4.809,1.452c-4.721,0.837-9.455,1.624-14.209,2.257c-5.703,0.757-11.418,1.494-17.151,1.947
	c-6.132,0.484-12.291,0.623-18.438,0.928c-13.095,0.645-26.189,1.301-39.283,1.949c-5.43,0.27-10.861,0.526-16.291,0.803
	c-0.91,0.047-1.674-0.061-2.41-0.749c-0.543-0.51-1.355-0.81-2.101-1.014c-2.748-0.757-5.173-2.089-7.374-3.876
	c-2.947-2.393-4.576-5.582-5.083-9.239c-0.438-3.167-0.282-6.382,0.507-9.527c0.213-0.851,0.446-1.712,0.52-2.581
	c0.383-4.58,1.747-8.938,3.054-13.297c0.591-1.972,1.576-3.829,2.39-5.736c1.028-2.415,2.064-4.825,3.16-7.385
	c-0.662-0.634-1.197-1.199-1.785-1.7c-3.633-3.106-5.728-7.064-6.176-11.782c-0.129-1.353,0.332-2.848,0.834-4.159
	c1.271-3.331,1.711-6.63,0.303-10.014c-1.225-2.942-3.043-5.495-5.682-7.252c-3.514-2.34-7.116-4.579-10.832-6.579
	c-4.162-2.241-7.896-5.055-10.626-8.807c-2.977-4.092-5.291-8.687-4.042-14.079c0.372-1.607,0.988-3.259,1.899-4.619
	c2.37-3.539,5.107-6.76,9.115-8.625c1.802-0.838,3.495-1.918,5.316-2.71c1.923-0.835,3.947-0.95,6.083-0.76
	c4.519,0.401,9.078,1.072,13.567-0.256c1.062-0.315,2.164-0.668,3.09-1.255c3.355-2.129,3.456-3.029,2.875-6.049
	c-0.403-2.095-0.448-4.28-0.451-6.426c-0.002-1.597,0.911-1.98,2.139-0.974c0.985,0.807,1.834,1.781,2.771,2.651
	C158.139,38.537,158.597,38.822,159.039,39.153 M265.363,174.838c0.019-0.213,0.035-0.426,0.054-0.639
	c-0.294-0.251-0.563-0.537-0.886-0.746c-4.745-3.096-9.476-6.221-14.256-9.263c-8.283-5.272-16.629-10.449-24.896-15.75
	c-6.856-4.397-13.612-8.954-20.46-13.367c-5.975-3.85-12.008-7.611-18.035-11.38c-1.012-0.632-2.122-1.11-3.193-1.647
	c-1.097-0.549-2.201-1.084-3.574-1.758c0.101,0.704,0.091,1.027,0.195,1.307c2.461,6.499,2.616,13.286,2.441,20.095
	c-0.061,2.385-0.247,4.808-0.754,7.129c-0.766,3.508-1.822,6.955-2.833,10.406c-1.3,4.438-3.747,8.271-6.621,11.824
	c-2.621,3.24-5.66,6.072-8.999,8.578c-1.045,0.785-1.956,1.699-2.791,3.078c1.023-0.023,1.656-0.023,2.288-0.057
	c5.345-0.275,10.687-0.602,16.034-0.824c8.777-0.365,17.56-0.614,26.336-1.002c7.021-0.309,14.037-0.758,21.056-1.125
	c1.752-0.092,3.522,0.024,5.261-0.174c8.176-0.928,16.351-1.871,24.508-2.938C259.304,176.186,262.324,175.431,265.363,174.838
	 M151.805,173.889c0.158-0.039,0.317-0.076,0.475-0.113c0.203,0.231,0.416,0.453,0.605,0.695c0.245,0.314,0.439,0.675,0.712,0.963
	c0.829,0.872,1.942,1.084,2.529,0.451c0.753-0.811,0.127-1.492-0.336-2.119c-0.997-1.35-2.073-2.643-3.054-4.007
	c-0.424-0.589-0.688-1.294-1.024-1.948c1.082-0.717,1.649-0.268,2.134,0.287c0.631,0.723,1.203,1.493,1.797,2.248
	c0.838,1.068,1.618,2.191,2.545,3.18c0.252,0.27,0.937,0.137,1.422,0.188c0.017-0.437,0.172-0.935,0.016-1.298
	c-0.213-0.496-0.693-0.869-1.008-1.33c-1.44-2.106-2.891-4.207-4.268-6.355c-0.285-0.445-0.275-1.082-0.439-1.799
	c1.501,0.104,1.879,1.01,2.428,1.775c1.443,2.012,2.902,4.018,4.462,5.938c0.297,0.366,1.171,0.585,1.631,0.429
	c0.798-0.269,1.257-1.056,0.992-1.936c-0.178-0.592-0.592-1.123-0.956-1.645c-2.33-3.337-4.68-6.662-7.013-10
	c-0.397-0.568-0.915-1.146-0.323-1.892c1.553,0.335,1.643,0.274,2.486,1.521c1.474,2.18,2.777,4.476,4.246,6.66
	c0.953,1.416,2.069,2.721,3.119,4.082c1.929-1.695,2.026-2.203,0.787-3.982c-2.416-3.473-4.88-6.913-7.296-10.389
	c-0.51-0.732-1.38-1.383-0.909-2.567c1.34-0.313,1.934,0.63,2.475,1.47c1.296,2.014,2.501,4.086,3.76,6.122
	c1.238,2.007,2.614,3.901,4.303,5.629c1.514-1.366,0.795-2.356,0.084-3.354c-2.824-3.97-5.654-7.938-8.466-11.916
	c-0.428-0.606-1.137-1.185-0.358-2.372c4.732,3.854,6.457,9.98,10.886,14.061c1.005-1.543,1.694-2.785,0.548-4.363
	c-1.876-2.584-3.663-5.233-5.445-7.885c-1.248-1.855-2.445-3.744-3.617-5.648c-0.222-0.362-0.219-0.861-0.328-1.344
	c1.259-0.48,1.685,0.275,2.17,1.043c2.301,3.646,4.609,7.291,6.965,10.904c0.484,0.744,0.846,1.715,2.007,1.953
	c0.675-1.668,1.315-3.2,0.123-4.822c-2.363-3.218-4.722-6.438-7.05-9.681c-0.428-0.597-0.702-1.302-1.135-2.121
	c1.875-0.447,2.485,0.665,3.143,1.608c1.549,2.229,3.043,4.494,4.593,6.723c0.433,0.621,0.981,1.16,1.565,1.841
	c0.726-1.978,1.33-12.049,0.853-13.812c-1.019-0.15-2.11-0.398-3.21-0.456c-3.587-0.189-7.191-0.158-10.762-0.506
	c-2.584-0.252-4.13,0.681-4.973,3.034c-0.08,0.225-0.215,0.43-0.291,0.656c-2.349,6.877-4.801,13.721-6.994,20.646
	c-1.164,3.676-1.377,7.537-1.019,11.402c0.166,1.793,0.7,3.443,1.855,4.853c0.612,0.745,1.288,1.401,2.532,1.329
	C151.788,175.199,151.797,174.543,151.805,173.889 M130.273,90.138c-2.159-2.572-4.332-4.993-6.318-7.559
	c-4.105-5.302-4.635-11.085-1.848-17.129c1.099-2.384,2.808-4.34,5.5-4.98c4.087-0.973,8.226-1.055,12.36-0.268
	c5.4,1.025,10.682,0.746,15.711-1.601c2.5-1.166,4.837-2.755,5.775-5.476c0.88-2.549,1.477-5.229,1.882-7.899
	c0.239-1.575,0.295-3.33-0.999-5.097c-2.562,2.731-4.553,0.515-6.906-1.094c0.375,1.914,0.649,3.398,0.959,4.874
	c0.292,1.396,0.24,2.774-0.688,3.883c-0.912,1.091-1.898,2.196-3.062,2.985c-3.433,2.333-7.295,3.053-11.418,2.774
	c-3.343-0.227-6.747-0.667-10.041-0.287c-7.431,0.855-12.745,5.217-16.583,11.403c-1.318,2.125-1.891,4.699-1.361,7.177
	c0.826,3.87,2.512,7.418,5.28,10.326c3.128,3.286,7.138,5.366,10.911,7.763C129.657,90.08,129.982,90.072,130.273,90.138
	 M142.68,99.263c0.359,0.858,0.49,1.378,0.768,1.802c2.715,4.144,3.045,8.467,1.039,12.984c-0.131,0.292-0.229,0.598-0.366,0.886
	c-0.8,1.683-0.823,3.384-0.162,5.114c0.371,0.97,0.603,2.009,1.081,2.919c2.336,4.454,5.582,7.805,10.914,8.273
	c6.037,0.53,12.084,0.951,18.128,1.406c0.221,0.017,0.452-0.107,1.018-0.251c-0.288-1.918-0.579-3.839-0.915-6.071
	c-2.056-0.143-3.929-0.276-5.803-0.399c-2.309-0.151-4.648-0.107-6.92-0.482c-2.982-0.493-6-1.05-8.67-2.619
	c-2.658-1.563-4.317-3.689-4.078-7.012c0.184-2.545,0.141-5.107,0.191-7.661c0.074-3.638-1.912-6.142-4.598-8.232
	C143.972,99.659,143.492,99.583,142.68,99.263 M171.938,122.486c-1.996-3.656-5.596-3.579-7.812,0.004
	C166.626,123.329,169.355,123.348,171.938,122.486"/>
<path fill="#231F20" d="M113.496,103.631c-1.289,2.599-2.518,5.075-3.707,7.473c2.058,2.662,5.806,1.685,8.067,4.385
	c-0.965,0.469-1.601,0.927-2.305,1.096c-5.49,1.317-11.126,1.781-16.671,1.153c-4.542-0.515-8.788-2.393-11.631-6.421
	c-1.383-1.96-1.98-4.133-1.094-6.347c1.637-4.088,1.647-8.428,2.314-12.666c0.335-2.129,0.643-4.266,1.091-6.373
	c1.061-4.979,1.369-10.026,0.57-15.016c-1.031-6.441-5.998-12.029-12.588-13.68c-1.857-0.466-3.745-0.831-5.636-1.137
	c-2.565-0.416-4.723,0.342-6.375,2.425c-0.645,0.812-1.432,1.514-2.054,2.339c-0.852,1.134-1.838,2.246-2.365,3.532
	c-1.512,3.689-2.849,7.454-4.202,11.208c-0.723,2.007-1.657,2.279-3.303,0.819c-0.777-0.688-1.511-1.425-2.271-2.133
	c-1.438-1.339-1.825-1.417-3.607-0.585c-1.085,0.507-2.106,1.167-3.219,1.59c-0.508,0.193-1.412,0.201-1.698-0.11
	c-0.311-0.338-0.335-1.254-0.099-1.724c0.714-1.422,1.469-2.872,2.476-4.087c1.779-2.147,3.832-4.065,5.629-6.198
	c1.845-2.192,3.556-4.5,5.259-6.806c1.794-2.43,3.358-5.044,5.29-7.354c3.653-4.364,8.676-5.896,14.136-5.83
	c6.935,0.087,12.872,3.057,17.96,7.518c4.64,4.069,6.28,9.64,6.771,15.659c0.686,8.411-0.645,16.55-2.898,24.606
	c-0.579,2.072-0.889,4.219-1.368,6.32c-0.461,2.019-1.086,4.004-1.45,6.039c-0.59,3.302,0.819,4.806,4.198,4.562
	c3.066-0.221,6.031-0.767,8.387-3.029c0.63-0.604,1.384-1.082,2.094-1.6C110.985,101.956,111.403,101.986,113.496,103.631
	 M91.103,104.771c0.213,0.019,0.425,0.039,0.638,0.058c0.203-0.814,0.436-1.623,0.603-2.443c0.858-4.221,1.699-8.443,2.545-12.666
	c0.814-4.066,1.899-8.102,2.375-12.208c0.701-6.041,0.709-12.101-1.154-18.03c-1.273-4.05-3.705-7.268-7.014-9.748
	c-3.019-2.263-6.439-3.954-10.197-4.579c-7.877-1.312-14.985,2.21-18.478,9.649c-0.052,0.11,0.046,0.293,0.105,0.609
	c0.507-0.08,1.028-0.157,1.547-0.246c1.646-0.283,3.294-0.564,4.938-0.858c3.079-0.55,6.003,0.368,8.996,0.816
	c3.066,0.46,5.763,1.525,8.464,3.048c5.097,2.874,7.432,7.358,8.135,12.83c0.718,5.583,0.17,11.115-0.936,16.658
	c-0.855,4.286-1.103,8.697-1.494,13.064C90.052,102.115,90.234,103.57,91.103,104.771 M88.33,105.994
	c0.081,3.894,2.015,6.061,4.593,7.586c2.408,1.426,5.168,2.17,7.983,2.2c3.183,0.035,6.371-0.201,9.554-0.362
	c0.396-0.02,0.779-0.296,1.702-0.668c-1.674-0.68-2.842-1.132-3.991-1.627c-1.491-0.64-1.653-1.093-0.924-2.565
	c0.282-0.57,0.676-1.086,0.943-1.663c0.378-0.814,0.686-1.662,1.024-2.496l-0.417-0.353c-2.795,2.786-6.366,3.542-10.011,4.064
	C94.791,110.682,91.858,108.263,88.33,105.994 M54.295,74.061c0.735-1.683,1.372-3.042,1.926-4.434
	c0.941-2.368,1.711-4.815,2.789-7.117c0.551-1.175,1.59-2.131,2.456-3.146c0.529-0.619,1.489-0.893,1.629-2.046
	c-0.453,0.053-0.777,0.031-1.057,0.132c-2.966,1.068-5.665,2.511-7.676,5.072c-1.03,1.312-2.306,2.427-3.421,3.675
	c-1.406,1.573-2.761,3.191-4.062,4.703c1.47,0.116,2.902-0.085,4.031,0.407C52.129,71.839,53.066,73.021,54.295,74.061"/>
<path fill="#231F20" d="M125.83,183.244c1.576,0.588,2.96,0.977,4.224,1.605c1.904,0.947,1.955,2.521,0.077,3.564
	c-1.738,0.967-3.561,1.832-5.436,2.486c-2.156,0.752-4.088,1.803-5.779,3.312c-2.09,1.865-2.202,3.559-1.161,6.148
	c1.037,2.58,2.701,3.172,5.267,2.939c3.899-0.356,7.816-0.408,11.657,0.704c3.45,1,6.841,2.329,8.704,5.499
	c1.515,2.574,2.578,5.523,3.287,8.441c1.25,5.146-0.465,9.707-3.473,13.934c-2.794,3.926-6.8,6.205-10.816,8.533
	c-2.054,1.19-4.097,2.408-6.07,3.727c-2.391,1.597-2.802,4.352-0.736,6.35c1.279,1.239,2.955,2.188,4.613,2.887
	c2.717,1.146,5.563,1.986,8.356,2.954c0.227,0.077,0.545,0.065,0.672,0.22c0.533,0.641,1.25,1.267,1.445,2.015
	c0.264,1.022-0.66,1.493-1.506,1.857c-1.219,0.524-2.426,1.073-3.585,1.59c0.185,2.442,2.966,3.33,2.593,5.999
	c-0.899-0.076-1.731-0.12-2.557-0.225c-2.454-0.312-4.908-0.616-7.354-0.979c-4.517-0.67-8.011-3.021-10.711-6.635
	c-0.382-0.514-0.669-1.119-1.128-1.545c-0.733-0.678-0.918-1.379-0.692-2.354c0.177-0.764,0.161-1.598,0.091-2.388
	c-0.438-4.983,2.439-8.058,6.139-10.603c1.706-1.174,3.755-1.906,5.292-3.246c1.962-1.711,3.826-3.662,5.248-5.826
	c1.43-2.178,2.368-4.706,3.341-7.151c2.021-5.081-0.146-10.218-5.243-13.204c-4.383-2.567-9.019-4.441-13.915-5.719
	c-4.343-1.135-7.811-3.611-10.565-7.076c-3.143-3.955-3.023-9.035-0.719-12.818c1.94-3.186,4.453-5.764,7.871-7.508
	c3.158-1.611,6.337-3.033,9.848-3.627c0.314-0.054,0.628-0.123,0.945-0.152c2.788-0.255,3.155,0.16,2.542,2.846
	C126.351,180.885,126.113,181.97,125.83,183.244 M125.113,179.947l-0.33-0.754c-0.319,0.076-0.635,0.176-0.958,0.225
	c-5.306,0.807-10.268,2.451-14.256,6.22c-1.993,1.884-3.636,4.08-3.962,6.926c-0.473,4.123,1.684,7.008,4.753,9.321
	c1.589,1.197,3.448,1.812,5.608,1.692c-0.244-0.94-0.473-1.7-0.638-2.474c-0.809-3.792,0.174-6.895,3.372-9.283
	c2.078-1.553,4.227-2.836,6.805-3.344c0.995-0.197,1.976-0.543,2.407-2c-1.241-0.182-2.313-0.348-3.387-0.492
	c-1.87-0.252-2.181-0.889-1.195-2.526c0.288-0.478,0.687-0.895,0.931-1.39C124.6,181.386,124.835,180.656,125.113,179.947
	 M134.263,237.236c0.528-0.141,0.778-0.158,0.974-0.268c0.485-0.275,0.961-0.573,1.415-0.896c4.329-3.088,7.222-7.062,8.271-12.412
	c1.072-5.48-1.039-9.867-4.385-13.791c-2.668-3.129-6.623-3.776-10.435-4.16c-3.48-0.349-7.014-0.178-10.524-0.201
	c-0.421-0.003-0.844,0.217-1.581,0.422c0.541,0.352,0.767,0.59,1.036,0.66c4.739,1.238,9.155,3.25,13.524,5.426
	c3.548,1.769,5.716,4.512,6.608,8.311c0.729,3.1-0.029,6.034-1.226,8.859C136.827,231.82,135.569,234.393,134.263,237.236
	 M133.944,265.246c0.09-0.164,0.18-0.328,0.27-0.492c-0.381-0.389-0.779-0.76-1.141-1.165c-1.593-1.78-1.437-2.569,0.677-3.608
	c0.825-0.404,1.634-0.843,2.962-1.531c-1.61-0.697-2.674-1.18-3.756-1.621c-1.923-0.787-3.873-1.51-5.781-2.328
	c-3.004-1.29-4.494-3.694-4.908-6.861c-0.075-0.574-0.247-1.135-0.391-1.775c-5.252,2.991-5.231,7.431-3.944,11.736
	c0.84,2.812,2.882,4.618,5.503,5.629c1.762,0.681,3.69,0.961,5.564,1.316C130.633,264.854,132.294,265.019,133.944,265.246"/>
<path fill="#231F20" d="M7.705,139.242c1.385-1.367,3.381-1.863,4.117-3.79c-5.712,1.7-6.814,1.718-8.62,0.08
	c0.273-0.27,0.494-0.653,0.816-0.781c3.784-1.503,4.672-4.771,4.992-8.304c0.158-1.743,0.005-3.515-0.01-5.273
	c-0.013-1.599,0.053-3.202-0.062-4.791c-0.194-2.71,0.855-4.9,2.856-6.548c1.526-1.256,3.256-2.295,4.99-3.257
	c1.39-0.772,2.919-1.295,4.394-1.911c2.734-1.141,5.586-1.182,8.49-0.984c7.039,0.479,11.342,4.898,14.969,10.296
	c0.621,0.925,1.068,1.965,1.62,2.937c1.872,3.296,2.466,6.855,2.467,10.611c0.001,3.751,0.233,7.503,0.429,11.253
	c0.05,0.947,0.293,1.896,0.539,2.822c1.036,3.878,2.363,4.863,6.354,5.23c3.849,0.354,7.419-0.711,11.074-1.628
	c2.838-0.711,5.799-1.059,8.726-1.252c3.12-0.206,5.006,2.206,7.09,4.019c0.727,0.632,0.42,1.474-0.572,1.843
	c-0.743,0.276-1.549,0.382-2.325,0.572c-0.619,0.151-1.239,0.303-1.849,0.487c-0.125,0.037-0.205,0.221-0.272,0.297
	c1.041,1.604,2.08,3.188,3.1,4.785c0.214,0.334,0.48,0.703,0.507,1.071c0.037,0.51,0.045,1.243-0.257,1.496
	c-0.324,0.272-1.03,0.167-1.553,0.101c-0.279-0.037-0.574-0.295-0.777-0.528c-3.039-3.479-7.021-3.598-11.192-3.275
	c-2.223,0.171-4.472,0.171-6.7,0.062c-3.161-0.155-6.123-1.003-8.778-2.854c-1.634-1.14-3.43-2.044-5.102-3.132
	c-2.956-1.924-3.904-5.148-5.155-8.164c-2.617-6.311-3.498-12.922-3.444-19.704c0.012-1.514-0.056-3.029-0.122-4.544
	c-0.066-1.509-0.744-2.543-2.27-3.009c-3.503-1.07-7.067-1.318-10.678-0.842c-1.971,0.26-3.68,1.201-4.989,2.661
	c-2.157,2.408-1.587,5.206-0.79,7.933c0.491,1.681,1.168,3.31,1.797,4.947c0.646,1.68,0.457,3.294-0.293,4.878
	c-0.274,0.579-0.578,1.143-0.851,1.72c-1.999,4.229-5.627,5.643-9.986,5.742C9.443,140.535,8.47,140.428,7.705,139.242
	 M12.336,138.29c4.451-0.509,7.76-4.64,6.897-8.52c-0.566-2.543-1.671-4.975-2.616-7.424c-1.631-4.231,1.33-8.793,4.976-10.395
	c4.285-1.882,8.694-1.838,13.177-0.991c0.507,0.096,1.031,0.107,1.822,0.184c-0.234-0.611-0.315-0.992-0.508-1.303
	c-2.447-3.947-7.556-5.821-12.438-4.288c-3.74,1.175-7.292,2.816-10.351,5.406c-1.61,1.363-2.357,2.969-2.263,5.024
	c0.081,1.758,0.178,3.515,0.258,5.272c0.196,4.271,0.122,8.493-2.268,12.292c-0.054,0.084,0.056,0.271,0.172,0.747
	c0.761-0.577,1.443-1.056,2.079-1.588c0.672-0.563,1.247-1.261,1.971-1.734c0.398-0.261,1.077-0.351,1.515-0.196
	c0.263,0.093,0.492,0.846,0.413,1.234c-0.254,1.239-0.553,2.491-1.041,3.652C13.776,136.502,13.094,137.207,12.336,138.29
	 M79.8,148.754c-2.18-2.983-4.795-3.882-7.987-3.133c-1.553,0.365-3.074,0.867-4.622,1.254c-2.164,0.541-4.316,1.217-6.517,1.5
	c-3.961,0.508-7.898,0.297-11.713-1.354c0.598,0.795,1.267,1.426,2.02,1.932c0.726,0.488,1.613,0.751,2.301,1.279
	c4.894,3.765,10.481,4.079,16.221,3.09c2.153-0.371,4.095-0.315,6.065,0.525c0.239,0.102,0.545,0.046,1.196,0.087
	c-0.925-1.095-1.605-1.899-2.568-3.04C76.239,150.113,77.908,149.477,79.8,148.754 M48.086,144.08
	c-0.305-2.418-0.653-4.35-0.773-6.295c-0.237-3.817-0.255-7.649-0.544-11.461c-0.18-2.362-0.289-4.783-1.579-6.93
	c-0.737-1.226-1.398-2.504-2.002-3.801c-0.665-1.426-1.586-2.606-2.713-3.843c0.182,3.735,0.355,7.145,0.512,10.557
	c0.077,1.672,0.091,3.349,0.192,5.021c0.331,5.503,1.71,10.67,5.067,15.158C46.639,143.012,47.253,143.371,48.086,144.08"/>
<path fill="#231F20" d="M89.474,17.719c1.12-2.468,0.928-4.777,0.083-7.086c-0.791-2.163-0.684-2.473,1.412-3.459
	c1.661-0.784,3.329-1.548,4.998-2.312c1.329-0.611,2.096-0.489,2.955,0.586c1.389,1.741,2.329,3.747,1.987,5.974
	c-0.386,2.509-1.092,4.972-1.766,7.425c-0.18,0.656-0.64,1.332-1.159,1.78c-3.127,2.707-5.889,5.862-9.663,7.787
	c-1.198,0.611-2.214,1.567-3.361,2.29c-1.008,0.634-2.057,1.215-3.131,1.729c-2.809,1.345-5.323,1.302-7.429-1.425
	c-0.711-0.921-1.868-1.483-2.758-2.28c-1.515-1.355-1.408-1.75-0.356-3.411c2.088-3.297,5.207-5.579,7.857-8.321
	c0.61-0.631,1.22-1.262,1.855-1.87c1.477-1.411,2.124-1.466,3.691-0.167C86.108,16.135,87.594,17.145,89.474,17.719 M94.798,20.667
	c-1.277-0.104-2.138-0.137-2.987-0.255c-0.7-0.099-1.458-0.162-2.065-0.479c-1.691-0.884-3.332-1.869-4.965-2.858
	c-1.675-1.015-2.061-1.063-3.566,0.311c-2.179,1.987-4.313,4.027-6.398,6.113c-0.723,0.724-1.273,1.631-1.837,2.498
	c-0.201,0.308-0.32,0.752-0.286,1.116c0.083,0.873,5.063,4.741,5.876,4.461c1.529-0.525,3.293-0.669,4.452-2.23
	c-0.879-1.167-2.824-1.05-3.239-3.041c0.693,0,1.298-0.123,1.824,0.027c0.759,0.217,1.454,0.646,2.187,0.96
	c1.926,0.824,3.082,0.415,4.355-1.593c-1.559-1.947-4.202-1.862-6.398-2.991c1.056-1.141,2.111-1.097,3.067-0.746
	c1.405,0.519,2.72,1.278,4.106,1.858c0.606,0.252,1.469,0.64,1.908,0.401C92.266,23.437,93.693,22.542,94.798,20.667 M91.735,9.013
	c0.564,2.984,1.315,5.691,0.585,8.499c-0.082,0.316,0.272,0.952,0.596,1.131c1.303,0.729,4.008-0.296,4.405-1.714
	c0.49-1.757,0.946-3.55,1.121-5.356c0.109-1.137-0.209-2.361-0.551-3.481c-0.284-0.933-1.109-1.405-2.098-0.99
	C94.424,7.679,93.1,8.365,91.735,9.013"/>
<path fill="#231F20" d="M70.232,181.368c0.729-3.884,2.129-7.286,4.311-10.419c1.852-2.66,4.076-4.662,7.263-5.477
	c3.249-0.829,6.463-1.668,9.844-0.427c0.994,0.366,2.224,0.238,3.325,0.126c2.232-0.23,3.276,1.32,3.216,3.203
	c-0.044,1.355-0.066,2.718-0.233,4.061c-0.209,1.688-0.962,2.233-2.624,1.925c-1.566-0.292-3.145-0.604-4.652-1.104
	c-1.888-0.63-3.76-0.525-5.681-0.364c-1.232,0.103-1.839,0.595-2.049,1.851c-0.522,3.115,0.168,5.701,2.898,7.541
	c0.582,0.393,1.14,0.824,1.729,1.252C84.633,186.186,74.795,184.936,70.232,181.368 M83.188,183.252c0.12-0.18,0.24-0.36,0.36-0.541
	c-0.513-0.676-1.045-1.337-1.535-2.029c-1.309-1.853-1.716-3.894-1.318-6.132c0.417-2.349,1.466-4.363,3.04-6.126
	c0.336-0.375,0.686-0.738,1.03-1.105c-1.181-0.057-2.216,0.099-3.106,0.545c-5.036,2.529-7.306,7.071-8.692,12.213
	c-0.304,1.127,0.528,1.596,1.368,1.918C77.198,183.095,80.17,183.385,83.188,183.252 M84.862,170.326
	c3.868,0.791,7.302,1.494,11.071,2.264c0.066-1.774,0.176-3.18,0.149-4.584c-0.016-0.867-0.713-1.211-1.487-1.265
	c-1.033-0.072-2.072-0.037-3.104-0.104C88.584,166.449,86.939,168.354,84.862,170.326"/>
<path fill="#231F20" d="M162.994,96.783c-1.771-3.107-4.084-5.346-6.775-7.286c-2.111-1.521-1.968-1.806-0.616-4.102
	c1.411-2.397,2.583-4.935,3.882-7.399c1.049-1.991,1.471-2.167,3.59-1.293c1.916,0.788,3.808,1.639,5.678,2.533
	c1.586,0.76,3.111,1.508,4.979,1.464c1.553-0.035,2.112,0.913,1.479,2.436c-0.887,2.129-1.961,4.182-2.977,6.256
	c-0.734,1.498-1.49,2.985-2.264,4.462c-0.627,1.199-1.207,2.438-1.97,3.548c-1.154,1.68-2.146,1.78-3.792,0.53
	C163.705,97.548,163.283,97.06,162.994,96.783 M162.265,78.339c-0.503,0.888-0.896,1.558-1.265,2.24
	c-0.911,1.682-1.779,3.388-2.725,5.05c-0.992,1.742-1.057,2.022,0.67,3.055c2.604,1.557,4.637,3.617,6.24,6.154
	c0.157,0.249,0.439,0.42,0.721,0.679c1.604-0.979,1.539-2.781,2.291-4.118c0.781-1.391,1.64-2.741,2.359-4.162
	c0.702-1.387,1.609-2.74,1.444-4.526C168.781,81.265,165.609,79.842,162.265,78.339"/>
<path fill="#231F20" d="M28.667,80.839c-0.181,0.99-0.184,1.792-0.48,2.466c-0.643,1.458-1.362,2.897-2.185,4.262
	c-1.08,1.788-2.547,2.469-4.472,1.776c-2.01-0.723-4.045-1.592-5.783-2.806c-2.928-2.046-4.087-5.052-3.434-8.606
	c0.302-1.643,0.649-3.33,1.326-4.837c0.567-1.262,1.565-2.366,2.521-3.401c0.776-0.84,1.812-0.894,2.86-0.31
	c0.624,0.347,1.288,0.635,1.958,0.884c2.319,0.864,2.343,1.024,1.701,3.541c-0.33,1.294-0.535,2.673-0.479,4
	c0.086,2.022,0.424,2.278,2.417,2.575C25.864,80.57,27.123,80.669,28.667,80.839 M13.979,77.884c-0.66,1.306-0.418,2.381,0.038,3.41
	c1.724,3.885,5.057,5.545,8.97,6.289c0.5,0.096,1.353-0.246,1.631-0.662c0.775-1.158,1.599-2.357,1.7-4.026
	c-2.219-0.521-4.461-0.781-6.478-1.595C17.827,80.485,16.039,79.114,13.979,77.884 M20.818,72.506
	c-0.777-0.357-1.551-0.744-2.35-1.074c-1.325-0.546-2.072-0.317-2.848,0.813c-0.932,1.36-0.787,3.122,0.491,4.37
	c0.853,0.833,1.813,1.571,2.797,2.248c0.386,0.266,0.968,0.245,1.493,0.361C20.542,76.951,20.669,74.903,20.818,72.506"/>
<path fill="#231F20" d="M127.395,144.382c-1.352,0.608-2.264-0.057-3.177-0.696c-1.045-0.732-2.036-1.557-3.139-2.188
	c-1.332-0.763-1.979-0.672-2.941,0.484c-1.782,2.145-3.517,4.336-5.162,6.588c-1.042,1.427-0.921,1.828,0.469,2.979
	c0.61,0.505,1.265,0.992,1.974,1.333c2.74,1.311,3.081,1.192,4.861-1.298c1.559-2.178,3.592-3.838,5.892-5.166
	c0.571-0.328,1.272-0.434,1.843-0.617c0.763,1.085,0.183,1.647-0.406,2.014c-3.068,1.911-5.124,4.752-7.124,7.642
	c-0.714,1.03-1.461,1.21-2.639,0.699c-2.552-1.109-5.31-1.757-7.522-3.599c-1.852-1.543-1.984-1.646-0.551-3.637
	c2.141-2.971,4.385-5.874,6.691-8.723c1.08-1.332,2.652-1.756,4.342-1.379c2.713,0.605,4.638,2.392,6.348,4.441
	C127.364,143.51,127.316,143.977,127.395,144.382"/>
<path fill="#231F20" d="M108.807,43.263c0.332-0.597,0.652-1.288,1.076-1.906c0.677-0.986,1.436-1.915,2.137-2.884
	c1.115-1.543,1.125-2.2-0.264-3.5c-0.982-0.917-2.123-1.679-3.246-2.431c-0.981-0.656-2.035-1.203-3.242-1.905
	c-2.216,2.067-4.461,4.161-6.751,6.296c2.185,3.297,6.285,4.115,8.074,7.351c-0.931,0.895-1.616,0.439-2.17,0.074
	c-2.661-1.759-5.322-3.522-7.899-5.399c-1.32-0.961-1.428-1.802-0.301-3.017c2.273-2.451,4.63-4.836,7.086-7.104
	c1.405-1.298,1.787-1.172,3.353-0.157c1.467,0.95,2.982,1.83,4.405,2.84c0.835,0.593,1.514,1.4,2.295,2.073
	c0.766,0.66,1.534,1.331,2.371,1.892c1.01,0.677,1.202,1.132,0.569,2.127c-0.298,0.466-0.682,0.887-1.071,1.284
	c-1.394,1.422-2.815,2.817-4.208,4.24C110.423,43.749,109.85,44.288,108.807,43.263"/>
<path fill="#231F20" d="M78.599,231.48c-1.496,0.216-2.441-0.549-3.385-1.284c-1.824-1.419-3.637-2.851-5.448-4.284
	c-1.535-1.217-2.509-2.561-1.746-4.725c0.305-0.863,0.649-1.383,1.468-1.652c2.879-0.944,5.764-1.871,8.631-2.854
	c0.967-0.332,1.689-0.038,2.4,0.581c3.119,2.716,6.272,5.396,9.368,8.141c1.439,1.273,1.146,2.304-0.82,2.761
	c-2.169,0.506-4.372,0.871-6.568,1.256C80.92,229.695,79.283,229.811,78.599,231.48 M87.304,226.735
	c0.035-0.21,0.07-0.424,0.106-0.634c-1.907-1.557-3.883-3.037-5.705-4.688c-3.626-3.28-2.64-3.004-7.052-1.521
	c-1.627,0.548-3.408,0.794-4.897,2.011c0.21,0.408,0.302,0.855,0.576,1.076c2.23,1.799,4.457,3.608,6.781,5.279
	c0.485,0.349,1.387,0.264,2.067,0.168c1.735-0.246,3.459-0.586,5.177-0.937C85.35,227.288,86.322,226.99,87.304,226.735"/>
<path fill="#231F20" d="M82.947,83.996c0.544,0.79,1.168,1.535,1.615,2.375c0.684,1.286,0.343,2.103-0.97,2.669
	c-0.146,0.062-0.299,0.135-0.454,0.151c-2.904,0.288-4.947,1.948-6.842,4.025c-1.602,1.758-2.252,1.748-3.773-0.152
	c-1.938-2.421-3.651-5.023-5.42-7.575c-0.585-0.845-0.433-1.732,0.377-2.345c1.847-1.395,3.685-2.817,5.639-4.049
	c1.641-1.035,3.411-0.86,4.933,0.354c1.735,1.385,3.38,2.879,5.065,4.328C83.06,83.852,83.003,83.924,82.947,83.996 M81.853,87.151
	c-1.764-2.703-3.541-4.553-5.775-5.937c-0.371-0.23-1.15-0.129-1.573,0.113c-1.306,0.747-2.549,1.61-3.782,2.479
	c-0.678,0.477-0.833,1.182-0.391,1.893c1.006,1.616,2.022,3.228,3.106,4.792c0.624,0.901,1.556,0.937,2.243,0.158
	C77.192,88.935,79.01,87.756,81.853,87.151"/>
<path fill="#231F20" d="M50.739,168.071c-2.063-0.505-3.691-1.618-5.376-2.585c-0.48-0.277-0.885-0.682-1.348-0.992
	c-0.603-0.404-1.192-0.406-1.718,0.16c-1.847,1.982-3.773,3.899-5.518,5.969c-1.359,1.612-1.232,2.262,0.657,3.396
	c1.418,0.854,3.016,1.411,4.545,2.073c1.109,0.48,1.736-0.003,2.283-1.015c0.87-1.609,1.889-3.142,2.864-4.693
	c0.254-0.402,0.51-0.866,0.888-1.111c0.34-0.221,0.992-0.382,1.245-0.202c0.272,0.191,0.457,0.929,0.3,1.229
	c-0.703,1.336-1.536,2.605-2.333,3.892c-0.584,0.942-1.21,1.86-1.77,2.817c-0.83,1.414-1.147,1.589-2.69,1.24
	c-2.915-0.659-5.606-1.84-8.062-3.541c-1.802-1.25-2.129-2.739-0.797-4.479c1.159-1.513,2.515-2.875,3.794-4.293
	c1.066-1.182,2.164-2.336,3.217-3.527c1.017-1.15,1.636-1.255,2.852-0.42c1.97,1.352,3.945,2.695,5.92,4.041
	C50.26,166.418,51.053,166.642,50.739,168.071"/>
<path fill="#231F20" d="M102.65,243.665c0.155,0.325,0.382,0.749,0.565,1.19c1.709,4.129,3.593,8.199,4.454,12.625
	c0.313,1.611,0.004,2.073-1.611,2.143c-3.143,0.133-6.266-0.06-9.091-1.625c-2.722-1.508-4.504-3.837-5.075-6.904
	c-0.319-1.715-0.275-3.498-0.388-5.25c-0.065-1.007,0.346-1.738,1.356-1.97c2.335-0.533,4.673-1.059,7.025-1.507
	C100.997,242.155,101.913,242.644,102.65,243.665 M105.569,257.529c-0.199-0.984-0.269-1.859-0.557-2.656
	c-0.812-2.246-1.655-4.484-2.594-6.681c-1.703-3.983-2.811-4.464-7.023-3.24c-0.076,0.022-0.152,0.048-0.231,0.06
	c-1.352,0.219-1.788,1.098-1.845,2.371C93.007,254.354,98.097,258.918,105.569,257.529"/>
<path fill="#231F20" d="M162.957,210.201c-0.559,0.024-1.113,0.149-1.627,0.055c-2.746-0.514-5.489-1.049-8.221-1.641
	c-1.574-0.342-2.08-1.016-1.705-2.57c0.353-1.464,0.953-2.877,1.531-4.276c0.672-1.623,1.436-3.208,2.167-4.806
	c0.736-1.603,1.304-1.994,2.983-1.676c2.352,0.445,4.689,0.979,7.009,1.576c1.654,0.424,1.914,0.854,1.513,2.614
	c-0.388,1.708-0.941,3.38-1.47,5.054c-0.433,1.369-0.914,2.725-1.41,4.074C163.539,209.119,163.253,209.596,162.957,210.201
	 M153.871,206.969c2.098,0.424,4.029,0.811,5.957,1.207c1.254,0.259,1.981-0.293,2.315-1.466c0.777-2.73,1.55-5.462,2.384-8.403
	c-1.908-0.414-3.52-0.779-5.139-1.11c-1.08-0.222-1.818,0.161-2.268,1.229c-0.397,0.949-1.014,1.806-1.413,2.754
	C154.98,202.91,153.861,204.522,153.871,206.969"/>
<path fill="#231F20" d="M107.792,36.922c-0.709-0.425-1.414-0.856-2.127-1.275c-0.742-0.435-1.49-0.858-2.262-1.303
	C105.274,32.875,107.437,33.901,107.792,36.922"/>
<path fill="#231F20" d="M106.248,39.699c-1.68-0.592-3.148-0.988-3.772-2.694C104.81,36.626,106.075,37.459,106.248,39.699"/>
<path fill="#231F20" d="M119.626,149.979c-1.91-0.127-1.91-0.127-2.875-1.293C118.35,147.625,119.294,148.007,119.626,149.979"/>
<path fill="#231F20" d="M118.658,145.813c1.344-0.911,2.296-0.771,3.186,0.278C120.587,147.269,120.417,147.26,118.658,145.813"/>
<path fill="#231F20" d="M42.359,173.125c-1.525,0.035-2.399-0.877-3.562-1.766C40.773,170.91,41.492,171.293,42.359,173.125"/>
<path fill="#231F20" d="M41.299,167.242c1.682-0.161,2.452,0.426,3.339,1.472C43.011,169.235,42.321,168.432,41.299,167.242"/>
<path fill="#FFFFFF" d="M265.364,174.838c-3.04,0.593-6.06,1.346-9.125,1.748c-8.158,1.068-16.333,2.01-24.509,2.938
	c-1.737,0.198-3.508,0.082-5.262,0.174c-7.019,0.367-14.033,0.817-21.055,1.126c-8.775,0.387-17.559,0.636-26.336,1.001
	c-5.348,0.223-10.689,0.549-16.035,0.824c-0.631,0.033-1.265,0.033-2.287,0.057c0.836-1.379,1.746-2.293,2.791-3.078
	c3.338-2.506,6.379-5.339,9-8.578c2.872-3.553,5.32-7.385,6.62-11.824c1.011-3.451,2.066-6.898,2.833-10.406
	c0.508-2.322,0.692-4.744,0.754-7.129c0.176-6.809,0.018-13.596-2.441-20.095c-0.105-0.279-0.094-0.604-0.195-1.307
	c1.373,0.674,2.479,1.208,3.575,1.758c1.071,0.537,2.181,1.015,3.192,1.648c6.027,3.768,12.061,7.529,18.035,11.38
	c6.848,4.412,13.602,8.968,20.461,13.366c8.266,5.301,16.61,10.478,24.896,15.75c4.78,3.042,9.509,6.167,14.255,9.262
	c0.32,0.209,0.592,0.496,0.886,0.747C265.399,174.412,265.383,174.625,265.364,174.838 M191.305,139.875
	c-0.494-0.731-1.359-0.832-1.73-0.236c-0.318,0.51-0.479,1.164-0.544,1.773c-0.131,1.186-0.097,2.387-0.22,3.574
	c-0.659,6.392-2.264,12.528-4.99,18.364c-0.393,0.841-0.965,1.974,0.172,2.527c1.238,0.604,1.545-0.69,1.98-1.495
	c2.268-4.186,3.307-8.781,4.442-13.342c0.794-3.186,1.169-6.42,1.028-9.705C191.42,140.788,191.342,140.244,191.305,139.875
	 M191.409,166.603c0.558-1.35,1.282-2.624,1.616-3.994c1.055-4.337,2.046-8.694,2.892-13.076c0.36-1.868,0.375-3.815,0.388-5.729
	c0.004-0.598-0.42-1.627-0.816-1.717c-1.078-0.242-1.462,0.701-1.635,1.613c-0.088,0.467-0.076,0.953-0.106,1.432
	c-0.044,0.717-0.053,1.438-0.132,2.152c-0.646,5.803-1.581,11.543-3.68,17.035c-0.168,0.443-0.344,0.925-0.332,1.385
	c0.009,0.326,0.252,0.783,0.525,0.932C190.411,166.787,190.857,166.633,191.409,166.603 M197.406,168.704
	c1.264-0.645,1.249-0.651,1.831-1.903c1.897-4.082,2.843-8.467,3.715-12.823c0.488-2.44,0.164-5.06,0.063-7.592
	c-0.035-0.831-0.4-1.909-1.537-1.778c-1.23,0.141-0.983,1.225-0.924,2.088c0.033,0.477,0.123,0.949,0.146,1.426
	c0.107,2.229,0.148,4.425-0.48,6.631c-1.109,3.898-2.035,7.848-3.023,11.779C197.012,167.268,196.561,168.057,197.406,168.704
	 M209.62,149.159c-0.563-0.876-1.674-0.849-2.058-0.053c-0.202,0.419-0.219,0.925-0.327,1.39c-0.89,3.803-1.776,7.608-2.677,11.41
	c-0.441,1.863-0.951,3.713-1.338,5.586c-0.076,0.369,0.273,0.826,0.428,1.242c0.468-0.193,1.119-0.256,1.365-0.604
	c0.449-0.639,0.717-1.427,0.955-2.186c0.883-2.82,1.832-5.626,2.541-8.489c0.573-2.311,0.856-4.693,1.221-7.052
	C209.801,149.953,209.651,149.469,209.62,149.159 M216.608,153.213c-1.481-0.393-2.029,0.253-2.291,1.162
	c-0.218,0.759-0.271,1.563-0.392,2.349c-0.56,3.606-0.9,7.259-2.488,10.634c-0.186,0.393-0.139,1.232,0.129,1.438
	c0.714,0.549,1.393,0.125,1.72-0.612c0.769-1.731,1.696-3.441,2.129-5.263c0.586-2.464,0.786-5.021,1.117-7.545
	C216.621,154.693,216.584,153.992,216.608,153.213 M223.451,156.561c-1.557,0.051-1.936,0.803-2.119,1.717
	c-0.466,2.338-0.951,4.674-1.349,7.021c-0.136,0.795-0.032,1.629-0.039,2.549c1.616-0.546,1.688-0.52,1.929-1.189
	C223.025,163.438,223.794,160.159,223.451,156.561 M229.702,160.297c-0.787-0.725-1.44-0.478-1.672,0.181
	c-0.681,1.942-1.255,3.926-1.765,5.918c-0.086,0.333,0.36,1.14,0.556,1.138c0.459-0.005,1.185-0.254,1.325-0.6
	c0.686-1.686,1.267-3.422,1.766-5.172C230.047,161.29,229.768,160.699,229.702,160.297 M235.301,168.511
	c0.387-1.602,0.651-2.761,0.953-3.908c0.178-0.671,0.237-1.411-0.574-1.496c-0.483-0.052-1.312,0.356-1.496,0.772
	C233.557,165.302,233.531,166.754,235.301,168.511 M240.774,169.805c1.61-0.031,2.022-0.776,2.094-1.676
	c0.028-0.371-0.392-1.109-0.576-1.1c-0.452,0.023-1.118,0.283-1.274,0.637C240.764,168.234,240.85,168.955,240.774,169.805
	 M248.756,170.309c-0.755-0.817-1.447-0.737-2.002-0.178c-0.25,0.254-0.203,0.801-0.291,1.213c0.653,0.025,1.325,0.146,1.946,0.02
	C248.604,171.323,248.663,170.615,248.756,170.309"/>
<path fill="#00ADDD" d="M151.805,173.887c-0.009,0.656-0.017,1.312-0.026,2.033c-1.244,0.071-1.923-0.584-2.533-1.329
	c-1.155-1.409-1.688-3.06-1.854-4.853c-0.358-3.865-0.146-7.727,1.018-11.402c2.193-6.926,4.645-13.77,6.994-20.646
	c0.076-0.227,0.211-0.432,0.292-0.657c0.842-2.352,2.387-3.285,4.972-3.033c3.569,0.349,7.174,0.317,10.762,0.506
	c1.101,0.058,2.19,0.306,3.211,0.456c0.476,1.763-0.129,11.835-0.854,13.812c-0.584-0.68-1.135-1.22-1.564-1.841
	c-1.551-2.229-3.045-4.494-4.594-6.723c-0.656-0.943-1.268-2.056-3.142-1.608c0.432,0.819,0.706,1.524,1.134,2.121
	c2.328,3.242,4.686,6.463,7.049,9.68c1.192,1.623,0.553,3.155-0.122,4.823c-1.161-0.238-1.522-1.209-2.007-1.953
	c-2.355-3.613-4.664-7.258-6.966-10.904c-0.484-0.768-0.911-1.523-2.17-1.043c0.11,0.482,0.106,0.981,0.329,1.344
	c1.172,1.903,2.369,3.793,3.617,5.648c1.783,2.65,3.569,5.301,5.445,7.885c1.146,1.58,0.456,2.82-0.548,4.363
	c-4.431-4.08-6.153-10.206-10.887-14.061c-0.777,1.188-0.069,1.766,0.36,2.372c2.812,3.978,5.641,7.946,8.465,11.916
	c0.709,0.997,1.431,1.989-0.086,3.354c-1.688-1.728-3.062-3.622-4.301-5.629c-1.259-2.036-2.464-4.108-3.76-6.122
	c-0.541-0.84-1.134-1.783-2.475-1.47c-0.471,1.185,0.399,1.836,0.91,2.567c2.416,3.475,4.879,6.916,7.295,10.389
	c1.24,1.779,1.142,2.287-0.787,3.984c-1.049-1.363-2.166-2.668-3.118-4.083c-1.47-2.186-2.772-4.481-4.248-6.661
	c-0.843-1.246-0.933-1.186-2.486-1.521c-0.591,0.745-0.073,1.324,0.324,1.892c2.333,3.338,4.683,6.662,7.013,10
	c0.364,0.521,0.778,1.053,0.956,1.645c0.265,0.88-0.196,1.667-0.993,1.936c-0.459,0.156-1.332-0.062-1.629-0.429
	c-1.561-1.921-3.02-3.927-4.463-5.938c-0.549-0.766-0.927-1.672-2.428-1.775c0.165,0.717,0.154,1.354,0.439,1.799
	c1.377,2.148,2.828,4.249,4.268,6.355c0.314,0.461,0.795,0.834,1.008,1.33c0.156,0.363,0.001,0.861-0.015,1.298
	c-0.486-0.052-1.171,0.081-1.423-0.188c-0.926-0.988-1.707-2.111-2.547-3.18c-0.592-0.755-1.166-1.526-1.795-2.248
	c-0.483-0.555-1.052-1.004-2.134-0.287c0.337,0.654,0.601,1.359,1.025,1.949c0.979,1.363,2.056,2.656,3.053,4.006
	c0.463,0.627,1.088,1.309,0.336,2.12c-0.588,0.632-1.7,0.42-2.53-0.452c-0.271-0.288-0.466-0.648-0.711-0.963
	c-0.188-0.242-0.402-0.464-0.605-0.695C152.121,173.812,151.963,173.85,151.805,173.887"/>
<path fill="#00ADDD" d="M130.273,90.138c-0.292-0.065-0.617-0.058-0.845-0.203c-3.773-2.397-7.784-4.478-10.911-7.762
	c-2.769-2.91-4.454-6.458-5.281-10.328c-0.529-2.478,0.044-5.052,1.362-7.178c3.838-6.186,9.152-10.547,16.583-11.402
	c3.294-0.379,6.697,0.062,10.042,0.287c4.123,0.278,7.983-0.442,11.418-2.774c1.162-0.79,2.148-1.895,3.061-2.985
	c0.928-1.109,0.98-2.487,0.688-3.882c-0.31-1.476-0.584-2.96-0.959-4.875c2.353,1.608,4.344,3.825,6.905,1.093
	c1.295,1.768,1.239,3.522,1,5.099c-0.405,2.669-1.003,5.348-1.882,7.898c-0.938,2.719-3.275,4.31-5.775,5.475
	c-5.031,2.346-10.31,2.625-15.711,1.599c-4.134-0.786-8.272-0.704-12.36,0.269c-2.692,0.641-4.401,2.596-5.5,4.981
	c-2.787,6.042-2.257,11.826,1.847,17.128C125.941,85.144,128.113,87.566,130.273,90.138"/>
<path fill="#FFFFFF" d="M142.68,99.263c0.814,0.319,1.292,0.396,1.627,0.657c2.688,2.09,4.672,4.594,4.598,8.233
	c-0.052,2.554-0.009,5.115-0.191,7.659c-0.238,3.323,1.42,5.45,4.078,7.013c2.67,1.569,5.687,2.125,8.67,2.62
	c2.271,0.375,4.611,0.331,6.921,0.481c1.872,0.123,3.745,0.258,5.802,0.399c0.336,2.232,0.626,4.153,0.915,6.072
	c-0.565,0.144-0.797,0.267-1.019,0.25c-6.043-0.454-12.09-0.875-18.127-1.405c-5.332-0.47-8.578-3.82-10.914-8.273
	c-0.479-0.911-0.711-1.95-1.08-2.919c-0.662-1.731-0.639-3.431,0.16-5.114c0.138-0.289,0.236-0.594,0.366-0.886
	c2.007-4.517,1.677-8.84-1.038-12.985C143.17,100.64,143.039,100.121,142.68,99.263"/>
<path fill="#FFFFFF" d="M171.938,122.486c-2.582,0.862-5.312,0.843-7.812,0.004C166.342,118.907,169.941,118.83,171.938,122.486"/>
<path fill="#00ADDD" d="M91.103,104.771c-0.869-1.202-1.051-2.655-0.927-4.046c0.391-4.367,0.639-8.779,1.494-13.063
	c1.106-5.544,1.654-11.076,0.937-16.658c-0.704-5.47-3.039-9.956-8.136-12.831c-2.701-1.523-5.397-2.587-8.463-3.047
	c-2.994-0.449-5.918-1.365-8.996-0.816c-1.645,0.294-3.292,0.575-4.939,0.858c-0.519,0.089-1.04,0.166-1.546,0.246
	c-0.06-0.316-0.158-0.498-0.106-0.608c3.493-7.439,10.602-10.962,18.478-9.65c3.759,0.626,7.178,2.317,10.197,4.579
	c3.31,2.48,5.741,5.698,7.014,9.748c1.863,5.93,1.855,11.99,1.155,18.032c-0.477,4.105-1.562,8.14-2.376,12.207
	c-0.846,4.222-1.687,8.445-2.545,12.665c-0.167,0.822-0.4,1.63-0.602,2.444C91.529,104.81,91.316,104.791,91.103,104.771"/>
<path fill="#FFFFFF" d="M88.33,105.994c3.529,2.269,6.461,4.688,10.457,4.115c3.645-0.521,7.215-1.277,10.01-4.063l0.417,0.354
	c-0.338,0.833-0.645,1.681-1.023,2.495c-0.268,0.577-0.661,1.093-0.944,1.663c-0.729,1.472-0.567,1.926,0.924,2.565
	c1.15,0.495,2.317,0.947,3.992,1.626c-0.923,0.374-1.307,0.649-1.703,0.669c-3.183,0.162-6.37,0.397-9.554,0.363
	c-2.815-0.031-5.575-0.775-7.983-2.201C90.346,112.055,88.411,109.888,88.33,105.994"/>
<path fill="#FFFFFF" d="M54.295,74.061c-1.229-1.041-2.166-2.222-3.385-2.753c-1.129-0.493-2.561-0.291-4.031-0.407
	c1.301-1.512,2.656-3.13,4.062-4.703c1.115-1.249,2.391-2.363,3.421-3.675c2.011-2.561,4.71-4.004,7.676-5.072
	c0.28-0.102,0.604-0.079,1.057-0.132c-0.14,1.153-1.1,1.427-1.629,2.046c-0.866,1.015-1.905,1.971-2.456,3.146
	c-1.078,2.302-1.848,4.749-2.789,7.117C55.667,71.019,55.03,72.378,54.295,74.061"/>
<path fill="#00ADDD" d="M125.114,179.947c-0.278,0.709-0.514,1.438-0.85,2.121c-0.244,0.495-0.644,0.912-0.931,1.39
	c-0.986,1.638-0.675,2.274,1.195,2.526c1.074,0.145,2.146,0.311,3.387,0.492c-0.431,1.457-1.412,1.803-2.407,2
	c-2.578,0.508-4.727,1.791-6.805,3.344c-3.198,2.389-4.181,5.491-3.372,9.283c0.165,0.773,0.393,1.533,0.638,2.474
	c-2.161,0.119-4.019-0.495-5.608-1.692c-3.069-2.313-5.226-5.198-4.753-9.321c0.325-2.846,1.969-5.042,3.962-6.926
	c3.988-3.769,8.95-5.413,14.255-6.22c0.324-0.049,0.64-0.148,0.959-0.225L125.114,179.947z M123.353,180.766
	c-0.131,0.021-0.314-0.002-0.381,0.075c-0.083,0.095-0.07,0.275-0.099,0.417c0.177-0.022,0.364-0.023,0.524-0.089
	C123.431,181.155,123.371,180.906,123.353,180.766"/>
<path fill="#FFFFFF" d="M134.263,237.235c1.306-2.843,2.563-5.415,3.678-8.049c1.194-2.826,1.953-5.761,1.225-8.86
	c-0.893-3.8-3.06-6.542-6.609-8.311c-4.369-2.176-8.785-4.188-13.523-5.426c-0.27-0.07-0.495-0.309-1.036-0.66
	c0.736-0.205,1.159-0.426,1.581-0.422c3.51,0.023,7.043-0.148,10.523,0.202c3.812,0.383,7.766,1.03,10.436,4.159
	c3.345,3.924,5.456,8.311,4.383,13.791c-1.047,5.351-3.94,9.324-8.269,12.412c-0.454,0.324-0.93,0.621-1.416,0.896
	C135.04,237.078,134.791,237.096,134.263,237.235"/>
<path fill="#00ADDD" d="M133.944,265.246c-1.65-0.228-3.311-0.393-4.945-0.701c-1.874-0.355-3.802-0.636-5.564-1.316
	c-2.621-1.011-4.663-2.816-5.503-5.629c-1.287-4.306-1.308-8.745,3.944-11.736c0.144,0.641,0.316,1.201,0.391,1.775
	c0.414,3.167,1.904,5.571,4.908,6.861c1.908,0.818,3.858,1.541,5.781,2.328c1.082,0.441,2.146,0.924,3.756,1.621
	c-1.328,0.688-2.137,1.127-2.962,1.531c-2.114,1.039-2.27,1.828-0.677,3.608c0.362,0.405,0.76,0.776,1.141,1.165
	C134.125,264.918,134.035,265.082,133.944,265.246"/>
<path fill="#00ADDD" d="M12.336,138.289c0.758-1.082,1.44-1.787,1.794-2.629c0.489-1.161,0.788-2.412,1.041-3.652
	c0.08-0.389-0.15-1.142-0.412-1.234c-0.438-0.155-1.117-0.065-1.515,0.196c-0.725,0.474-1.299,1.173-1.972,1.734
	c-0.636,0.532-1.317,1.011-2.078,1.588c-0.116-0.476-0.226-0.663-0.173-0.747c2.391-3.798,2.464-8.02,2.269-12.292
	c-0.081-1.757-0.178-3.514-0.258-5.272c-0.094-2.055,0.652-3.661,2.262-5.024c3.06-2.59,6.611-4.231,10.352-5.406
	c4.881-1.533,9.991,0.341,12.437,4.288c0.194,0.311,0.275,0.692,0.509,1.304c-0.791-0.078-1.315-0.089-1.823-0.185
	c-4.482-0.847-8.891-0.891-13.176,0.991c-3.646,1.602-6.608,6.164-4.976,10.395c0.944,2.45,2.05,4.881,2.616,7.424
	C20.095,133.65,16.787,137.781,12.336,138.289"/>
<path fill="#00ADDD" d="M79.8,148.754c-1.892,0.723-3.561,1.359-5.604,2.141c0.963,1.141,1.643,1.945,2.568,3.04
	c-0.651-0.041-0.957,0.015-1.196-0.087c-1.97-0.842-3.912-0.898-6.065-0.525c-5.74,0.989-11.327,0.675-16.221-3.09
	c-0.688-0.528-1.575-0.792-2.301-1.279c-0.753-0.506-1.422-1.137-2.02-1.932c3.815,1.651,7.752,1.861,11.713,1.354
	c2.201-0.282,4.353-0.959,6.517-1.5c1.548-0.387,3.069-0.889,4.622-1.254C75.005,144.871,77.62,145.771,79.8,148.754"/>
<path fill="#FFFFFF" d="M48.086,144.08c-0.833-0.709-1.447-1.068-1.84-1.594c-3.357-4.488-4.736-9.655-5.067-15.158
	c-0.101-1.672-0.115-3.349-0.192-5.021c-0.157-3.412-0.33-6.822-0.512-10.557c1.127,1.237,2.048,2.417,2.713,3.843
	c0.604,1.297,1.265,2.575,2.002,3.801c1.29,2.147,1.399,4.567,1.579,6.93c0.289,3.812,0.307,7.644,0.544,11.461
	C47.433,139.73,47.781,141.662,48.086,144.08"/>
<path fill="#FFFFFF" d="M94.798,20.667c-1.105,1.876-2.531,2.771-3.965,3.551c-0.439,0.239-1.303-0.149-1.909-0.401
	c-1.386-0.58-2.7-1.339-4.106-1.858c-0.956-0.351-2.011-0.395-3.067,0.746c2.196,1.13,4.839,1.043,6.398,2.991
	c-1.273,2.008-2.429,2.417-4.355,1.593c-0.733-0.314-1.428-0.743-2.186-0.959c-0.527-0.151-1.132-0.029-1.824-0.028
	c0.414,1.991,2.359,1.874,3.238,3.041c-1.159,1.561-2.923,1.706-4.451,2.23c-0.813,0.279-5.794-3.589-5.877-4.461
	c-0.034-0.364,0.085-0.808,0.286-1.117c0.564-0.865,1.114-1.772,1.837-2.497c2.085-2.086,4.219-4.125,6.398-6.113
	c1.506-1.374,1.891-1.327,3.566-0.311c1.633,0.99,3.274,1.975,4.965,2.859c0.608,0.317,1.365,0.38,2.066,0.479
	C92.661,20.53,93.521,20.562,94.798,20.667"/>
<path fill="#00ADDD" d="M59.71,9.013c1.365-0.648,2.689-1.334,4.058-1.911c0.989-0.415,1.814,0.058,2.098,0.99
	c0.342,1.12,0.66,2.344,0.551,3.481c-0.175,1.806-0.631,3.599-1.121,5.356c-0.397,1.417-3.102,2.443-4.405,1.714
	c-0.324-0.179-0.678-0.815-0.596-1.131C61.025,14.704,60.274,11.997,59.71,9.013"/>
<path fill="#FFFFFF" d="M83.188,183.252c-3.018,0.131-5.99-0.157-8.853-1.258c-0.84-0.324-1.671-0.791-1.367-1.919
	c1.386-5.141,3.656-9.683,8.691-12.212c0.89-0.446,1.925-0.602,3.106-0.545c-0.344,0.367-0.694,0.73-1.029,1.105
	c-1.574,1.763-2.623,3.777-3.041,6.126c-0.398,2.238,0.009,4.279,1.318,6.132c0.49,0.692,1.023,1.354,1.536,2.029
	C83.428,182.892,83.308,183.072,83.188,183.252"/>
<path fill="#00ADDD" d="M84.862,170.326c2.077-1.972,3.722-3.877,6.628-3.688c1.033,0.066,2.072,0.031,3.104,0.104
	c0.774,0.054,1.471,0.397,1.487,1.265c0.027,1.404-0.083,2.81-0.149,4.584C92.164,171.82,88.73,171.117,84.862,170.326"/>
<path fill="#FFFFFF" d="M162.265,78.339c3.344,1.501,6.517,2.926,9.735,4.373c0.166,1.786-0.74,3.139-1.443,4.525
	c-0.721,1.421-1.578,2.772-2.359,4.163c-0.752,1.336-0.688,3.139-2.291,4.117c-0.281-0.26-0.563-0.429-0.721-0.678
	c-1.604-2.538-3.637-4.598-6.238-6.154c-1.729-1.033-1.664-1.312-0.673-3.055c0.946-1.662,1.813-3.368,2.726-5.051
	C161.369,79.897,161.762,79.228,162.265,78.339 M167.252,84.268c-1.454-0.301-1.767,0.652-2.072,1.401
	c-0.316,0.772-0.545,1.64-0.542,2.465c0.003,0.638,1.002,0.771,1.469,0.136C166.947,87.126,167.552,85.867,167.252,84.268
	 M162.475,83.061c-1.03,0.812-1.454,2.378-0.857,2.831c0.233,0.177,0.775,0.191,1.039,0.04c0.898-0.519,1.396-2.078,0.84-2.622
	C163.248,83.069,162.721,83.113,162.475,83.061"/>
<path fill="#FFFFFF" d="M13.979,77.884c2.06,1.229,3.848,2.601,5.861,3.414c2.017,0.815,4.259,1.075,6.478,1.597
	c-0.101,1.669-0.925,2.869-1.7,4.026c-0.278,0.416-1.131,0.758-1.631,0.662c-3.912-0.743-7.246-2.403-8.97-6.289
	C13.561,80.265,13.319,79.19,13.979,77.884"/>
<path fill="#00ADDD" d="M20.818,72.506c-0.149,2.397-0.276,4.445-0.417,6.718c-0.525-0.117-1.107-0.096-1.493-0.361
	c-0.984-0.676-1.944-1.415-2.797-2.248c-1.278-1.248-1.423-3.01-0.491-4.37c0.776-1.13,1.523-1.359,2.848-0.813
	C19.267,71.762,20.041,72.149,20.818,72.506"/>
<path fill="#FFFFFF" d="M87.304,226.735c-0.982,0.255-1.955,0.553-2.947,0.755c-1.718,0.352-3.441,0.691-5.176,0.938
	c-0.68,0.096-1.582,0.181-2.068-0.168c-2.324-1.671-4.55-3.48-6.781-5.279c-0.274-0.219-0.365-0.668-0.576-1.076
	c1.489-1.217,3.27-1.463,4.897-2.011c4.413-1.483,3.426-1.761,7.052,1.521c1.822,1.65,3.798,3.131,5.705,4.688
	C87.375,226.312,87.339,226.525,87.304,226.735 M79.55,226.5c-0.608-1.821-2.095-2.716-4.202-2.527
	C75.839,225.676,77.357,226.589,79.55,226.5 M77.865,221.784c0.832,1.493,2.054,2.276,4.104,2.239
	C80.968,222.214,79.726,221.48,77.865,221.784"/>
<path fill="#00ADDD" d="M81.853,87.151c-2.843,0.605-4.661,1.783-6.172,3.497c-0.687,0.779-1.618,0.744-2.242-0.158
	c-1.084-1.563-2.101-3.176-3.106-4.792c-0.442-0.711-0.288-1.416,0.39-1.893c1.233-0.868,2.476-1.732,3.782-2.479
	c0.423-0.242,1.202-0.345,1.573-0.114C78.312,82.599,80.089,84.448,81.853,87.151 M75.565,83.883
	c0.112,1.272,0.613,2.083,1.864,2.079c0.247,0,0.769-0.728,0.69-0.957C77.752,83.941,77.076,83.216,75.565,83.883 M76.29,86.413
	c-1.393-0.162-2.035-0.235-2.676-0.311c-0.01,0.419-0.136,1.157-0.009,1.203c0.6,0.219,1.275,0.342,1.911,0.298
	C75.739,87.589,75.923,87.003,76.29,86.413"/>
<path fill="#00ADDD" d="M105.569,257.529c-7.472,1.389-12.562-3.176-12.25-10.146c0.057-1.273,0.493-2.152,1.845-2.371
	c0.079-0.012,0.155-0.037,0.231-0.06c4.212-1.224,5.32-0.743,7.023,3.24c0.939,2.196,1.782,4.435,2.594,6.681
	C105.3,255.67,105.37,256.545,105.569,257.529"/>
<path fill="#FFFFFF" d="M153.871,206.97c-0.008-2.446,1.108-4.06,1.836-5.79c0.399-0.949,1.017-1.806,1.414-2.755
	c0.449-1.067,1.188-1.448,2.268-1.229c1.619,0.332,3.23,0.696,5.139,1.111c-0.834,2.94-1.606,5.673-2.384,8.402
	c-0.334,1.175-1.062,1.726-2.315,1.466C157.9,207.777,155.969,207.393,153.871,206.97 M161.677,205.178
	c-1.495-1.754-3.453-2.055-5.238-0.951C158.053,205.1,159.611,205.4,161.677,205.178 M157.38,200.908
	c1.075,0.58,2.125,1.508,3.618,0.554C159.818,200.297,158.645,200.348,157.38,200.908"/>
<path fill="#231F20" d="M191.305,139.875c0.037,0.369,0.115,0.914,0.139,1.461c0.141,3.285-0.234,6.519-1.027,9.705
	c-1.138,4.561-2.176,9.156-4.442,13.341c-0.437,0.806-0.743,2.099-1.982,1.496c-1.136-0.554-0.563-1.687-0.171-2.527
	c2.727-5.836,4.331-11.973,4.991-18.364c0.122-1.186,0.088-2.389,0.218-3.574c0.066-0.609,0.227-1.264,0.545-1.773
	C189.945,139.045,190.812,139.144,191.305,139.875"/>
<path fill="#231F20" d="M191.408,166.603c-0.551,0.03-0.997,0.183-1.279,0.031c-0.273-0.147-0.516-0.604-0.525-0.931
	c-0.011-0.461,0.164-0.941,0.334-1.385c2.096-5.492,3.031-11.233,3.678-17.037c0.08-0.713,0.089-1.434,0.133-2.151
	c0.029-0.478,0.017-0.964,0.105-1.43c0.174-0.913,0.557-1.856,1.635-1.612c0.396,0.088,0.82,1.117,0.815,1.717
	c-0.012,1.912-0.026,3.859-0.387,5.728c-0.847,4.382-1.837,8.738-2.892,13.077C192.691,163.978,191.968,165.252,191.408,166.603"/>
<path fill="#231F20" d="M197.406,168.703c-0.846-0.646-0.395-1.436-0.209-2.174c0.988-3.93,1.914-7.879,3.023-11.776
	c0.629-2.208,0.589-4.403,0.48-6.632c-0.022-0.477-0.114-0.948-0.146-1.426c-0.061-0.863-0.307-1.946,0.924-2.088
	c1.137-0.131,1.504,0.949,1.536,1.778c0.103,2.532,0.427,5.151-0.063,7.591c-0.871,4.356-1.816,8.741-3.713,12.824
	C198.656,168.053,198.67,168.06,197.406,168.703"/>
<path fill="#231F20" d="M209.62,149.159c0.032,0.31,0.18,0.794,0.11,1.245c-0.364,2.358-0.647,4.741-1.22,7.052
	c-0.71,2.863-1.659,5.669-2.542,8.489c-0.236,0.759-0.506,1.547-0.955,2.186c-0.246,0.348-0.897,0.41-1.365,0.604
	c-0.154-0.416-0.504-0.873-0.428-1.242c0.387-1.875,0.896-3.723,1.338-5.586c0.9-3.802,1.786-7.607,2.676-11.412
	c0.109-0.463,0.125-0.969,0.328-1.388C207.947,148.311,209.057,148.283,209.62,149.159"/>
<path fill="#231F20" d="M216.608,153.213c-0.024,0.779,0.013,1.48-0.076,2.162c-0.331,2.523-0.53,5.081-1.117,7.545
	c-0.433,1.821-1.36,3.531-2.129,5.263c-0.327,0.737-1.005,1.161-1.72,0.612c-0.268-0.205-0.314-1.045-0.129-1.438
	c1.588-3.375,1.929-7.027,2.488-10.634c0.121-0.786,0.174-1.59,0.393-2.349C214.579,153.466,215.127,152.82,216.608,153.213"/>
<path fill="#231F20" d="M223.451,156.561c0.343,3.598-0.426,6.877-1.578,10.098c-0.24,0.67-0.312,0.644-1.928,1.189
	c0.006-0.92-0.098-1.754,0.037-2.547c0.398-2.352,0.885-4.686,1.351-7.023C221.515,157.363,221.895,156.612,223.451,156.561"/>
<path fill="#231F20" d="M229.702,160.297c0.067,0.402,0.345,0.992,0.211,1.465c-0.5,1.75-1.08,3.486-1.767,5.172
	c-0.141,0.346-0.867,0.595-1.326,0.6c-0.194,0.002-0.641-0.806-0.556-1.138c0.511-1.992,1.085-3.976,1.767-5.917
	C228.262,159.819,228.915,159.572,229.702,160.297"/>
<path fill="#231F20" d="M235.301,168.51c-1.77-1.756-1.744-3.207-1.117-4.629c0.184-0.418,1.012-0.826,1.497-0.773
	c0.81,0.085,0.751,0.824,0.573,1.495C235.953,165.75,235.688,166.909,235.301,168.51"/>
<path fill="#231F20" d="M240.773,169.805c0.075-0.85-0.011-1.57,0.244-2.139c0.157-0.354,0.822-0.613,1.274-0.637
	c0.185-0.01,0.604,0.729,0.575,1.1C242.797,169.028,242.386,169.773,240.773,169.805"/>
<path fill="#231F20" d="M248.756,170.309c-0.093,0.307-0.152,1.015-0.347,1.055c-0.621,0.127-1.293,0.006-1.946-0.02
	c0.088-0.412,0.041-0.959,0.291-1.213C247.309,169.571,248.001,169.491,248.756,170.309"/>
<path fill="#231F20" d="M123.353,180.767c0.017,0.141,0.078,0.389,0.044,0.403c-0.161,0.064-0.347,0.064-0.524,0.09
	c0.028-0.145,0.015-0.323,0.098-0.418C123.039,180.764,123.221,180.787,123.353,180.767"/>
<path fill="#231F20" d="M167.252,84.268c0.299,1.599-0.305,2.858-1.145,4.002c-0.467,0.635-1.467,0.501-1.469-0.136
	c-0.004-0.825,0.225-1.693,0.541-2.465C165.486,84.919,165.797,83.967,167.252,84.268"/>
<path fill="#231F20" d="M162.475,83.061c0.246,0.052,0.773,0.008,1.021,0.249c0.557,0.544,0.059,2.104-0.84,2.622
	c-0.264,0.151-0.806,0.137-1.039-0.04C161.021,85.438,161.444,83.873,162.475,83.061"/>
<path fill="#231F20" d="M79.551,226.5c-2.193,0.089-3.712-0.824-4.203-2.527C77.456,223.784,78.943,224.679,79.551,226.5"/>
<path fill="#231F20" d="M77.865,221.784c1.861-0.304,3.103,0.43,4.104,2.239C79.919,224.061,78.697,223.277,77.865,221.784"/>
<path fill="#231F20" d="M75.564,83.882c1.511-0.666,2.188,0.059,2.554,1.123c0.079,0.229-0.443,0.956-0.69,0.957
	C76.179,85.965,75.677,85.155,75.564,83.882"/>
<path fill="#231F20" d="M76.29,86.413c-0.367,0.59-0.551,1.176-0.774,1.19c-0.636,0.044-1.311-0.079-1.911-0.298
	c-0.127-0.046-0.001-0.784,0.009-1.203C74.255,86.178,74.897,86.251,76.29,86.413"/>
<path fill="#231F20" d="M161.677,205.178c-2.065,0.223-3.624-0.078-5.237-0.952C158.225,203.123,160.181,203.424,161.677,205.178"/>
<path fill="#231F20" d="M157.38,200.908c1.265-0.561,2.438-0.611,3.618,0.554C159.505,202.416,158.455,201.488,157.38,200.908"/>
</svg>
