<?xml version="1.0" encoding="utf-8"?>
<!-- Generator: Adobe Illustrator 15.1.0, SVG Export Plug-In . SVG Version: 6.00 Build 0)  -->
<!DOCTYPE svg PUBLIC "-//W3C//DTD SVG 1.1//EN" "http://www.w3.org/Graphics/SVG/1.1/DTD/svg11.dtd">
<svg version="1.1" id="Layer_1" xmlns="http://www.w3.org/2000/svg" x="0px" y="0px"
	 width="272px" height="272px" viewBox="0 0 272 272"  xml:space="preserve">
<path fill="#231F20" d="M112.632,36.167c0.938-0.871,1.785-1.845,2.771-2.651c1.227-1.006,2.141-0.623,2.138,0.974
	c-0.003,2.145-0.047,4.331-0.45,6.426c-0.582,3.02-0.481,3.919,2.874,6.05c0.925,0.585,2.027,0.938,3.091,1.253
	c4.489,1.33,9.048,0.659,13.566,0.257c2.136-0.189,4.16-0.075,6.083,0.76c1.821,0.791,3.514,1.872,5.316,2.711
	c4.008,1.865,6.744,5.086,9.115,8.625c0.91,1.36,1.526,3.012,1.898,4.618c1.249,5.393-1.064,9.987-4.042,14.08
	c-2.73,3.752-6.464,6.565-10.625,8.806c-3.716,2.001-7.319,4.238-10.833,6.579c-2.639,1.758-4.457,4.311-5.682,7.251
	c-1.407,3.385-0.968,6.685,0.305,10.015c0.5,1.312,0.961,2.806,0.833,4.159c-0.449,4.718-2.543,8.677-6.177,11.782
	c-0.588,0.502-1.122,1.065-1.784,1.7c1.096,2.559,2.131,4.97,3.159,7.385c0.813,1.907,1.799,3.764,2.391,5.736
	c1.306,4.359,2.67,8.717,3.053,13.297c0.073,0.869,0.306,1.73,0.521,2.581c0.789,3.146,0.944,6.36,0.506,9.528
	c-0.506,3.656-2.136,6.846-5.083,9.24c-2.201,1.785-4.626,3.117-7.374,3.873c-0.745,0.205-1.558,0.505-2.102,1.015
	c-0.735,0.688-1.5,0.797-2.408,0.749c-5.431-0.277-10.861-0.533-16.292-0.803c-13.095-0.648-26.188-1.303-39.282-1.949
	c-6.147-0.304-12.308-0.441-18.439-0.928c-5.732-0.453-11.448-1.189-17.151-1.949c-4.754-0.631-9.487-1.417-14.209-2.255
	c-1.64-0.291-3.263-0.823-4.809-1.452c-1.841-0.748-2.016-2.361-0.428-3.454c3.357-2.306,6.719-4.613,10.152-6.805
	c5.658-3.614,11.408-7.087,17.062-10.713c5.441-3.489,10.795-7.116,16.21-10.649c6.157-4.016,12.297-8.062,18.521-11.971
	c6.293-3.955,12.646-7.819,19.041-11.605c3.362-1.991,6.916-3.659,10.303-5.612c2.961-1.707,6.196-2.174,9.471-2.18
	c1.704-0.003,3.429,0.655,5.103,1.155c0.702,0.209,1.514,0.631,1.186,2.038c-0.996-0.307-1.965-0.526-2.87-0.899
	c-3.282-1.354-6.443-0.796-9.498,0.639c-3.07,1.445-4.43,4.289-5.418,7.294c-2.129,6.476-2.342,13.163-2.21,19.913
	c0.065,3.339,1.028,6.454,1.735,9.64c1.694,7.633,4.782,14.569,10.475,20.116c2.286,2.227,4.917,4.14,6.971,6.555
	c2.4,2.82,5.047,3.319,8.3,2.09c0.146-0.055,0.328-0.025,0.47-0.086c2.564-1.109,5.141-2.192,6.974-4.459
	c2.04-2.521,3.282-5.402,3.03-8.628c-0.374-4.771-0.827-9.562-1.697-14.261c-0.68-3.674-1.897-7.273-3.149-10.809
	c-1.009-2.85-2.466-5.537-3.649-8.33c-0.895-2.11-1.249-2.227-3.362-0.641c0.183,0.466,0.355,0.978,0.578,1.467
	c0.561,1.237,1.264,2.423,1.695,3.701c2.073,6.131,4.178,12.254,6.066,18.442c1.273,4.175,1.341,8.521,0.849,12.843
	c-0.422,3.709-2.257,6.233-6.156,6.959c-0.816,0.151-1.738,0.523-2.298,1.101c-0.787,0.812-1.511,0.872-2.326,0.341
	c-2.068-1.352-4.34-2.514-6.089-4.209c-3.263-3.157-6.218-6.635-9.284-9.994c-0.258-0.285-0.398-0.684-0.565-1.041
	c-0.641-1.377-1.37-2.721-1.878-4.145c-0.88-2.469-1.995-4.938-2.341-7.495c-0.776-5.77-1.362-11.585-1.602-17.399
	c-0.171-4.139,0.264-8.345,2.015-12.212c2.404-5.306,8.568-6.262,12.32-1.809c1.473,1.749,2.842,2.374,4.907,1.467
	c0.288-0.126,0.624-0.139,0.933-0.22c4.986-1.323,6.384-3.271,6.165-8.435c-0.091-2.153-0.224-4.323-0.049-6.461
	c0.349-4.267,2.225-7.625,6.29-9.492c1.161-0.533,2.265-1.19,3.436-1.694c2.228-0.962,4.268-2.182,5.99-3.906
	c2.032-2.036,4.165-3.979,6.092-6.107c2.373-2.62,4.3-5.582,5.645-8.863c1.61-3.932,0.879-7.702-1.184-11.251
	c-1.843-3.173-5.099-3.347-8.218-3.425c-2.381-0.06-4.822,0.083-7.15,0.554c-4.687,0.947-9.267,0.426-13.772-0.729
	c-4.339-1.112-7.948-3.534-9.867-7.712c-1.648-3.59-2.271-7.491-1.893-11.459c0.263-2.743,1.073-5.35,3.026-7.417
	c0.388-0.407,1.151-0.802,1.614-0.688c0.376,0.094,0.72,0.936,0.797,1.486c0.155,1.098,0.081,2.24,1.368,2.978
	C111.786,36.812,112.244,36.526,112.632,36.167 M14.144,174.575c8.158,1.067,16.333,2.011,24.51,2.94
	c1.736,0.196,3.508,0.08,5.261,0.172c7.019,0.366,14.034,0.817,21.055,1.125c8.776,0.388,17.56,0.638,26.336,1.002
	c5.348,0.222,10.69,0.55,16.035,0.824c0.631,0.033,1.265,0.033,2.288,0.059c-0.836-1.381-1.747-2.295-2.792-3.08
	c-3.338-2.506-6.378-5.338-8.999-8.578c-2.873-3.553-5.321-7.385-6.621-11.824c-1.011-3.451-2.065-6.898-2.833-10.405
	c-0.507-2.323-0.691-4.745-0.754-7.13c-0.175-6.809-0.018-13.596,2.441-20.096c0.105-0.278,0.095-0.603,0.195-1.306
	c-1.373,0.674-2.478,1.208-3.574,1.759c-1.071,0.535-2.182,1.014-3.193,1.646c-6.027,3.77-12.061,7.531-18.035,11.38
	c-6.847,4.412-13.602,8.971-20.46,13.367c-8.266,5.3-16.611,10.477-24.896,15.748c-4.78,3.043-9.51,6.166-14.256,9.263
	c-0.32,0.209-0.592,0.496-0.886,0.747c0.019,0.213,0.035,0.424,0.053,0.638C8.059,173.421,11.079,174.174,14.144,174.575
	 M118.604,173.91c1.244,0.072,1.923-0.583,2.533-1.329c1.155-1.408,1.689-3.06,1.855-4.853c0.357-3.865,0.146-7.727-1.019-11.404
	c-2.192-6.924-4.645-13.768-6.994-20.645c-0.076-0.225-0.211-0.432-0.292-0.657c-0.842-2.353-2.387-3.284-4.972-3.034
	c-3.568,0.35-7.174,0.318-10.761,0.507c-1.102,0.058-2.191,0.306-3.211,0.456c-0.477,1.764,0.128,11.836,0.853,13.814
	c0.584-0.682,1.135-1.221,1.566-1.842c1.549-2.227,3.043-4.495,4.592-6.723c0.657-0.943,1.268-2.056,3.143-1.608
	c-0.433,0.819-0.706,1.524-1.135,2.121c-2.328,3.242-4.686,6.463-7.049,9.681c-1.191,1.621-0.552,3.154,0.122,4.823
	c1.161-0.239,1.522-1.212,2.008-1.956c2.355-3.612,4.663-7.256,6.965-10.903c0.484-0.769,0.911-1.522,2.17-1.042
	c-0.11,0.482-0.106,0.982-0.329,1.343c-1.172,1.904-2.369,3.794-3.616,5.649c-1.783,2.651-3.57,5.301-5.446,7.885
	c-1.146,1.58-0.456,2.82,0.548,4.364c4.431-4.081,6.153-10.206,10.888-14.062c0.776,1.188,0.068,1.766-0.36,2.372
	c-2.812,3.979-5.642,7.947-8.466,11.917c-0.709,0.996-1.431,1.989,0.086,3.353c1.688-1.727,3.062-3.621,4.302-5.628
	c1.258-2.038,2.463-4.108,3.759-6.122c0.541-0.84,1.134-1.783,2.476-1.47c0.47,1.183-0.4,1.836-0.909,2.567
	c-2.416,3.476-4.88,6.916-7.297,10.389c-1.239,1.779-1.142,2.287,0.787,3.984c1.05-1.363,2.167-2.668,3.118-4.084
	c1.47-2.185,2.773-4.48,4.248-6.66c0.844-1.246,0.934-1.186,2.486-1.521c0.591,0.745,0.074,1.323-0.324,1.892
	c-2.332,3.338-4.682,6.663-7.013,10.002c-0.363,0.52-0.778,1.053-0.956,1.643c-0.265,0.88,0.196,1.668,0.993,1.936
	c0.459,0.154,1.333-0.062,1.63-0.428c1.56-1.922,3.019-3.928,4.462-5.939c0.549-0.766,0.927-1.671,2.428-1.775
	c-0.165,0.717-0.153,1.353-0.439,1.799c-1.376,2.147-2.827,4.248-4.268,6.355c-0.313,0.461-0.795,0.834-1.008,1.33
	c-0.156,0.363-0.001,0.861,0.016,1.298c0.486-0.053,1.17,0.081,1.424-0.188c0.925-0.988,1.706-2.111,2.545-3.18
	c0.592-0.755,1.166-1.525,1.796-2.248c0.482-0.555,1.051-1.004,2.133-0.287c-0.337,0.654-0.601,1.358-1.025,1.948
	c-0.979,1.364-2.056,2.655-3.053,4.007c-0.463,0.627-1.088,1.31-0.336,2.119c0.588,0.633,1.701,0.421,2.53-0.453
	c0.271-0.285,0.466-0.646,0.712-0.961c0.188-0.243,0.402-0.465,0.604-0.695c0.158,0.037,0.316,0.075,0.475,0.111
	C118.587,172.533,118.595,173.188,118.604,173.91 M140.955,87.925c3.772-2.397,7.784-4.478,10.911-7.762
	c2.769-2.91,4.454-6.458,5.28-10.328c0.529-2.478-0.044-5.052-1.361-7.178c-3.838-6.186-9.152-10.547-16.583-11.402
	c-3.294-0.378-6.697,0.062-10.04,0.287c-4.124,0.278-7.985-0.442-11.418-2.774c-1.164-0.79-2.15-1.895-3.062-2.985
	c-0.928-1.109-0.979-2.487-0.687-3.882c0.309-1.476,0.584-2.96,0.959-4.875c-2.354,1.608-4.344,3.825-6.906,1.093
	c-1.294,1.768-1.239,3.522-1,5.099c0.405,2.669,1.003,5.348,1.882,7.898c0.938,2.719,3.275,4.31,5.775,5.475
	c5.031,2.346,10.31,2.625,15.711,1.599c4.135-0.786,8.272-0.704,12.36,0.269c2.691,0.641,4.4,2.596,5.501,4.981
	c2.785,6.042,2.256,11.826-1.849,17.128c-1.986,2.565-4.159,4.987-6.318,7.559C140.402,88.062,140.727,88.07,140.955,87.925
	 M126.076,97.91c-2.687,2.09-4.671,4.594-4.598,8.233c0.053,2.554,0.009,5.115,0.191,7.659c0.239,3.323-1.42,5.45-4.078,7.011
	c-2.67,1.57-5.687,2.128-8.67,2.622c-2.271,0.375-4.611,0.331-6.92,0.481c-1.873,0.123-3.746,0.258-5.802,0.398
	c-0.337,2.232-0.626,4.154-0.915,6.072c0.563,0.145,0.796,0.268,1.018,0.25c6.044-0.454,12.091-0.875,18.128-1.404
	c5.331-0.471,8.577-3.82,10.914-8.274c0.479-0.911,0.709-1.95,1.08-2.919c0.662-1.731,0.638-3.431-0.161-5.114
	c-0.137-0.289-0.236-0.594-0.365-0.886c-2.008-4.517-1.677-8.84,1.037-12.985c0.277-0.423,0.408-0.942,0.769-1.8
	C126.89,97.572,126.411,97.649,126.076,97.91 M106.257,120.48c-2.216-3.583-5.814-3.659-7.811-0.004
	C101.028,121.337,103.758,121.319,106.257,120.48"/>
<path fill="#231F20" d="M161.186,101.253c0.71,0.518,1.465,0.995,2.095,1.6c2.355,2.261,5.321,2.807,8.387,3.028
	c3.378,0.244,4.788-1.259,4.197-4.562c-0.364-2.034-0.989-4.02-1.449-6.039c-0.479-2.103-0.789-4.248-1.368-6.32
	c-2.253-8.057-3.584-16.196-2.897-24.605c0.491-6.02,2.131-11.591,6.771-15.66c5.088-4.461,11.025-7.431,17.959-7.518
	c5.461-0.066,10.484,1.466,14.137,5.83c1.933,2.31,3.496,4.925,5.29,7.354c1.702,2.307,3.415,4.615,5.26,6.807
	c1.796,2.133,3.85,4.051,5.628,6.198c1.008,1.216,1.762,2.666,2.476,4.087c0.237,0.471,0.214,1.388-0.099,1.726
	c-0.286,0.311-1.189,0.302-1.697,0.11c-1.113-0.423-2.134-1.083-3.219-1.59c-1.783-0.833-2.169-0.753-3.607,0.584
	c-0.761,0.708-1.493,1.446-2.271,2.134c-1.647,1.459-2.581,1.188-3.303-0.819c-1.354-3.754-2.69-7.518-4.203-11.209
	c-0.527-1.286-1.512-2.398-2.365-3.531c-0.622-0.826-1.409-1.528-2.053-2.34c-1.653-2.082-3.812-2.841-6.376-2.425
	c-1.891,0.307-3.778,0.67-5.637,1.136c-6.59,1.651-11.557,7.239-12.588,13.681c-0.798,4.99-0.489,10.037,0.57,15.015
	c0.449,2.107,0.757,4.244,1.092,6.373c0.667,4.239,0.678,8.576,2.314,12.665c0.886,2.214,0.289,4.387-1.095,6.347
	c-2.844,4.028-7.089,5.907-11.631,6.421c-5.546,0.627-11.182,0.165-16.671-1.154c-0.705-0.169-1.34-0.627-2.306-1.096
	c2.262-2.7,6.009-1.723,8.068-4.384c-1.19-2.398-2.418-4.875-3.707-7.473C158.979,99.976,159.397,99.946,161.186,101.253
	 M180.207,98.715c-0.391-4.367-0.64-8.779-1.494-13.063c-1.105-5.544-1.654-11.076-0.937-16.658
	c0.703-5.47,3.039-9.956,8.136-12.831c2.7-1.523,5.397-2.587,8.463-3.047c2.994-0.449,5.918-1.366,8.996-0.817
	c1.646,0.293,3.292,0.576,4.939,0.857c0.518,0.09,1.039,0.167,1.546,0.247c0.06-0.315,0.158-0.499,0.105-0.608
	c-3.493-7.439-10.602-10.962-18.478-9.65c-3.759,0.626-7.178,2.317-10.198,4.579c-3.309,2.48-5.741,5.698-7.013,9.748
	c-1.863,5.93-1.855,11.99-1.155,18.032c0.477,4.105,1.562,8.14,2.376,12.207c0.846,4.222,1.688,8.445,2.544,12.665
	c0.167,0.822,0.401,1.63,0.604,2.444c0.213-0.019,0.426-0.039,0.639-0.058C180.148,101.56,180.331,100.106,180.207,98.715
	 M171.597,108.099c-3.646-0.521-7.216-1.277-10.011-4.063c-0.139,0.118-0.277,0.235-0.417,0.354
	c0.339,0.833,0.646,1.681,1.023,2.495c0.268,0.577,0.661,1.093,0.944,1.664c0.729,1.471,0.566,1.926-0.925,2.565
	c-1.149,0.495-2.316,0.947-3.991,1.626c0.923,0.374,1.306,0.649,1.701,0.669c3.185,0.162,6.371,0.397,9.556,0.363
	c2.814-0.031,5.575-0.775,7.982-2.201c2.577-1.525,4.513-3.692,4.594-7.586C178.524,106.253,175.593,108.672,171.597,108.099
	 M219.474,69.298c1.129-0.491,2.561-0.291,4.029-0.407c-1.301-1.511-2.655-3.13-4.061-4.703c-1.116-1.248-2.392-2.364-3.421-3.674
	c-2.011-2.562-4.711-4.003-7.677-5.073c-0.28-0.1-0.604-0.079-1.057-0.132c0.14,1.152,1.101,1.427,1.628,2.047
	c0.866,1.014,1.906,1.969,2.456,3.146c1.079,2.302,1.849,4.749,2.79,7.116c0.553,1.394,1.191,2.753,1.926,4.435
	C217.317,71.011,218.253,69.831,219.474,69.298"/>
<path fill="#231F20" d="M143.785,177.791c-0.613-2.686-0.245-3.101,2.543-2.846c0.316,0.029,0.63,0.099,0.945,0.151
	c3.51,0.595,6.688,2.015,9.847,3.628c3.418,1.744,5.931,4.322,7.872,7.508c2.303,3.783,2.423,8.863-0.721,12.818
	c-2.754,3.465-6.221,5.941-10.563,7.076c-4.896,1.277-9.533,3.152-13.915,5.719c-5.097,2.986-7.265,8.122-5.243,13.203
	c0.974,2.446,1.91,4.975,3.341,7.152c1.421,2.164,3.285,4.115,5.247,5.826c1.538,1.34,3.587,2.072,5.292,3.246
	c3.701,2.545,6.578,5.619,6.14,10.603c-0.069,0.79-0.085,1.624,0.092,2.388c0.225,0.973,0.04,1.676-0.692,2.354
	c-0.46,0.426-0.746,1.031-1.129,1.545c-2.7,3.613-6.194,5.965-10.71,6.635c-2.446,0.363-4.901,0.667-7.354,0.979
	c-0.825,0.104-1.658,0.148-2.558,0.225c-0.372-2.669,2.407-3.557,2.593-5.999c-1.159-0.517-2.366-1.065-3.585-1.59
	c-0.846-0.364-1.77-0.835-1.505-1.857c0.194-0.749,0.912-1.374,1.444-2.015c0.127-0.153,0.446-0.143,0.672-0.22
	c2.793-0.968,5.64-1.807,8.357-2.954c1.657-0.699,3.334-1.647,4.612-2.887c2.065-1.998,1.654-4.753-0.735-6.35
	c-1.975-1.318-4.018-2.536-6.071-3.727c-4.015-2.328-8.022-4.607-10.815-8.533c-3.008-4.227-4.723-8.787-3.473-13.934
	c0.709-2.918,1.772-5.867,3.287-8.443c1.863-3.166,5.254-4.497,8.704-5.497c3.841-1.112,7.759-1.061,11.658-0.704
	c2.565,0.232,4.229-0.361,5.266-2.939c1.042-2.588,0.93-4.283-1.16-6.148c-1.691-1.51-3.623-2.561-5.78-3.312
	c-1.873-0.654-3.697-1.52-5.435-2.486c-1.878-1.043-1.828-2.617,0.076-3.564c1.264-0.629,2.648-1.018,4.224-1.605
	C144.269,179.96,144.032,178.875,143.785,177.791 M146.119,180.059c0.244,0.495,0.644,0.912,0.932,1.391
	c0.986,1.637,0.675,2.272-1.195,2.525c-1.074,0.145-2.146,0.311-3.387,0.491c0.43,1.458,1.412,1.804,2.407,2
	c2.577,0.509,4.727,1.792,6.805,3.345c3.198,2.39,4.181,5.491,3.372,9.283c-0.165,0.774-0.394,1.533-0.638,2.474
	c2.16,0.119,4.019-0.495,5.608-1.692c3.068-2.313,5.225-5.197,4.753-9.321c-0.326-2.846-1.97-5.042-3.964-6.926
	c-3.987-3.769-8.948-5.413-14.255-6.22c-0.322-0.049-0.639-0.148-0.959-0.225l-0.33,0.754
	C145.548,178.646,145.784,179.376,146.119,180.059 M132.443,227.177c-1.196-2.826-1.954-5.761-1.227-8.86
	c0.893-3.799,3.062-6.542,6.609-8.311c4.369-2.176,8.785-4.188,13.522-5.426c0.271-0.07,0.495-0.309,1.036-0.66
	c-0.736-0.205-1.159-0.425-1.581-0.422c-3.51,0.023-7.043-0.147-10.522,0.202c-3.812,0.383-7.767,1.03-10.437,4.159
	c-3.345,3.924-5.455,8.311-4.383,13.791c1.047,5.351,3.941,9.324,8.269,12.412c0.455,0.324,0.931,0.621,1.416,0.896
	c0.196,0.109,0.445,0.127,0.974,0.268C134.814,232.383,133.557,229.811,132.443,227.177 M141.384,262.535
	c1.874-0.355,3.801-0.636,5.564-1.316c2.62-1.011,4.662-2.816,5.502-5.627c1.287-4.308,1.309-8.746-3.943-11.738
	c-0.144,0.641-0.315,1.201-0.391,1.775c-0.414,3.167-1.904,5.572-4.908,6.861c-1.909,0.818-3.859,1.541-5.782,2.328
	c-1.081,0.441-2.146,0.924-3.756,1.621c1.329,0.688,2.138,1.127,2.962,1.531c2.115,1.04,2.271,1.828,0.678,3.608
	c-0.362,0.405-0.76,0.776-1.141,1.165l0.271,0.492C138.088,263.008,139.75,262.845,141.384,262.535"/>
<path fill="#231F20" d="M259.999,138.504c-4.36-0.1-7.987-1.516-9.987-5.742c-0.272-0.578-0.577-1.142-0.851-1.721
	c-0.75-1.584-0.939-3.197-0.293-4.878c0.629-1.638,1.306-3.266,1.797-4.946c0.798-2.728,1.367-5.526-0.79-7.934
	c-1.309-1.461-3.018-2.401-4.989-2.662c-3.61-0.476-7.174-0.228-10.677,0.842c-1.527,0.465-2.204,1.5-2.271,3.009
	c-0.065,1.514-0.135,3.03-0.122,4.545c0.055,6.781-0.827,13.393-3.443,19.701c-1.251,3.018-2.199,6.242-5.156,8.166
	c-1.672,1.088-3.468,1.992-5.102,3.131c-2.655,1.853-5.616,2.699-8.778,2.855c-2.228,0.109-4.477,0.109-6.699-0.062
	c-4.172-0.322-8.152-0.203-11.191,3.275c-0.204,0.233-0.498,0.491-0.778,0.528c-0.523,0.066-1.229,0.174-1.553-0.1
	c-0.303-0.254-0.294-0.987-0.258-1.496c0.027-0.369,0.295-0.739,0.509-1.072c1.02-1.598,2.058-3.182,3.099-4.785
	c-0.066-0.076-0.146-0.26-0.271-0.298c-0.61-0.185-1.231-0.335-1.851-0.486c-0.775-0.19-1.582-0.296-2.325-0.573
	c-0.99-0.368-1.298-1.21-0.57-1.842c2.083-1.812,3.969-4.225,7.09-4.019c2.927,0.194,5.887,0.541,8.725,1.253
	c3.656,0.916,7.227,1.98,11.074,1.627c3.991-0.367,5.319-1.352,6.354-5.232c0.246-0.924,0.488-1.873,0.538-2.82
	c0.196-3.75,0.43-7.5,0.43-11.252c0.001-3.757,0.595-7.316,2.467-10.613c0.552-0.971,1-2.011,1.621-2.936
	c3.627-5.398,7.929-9.817,14.968-10.296c2.904-0.198,5.756-0.157,8.491,0.983c1.475,0.616,3.003,1.139,4.393,1.911
	c1.735,0.963,3.464,2.001,4.99,3.257c2.002,1.649,3.051,3.839,2.856,6.549c-0.114,1.589-0.05,3.192-0.062,4.79
	c-0.014,1.759-0.167,3.531-0.01,5.274c0.32,3.533,1.209,6.801,4.993,8.303c0.32,0.129,0.542,0.513,0.814,0.782
	c-1.806,1.638-2.907,1.622-8.619-0.08c0.735,1.927,2.732,2.422,4.117,3.79C261.914,138.418,260.941,138.525,259.999,138.504
	 M256.253,133.65c-0.489-1.16-0.788-2.412-1.041-3.652c-0.08-0.389,0.15-1.141,0.412-1.234c0.438-0.154,1.117-0.066,1.515,0.196
	c0.726,0.475,1.299,1.173,1.973,1.734c0.636,0.532,1.316,1.011,2.077,1.589c0.116-0.477,0.227-0.663,0.174-0.748
	c-2.392-3.797-2.464-8.019-2.27-12.29c0.081-1.758,0.178-3.515,0.258-5.273c0.095-2.055-0.651-3.66-2.262-5.024
	c-3.06-2.59-6.611-4.23-10.352-5.406c-4.882-1.534-9.991,0.342-12.438,4.288c-0.194,0.312-0.274,0.692-0.509,1.304
	c0.791-0.077,1.314-0.089,1.823-0.186c4.481-0.846,8.891-0.89,13.176,0.992c3.646,1.602,6.608,6.164,4.976,10.395
	c-0.943,2.451-2.05,4.881-2.615,7.424c-0.862,3.881,2.445,8.012,6.896,8.52C257.289,135.197,256.607,134.492,256.253,133.65
	 M196.187,148.885c-0.963,1.141-1.643,1.945-2.567,3.041c0.651-0.041,0.958,0.014,1.195-0.088c1.971-0.842,3.912-0.896,6.066-0.525
	c5.739,0.989,11.326,0.674,16.221-3.09c0.688-0.528,1.574-0.791,2.301-1.279c0.753-0.506,1.422-1.137,2.021-1.932
	c-3.815,1.651-7.753,1.861-11.714,1.354c-2.2-0.283-4.352-0.961-6.516-1.5c-1.55-0.387-3.069-0.889-4.622-1.254
	c-3.193-0.749-5.808,0.149-7.988,3.133C192.475,147.467,194.144,148.104,196.187,148.885 M224.137,140.477
	c3.357-4.488,4.736-9.654,5.068-15.158c0.1-1.672,0.113-3.348,0.19-5.021c0.158-3.412,0.33-6.822,0.513-10.557
	c-1.126,1.235-2.049,2.416-2.712,3.843c-0.605,1.297-1.267,2.574-2.003,3.8c-1.29,2.148-1.399,4.568-1.578,6.93
	c-0.289,3.812-0.308,7.645-0.544,11.461c-0.121,1.945-0.469,3.879-0.774,6.295C223.13,141.361,223.744,141.002,224.137,140.477"/>
<path fill="#231F20" d="M185.693,12.949c1.567-1.3,2.215-1.245,3.692,0.167c0.634,0.606,1.245,1.238,1.855,1.869
	c2.648,2.742,5.768,5.024,7.855,8.321c1.052,1.662,1.16,2.056-0.354,3.411c-0.892,0.796-2.049,1.36-2.759,2.28
	c-2.106,2.728-4.62,2.77-7.429,1.425c-1.074-0.514-2.124-1.094-3.131-1.729c-1.147-0.723-2.164-1.679-3.361-2.29
	c-3.774-1.925-6.536-5.08-9.664-7.788c-0.519-0.449-0.979-1.124-1.158-1.779c-0.674-2.454-1.381-4.918-1.766-7.425
	c-0.342-2.228,0.598-4.234,1.986-5.975c0.859-1.076,1.626-1.197,2.956-0.588c1.668,0.765,3.337,1.53,4.997,2.312
	c2.096,0.988,2.204,1.299,1.413,3.461c-0.846,2.31-1.038,4.619,0.083,7.086C182.789,15.136,184.274,14.125,185.693,12.949
	 M179.551,22.208c0.439,0.238,1.303-0.148,1.908-0.401c1.386-0.58,2.701-1.339,4.106-1.858c0.955-0.352,2.012-0.395,3.066,0.746
	c-2.195,1.129-4.839,1.043-6.397,2.991c1.273,2.007,2.43,2.416,4.355,1.593c0.732-0.313,1.428-0.744,2.186-0.96
	c0.527-0.15,1.132-0.028,1.824-0.028c-0.415,1.991-2.358,1.875-3.238,3.042c1.159,1.561,2.924,1.705,4.451,2.229
	c0.813,0.279,5.794-3.589,5.876-4.461c0.035-0.364-0.084-0.808-0.284-1.116c-0.565-0.866-1.114-1.774-1.839-2.498
	c-2.084-2.085-4.218-4.125-6.396-6.113c-1.506-1.373-1.892-1.326-3.566-0.311c-1.633,0.991-3.273,1.975-4.966,2.858
	c-0.607,0.318-1.365,0.381-2.064,0.479c-0.85,0.12-1.711,0.151-2.986,0.255C176.69,20.533,178.117,21.428,179.551,22.208
	 M174.59,5.093c-0.989-0.415-1.813,0.058-2.098,0.991c-0.342,1.119-0.66,2.342-0.551,3.479c0.175,1.806,0.631,3.601,1.121,5.356
	c0.396,1.417,3.102,2.443,4.405,1.714c0.323-0.18,0.678-0.815,0.595-1.132c-0.729-2.807,0.022-5.514,0.585-8.498
	C177.283,6.354,175.96,5.669,174.59,5.093"/>
<path fill="#231F20" d="M182.805,181.525c0.589-0.429,1.146-0.859,1.729-1.251c2.73-1.842,3.419-4.429,2.898-7.543
	c-0.21-1.255-0.817-1.747-2.049-1.85c-1.922-0.161-3.793-0.265-5.682,0.364c-1.507,0.502-3.086,0.812-4.652,1.104
	c-1.661,0.31-2.414-0.239-2.623-1.925c-0.167-1.344-0.189-2.705-0.233-4.061c-0.062-1.884,0.984-3.434,3.216-3.205
	c1.101,0.114,2.331,0.24,3.324-0.123c3.382-1.242,6.596-0.404,9.845,0.426c3.188,0.814,5.41,2.816,7.263,5.477
	c2.183,3.135,3.582,6.535,4.311,10.419C195.588,182.925,185.75,184.177,182.805,181.525 M196.049,179.984
	c0.84-0.324,1.671-0.791,1.366-1.918c-1.386-5.143-3.655-9.684-8.69-12.213c-0.891-0.447-1.926-0.602-3.106-0.545
	c0.344,0.368,0.694,0.73,1.029,1.105c1.574,1.764,2.623,3.777,3.041,6.126c0.397,2.237-0.009,4.279-1.318,6.132
	c-0.489,0.691-1.022,1.354-1.536,2.029c0.121,0.181,0.241,0.361,0.361,0.542C190.213,181.373,193.186,181.085,196.049,179.984
	 M178.894,164.627c-1.033,0.068-2.072,0.032-3.105,0.104c-0.773,0.054-1.471,0.397-1.486,1.265c-0.027,1.404,0.083,2.81,0.148,4.585
	c3.77-0.771,7.203-1.474,11.071-2.265C183.444,166.345,181.799,164.438,178.894,164.627"/>
<path fill="#231F20" d="M106.176,95.92c-1.646,1.251-2.638,1.151-3.792-0.529c-0.763-1.11-1.342-2.349-1.97-3.547
	c-0.773-1.478-1.529-2.965-2.263-4.463c-1.017-2.075-2.091-4.126-2.978-6.256c-0.634-1.522-0.073-2.472,1.479-2.435
	c1.867,0.044,3.392-0.706,4.979-1.464c1.869-0.895,3.763-1.746,5.678-2.535c2.118-0.872,2.541-0.697,3.591,1.295
	c1.298,2.465,2.469,5.002,3.881,7.399c1.351,2.294,1.494,2.581-0.617,4.101c-2.691,1.939-5.005,4.179-6.775,7.287
	C107.1,95.05,106.678,95.539,106.176,95.92 M98.382,80.702c-0.165,1.787,0.742,3.14,1.444,4.526c0.72,1.421,1.578,2.772,2.359,4.163
	c0.752,1.336,0.688,3.139,2.291,4.117c0.281-0.26,0.563-0.429,0.721-0.678c1.604-2.538,3.638-4.598,6.24-6.154
	c1.727-1.033,1.663-1.312,0.671-3.055c-0.946-1.662-1.814-3.368-2.726-5.051c-0.368-0.681-0.762-1.35-1.265-2.239
	C104.774,77.831,101.603,79.256,98.382,80.702"/>
<path fill="#231F20" d="M245.766,78.374c1.993-0.297,2.332-0.553,2.418-2.575c0.056-1.328-0.148-2.707-0.479-4
	c-0.642-2.516-0.618-2.678,1.701-3.541c0.67-0.249,1.334-0.537,1.958-0.884c1.048-0.584,2.084-0.531,2.859,0.31
	c0.956,1.036,1.954,2.14,2.521,3.401c0.677,1.508,1.023,3.193,1.326,4.837c0.652,3.554-0.506,6.561-3.434,8.607
	c-1.737,1.215-3.773,2.083-5.783,2.806c-1.926,0.694-3.393,0.014-4.473-1.777c-0.822-1.364-1.542-2.802-2.185-4.261
	c-0.296-0.674-0.299-1.477-0.48-2.466C243.261,78.659,244.521,78.559,245.766,78.374 M250.543,79.288
	c-2.017,0.816-4.259,1.076-6.478,1.597c0.101,1.669,0.925,2.869,1.7,4.027c0.277,0.415,1.131,0.757,1.631,0.662
	c3.912-0.745,7.246-2.404,8.97-6.289c0.456-1.029,0.698-2.104,0.038-3.41C254.344,77.104,252.557,78.474,250.543,79.288
	 M249.982,77.214c0.524-0.118,1.106-0.097,1.492-0.361c0.984-0.676,1.944-1.415,2.798-2.248c1.277-1.248,1.423-3.011,0.49-4.37
	c-0.775-1.131-1.522-1.36-2.848-0.813c-0.799,0.33-1.573,0.717-2.35,1.075C249.714,72.894,249.841,74.941,249.982,77.214"/>
<path fill="#231F20" d="M142.988,142.372c1.352,0.608,2.263-0.057,3.177-0.696c1.045-0.732,2.036-1.557,3.139-2.188
	c1.332-0.763,1.979-0.672,2.941,0.484c1.782,2.145,3.517,4.336,5.162,6.588c1.042,1.427,0.921,1.828-0.47,2.979
	c-0.609,0.505-1.265,0.992-1.974,1.333c-2.74,1.311-3.081,1.192-4.861-1.298c-1.559-2.178-3.592-3.838-5.892-5.166
	c-0.571-0.328-1.271-0.434-1.843-0.617c-0.764,1.085-0.184,1.647,0.405,2.014c3.068,1.911,5.125,4.752,7.125,7.642
	c0.714,1.03,1.461,1.21,2.639,0.699c2.552-1.109,5.31-1.757,7.521-3.599c1.853-1.543,1.984-1.646,0.552-3.637
	c-2.142-2.971-4.386-5.874-6.691-8.723c-1.08-1.332-2.652-1.756-4.342-1.379c-2.713,0.605-4.638,2.392-6.349,4.441
	C143.019,141.5,143.067,141.967,142.988,142.372"/>
<path fill="#231F20" d="M161.576,41.253c-0.333-0.597-0.651-1.288-1.076-1.906c-0.677-0.986-1.436-1.915-2.137-2.884
	c-1.115-1.543-1.125-2.2,0.264-3.5c0.982-0.917,2.123-1.679,3.246-2.431c0.981-0.656,2.035-1.203,3.242-1.905
	c2.216,2.067,4.461,4.161,6.751,6.296c-2.185,3.297-6.285,4.115-8.074,7.351c0.932,0.895,1.616,0.439,2.171,0.074
	c2.66-1.759,5.321-3.522,7.897-5.399c1.321-0.961,1.429-1.802,0.302-3.017c-2.272-2.451-4.63-4.836-7.086-7.104
	c-1.404-1.298-1.787-1.172-3.353-0.157c-1.467,0.95-2.982,1.83-4.405,2.84c-0.835,0.593-1.514,1.4-2.295,2.073
	c-0.766,0.66-1.534,1.331-2.371,1.892c-1.01,0.677-1.202,1.132-0.569,2.127c0.299,0.466,0.683,0.887,1.071,1.284
	c1.395,1.422,2.815,2.817,4.208,4.24C159.959,41.739,160.532,42.278,161.576,41.253"/>
<path fill="#231F20" d="M187.884,227.41c-2.194-0.385-4.397-0.75-6.566-1.256c-1.966-0.457-2.26-1.486-0.821-2.762
	c3.096-2.744,6.249-5.424,9.369-8.14c0.711-0.619,1.432-0.913,2.4-0.581c2.865,0.982,5.751,1.909,8.631,2.854
	c0.818,0.27,1.162,0.789,1.467,1.652c0.763,2.164-0.21,3.509-1.745,4.725c-1.812,1.434-3.625,2.865-5.448,4.285
	c-0.944,0.734-1.89,1.499-3.385,1.283C191.1,227.801,189.462,227.686,187.884,227.41 M186.026,225.48
	c1.718,0.352,3.44,0.691,5.176,0.938c0.68,0.096,1.582,0.181,2.067-0.168c2.324-1.671,4.551-3.48,6.781-5.279
	c0.274-0.219,0.365-0.668,0.575-1.076c-1.489-1.217-3.27-1.463-4.896-2.011c-4.413-1.483-3.428-1.761-7.053,1.521
	c-1.822,1.65-3.799,3.131-5.704,4.688c0.034,0.21,0.069,0.424,0.105,0.634C184.061,224.98,185.033,225.278,186.026,225.48"/>
<path fill="#231F20" d="M187.267,81.771c1.684-1.448,3.329-2.945,5.063-4.328c1.523-1.214,3.293-1.389,4.934-0.354
	c1.955,1.232,3.793,2.654,5.639,4.049c0.811,0.614,0.963,1.501,0.378,2.344c-1.769,2.553-3.483,5.155-5.42,7.575
	c-1.521,1.9-2.172,1.909-3.774,0.152c-1.894-2.079-3.937-3.737-6.841-4.025c-0.155-0.016-0.308-0.088-0.454-0.151
	c-1.312-0.568-1.654-1.384-0.97-2.67c0.447-0.84,1.07-1.586,1.615-2.375C187.379,81.915,187.323,81.843,187.267,81.771
	 M194.702,88.639c0.688,0.78,1.618,0.742,2.242-0.158c1.084-1.564,2.101-3.176,3.105-4.792c0.442-0.71,0.288-1.415-0.39-1.893
	c-1.232-0.867-2.476-1.732-3.783-2.478c-0.422-0.242-1.202-0.344-1.571-0.114c-2.234,1.385-4.012,3.236-5.775,5.938
	C191.373,85.747,193.191,86.924,194.702,88.639"/>
<path fill="#231F20" d="M219.645,166.062c2.062-0.505,3.691-1.618,5.375-2.585c0.48-0.277,0.886-0.682,1.349-0.992
	c0.603-0.404,1.191-0.406,1.718,0.16c1.847,1.982,3.773,3.899,5.518,5.969c1.359,1.612,1.233,2.262-0.656,3.396
	c-1.418,0.854-3.017,1.411-4.545,2.073c-1.108,0.48-1.736-0.003-2.283-1.015c-0.87-1.609-1.889-3.142-2.864-4.693
	c-0.254-0.402-0.51-0.866-0.888-1.111c-0.34-0.221-0.991-0.382-1.245-0.202c-0.272,0.191-0.457,0.929-0.3,1.229
	c0.703,1.336,1.536,2.605,2.333,3.892c0.584,0.942,1.21,1.86,1.77,2.817c0.83,1.414,1.147,1.589,2.69,1.24
	c2.915-0.659,5.606-1.84,8.062-3.541c1.802-1.25,2.129-2.739,0.797-4.479c-1.159-1.513-2.515-2.875-3.794-4.293
	c-1.065-1.182-2.163-2.336-3.217-3.527c-1.017-1.15-1.636-1.255-2.852-0.42c-1.971,1.352-3.945,2.695-5.92,4.041
	C220.123,164.408,219.33,164.632,219.645,166.062"/>
<path fill="#231F20" d="M170.498,240.357c2.353,0.448,4.69,0.974,7.024,1.507c1.011,0.231,1.421,0.963,1.356,1.97
	c-0.113,1.752-0.069,3.535-0.389,5.25c-0.569,3.067-2.352,5.396-5.074,6.904c-2.824,1.565-5.948,1.758-9.091,1.625
	c-1.615-0.069-1.925-0.531-1.61-2.143c0.86-4.426,2.744-8.496,4.453-12.625c0.183-0.441,0.409-0.865,0.564-1.19
	C168.471,240.634,169.387,240.146,170.498,240.357 M177.064,245.373c-0.057-1.273-0.494-2.152-1.846-2.371
	c-0.078-0.012-0.154-0.037-0.231-0.06c-4.212-1.224-5.319-0.743-7.022,3.24c-0.939,2.196-1.781,4.435-2.594,6.681
	c-0.289,0.797-0.358,1.672-0.558,2.658C172.285,256.908,177.376,252.344,177.064,245.373"/>
<path fill="#231F20" d="M106.654,206.596c-0.494-1.35-0.978-2.705-1.409-4.076c-0.527-1.672-1.081-3.344-1.471-5.053
	c-0.399-1.759-0.14-2.189,1.515-2.615c2.318-0.594,4.656-1.129,7.008-1.574c1.68-0.318,2.248,0.073,2.982,1.676
	c0.733,1.598,1.495,3.184,2.167,4.805c0.579,1.398,1.18,2.812,1.532,4.277c0.375,1.555-0.13,2.227-1.705,2.568
	c-2.73,0.594-5.475,1.13-8.222,1.643c-0.512,0.096-1.066-0.031-1.625-0.055C107.13,207.586,106.844,207.11,106.654,206.596
	 M114.676,199.17c-0.399-0.949-1.018-1.806-1.415-2.755c-0.448-1.067-1.187-1.448-2.266-1.229c-1.619,0.332-3.232,0.696-5.14,1.111
	c0.834,2.94,1.607,5.673,2.384,8.402c0.334,1.175,1.062,1.726,2.314,1.466c1.929-0.398,3.861-0.783,5.959-1.206
	C116.521,202.514,115.403,200.9,114.676,199.17"/>
<path fill="#231F20" d="M162.592,34.913c0.709-0.425,1.413-0.856,2.127-1.275c0.741-0.435,1.489-0.858,2.262-1.303
	C165.108,30.866,162.946,31.891,162.592,34.913"/>
<path fill="#231F20" d="M164.135,37.689c1.681-0.592,3.148-0.988,3.772-2.694C165.573,34.617,164.308,35.45,164.135,37.689"/>
<path fill="#231F20" d="M150.757,147.969c1.91-0.127,1.91-0.127,2.875-1.293C152.034,145.615,151.089,145.997,150.757,147.969"/>
<path fill="#231F20" d="M151.725,143.804c-1.343-0.911-2.296-0.771-3.186,0.278C149.796,145.259,149.966,145.25,151.725,143.804"/>
<path fill="#231F20" d="M228.023,171.115c1.525,0.035,2.398-0.877,3.562-1.766C229.609,168.9,228.892,169.283,228.023,171.115"/>
<path fill="#231F20" d="M229.084,165.232c-1.682-0.161-2.452,0.426-3.339,1.472C227.372,167.226,228.062,166.422,229.084,165.232"/>
<path fill="#FFFFFF" d="M4.967,172.189c0.294-0.251,0.563-0.538,0.885-0.747c4.746-3.097,9.475-6.22,14.256-9.263
	c8.284-5.271,16.63-10.448,24.896-15.748c6.856-4.396,13.611-8.955,20.46-13.367c5.975-3.85,12.007-7.611,18.033-11.38
	c1.014-0.633,2.123-1.111,3.194-1.646c1.097-0.551,2.202-1.085,3.575-1.759c-0.103,0.703-0.091,1.027-0.197,1.307
	c-2.459,6.499-2.616,13.286-2.44,20.095c0.062,2.385,0.246,4.807,0.755,7.13c0.766,3.507,1.821,6.954,2.832,10.405
	c1.301,4.439,3.748,8.271,6.622,11.824c2.619,3.24,5.659,6.072,8.998,8.578c1.045,0.785,1.956,1.699,2.791,3.08
	c-1.022-0.025-1.655-0.025-2.287-0.059c-5.346-0.274-10.688-0.603-16.035-0.824c-8.777-0.364-17.56-0.614-26.335-1.001
	c-7.022-0.309-14.037-0.76-21.057-1.126c-1.752-0.092-3.522,0.024-5.261-0.172c-8.175-0.93-16.35-1.873-24.508-2.94
	c-3.066-0.401-6.085-1.154-9.126-1.748C5.001,172.613,4.983,172.402,4.967,172.189 M78.939,139.326
	c-0.14,3.285,0.235,6.519,1.028,9.705c1.137,4.562,2.175,9.156,4.441,13.341c0.437,0.806,0.744,2.099,1.982,1.496
	c1.136-0.554,0.563-1.687,0.171-2.527c-2.727-5.836-4.331-11.973-4.991-18.364c-0.122-1.186-0.088-2.389-0.218-3.574
	c-0.067-0.609-0.228-1.264-0.544-1.773c-0.371-0.594-1.238-0.494-1.732,0.236C79.042,138.234,78.964,138.779,78.939,139.326
	 M80.254,164.625c0.273-0.148,0.517-0.605,0.524-0.932c0.012-0.46-0.162-0.941-0.332-1.385c-2.098-5.492-3.032-11.233-3.679-17.035
	c-0.079-0.715-0.088-1.436-0.132-2.153c-0.03-0.478-0.018-0.964-0.106-1.431c-0.173-0.912-0.557-1.855-1.635-1.611
	c-0.396,0.088-0.819,1.119-0.815,1.715c0.012,1.914,0.026,3.861,0.388,5.729c0.846,4.382,1.836,8.738,2.892,13.077
	c0.333,1.369,1.057,2.643,1.616,3.993C79.526,164.623,79.973,164.777,80.254,164.625 M73.187,164.521
	c-0.989-3.932-1.914-7.881-3.025-11.778c-0.628-2.208-0.588-4.403-0.479-6.632c0.022-0.477,0.115-0.948,0.146-1.426
	c0.061-0.863,0.308-1.946-0.924-2.088c-1.137-0.131-1.503,0.947-1.536,1.778c-0.102,2.532-0.426,5.151,0.063,7.591
	c0.871,4.356,1.816,8.742,3.714,12.824c0.582,1.252,0.567,1.259,1.832,1.903C73.822,166.047,73.371,165.258,73.187,164.521
	 M60.652,148.395c0.365,2.358,0.647,4.742,1.22,7.052c0.71,2.864,1.659,5.67,2.541,8.489c0.238,0.759,0.507,1.547,0.956,2.185
	c0.245,0.349,0.897,0.412,1.366,0.604c0.153-0.416,0.503-0.873,0.427-1.242c-0.386-1.873-0.896-3.723-1.338-5.586
	c-0.9-3.801-1.786-7.605-2.676-11.41c-0.109-0.465-0.125-0.971-0.327-1.391c-0.385-0.795-1.495-0.822-2.058,0.054
	C60.731,147.459,60.583,147.943,60.652,148.395 M53.852,153.365c0.33,2.523,0.53,5.081,1.116,7.546
	c0.433,1.82,1.36,3.53,2.129,5.262c0.327,0.737,1.006,1.161,1.721,0.612c0.267-0.205,0.313-1.045,0.128-1.438
	c-1.587-3.375-1.929-7.027-2.487-10.634c-0.122-0.786-0.175-1.59-0.393-2.349c-0.262-0.91-0.809-1.555-2.29-1.162
	C53.799,151.982,53.762,152.684,53.852,153.365 M48.51,164.648c0.239,0.67,0.313,0.644,1.929,1.189
	c-0.006-0.92,0.096-1.754-0.038-2.547c-0.399-2.35-0.884-4.686-1.35-7.023c-0.183-0.916-0.562-1.665-2.118-1.717
	C46.59,158.149,47.358,161.428,48.51,164.648 M40.471,159.752c0.5,1.75,1.08,3.486,1.766,5.172c0.14,0.346,0.867,0.596,1.326,0.6
	c0.194,0.002,0.64-0.806,0.555-1.138c-0.51-1.993-1.084-3.976-1.765-5.917c-0.231-0.659-0.885-0.906-1.671-0.182
	C40.614,158.689,40.336,159.279,40.471,159.752 M36.199,161.871c-0.183-0.418-1.012-0.826-1.497-0.773
	c-0.81,0.085-0.751,0.824-0.573,1.495c0.303,1.147,0.565,2.307,0.953,3.908C36.852,164.744,36.826,163.292,36.199,161.871
	 M29.366,165.656c-0.158-0.354-0.823-0.613-1.274-0.637c-0.186-0.01-0.606,0.729-0.576,1.1c0.07,0.9,0.481,1.645,2.094,1.676
	C29.534,166.945,29.62,166.225,29.366,165.656 M21.974,169.352c0.621,0.129,1.294,0.008,1.946-0.018
	c-0.089-0.412-0.041-0.959-0.291-1.213c-0.555-0.56-1.247-0.64-2.002,0.178C21.721,168.605,21.778,169.313,21.974,169.352"/>
<path fill="#00ADDD" d="M118.578,171.877c0.009,0.656,0.017,1.312,0.026,2.033c1.244,0.071,1.923-0.584,2.533-1.329
	c1.155-1.409,1.689-3.06,1.855-4.853c0.357-3.865,0.146-7.727-1.019-11.402c-2.192-6.926-4.645-13.77-6.994-20.646
	c-0.076-0.227-0.211-0.432-0.292-0.657c-0.842-2.353-2.387-3.284-4.972-3.032c-3.569,0.348-7.174,0.316-10.761,0.506
	c-1.102,0.058-2.191,0.306-3.211,0.456c-0.477,1.763,0.128,11.835,0.853,13.812c0.584-0.68,1.135-1.22,1.566-1.841
	c1.549-2.229,3.043-4.494,4.592-6.723c0.657-0.943,1.268-2.056,3.142-1.608c-0.432,0.819-0.706,1.524-1.134,2.121
	c-2.328,3.242-4.686,6.463-7.049,9.68c-1.192,1.623-0.552,3.155,0.122,4.823c1.161-0.238,1.522-1.209,2.007-1.953
	c2.356-3.613,4.664-7.258,6.966-10.904c0.484-0.768,0.911-1.523,2.17-1.043c-0.11,0.482-0.106,0.981-0.329,1.344
	c-1.172,1.903-2.369,3.793-3.616,5.648c-1.783,2.65-3.57,5.301-5.446,7.885c-1.146,1.58-0.456,2.82,0.548,4.363
	c4.431-4.08,6.153-10.206,10.887-14.061c0.777,1.188,0.069,1.766-0.359,2.372c-2.812,3.978-5.642,7.946-8.466,11.916
	c-0.709,0.997-1.431,1.989,0.086,3.354c1.688-1.728,3.062-3.622,4.301-5.629c1.259-2.036,2.464-4.108,3.76-6.122
	c0.541-0.84,1.134-1.783,2.476-1.47c0.47,1.185-0.4,1.836-0.91,2.567c-2.416,3.475-4.879,6.916-7.296,10.389
	c-1.239,1.779-1.142,2.287,0.787,3.984c1.05-1.363,2.166-2.668,3.118-4.083c1.47-2.186,2.773-4.481,4.248-6.661
	c0.844-1.246,0.934-1.186,2.486-1.521c0.591,0.745,0.074,1.324-0.324,1.892c-2.333,3.338-4.682,6.662-7.013,10
	c-0.363,0.521-0.778,1.053-0.956,1.645c-0.265,0.88,0.196,1.667,0.993,1.936c0.459,0.156,1.333-0.062,1.63-0.429
	c1.56-1.921,3.019-3.927,4.462-5.938c0.549-0.766,0.927-1.672,2.428-1.775c-0.165,0.717-0.153,1.354-0.439,1.799
	c-1.377,2.148-2.827,4.249-4.268,6.355c-0.314,0.461-0.795,0.834-1.008,1.33c-0.156,0.363-0.001,0.861,0.015,1.298
	c0.487-0.052,1.171,0.081,1.424-0.188c0.926-0.988,1.707-2.111,2.546-3.18c0.592-0.755,1.166-1.526,1.796-2.248
	c0.482-0.555,1.051-1.004,2.133-0.287c-0.337,0.654-0.601,1.359-1.025,1.949c-0.979,1.363-2.056,2.656-3.053,4.006
	c-0.463,0.627-1.088,1.309-0.336,2.12c0.588,0.632,1.701,0.42,2.53-0.452c0.271-0.288,0.466-0.648,0.712-0.963
	c0.188-0.242,0.402-0.464,0.604-0.695C118.262,171.803,118.42,171.84,118.578,171.877"/>
<path fill="#00ADDD" d="M140.11,88.128c0.292-0.065,0.616-0.058,0.845-0.203c3.772-2.397,7.784-4.478,10.911-7.762
	c2.769-2.91,4.454-6.458,5.28-10.328c0.529-2.478-0.044-5.052-1.361-7.178c-3.838-6.186-9.152-10.547-16.583-11.402
	c-3.294-0.379-6.697,0.062-10.041,0.287c-4.123,0.278-7.984-0.442-11.418-2.774c-1.163-0.79-2.149-1.895-3.062-2.985
	c-0.928-1.109-0.979-2.487-0.688-3.882c0.31-1.476,0.585-2.96,0.959-4.875c-2.353,1.608-4.343,3.825-6.905,1.093
	c-1.295,1.768-1.239,3.522-1,5.099c0.405,2.669,1.003,5.348,1.882,7.898c0.938,2.719,3.275,4.31,5.775,5.475
	c5.031,2.346,10.31,2.625,15.711,1.599c4.134-0.786,8.272-0.704,12.359,0.269c2.692,0.641,4.401,2.596,5.502,4.981
	c2.785,6.042,2.256,11.826-1.849,17.128C144.441,83.134,142.27,85.556,140.11,88.128"/>
<path fill="#FFFFFF" d="M127.703,97.253c-0.813,0.319-1.292,0.396-1.627,0.657c-2.687,2.09-4.672,4.594-4.598,8.233
	c0.052,2.554,0.009,5.115,0.192,7.659c0.237,3.323-1.42,5.45-4.078,7.013c-2.671,1.569-5.688,2.125-8.67,2.62
	c-2.272,0.375-4.612,0.331-6.921,0.481c-1.873,0.123-3.746,0.258-5.803,0.399c-0.337,2.231-0.626,4.153-0.915,6.071
	c0.565,0.145,0.798,0.268,1.019,0.25c6.044-0.454,12.091-0.875,18.128-1.404c5.332-0.471,8.578-3.82,10.914-8.274
	c0.478-0.911,0.71-1.95,1.08-2.919c0.662-1.731,0.638-3.431-0.161-5.114c-0.137-0.289-0.236-0.594-0.366-0.886
	c-2.006-4.517-1.676-8.84,1.038-12.985C127.213,98.63,127.345,98.111,127.703,97.253"/>
<path fill="#FFFFFF" d="M98.446,120.476c2.581,0.862,5.311,0.843,7.811,0.004C104.041,116.897,100.441,116.82,98.446,120.476"/>
<path fill="#00ADDD" d="M179.28,102.762c0.869-1.202,1.051-2.655,0.927-4.046c-0.391-4.367-0.639-8.779-1.494-13.063
	c-1.105-5.544-1.653-11.076-0.937-16.658c0.704-5.47,3.039-9.956,8.136-12.831c2.701-1.523,5.397-2.587,8.463-3.047
	c2.994-0.449,5.918-1.365,8.996-0.816c1.646,0.294,3.292,0.575,4.939,0.858c0.519,0.089,1.04,0.166,1.546,0.246
	c0.06-0.316,0.158-0.498,0.105-0.608c-3.493-7.439-10.602-10.962-18.478-9.65c-3.759,0.626-7.178,2.317-10.197,4.579
	c-3.31,2.48-5.741,5.698-7.014,9.748c-1.863,5.93-1.855,11.99-1.155,18.032c0.478,4.105,1.562,8.14,2.376,12.207
	c0.846,4.222,1.688,8.445,2.545,12.665c0.167,0.822,0.4,1.63,0.603,2.444C178.854,102.8,179.067,102.781,179.28,102.762"/>
<path fill="#FFFFFF" d="M182.053,103.984c-3.528,2.269-6.461,4.688-10.457,4.115c-3.645-0.521-7.215-1.277-10.01-4.063
	c-0.139,0.118-0.277,0.235-0.417,0.354c0.338,0.833,0.646,1.681,1.023,2.495c0.268,0.577,0.661,1.093,0.943,1.663
	c0.729,1.472,0.567,1.926-0.924,2.565c-1.149,0.495-2.316,0.947-3.991,1.626c0.923,0.374,1.307,0.649,1.702,0.669
	c3.184,0.162,6.37,0.397,9.555,0.363c2.814-0.031,5.574-0.775,7.982-2.201C180.037,110.045,181.973,107.878,182.053,103.984"/>
<path fill="#FFFFFF" d="M216.088,72.051c1.229-1.041,2.166-2.222,3.385-2.753c1.129-0.493,2.562-0.291,4.031-0.407
	c-1.301-1.512-2.656-3.13-4.062-4.703c-1.114-1.249-2.391-2.363-3.421-3.675c-2.011-2.561-4.71-4.004-7.676-5.072
	c-0.28-0.102-0.604-0.079-1.057-0.132c0.14,1.153,1.1,1.427,1.629,2.046c0.866,1.015,1.905,1.971,2.456,3.146
	c1.078,2.302,1.848,4.749,2.789,7.117C214.716,69.009,215.354,70.369,216.088,72.051"/>
<path fill="#00ADDD" d="M145.6,177.184c0.318,0.076,0.635,0.176,0.959,0.225c5.306,0.807,10.267,2.453,14.255,6.221
	c1.994,1.883,3.637,4.08,3.963,6.925c0.472,4.123-1.685,7.008-4.753,9.321c-1.589,1.197-3.448,1.811-5.609,1.692
	c0.245-0.94,0.475-1.7,0.639-2.474c0.809-3.792-0.174-6.895-3.371-9.283c-2.078-1.553-4.229-2.836-6.807-3.344
	c-0.995-0.197-1.976-0.543-2.406-2c1.24-0.182,2.312-0.347,3.387-0.492c1.871-0.252,2.181-0.889,1.194-2.526
	c-0.286-0.478-0.687-0.895-0.931-1.391c-0.335-0.681-0.571-1.411-0.85-2.12L145.6,177.184z M146.986,179.159
	c0.16,0.065,0.347,0.065,0.523,0.091c-0.028-0.145-0.016-0.324-0.099-0.418c-0.067-0.078-0.249-0.055-0.381-0.075
	C147.012,178.897,146.952,179.146,146.986,179.159"/>
<path fill="#FFFFFF" d="M136.12,235.226c-1.306-2.843-2.563-5.415-3.678-8.049c-1.195-2.826-1.953-5.761-1.226-8.86
	c0.893-3.8,3.061-6.542,6.609-8.311c4.369-2.176,8.785-4.188,13.522-5.426c0.271-0.07,0.495-0.309,1.036-0.66
	c-0.735-0.205-1.158-0.426-1.581-0.422c-3.51,0.023-7.043-0.148-10.522,0.202c-3.812,0.383-7.767,1.03-10.437,4.159
	c-3.345,3.924-5.456,8.311-4.383,13.791c1.047,5.351,3.941,9.324,8.27,12.412c0.454,0.324,0.93,0.621,1.416,0.896
	C135.343,235.068,135.592,235.086,136.12,235.226"/>
<path fill="#00ADDD" d="M136.438,263.236c1.65-0.228,3.312-0.393,4.945-0.701c1.874-0.355,3.802-0.636,5.563-1.316
	c2.621-1.011,4.663-2.816,5.503-5.629c1.287-4.306,1.309-8.745-3.943-11.736c-0.145,0.641-0.315,1.201-0.392,1.775
	c-0.414,3.167-1.903,5.571-4.908,6.861c-1.907,0.818-3.857,1.541-5.78,2.328c-1.082,0.441-2.146,0.924-3.756,1.621
	c1.327,0.688,2.137,1.127,2.962,1.531c2.113,1.039,2.27,1.828,0.677,3.608c-0.362,0.405-0.759,0.776-1.141,1.165L136.438,263.236z"
	/>
<path fill="#00ADDD" d="M258.047,136.279c-0.758-1.082-1.44-1.787-1.794-2.629c-0.489-1.16-0.788-2.412-1.041-3.652
	c-0.08-0.389,0.149-1.141,0.413-1.234c0.438-0.154,1.116-0.064,1.514,0.196c0.725,0.474,1.299,1.173,1.973,1.734
	c0.636,0.532,1.316,1.011,2.077,1.589c0.116-0.477,0.227-0.663,0.173-0.747c-2.391-3.798-2.464-8.02-2.269-12.292
	c0.081-1.757,0.178-3.514,0.258-5.272c0.095-2.055-0.651-3.661-2.262-5.024c-3.06-2.59-6.611-4.231-10.353-5.406
	c-4.881-1.533-9.99,0.341-12.437,4.288c-0.193,0.311-0.275,0.692-0.509,1.304c0.791-0.078,1.314-0.089,1.822-0.185
	c4.482-0.847,8.892-0.891,13.177,0.991c3.646,1.602,6.607,6.164,4.976,10.395c-0.943,2.45-2.05,4.881-2.616,7.424
	C250.288,131.641,253.596,135.771,258.047,136.279"/>
<path fill="#00ADDD" d="M190.583,146.744c1.893,0.723,3.562,1.359,5.604,2.141c-0.963,1.141-1.644,1.945-2.568,3.04
	c0.651-0.041,0.957,0.015,1.196-0.087c1.97-0.842,3.912-0.898,6.065-0.525c5.739,0.989,11.326,0.675,16.221-3.09
	c0.688-0.528,1.574-0.792,2.301-1.279c0.753-0.506,1.422-1.137,2.02-1.932c-3.814,1.651-7.752,1.861-11.713,1.354
	c-2.199-0.282-4.353-0.959-6.517-1.5c-1.548-0.387-3.068-0.889-4.622-1.254C195.378,142.861,192.764,143.761,190.583,146.744"/>
<path fill="#FFFFFF" d="M222.297,142.07c0.833-0.709,1.447-1.068,1.841-1.594c3.356-4.488,4.735-9.654,5.066-15.158
	c0.102-1.672,0.115-3.349,0.192-5.021c0.157-3.412,0.33-6.822,0.512-10.557c-1.127,1.237-2.048,2.417-2.713,3.843
	c-0.605,1.297-1.265,2.575-2.002,3.801c-1.29,2.147-1.399,4.567-1.579,6.93c-0.289,3.812-0.307,7.645-0.544,11.461
	C222.95,137.721,222.603,139.652,222.297,142.07"/>
<path fill="#FFFFFF" d="M175.585,18.657c1.105,1.876,2.531,2.771,3.966,3.551c0.438,0.239,1.303-0.149,1.908-0.401
	c1.387-0.58,2.7-1.339,4.106-1.858c0.955-0.351,2.011-0.395,3.067,0.746c-2.196,1.13-4.84,1.043-6.398,2.991
	c1.273,2.008,2.429,2.417,4.354,1.593c0.733-0.314,1.429-0.743,2.187-0.959c0.527-0.151,1.132-0.029,1.824-0.028
	c-0.414,1.991-2.359,1.874-3.238,3.041c1.159,1.561,2.923,1.706,4.451,2.23c0.812,0.279,5.794-3.589,5.877-4.461
	c0.034-0.364-0.085-0.808-0.286-1.117c-0.564-0.865-1.114-1.772-1.837-2.497c-2.085-2.086-4.219-4.125-6.398-6.113
	c-1.506-1.374-1.891-1.327-3.565-0.311c-1.633,0.99-3.274,1.975-4.965,2.859c-0.608,0.317-1.365,0.38-2.066,0.479
	C177.723,18.52,176.861,18.553,175.585,18.657"/>
<path fill="#00ADDD" d="M146.624,7.003c-1.365-0.648-2.689-1.334-4.058-1.911c-0.989-0.415-1.814,0.058-2.099,0.99
	c-0.342,1.12-0.66,2.344-0.55,3.481c0.174,1.806,0.63,3.599,1.12,5.356c0.396,1.417,3.102,2.443,4.405,1.714
	c0.323-0.179,0.678-0.815,0.596-1.131C145.309,12.694,146.06,9.987,146.624,7.003"/>
<path fill="#FFFFFF" d="M187.195,181.242c3.018,0.131,5.99-0.157,8.854-1.258c0.84-0.324,1.671-0.791,1.366-1.919
	c-1.386-5.141-3.655-9.683-8.69-12.212c-0.891-0.446-1.926-0.602-3.106-0.545c0.344,0.367,0.694,0.73,1.029,1.105
	c1.574,1.763,2.623,3.777,3.041,6.126c0.397,2.238-0.009,4.279-1.319,6.132c-0.488,0.692-1.021,1.354-1.535,2.029
	C186.955,180.882,187.075,181.062,187.195,181.242"/>
<path fill="#00ADDD" d="M185.521,168.316c-2.077-1.972-3.723-3.877-6.629-3.688c-1.032,0.066-2.071,0.031-3.104,0.104
	c-0.774,0.054-1.471,0.397-1.487,1.265c-0.026,1.404,0.083,2.81,0.149,4.584C178.219,169.811,181.653,169.107,185.521,168.316"/>
<path fill="#FFFFFF" d="M109.383,78.57c0.911,1.682,1.779,3.388,2.726,5.05c0.992,1.743,1.056,2.021-0.671,3.054
	c-2.603,1.558-4.637,3.618-6.24,6.154c-0.157,0.249-0.439,0.421-0.721,0.679c-1.604-0.978-1.539-2.779-2.291-4.117
	c-0.781-1.391-1.64-2.741-2.359-4.162c-0.702-1.387-1.609-2.74-1.444-4.527c3.221-1.446,6.393-2.87,9.736-4.372
	C108.621,77.219,109.015,77.888,109.383,78.57 M104.276,86.26c0.467,0.634,1.466,0.501,1.469-0.136
	c0.003-0.825-0.225-1.692-0.541-2.465c-0.307-0.75-0.619-1.702-2.072-1.401C102.831,83.857,103.436,85.117,104.276,86.26
	 M106.888,81.299c-0.558,0.544-0.059,2.103,0.84,2.623c0.263,0.152,0.805,0.137,1.038-0.04c0.597-0.453,0.174-2.02-0.857-2.832
	C107.663,81.104,107.134,81.058,106.888,81.299"/>
<path fill="#FFFFFF" d="M256.404,75.875c-2.06,1.229-3.848,2.601-5.861,3.414c-2.017,0.815-4.259,1.075-6.478,1.597
	c0.101,1.669,0.925,2.869,1.7,4.026c0.277,0.416,1.131,0.758,1.631,0.662c3.912-0.743,7.246-2.403,8.97-6.289
	C256.822,78.255,257.064,77.18,256.404,75.875"/>
<path fill="#00ADDD" d="M249.565,70.496c0.148,2.397,0.275,4.445,0.417,6.718c0.524-0.117,1.106-0.096,1.493-0.361
	c0.983-0.676,1.943-1.415,2.797-2.248c1.278-1.248,1.423-3.01,0.491-4.37c-0.776-1.13-1.523-1.359-2.849-0.813
	C251.116,69.752,250.342,70.139,249.565,70.496"/>
<path fill="#FFFFFF" d="M182.973,224.092c1.907-1.557,3.883-3.037,5.705-4.686c3.626-3.283,2.64-3.006,7.053-1.522
	c1.626,0.548,3.406,0.795,4.896,2.011c-0.211,0.409-0.302,0.857-0.576,1.076c-2.23,1.799-4.457,3.608-6.781,5.279
	c-0.485,0.349-1.388,0.263-2.067,0.168c-1.735-0.246-3.458-0.586-5.176-0.938c-0.992-0.201-1.966-0.5-2.947-0.755
	C183.044,224.516,183.008,224.303,182.973,224.092 M195.035,221.963c-2.107-0.188-3.594,0.706-4.203,2.527
	C193.025,224.579,194.544,223.666,195.035,221.963 M188.414,222.013c2.05,0.039,3.271-0.745,4.104-2.238
	C190.657,219.471,189.415,220.204,188.414,222.013"/>
<path fill="#00ADDD" d="M194.305,79.204c0.371-0.229,1.149-0.128,1.573,0.114c1.307,0.746,2.549,1.61,3.781,2.478
	c0.679,0.479,0.833,1.183,0.392,1.893c-1.006,1.617-2.022,3.228-3.106,4.792c-0.624,0.9-1.556,0.938-2.242,0.158
	c-1.512-1.715-3.329-2.893-6.173-3.498C190.294,82.44,192.071,80.589,194.305,79.204 M192.265,82.995
	c-0.079,0.229,0.442,0.956,0.689,0.957c1.25,0.004,1.753-0.807,1.864-2.08C193.308,81.207,192.631,81.931,192.265,82.995
	 M194.867,85.594c0.636,0.043,1.311-0.079,1.911-0.298c0.126-0.046,0-0.784-0.009-1.203c-0.642,0.074-1.283,0.149-2.676,0.311
	C194.46,84.994,194.645,85.579,194.867,85.594"/>
<path fill="#00ADDD" d="M164.814,255.52c7.472,1.389,12.562-3.176,12.25-10.146c-0.058-1.273-0.493-2.152-1.846-2.371
	c-0.079-0.012-0.154-0.037-0.23-0.06c-4.212-1.224-5.32-0.743-7.023,3.24c-0.938,2.196-1.782,4.435-2.594,6.681
	C165.083,253.66,165.013,254.535,164.814,255.52"/>
<path fill="#FFFFFF" d="M110.555,206.166c-1.254,0.259-1.981-0.291-2.315-1.466c-0.777-2.73-1.55-5.462-2.384-8.403
	c1.908-0.414,3.52-0.778,5.139-1.11c1.08-0.222,1.819,0.161,2.268,1.229c0.397,0.95,1.015,1.807,1.413,2.755
	c0.729,1.73,1.847,3.343,1.837,5.79C114.414,205.383,112.483,205.768,110.555,206.166 M113.944,202.216
	c-1.785-1.103-3.742-0.802-5.238,0.952C110.772,203.391,112.33,203.09,113.944,202.216 M109.385,199.452
	c1.493,0.954,2.543,0.026,3.618-0.554C111.739,198.338,110.565,198.287,109.385,199.452"/>
<path fill="#231F20" d="M79.078,137.865c-0.036,0.369-0.115,0.914-0.139,1.461c-0.141,3.285,0.235,6.519,1.028,9.705
	c1.137,4.561,2.175,9.156,4.442,13.341c0.436,0.806,0.742,2.099,1.981,1.496c1.136-0.554,0.564-1.687,0.171-2.527
	c-2.727-5.836-4.331-11.973-4.991-18.364c-0.122-1.186-0.088-2.389-0.218-3.574c-0.066-0.609-0.227-1.264-0.545-1.773
	C80.438,137.035,79.571,137.134,79.078,137.865"/>
<path fill="#231F20" d="M78.975,164.593c0.552,0.03,0.997,0.183,1.279,0.031c0.273-0.147,0.517-0.604,0.525-0.931
	c0.011-0.461-0.163-0.941-0.333-1.385c-2.097-5.492-3.032-11.233-3.679-17.037c-0.079-0.713-0.089-1.434-0.133-2.151
	c-0.028-0.478-0.017-0.964-0.105-1.43c-0.173-0.913-0.557-1.856-1.635-1.612c-0.396,0.088-0.819,1.117-0.815,1.717
	c0.012,1.912,0.027,3.859,0.387,5.728c0.847,4.382,1.837,8.738,2.893,13.077C77.691,161.968,78.415,163.242,78.975,164.593"/>
<path fill="#231F20" d="M72.978,166.693c0.845-0.646,0.394-1.436,0.209-2.174c-0.989-3.93-1.914-7.879-3.024-11.776
	c-0.629-2.208-0.589-4.403-0.48-6.632c0.022-0.477,0.114-0.948,0.146-1.426c0.061-0.863,0.308-1.946-0.924-2.088
	c-1.137-0.131-1.503,0.949-1.536,1.778c-0.102,2.532-0.426,5.151,0.063,7.591c0.872,4.356,1.816,8.741,3.714,12.824
	C71.728,166.043,71.713,166.05,72.978,166.693"/>
<path fill="#231F20" d="M60.763,147.149c-0.03,0.31-0.18,0.794-0.109,1.245c0.363,2.358,0.646,4.741,1.219,7.052
	c0.71,2.863,1.66,5.669,2.542,8.489c0.237,0.759,0.507,1.547,0.955,2.186c0.246,0.348,0.897,0.41,1.366,0.604
	c0.153-0.416,0.503-0.873,0.427-1.242c-0.386-1.875-0.896-3.723-1.337-5.586c-0.901-3.802-1.787-7.607-2.677-11.412
	c-0.109-0.463-0.125-0.969-0.327-1.388C62.436,146.301,61.326,146.273,60.763,147.149"/>
<path fill="#231F20" d="M53.775,151.203c0.023,0.779-0.014,1.48,0.075,2.162c0.331,2.523,0.53,5.081,1.117,7.545
	c0.434,1.821,1.36,3.531,2.129,5.263c0.327,0.737,1.005,1.161,1.721,0.612c0.268-0.205,0.313-1.045,0.129-1.438
	c-1.589-3.375-1.93-7.027-2.488-10.634c-0.121-0.786-0.175-1.59-0.394-2.349C55.804,151.456,55.256,150.811,53.775,151.203"/>
<path fill="#231F20" d="M46.932,154.551c-0.343,3.598,0.427,6.877,1.578,10.098c0.24,0.67,0.313,0.644,1.929,1.189
	c-0.007-0.92,0.097-1.754-0.038-2.547c-0.398-2.352-0.885-4.686-1.351-7.023C48.868,155.354,48.489,154.603,46.932,154.551"/>
<path fill="#231F20" d="M40.682,158.287c-0.067,0.402-0.346,0.992-0.211,1.465c0.5,1.75,1.079,3.486,1.766,5.172
	c0.141,0.346,0.867,0.595,1.326,0.6c0.194,0.002,0.641-0.806,0.556-1.138c-0.511-1.992-1.085-3.976-1.766-5.917
	C42.121,157.81,41.469,157.562,40.682,158.287"/>
<path fill="#231F20" d="M35.083,166.5c1.769-1.756,1.743-3.207,1.116-4.629c-0.184-0.418-1.012-0.826-1.496-0.773
	c-0.811,0.085-0.752,0.824-0.574,1.495C34.431,163.74,34.694,164.899,35.083,166.5"/>
<path fill="#231F20" d="M29.609,167.795c-0.075-0.85,0.011-1.57-0.243-2.139c-0.158-0.354-0.823-0.613-1.275-0.637
	c-0.185-0.01-0.604,0.729-0.575,1.1C27.586,167.019,27.997,167.764,29.609,167.795"/>
<path fill="#231F20" d="M21.628,168.299c0.092,0.307,0.151,1.015,0.346,1.055c0.621,0.127,1.293,0.006,1.946-0.02
	c-0.088-0.412-0.041-0.959-0.291-1.213C23.075,167.562,22.382,167.481,21.628,168.299"/>
<path fill="#231F20" d="M147.03,178.757c-0.018,0.141-0.078,0.389-0.044,0.403c0.16,0.064,0.347,0.064,0.523,0.09
	c-0.027-0.145-0.015-0.323-0.098-0.418C147.344,178.754,147.162,178.777,147.03,178.757"/>
<path fill="#231F20" d="M103.132,82.258c-0.3,1.599,0.304,2.858,1.144,4.002c0.468,0.635,1.468,0.501,1.47-0.136
	c0.003-0.825-0.226-1.693-0.541-2.465C104.896,82.91,104.586,81.957,103.132,82.258"/>
<path fill="#231F20" d="M107.908,81.051c-0.246,0.052-0.773,0.008-1.021,0.249c-0.558,0.544-0.06,2.104,0.84,2.622
	c0.263,0.151,0.805,0.137,1.038-0.04C109.362,83.429,108.938,81.863,107.908,81.051"/>
<path fill="#231F20" d="M190.832,224.49c2.193,0.089,3.713-0.824,4.203-2.527C192.928,221.774,191.44,222.669,190.832,224.49"/>
<path fill="#231F20" d="M192.518,219.774c-1.86-0.304-3.103,0.43-4.104,2.239C190.464,222.051,191.686,221.268,192.518,219.774"/>
<path fill="#231F20" d="M194.818,81.872c-1.511-0.666-2.188,0.059-2.554,1.123c-0.079,0.229,0.442,0.956,0.689,0.957
	C194.204,83.955,194.706,83.146,194.818,81.872"/>
<path fill="#231F20" d="M194.093,84.403c0.367,0.59,0.552,1.176,0.774,1.19c0.635,0.044,1.311-0.079,1.911-0.298
	c0.127-0.046,0.001-0.784-0.009-1.203C196.128,84.168,195.486,84.242,194.093,84.403"/>
<path fill="#231F20" d="M108.706,203.168c2.066,0.223,3.624-0.078,5.238-0.952C112.159,201.113,110.202,201.414,108.706,203.168"/>
<path fill="#231F20" d="M113.004,198.898c-1.266-0.561-2.438-0.611-3.618,0.554C110.879,200.406,111.928,199.479,113.004,198.898"/>
</svg>
