<?xml version="1.0" encoding="utf-8"?>
<!-- Generator: Adobe Illustrator 15.1.0, SVG Export Plug-In . SVG Version: 6.00 Build 0)  -->
<!DOCTYPE svg PUBLIC "-//W3C//DTD SVG 1.1//EN" "http://www.w3.org/Graphics/SVG/1.1/DTD/svg11.dtd">
<svg version="1.1" id="Layer_1" xmlns="http://www.w3.org/2000/svg" x="0px" y="0px"
	 width="160px" height="132px" viewBox="0 0 160 132"  xml:space="preserve">
<path fill="#231F20" d="M80.193,35.442c-1.355-1.075-2.607-2.018-3.799-3.028c-1.992-1.691-3.984-3.386-5.907-5.155
	c-2.317-2.13-2.451-2.229-5.396-0.866c-1.949,0.902-3.826,1.958-5.745,2.926c-0.726,0.364-1.481,0.674-2.282,1.035
	c-0.93-1.377-0.555-2.308,0.557-2.95c1.857-1.076,3.765-2.065,5.661-3.073c0.791-0.422,1.603-0.804,2.752-1.376
	c-1.847-2.104-3.454-3.898-5.02-5.728c-1.392-1.627-2.896-3.188-4.066-4.968c-1.68-2.553-1.028-4.34,1.835-5.477
	c1.205-0.48,2.491-0.855,3.774-1.021C69.466,4.868,76.342,4.538,83,7.261c1.205,0.493,2.572,0.625,3.731,1.195
	c3.61,1.778,6.781,1.009,9.962-1.157c5.291-3.601,11.148-4.053,17.198-2.48c2.863,0.745,5.296,2.271,6.978,4.841
	c2.016,3.08,3.737,6.369,4.311,9.964c0.399,2.513-0.054,5.203-0.405,7.775c-0.217,1.59,0.089,2.749,1.337,3.683
	c4.296,3.214,6.724,7.73,8.407,12.629c1.027,2.989,1.56,6.155,2.196,9.265c0.201,0.981,0.19,2.075-0.009,3.061
	c-0.679,3.325-3.896,5.186-7.148,4.148c-1.597-0.51-3.125-1.234-4.699-1.824c-0.672-0.252-1.38-0.407-2.215-0.648
	c-0.876,4.162,0.39,8.413-1.245,12.353c-1.477-0.523-1.188-1.443-1.169-2.241c0.069-2.884,0.101-5.771,0.249-8.65
	c0.086-1.676-0.34-2.726-2.059-3.467c-3.512-1.516-6.881-3.357-10.335-5.009c-0.974-0.466-2.036-0.743-3.197-1.157
	c-0.26,0.708-0.511,1.116-0.551,1.542c-0.586,6.324-1.143,12.648-1.709,18.972c-0.593,6.603-1.187,13.203-1.781,19.805
	c-0.521,5.765-1.091,11.526-1.554,17.298c-0.471,5.862-0.896,11.73-1.228,17.603c-0.212,3.763-0.124,3.891-3.888,3.783
	c-7.184-0.199-14.366-0.536-21.546-0.854c-4.943-0.222-9.884-0.49-14.823-0.772c-2.422-0.138-4.837-0.467-7.259-0.511
	c-4.197-0.074-8.399,0.095-12.595-0.006c-3.917-0.097-7.833-0.36-11.741-0.654c-2.244-0.169-2.702-1.162-1.438-3.139
	c3.37-5.273,6.83-10.487,10.22-15.747c4-6.205,7.976-12.427,11.94-18.652c4.768-7.49,9.493-15.006,14.274-22.488
	c5.783-9.052,11.613-18.071,17.396-27.123C79.197,37.669,79.603,36.626,80.193,35.442 M87.967,53.395
	c-0.32-0.118-0.641-0.237-0.959-0.355c0.191-0.946,0.312-1.911,0.587-2.833c0.69-2.326,1.529-4.612,2.134-6.96
	c0.177-0.685,0.037-1.906-0.417-2.221c-2.181-1.519-4.519-2.812-6.999-4.303c-1.371,1.967-2.603,3.602-3.696,5.323
	C75.062,47.648,71.575,53.291,68.03,58.9c-3.693,5.845-7.463,11.64-11.127,17.503c-5.397,8.637-10.666,17.354-16.111,25.963
	c-3.896,6.158-7.998,12.184-11.983,18.286c-0.469,0.718-0.777,1.54-1.358,2.717c2.746,0.263,4.959,0.639,7.175,0.654
	c3.915,0.025,7.832-0.22,11.749-0.256c3.632-0.032,7.265,0.051,10.897,0.104c0.741,0.01,1.483,0.096,2.22,0.183
	c2.129,0.251,4.25,0.599,6.385,0.766c3.996,0.311,7.999,0.553,12.001,0.768c4.844,0.261,9.69,0.541,14.538,0.659
	c2.535,0.061,2.652-0.188,2.88-2.678c1.123-12.276,2.228-24.552,3.362-36.824c1.05-11.342,2.051-22.69,3.246-34.018
	c0.354-3.344-0.113-5.865-3.633-7.122c-1.216-0.436-2.285-1.267-3.46-1.837c-0.546-0.267-1.185-0.34-1.789-0.503
	C91.247,46.734,90.477,50.54,87.967,53.395 M57.614,8.973c0.874,1.661,1.224,2.866,1.987,3.688
	c4.504,4.849,8.826,9.921,13.756,14.304c4.296,3.818,9.083,7.226,14.068,10.093c8.077,4.648,16.485,8.722,24.771,13.001
	c1.573,0.813,3.223,1.48,4.851,2.183c4.371,1.881,8.72,3.818,13.136,5.59c2.825,1.132,4.577-0.408,4.063-3.459
	c-0.31-1.838-0.875-3.635-1.163-5.477c-0.728-4.647-2.94-8.624-5.438-12.482c-0.453-0.7-1.067-1.293-1.61-1.933
	c-0.857-1.014-1.799-1.09-2.983-0.483c-1.659,0.846-3.382,1.576-5.104,2.289c-2.971,1.228-5.977,1.187-9.047,0.283
	c-6.15-1.813-10.918-5.491-14.742-10.552c-2.866-3.792-4.562-8.121-5.968-12.59c-0.389-1.235-0.919-2.131-2.235-2.604
	C80.405,8.828,74.89,6.764,68.803,7.5c-1.662,0.204-3.364,0.079-5.024,0.29C61.961,8.023,60.168,8.471,57.614,8.973 M94.525,10.755
	c1.889,5.443,4.426,10.395,8.353,14.476c2.067,2.148,4.598,3.684,7.632,4.421c3.542,0.859,6.835,0.049,10.166-0.868
	c1.223-0.337,1.684-1.263,1.99-2.443c1.498-5.773-0.651-10.606-3.815-15.183c-1.795-2.594-4.356-4.062-7.42-4.554
	c-1.641-0.265-3.35-0.397-5.001-0.258C102.112,6.707,98.062,7.906,94.525,10.755 M121.31,32.227
	c-0.06-0.211-0.121-0.421-0.181-0.632c-0.361,0-0.728-0.039-1.082,0.01c-0.739,0.097-1.479,0.203-2.204,0.369
	c-6.231,1.429-11.646-0.229-16.226-4.528c-1.751-1.645-3.409-3.504-4.649-5.545c-1.435-2.361-2.388-5.021-3.496-7.572
	c-0.546-1.256-0.955-2.581-2.849-2.74c0.027,0.576-0.015,0.942,0.069,1.275c1.722,6.816,5.262,12.597,10.642,17.034
	c2.388,1.97,5.329,3.501,8.267,4.517C113.787,35.863,117.77,34.694,121.31,32.227"/>
<path fill="#FFFFFF" d="M87.967,53.394c2.51-2.854,3.279-6.659,5.056-10.129c0.605,0.163,1.243,0.236,1.789,0.503
	c1.175,0.57,2.244,1.401,3.46,1.837c3.52,1.257,3.986,3.778,3.633,7.122c-1.195,11.327-2.195,22.676-3.246,34.018
	c-1.135,12.272-2.239,24.548-3.362,36.824c-0.228,2.49-0.345,2.738-2.88,2.678c-4.849-0.118-9.694-0.398-14.539-0.659
	c-4.002-0.215-8.005-0.457-12.001-0.768c-2.135-0.167-4.255-0.515-6.384-0.766c-0.738-0.087-1.48-0.173-2.221-0.183
	c-3.632-0.053-7.265-0.136-10.897-0.104c-3.917,0.036-7.834,0.281-11.749,0.256c-2.216-0.016-4.429-0.392-7.175-0.654
	c0.582-1.177,0.889-1.999,1.358-2.717c3.985-6.103,8.087-12.128,11.983-18.286c5.445-8.608,10.714-17.326,16.111-25.963
	C60.566,70.54,64.336,64.745,68.03,58.9c3.545-5.609,7.033-11.252,10.587-16.854c1.093-1.722,2.325-3.356,3.696-5.323
	c2.48,1.491,4.818,2.784,6.999,4.303c0.454,0.314,0.594,1.536,0.417,2.221c-0.604,2.348-1.443,4.634-2.134,6.96
	c-0.274,0.922-0.396,1.887-0.587,2.833C87.326,53.157,87.646,53.276,87.967,53.394"/>
<path fill="#FFFFFF" d="M57.613,8.973c2.556-0.502,4.347-0.949,6.166-1.183c1.66-0.212,3.362-0.087,5.024-0.29
	c6.086-0.736,11.601,1.327,17.152,3.324c1.316,0.473,1.848,1.368,2.235,2.604c1.405,4.469,3.102,8.799,5.968,12.591
	c3.824,5.059,8.592,8.737,14.742,10.551c3.071,0.903,6.076,0.944,9.047-0.284c1.723-0.712,3.446-1.442,5.104-2.289
	c1.187-0.604,2.128-0.529,2.984,0.484c0.542,0.639,1.158,1.232,1.61,1.932c2.497,3.859,4.711,7.836,5.437,12.483
	c0.288,1.842,0.854,3.639,1.164,5.477c0.514,3.051-1.239,4.591-4.062,3.458c-4.416-1.77-8.767-3.708-13.138-5.589
	c-1.628-0.702-3.276-1.37-4.85-2.182c-8.286-4.28-16.695-8.354-24.772-13.001c-4.983-2.868-9.771-6.275-14.066-10.094
	c-4.931-4.383-9.252-9.455-13.757-14.304C58.837,11.839,58.487,10.634,57.613,8.973"/>
<path fill="#FFFFFF" d="M94.526,10.755c3.535-2.85,7.586-4.048,11.902-4.408c1.651-0.141,3.36-0.007,5.002,0.257
	c3.062,0.492,5.625,1.96,7.419,4.553c3.165,4.577,5.314,9.41,3.815,15.185c-0.306,1.18-0.767,2.104-1.99,2.441
	c-3.33,0.917-6.623,1.729-10.165,0.869c-3.034-0.738-5.563-2.272-7.632-4.421C98.952,21.149,96.414,16.197,94.526,10.755"/>
<path fill="#FFFFFF" d="M121.31,32.227c-3.54,2.468-7.522,3.637-11.709,2.188c-2.938-1.016-5.879-2.547-8.267-4.517
	c-5.38-4.438-8.92-10.218-10.642-17.034c-0.084-0.333-0.042-0.699-0.069-1.275c1.894,0.159,2.303,1.484,2.849,2.74
	c1.108,2.552,2.062,5.211,3.496,7.572c1.24,2.041,2.898,3.9,4.649,5.545c4.58,4.299,9.994,5.957,16.226,4.528
	c0.725-0.166,1.465-0.272,2.204-0.369c0.354-0.049,0.721-0.01,1.082-0.01C121.188,31.806,121.25,32.016,121.31,32.227"/>
</svg>
