<?xml version="1.0" encoding="utf-8"?>
<!-- Generator: Adobe Illustrator 15.1.0, SVG Export Plug-In . SVG Version: 6.00 Build 0)  -->
<!DOCTYPE svg PUBLIC "-//W3C//DTD SVG 1.1//EN" "http://www.w3.org/Graphics/SVG/1.1/DTD/svg11.dtd">
<svg version="1.1" id="Layer_1" xmlns="http://www.w3.org/2000/svg"  x="0px" y="0px"
	 width="160px" height="132px" viewBox="0 0 160 132"  xml:space="preserve">
<path fill="#231F20" d="M95.955,7.466c0.355-0.455,0.599-0.718,0.787-1.015c1.95-3.076,4.692-4.341,8.307-3.7
	c1.345,0.239,2.668,0.638,3.971,1.06c2.14,0.695,3.223,2.252,3.665,4.438c0.585,2.891,0.457,5.568-1.284,8.108
	c-1.255,1.83-2.901,3.066-4.938,3.715c-1.298,0.415-1.543,1.132-1.638,2.376c-0.183,2.375-0.32,4.84-1.083,7.061
	c-0.757,2.206-2.101,4.272-3.499,6.17c-0.769,1.044-1.229,1.886-0.837,3.12c0.37,1.171,0.732,2.346,1.066,3.529
	c0.292,1.034,0.892,1.788,1.829,2.317c2.444,1.38,4.059,3.533,5.08,6.053c0.971,2.401,1.712,4.904,2.415,7.402
	c0.863,3.062,1.701,6.14,1.72,9.369c0.012,2.096,0.135,4.192,0.135,6.29c-0.001,1.588-0.086,3.179-0.2,4.763
	c-0.051,0.716-0.16,1.459-0.423,2.121c-1.749,4.429-1.534,8.944-0.567,13.464c0.955,4.463,2.082,8.889,3.066,13.345
	c1.382,6.252,1.274,12.501-0.24,18.721c-0.417,1.715-0.703,1.985-2.465,2.037c-2.389,0.069-4.784-0.012-7.172,0.089
	c-2.965,0.127-5.923,0.446-8.888,0.545c-1.945,0.063-3.9-0.072-5.847-0.203c-1.732-0.116-3.467-0.28-5.182-0.548
	c-2.564-0.399-5.028-0.085-7.722,0.946c-0.574-0.94-1.321-1.839-1.716-2.869c-1.707-4.463-3.351-8.935-4.423-13.626
	c-1.674-7.321,0.108-13.968,3.603-20.262c2.352-4.238,2.636-8.646,2.023-13.26c-0.033-0.245-0.253-0.465-0.497-0.887
	c-0.902,1.432-1.568,2.81-2.533,3.933c-1.163,1.355-2.453,2.678-3.916,3.682c-2.257,1.551-4.678,0.769-5.797-1.58
	c-0.275-0.579-0.615-1.256-1.122-1.572c-1.582-0.99-1.974-2.592-2.476-4.183c-1.607-5.104-1.907-10.39-2.147-15.672
	c-0.147-3.25,0.046-6.518-0.225-9.751c-0.141-1.679-0.881-3.331-1.498-4.939c-0.492-1.281-1.111-2.419-0.731-3.928
	c0.323-1.288-0.294-1.865-1.649-1.918c-1.592-0.062-3.188-0.003-4.782-0.047c-1.063-0.029-2.181,0.043-3.099-0.896
	c0.255-1.291,1.164-1.777,2.308-1.885c1.802-0.168,3.609-0.273,5.416-0.375c1.663-0.095,1.8-0.218,1.948-1.904
	c0.153-1.727,0.252-3.463,0.519-5.174c0.104-0.672,0.512-1.343,0.926-1.911c0.598-0.815,1.47-1.182,2.494-0.93
	c1.051,0.259,0.904,1.195,0.988,1.952c0.15,1.366,0.236,2.738,0.357,4.108c0.087,0.991,0.188,1.981,0.298,3.114
	c1.964,0.102,3.76,0.181,5.552,0.296c0.828,0.054,1.858-0.174,2.135,0.989c0.171,0.718-0.672,1.579-1.77,1.903
	c-0.479,0.141-0.979,0.207-1.502,0.314c0.171,0.443,0.525,0.885,0.434,1.198c-0.563,1.943,0.399,3.231,1.556,4.635
	c0.748,0.906,1.107,2.179,0.833,3.493c-0.112,0.536-0.019,1.115-0.019,1.973c2.367-1.76,5.101-2.4,6.885-4.676
	c2.244-2.862,5.668-3.595,8.957-4.493c0.489-0.132,0.986-0.238,1.464-0.399c0.192-0.065,0.345-0.248,0.569-0.418
	c-0.08-0.984-0.646-1.453-1.571-1.252c-1.125,0.244-2.293,0.504-3.298,1.034c-1.138,0.601-2.061,0.457-3.037-0.194
	c-1.116-0.743-1.997-1.672-2.385-2.995c-0.184-0.626-0.366-1.252-0.558-1.875c-0.824-2.672-0.919-2.759-3.383-2.729
	c-0.286,0.004-0.577-0.054-0.861-0.111c-2.453-0.488-3.237-2.048-1.745-4.084c2.217-3.025,3.132-6.458,3.964-10.009
	c0.475-2.021,1.442-3.926,2.188-5.882c0.155-0.404,0.396-0.796,0.451-1.214c0.158-1.199,0.897-1.939,1.841-2.549
	c1.947-1.257,3.876-2.545,5.852-3.756c2.909-1.785,6.087-2.305,9.394-1.561C93.464,6.171,94.603,6.879,95.955,7.466 M75.136,50.492
	c0.959,1.518,2.113,2.682,2.483,4.059c0.882,3.285,1.193,6.641,0.896,10.113c-0.33,3.857-1.595,7.7-0.573,11.633
	c0.068,0.261-0.053,0.566-0.068,0.853c-0.073,1.278-0.302,2.575-0.175,3.834c0.304,3.01,0.191,5.969-0.949,8.776
	c-1.144,2.816-2.499,5.547-3.729,8.329c-0.35,0.791-0.685,1.613-0.852,2.455c-0.87,4.401-0.688,8.819,0.243,13.17
	c0.864,4.033,1.899,8.025,4.497,11.428c0.675,0.886,1.328,1.341,2.326,1.122c3.483-0.761,6.898-0.193,10.345,0.304
	c1.774,0.254,3.608,0.211,5.407,0.137c4.123-0.166,8.242-0.424,12.361-0.667c1.127-0.065,2.248-0.217,3.386-0.328
	c0.16-1.489,0.301-2.705,0.408-3.925c0.022-0.268-0.024-0.757-0.137-0.789c-1.225-0.333-0.704-1.186-0.651-1.928
	c0.072-1.011,0.14-2.027,0.117-3.038c-0.078-3.493-1.241-6.896-0.45-10.497c0.352-1.6-0.097-3.504-0.602-5.139
	c-1.238-4.003-1.674-8.074-1.648-12.229c0.004-0.603-0.159-1.205-0.301-2.205c-0.784,0.721-1.257,1.136-1.707,1.572
	c-0.52,0.505-0.995,1.054-1.532,1.537c-2.579,2.325-3.132,2.276-5.962,0.207c-2.412-1.761-3.956-4.192-5.578-6.598
	c-3.917-5.812-7.395-11.803-8.238-18.95c-0.498-4.218-2.103-8.124-3.541-12.065c-0.36-0.99-1.038-1.917-1.76-2.699
	c-0.341-0.37-1.24-0.597-1.694-0.413C76.484,48.943,75.46,49.454,75.136,50.492 M78.876,41.99c0.504-0.135,0.735-0.147,0.91-0.251
	c2.166-1.312,4.32-2.639,6.482-3.956c0.697-0.424,1.382-1.134,2.367-0.117c-0.418,0.474-0.782,0.895-1.156,1.303
	c-0.38,0.415-0.771,0.819-1.204,1.275c0.302,0.524,0.561,0.95,0.795,1.388c0.985,1.842,0.582,3.022-1.367,3.751
	c-0.877,0.327-1.832,0.438-2.727,0.727c-0.782,0.253-1.527,0.619-2.316,0.945c3.015,5.51,4.926,11.092,6.059,16.957
	c0.315,1.63,0.74,3.253,1.279,4.822c1.705,4.98,4.622,9.34,7.369,13.761c1.096,1.761,2.648,3.252,4.094,4.771
	c0.619,0.65,1.492,1.062,2.33,1.64c4.498-3.885,8.04-8.047,7.838-14.253c-0.12-3.69-0.174-7.396-0.589-11.058
	c-0.316-2.786-0.976-5.567-1.806-8.25c-0.919-2.972-2.291-5.784-4.17-8.11c-1.14-0.275-2.15-0.52-3.398-0.822
	c-0.774-3.021-1.58-6.01-2.29-9.023c-0.207-0.882-0.696-1.36-1.433-1.764c-4.219-2.319-6.724-5.831-7.357-10.638
	c-0.076-0.57-0.183-1.162-0.415-1.681c-0.604-1.343-1.844-1.47-2.694-0.302c-0.254,0.348-0.419,0.76-0.628,1.142
	c-1.222,2.244-1.869,2.334-3.357,0.371c-1.4-1.845-2.737-3.74-4.1-5.615c-0.455-0.625-0.901-1.257-1.456-2.031
	c-1.368,1.386-1.704,2.924-1.959,4.49c-0.551,3.38-1.112,6.75-3.641,9.362c-0.147,0.152-0.256,0.354-0.348,0.549
	c-0.435,0.927-0.191,1.495,0.826,1.803c0.409,0.123,0.856,0.138,1.288,0.167c1.615,0.107,3.219,0.106,4.792-0.767
	c-0.143,0.727-0.439,1.261-0.71,1.808c-0.616,1.242-0.057,2.521,1.268,2.875c0.52,0.139,1.054,0.22,1.934,0.401
	c-0.767,0.637-1.234,1.025-1.832,1.522C77.982,40.093,78.403,40.984,78.876,41.99 M99.146,34.159c0.509-1.012,0.847-1.9,1.364-2.667
	c1.561-2.317,2.154-4.872,2.11-7.624c-0.029-1.932-0.598-3.467-2.44-4.496c-1.034-0.578-1.866-1.561-2.69-2.451
	c-0.428-0.46-0.807-1.153-0.169-1.74c0.665-0.614,1.136-0.017,1.682,0.356c1.127,0.769,2.248,1.596,3.485,2.14
	c2.552,1.123,2.98,0.963,4.926-1.037c0.557-0.572,1.17-1.091,1.678-1.703c0.359-0.433,0.71-0.945,0.849-1.477
	c1.032-3.982-1.928-8.39-5.983-8.977c-2.903-0.42-4.963,0.992-5.566,3.82c-0.091,0.425-0.107,0.874-0.265,1.272
	c-0.567,1.444-1.34,1.674-2.642,0.845c-0.733-0.468-1.44-0.991-2.216-1.375c-2.133-1.054-4.486-1.338-6.75-0.994
	c-3.307,0.503-6.033,2.326-8.343,4.736c-1.092,1.138-1.193,1.503-0.348,2.835c1.088,1.71,2.271,3.362,3.474,4.994
	c0.499,0.678,1.152,1.242,1.727,1.846c0.5-0.408,0.817-0.704,1.169-0.95c2.802-1.963,5.602-1.572,6.33,2.493
	c0.325,1.812,1.096,3.634,2.042,5.226C94.001,31.642,96.125,33.367,99.146,34.159 M63.31,76.751
	c0.091,2.333,0.479,4.534,1.469,6.593c0.885,1.837,2.319,2.083,3.851,0.724c0.646-0.574,1.178-1.276,1.798-1.884
	c2.612-2.56,4.319-5.622,4.857-9.236c0.5-3.36,0.969-6.743,1.125-10.13c0.109-2.357-0.163-4.77-0.574-7.104
	c-0.473-2.678-2.483-3.628-4.804-2.212c-1.366,0.834-2.702,2.075-3.465,3.457c-1.07,1.938-1.884,4.123-2.291,6.297
	C64.438,67.72,63.944,72.248,63.31,76.751 M58.128,30.726c-0.217-0.02-0.434-0.04-0.65-0.059c-0.166,0.434-0.42,0.855-0.479,1.302
	c-0.294,2.214-0.63,4.431-0.773,6.658c-0.167,2.572-0.746,5.238,0.709,7.642c1.406,2.323,2.048,4.642,1.889,7.495
	c-0.266,4.743,0.027,9.536,0.367,14.288c0.232,3.231,0.92,6.433,1.467,9.638c0.107,0.632,0.5,1.215,0.76,1.822
	c0.159-0.048,0.318-0.095,0.477-0.143c0-0.772,0.037-1.548-0.006-2.318c-0.23-4.155,0.338-8.218,1.317-12.244
	c0.237-0.977,0.288-1.999,0.451-2.996c0.431-2.625,0.616-5.327,1.394-7.846c0.699-2.268,0.259-4.128-0.87-5.96
	c-0.6-0.973-1.363-1.877-2.188-2.673c-2.161-2.08-3.095-4.663-3.297-7.567c-0.091-1.298-0.034-2.606-0.131-3.903
	C58.486,32.812,58.278,31.771,58.128,30.726 M46.808,40.496c1.183,0.653,5.043,0.976,6.693,0.618c0.331-0.072,0.602-0.412,0.9-0.629
	l-0.13-0.477C51.849,39.796,49.429,39.629,46.808,40.496 M60.958,39.85c2.204,1.277,4.003,1.223,5.417-0.104
	C64.41,39.444,62.682,39.311,60.958,39.85"/>
<path fill="#231F20" d="M63.906,36.318c-0.366,0.435-0.741,0.881-1.19,1.412c-0.856-1.088-0.224-1.747,0.337-2.369
	c0.518-0.577,1.179-0.806,1.947-0.502c1.212,0.479,1.127,1.498,1.107,2.567C64.913,37.968,64.774,36.546,63.906,36.318"/>
<path fill="#FFFFFF" d="M75.136,50.491c0.324-1.037,1.348-1.548,2.322-1.942c0.454-0.182,1.353,0.045,1.694,0.414
	c0.722,0.781,1.399,1.709,1.76,2.7c1.439,3.942,3.043,7.847,3.541,12.065c0.844,7.146,4.32,13.139,8.238,18.95
	c1.622,2.405,3.166,4.836,5.578,6.599c2.83,2.069,3.382,2.116,5.962-0.209c0.537-0.483,1.013-1.032,1.532-1.535
	c0.45-0.438,0.923-0.853,1.707-1.573c0.141,1,0.305,1.604,0.3,2.205c-0.024,4.156,0.411,8.228,1.648,12.229
	c0.506,1.635,0.954,3.538,0.603,5.139c-0.791,3.601,0.372,7.004,0.45,10.497c0.022,1.011-0.045,2.027-0.117,3.038
	c-0.053,0.742-0.573,1.595,0.65,1.928c0.112,0.031,0.16,0.521,0.138,0.789c-0.107,1.22-0.249,2.436-0.408,3.924
	c-1.138,0.113-2.259,0.263-3.386,0.329c-4.119,0.243-8.238,0.502-12.361,0.667c-1.799,0.073-3.633,0.118-5.407-0.137
	c-3.447-0.497-6.862-1.064-10.345-0.304c-0.998,0.218-1.651-0.237-2.326-1.122c-2.598-3.403-3.633-7.394-4.497-11.428
	c-0.931-4.351-1.113-8.768-0.243-13.17c0.167-0.842,0.502-1.664,0.852-2.455c1.229-2.783,2.585-5.512,3.729-8.328
	c1.141-2.809,1.253-5.768,0.949-8.777c-0.127-1.26,0.102-2.556,0.175-3.835c0.016-0.285,0.136-0.591,0.068-0.852
	c-1.022-3.934,0.243-7.775,0.573-11.633c0.297-3.472-0.014-6.827-0.896-10.113C77.25,53.174,76.096,52.009,75.136,50.491"/>
<path fill="#FFFFFF" d="M78.876,41.99c-0.474-1.006-0.894-1.896-1.323-2.808c0.597-0.497,1.065-0.885,1.833-1.522
	c-0.881-0.18-1.416-0.263-1.935-0.401c-1.324-0.354-1.884-1.634-1.268-2.875c0.271-0.547,0.568-1.081,0.711-1.808
	c-1.574,0.873-3.177,0.874-4.793,0.768c-0.432-0.029-0.878-0.044-1.288-0.167c-1.018-0.308-1.262-0.876-0.826-1.803
	c0.092-0.194,0.201-0.397,0.348-0.548c2.529-2.613,3.089-5.983,3.64-9.363c0.256-1.566,0.592-3.104,1.96-4.49
	c0.555,0.773,1,1.406,1.455,2.031c1.363,1.875,2.7,3.77,4.1,5.616c1.488,1.962,2.136,1.872,3.357-0.373
	c0.208-0.381,0.373-0.793,0.628-1.141c0.851-1.167,2.092-1.041,2.694,0.301c0.232,0.519,0.339,1.111,0.415,1.681
	c0.634,4.808,3.139,8.32,7.357,10.639c0.736,0.404,1.225,0.883,1.433,1.764c0.709,3.013,1.516,6.002,2.289,9.022
	c1.248,0.303,2.26,0.547,3.399,0.823c1.879,2.326,3.251,5.138,4.17,8.11c0.829,2.683,1.489,5.463,1.805,8.25
	c0.415,3.661,0.469,7.367,0.59,11.057c0.202,6.207-3.341,10.368-7.838,14.254c-0.838-0.578-1.711-0.989-2.33-1.639
	c-1.444-1.52-2.999-3.011-4.094-4.771c-2.748-4.422-5.664-8.781-7.369-13.761c-0.538-1.569-0.963-3.192-1.278-4.822
	c-1.134-5.865-3.046-11.447-6.06-16.957c0.789-0.327,1.534-0.691,2.315-0.945c0.896-0.289,1.851-0.4,2.728-0.727
	c1.949-0.729,2.352-1.91,1.367-3.752c-0.234-0.437-0.493-0.863-0.795-1.388c0.434-0.457,0.824-0.859,1.204-1.275
	c0.375-0.409,0.737-0.83,1.156-1.303c-0.986-1.017-1.671-0.307-2.367,0.117c-2.162,1.317-4.316,2.644-6.482,3.956
	C79.612,41.843,79.381,41.854,78.876,41.99 M76.176,23.861c-1.308,1.684-1.254,2.459,0.14,3.807
	C77.271,26.311,77.262,25.424,76.176,23.861"/>
<path fill="#FFFFFF" d="M99.146,34.159c-3.022-0.792-5.146-2.516-6.577-4.927c-0.947-1.591-1.717-3.413-2.041-5.225
	c-0.73-4.063-3.53-4.456-6.331-2.493c-0.352,0.247-0.67,0.542-1.169,0.951c-0.573-0.605-1.227-1.169-1.727-1.847
	c-1.202-1.632-2.386-3.284-3.474-4.994c-0.846-1.331-0.744-1.697,0.349-2.836c2.309-2.408,5.036-4.232,8.342-4.734
	c2.263-0.344,4.616-0.061,6.75,0.994c0.775,0.383,1.482,0.907,2.215,1.375c1.302,0.83,2.075,0.599,2.644-0.845
	c0.156-0.398,0.173-0.847,0.264-1.272c0.604-2.828,2.663-4.242,5.566-3.822c4.056,0.588,7.016,4.996,5.982,8.978
	c-0.138,0.531-0.487,1.044-0.848,1.478c-0.508,0.611-1.122,1.131-1.678,1.702c-1.945,2-2.374,2.159-4.926,1.037
	c-1.237-0.543-2.358-1.371-3.485-2.14c-0.546-0.372-1.018-0.971-1.682-0.357c-0.636,0.588-0.26,1.281,0.168,1.741
	c0.826,0.891,1.657,1.874,2.69,2.451c1.844,1.029,2.411,2.564,2.44,4.496c0.045,2.752-0.55,5.307-2.109,7.625
	C99.992,32.259,99.654,33.146,99.146,34.159"/>
<path fill="#FFFFFF" d="M63.31,76.75c0.634-4.502,1.128-9.03,1.964-13.494c0.408-2.174,1.221-4.359,2.291-6.296
	c0.764-1.383,2.099-2.624,3.466-3.458c2.32-1.416,4.332-0.466,4.803,2.212c0.411,2.334,0.684,4.746,0.575,7.104
	c-0.156,3.387-0.625,6.77-1.126,10.13c-0.537,3.614-2.245,6.677-4.856,9.236c-0.62,0.607-1.151,1.31-1.799,1.884
	c-1.531,1.359-2.965,1.113-3.849-0.724C63.789,81.285,63.4,79.084,63.31,76.75"/>
<path fill="#FFFFFF" d="M58.128,30.726c0.15,1.045,0.357,2.086,0.435,3.137c0.097,1.296,0.041,2.604,0.131,3.902
	c0.203,2.904,1.137,5.487,3.297,7.568c0.825,0.793,1.588,1.699,2.188,2.672c1.129,1.832,1.569,3.693,0.87,5.961
	c-0.778,2.519-0.963,5.219-1.394,7.845c-0.164,0.997-0.214,2.019-0.451,2.995c-0.978,4.028-1.547,8.09-1.316,12.244
	c0.042,0.771,0.006,1.547,0.006,2.319c-0.159,0.047-0.317,0.096-0.476,0.142c-0.262-0.605-0.653-1.189-0.761-1.821
	c-0.546-3.204-1.235-6.405-1.466-9.638c-0.34-4.75-0.634-9.545-0.368-14.288c0.16-2.854-0.482-5.171-1.889-7.494
	c-1.455-2.405-0.875-5.07-0.709-7.643c0.144-2.228,0.479-4.442,0.774-6.658c0.06-0.448,0.314-0.869,0.479-1.302
	C57.694,30.686,57.912,30.707,58.128,30.726"/>
<path fill="#FFFFFF" d="M46.808,40.496c2.621-0.867,5.042-0.7,7.463-0.488l0.13,0.477c-0.298,0.217-0.57,0.557-0.9,0.629
	C51.85,41.472,47.991,41.149,46.808,40.496"/>
<path fill="#FFFFFF" d="M60.958,39.85c1.724-0.54,3.452-0.406,5.417-0.104C64.961,41.073,63.162,41.127,60.958,39.85"/>
<path fill="#231F20" d="M76.176,23.861c1.085,1.562,1.095,2.449,0.14,3.807C74.922,26.32,74.868,25.545,76.176,23.861"/>
</svg>
