<?xml version="1.0" encoding="utf-8"?>
<!-- Generator: Adobe Illustrator 15.1.0, SVG Export Plug-In . SVG Version: 6.00 Build 0)  -->
<!DOCTYPE svg PUBLIC "-//W3C//DTD SVG 1.1//EN" "http://www.w3.org/Graphics/SVG/1.1/DTD/svg11.dtd">
<svg version="1.1" id="Layer_1" xmlns="http://www.w3.org/2000/svg" xmlns:xlink="http://www.w3.org/1999/xlink" x="0px" y="0px"
	 width="288.667px" height="400px" viewBox="0 0 288.667 400" enable-background="new 0 0 288.667 400" xml:space="preserve">
<path fill="#00ADDD" d="M154.986,299.269c-0.444-4.794-0.615-9.59-0.513-14.402c0.187-8.772-13.447-9.189-13.634-0.396
	c-0.103,4.814,0.068,9.609,0.512,14.402c0.34,3.668,2.616,6.9,6.619,7.016C151.309,305.986,155.328,302.962,154.986,299.269"/>
<path fill="#231F20" d="M221.7,259.793c0.717-0.54,1.526-0.993,2.132-1.639c1.174-1.247,2.268-2.588,4.103-2.806
	c0.578-0.068,1.337-0.059,1.737,0.262c0.335,0.268,0.554,1.324,0.334,1.544c-3.509,3.512-7.13,6.911-10.654,10.406
	c-3.25,3.223-6.406,6.537-9.623,9.791c-0.957,0.967-1.953,1.862-3.52,1.188c-1.329-0.573-1.619-1.641-0.586-2.643
	c2.573-2.499,5.176-4.967,7.749-7.467c0.296-0.287,0.473-0.698,0.644-0.959c-4.137-0.121-8.157-0.315-12.179-0.326
	c-2.614-0.007-5.233,0.209-7.841,0.435c-0.573,0.05-1.181,0.473-1.64,0.875c-0.535,0.469-0.897,1.129-1.383,1.66
	c-1.188,1.3-3.175,0.991-3.653-0.659c-0.161-0.559,0.329-1.306,0.612-2.276c-32.131,1.129-64.083,3.413-96.111,3.916
	c0.061,0.171,0.122,0.342,0.183,0.513c-0.37,0.854-0.615,1.796-1.142,2.539c-0.67,0.945-1.791,0.789-2.426-0.164
	c-0.993-1.49-2-2.972-3.002-4.457c-0.029-0.043-0.052-0.113-0.09-0.124c-2.439-0.588-2.398-3.189-3.759-4.674
	c-1.379-1.503-2.398-3.329-3.701-4.91c-2.443-2.963-5.004-5.826-7.46-8.779c-1.148-1.38-2.239-2.822-3.203-4.333
	c-0.349-0.547-0.253-1.376-0.36-2.077c0.823-0.122,1.79-0.574,2.434-0.29c0.981,0.43,1.842,1.279,2.569,2.112
	c1.652,1.891,3.168,3.897,4.782,5.822c1.608,1.917,3.265,3.793,4.907,5.683c0.196,0.226,0.426,0.423,0.871,0.855
	c0.055-1.888,0.231-3.517,0.123-5.128c-0.28-4.183-0.773-8.352-1.021-12.535c-0.407-6.845-0.703-13.695-1.017-20.546
	c-0.24-5.222-0.561-10.446-0.62-15.671c-0.074-6.674,0.05-13.351,0.142-20.027c0.135-9.845,0.356-19.688,0.454-29.532
	c0.03-2.985-0.269-5.972-0.341-8.959c-0.1-4.142-0.057-8.287-0.204-12.426c-0.183-5.115-0.572-10.226-0.737-15.343
	c-0.172-5.384-0.199-10.774-0.263-16.164c-0.038-3.26-0.006-6.521-0.042-9.779c-0.02-1.838-0.123-3.674-0.172-5.511
	c-0.049-1.885-0.112-3.769-0.108-5.652c0.009-4.55,0.117-9.099,0.071-13.646c-0.081-7.928-0.255-15.854-0.374-23.784
	c-0.059-3.979-0.001-7.965-0.162-11.941c-0.063-1.562-0.687-3.095-0.859-4.661c-0.24-2.202-0.419-4.424-0.402-6.636
	c0.023-3.092,0.262-6.181,0.386-9.271c0.04-1.008,1.904-2.503,3.096-2.499c4.494,0.015,8.989,0.062,13.481-0.028
	c1.637-0.031,3.266-0.572,4.902-0.598c6.678-0.101,13.359-0.044,20.037-0.146c3.827-0.061,7.651-0.381,11.479-0.449
	c1.907-0.035,3.821,0.338,5.731,0.341c5.07,0.008,10.14-0.125,15.209-0.125s10.139,0.099,15.207,0.143
	c3.883,0.033,7.826,0.495,11.628-0.042c4.798-0.678,9.578-0.64,14.364-0.72c5.745-0.095,11.494,0.101,17.241,0.179
	c1.399,0.021,2.799,0.12,4.198,0.104c1.308-0.016,2.272,0.259,2.75,1.703c0.355,1.076,1.434,1.996,1.546,3.055
	c0.338,3.178,0.393,6.388,0.496,9.588c0.148,4.653,0.321,9.307,0.338,13.959c0.015,4.61-0.205,9.221-0.221,13.829
	c-0.014,3.366,0.136,6.731,0.217,10.097c0.004,0.15,0.094,0.312,0.061,0.448c-0.462,1.942-0.285,3.817,0.091,5.787
	c0.403,2.11,0.221,4.33,0.308,6.502c0.188,4.71,0.576,9.422,0.534,14.129c-0.061,6.84-0.498,13.675-0.647,20.516
	c-0.151,6.989-0.154,13.982-0.211,20.975c-0.069,8.539-0.151,17.077-0.18,25.614c-0.021,5.911-0.08,11.824,0.09,17.729
	c0.355,12.359,0.855,24.713,1.288,37.07c0.147,4.245,0.21,8.495,0.421,12.737c0.211,4.224,0.619,8.438,0.834,12.662
	c0.237,4.656,0.368,9.319,0.514,13.981c0.088,2.845,0.172,5.693,0.138,8.538c-0.011,0.875-0.42,1.745-0.646,2.617
	C221.614,259.461,221.657,259.627,221.7,259.793 M162.373,157.177c0.337-1.071,0.685-2.263,1.09-3.435
	c0.39-1.121,1.477-2.518,1.127-3.266c-0.683-1.463,0.441-1.818,0.871-2.613c0.121-0.225,0.319-0.407,0.462-0.621
	c2.435-3.653,5.255-6.897,9.362-8.757c0.75-0.34,1.558-0.556,2.304-0.902c1.756-0.814,3.437-1.826,5.248-2.471
	c1.768-0.626,3.289-0.834,4.112-3.181c1.051-2.996,3.083-5.711,5.957-7.46c2.717-1.652,5.628-3.312,8.873-2.644
	c3.411,0.701,6.721,1.976,10.001,3.2c1.779,0.664,2.879,0.288,2.921-1.567c0.058-2.537-0.127-5.08-0.042-7.616
	c0.196-5.852,0.64-11.699,0.708-17.551c0.081-6.858,0.631-13.713-0.422-20.585c-0.639-4.17-0.565-8.461-0.652-12.699
	c-0.093-4.556,0.012-9.116,0.01-13.673c-0.004-6.465-0.004-12.929-0.044-19.394c-0.03-4.933,0.503-9.88-0.734-14.78
	c-0.424-1.682-0.197-3.526-0.276-5.509c-4.493-0.131-8.731-0.356-12.971-0.35c-4.737,0.009-9.474,0.235-14.211,0.359
	c-7.034,0.182-14.068,0.389-21.104,0.516c-1.905,0.036-3.816-0.274-5.724-0.249c-5.332,0.072-10.663,0.33-15.994,0.335
	c-4.542,0.004-9.089-0.43-13.626-0.33c-5.722,0.127-11.434,0.691-17.156,0.894c-3.411,0.12-6.833-0.17-10.249-0.139
	c-4.087,0.039-8.172,0.208-12.256,0.359c-1.325,0.048-2.645,0.216-3.967,0.33c-0.088,0.167-0.176,0.334-0.263,0.501
	c1.597,1.134,3.186,2.278,4.795,3.395c0.419,0.291,0.937,0.444,1.342,0.75c2.359,1.782,4.668,3.632,7.051,5.379
	c2.027,1.487,4.225,2.753,6.18,4.324c3.553,2.858,6.933,5.931,10.475,8.802c3.676,2.982,7.493,5.791,11.172,8.77
	c1.033,0.836,2.167,1.871,2.592,3.052c0.535,1.488,0.409,3.218,0.534,4.846c0.249,3.254,0.464,6.509,0.714,9.764
	c0.597,7.77,1.273,15.536,1.79,23.312c0.381,5.738,0.684,11.485,0.8,17.232c0.135,6.726-0.004,13.458,0.05,20.187
	c0.016,1.995,0.28,3.988,0.442,6.135c0.829-0.145,1.519-0.095,2.007-0.384c1.084-0.642,2.029-0.517,3.051,0.08
	c0.434,0.254,0.955,0.407,1.456,0.491c3.718,0.621,5.476,3.117,6.307,6.52c1.015,4.156-0.19,7.99-2.282,11.419
	c-1.039,1.7-2.542,3.545-5.037,3.7c-1.206,0.075-2.399,0.357-3.733,0.566c0.039,0.756,0.11,1.567,0.118,2.379
	c0.042,4.239,0.008,8.479,0.119,12.715c0.103,3.893,0.356,7.78,0.542,11.669c0.015,0.312,0.026,0.622,0.045,0.933
	c0.274,4.286,0.649,8.568,0.801,12.858c0.275,7.758,0.402,15.522,0.629,23.281c0.034,1.18,0.123,2.397,0.451,3.521
	c0.555,1.894,0.457,2.489-1.164,3.699c-0.952,0.71-1.936,1.378-2.868,2.112c-3.732,2.942-7.446,5.905-11.177,8.848
	c-0.48,0.378-1.049,0.646-1.529,1.024c-2.388,1.88-4.767,3.775-7.133,5.684c-0.366,0.295-0.65,0.693-0.801,0.857
	c0.552,0.883,1.114,1.494,1.352,2.212c1.248,3.765,2.437,7.55,3.588,11.346c0.27,0.891,0.613,1.283,1.626,1.147
	c3.783-0.512,7.567-1.092,11.37-1.362c4.908-0.346,9.835-0.562,14.755-0.581c8.7-0.036,17.402,0.194,26.104,0.167
	c6.627-0.02,13.255-0.187,19.876-0.464c1.548-0.064,3.407,0.438,4.635-1.131c1.481-1.896,2.962-3.792,4.376-5.738
	c0.813-1.121,2.278-1.578,3.36-0.796c1.255,0.907,0.584,1.894-0.037,2.818c-0.815,1.218-1.653,2.42-2.694,3.938
	c1.03-0.026,1.674-0.035,2.318-0.062c3.001-0.138,6-0.332,9.002-0.396c1.489-0.03,2.595,1.19,2.586,2.712
	c-0.01,1.386-1.229,1.459-2.115,1.543c-4.524,0.43-9.06,0.743-13.59,1.117c-0.443,0.036-1.077,0.061-1.277,0.338
	c-0.94,1.305-1.76,2.696-2.702,4.18c0.545,0.047,0.943,0.112,1.341,0.108c2.538-0.021,5.076-0.046,7.614-0.097
	c3.508-0.073,7.019-0.12,10.523-0.281c1.422-0.064,2.42-1.226,2.417-2.527c-0.004-1.737,0.003-3.479-0.069-5.215
	c-0.255-6.136-0.534-12.27-0.818-18.405c-0.364-7.916-0.794-15.83-1.097-23.748c-0.206-5.369,0.323-4.144-4.212-5.95
	c-3.319-1.324-6.615-2.195-10.253-1.526c-1.809,0.333-3.74,0.351-5.566,0.117c-1.041-0.131-2.023-0.99-2.955-1.635
	c-0.836-0.58-1.478-1.481-2.359-1.951c-2.367-1.262-4.8-2.403-7.237-3.528c-2.941-1.358-4.92-3.633-5.659-6.694
	c-0.515-2.136-1.698-3.227-3.614-3.76c-1.679-0.467-3.373-0.913-5.089-1.207c-5.915-1.013-8.475-5.586-6.701-11.081
	c0.707-2.188,1.723-4.285,2.691-6.382c1.439-3.112-0.013-5.651-1.635-8.068c-1.031-1.535-1.469-3.108-1.495-5.321
	C162.133,156.502,162.294,156.955,162.373,157.177 M81.977,16.457c-0.064,2.208-0.28,4.256-0.146,6.279
	c0.19,2.831,0.829,5.638,0.944,8.469c0.321,7.878,0.579,15.764,0.66,23.648c0.112,10.82,0.025,21.642,0.052,32.462
	c0.013,5.126-0.003,10.255,0.164,15.377c0.297,9.141,0.725,18.276,1.094,27.414c0.115,2.846,0.301,5.689,0.308,8.534
	c0.022,9.791,0.016,19.583-0.05,29.375c-0.061,8.863-0.23,17.726-0.323,26.587c-0.056,5.335-0.128,10.672-0.048,16.006
	c0.035,2.309,0.529,4.608,0.652,6.919c0.228,4.292,0.304,8.594,0.504,12.888c0.266,5.735,0.55,11.472,0.905,17.203
	c0.15,2.419,0.501,4.824,0.797,7.577c0.85-0.585,1.272-0.858,1.675-1.156c1.607-1.189,3.19-2.409,4.815-3.571
	c1.957-1.399,3.972-2.719,5.917-4.135c1.402-1.02,2.709-2.169,4.097-3.21c1.925-1.443,3.929-2.781,5.82-4.267
	c2.699-2.119,5.299-4.362,7.994-6.485c1.441-1.138,3.052-2.061,4.481-3.211c1.943-1.565,3.752-3.296,5.681-4.878
	c1.625-1.335,3.359-2.535,4.996-3.854c0.356-0.288,0.71-0.831,0.713-1.258c0.013-2.17-0.049-4.34-0.159-6.507
	c-0.416-8.204-0.849-16.404-1.302-24.606c-0.154-2.788-0.443-5.569-0.565-8.356c-0.123-2.838-0.14-5.681-0.16-8.521
	c-0.021-3.032,0-6.065,0.023-9.097c0.008-0.981-0.332-1.341-1.395-1.278c-2.059,0.123-4.133,0.134-6.194,0.041
	c-0.915-0.041-2.034-0.092-2.178-1.475c-0.551-5.285-1.213-10.561-1.657-15.854c-0.315-3.753-0.375-7.529-0.494-11.297
	c-0.054-1.702-0.021-3.409,0.056-5.11c0.057-1.253,0.606-2.105,2.016-2.316c1.837-0.275,3.638-0.797,5.477-1.039
	c1.523-0.202,2.119-0.833,2.056-2.418c-0.166-4.135-0.209-8.275-0.256-12.413c-0.025-2.169,0.186-4.35,0.041-6.509
	c-0.362-5.351-0.881-10.69-1.311-16.035c-0.612-7.615-1.21-15.231-1.796-22.847c-0.302-3.928-0.648-7.854-0.804-11.787
	c-0.059-1.499-0.848-2.387-1.84-3.18c-3.454-2.765-6.999-5.417-10.425-8.216c-3.901-3.187-7.666-6.539-11.578-9.711
	c-1.988-1.611-4.202-2.94-6.255-4.477c-2.213-1.656-4.343-3.426-6.536-5.109c-1.781-1.366-3.599-2.685-5.41-4.013
	C82.76,16.841,82.436,16.707,81.977,16.457 M193.631,175.726c-3.12-0.203-3.651-2.928-4.662-4.692
	c-1.393-2.43-1.728-5.468-2.474-8.256c-0.116-0.434-0.112-0.958,0.016-1.388c0.89-3.017,1.536-6.153,2.82-8.999
	c1.688-3.737,2.213-7.457,1.48-11.443c-0.447-2.428-3.209-4.45-5.435-3.539c-3.258,1.331-6.653,2.604-9.491,4.609
	c-3.487,2.464-6.103,5.938-7.931,9.892c-0.559,1.207-1.215,2.387-1.607,3.646c-0.229,0.733-0.27,1.715,0.041,2.383
	c0.778,1.68,1.789,3.253,2.737,4.852c1.05,1.769,1.493,3.68,0.898,5.64c-0.593,1.956-1.529,3.804-2.194,5.741
	c-0.533,1.551-1.047,3.142-1.276,4.757c-0.325,2.288,0.599,3.128,2.877,3.527c2.312,0.403,4.651,0.875,6.846,1.68
	c3.235,1.185,5.298,3.61,6.263,6.964c0.473,1.64,1.366,2.941,3.096,3.609c1.777,0.688,3.524,1.49,5.2,2.398
	c1.66,0.9,3.373,1.814,4.767,3.055c1.271,1.131,2.618,1.161,4.035,1.029c1.682-0.155,3.336-0.69,5.016-0.773
	c1.92-0.095,3.794-0.159,5.604,1.167c1.382,1.014,3.316,1.271,5.435,2.016c-0.229-6.394-0.442-12.363-0.655-18.332
	c-0.167-0.028-0.335-0.056-0.502-0.084c-0.351,0.426-0.749,0.823-1.046,1.284c-1.83,2.831-4.609,4.488-7.642,5.475
	c-2.922,0.95-6.021,1.52-9.085,1.803c-2.053,0.188-4.189-0.344-6.266-0.691c-0.973-0.163-1.229-0.964-1.017-1.93
	c0.476-2.164,0.911-4.335,1.365-6.502c0.36-1.721,0.626-3.469,1.119-5.149C192.317,178.271,192.978,177.162,193.631,175.726
	 M119.918,260.793c0.419,1.538,0.86,2.79,1.077,4.078c0.157,0.928,0.511,1.209,1.424,1.15c5.243-0.332,10.488-0.622,15.732-0.923
	c5.071-0.291,10.141-0.576,15.212-0.868c7.276-0.42,14.549-0.921,21.831-1.237c4.755-0.207,9.521-0.184,14.284-0.186
	c1.047-0.001,1.801-0.258,2.327-1.165c0.578-0.996,1.177-1.979,1.773-2.981c-1.828-0.054-3.674-0.19-5.515-0.146
	c-5.744,0.138-11.486,0.473-17.229,0.495c-7.98,0.029-15.965-0.284-23.945-0.201c-4.847,0.051-9.693,0.534-14.533,0.895
	C128.285,260.007,124.222,260.412,119.918,260.793 M214.603,149.229c-0.022,0-0.043-0.001-0.065-0.002
	c0.059-1.966,0.283-3.948,0.103-5.891c-0.094-1.005-0.681-2.211-1.441-2.858c-2.122-1.802-4.667-2.887-7.393-3.543
	c-1.829-0.439-2.362-0.089-2.676,1.854c-0.319,1.988-0.704,3.969-1.057,5.953c-0.623,3.506-1.313,7.004-1.838,10.525
	c-0.339,2.279,0.369,3.115,2.62,3.531c3.801,0.703,7.38,0.091,10.618-2.036c0.498-0.328,0.865-1.163,0.921-1.796
	C214.563,153.062,214.546,151.143,214.603,149.229 M211.567,177.676c0.212-3.755-2.073-7.063-4.958-7.604
	c-2.074-0.389-4.211-0.431-6.316-0.664c-0.933-0.104-1.298,0.359-1.471,1.184c-0.485,2.318-0.989,4.633-1.502,6.946
	c-0.447,2.013-0.892,4.025-1.383,6.027c-0.353,1.434-0.885,2.829-1.145,4.277c-0.271,1.51,0.236,1.916,1.809,1.729
	c0.818-0.098,1.634-0.277,2.455-0.304c2.932-0.089,5.513-1.281,7.939-2.718C210.59,184.42,211.461,180.834,211.567,177.676
	 M214.725,135.837c-0.042-2.194-0.103-4.038-0.107-5.883c-0.004-1.595-0.479-1.932-2.102-1.587
	c-0.684,0.144-1.477,0.224-2.118,0.019c-1.852-0.593-3.64-1.375-5.474-2.028c-2.09-0.746-4.154-1.587-6.477-0.89
	c-3.607,1.082-6.159,3.433-8.069,6.555c-0.17,0.278,0.032,1.058,0.318,1.294c1.723,1.428,3.764,1.867,5.951,1.564
	c1.375-0.191,3.056,0.07,3.358-2.012c0.034-0.237,0.53-0.589,0.804-0.58c1.138,0.032,2.271,0.207,3.407,0.286
	C207.858,132.827,211.352,133.57,214.725,135.837 M132.663,148.844c1.326-0.29,2.464-0.618,3.625-0.77
	c1.34-0.177,2.723-0.158,3.555-1.488c0.615-0.985,1.232-1.97,1.801-2.981c1.559-2.774,1.047-5.291-0.924-7.672
	c-1.898-2.293-4.316-2.558-6.854-1.614c-1.829,0.68-3.748,1.904-4.083,3.866C129.099,142.187,128.305,146.447,132.663,148.844
	 M92.448,257.426c7.366,0.908,14.396-0.428,21.345-0.512c-1.165-4.391-2.292-8.638-3.377-12.729
	C104.546,248.511,98.627,252.873,92.448,257.426 M106.391,266.111c0.004,0.093,0.008,0.185,0.011,0.276
	c0.982,0.028,1.964,0.079,2.945,0.08c1.036,0.001,2.072-0.081,3.106-0.061c4.866,0.09,4.138-0.118,3.043-4.077
	c-0.055-0.198-0.096-0.422-0.218-0.575c-0.152-0.192-0.378-0.451-0.578-0.455c-1.444-0.042-2.895-0.11-4.332-0.012
	c-3.804,0.258-7.598,0.684-11.405,0.875c-3.496,0.175-7.004,0.113-10.505,0.206c-0.332,0.008-0.827,0.29-0.952,0.573
	c-0.701,1.586,0.916,4.128,2.641,4.094c2.895-0.06,5.79-0.2,8.682-0.365C101.352,266.525,103.87,266.301,106.391,266.111
	 M195.194,138.855c0.109,3.22,0.525,6.115,0.207,8.931c-0.284,2.514-0.937,5.193-2.198,7.349c-3.386,5.784-2.507,11.28,1.387,16.414
	c0.324-1.608,0.691-3.168,0.94-4.747c0.178-1.127,0.86-1.566,1.869-1.706c2.628-0.363,2.628-0.361,2.918-3.047
	c-4.243-2.713-5.079-3.738-4.347-8.802c0.306-2.124,1.001-4.188,1.45-6.293c0.568-2.656,1.065-5.327,1.636-8.209
	C197.48,138.79,196.177,138.828,195.194,138.855 M129.53,151.047c-2.224-1.918-4.693-4.162-4.267-7.567
	c0.178-1.427,0.195-2.877,0.222-4.317c0.045-2.497,1.143-4.423,3.018-6.004c0.487-0.411,1.144-1.053,1.12-1.559
	c-0.077-1.608-0.438-3.205-0.699-4.867c-1.557,0.339-2.906,0.68-4.272,0.914c-1.126,0.195-1.371,0.843-1.299,1.868
	c0.302,4.354,0.536,8.71,0.847,13.063c0.264,3.701,0.554,7.403,0.918,11.098c0.358,3.631,0.405,3.627,3.948,3.164
	c0.043-0.007,0.081-0.055,0.301-0.213C129.417,154.93,129.47,153.094,129.53,151.047 M214.629,161.114
	c-3.165,1.458-6.082,2.111-9.175,2.053c-0.413-0.007-1.139,0.565-1.177,0.927c-0.042,0.404,0.485,0.921,0.86,1.294
	c0.187,0.187,0.583,0.19,0.889,0.221c2.312,0.234,4.452,0.758,6.001,2.742c0.612,0.785,1.505,1.352,2.332,2.072
	C214.449,167.355,214.536,164.354,214.629,161.114"/>
<path fill="#231F20" d="M266.009,359.898c-1.245-1.942-2.435-3.917-3.671-5.864c-0.906-1.426-1.923-2.787-2.772-4.244
	c-1.678-2.881-3.273-5.81-4.906-8.718c-0.075-0.136-0.169-0.261-0.257-0.391c-0.883-1.312-1.825-2.589-2.64-3.941
	c-1.979-3.295-3.806-6.688-5.875-9.924c-1.561-2.443-3.728-4.539-5.031-7.094c-1.386-2.714-2.848-5.315-4.78-7.652
	c-0.542-0.656-1.177-1.244-1.822-1.802c-1.979-1.709-4.163-2.65-6.9-2.258c-1.726,0.248-3.515,0.022-5.271,0.101
	c-4.003,0.176-8.004,0.4-12.004,0.622c-2.347,0.13-4.69,0.287-7.622,0.469c0.58-1.747,0.909-3.051,1.446-4.264
	c0.436-0.98,1.02-1.821-0.039-2.767c-0.205-0.182-0.164-0.637-0.246-0.966c-0.18-0.71-0.21-1.509-0.57-2.113
	c-2.783-4.665-6.812-8.431-9.532-13.149c-0.126-0.22-0.342-0.387-0.516-0.576c-1.37-1.493-3.202-2.772-4.001-4.524
	c-1.148-2.518-3.329-3.444-5.391-3.541c-3.23-0.148-6.484-0.036-9.748-0.184c-3.741-0.171-7.515,0.511-11.278,0.583
	c-6.263,0.119-12.529,0.044-18.794,0.055c-3.958,0.007-7.914-0.087-11.876-0.042c-5.63,0.065-11.268-0.491-16.902-0.771
	c-1.746-0.087-2.537,0.597-2.907,2.395c-0.067,0.324-0.263,0.657-0.487,0.906c-2.633,2.929-5.274,5.853-7.932,8.76
	c-2.131,2.331-4.294,4.635-6.435,6.958c-1.036,1.123-2.045,2.273-3.083,3.396c-0.871,0.942-2.598,1.399-1.815,3.261
	c-1.506,2.133-0.544,4.461-0.537,6.718c0.005,1.427-0.074,2.855-0.124,4.567c-2.334-0.07-4.248-0.098-6.159-0.186
	c-6.71-0.307-13.406-0.97-20.142-0.475c-1.169,0.086-1.955,0.46-2.614,1.283c-0.478,0.596-0.894,1.248-1.301,1.896
	c-1.637,2.614-3.163,5.302-4.914,7.836c-1.672,2.418-3.604,4.654-5.365,7.015c-3.06,4.1-6.075,8.234-9.108,12.355
	c-1.698,2.308-3.423,4.595-5.08,6.931c-1.216,1.714-2.277,3.538-3.531,5.224c-0.849,1.141-2.01,2.049-2.857,3.194
	c-1.591,2.146-3.069,4.383-4.565,6.601c-0.4,0.592-1.012,1.266-0.989,1.882c0.154,4.052,0.36,8.107,0.745,12.144
	c0.208,2.183,2.498,3.972,4.695,4.031c2.839,0.079,5.679,0.149,8.519,0.23c9.943,0.281,19.885,0.589,29.829,0.841
	c12.837,0.329,25.675,0.641,38.513,0.902c5.644,0.114,11.292,0.168,16.936,0.102c4.387-0.049,8.77-0.456,13.156-0.47
	c6.109-0.021,12.218,0.239,18.326,0.256c3.832,0.009,7.664-0.333,11.492-0.297c8.235,0.076,16.47,0.476,24.701,0.41
	c12.513-0.103,25.023-0.474,37.533-0.757c5.696-0.131,11.396-0.229,17.084-0.521c5.42-0.278,10.829-0.786,16.241-1.221
	c0.365-0.03,0.784-0.225,1.053-0.476c1.119-1.048,2.201-2.138,3.272-3.233c0.273-0.28,0.614-0.623,0.664-0.975
	c0.288-2.038,0.525-4.085,0.725-6.136c0.174-1.795,0.096-3.634,0.449-5.391c0.496-2.473-0.384-4.338-2.016-6.022
	C266.663,360.547,266.252,360.277,266.009,359.898 M152.553,281.989c3.358-0.104,6.723,0.012,10.082-0.04
	c3.364-0.054,6.728-0.274,10.091-0.289c3.464-0.017,6.932,0.082,10.393,0.24c0.534,0.024,1.339,0.529,1.513,1.001
	c0.833,2.247,2.761,3.547,4.236,5.233c0.429,0.49,0.831,1.006,1.238,1.517c0.948,1.183,1.926,2.346,2.825,3.567
	c0.732,0.993,1.33,2.086,2.06,3.082c0.839,1.148,1.781,2.22,2.628,3.362c0.388,0.525,0.649,1.143,1.12,1.991
	c-3.096-0.09-5.788-0.094-8.473-0.261c-7.188-0.446-14.367-0.33-21.544,0.201c-0.258,0.02-0.518,0.01-0.776,0.007
	c-5.224-0.063-10.447-0.189-15.67-0.15c-1.44,0.01-1.877-0.65-1.89-1.806c-0.057-5.099-0.09-10.196-0.075-15.296
	C150.315,282.173,150.374,282.056,152.553,281.989 M98.823,300.521c2.051-2.286,4.115-4.565,6.238-6.782
	c2.073-2.166,4.227-4.255,6.341-6.382c1.845-1.857,3.657-3.749,5.551-5.555c0.345-0.329,1.018-0.454,1.534-0.441
	c6.77,0.149,13.539,0.343,20.307,0.524c1.864,0.051,3.728,0.135,5.591,0.134c0.94-0.001,1.266,0.336,1.233,1.287
	c-0.127,3.618-0.214,7.238-0.258,10.857c-0.011,0.976,0.212,1.951,0.271,2.928c0.049,0.817-0.052,1.646,0.037,2.454
	c0.073,0.664,0.326,1.31,0.532,2.086c-3.379,0.023-6.728,0.032-10.076,0.07c-4.708,0.049-9.415,0.151-14.123,0.169
	c-1.649,0.004-3.298-0.209-4.949-0.255c-4.281-0.121-8.563-0.254-12.846-0.28c-1.62-0.01-3.24,0.313-4.864,0.381
	C98.39,301.757,98.251,301.158,98.823,300.521 M97.949,305.672c2.689-0.038,5.38-0.086,8.067-0.199
	c1.736-0.072,3.466-0.364,5.2-0.379c1.15-0.01,2.304,0.296,3.454,0.469c0.356,0.054,0.706,0.185,1.061,0.195
	c5.374,0.146,10.748,0.365,16.122,0.381c5.051,0.015,10.103-0.17,15.154-0.313c5.383-0.154,10.763-0.454,16.146-0.523
	c5.271-0.066,10.546,0.035,15.815,0.138c6.005,0.114,12.008,0.329,18.012,0.46c1.071,0.022,1.277,0.487,1.214,1.454
	c-0.184,2.785-0.42,5.578-0.372,8.364c0.041,2.444,0.51,4.875,0.657,7.32c0.177,2.884,0.161,5.778,0.319,8.663
	c0.158,2.872,0.427,5.737,0.649,8.604c0.078,1.021-0.312,1.456-1.414,1.505c-6.253,0.269-12.5,0.708-18.756,0.892
	c-3.723,0.109-7.456-0.213-11.186-0.219c-5.179-0.007-10.357,0.073-15.536,0.171c-2.864,0.052-5.726,0.308-8.588,0.295
	c-1.626-0.008-3.251-0.374-4.876-0.581c-0.256-0.034-0.512-0.114-0.767-0.108c-7.283,0.146-14.568,0.214-21.846,0.48
	c-6.053,0.22-12.096,0.679-18.145,1.019c-0.401,0.023-0.808-0.065-1.71-0.149c-0.005-6.233,0.008-12.329-0.022-18.428
	c-0.018-3.771-0.114-7.546-0.153-11.318c-0.022-2.169,0.097-4.345-0.034-6.507C96.339,306.09,96.789,305.688,97.949,305.672
	 M34.938,360.844c1.22-1.589,2.498-3.136,3.671-4.757c2.136-2.951,4.222-5.939,6.312-8.924c0.59-0.843,1.054-1.783,1.699-2.579
	c1.867-2.301,3.845-4.514,5.684-6.838c1.246-1.577,2.341-3.274,3.486-4.929c2.547-3.679,5.083-7.363,7.623-11.046
	c0.059-0.085,0.136-0.165,0.171-0.261c1.389-3.825,4.451-4.171,7.931-4.015c6.561,0.292,13.129,0.411,19.988,0.61
	c0.169,3.188,0.378,6.448,0.506,9.714c0.204,5.195,0.253,10.4,0.596,15.588c0.09,1.367,0.777,2.861,1.619,3.971
	c1.076,1.421,2.872,0.801,4.39,0.75c1.273-0.043,2.54-0.26,3.813-0.339c5.635-0.344,11.267-0.81,16.907-0.956
	c5.377-0.136,10.763,0.064,16.145,0.126c8.062,0.095,16.123,0.223,24.185,0.287c3.775,0.031,7.552-0.087,11.328-0.075
	c2.394,0.008,4.791,0.258,7.179,0.172c3.388-0.122,6.766-0.483,10.152-0.687c3.568-0.214,7.142-0.367,10.714-0.535
	c0.356-0.017,0.732-0.014,1.076,0.073c2.813,0.71,3.71,0.038,3.839-2.801c0.215-4.771-0.038-9.488-0.781-14.222
	c-0.438-2.78-0.203-5.666-0.299-8.503c-0.062-1.808-0.14-3.619-0.28-5.423c-0.098-1.258,0.523-1.874,1.662-1.958
	c2.629-0.196,5.263-0.39,7.897-0.452c5.277-0.123,10.562-0.054,15.834-0.273c2.29-0.096,3.566,1.226,4.615,2.75
	c1.563,2.27,2.723,4.818,4.255,7.113c1.4,2.098,3.105,3.987,4.604,6.024c0.577,0.783,0.936,1.723,1.428,2.572
	c2.185,3.774,4.359,7.555,6.579,11.308c2.241,3.791,4.5,7.575,6.809,11.325c2.203,3.578,4.481,7.109,6.727,10.663
	c-5.909,0.303-11.731,0.734-17.561,0.86c-4.496,0.098-9.017-0.481-13.501-0.253c-15.117,0.774-30.232,0.343-45.351,0.29
	c-3.986-0.013-7.972,0.336-11.96,0.436c-3.363,0.083-6.729,0.092-10.093,0.047c-4.506-0.061-9.012-0.269-13.52-0.291
	c-4.922-0.027-9.926-0.453-14.749,0.269c-6.51,0.975-12.891-0.265-19.33-0.083c-4.971,0.143-9.95,0.06-14.925,0.005
	c-2.483-0.026-4.966-0.315-7.448-0.304c-4.348,0.023-8.696,0.201-13.044,0.286c-10.148,0.203-20.301,0.278-30.444,0.618
	c-6.499,0.216-12.984,0.816-19.476,1.238c-0.351,0.022-0.707-0.018-1.663-0.044C31.766,364.996,33.346,362.915,34.938,360.844
	 M264.235,375.725c-0.008,0.195-0.077,0.516-0.2,0.562c-2.083,0.808-3.334,3.062-5.895,3.12c-6.313,0.142-12.625,0.422-18.936,0.675
	c-3.573,0.146-7.142,0.418-10.715,0.5c-5.49,0.128-10.985,0.08-16.475,0.222c-5.725,0.148-11.446,0.478-17.171,0.634
	c-2.012,0.055-4.031-0.217-6.048-0.248c-3.676-0.061-7.353-0.068-11.03-0.068c-5.646-0.001-11.291,0.046-16.936,0.031
	c-7.194-0.022-14.387-0.131-21.581-0.121c-6.217,0.007-12.433,0.164-18.65,0.19c-4.554,0.021-9.109-0.09-13.663-0.078
	c-1.563,0.003-3.125,0.255-4.689,0.278c-0.777,0.013-1.558-0.348-2.335-0.343c-1.998,0.017-4.001,0.278-5.992,0.2
	c-4.119-0.161-8.23-0.512-12.347-0.722c-2.558-0.13-5.123-0.131-7.684-0.214c-3.616-0.114-7.231-0.256-10.846-0.381
	c-4.279-0.146-8.557-0.316-12.836-0.411c-1.017-0.021-2.036,0.249-3.059,0.341c-0.563,0.05-1.136,0.036-1.702-0.002
	c-4.06-0.272-8.12-0.562-12.18-0.839c-0.204-0.014-0.418,0.013-0.617,0.062c-2.149,0.521-2.26,0.483-2.541-1.723
	c-0.246-1.931-0.378-3.875-0.572-5.937c4.207-0.212,8.341-0.481,12.479-0.616c5.999-0.194,12.001-0.273,18.001-0.438
	c7.016-0.193,14.031-0.443,21.048-0.632c5.536-0.151,11.075-0.388,16.611-0.342c8.166,0.067,16.33,0.443,24.496,0.518
	c9.725,0.088,19.452-0.028,29.179-0.007c5.325,0.011,10.651,0.141,15.977,0.153c0.793,0.002,1.687-0.666,2.361-0.46
	c4.164,1.27,8.259-0.285,12.391-0.161c5.796,0.176,11.6,0.062,17.399,0.057c9.941-0.011,19.882-0.068,29.823-0.034
	c5.848,0.019,11.695,0.223,17.542,0.238c1.998,0.005,3.995-0.33,5.995-0.483c3.734-0.284,7.461-1.151,11.593-0.026
	C264.371,371.306,264.311,373.516,264.235,375.725"/>
<path fill="#231F20" d="M45.419,261.518c0.835,0.629,1.553,1.168,2.271,1.707c1.957,1.471,3.754,3.262,5.908,4.339
	c3.461,1.73,6.807,3.601,9.842,5.98c1.679,1.317,3.142,2.905,4.763,4.299c1.593,1.372,3.235,2.693,4.909,3.965
	c1.278,0.971,1.653,1.926,0.989,2.984c-0.658,1.053-1.781,1.292-3.095,0.333c-2.058-1.501-3.953-3.22-5.971-4.78
	c-2.59-2.002-5.149-4.062-7.875-5.864c-3.41-2.255-7.049-4.163-10.44-6.443c-1.369-0.92-2.396-2.385-3.46-3.7
	c-0.265-0.327-0.292-1.253-0.034-1.512C43.762,262.283,44.561,262,45.419,261.518"/>
<path fill="#231F20" d="M224.371,289.509c-0.475-0.454-1.306-0.908-1.481-1.544c-0.123-0.44,0.524-1.335,1.053-1.678
	c2.448-1.588,4.961-3.08,7.481-4.55c0.888-0.519,1.854-0.91,2.803-1.32c3.059-1.317,6.158-2.547,9.177-3.95
	c2.678-1.243,5.241-2.731,7.909-3.998c1.347-0.64,2.782-1.171,4.235-1.465c0.667-0.135,1.473,0.419,2.216,0.66
	c-0.27,0.658-0.479,1.354-0.837,1.958c-0.192,0.326-0.612,0.561-0.979,0.731c-5.266,2.466-10.58,4.831-15.8,7.391
	c-4.612,2.264-9.116,4.75-13.684,7.11C225.928,289.13,225.299,289.227,224.371,289.509"/>
<path fill="#231F20" d="M41.763,284.952c0.909,0.374,1.984,0.592,2.777,1.185c2.565,1.92,5.597,2.556,8.566,3.397
	c2.428,0.688,4.859,1.367,7.275,2.097c0.478,0.143,1.124,0.395,1.285,0.771c0.276,0.643,0.452,1.499,0.237,2.114
	c-0.139,0.397-1.104,0.813-1.611,0.723c-5.944-1.046-11.838-2.329-17.411-4.727c-1.309-0.564-2.506-1.401-3.721-2.165
	c-0.764-0.481-0.597-2.187,0.285-2.625C40.124,285.384,40.896,285.23,41.763,284.952"/>
<path fill="#231F20" d="M242.805,308.177c-0.791-0.559-2.033-0.973-2.271-1.71c-0.401-1.242,0.715-1.844,1.892-2.107
	c2.114-0.478,4.227-0.973,6.326-1.507c4.321-1.103,8.625-2.27,12.961-3.301c0.475-0.112,1.234,0.359,1.623,0.779
	c0.171,0.188-0.106,1.077-0.43,1.384c-2.077,1.965-4.773,2.569-7.439,3.22c-3.951,0.962-7.9,1.931-11.851,2.893
	c-0.198,0.048-0.408,0.053-0.612,0.078C242.938,307.995,242.872,308.086,242.805,308.177"/>
<path fill="#FFFFFF" d="M162.373,157.176c-0.079-0.221-0.239-0.676-0.549-1.543c0.026,2.215,0.465,3.786,1.496,5.321
	c1.622,2.417,3.074,4.956,1.635,8.07c-0.969,2.095-1.985,4.191-2.691,6.381c-1.774,5.496,0.787,10.069,6.702,11.082
	c1.715,0.293,3.409,0.74,5.088,1.207c1.916,0.533,3.1,1.624,3.614,3.758c0.739,3.063,2.718,5.336,5.659,6.696
	c2.438,1.125,4.87,2.265,7.237,3.526c0.882,0.472,1.522,1.371,2.36,1.95c0.931,0.647,1.914,1.505,2.955,1.638
	c1.825,0.231,3.757,0.216,5.565-0.117c3.638-0.669,6.935,0.202,10.253,1.524c4.535,1.809,4.005,0.58,4.211,5.95
	c0.305,7.919,0.733,15.832,1.099,23.748c0.282,6.136,0.562,12.271,0.817,18.407c0.072,1.736,0.065,3.475,0.069,5.214
	c0.003,1.301-0.995,2.462-2.417,2.528c-3.505,0.16-7.016,0.208-10.523,0.279c-2.538,0.053-5.076,0.075-7.613,0.099
	c-0.398,0.004-0.797-0.064-1.342-0.11c0.941-1.482,1.762-2.875,2.702-4.178c0.2-0.279,0.834-0.302,1.277-0.338
	c4.53-0.374,9.064-0.689,13.59-1.117c0.886-0.084,2.106-0.159,2.114-1.543c0.01-1.523-1.096-2.744-2.586-2.712
	c-3.001,0.062-6,0.258-9.001,0.394c-0.645,0.03-1.289,0.037-2.318,0.065c1.041-1.521,1.878-2.723,2.694-3.94
	c0.621-0.925,1.292-1.911,0.036-2.816c-1.082-0.782-2.546-0.325-3.359,0.796c-1.414,1.944-2.894,3.843-4.376,5.736
	c-1.227,1.569-3.087,1.066-4.636,1.133c-6.62,0.275-13.249,0.442-19.875,0.464c-8.701,0.025-17.403-0.203-26.104-0.167
	c-4.919,0.019-9.846,0.233-14.754,0.581c-3.804,0.269-7.587,0.849-11.37,1.36c-1.013,0.138-1.356-0.257-1.626-1.146
	c-1.151-3.796-2.341-7.581-3.588-11.346c-0.238-0.721-0.8-1.329-1.353-2.214c0.152-0.164,0.436-0.561,0.802-0.855
	c2.366-1.91,4.744-3.804,7.133-5.686c0.48-0.379,1.049-0.645,1.529-1.022c3.731-2.944,7.444-5.907,11.176-8.848
	c0.933-0.734,1.917-1.402,2.869-2.112c1.621-1.21,1.718-1.808,1.164-3.701c-0.328-1.123-0.417-2.339-0.451-3.519
	c-0.227-7.761-0.354-15.524-0.629-23.281c-0.152-4.29-0.527-8.574-0.801-12.859c-0.02-0.31-0.03-0.623-0.045-0.932
	c-0.186-3.891-0.44-7.778-0.542-11.669c-0.111-4.237-0.077-8.478-0.119-12.715c-0.008-0.813-0.079-1.623-0.118-2.38
	c1.334-0.21,2.527-0.49,3.733-0.565c2.495-0.157,3.998-2,5.037-3.702c2.092-3.427,3.297-7.261,2.282-11.419
	c-0.831-3.402-2.59-5.898-6.307-6.518c-0.501-0.084-1.022-0.237-1.456-0.491c-1.022-0.599-1.967-0.724-3.051-0.08
	c-0.489,0.289-1.178,0.239-2.007,0.382c-0.162-2.145-0.426-4.138-0.442-6.133c-0.054-6.73,0.085-13.461-0.051-20.188
	c-0.115-5.747-0.418-11.493-0.799-17.23c-0.517-7.777-1.193-15.542-1.79-23.314c-0.25-3.254-0.465-6.509-0.715-9.762
	c-0.124-1.627,0.002-3.358-0.533-4.845c-0.425-1.183-1.559-2.216-2.592-3.054c-3.68-2.977-7.496-5.785-11.173-8.769
	c-3.541-2.872-6.921-5.944-10.474-8.801c-1.955-1.573-4.153-2.837-6.18-4.324c-2.383-1.749-4.693-3.597-7.051-5.379
	c-0.405-0.306-0.923-0.459-1.342-0.75c-1.609-1.118-3.199-2.261-4.796-3.396c0.088-0.167,0.176-0.334,0.263-0.501
	c1.323-0.112,2.643-0.28,3.967-0.33c4.085-0.149,8.17-0.318,12.257-0.357c3.416-0.033,6.838,0.257,10.249,0.137
	c5.722-0.203,11.434-0.765,17.156-0.892c4.537-0.103,9.084,0.334,13.626,0.33c5.331-0.005,10.662-0.265,15.994-0.335
	c1.907-0.026,3.818,0.283,5.725,0.249c7.034-0.128,14.068-0.334,21.103-0.518c4.737-0.124,9.473-0.349,14.21-0.357
	c4.24-0.009,8.479,0.219,12.972,0.35c0.079,1.982-0.147,3.827,0.276,5.507c1.237,4.902,0.704,9.849,0.734,14.782
	c0.04,6.463,0.041,12.927,0.044,19.392c0.002,4.559-0.103,9.117-0.01,13.673c0.087,4.238,0.014,8.53,0.652,12.699
	c1.053,6.872,0.503,13.729,0.422,20.585c-0.068,5.854-0.512,11.699-0.708,17.553c-0.085,2.534,0.099,5.077,0.042,7.613
	c-0.042,1.858-1.143,2.234-2.921,1.57c-3.28-1.225-6.59-2.499-10.001-3.202c-3.245-0.668-6.156,0.993-8.873,2.646
	c-2.874,1.749-4.906,4.464-5.957,7.46c-0.823,2.347-2.346,2.555-4.112,3.181c-1.812,0.643-3.492,1.656-5.248,2.47
	c-0.746,0.348-1.554,0.563-2.305,0.903c-4.106,1.859-6.927,5.102-9.36,8.755c-0.144,0.214-0.342,0.398-0.464,0.622
	c-0.43,0.794-1.553,1.151-0.869,2.614c0.349,0.748-0.738,2.143-1.127,3.264C163.057,154.913,162.709,156.106,162.373,157.176"/>
<path fill="#00ADDD" d="M81.977,16.456c0.46,0.25,0.784,0.385,1.058,0.585c1.81,1.327,3.628,2.646,5.409,4.014
	c2.193,1.683,4.323,3.452,6.536,5.107c2.053,1.536,4.267,2.866,6.255,4.479c3.912,3.171,7.677,6.523,11.578,9.711
	c3.426,2.798,6.971,5.45,10.425,8.215c0.992,0.793,1.781,1.68,1.84,3.179c0.156,3.935,0.502,7.86,0.804,11.787
	c0.586,7.616,1.184,15.233,1.796,22.848c0.43,5.346,0.95,10.685,1.311,16.034c0.146,2.159-0.066,4.341-0.041,6.51
	c0.047,4.138,0.091,8.277,0.256,12.413c0.064,1.585-0.533,2.217-2.056,2.418c-1.839,0.241-3.64,0.765-5.477,1.039
	c-1.409,0.211-1.959,1.063-2.015,2.316c-0.077,1.701-0.111,3.409-0.057,5.111c0.119,3.767,0.179,7.544,0.494,11.297
	c0.445,5.293,1.106,10.567,1.657,15.852c0.145,1.384,1.263,1.436,2.178,1.477c2.061,0.092,4.135,0.081,6.194-0.041
	c1.063-0.064,1.403,0.297,1.395,1.275c-0.023,3.033-0.043,6.066-0.022,9.1c0.019,2.839,0.036,5.682,0.159,8.519
	c0.122,2.788,0.411,5.57,0.565,8.358c0.453,8.201,0.886,16.401,1.303,24.604c0.11,2.167,0.172,4.338,0.158,6.508
	c-0.002,0.428-0.357,0.971-0.713,1.258c-1.637,1.319-3.371,2.52-4.996,3.854c-1.929,1.583-3.737,3.314-5.68,4.878
	c-1.429,1.152-3.04,2.074-4.482,3.211c-2.695,2.123-5.295,4.367-7.993,6.486c-1.892,1.485-3.896,2.824-5.821,4.267
	c-1.388,1.041-2.695,2.19-4.097,3.21c-1.945,1.416-3.96,2.735-5.917,4.135c-1.625,1.162-3.208,2.383-4.814,3.57
	c-0.404,0.299-0.826,0.572-1.676,1.157c-0.296-2.753-0.646-5.159-0.796-7.578c-0.356-5.729-0.64-11.467-0.906-17.203
	c-0.199-4.294-0.276-8.595-0.504-12.887c-0.123-2.311-0.617-4.61-0.652-6.919c-0.08-5.334-0.008-10.671,0.048-16.005
	c0.093-8.863,0.262-17.725,0.323-26.587c0.067-9.792,0.072-19.584,0.05-29.375c-0.007-2.846-0.193-5.69-0.308-8.535
	c-0.369-9.137-0.796-18.273-1.094-27.414c-0.166-5.122-0.151-10.251-0.164-15.377c-0.027-10.821,0.06-21.642-0.052-32.462
	c-0.081-7.884-0.339-15.771-0.659-23.649c-0.115-2.83-0.755-5.637-0.945-8.468C81.697,20.713,81.913,18.664,81.977,16.456"/>
<path fill="#00ADDD" d="M193.631,175.726c-0.654,1.437-1.314,2.547-1.667,3.746c-0.494,1.682-0.76,3.43-1.12,5.149
	c-0.455,2.167-0.889,4.337-1.365,6.501c-0.213,0.966,0.044,1.768,1.017,1.931c2.076,0.349,4.213,0.88,6.266,0.691
	c3.063-0.285,6.164-0.853,9.085-1.802c3.032-0.987,5.812-2.646,7.642-5.477c0.298-0.461,0.694-0.856,1.046-1.283
	c0.168,0.026,0.335,0.057,0.502,0.084c0.213,5.97,0.427,11.938,0.656,18.332c-2.118-0.743-4.055-1.002-5.436-2.016
	c-1.81-1.327-3.684-1.261-5.604-1.168c-1.681,0.083-3.334,0.619-5.017,0.775c-1.417,0.132-2.764,0.1-4.035-1.03
	c-1.393-1.241-3.105-2.155-4.765-3.054c-1.677-0.908-3.424-1.711-5.202-2.4c-1.729-0.668-2.623-1.968-3.095-3.608
	c-0.965-3.354-3.027-5.778-6.262-6.965c-2.195-0.804-4.535-1.274-6.848-1.679c-2.277-0.399-3.201-1.24-2.877-3.527
	c0.23-1.614,0.744-3.206,1.277-4.758c0.665-1.936,1.601-3.785,2.195-5.74c0.594-1.96,0.15-3.871-0.899-5.64
	c-0.949-1.598-1.959-3.172-2.738-4.851c-0.31-0.668-0.269-1.65-0.041-2.384c0.394-1.26,1.051-2.438,1.608-3.646
	c1.828-3.954,4.443-7.427,7.93-9.891c2.838-2.006,6.235-3.278,9.492-4.61c2.227-0.911,4.987,1.112,5.434,3.54
	c0.733,3.985,0.208,7.706-1.479,11.442c-1.285,2.847-1.932,5.981-2.822,8.999c-0.127,0.431-0.131,0.954-0.015,1.389
	c0.746,2.788,1.081,5.826,2.473,8.255C189.981,172.797,190.51,175.523,193.631,175.726"/>
<path fill="#FFFFFF" d="M119.917,260.791c4.304-0.38,8.368-0.784,12.439-1.088c4.841-0.358,9.686-0.843,14.533-0.893
	c7.98-0.083,15.964,0.229,23.945,0.2c5.744-0.022,11.485-0.357,17.229-0.494c1.841-0.045,3.687,0.091,5.515,0.144
	c-0.597,1.002-1.195,1.986-1.774,2.983c-0.524,0.906-1.279,1.164-2.326,1.165c-4.762,0.002-9.528-0.023-14.285,0.184
	c-7.28,0.318-14.554,0.819-21.831,1.238c-5.069,0.292-10.141,0.578-15.21,0.869c-5.244,0.3-10.49,0.59-15.732,0.922
	c-0.914,0.059-1.267-0.223-1.424-1.151C120.777,263.581,120.336,262.33,119.917,260.791"/>
<path fill="#FFFFFF" d="M214.603,149.229c-0.057,1.914-0.04,3.834-0.208,5.737c-0.056,0.634-0.423,1.469-0.921,1.797
	c-3.238,2.127-6.817,2.736-10.618,2.035c-2.251-0.416-2.959-1.252-2.62-3.53c0.524-3.523,1.215-7.021,1.838-10.527
	c0.353-1.983,0.737-3.964,1.057-5.953c0.313-1.941,0.847-2.294,2.676-1.853c2.726,0.655,5.271,1.74,7.393,3.543
	c0.761,0.646,1.348,1.852,1.441,2.855c0.181,1.944-0.044,3.928-0.103,5.894C214.56,149.229,214.581,149.229,214.603,149.229
	 M206.45,157.337c1.43,0.06,2.505-0.736,2.554-1.891c0.056-1.263-0.919-2.386-2.107-2.429c-1.2-0.045-2.419,0.975-2.466,2.062
	C204.375,156.357,205.207,157.285,206.45,157.337"/>
<path fill="#FFFFFF" d="M211.566,177.676c-0.104,3.158-0.975,6.744-4.569,8.873c-2.428,1.437-5.009,2.63-7.941,2.718
	c-0.82,0.026-1.636,0.206-2.455,0.304c-1.571,0.188-2.079-0.219-1.808-1.729c0.26-1.448,0.793-2.844,1.145-4.277
	c0.491-2.002,0.937-4.015,1.382-6.027c0.514-2.313,1.019-4.629,1.503-6.946c0.173-0.824,0.538-1.287,1.471-1.185
	c2.104,0.234,4.243,0.276,6.316,0.665C209.495,170.612,211.779,173.921,211.566,177.676 M202.294,180.45
	c-1.393-0.066-2.282,0.761-2.397,2.228c-0.078,0.995,1.066,2.306,2.034,2.333c1.15,0.03,2.41-1.025,2.488-2.085
	C204.518,181.6,203.584,180.513,202.294,180.45"/>
<path fill="#00ADDD" d="M214.725,135.836c-3.373-2.266-6.866-3.01-10.507-3.262c-1.138-0.079-2.271-0.253-3.408-0.286
	c-0.273-0.008-0.77,0.344-0.804,0.58c-0.303,2.082-1.982,1.822-3.357,2.013c-2.188,0.304-4.229-0.138-5.952-1.564
	c-0.286-0.237-0.488-1.016-0.318-1.293c1.91-3.123,4.463-5.474,8.069-6.556c2.322-0.696,4.387,0.144,6.477,0.89
	c1.833,0.654,3.622,1.434,5.474,2.028c0.642,0.205,1.435,0.126,2.118-0.02c1.623-0.343,2.098-0.007,2.103,1.587
	C214.623,131.799,214.683,133.644,214.725,135.836"/>
<path fill="#00ADDD" d="M132.663,148.843c-4.357-2.396-3.564-6.655-2.88-10.657c0.335-1.962,2.254-3.188,4.084-3.866
	c2.537-0.945,4.955-0.679,6.854,1.614c1.971,2.381,2.482,4.896,0.923,7.672c-0.568,1.01-1.186,1.996-1.801,2.979
	c-0.831,1.331-2.215,1.314-3.555,1.489C135.126,148.227,133.989,148.555,132.663,148.843"/>
<path fill="#FFFFFF" d="M92.448,257.425c6.179-4.553,12.098-8.913,17.968-13.238c1.085,4.091,2.212,8.338,3.376,12.727
	C106.843,256.997,99.814,258.333,92.448,257.425"/>
<path fill="#FFFFFF" d="M106.391,266.111c-2.521,0.188-5.039,0.414-7.563,0.56c-2.891,0.165-5.786,0.306-8.681,0.365
	c-1.725,0.035-3.342-2.507-2.641-4.094c0.125-0.283,0.62-0.565,0.952-0.573c3.501-0.093,7.009-0.031,10.505-0.206
	c3.807-0.191,7.601-0.617,11.405-0.875c1.437-0.099,2.888-0.03,4.332,0.012c0.2,0.004,0.426,0.263,0.578,0.455
	c0.122,0.153,0.163,0.377,0.218,0.575c1.095,3.959,1.823,4.167-3.043,4.077c-1.034-0.021-2.071,0.062-3.105,0.06
	c-0.982-0.001-1.963-0.051-2.945-0.079C106.399,266.296,106.395,266.204,106.391,266.111"/>
<path fill="#FFFFFF" d="M195.194,138.855c0.982-0.027,2.285-0.065,3.862-0.11c-0.57,2.882-1.067,5.552-1.635,8.209
	c-0.45,2.104-1.146,4.169-1.452,6.293c-0.731,5.063,0.104,6.087,4.348,8.801c-0.289,2.688-0.291,2.686-2.919,3.048
	c-1.009,0.141-1.69,0.578-1.868,1.705c-0.249,1.579-0.615,3.141-0.939,4.747c-3.894-5.133-4.773-10.631-1.387-16.414
	c1.261-2.154,1.914-4.835,2.197-7.348C195.718,144.971,195.302,142.075,195.194,138.855"/>
<path fill="#FFFFFF" d="M129.529,151.046c-0.06,2.049-0.113,3.885-0.162,5.579c-0.221,0.159-0.259,0.208-0.302,0.215
	c-3.542,0.464-3.59,0.468-3.947-3.164c-0.364-3.693-0.654-7.396-0.919-11.099c-0.311-4.352-0.544-8.71-0.847-13.062
	c-0.071-1.026,0.174-1.674,1.299-1.868c1.367-0.236,2.716-0.576,4.273-0.914c0.261,1.662,0.622,3.257,0.698,4.867
	c0.024,0.506-0.632,1.146-1.119,1.557c-1.876,1.582-2.973,3.507-3.019,6.004c-0.026,1.442-0.043,2.893-0.222,4.319
	C124.836,146.885,127.306,149.128,129.529,151.046"/>
<path fill="#FFFFFF" d="M214.629,161.114c-0.094,3.239-0.181,6.241-0.27,9.309c-0.827-0.721-1.72-1.287-2.332-2.072
	c-1.549-1.984-3.689-2.508-6.001-2.742c-0.306-0.03-0.702-0.034-0.889-0.221c-0.375-0.373-0.902-0.89-0.86-1.294
	c0.038-0.361,0.764-0.934,1.177-0.927C208.547,163.226,211.464,162.572,214.629,161.114"/>
<path fill="#FFFFFF" d="M263,364.318c-5.909,0.304-11.731,0.735-17.561,0.861c-4.496,0.097-9.017-0.481-13.501-0.253
	c-15.117,0.774-30.232,0.342-45.351,0.29c-3.986-0.013-7.972,0.336-11.96,0.435c-3.363,0.083-6.729,0.093-10.093,0.048
	c-4.506-0.061-9.012-0.269-13.52-0.291c-4.922-0.027-9.926-0.452-14.749,0.269c-6.51,0.974-12.891-0.265-19.33-0.083
	c-4.971,0.143-9.95,0.06-14.925,0.005c-2.483-0.026-4.966-0.315-7.448-0.303c-4.348,0.021-8.696,0.201-13.044,0.286
	c-10.148,0.202-20.301,0.276-30.444,0.617c-6.499,0.217-12.984,0.816-19.476,1.237c-0.351,0.023-0.707-0.016-1.663-0.044
	c1.829-2.396,3.409-4.478,5-6.549c1.22-1.588,2.498-3.134,3.671-4.756c2.136-2.952,4.222-5.941,6.312-8.925
	c0.59-0.843,1.054-1.782,1.699-2.577c1.867-2.303,3.845-4.516,5.684-6.84c1.246-1.576,2.341-3.274,3.486-4.93
	c2.547-3.678,5.083-7.362,7.623-11.046c0.059-0.085,0.136-0.165,0.171-0.26c1.389-3.826,4.451-4.171,7.931-4.015
	c6.561,0.293,13.129,0.411,19.988,0.609c0.169,3.189,0.378,6.449,0.506,9.713c0.204,5.197,0.253,10.402,0.596,15.59
	c0.09,1.366,0.777,2.86,1.619,3.972c1.075,1.42,2.872,0.8,4.39,0.75c1.273-0.043,2.54-0.261,3.813-0.34
	c5.635-0.344,11.267-0.811,16.907-0.954c5.377-0.138,10.763,0.062,16.145,0.125c8.062,0.094,16.124,0.222,24.185,0.286
	c3.775,0.031,7.552-0.087,11.328-0.074c2.394,0.007,4.791,0.257,7.179,0.171c3.388-0.122,6.766-0.482,10.152-0.687
	c3.568-0.215,7.142-0.367,10.714-0.535c0.356-0.018,0.732-0.015,1.076,0.073c2.813,0.71,3.71,0.037,3.839-2.802
	c0.215-4.769-0.038-9.487-0.781-14.221c-0.438-2.781-0.203-5.666-0.299-8.502c-0.062-1.809-0.139-3.62-0.28-5.424
	c-0.098-1.258,0.524-1.873,1.662-1.957c2.629-0.197,5.263-0.392,7.898-0.452c5.276-0.123,10.561-0.055,15.833-0.275
	c2.291-0.095,3.566,1.228,4.615,2.75c1.563,2.271,2.723,4.819,4.255,7.114c1.4,2.097,3.105,3.988,4.604,6.024
	c0.577,0.782,0.936,1.723,1.428,2.571c2.185,3.775,4.359,7.557,6.579,11.31c2.241,3.791,4.5,7.574,6.809,11.324
	C258.477,357.233,260.755,360.766,263,364.318"/>
<path fill="#FFFFFF" d="M96.624,343.608c-0.005-6.23,0.008-12.328-0.021-18.427c-0.019-3.771-0.115-7.546-0.153-11.317
	c-0.022-2.17,0.097-4.347-0.034-6.509c-0.077-1.266,0.372-1.668,1.533-1.684c2.69-0.038,5.38-0.085,8.067-0.199
	c1.736-0.073,3.466-0.364,5.201-0.379c1.15-0.008,2.303,0.296,3.454,0.468c0.355,0.055,0.705,0.187,1.06,0.196
	c5.374,0.146,10.748,0.366,16.123,0.381c5.051,0.015,10.103-0.17,15.153-0.313c5.383-0.154,10.763-0.453,16.147-0.523
	c5.271-0.066,10.544,0.036,15.815,0.137c6.005,0.115,12.007,0.329,18.012,0.46c1.07,0.023,1.277,0.488,1.213,1.454
	c-0.184,2.786-0.419,5.579-0.372,8.365c0.041,2.444,0.509,4.876,0.658,7.321c0.175,2.883,0.16,5.776,0.317,8.662
	c0.158,2.872,0.429,5.736,0.649,8.604c0.079,1.021-0.312,1.456-1.413,1.504c-6.253,0.271-12.5,0.708-18.755,0.893
	c-3.724,0.108-7.457-0.213-11.186-0.22c-5.18-0.007-10.358,0.074-15.536,0.172c-2.864,0.053-5.726,0.309-8.588,0.295
	c-1.627-0.009-3.251-0.374-4.876-0.581c-0.257-0.032-0.513-0.113-0.768-0.108c-7.282,0.146-14.568,0.214-21.846,0.48
	c-6.052,0.221-12.096,0.68-18.144,1.019C97.934,343.782,97.527,343.693,96.624,343.608"/>
<path fill="#00ADDD" d="M264.431,369.22c-0.061,2.087-0.12,4.297-0.197,6.506c-0.007,0.195-0.077,0.515-0.199,0.562
	c-2.083,0.808-3.334,3.062-5.895,3.12c-6.313,0.142-12.625,0.422-18.936,0.675c-3.573,0.146-7.142,0.418-10.716,0.5
	c-5.489,0.128-10.984,0.08-16.474,0.223c-5.725,0.146-11.446,0.477-17.171,0.633c-2.012,0.054-4.031-0.216-6.048-0.248
	c-3.676-0.061-7.354-0.068-11.03-0.069c-5.646-0.001-11.291,0.047-16.936,0.032c-7.194-0.022-14.387-0.131-21.581-0.121
	c-6.217,0.007-12.433,0.164-18.65,0.191c-4.554,0.02-9.109-0.091-13.663-0.079c-1.563,0.003-3.125,0.255-4.689,0.278
	c-0.777,0.013-1.558-0.348-2.335-0.343c-1.998,0.018-4.001,0.278-5.992,0.2c-4.119-0.162-8.23-0.512-12.347-0.721
	c-2.558-0.131-5.123-0.132-7.684-0.215c-3.616-0.114-7.231-0.256-10.846-0.381c-4.279-0.146-8.557-0.316-12.836-0.411
	c-1.017-0.021-2.036,0.249-3.059,0.341c-0.563,0.05-1.136,0.037-1.701-0.001c-4.061-0.274-8.121-0.563-12.181-0.84
	c-0.204-0.014-0.418,0.013-0.617,0.062c-2.149,0.521-2.26,0.484-2.541-1.722c-0.246-1.932-0.378-3.875-0.572-5.938
	c4.207-0.212,8.341-0.479,12.479-0.615c5.999-0.194,12.001-0.273,18.001-0.438c7.016-0.193,14.031-0.443,21.048-0.632
	c5.536-0.151,11.075-0.388,16.611-0.343c8.166,0.067,16.33,0.443,24.496,0.519c9.725,0.088,19.452-0.028,29.179-0.007
	c5.325,0.011,10.651,0.14,15.977,0.153c0.793,0.002,1.687-0.666,2.361-0.46c4.164,1.27,8.258-0.285,12.392-0.161
	c5.795,0.176,11.599,0.062,17.398,0.057c9.941-0.01,19.882-0.068,29.823-0.034c5.848,0.019,11.695,0.223,17.542,0.238
	c1.998,0.005,3.995-0.33,5.995-0.483C256.573,368.962,260.299,368.095,264.431,369.22"/>
<path fill="#231F20" d="M206.45,157.337c-1.243-0.052-2.075-0.979-2.02-2.257c0.047-1.088,1.266-2.107,2.466-2.062
	c1.188,0.043,2.163,1.166,2.107,2.429C208.955,156.601,207.879,157.396,206.45,157.337"/>
<path fill="#231F20" d="M202.294,180.45c1.29,0.062,2.224,1.149,2.125,2.476c-0.078,1.06-1.338,2.115-2.488,2.085
	c-0.968-0.027-2.112-1.338-2.034-2.333C200.012,181.211,200.902,180.384,202.294,180.45"/>
<path fill="#231F20" d="M161.816,326.404c1.126,0.36,1.369,1.082,1.322,2.053c-0.277,5.659-4.545,10.524-10.211,11.216
	c-3.005,0.366-6.073,0.224-9.114,0.271c-0.504,0.009-1.054-0.098-1.511-0.308c-5.18-2.38-9.974-7.498-9.61-14.002
	c0.246-4.401,2.097-8.298,5.043-11.749c2.606-3.054,5.956-4.478,9.643-5.09c3.192-0.531,6.055,0.861,8.69,2.678
	c2.541,1.753,4.308,4.149,5.873,6.726c0.324,0.531,0.424,1.2,0.682,1.972h-2.089c-0.273-0.621-0.611-1.26-0.844-1.937
	c-1.862-5.438-6.405-7.331-11.391-7.469c-3.303-0.09-6.674,1.213-9.171,4.076c-2.468,2.829-4.102,5.997-4.744,9.6
	c-0.681,3.826,0.116,7.291,2.982,10.279c3.616,3.771,7.91,4.777,12.872,4.092c6.615-0.914,10.543-4.803,11.426-11.428
	C161.704,327.092,161.754,326.803,161.816,326.404"/>
<path fill="#231F20" d="M156.422,333.251c-0.121-4.02-0.244-8.043-0.367-12.133c-2.724,0.922-6.393,3.952-6.043,6.757
	c0.196,1.579,0.037,3.206-0.03,4.812c-0.027,0.669-0.229,1.332-0.353,1.997c-0.171,0.01-0.342,0.021-0.513,0.031
	c-0.187-0.424-0.491-0.831-0.539-1.269c-0.268-2.414-0.586-4.83-0.657-7.253c-0.04-1.372-0.468-2.252-1.698-2.806
	c-1.722-0.778-3.427-1.596-5.393-2.514c-0.128,1.828-0.279,3.498-0.353,5.174c-0.064,1.447,0.01,2.901-0.082,4.348
	c-0.036,0.567-0.355,1.116-0.546,1.673c-0.24-0.049-0.479-0.098-0.719-0.147c0.173-4.282,0.346-8.564,0.537-13.272
	c1.59,0.579,2.846,0.871,3.933,1.469c1.669,0.919,3.176,2.134,4.851,3.04c0.547,0.296,1.582,0.288,2.086-0.046
	c1.545-1.023,2.911-2.314,4.411-3.414c0.494-0.36,1.449-0.804,1.725-0.594c0.471,0.358,0.76,1.193,0.795,1.844
	c0.17,3.248,0.258,6.501,0.32,9.754C157.805,331.662,157.92,332.739,156.422,333.251"/>
<path fill="#231F20" d="M146.599,319.161c-0.769,0.278-0.899-0.187-0.903-0.783c-0.006-0.824,0.068-1.657-0.02-2.474
	c-0.131-1.212,0.376-1.786,1.534-2.057c1.926-0.452,2.479-0.067,2.378,1.831c0.117-0.056,0.234-0.11,0.351-0.163
	c0.38,0.796,1.177,1.669,1.048,2.373c-0.209,1.149-1.121,2.103-2.5,2.146c-0.75,0.025-1.756,0.426-1.909-0.893
	c0.902-0.095,1.818-0.125,2.696-0.324c0.256-0.057,0.529-0.587,0.551-0.916c0.012-0.177-0.467-0.496-0.768-0.567
	C147.675,317.008,146.786,317.691,146.599,319.161 M148.926,315.08c-2.208-0.405-2.413-0.218-1.923,1.461
	C147.584,316.101,148.102,315.706,148.926,315.08"/>
<path fill="#231F20" d="M147.015,329.691c-0.623,0.967-0.962,1.81-1.572,2.344c-0.51,0.445-1.418,0.827-1.997,0.671
	c-0.444-0.119-0.868-1.104-0.916-1.732c-0.085-1.104-0.059-2.284,0.257-3.332c0.403-1.342,1.264-1.601,2.312-0.676
	C145.878,327.651,146.34,328.701,147.015,329.691 M143.033,329.544c0.511,0.785,0.881,1.354,1.252,1.925
	c0.425-0.571,1.185-1.141,1.189-1.713c0.004-0.663-0.657-1.33-1.029-1.996C144.021,328.297,143.596,328.831,143.033,329.544"/>
<path fill="#231F20" d="M152.995,332.331c-0.134-0.786-0.17-1.608-0.428-2.354c-0.268-0.77-0.68-1.516-1.163-2.175
	c-0.402-0.55-0.513-0.971,0.204-1.146c0.912-0.222,1.865-0.284,3.008-0.443c-0.139,0.545-0.12,0.88-0.266,0.981
	c-1.11,0.786-0.853,1.831-0.686,2.92c0.11,0.724,0.021,1.477,0.021,2.216C153.455,332.33,153.225,332.33,152.995,332.331"/>
</svg>
