<?xml version="1.0" encoding="utf-8"?>
<!-- Generator: Adobe Illustrator 15.1.0, SVG Export Plug-In . SVG Version: 6.00 Build 0)  -->
<!DOCTYPE svg PUBLIC "-//W3C//DTD SVG 1.1//EN" "http://www.w3.org/Graphics/SVG/1.1/DTD/svg11.dtd">
<svg version="1.1" id="Layer_1" xmlns="http://www.w3.org/2000/svg" xmlns:xlink="http://www.w3.org/1999/xlink" x="0px" y="0px"
	 width="150px" height="114px" viewBox="0 0 150 114" enable-background="new 0 0 150 114" xml:space="preserve">
<path fill="#00ADDD" d="M35.11,50.601c-6.748,2.054-13.452,1.785-20.036-0.716c-2.409-0.915-3.45,2.95-1.063,3.858
	c7.194,2.731,14.806,2.953,22.162,0.715C38.629,53.711,37.583,49.849,35.11,50.601"/>
<path fill="#00ADDD" d="M48.974,68.833c-4.009-0.142-8-0.101-12,0.229c-1.603,0.133-3.199,0.305-4.793,0.516
	c-0.677,0.092-1.353,0.188-2.029,0.287c-1.264,0.812-1.985,0.643-2.164-0.51c1.296-0.382,1.293-1.918,0.536-2.613
	c4.246-0.358,8.625-1.569,11.579-2.28c2.502-0.603,1.442-4.46-1.063-3.857c-4.161,1-16.472,4.563-18.95-0.37
	c-1.156-2.299-4.608-0.277-3.454,2.021c1.766,3.515,5.484,4.596,9.613,4.59c-2.629,1.314-4.517,4.59-0.622,6.146
	c2.375,0.95,6.354-0.411,8.588-0.664c4.907-0.556,9.827-0.668,14.759-0.494C50.905,71.9,50.902,68.9,48.974,68.833"/>
<path fill="#00ADDD" d="M87.41,80.873c-9.598,3.572-18.964-0.432-28.558-1.726c-8.196-1.104-19.189,3.425-25.89-2.722
	c-1.42-1.305-3.548,0.812-2.121,2.121c7.336,6.729,17.058,2.584,25.875,3.352c10.708,0.935,20.806,5.845,31.491,1.868
	C90.001,83.099,89.225,80.197,87.41,80.873"/>
<path fill="#00ADDD" d="M72.318,26.729c-2.528-0.006-5.057-0.012-7.585-0.018c-1.757-0.003-9.256,0.829-8.181-2.685
	c0.567-1.852-2.328-2.643-2.893-0.799c-2.726,8.908,14.376,6.491,18.659,6.501C74.249,29.734,74.251,26.734,72.318,26.729"/>
<path fill="#00ADDD" d="M74.293,32.979c-2.811,0.036-14.667,1.715-15.313-2.184c-0.315-1.9-3.207-1.093-2.893,0.798
	c0.463,2.789,2.668,4.125,5.344,4.451c4.168,0.509,8.664-0.011,12.862-0.065C76.223,35.955,76.227,32.955,74.293,32.979"/>
<path fill="#00ADDD" d="M122.639,44.466c-20.887-0.929-41.786-0.836-62.664,0.277c-3.841,0.205-3.865,6.206,0,6
	c20.877-1.113,41.777-1.206,62.664-0.277C126.498,50.639,126.49,44.639,122.639,44.466"/>
<path fill="#00ADDD" d="M115.98,93.094c-21.785,0.524-43.573,0.357-65.346-0.501c-0.479-0.019-0.869,0.105-1.169,0.319
	c0.705,1.496,1.645,2.788,2.929,3.741c6.774,0.254,13.549,0.445,20.325,0.567c0.165-0.102,0.354-0.176,0.596-0.174
	c3.226,0.022,6.45,0.154,9.674,0.299c4.378-1.156,8.83-0.985,13.326-0.966c0.369,0.002,0.635,0.152,0.818,0.365
	c6.463-0.915,12.902-1.857,19.395-0.946c0.326-0.253,0.561-0.546,0.656-0.892c0.098-0.35,0.305-0.578,0.555-0.704
	C117.475,93.562,116.893,93.073,115.98,93.094"/>
<path fill="#231F20" d="M32.572,73.296c-1.861,0.291-3.24,0.513-4.621,0.722c-2.627,0.398-5.067-0.729-5.374-2.718
	c-0.169-1.088,0.249-2.267,0.439-3.683c-0.517-0.16-1.259-0.253-1.849-0.602c-1.57-0.927-3.268-1.767-4.555-3.013
	c-1.569-1.519-1.636-3.515-0.527-5.461c0.392-0.69,0.784-1.38,1.295-2.279c-0.735-0.348-1.345-0.751-2.014-0.933
	c-2.345-0.644-3.562-2.354-4.259-4.492c-0.158-0.487,0.061-1.213,0.332-1.704c1.745-3.151,4.474-5.207,7.679-6.7
	c2.609-1.214,5.356-1.872,8.235-1.844c3.695,0.035,7.404-0.039,11.08,0.257c5.623,0.454,10.893,2.161,15.551,5.432
	c1.24,0.871,1.785,0.699,2.796-0.489c2.148-2.527,4.645-4.758,6.977-7.131c0.591-0.602,1.099-1.283,1.645-1.93
	c-0.107-0.132-0.214-0.262-0.32-0.393c-1.513,0-3.043,0.14-4.534-0.042c-1.381-0.169-2.786-0.532-4.06-1.087
	c-1.622-0.707-1.993-1.865-1.206-3.494c0.59-1.224,0.466-1.888-0.738-2.716c-2.329-1.604-2.113-6.444,0.231-8.62
	c2.355-2.187,5.356-2.798,8.358-3.06c2.746-0.237,5.551-0.161,8.301,0.091c4.742,0.433,9.557,1.012,13.49,3.982
	c2.48,1.874,4.7,4.146,6.797,6.456c1.898,2.091,3.455,4.491,5.202,6.722c0.331,0.425,0.812,0.769,1.288,1.032
	c3.105,1.726,6.422,2.801,9.984,2.983c6.345,0.324,12.692,0.6,19.039,0.91c0.797,0.039,1.592,0.17,2.39,0.239
	c1.231,0.109,1.95,0.4,1.964,2.008c0.018,2.136,0.73,4.257,0.867,6.401c0.324,5.097,0.498,10.204,0.711,15.309
	c0.158,3.821,0.271,7.646,0.43,11.469c0.018,0.413,0.074,1.022,0.338,1.196c0.588,2.074,0.588,2.074-0.255,2.904
	c-3.034,2.988-6.16,5.881-9.164,8.898c-2.432,2.442-4.756,4.997-7.094,7.533c-1.218,1.32-2.646,1.774-4.449,1.729
	c-7.958-0.198-15.919-0.303-23.879-0.386c-1.599-0.018-3.199,0.283-4.802,0.314c-3.444,0.067-6.891,0.026-10.334,0.084
	c-6.846,0.113-13.691,0.313-20.538,0.351c-1.174,0.006-2.509-0.377-3.477-1.021c-0.796-0.528-1.453-1.651-1.651-2.619
	c-0.431-2.104-0.485-4.284-0.775-6.424c-0.542-3.986-1.951-4.705-5.958-4.174c-2.553,0.339-5.289,0.113-7.821-0.428
	c-2.889-0.617-4.056-3.755-2.793-6.467C31.353,75.53,31.841,74.687,32.572,73.296 M63.81,56.723c1.39,1.584,2.459,2.754,3.473,3.969
	c2.048,2.453,3.857,5.153,6.156,7.338c2.396,2.278,5.238,4.096,7.917,6.069c2.226,1.64,4.43,3.322,6.77,4.785
	c1.711,1.069,2.027,1.471,1.166,3.245c-1.251,2.576-3.363,3.985-6.202,3.936c-3.937-0.067-7.89-0.166-11.795-0.598
	c-4.705-0.522-9.354-1.536-14.056-2.081c-2.362-0.275-4.79,0.017-7.189,0.051c-1.257,0.019-1.526,0.686-1.362,1.833
	c0.419,2.929,0.928,5.354,1.368,8.278c0.076,0.499,0.512,1.15,0.951,1.341c0.816,0.355,1.76,0.599,2.644,0.581
	c10.604-0.227,20.997,0.014,31.6-0.263c1.48-0.038,2.96-0.207,4.439-0.195c7.895,0.061,15.788,0.169,23.682,0.245
	c2.339,0.021,2.623-0.233,2.34-2.565c-0.363-3-0.942-5.974-1.305-8.974c-0.272-2.262-0.635-4.57-0.457-6.818
	c0.431-5.442,0.347-10.841-0.399-16.247c-0.218-1.579-0.822-2.469-2.533-2.555c-5.295-0.265-10.584-0.693-15.882-0.9
	c-8.877-0.348-17.771-0.269-26.652-0.505C67.085,56.655,65.692,56.57,63.81,56.723 M55.625,81.55
	C55.638,81.335,55.613,81.764,55.625,81.55c4.227,0.479,8.475,0.68,12.608,1.587c5.008,1.097,10.179,1.36,15.25,1.25
	c1.077-0.024,1.78-0.209,2.75-0.667c1.741-0.825,2.266-2.801,0.738-3.951c-1.869-1.405-3.945-2.533-5.831-3.917
	c-3.923-2.88-8.064-5.548-11.577-8.871c-3.106-2.938-5.484-6.645-8.175-10.021c-0.345-0.435-0.672-0.892-0.943-1.374
	c-2.095-3.749-5.457-6.182-8.942-8.425c-4.131-2.66-8.738-3.907-13.632-4.284c-5.237-0.405-10.465-1.064-15.676,0.166
	c-3.253,0.767-6.222,2.086-8.393,4.748c-1.585,1.942-1.273,3.385,0.929,4.644c0.426,0.244,0.894,0.432,1.364,0.575
	c3.686,1.128,7.431,1.837,11.305,1.366c2.994-0.364,5.977-0.817,8.972-1.164c0.388-0.045,1.08,0.216,1.168,0.485
	c0.114,0.35-0.111,1.062-0.415,1.243c-0.668,0.4-1.463,0.732-2.231,0.796c-4.544,0.383-9.094,0.719-13.647,0.983
	c-1.846,0.109-3.563,1.092-3.983,2.705c-0.436,1.667,0.395,2.994,1.728,3.766c1.347,0.781,2.879,1.522,4.391,1.672
	c2.121,0.211,4.307-0.047,6.448-0.272c2.756-0.293,5.488-0.812,8.245-1.094c0.562-0.058,1.188,0.506,1.784,0.781
	c-0.517,0.44-0.983,1.174-1.558,1.272c-3.526,0.604-7.082,1.033-10.615,1.599c-0.815,0.131-1.774,0.379-2.314,0.923
	c-0.52,0.524-0.894,1.569-0.744,2.259c0.113,0.514,1.139,1.113,1.798,1.166c1.651,0.128,3.33,0.027,4.989-0.094
	c3.14-0.229,6.272-0.566,9.414-0.778c0.437-0.029,0.906,0.4,1.361,0.619c-0.357,0.428-0.67,0.904-1.089,1.259
	c-0.195,0.166-0.599,0.146-0.899,0.117c-2.143-0.22-3.963,0.495-5.667,1.755c-1.299,0.96-1.985,2.118-1.937,3.76
	c0.047,1.609,1.102,2.406,2.393,2.672c1.977,0.411,4.014,0.671,6.031,0.711C45.889,81.616,50.758,81.55,55.625,81.55
	 M117.393,92.288c0.188,0.062,0.376,0.128,0.563,0.19c0.487-0.441,0.991-0.865,1.456-1.329c3.709-3.711,7.365-7.479,11.149-11.11
	c1.009-0.969,1.386-1.877,1.281-3.232c-0.254-3.319-0.403-6.646-0.546-9.973c-0.253-5.851-0.426-11.702-0.73-17.549
	c-0.08-1.533-0.521-3.048-0.828-4.737c-4.391,2.964-5.027,4.32-5.047,8.922c-0.007,1.694-0.494,3.393-0.845,5.074
	c-0.067,0.326-0.519,0.572-0.791,0.855c-0.214-0.328-0.601-0.65-0.608-0.983c-0.021-0.859,0.135-1.721,0.207-2.582
	c0.127-1.536,0.246-3.073,0.367-4.61c-0.193-0.064-0.387-0.131-0.58-0.197c-2.048,1.927-4.052,3.902-6.162,5.758
	c-0.961,0.845-1.138,1.699-1.014,2.931c0.346,3.432,0.605,6.879,0.717,10.326c0.133,4.188-0.082,8.394,0.153,12.576
	C116.316,85.853,116.957,89.064,117.393,92.288 M96.312,38.075c0.104-0.202,0.209-0.404,0.312-0.606
	c-3.124-3.788-6.104-7.708-9.408-11.331c-4.455-4.881-10.26-6.795-16.772-6.771c-3.062,0.012-6.138-0.131-9.183,0.111
	c-2.126,0.169-4.264,0.772-5.862,2.403c-1.416,1.445-1.088,5.077,0.587,5.435c2.011,0.433,4.12,0.521,6.189,0.538
	c1.714,0.016,3.43-0.359,5.148-0.397c0.478-0.012,0.969,0.562,1.454,0.869c-0.492,0.348-0.956,0.939-1.482,1.002
	c-2.25,0.264-4.519,0.354-6.779,0.539c-2.581,0.211-3.594,0.895-3.537,2.335c0.06,1.495,1.269,2.364,3.807,2.306
	c2.083-0.05,4.155-0.47,6.237-0.675c0.505-0.05,1.029,0.096,1.544,0.152c-0.068,0.524-0.004,1.114-0.229,1.56
	c-0.905,1.793-0.874,1.887,1.096,1.936c5.406,0.137,10.812,0.271,16.218,0.414c1.602,0.042,3.201,0.147,4.804,0.172
	C92.408,38.097,94.361,38.075,96.312,38.075 M122.449,48.883c-0.937-0.301-1.328-0.516-1.735-0.545
	c-5.354-0.392-10.708-0.855-16.071-1.091c-3.32-0.147-6.658,0.068-9.986,0.106c-5.723,0.065-11.443,0.173-17.164,0.158
	c-6.161-0.017-12.321-0.167-18.482-0.223c-0.682-0.008-1.365,0.213-2.047,0.328c0.296,0.613,0.496,1.305,0.907,1.829
	c1.326,1.696,2.68,3.38,4.134,4.966c0.459,0.5,1.268,0.954,1.921,0.959c9.75,0.084,19.503-0.052,29.249,0.162
	c6.166,0.135,12.318,0.782,18.48,1.139c0.883,0.05,2.039,0.048,2.635-0.449C116.98,53.981,119.517,51.553,122.449,48.883
	 M60.004,44.198c0,0-0.792,0.854-0.632,1.428c0.619,0.113,1.725-0.033,2.344-0.027c4.137,0.047,8.275,0.082,12.412,0.042
	c9.871-0.094,19.743-0.443,29.61-0.281c6.644,0.11,13.276,0.919,19.914,1.41c0.299,0.022,0.717,0.121,0.881-0.03
	c1.625-1.488,3.209-3.234,5.102-5.041c-6.198-0.378-11.787-0.835-17.381-1.125c-4.975-0.259-9.956-0.415-14.934-0.619
	c-3.818-0.155-7.635-0.374-11.453-0.458c-5.492-0.122-10.433-0.346-15.925-0.369c-1.641-0.008-3.559-0.334-4.859,0.38
	C63.215,40.531,61.628,42.73,60.004,44.198"/>
</svg>
