<?xml version="1.0" encoding="utf-8"?>
<!-- Generator: Adobe Illustrator 15.1.0, SVG Export Plug-In . SVG Version: 6.00 Build 0)  -->
<!DOCTYPE svg PUBLIC "-//W3C//DTD SVG 1.1//EN" "http://www.w3.org/Graphics/SVG/1.1/DTD/svg11.dtd">
<svg version="1.1" id="Layer_1" xmlns="http://www.w3.org/2000/svg" xmlns:xlink="http://www.w3.org/1999/xlink" x="0px" y="0px"
	 width="150px" height="114px" viewBox="0 0 150 114" enable-background="new 0 0 150 114" xml:space="preserve">
<g>
	<path fill="#231F20" d="M140.668,77.266c-0.077-3.642-0.183-7.278-0.392-10.918c-0.164-3.038-0.557-6.06-0.739-9.098
		c-0.132-2.091,0.062-4.205-0.122-6.277c-0.27-2.907-0.889-5.781-1.133-8.69c-0.285-3.517-0.365-7.059-0.479-10.595
		c-0.062-2.037-0.548-2.585-2.55-2.654c-1.934-0.071-3.856-0.236-5.79-0.28c-1.123-0.025-1.681-0.435-1.645-1.627
		c0.025-1.02-0.01-2.046-0.157-3.057c-0.174-1.278-0.662-1.445-1.768-0.816c-0.349,0.191-0.792,0.303-1.202,0.321
		c-5.04,0.139-10.09,0.227-15.14,0.391c-4.778,0.158-9.55,0.411-14.329,0.575c-2.83,0.097-5.65,0.07-8.48,0.167
		c-0.653,0.025-1.688,0.148-1.871,0.548c-0.461,0.966-0.696,2.124-0.705,3.212c0,2.256,0.26,4.501,0.305,6.757
		c0.025,1.498-0.253,3.003-0.209,4.51c0.27,9.123,0.565,18.256,0.905,27.389c0.122,3.213,0.393,6.425,0.557,9.646
		c0.062,1.174-0.018,2.359,0.069,3.533c0.036,0.54,0.175,1.177,0.505,1.559c2.056,2.324,4.25,4.527,6.243,6.905
		c0.8,0.949,1.697,1.28,2.795,1.252c5.031-0.113,10.054-0.33,15.087-0.392c5.956-0.068,11.91-0.017,17.865-0.017
		c0,0.122,0,0.244,0.009,0.365c3.482-0.209,6.964-0.383,10.438-0.636c1.401-0.103,2.001-0.923,1.967-2.403
		C140.625,83.715,140.729,80.485,140.668,77.266 M92.263,26.37c6.756-0.209,13.512-0.383,20.277-0.593
		c2.358-0.078,4.71-0.234,7.068-0.347c1.61-0.079,3.213-0.193,4.823-0.193c1.211-0.009,2.012,0.967,1.969,2.238
		c-0.036,1.368-1.072,1.323-1.978,1.279c-2.995-0.148-5.998-0.574-8.983-0.486c-3.63,0.113-7.252,0.723-10.884,0.966
		c-3.691,0.235-7.383,0.287-11.082,0.417c-1.298,0.043-2.56-0.983-3.613-3.039C90.705,26.526,91.48,26.395,92.263,26.37
		 M94.074,87.573c-1.011-1.123-1.759-1.969-2.508-2.813c-0.355-0.4-0.636-0.905-1.062-1.202c-2.542-1.791-2.854-4.465-2.994-7.242
		c-0.261-5.52-0.618-11.04-0.784-16.559c-0.278-9.604-0.435-19.196-0.652-28.8c-0.026-1.096-0.14-2.192-0.209-3.299
		c0.113-0.062,0.226-0.13,0.34-0.199c1.993,1.75,3.996,3.482,5.955,5.267c0.227,0.199,0.27,0.688,0.27,1.045
		c-0.027,7.034-0.218,14.077-0.061,21.112c0.121,5.249,0.739,10.491,1.062,15.74c0.322,5.198,0.548,10.402,0.818,15.602
		C94.257,86.484,94.179,86.746,94.074,87.573 M136.445,87.781c-4.083,0.095-8.156,0.252-12.24,0.297
		c-2.463,0.024-4.936-0.147-7.4-0.167c-6.181-0.061-12.362-0.086-18.535-0.095c-1.123,0-1.784-0.166-1.854-1.541
		c-0.384-6.705-0.871-13.398-1.306-20.094c-0.393-6.156-0.923-12.31-1.079-18.474c-0.114-4.605,0.27-9.219,0.426-13.834
		c0.026-0.741,0.009-1.489,0.009-2.707c2.604-0.167,5.04-0.35,7.487-0.463c3.849-0.19,7.696-0.417,11.545-0.47
		c3.15-0.043,6.311,0.147,9.463,0.236c2.036,0.05,4.064,0.104,6.103,0.138c1.819,0.034,3.648,0.034,5.468,0.06
		c1.123,0.009,1.671,0.401,1.75,1.715c0.435,7.558,1.122,15.106,1.471,22.67c0.453,10.091,0.688,20.19,0.992,30.279
		C138.814,87.624,138.657,87.729,136.445,87.781"/>
	<path fill="#00ADDD" d="M94.248,86.223c0.009,0.262-0.069,0.523-0.174,1.351c-1.011-1.123-1.759-1.969-2.508-2.813
		c-0.355-0.4-0.636-0.905-1.062-1.202c-2.542-1.791-2.854-4.465-2.994-7.242c-0.261-5.52-0.618-11.04-0.784-16.559
		c-0.278-9.604-0.435-19.196-0.652-28.799c-0.026-1.097-0.14-2.194-0.209-3.3c0.113-0.062,0.226-0.13,0.34-0.2
		c1.993,1.751,3.996,3.482,5.955,5.268c0.227,0.199,0.27,0.688,0.27,1.044c-0.027,7.035-0.218,14.078-0.061,21.113
		c0.121,5.249,0.739,10.491,1.062,15.74C93.752,75.82,93.978,81.024,94.248,86.223"/>
	<path fill="#231F20" d="M68.348,87.06c-0.018-7.532,0.035-15.071-0.069-22.601c-0.096-7.026-0.392-14.053-0.54-21.088
		c-0.079-3.429-0.008-6.86-0.035-10.289c-0.017-2.161-0.661-2.77-2.837-2.69c-1.236,0.043-2.464,0.27-3.692,0.286
		c-3.186,0.045-3.186,0.01-3.866-3.063c-0.478-2.185-0.801-2.473-3.038-2.387c-5.31,0.21-10.63,0.47-15.94,0.688
		c-1.872,0.069-3.752,0.035-5.624,0.147c-5.354,0.323-10.7,0.707-16.054,1.038c-0.635,0.035-1.288-0.097-1.923-0.183
		c-1.298-0.183-2.604-0.392-4.17-0.628c0,1.149-0.026,1.733,0.008,2.316c0.201,3.536,0.488,7.069,0.61,10.605
		c0.061,1.871-0.174,3.751-0.227,5.633c-0.053,1.985-0.035,3.969-0.087,5.954c-0.122,5.208-0.418,10.421-0.348,15.628
		c0.079,5.911,0.565,11.814,0.706,17.727c0.035,1.757,0.713,2.783,2.098,3.646c1.498,0.932,3.083,1.819,4.336,3.03
		c1.306,1.271,2.655,1.357,4.266,1.132c1.863-0.262,3.735-0.497,5.606-0.524c4.833-0.086,9.664-0.034,14.496-0.086
		c5.102-0.052,10.212-0.166,15.314-0.234c2.472-0.034,4.954,0.024,7.425-0.053c0.428-0.009,0.836-0.452,1.254-0.696
		c-0.4-0.271-0.774-0.626-1.21-0.773c-0.392-0.132-0.854-0.045-1.288-0.045c-5.05,0.045-10.108,0.104-15.157,0.146
		c-6.181,0.046-12.371,0.026-18.553,0.132c-2.028,0.026-4.057,0.339-6.077,0.54c-0.888,0.097-1.759,0.233-2.864,0.382
		c0-1.602,0.026-2.986,0-4.378c-0.14-7.252-0.322-14.504-0.427-21.765c-0.043-3.108,0.061-6.226,0.079-9.343
		c0.035-6.599,0.035-13.198,0.122-19.788c0-0.41,0.566-1.088,0.958-1.158c2.324-0.444,4.667-0.914,7.017-1.053
		c6.277-0.376,12.563-0.645,18.849-0.846c5.641-0.183,11.283-0.183,16.924-0.366c1.437-0.043,2.115,0.331,2.107,1.838
		c-0.035,5.207-0.035,10.42-0.035,15.628c0,3.77-0.009,7.54,0.043,11.298c0.131,8.915,0.296,17.84,0.471,26.756
		c0.008,0.442,0.287,0.887,0.444,1.332c0.296-0.4,0.609-0.784,0.861-1.212C68.374,87.529,68.348,87.277,68.348,87.06 M19.229,89.139
		c-0.156,0.07-0.305,0.132-0.462,0.191c-1.662-1.166-3.369-2.263-4.954-3.525c-0.496-0.408-0.879-1.244-0.923-1.905
		c-0.365-5.782-0.844-11.57-0.896-17.369c-0.062-5.841,0.331-11.693,0.522-17.543c0.026-0.801,0.053-1.609,0.079-2.41
		c0.104-4.189,0.252-8.368,0.278-12.546c0.017-1.69-0.253-3.377-0.409-5.232c3.465,2.115,5.903,4.848,5.912,8.374
		c0.043,13.757,0.226,27.512,0.409,41.267c0.026,2.422,0.313,4.822,0.435,7.244C19.272,86.832,19.229,87.989,19.229,89.139
		 M55.864,30.208c-0.114,0.367-0.984,0.698-1.516,0.723c-4.623,0.201-9.246,0.271-13.859,0.488
		c-5.146,0.244-10.291,0.6-15.436,0.905c-0.54,0.036-1.071,0.07-1.611,0.079c-1.271,0.026-2.464,0.096-3.239-1.368
		c-0.409-0.774-1.401-1.252-2.133-1.862l0.157-0.444c3.203,0,6.416,0.06,9.62-0.026c1.541-0.043,3.073-0.506,4.614-0.583
		c6.965-0.35,13.93-0.627,20.895-0.914C55.158,27.127,56.377,28.52,55.864,30.208"/>
	<path fill="#00ADDD" d="M19.228,89.139c-0.156,0.069-0.304,0.131-0.461,0.192c-1.663-1.166-3.369-2.265-4.954-3.526
		c-0.496-0.409-0.879-1.245-0.923-1.906c-0.365-5.78-0.845-11.57-0.896-17.369c-0.062-5.841,0.331-11.691,0.522-17.542
		c0.026-0.801,0.052-1.611,0.079-2.413c0.104-4.187,0.252-8.366,0.278-12.545c0.017-1.688-0.253-3.378-0.409-5.232
		c3.465,2.115,5.903,4.85,5.912,8.375c0.043,13.755,0.226,27.51,0.409,41.267c0.025,2.42,0.313,4.821,0.435,7.242
		C19.272,86.832,19.228,87.99,19.228,89.139"/>
	<path fill="#231F20" d="M57.07,61.489c1.17,0.376,1.423,1.124,1.373,2.133c-0.287,5.878-4.721,10.934-10.606,11.649
		c-3.121,0.382-6.31,0.234-9.467,0.282c-0.524,0.008-1.097-0.103-1.571-0.32c-5.381-2.473-10.361-7.787-9.983-14.543
		c0.256-4.572,2.179-8.622,5.24-12.206c2.707-3.171,6.186-4.651,10.017-5.289c3.316-0.55,6.29,0.896,9.026,2.784
		c2.64,1.82,4.475,4.309,6.103,6.984c0.336,0.554,0.438,1.249,0.707,2.05h-2.171c-0.283-0.646-0.635-1.311-0.875-2.014
		c-1.935-5.647-6.655-7.614-11.833-7.757c-3.431-0.095-6.934,1.26-9.526,4.232c-2.563,2.938-4.262,6.229-4.928,9.973
		c-0.708,3.976,0.121,7.574,3.097,10.68c3.756,3.916,8.217,4.96,13.372,4.249c6.87-0.948,10.951-4.988,11.868-11.872
		C56.953,62.204,57.005,61.905,57.07,61.489"/>
	<path fill="#231F20" d="M51.467,68.604c-0.126-4.178-0.253-8.355-0.382-12.604c-2.829,0.957-6.64,4.105-6.277,7.021
		c0.205,1.639,0.038,3.329-0.032,4.994c-0.028,0.696-0.238,1.384-0.366,2.075c-0.178,0.012-0.356,0.021-0.532,0.033
		c-0.194-0.439-0.51-0.862-0.561-1.318c-0.278-2.505-0.608-5.017-0.682-7.534c-0.042-1.424-0.486-2.337-1.764-2.914
		c-1.79-0.807-3.56-1.656-5.603-2.609c-0.133,1.897-0.29,3.633-0.367,5.372c-0.066,1.505,0.01,3.016-0.084,4.517
		c-0.038,0.589-0.369,1.16-0.567,1.739c-0.249-0.052-0.498-0.103-0.746-0.154c0.18-4.448,0.36-8.896,0.557-13.787
		c1.652,0.601,2.957,0.903,4.085,1.525c1.733,0.957,3.299,2.218,5.04,3.158c0.567,0.309,1.643,0.301,2.167-0.048
		c1.605-1.063,3.024-2.403,4.582-3.546c0.513-0.375,1.505-0.835,1.791-0.618c0.49,0.373,0.791,1.239,0.826,1.917
		c0.178,3.373,0.268,6.753,0.332,10.131C52.904,66.952,53.023,68.071,51.467,68.604"/>
	<path fill="#231F20" d="M71.177,58.1c0.641-0.101,1.284-0.292,1.924-0.286c1.334,0.01,1.859-0.562,1.664-1.885
		c-0.092-0.63-0.207-1.327-0.022-1.899c0.136-0.421,0.705-0.857,1.154-0.957c0.231-0.051,0.806,0.579,0.901,0.979
		c0.244,1.011-0.053,2.501,0.535,2.984c0.628,0.518,2.025,0.08,3.086,0.107c0.449,0.013,0.896,0.15,1.344,0.232
		c0.039,0.138,0.076,0.276,0.115,0.416c-0.387,0.227-0.751,0.556-1.17,0.658c-0.616,0.153-1.275,0.145-1.914,0.207
		c-1.199,0.118-1.952,0.57-1.539,1.97c0.228,0.771,0.07,1.443-0.835,1.589c-0.959,0.153-1.202-0.556-1.237-1.301
		c-0.059-1.178-0.654-1.521-1.779-1.518c-0.764,0.002-1.529-0.337-2.295-0.522C71.131,58.616,71.154,58.357,71.177,58.1"/>
	<path fill="#231F20" d="M41.262,53.967c-0.798,0.288-0.933-0.196-0.938-0.814c-0.006-0.859,0.071-1.723-0.02-2.571
		c-0.137-1.258,0.391-1.854,1.594-2.136c2-0.469,2.574-0.069,2.47,1.903c0.122-0.058,0.243-0.113,0.365-0.17
		c0.395,0.828,1.221,1.734,1.088,2.466c-0.217,1.195-1.166,2.183-2.597,2.228c-0.778,0.024-1.824,0.442-1.982-0.927
		c0.936-0.099,1.887-0.131,2.8-0.336c0.265-0.061,0.55-0.609,0.572-0.952c0.012-0.185-0.485-0.516-0.797-0.589
		C42.38,51.728,41.457,52.438,41.262,53.967 M43.68,49.726c-2.293-0.421-2.507-0.226-1.998,1.519
		C42.286,50.786,42.824,50.376,43.68,49.726"/>
	<path fill="#231F20" d="M41.694,64.905c-0.646,1.003-1,1.88-1.633,2.434c-0.528,0.463-1.472,0.859-2.074,0.696
		c-0.461-0.124-0.901-1.146-0.952-1.801c-0.089-1.145-0.061-2.371,0.267-3.46c0.419-1.394,1.314-1.661,2.402-0.702
		C40.514,62.786,40.995,63.875,41.694,64.905 M37.558,64.751c0.531,0.816,0.916,1.407,1.301,1.999
		c0.441-0.594,1.23-1.184,1.234-1.778c0.004-0.689-0.682-1.384-1.068-2.074C38.583,63.454,38.143,64.011,37.558,64.751"/>
	<path fill="#231F20" d="M47.906,67.646c-0.139-0.817-0.176-1.673-0.444-2.445c-0.278-0.799-0.707-1.575-1.208-2.259
		c-0.418-0.573-0.533-1.008,0.212-1.19c0.947-0.231,1.936-0.294,3.124-0.462c-0.144,0.565-0.125,0.913-0.276,1.021
		c-1.153,0.817-0.886,1.902-0.712,3.033c0.115,0.752,0.022,1.532,0.022,2.301C48.384,67.646,48.146,67.646,47.906,67.646"/>
	<path fill="#231F20" d="M102.514,64.835c-0.188-0.505-0.495-1.001-0.538-1.516c-0.085-1.052-0.509-1.557-1.613-1.521
		c-0.964,0.03-1.777-0.264-1.962-1.672c0.638,0,1.191,0.121,1.651-0.032c0.567-0.188,1.395-0.517,1.512-0.946
		c0.238-0.872,0.383-1.96-0.888-2.415c-0.501-0.179-0.987-0.423-1.438-0.704c-1.548-0.964-1.831-2.471-0.767-3.969
		c0.217-0.305,0.443-0.608,0.704-0.875c1.703-1.726,1.706-1.723,1.776-3.922c0.334,0.388,0.604,0.603,0.741,0.881
		c0.335,0.67,0.494,1.452,0.927,2.04c0.628,0.851,1.495,1.314,0.284,2.608c-0.637,0.68-0.372,2.338,0.748,3.307
		c2.116,1.829,2.159,2.979,0.508,5.176c-0.446,0.595-0.613,1.41-0.849,2.146c-0.137,0.424-0.156,0.887-0.229,1.333
		C102.892,64.78,102.703,64.809,102.514,64.835 M101.306,51.939c-1.078,0.733-2.244,1.119-1.907,2.434
		c0.092,0.356,1.243,0.85,1.534,0.671C102.069,54.346,101.58,53.248,101.306,51.939 M103.106,58.664
		c0.138,0.017,0.273,0.032,0.41,0.05v-0.941c-0.115-0.001-0.229-0.002-0.343-0.002C103.152,58.067,103.129,58.365,103.106,58.664"/>
	<path fill="#231F20" d="M129.78,62.053c-0.212-0.874-0.507-1.738-0.614-2.623c-0.133-1.113-0.101-2.244-0.166-3.367
		c-0.042-0.714-0.229-1.2-1.172-1.094c-1.429,0.158-2.365-0.668-2.623-2.126c-0.289-1.626,0.496-3.012,1.937-3.415
		c1.51-0.425,2.966,0.183,3.452,1.536c0.229,0.642,0.359,1.362,0.351,2.042c-0.035,2.719-0.134,5.436-0.238,8.15
		c-0.012,0.28-0.213,0.555-0.326,0.829C130.179,62.009,129.98,62.029,129.78,62.053 M128.35,50.826
		c-0.183-0.042-0.365-0.083-0.548-0.125c-0.418,0.582-0.913,1.128-1.198,1.769c-0.081,0.179,0.454,0.632,0.707,0.958
		c0.494-0.442,1.099-0.816,1.433-1.359C128.893,51.827,128.498,51.25,128.35,50.826"/>
	<path fill="#231F20" d="M110.645,55.57c-1.102,0.278-1.994,0.717-2.857,0.668c-1.1-0.062-1.86-0.901-2.017-2.015
		c-0.195-1.39,0.291-2.72,1.554-3.269c0.927-0.402,2.24-0.479,3.167-0.13c0.742,0.278,1.528,1.355,1.653,2.177
		c0.346,2.274,0.361,4.6,0.487,6.905c0.008,0.179-0.145,0.364-0.293,0.708C110.466,59.235,111.342,57.048,110.645,55.57
		 M110.168,51.896c-0.117-0.161-0.233-0.323-0.351-0.486c-0.915,0.546-1.879,1.026-2.708,1.68c-0.232,0.181-0.149,0.903-0.022,1.322
		c0.05,0.164,0.75,0.354,0.92,0.225C108.957,53.916,110.124,53.315,110.168,51.896"/>
	<path fill="#231F20" d="M120.554,49.751c-0.947,0.812-1.888,1.501-2.657,2.344c-0.26,0.286-0.08,0.969-0.102,1.469
		c0.485-0.009,1.107,0.17,1.426-0.064c0.661-0.484,1.146-1.202,1.734-1.795c0.304-0.305,0.84-0.842,0.982-0.76
		c0.401,0.228,0.879,0.693,0.928,1.109c0.285,2.5,0.477,5.011,0.645,7.52c0.02,0.301-0.29,0.622-0.446,0.935
		c-0.302-0.176-0.785-0.289-0.869-0.536c-0.23-0.694-0.338-1.438-0.418-2.171c-0.127-1.175-0.193-2.359-0.316-3.932
		c-0.881,0.632-1.379,0.927-1.8,1.306c-0.812,0.73-1.581,0.551-2.302-0.074c-1.084-0.944-1.299-2.671-0.545-3.989
		C117.673,49.609,118.86,49.182,120.554,49.751"/>
	<path fill="#231F20" d="M115.716,60.928c-0.337,0.129-0.708,0.414-1.002,0.349c-0.331-0.073-0.593-0.459-0.886-0.707
		c0.265-0.257,0.492-0.64,0.803-0.725c0.193-0.055,0.511,0.34,0.772,0.533C115.508,60.562,115.611,60.744,115.716,60.928"/>
</g>
<path fill="#231F20" d="M348.663,4645.066c-0.09-4.182-0.21-8.36-0.45-12.54c-0.189-3.49-0.64-6.96-0.85-10.45
	c-0.15-2.401,0.07-4.83-0.141-7.21c-0.31-3.34-1.02-6.641-1.3-9.981c-0.329-4.04-0.42-8.108-0.55-12.17
	c-0.07-2.34-0.63-2.969-2.93-3.049c-2.221-0.08-4.43-0.271-6.65-0.321c-1.29-0.028-1.93-0.5-1.89-1.869
	c0.03-1.171-0.011-2.351-0.181-3.511c-0.199-1.469-0.76-1.66-2.029-0.938c-0.4,0.22-0.91,0.349-1.381,0.369
	c-5.789,0.159-11.59,0.261-17.39,0.449c-5.489,0.182-10.97,0.472-16.46,0.66c-3.25,0.111-6.49,0.081-9.74,0.191
	c-0.75,0.029-1.939,0.17-2.149,0.63c-0.53,1.109-0.8,2.438-0.81,3.688c0,2.592,0.299,5.171,0.35,7.762
	c0.029,1.72-0.29,3.449-0.24,5.18c0.311,10.479,0.65,20.969,1.04,31.46c0.14,3.69,0.45,7.379,0.64,11.08
	c0.07,1.349-0.02,2.71,0.08,4.059c0.04,0.62,0.2,1.352,0.58,1.79c2.36,2.67,4.881,5.2,7.17,7.932c0.92,1.09,1.95,1.47,3.211,1.438
	c5.779-0.129,11.549-0.379,17.329-0.45c6.841-0.079,13.681-0.019,20.521-0.019c0,0.139,0,0.28,0.01,0.42c4-0.241,8-0.44,11.99-0.73
	c1.609-0.119,2.3-1.061,2.26-2.761C348.613,4652.476,348.732,4648.765,348.663,4645.066 M293.062,4586.606
	c7.761-0.24,15.521-0.44,23.291-0.682c2.709-0.089,5.41-0.269,8.119-0.398c1.851-0.091,3.69-0.222,5.541-0.222
	c1.39-0.01,2.31,1.111,2.26,2.57c-0.041,1.571-1.23,1.521-2.271,1.47c-3.44-0.17-6.89-0.659-10.319-0.559
	c-4.17,0.13-8.33,0.83-12.5,1.109c-4.24,0.271-8.48,0.33-12.73,0.479c-1.49,0.05-2.939-1.129-4.15-3.49
	C291.273,4586.786,292.163,4586.635,293.062,4586.606 M295.143,4656.906c-1.16-1.29-2.02-2.261-2.879-3.231
	c-0.41-0.46-0.73-1.04-1.221-1.38c-2.92-2.059-3.279-5.129-3.439-8.319c-0.301-6.341-0.711-12.681-0.9-19.02
	c-0.32-11.031-0.5-22.05-0.75-33.081c-0.03-1.259-0.16-2.519-0.24-3.789c0.131-0.071,0.26-0.15,0.391-0.229
	c2.289,2.01,4.59,4,6.84,6.05c0.26,0.229,0.31,0.79,0.31,1.2c-0.03,8.079-0.25,16.17-0.069,24.25c0.14,6.028,0.85,12.05,1.22,18.079
	c0.37,5.971,0.63,11.949,0.94,17.921C295.354,4655.656,295.264,4655.956,295.143,4656.906 M343.812,4657.146
	c-4.689,0.109-9.369,0.29-14.06,0.341c-2.83,0.028-5.67-0.17-8.5-0.191c-7.1-0.069-14.2-0.099-21.29-0.109
	c-1.29,0-2.05-0.189-2.13-1.77c-0.44-7.701-1-15.39-1.5-23.08c-0.45-7.071-1.06-14.14-1.239-21.22
	c-0.131-5.29,0.31-10.59,0.489-15.891c0.03-0.851,0.011-1.711,0.011-3.109c2.989-0.191,5.789-0.401,8.6-0.53
	c4.42-0.22,8.84-0.479,13.26-0.541c3.62-0.049,7.25,0.17,10.87,0.271c2.34,0.059,4.67,0.119,7.01,0.159
	c2.09,0.039,4.19,0.039,6.28,0.069c1.29,0.01,1.92,0.46,2.01,1.97c0.5,8.682,1.29,17.352,1.689,26.04
	c0.521,11.591,0.791,23.191,1.141,34.781C346.533,4656.965,346.354,4657.086,343.812,4657.146"/>
<path fill="#00ADDD" d="M295.344,4655.355c0.01,0.301-0.08,0.601-0.201,1.551c-1.16-1.29-2.02-2.261-2.879-3.231
	c-0.41-0.46-0.73-1.04-1.221-1.38c-2.92-2.059-3.279-5.129-3.439-8.319c-0.301-6.341-0.711-12.681-0.9-19.02
	c-0.32-11.031-0.5-22.05-0.75-33.08c-0.03-1.26-0.16-2.521-0.24-3.79c0.131-0.071,0.26-0.15,0.391-0.23
	c2.289,2.011,4.59,4,6.84,6.051c0.26,0.229,0.31,0.79,0.31,1.199c-0.03,8.08-0.25,16.171-0.069,24.25
	c0.14,6.029,0.85,12.051,1.22,18.08C294.773,4643.406,295.033,4649.385,295.344,4655.355"/>
<path fill="#231F20" d="M265.594,4656.316c-0.021-8.651,0.039-17.312-0.08-25.96c-0.11-8.07-0.451-16.142-0.621-24.222
	c-0.09-3.938-0.01-7.88-0.039-11.818c-0.021-2.48-0.76-3.182-3.26-3.09c-1.42,0.05-2.83,0.31-4.24,0.328
	c-3.66,0.052-3.66,0.012-4.44-3.519c-0.55-2.51-0.92-2.84-3.489-2.741c-6.101,0.241-12.211,0.541-18.311,0.791
	c-2.15,0.079-4.311,0.039-6.46,0.169c-6.149,0.37-12.29,0.812-18.44,1.191c-0.729,0.04-1.479-0.11-2.209-0.21
	c-1.49-0.21-2.99-0.45-4.791-0.722c0,1.321-0.029,1.99,0.01,2.66c0.23,4.062,0.561,8.12,0.701,12.182
	c0.069,2.148-0.201,4.309-0.261,6.47c-0.06,2.28-0.04,4.559-0.101,6.839c-0.139,5.981-0.479,11.97-0.399,17.951
	c0.091,6.79,0.649,13.57,0.81,20.36c0.041,2.019,0.82,3.198,2.41,4.188c1.721,1.071,3.541,2.09,4.98,3.481
	c1.5,1.46,3.05,1.559,4.9,1.3c2.14-0.3,4.289-0.571,6.439-0.602c5.551-0.1,11.1-0.04,16.65-0.1c5.859-0.059,11.729-0.19,17.59-0.269
	c2.84-0.04,5.689,0.028,8.529-0.062c0.49-0.009,0.961-0.519,1.44-0.799c-0.46-0.312-0.89-0.72-1.39-0.89
	c-0.45-0.15-0.98-0.052-1.48-0.052c-5.8,0.052-11.609,0.12-17.41,0.17c-7.1,0.052-14.209,0.03-21.31,0.15
	c-2.33,0.031-4.66,0.39-6.979,0.621c-1.021,0.11-2.021,0.269-3.291,0.438c0-1.84,0.03-3.43,0-5.028c-0.16-8.33-0.369-16.66-0.49-25
	c-0.049-3.571,0.07-7.151,0.091-10.731c0.04-7.58,0.04-15.16,0.14-22.729c0-0.472,0.65-1.25,1.1-1.33
	c2.67-0.51,5.361-1.05,8.061-1.21c7.21-0.432,14.43-0.74,21.65-0.972c6.479-0.21,12.959-0.21,19.439-0.42
	c1.65-0.049,2.43,0.38,2.42,2.11c-0.039,5.981-0.039,11.97-0.039,17.951c0,4.33-0.011,8.66,0.049,12.979
	c0.15,10.24,0.34,20.49,0.541,30.731c0.01,0.509,0.33,1.019,0.51,1.53c0.34-0.46,0.699-0.9,0.99-1.392
	C265.623,4656.856,265.594,4656.566,265.594,4656.316 M209.174,4658.705c-0.181,0.081-0.351,0.151-0.531,0.22
	c-1.909-1.339-3.869-2.599-5.689-4.05c-0.57-0.469-1.01-1.429-1.061-2.188c-0.42-6.642-0.969-13.29-1.029-19.95
	c-0.07-6.71,0.38-13.432,0.6-20.15c0.03-0.921,0.061-1.85,0.09-2.77c0.121-4.812,0.291-9.611,0.32-14.41
	c0.02-1.941-0.29-3.88-0.47-6.01c3.979,2.43,6.78,5.568,6.79,9.618c0.05,15.802,0.26,31.602,0.47,47.4
	c0.03,2.781,0.36,5.54,0.5,8.321C209.223,4656.055,209.174,4657.385,209.174,4658.705 M251.254,4591.015
	c-0.131,0.422-1.131,0.802-1.74,0.83c-5.311,0.231-10.621,0.312-15.92,0.562c-5.91,0.28-11.82,0.688-17.73,1.04
	c-0.62,0.04-1.23,0.08-1.85,0.09c-1.461,0.03-2.83,0.11-3.721-1.571c-0.47-0.889-1.609-1.438-2.449-2.139l0.18-0.51
	c3.68,0,7.369,0.068,11.05-0.03c1.771-0.05,3.53-0.581,5.3-0.67c8-0.401,16-0.72,24-1.05
	C250.443,4587.477,251.844,4589.076,251.254,4591.015"/>
<path fill="#00ADDD" d="M209.173,4658.705c-0.18,0.08-0.35,0.15-0.53,0.221c-1.91-1.34-3.869-2.601-5.689-4.049
	c-0.57-0.472-1.01-1.432-1.061-2.191c-0.42-6.64-0.97-13.29-1.029-19.95c-0.07-6.71,0.38-13.43,0.6-20.149
	c0.03-0.92,0.061-1.851,0.09-2.771c0.12-4.81,0.291-9.61,0.32-14.41c0.02-1.939-0.29-3.88-0.47-6.01c3.979,2.43,6.78,5.57,6.79,9.62
	c0.05,15.8,0.26,31.6,0.47,47.4c0.03,2.779,0.36,5.539,0.5,8.319C209.223,4656.056,209.173,4657.386,209.173,4658.705"/>
<path fill="#231F20" d="M252.639,4626.946c1.344,0.431,1.635,1.291,1.577,2.449c-0.329,6.752-5.423,12.559-12.183,13.382
	c-3.585,0.438-7.247,0.268-10.874,0.323c-0.603,0.009-1.259-0.117-1.804-0.368c-6.181-2.84-11.901-8.944-11.467-16.705
	c0.293-5.252,2.502-9.901,6.018-14.019c3.109-3.643,7.105-5.343,11.506-6.075c3.809-0.632,7.225,1.028,10.367,3.197
	c3.033,2.091,5.142,4.95,7.011,8.022c0.386,0.637,0.504,1.435,0.812,2.354h-2.492c-0.326-0.742-0.729-1.504-1.006-2.312
	c-2.222-6.487-7.644-8.746-13.592-8.91c-3.941-0.109-7.964,1.447-10.941,4.861c-2.945,3.376-4.896,7.156-5.661,11.455
	c-0.813,4.566,0.139,8.7,3.558,12.267c4.314,4.498,9.438,5.698,15.359,4.881c7.892-1.09,12.578-5.729,13.632-13.636
	C252.504,4627.767,252.564,4627.423,252.639,4626.946"/>
<path fill="#231F20" d="M246.203,4635.117c-0.145-4.799-0.291-9.597-0.438-14.478c-3.249,1.099-7.627,4.715-7.21,8.063
	c0.234,1.883,0.044,3.824-0.036,5.737c-0.032,0.799-0.274,1.589-0.421,2.383c-0.204,0.014-0.408,0.025-0.611,0.038
	c-0.223-0.504-0.586-0.99-0.644-1.514c-0.32-2.878-0.698-5.762-0.783-8.653c-0.048-1.637-0.558-2.686-2.026-3.348
	c-2.055-0.927-4.088-1.902-6.435-2.998c-0.153,2.18-0.333,4.174-0.422,6.171c-0.076,1.729,0.012,3.463-0.097,5.188
	c-0.043,0.677-0.424,1.332-0.652,1.997c-0.286-0.06-0.572-0.118-0.857-0.178c0.207-5.108,0.414-10.218,0.641-15.836
	c1.896,0.69,3.396,1.038,4.693,1.753c1.99,1.098,3.789,2.547,5.787,3.628c0.652,0.354,1.887,0.344,2.489-0.056
	c1.843-1.222,3.474-2.761,5.263-4.073c0.59-0.431,1.729-0.96,2.059-0.71c0.562,0.429,0.906,1.424,0.947,2.202
	c0.205,3.875,0.308,7.757,0.383,11.637C247.854,4633.221,247.99,4634.506,246.203,4635.117"/>
<path fill="#231F20" d="M268.842,4623.052c0.737-0.115,1.475-0.335,2.211-0.328c1.532,0.012,2.135-0.646,1.911-2.165
	c-0.106-0.723-0.237-1.523-0.026-2.182c0.156-0.483,0.811-0.985,1.326-1.099c0.266-0.059,0.926,0.664,1.036,1.123
	c0.28,1.161-0.062,2.873,0.614,3.429c0.722,0.595,2.326,0.091,3.545,0.123c0.516,0.014,1.029,0.173,1.543,0.268
	c0.044,0.157,0.088,0.316,0.133,0.477c-0.445,0.261-0.863,0.639-1.344,0.757c-0.709,0.176-1.465,0.165-2.199,0.238
	c-1.378,0.135-2.242,0.654-1.768,2.262c0.261,0.885,0.08,1.658-0.959,1.825c-1.102,0.176-1.381-0.639-1.422-1.494
	c-0.066-1.353-0.752-1.747-2.043-1.743c-0.879,0.003-1.758-0.387-2.637-0.601C268.79,4623.646,268.816,4623.349,268.842,4623.052"/>
<path fill="#231F20" d="M234.482,4618.305c-0.918,0.331-1.072-0.225-1.078-0.936c-0.008-0.985,0.082-1.979-0.023-2.952
	c-0.157-1.445,0.449-2.13,1.831-2.454c2.297-0.538,2.957-0.079,2.837,2.186c0.141-0.066,0.279-0.13,0.419-0.195
	c0.454,0.951,1.401,1.992,1.25,2.832c-0.249,1.373-1.339,2.509-2.983,2.561c-0.894,0.028-2.095,0.508-2.276-1.065
	c1.075-0.113,2.168-0.149,3.216-0.386c0.305-0.068,0.632-0.7,0.656-1.094c0.015-0.212-0.557-0.592-0.915-0.677
	C235.766,4615.733,234.705,4616.55,234.482,4618.305 M237.259,4613.434c-2.634-0.483-2.879-0.26-2.294,1.744
	C235.658,4614.651,236.275,4614.181,237.259,4613.434"/>
<path fill="#231F20" d="M234.978,4630.869c-0.743,1.152-1.147,2.16-1.876,2.796c-0.607,0.531-1.691,0.987-2.382,0.8
	c-0.53-0.143-1.035-1.317-1.093-2.068c-0.102-1.315-0.07-2.725,0.306-3.975c0.481-1.601,1.509-1.907,2.759-0.807
	C233.623,4628.435,234.175,4629.687,234.978,4630.869 M230.227,4630.692c0.61,0.938,1.053,1.616,1.494,2.296
	c0.507-0.682,1.413-1.359,1.418-2.043c0.005-0.791-0.783-1.589-1.227-2.383C231.404,4629.203,230.898,4629.843,230.227,4630.692"/>
<path fill="#231F20" d="M242.113,4634.018c-0.16-0.938-0.202-1.92-0.511-2.808c-0.319-0.919-0.812-1.81-1.388-2.596
	c-0.479-0.657-0.611-1.157,0.244-1.367c1.088-0.266,2.225-0.338,3.588-0.53c-0.164,0.65-0.143,1.049-0.316,1.172
	c-1.325,0.939-1.018,2.186-0.818,3.484c0.133,0.863,0.025,1.761,0.025,2.643C242.662,4634.017,242.389,4634.017,242.113,4634.018"/>
<path fill="#231F20" d="M304.837,4630.788c-0.216-0.579-0.569-1.148-0.618-1.74c-0.098-1.208-0.584-1.787-1.853-1.746
	c-1.106,0.035-2.042-0.303-2.254-1.921c0.733,0,1.368,0.14,1.897-0.036c0.651-0.218,1.602-0.594,1.736-1.088
	c0.273-1.001,0.439-2.251-1.02-2.774c-0.576-0.205-1.135-0.485-1.652-0.809c-1.777-1.107-2.104-2.838-0.881-4.559
	c0.248-0.351,0.509-0.699,0.81-1.005c1.955-1.982,1.959-1.979,2.04-4.505c0.383,0.446,0.693,0.692,0.852,1.013
	c0.384,0.77,0.567,1.668,1.064,2.343c0.721,0.978,1.717,1.509,0.326,2.996c-0.732,0.781-0.428,2.685,0.859,3.798
	c2.431,2.102,2.479,3.423,0.582,5.945c-0.512,0.684-0.703,1.62-0.974,2.464c-0.157,0.487-0.18,1.02-0.263,1.531
	C305.271,4630.727,305.055,4630.758,304.837,4630.788 M303.449,4615.977c-1.238,0.842-2.577,1.285-2.189,2.796
	c0.105,0.408,1.428,0.976,1.762,0.77C304.327,4618.74,303.766,4617.479,303.449,4615.977 M305.518,4623.7
	c0.158,0.02,0.314,0.038,0.472,0.058v-1.081c-0.132-0.001-0.263-0.002-0.394-0.003C305.57,4623.016,305.544,4623.358,305.518,4623.7
	"/>
<path fill="#231F20" d="M336.156,4627.593c-0.242-1.003-0.582-1.996-0.705-3.013c-0.153-1.278-0.115-2.578-0.19-3.867
	c-0.048-0.82-0.263-1.379-1.347-1.258c-1.642,0.183-2.717-0.767-3.014-2.44c-0.332-1.868,0.57-3.46,2.225-3.923
	c1.734-0.488,3.408,0.21,3.966,1.765c0.264,0.738,0.413,1.564,0.403,2.347c-0.041,3.122-0.154,6.242-0.274,9.362
	c-0.013,0.321-0.244,0.636-0.374,0.951C336.615,4627.543,336.386,4627.566,336.156,4627.593 M334.514,4614.697
	c-0.21-0.048-0.42-0.096-0.63-0.144c-0.479,0.668-1.048,1.296-1.377,2.032c-0.093,0.204,0.522,0.725,0.813,1.101
	c0.567-0.508,1.262-0.938,1.645-1.561C335.137,4615.848,334.684,4615.186,334.514,4614.697"/>
<path fill="#231F20" d="M314.176,4620.147c-1.265,0.318-2.289,0.823-3.281,0.767c-1.264-0.07-2.137-1.035-2.316-2.313
	c-0.225-1.597,0.334-3.125,1.785-3.755c1.064-0.462,2.572-0.55,3.637-0.15c0.853,0.319,1.756,1.557,1.9,2.501
	c0.396,2.612,0.415,5.283,0.559,7.931c0.01,0.205-0.166,0.419-0.336,0.814C313.971,4624.357,314.978,4621.844,314.176,4620.147
	 M313.629,4615.928c-0.134-0.186-0.268-0.371-0.402-0.559c-1.051,0.627-2.159,1.179-3.111,1.93
	c-0.266,0.208-0.171,1.038-0.025,1.519c0.058,0.189,0.861,0.407,1.057,0.258C312.238,4618.247,313.578,4617.557,313.629,4615.928"/>
<path fill="#231F20" d="M325.559,4613.463c-1.088,0.934-2.168,1.725-3.052,2.693c-0.298,0.328-0.092,1.112-0.116,1.688
	c0.557-0.011,1.271,0.194,1.637-0.074c0.76-0.557,1.316-1.382,1.992-2.062c0.35-0.351,0.965-0.967,1.129-0.874
	c0.461,0.262,1.01,0.796,1.064,1.275c0.328,2.871,0.548,5.754,0.741,8.637c0.022,0.346-0.333,0.714-0.513,1.072
	c-0.347-0.201-0.902-0.331-0.998-0.615c-0.266-0.797-0.389-1.65-0.48-2.493c-0.146-1.35-0.223-2.71-0.363-4.517
	c-1.012,0.726-1.584,1.064-2.067,1.5c-0.933,0.84-1.816,0.633-2.644-0.085c-1.246-1.084-1.492-3.068-0.627-4.582
	C322.249,4613.3,323.613,4612.809,325.559,4613.463"/>
<path fill="#231F20" d="M320.002,4626.301c-0.387,0.148-0.813,0.475-1.151,0.4c-0.38-0.083-0.681-0.526-1.017-0.812
	c0.303-0.296,0.564-0.735,0.921-0.833c0.223-0.062,0.587,0.391,0.888,0.612C319.763,4625.88,319.882,4626.09,320.002,4626.301"/>
</svg>
