<?xml version="1.0" encoding="utf-8"?>
<!-- Generator: Adobe Illustrator 15.1.0, SVG Export Plug-In . SVG Version: 6.00 Build 0)  -->
<!DOCTYPE svg PUBLIC "-//W3C//DTD SVG 1.1//EN" "http://www.w3.org/Graphics/SVG/1.1/DTD/svg11.dtd">
<svg version="1.1" id="Layer_1" xmlns="http://www.w3.org/2000/svg" xmlns:xlink="http://www.w3.org/1999/xlink" x="0px" y="0px"
	 width="150px" height="114px" viewBox="5 9 150 114" enable-background="new 5 9 150 114" xml:space="preserve">
<path fill="#231F20" d="M124.393,67.354c-1.004-1.209-2.237-1.507-3.496-1.908c-0.771-0.255-1.637-0.205-2.517-0.304
	c0.033-0.337,0.05-0.642,0.09-0.93c0.444-2.861,1.069-5.708,1.299-8.587c0.264-3.281-0.353-3.988-3.166-3.388
	c-0.05-0.493-0.164-1.044-0.018-1.299c1.679-2.862,1.399-6.86-0.78-9.45c-1.07-1.267-1.35-2.393-0.732-3.989
	c0.88-2.262,0.69-4.564-0.502-6.76c-1.283-2.361-3.52-3.701-5.534-5.257c-0.905-0.706-1.547-1.258-1.505-2.542
	c0.032-0.978-0.174-2.072-0.608-2.946c-1.342-2.673-3.043-4.935-6.309-5.6c-4.574-0.938-8.8,0.247-12.864,2.007
	c-2.344,1.011-4.458,2.59-6.598,4.029c-0.985,0.658-1.734,0.889-2.887,0.264c-3.618-1.958-7.287-2.024-11.07-0.206
	c-4.926,2.36-8.233,6.299-10.553,10.996c-1.044,2.098-1.76,4.26-3.249,6.21c-1.99,2.615-2.064,5.963-2.105,9.178
	c-0.008,0.963,0.124,1.933,0.206,3.192c-0.962-0.338-1.513-0.568-2.089-0.716c-0.37-0.099-0.946-0.255-1.126-0.073
	c-1.225,1.234-3.093,1.949-3.504,3.874c-0.394,1.818-0.773,3.659-0.905,5.519c-0.124,1.711,0.148,3.443,0.09,5.173
	c-0.017,0.584-0.361,1.382-0.813,1.702c-1.901,1.323-4.03,2.345-5.823,3.784c-2.411,1.933-3.57,4.505-2.862,7.707
	c0.107,0.452,0.082,1.076-0.156,1.439c-1.062,1.611-1.037,3.247-0.7,5.099c0.741,4.046,3.965,8.505,8.48,8.308
	c0.913-0.041,1.078,0.435,1.045,1.25c-0.107,2.237-0.156,4.474-0.148,6.703c0.008,0.494,0.239,1.184,0.607,1.447
	c0.897,0.626,1.901,1.133,2.929,1.555c1.447,0.593,2.978,0.996,4.425,1.604c4.022,1.669,7.995,3.479,12.049,5.074
	c1.768,0.7,3.718,0.919,5.51,1.556c4.162,1.463,8.291,3.026,12.42,4.59c1.389,0.525,2.623,0.483,3.866-0.421
	c5.263-3.816,11.317-6.119,17.174-8.792c3.824-1.751,7.715-3.372,11.571-5.051c1.21-0.526,2.007-1.417,2.122-2.756
	c0.197-2.171,0.354-4.342,0.429-6.522c0.008-0.344-0.485-0.707-0.749-1.068c-0.263,0.354-0.731,0.682-0.757,1.044
	c-0.148,1.923-0.197,3.85-0.246,5.775c-0.025,1.077-0.437,1.767-1.489,2.22c-5.913,2.531-11.82,5.1-17.7,7.715
	c-1.851,0.823-3.628,1.808-5.421,2.764c-1.356,0.732-2.682,1.53-4.252,2.435c-0.172-1.07-0.42-1.81-0.388-2.535
	c0.206-5.163,0.437-10.32,0.716-15.477c0.223-4.253,0.667-8.496,0.74-12.748c0.107-5.882-0.032-11.763-0.123-17.643
	c-0.009-0.478-0.501-0.955-0.765-1.425c-0.289,0.444-0.601,0.89-0.855,1.358c-0.084,0.156-0.009,0.395,0,0.601
	c0.114,3.851,0.394,7.697,0.304,11.539c-0.164,7.14-0.543,14.285-0.839,21.424c-0.197,4.609-0.519,9.214-0.577,13.829
	c-0.032,2.209-0.271,2.49-2.409,1.759c-5.075-1.735-9.977-3.997-15.29-5.009c-0.395-0.074-0.773-0.246-1.144-0.411
	c-4.574-1.934-9.138-3.882-13.72-5.817c-1.949-0.829-3.939-1.568-5.873-2.441c-0.436-0.198-0.995-0.748-1.003-1.15
	c-0.024-2.122,0.089-4.261,0.206-6.383c0.024-0.37,0.206-0.88,0.485-1.062c1.118-0.724,1.463-1.745,1.267-3.019
	c0.255-0.107,0.427-0.196,0.617-0.247c2.615-0.741,3.224-1.57,3.306-4.252c0.009-0.387,0.444-0.823,0.766-1.144
	c0.715-0.707,1.546-1.3,2.205-2.056c0.674-0.773,0.543-1.562-0.312-2.229c-0.626-0.487-1.193-1.052-2.131-1.893
	c0.575-0.361,1.02-0.542,1.341-0.856c1.546-1.545,1.332-3.41-0.609-4.357c-1.3-0.641-2.714-1.085-4.113-1.489
	c-0.954-0.27-1.521-0.7-1.562-1.743c-0.148-3.595-0.428-7.188-0.428-10.783c-0.008-1.595,0.461-3.207,0.864-4.777
	c0.238-0.941,0.938-1.688,2.04-1.353c3.626,1.12,7.271,2.223,10.832,3.521c6.909,2.526,13.776,5.174,20.637,7.831
	c0.394,0.155,0.813,0.855,0.822,1.316c0.14,5.632,0.354,11.275,0.255,16.911c-0.099,5.674-0.519,11.35-0.78,17.024
	c-0.215,4.508-0.938,9.015,0.188,13.497c0.123,0.494,0.337,0.969,0.551,1.563c1.127-0.79,1.094-1.763,0.822-2.6
	c-1.258-3.989-0.312-7.97-0.041-11.944c0.32-4.604,0.749-9.194,0.954-13.799c0.122-2.673-0.091-5.363-0.173-8.044
	c-0.082-2.788-0.197-5.568-0.263-8.357c-0.033-1.497-0.009-3-0.009-4.481c1.933-0.65,3.742-1.233,5.543-1.859
	c1.917-0.656,3.784-1.505,5.741-2.006c7.023-1.81,14.089-3.463,21.113-5.271c3.947-1.012,4.475-0.486,3.594,3.585
	c-0.675,3.126-1.381,6.273-1.652,9.45c-0.157,1.859-0.906,2.558-2.46,3.265c-1.916,0.865-3.677,2.123-5.404,3.341
	c-0.92,0.649-1.143,1.586-0.023,2.36c0.707,0.485,0.551,0.944,0.148,1.537c-1.884,2.715-1.859,2.781,0.945,4.221
	c0.074,0.041,0.123,0.147,0.188,0.222c-0.106,1.167-0.279,2.583,0.346,3.307c0.634,0.731,2.057,0.772,3.191,1.135
	c0.01,0.017,0.01,0.024,0.01,0.033c-0.066,0.248-0.132,0.493-0.206,0.731c-0.561,1.736-0.239,2.164,1.546,2.354
	c2.574,0.279,4.852-0.617,6.893-1.958c1.126-0.733,2.048-1.934,2.78-3.103c1.594-2.508,1.447-5.592,2.409-8.364
	C127.773,73.523,126.72,70.144,124.393,67.354 M49.02,72.644c0.239,0.065,0.485,0.155,0.708,0.263
	c1.489,0.699,1.595,1.185,0.534,2.459c-0.188,0.23-0.403,0.437-0.452,0.485c-1.629-0.395-3.102-0.717-4.557-1.103
	c-1.193-0.32-1.925,0.146-2.583,1.505c1.341,0.339,2.565,0.659,3.799,0.938c1.761,0.396,3.397,0.988,4.673,2.361
	c0.739,0.79,0.617,1.406-0.322,1.728c-0.724,0.248-1.595,0.435-2.318,0.271c-1.827-0.395-3.636-0.912-5.389-1.555
	c-1.299-0.478-1.867,0.115-2.524,1.3c0.666,0.246,1.242,0.485,1.833,0.675c1.538,0.493,3.093,0.942,4.622,1.463
	c0.979,0.336,1.563,1.118,1.374,2.113c-0.206,1.087-1.258,1.159-2.097,1.012c-1.176-0.214-2.311-0.724-3.487-0.973
	c-0.485-0.097-1.069,0.086-1.546,0.291c-0.172,0.081-0.321,0.764-0.206,0.871c0.708,0.635,1.497,1.159,2.237,1.743
	c0.329,0.256,0.626,0.552,0.939,0.822c-0.354,0.205-0.691,0.558-1.053,0.591c-2.722,0.231-4.754-0.911-6.341-3.117
	c-1.126-1.578-1.826-3.231-2.064-5.146c-0.14-1.194-0.033-2.245,0.896-3.067c0.823-0.715,0.888-1.498,0.444-2.451
	c-0.896-1.934-0.494-3.676,0.962-5.167c1.563-1.594,3.093-3.257,5.371-3.855c1.143-0.296,1.735,0.132,1.595,1.242
	c-0.042,0.371-0.575,0.675-0.872,1.011c-0.354,0.388-0.691,0.779-1.028,1.169c0.419,0.228,0.814,0.559,1.258,0.682
	C45.286,71.714,47.153,72.166,49.02,72.644 M96.222,57.648c-2.031,0.61-4.136,1.069-6.053,1.941
	c-2.468,1.127-5.091,1.289-7.673,1.562c-1.053,0.116-2.221-0.617-3.308-1.019c-3.948-1.463-7.896-2.922-11.819-4.441
	c-1.604-0.617-3.141-1.382-4.984-2.195c0.847-1.021,1.538-1.843,2.278-2.74c2.451,2.6,5.387,3.661,8.719,3.61
	c0.872-0.015,1.884-0.206,2.582-0.672c1.991-1.35,4.311-2.445,5.051-5.033c0.238-0.822,0.369-1.696,0.361-2.542
	c-0.008-1.185,0.617-1.695,1.646-1.794c1.109-0.101,2.426-0.575,3.051,0.897c0.462,1.07,0.84,2.179,1.135,3.307
	c0.987,3.709,5.815,6.136,9.204,5.215c1.793-0.486,2.978-1.662,4.096-2.994c0.214-0.256,0.411-0.535,0.872-1.151
	c0.625,2.163,1.158,3.998,1.752,6.062C100.779,56.341,98.492,56.973,96.222,57.648 M97.646,39.242
	c-3.43-0.889-6.976-0.723-10.166,1.193c-0.634,0.378-1.062,1.093-1.612,1.619c-0.264,0.256-0.575,0.519-0.904,0.617
	c-0.38,0.113-0.814,0.033-1.21,0.083c-2.032,0.247-2.039,0.256-2.426-1.82c-0.189-1.028-0.913-1.281-1.794-1.281
	c-3.084-0.017-6.177-0.008-9.261,0H68.75c0.156-1.242,0.428-2.056,1.628-2.081c2.41-0.049,4.055-1.455,5.503-3.142
	c0.501-0.593,0.944-0.971,1.636-0.461c2.477,1.824,4.918,1.061,7.058-0.419c1.842-1.284,3.108-1.645,4.869,0.206
	c0.839,0.879,2.55,1.208,3.897,1.282c1.752,0.1,3.536-0.229,5.289-0.518c1.021-0.172,1.562,0.091,1.768,1.086
	c0.059,0.295,0.157,0.592,0.165,0.888C100.705,39.506,100.927,40.097,97.646,39.242 M101.009,43.898
	c-0.419,2.615-1.365,4.753-2.706,6.694c-1.068,1.555-2.837,1.975-4.614,1.325c-3.856-1.391-6.546-5.503-6.085-9.452
	c0.049-0.428,0.575-1.002,1.003-1.143c3.685-1.251,7.395-1.275,10.956,0.361C100.244,41.995,100.532,43.141,101.009,43.898
	 M74.689,40.78c0,0.041,0.008,0.082,0.017,0.115c1.168,0.066,2.327,0.14,3.495,0.182c1.119,0.049,1.67,0.56,1.589,1.728
	c-0.041,0.657,0,1.323,0.049,1.981c0.271,3.875-1.727,6.309-5,7.935c-0.141,0.076-0.28,0.139-0.42,0.183
	c-2.829,0.945-8.069-2.286-8.521-5.215c-0.181-1.204-0.542-2.371-0.641-3.57c-0.157-1.793,0.238-2.278,2.023-2.516
	C69.737,41.265,72.214,41.053,74.689,40.78 M115.591,49.507c-0.188,0.724-0.401,1.439-0.607,2.153
	c-0.091,0.455,0.024,0.734,0.206,0.923c-2.97,0.774-5.914,1.636-8.892,2.393c-0.411,0.099-1.217-0.09-1.35-0.378
	c-0.535-1.135-1.062-2.335-1.252-3.569c-0.419-2.756-0.641-5.538-0.937-8.308c-0.289-2.673-0.387-5.379-0.896-8.011
	c-0.478-2.427-0.675-2.385-3.126-1.991c-0.345,0.056-0.7,0.14-1.053,0.148c-3.438,0.09-7.105,1.053-9.516-2.648
	c-0.535-0.814-1.217-0.296-1.843,0.122c-1.39,0.939-2.837,1.777-4.22,2.715c-1.077,0.724-2.188,0.475-3.199,0.063
	c-0.971-0.4-1.562-1.059-1.053-2.408c0.51-1.332,0.593-2.846,0.766-4.285c0.033-0.288-0.354-0.624-0.552-0.938
	c-0.321,0.206-0.747,0.346-0.945,0.633c-0.214,0.312-0.197,0.773-0.296,1.16c-0.328,1.374-0.477,2.82-1.036,4.088
	c-1.053,2.411-2.303,4.696-5.536,4.64c-1.883-0.033-2.179,0.346-2.845,2.106c-0.223,0.576-0.708,1.193-1.243,1.472
	c-2.278,1.208-2.789,2.064-2.542,4.647c0.115,1.159,0.223,2.327,0.296,3.485c0.09,1.531-1.662,4.427-3.068,4.968
	c-0.37,0.15-0.88,0.052-1.299-0.048c-1.529-0.37-3.052-0.749-4.548-1.209c-0.946-0.289-1.934-0.551-2.015-1.917
	c-0.172-3.109-0.116-6.186,0.716-9.204c0.229-0.822,0.411-1.875,0.995-2.343c1.833-1.449,2.278-3.447,3.067-5.487
	c1.546-4.03,4.195-7.533,7.871-9.854c4.623-2.912,7.838-3.742,13.539,0.025c0.699,0.459,1.258,0.484,1.908-0.066
	c0.771-0.657,1.579-1.274,2.409-1.859c4.54-3.215,9.641-4.607,15.15-4.738c3.925-0.089,7.329,3.651,6.918,7.074
	c-0.362,2.952-0.009,3.108,2.706,4.466c3.923,1.949,7.336,5.716,4.901,11.176c-0.617,1.384-0.247,2.419,0.716,3.448
	C115.88,44.257,116.315,46.758,115.591,49.507 M124.376,77.946c-0.255,0.774-0.658,1.559-0.675,2.338
	c-0.065,5.65-2.878,7.625-7.689,8.085c-0.437,0.041-1.333-0.493-1.317-0.658c0.107-0.706,0.396-1.431,0.781-2.031
	c0.215-0.338,0.848-0.388,1.144-0.699c0.263-0.28,0.321-0.757,0.469-1.145c-0.354-0.106-0.731-0.36-1.062-0.306
	c-0.642,0.117-1.25,0.396-1.875,0.603c-0.336,0.114-0.69,0.361-1.003,0.32c-0.691-0.09-1.357-0.328-2.031-0.512
	c0.337-0.565,0.543-1.42,1.036-1.651c1.645-0.749,3.38-1.283,5.091-1.858c0.846-0.289,1.679-0.518,1.529-1.836
	c-3.24,0.183-6.169,1.983-9.574,1.2c0.848-1.708,2.049-2.449,3.545-2.786c0.84-0.188,1.744-0.206,2.525-0.534
	c0.444-0.182,0.698-0.831,1.036-1.267c-0.452-0.122-0.904-0.361-1.349-0.348c-1.217,0.052-2.427,0.231-3.645,0.314
	c-0.345,0.024-0.715-0.099-1.308-0.196c2.484-3.203,6.448-3.176,9.483-5.183c-0.575-0.444-1.045-0.667-1.3-1.038
	c-0.222-0.335-0.206-0.837-0.296-1.268c2.279-0.583,5.322,0.866,6.252,3.128c0.592,1.43,0.986,3.008,1.11,4.557
	C125.33,76.065,124.68,77.019,124.376,77.946"/>
<path fill="#00ADDD" d="M114.983,51.66c-0.091,0.455,0.024,0.734,0.206,0.923c-2.97,0.774-5.914,1.636-8.892,2.393
	c-0.411,0.099-1.217-0.09-1.35-0.378c-0.535-1.135-1.062-2.336-1.252-3.57c-0.419-2.755-0.641-5.537-0.937-8.307
	c-0.289-2.673-0.387-5.379-0.896-8.011c-0.478-2.427-0.675-2.385-3.126-1.991c-0.345,0.056-0.7,0.14-1.053,0.148
	c-3.438,0.09-7.105,1.053-9.516-2.648c-0.535-0.814-1.217-0.296-1.843,0.122c-1.39,0.939-2.837,1.777-4.22,2.715
	c-1.077,0.724-2.187,0.478-3.199,0.066c-0.971-0.403-1.562-1.061-1.053-2.411c0.51-1.332,0.593-2.846,0.766-4.285
	c0.033-0.288-0.354-0.624-0.551-0.938c-0.322,0.206-0.748,0.346-0.946,0.633c-0.214,0.312-0.197,0.773-0.296,1.16
	c-0.328,1.374-0.477,2.82-1.036,4.088c-1.053,2.411-2.303,4.696-5.535,4.64c-1.884-0.033-2.18,0.346-2.846,2.106
	c-0.223,0.575-0.708,1.192-1.243,1.472c-2.278,1.208-2.789,2.064-2.542,4.647c0.115,1.159,0.223,2.327,0.296,3.487
	c0.09,1.529-1.662,4.425-3.068,4.966c-0.369,0.15-0.879,0.052-1.299-0.048c-1.529-0.37-3.052-0.749-4.548-1.209
	c-0.946-0.289-1.934-0.551-2.015-1.917c-0.172-3.109-0.115-6.186,0.716-9.204c0.229-0.822,0.411-1.875,0.995-2.343
	c1.833-1.449,2.278-3.447,3.067-5.487c1.546-4.03,4.195-7.533,7.871-9.854c4.623-2.912,7.838-3.742,13.539,0.025
	c0.699,0.459,1.258,0.485,1.908-0.066c0.771-0.657,1.579-1.274,2.409-1.859c4.542-3.216,9.641-4.607,15.15-4.738
	c3.925-0.089,7.329,3.651,6.918,7.074c-0.362,2.953-0.009,3.109,2.706,4.466c3.923,1.949,7.336,5.716,4.901,11.176
	c-0.617,1.384-0.247,2.419,0.716,3.448c1.99,2.104,2.427,4.605,1.702,7.353C115.402,50.231,115.189,50.946,114.983,51.66"/>
<path fill="#231F20" d="M82.901,56.736c-1.26-0.383-2.407-0.617-3.438-1.103c-0.38-0.177-0.485-0.94-0.715-1.437
	c0.49-0.096,1.1-0.429,1.447-0.252c1.781,0.917,3.486,0.946,5.232-0.043c0.295-0.168,0.725-0.322,1.012-0.229
	c0.378,0.12,0.795,0.432,0.96,0.775c0.084,0.175-0.272,0.766-0.549,0.877C85.56,55.851,84.225,56.274,82.901,56.736"/>
<path fill="#231F20" d="M71.653,48.034c0.12-0.222,0.216-0.661,0.447-0.749c0.251-0.097,0.829,0.042,0.914,0.233
	c0.398,0.898,0.734,1.835,0.954,2.792c0.049,0.21-0.454,0.767-0.716,0.777c-0.357,0.014-0.937-0.266-1.049-0.563
	C71.918,49.783,71.842,48.962,71.653,48.034"/>
<path fill="#231F20" d="M93.643,48.964c-0.069,0.364-0.068,0.798-0.245,1.138c-0.138,0.264-0.476,0.512-0.768,0.575
	c-0.146,0.031-0.492-0.333-0.562-0.573c-0.238-0.82-0.507-1.662-0.534-2.5c-0.015-0.428,0.459-0.874,0.71-1.311
	c0.367,0.329,0.859,0.599,1.068,1.011C93.552,47.776,93.538,48.375,93.643,48.964"/>
</svg>
