<?xml version="1.0" encoding="utf-8"?>
<!-- Generator: Adobe Illustrator 15.1.0, SVG Export Plug-In . SVG Version: 6.00 Build 0)  -->
<!DOCTYPE svg PUBLIC "-//W3C//DTD SVG 1.1//EN" "http://www.w3.org/Graphics/SVG/1.1/DTD/svg11.dtd">
<svg version="1.1" id="Layer_1" xmlns="http://www.w3.org/2000/svg" xmlns:xlink="http://www.w3.org/1999/xlink" x="0px" y="0px"
	 width="150px" height="114px" viewBox="0 0 150 114" enable-background="new 0 0 150 114" xml:space="preserve">
<path fill="#231F20" d="M85.49,84.053c-3.475,0.218-6.949,0.452-10.427,0.644c-1.362,0.075-2.73,0.039-4.095,0.075
	c-2.318,0.061-4.635,0.124-6.951,0.215c-1.53,0.062-3.122-0.417-3.146-1.898c-0.047-2.826-0.205-5.65-0.266-8.476
	c-0.116-5.305-0.285-10.609-0.259-15.914c0.019-3.834,0.319-7.669,0.488-11.504c0.034-0.757,0.056-1.516,0.059-2.273
	c-0.037-2.4-0.396-3.39,0.357-4.038c1.454-1.25,2.906-2.505,4.41-3.693c0.45-0.355,1.055-0.628,1.62-0.706
	c2.949-0.403,5.907-0.757,8.867-1.076c2.66-0.285,5.329-0.495,7.992-0.752c1.357-0.132,2.71-0.297,4.064-0.445
	c0.352-0.038,0.707-0.121,1.051-0.086c0.627,0.062,0.992,0.367,0.976,1.089c-0.02,0.855,0.095,1.711,0.11,2.568
	c0.015,0.831,0.46,1.15,1.229,1.218c1.104,0.096,2.202,0.239,3.304,0.354c0.977,0.102,1.608,0.601,1.754,1.586
	c0.255,1.745,0.66,3.494,0.676,5.243c0.066,8.089,0.083,16.178-0.011,24.266c-0.042,3.734-0.354,7.465-0.591,11.195
	c-0.091,1.429-0.42,1.748-1.688,1.86c-3.166,0.28-6.335,0.538-9.502,0.806C85.505,84.225,85.498,84.14,85.49,84.053 M69.414,83.17
	c0.702,0.063,1.394,0.21,2.076,0.174c4.736-0.242,9.469-0.536,14.204-0.786c2.619-0.138,5.241-0.216,7.861-0.332
	c1.272-0.056,1.592-0.372,1.653-1.641c0.044-0.909,0.037-1.819,0.085-2.727c0.147-2.872,0.406-5.744,0.445-8.617
	c0.061-4.292-0.056-8.588-0.047-12.881c0.006-3.938,0.082-7.876,0.117-11.816c0.012-1.308-0.167-2.588-0.595-3.898
	c-4.087,0.129-8.119,0.217-12.146,0.397c-4.082,0.184-8.161,0.455-12.241,0.704c-0.45,0.028-0.899,0.138-1.342,0.242
	c-1.053,0.25-1.192,0.484-1.179,1.581c0.017,1.356-0.019,2.714-0.027,4.072c-0.004,0.606-0.009,1.212,0.011,1.818
	c0.064,1.916,0.139,3.833,0.21,5.748c0.028,0.759,0.041,1.517,0.088,2.271c0.271,4.33,0.668,8.656,0.794,12.99
	c0.114,3.934-0.067,7.876-0.109,11.814C69.271,82.526,69.349,82.77,69.414,83.17 M63.014,83.491c1.421,0,2.579,0.036,3.733-0.011
	c0.939-0.038,1.121-0.227,1.14-1.226c0.067-3.485,0.167-6.973,0.118-10.458c-0.042-2.93-0.252-5.856-0.429-8.78
	c-0.161-2.671-0.483-5.337-0.543-8.009c-0.08-3.533,0.028-7.069,0.045-10.605c0.003-0.454-0.039-0.909-0.097-1.36
	c-0.06-0.465-0.354-0.771-0.825-0.694c-1.173,0.189-2.339,0.438-3.549,0.67c-0.138,6.919-0.428,13.632-0.359,20.34
	C62.314,70.058,62.742,76.753,63.014,83.491 M64.503,40.704c4.097-0.342,8.053-0.697,12.013-1c2.612-0.2,5.231-0.339,7.85-0.477
	c1.108-0.058,2.224-0.002,3.33-0.066c1.184-0.069,1.344-0.279,1.381-1.501c0.007-0.201,0.007-0.404-0.004-0.606
	c-0.064-1.272-0.351-1.468-1.589-1.339c-1.953,0.203-3.914,0.338-5.871,0.499c-0.854,0.07-1.709,0.113-2.561,0.201
	c-2.208,0.23-4.41,0.521-6.622,0.71c-4.917,0.423-4.92,0.403-7.736,3.269C64.661,40.428,64.642,40.478,64.503,40.704"/>
<path fill="none" stroke="#231F20" stroke-miterlimit="10" d="M85.49,84.053c-3.475,0.218-6.949,0.452-10.427,0.644
	c-1.362,0.075-2.73,0.039-4.095,0.075c-2.318,0.061-4.635,0.124-6.951,0.215c-1.53,0.062-3.122-0.417-3.146-1.898
	c-0.047-2.826-0.205-5.65-0.266-8.476c-0.116-5.305-0.285-10.609-0.259-15.914c0.019-3.834,0.319-7.669,0.488-11.504
	c0.034-0.757,0.056-1.516,0.059-2.273c-0.037-2.4-0.396-3.39,0.357-4.038c1.454-1.25,2.906-2.505,4.41-3.693
	c0.45-0.355,1.055-0.628,1.62-0.706c2.949-0.403,5.907-0.757,8.867-1.076c2.66-0.285,5.329-0.495,7.992-0.752
	c1.357-0.132,2.71-0.297,4.064-0.445c0.352-0.038,0.707-0.121,1.051-0.086c0.627,0.062,0.992,0.367,0.976,1.089
	c-0.02,0.855,0.095,1.711,0.11,2.568c0.015,0.831,0.46,1.15,1.229,1.218c1.104,0.096,2.202,0.239,3.304,0.354
	c0.977,0.102,1.608,0.601,1.754,1.586c0.255,1.745,0.66,3.494,0.676,5.243c0.066,8.089,0.083,16.178-0.011,24.266
	c-0.042,3.734-0.354,7.465-0.591,11.195c-0.091,1.429-0.42,1.748-1.688,1.86c-3.166,0.28-6.335,0.538-9.502,0.806
	C85.505,84.225,85.498,84.14,85.49,84.053z M69.414,83.17c0.702,0.063,1.394,0.21,2.076,0.174c4.736-0.242,9.469-0.536,14.204-0.786
	c2.619-0.138,5.241-0.216,7.861-0.332c1.272-0.056,1.592-0.372,1.653-1.641c0.044-0.909,0.037-1.819,0.085-2.727
	c0.147-2.872,0.406-5.744,0.445-8.617c0.061-4.292-0.056-8.588-0.047-12.881c0.006-3.938,0.082-7.876,0.117-11.816
	c0.012-1.308-0.167-2.588-0.595-3.898c-4.087,0.129-8.119,0.217-12.146,0.397c-4.082,0.184-8.161,0.455-12.241,0.704
	c-0.45,0.028-0.899,0.138-1.342,0.242c-1.053,0.25-1.192,0.484-1.179,1.581c0.017,1.356-0.019,2.714-0.027,4.072
	c-0.004,0.606-0.009,1.212,0.011,1.818c0.064,1.916,0.139,3.833,0.21,5.748c0.028,0.759,0.041,1.517,0.088,2.271
	c0.271,4.33,0.668,8.656,0.794,12.99c0.114,3.934-0.067,7.876-0.109,11.814C69.271,82.526,69.349,82.77,69.414,83.17z
	 M63.014,83.491c1.421,0,2.579,0.036,3.733-0.011c0.939-0.038,1.121-0.227,1.14-1.226c0.067-3.485,0.167-6.973,0.118-10.458
	c-0.042-2.93-0.252-5.856-0.429-8.78c-0.161-2.671-0.483-5.337-0.543-8.009c-0.08-3.533,0.028-7.069,0.045-10.605
	c0.003-0.454-0.039-0.909-0.097-1.36c-0.06-0.465-0.354-0.771-0.825-0.694c-1.173,0.189-2.339,0.438-3.549,0.67
	c-0.138,6.919-0.428,13.632-0.359,20.34C62.314,70.058,62.742,76.753,63.014,83.491z M64.503,40.704
	c4.097-0.342,8.053-0.697,12.013-1c2.612-0.2,5.231-0.339,7.85-0.477c1.108-0.058,2.224-0.002,3.33-0.066
	c1.184-0.069,1.344-0.279,1.381-1.501c0.007-0.201,0.007-0.404-0.004-0.606c-0.064-1.272-0.351-1.468-1.589-1.339
	c-1.953,0.203-3.914,0.338-5.871,0.499c-0.854,0.07-1.709,0.113-2.561,0.201c-2.208,0.23-4.41,0.521-6.622,0.71
	c-4.917,0.423-4.92,0.403-7.736,3.269C64.661,40.428,64.642,40.478,64.503,40.704z"/>
<path fill="#231F20" d="M54.282,69.792c-1.185-0.423-1.582-1.131-1.582-2.155c-0.001-2.02-0.007-4.038-0.08-6.056
	c-0.098-2.721-0.265-5.44-0.393-8.16c-0.023-0.503-0.013-1.008,0.007-1.51c0.015-0.352,0.123-0.705,0.106-1.054
	c-0.133-2.773-0.294-5.545-0.433-8.317c-0.065-1.312-0.086-2.626-0.148-3.938c-0.057-1.212-0.228-1.364-1.432-1.47
	c-3.103-0.273-6.147,0.237-9.196,0.688c-1.548,0.23-3.112,0.366-4.649,0.649c-1.23,0.228-1.599,0.775-1.233,1.947
	c0.913,2.926,0.999,5.974,1.375,8.971c0.366,2.898,0.432,5.834,0.64,8.752c0.062,0.855,0.144,1.71,0.247,2.563
	c0.388,3.203,0.788,6.407,1.191,9.61c0.031,0.244,0.131,0.479,0.238,0.856c1.209-0.071,2.405-0.118,3.597-0.219
	c3.217-0.272,6.432-0.581,9.65-0.838c0.44-0.035,0.898,0.146,1.347,0.227c0.003,0.141,0.006,0.282,0.009,0.423
	c-0.4,0.096-0.795,0.243-1.201,0.284c-2.511,0.252-5.031,0.418-7.535,0.729c-3.617,0.449-7.248,0.533-10.883,0.591
	c-1.218,0.02-2.242-0.835-2.336-2.089c-0.36-4.782-0.924-9.565-0.953-14.353c-0.032-5.164-0.549-10.289-0.722-15.435
	c-0.037-1.108,0.11-1.991,1.04-2.815c0.805-0.715,1.343-1.762,1.899-2.722c0.702-1.212,1.722-1.749,3.083-1.874
	c2.814-0.257,5.624-0.565,8.432-0.879c0.801-0.09,1.591-0.271,2.387-0.42c0.669-0.126,1.088,0.13,1.208,0.802
	c0.097,0.545,0.155,1.097,0.224,1.647c0.133,1.05,0.257,1.19,1.284,1.335c0.7,0.1,1.409,0.144,2.105,0.269
	c1.158,0.208,1.398,0.383,1.514,1.536c0.235,2.308,0.447,4.624,0.535,6.94c0.176,4.645,0.253,9.291,0.387,13.936
	c0.074,2.573,0.162,5.147,0.275,7.719c0.042,0.957,0.189,1.91,0.241,2.867C54.542,69.103,54.392,69.385,54.282,69.792 M34.029,39.23
	c-2.04-0.109-2.282,0.079-2.227,1.806c0.103,3.18,0.258,6.356,0.37,9.534c0.045,1.31-0.019,2.625,0.059,3.933
	c0.113,1.914,0.29,3.824,0.472,5.731c0.315,3.312,0.665,6.623,0.976,9.935c0.076,0.801,0.623,1.082,1.243,1.02
	c0.848-0.087,1.853,0.276,2.494-0.631c0.077-0.109,0.071-0.293,0.068-0.442c-0.006-0.303-0.015-0.607-0.056-0.906
	c-0.344-2.499-0.707-4.995-1.041-7.496c-0.14-1.048-0.248-2.106-0.334-3.163c-0.418-5.079-0.793-10.164-1.256-15.239
	C34.67,41.922,34.286,40.558,34.029,39.23 M46.642,33.639c-0.17-0.022-0.375-0.101-0.556-0.066
	c-3.318,0.657-6.673,0.963-10.044,1.181c-1.487,0.097-1.968,0.664-2.456,2.574c0.535-0.048,1.015-0.075,1.49-0.136
	c1.998-0.251,3.996-0.501,5.991-0.774c1.546-0.211,3.097-0.415,4.631-0.698C47.018,35.477,47.146,35.137,46.642,33.639"/>
<path fill="none" stroke="#231F20" stroke-miterlimit="10" d="M54.282,69.792c-1.185-0.423-1.582-1.131-1.582-2.155
	c-0.001-2.02-0.007-4.038-0.08-6.056c-0.098-2.721-0.265-5.44-0.393-8.16c-0.023-0.503-0.013-1.008,0.007-1.51
	c0.015-0.352,0.123-0.705,0.106-1.054c-0.133-2.773-0.294-5.545-0.433-8.317c-0.065-1.312-0.086-2.626-0.148-3.938
	c-0.057-1.212-0.228-1.364-1.432-1.47c-3.103-0.273-6.147,0.237-9.196,0.688c-1.548,0.23-3.112,0.366-4.649,0.649
	c-1.23,0.228-1.599,0.775-1.233,1.947c0.913,2.926,0.999,5.974,1.375,8.971c0.366,2.898,0.432,5.834,0.64,8.752
	c0.062,0.855,0.144,1.71,0.247,2.563c0.388,3.203,0.788,6.407,1.191,9.61c0.031,0.244,0.131,0.479,0.238,0.856
	c1.209-0.071,2.405-0.118,3.597-0.219c3.217-0.272,6.432-0.581,9.65-0.838c0.44-0.035,0.898,0.146,1.347,0.227
	c0.003,0.141,0.006,0.282,0.009,0.423c-0.4,0.096-0.795,0.243-1.201,0.284c-2.511,0.252-5.031,0.418-7.535,0.729
	c-3.617,0.449-7.248,0.533-10.883,0.591c-1.218,0.02-2.242-0.835-2.336-2.089c-0.36-4.782-0.924-9.565-0.953-14.353
	c-0.032-5.164-0.549-10.289-0.722-15.435c-0.037-1.108,0.11-1.991,1.04-2.815c0.805-0.715,1.343-1.762,1.899-2.722
	c0.702-1.212,1.722-1.749,3.083-1.874c2.814-0.257,5.624-0.565,8.432-0.879c0.801-0.09,1.591-0.271,2.387-0.42
	c0.669-0.126,1.088,0.13,1.208,0.802c0.097,0.545,0.155,1.097,0.224,1.647c0.133,1.05,0.257,1.19,1.284,1.335
	c0.7,0.1,1.409,0.144,2.105,0.269c1.158,0.208,1.398,0.383,1.514,1.536c0.235,2.308,0.447,4.624,0.535,6.94
	c0.176,4.645,0.253,9.291,0.387,13.936c0.074,2.573,0.162,5.147,0.275,7.719c0.042,0.957,0.189,1.91,0.241,2.867
	C54.542,69.103,54.392,69.385,54.282,69.792z M34.029,39.23c-2.04-0.109-2.282,0.079-2.227,1.806c0.103,3.18,0.258,6.356,0.37,9.534
	c0.045,1.31-0.019,2.625,0.059,3.933c0.113,1.914,0.29,3.824,0.472,5.731c0.315,3.312,0.665,6.623,0.976,9.935
	c0.076,0.801,0.623,1.082,1.243,1.02c0.848-0.087,1.853,0.276,2.494-0.631c0.077-0.109,0.071-0.293,0.068-0.442
	c-0.006-0.303-0.015-0.607-0.056-0.906c-0.344-2.499-0.707-4.995-1.041-7.496c-0.14-1.048-0.248-2.106-0.334-3.163
	c-0.418-5.079-0.793-10.164-1.256-15.239C34.67,41.922,34.286,40.558,34.029,39.23z M46.642,33.639
	c-0.17-0.022-0.375-0.101-0.556-0.066c-3.318,0.657-6.673,0.963-10.044,1.181c-1.487,0.097-1.968,0.664-2.456,2.574
	c0.535-0.048,1.015-0.075,1.49-0.136c1.998-0.251,3.996-0.501,5.991-0.774c1.546-0.211,3.097-0.415,4.631-0.698
	C47.018,35.477,47.146,35.137,46.642,33.639z"/>
<path fill="#231F20" d="M19.011,34.37c0.764,0,1.356-0.023,1.945,0.006c0.639,0.032,0.985,0.304,0.99,1.043
	c0.01,1.559,0.091,3.12,0.189,4.677c0.166,2.619,0.322,5.239,0.564,7.851c0.406,4.371,0.349,8.785,1.22,13.111
	c0.059,0.297,0.1,0.598,0.169,0.894c0.301,1.292,0.088,1.654-1.191,1.807c-2.708,0.325-5.417,0.657-8.132,0.91
	c-2.511,0.234-5.032,0.368-7.547,0.553c-0.942,0.067-1.887,0.119-2.822,0.243c-0.727,0.097-1.032-0.252-1.146-0.884
	c-0.206-1.144-0.507-2.282-0.577-3.436c-0.205-3.376-0.319-6.759-0.461-10.14c-0.069-1.613-0.074-3.228-0.191-4.837
	C1.823,43.45,1.56,40.736,1.319,38.02c-0.022-0.25-0.113-0.5-0.106-0.748c0.026-1.167,2.663-4.401,3.795-4.812
	c2.074-0.753,4.253-0.854,6.406-1.099c1.904-0.217,3.822-0.317,5.732-0.484c1.34-0.119,1.758,0.196,1.857,1.517
	C19.047,32.98,19.011,33.574,19.011,34.37 M19.982,36.502c-0.669-0.147-1.174-0.388-1.653-0.343
	c-3.065,0.289-6.125,0.637-9.186,0.974c-1.102,0.122-1.313,0.341-1.269,1.43c0.036,0.855,0.207,1.708,0.219,2.564
	c0.044,2.98-0.038,5.966,0.084,8.944c0.14,3.427,0.359,6.855,0.708,10.266c0.311,3.042,0.449,3.08,3.579,2.79
	c2.965-0.275,5.928-0.586,8.89-0.902c0.434-0.047,0.853-0.215,1.305-0.334c0-0.51,0.035-0.909-0.006-1.299
	c-0.247-2.357-0.571-4.707-0.756-7.068c-0.3-3.826-0.501-7.659-0.768-11.488c-0.122-1.76-0.292-3.52-0.46-5.277
	c-0.017-0.179-0.161-0.346-0.285-0.598C20.176,36.337,20.035,36.458,19.982,36.502 M6.014,42.431
	c-0.019,0.001-0.038,0.002-0.057,0.002c0-0.656,0.054-1.318-0.015-1.967c-0.074-0.692-0.22-1.387-0.415-2.057
	c-0.244-0.837-0.63-1.041-1.438-0.886c-0.855,0.162-1.163,0.506-1.067,1.522c0.115,1.2,0.396,2.384,0.54,3.583
	c0.095,0.799,0.075,1.612,0.106,2.42c0.137,3.43,0.245,6.861,0.418,10.289c0.119,2.363,0.316,4.721,0.504,7.081
	c0.05,0.618,0.388,1.004,1.073,1.051c1.136,0.075,1.487-0.32,1.38-1.537c-0.253-2.867-0.559-5.732-0.703-8.605
	C6.158,49.697,6.117,46.063,6.014,42.431 M16.678,32.899c-0.215-0.025-0.461-0.097-0.698-0.076c-2.802,0.256-5.61,0.475-8.404,0.811
	c-1.673,0.201-3.202,0.771-3.842,2.488c1.544-0.083,3.089-0.117,4.624-0.26c2.4-0.224,4.801-0.463,7.186-0.811
	C17,34.839,17.087,34.558,16.678,32.899"/>
<path fill="none" stroke="#231F20" stroke-miterlimit="10" d="M19.011,34.37c0.764,0,1.356-0.023,1.945,0.006
	c0.639,0.032,0.985,0.304,0.99,1.043c0.01,1.559,0.091,3.12,0.189,4.677c0.166,2.619,0.322,5.239,0.564,7.851
	c0.406,4.371,0.349,8.785,1.22,13.111c0.059,0.297,0.1,0.598,0.169,0.894c0.301,1.292,0.088,1.654-1.191,1.807
	c-2.708,0.325-5.417,0.657-8.132,0.91c-2.511,0.234-5.032,0.368-7.547,0.553c-0.942,0.067-1.887,0.119-2.822,0.243
	c-0.727,0.097-1.032-0.252-1.146-0.884c-0.206-1.144-0.507-2.282-0.577-3.436c-0.205-3.376-0.319-6.759-0.461-10.14
	c-0.069-1.613-0.074-3.228-0.191-4.837C1.823,43.45,1.56,40.736,1.319,38.02c-0.022-0.25-0.113-0.5-0.106-0.748
	c0.026-1.167,2.663-4.401,3.795-4.812c2.074-0.753,4.253-0.854,6.406-1.099c1.904-0.217,3.822-0.317,5.732-0.484
	c1.34-0.119,1.758,0.196,1.857,1.517C19.047,32.98,19.011,33.574,19.011,34.37z M19.982,36.502
	c-0.669-0.147-1.174-0.388-1.653-0.343c-3.065,0.289-6.125,0.637-9.186,0.974c-1.102,0.122-1.313,0.341-1.269,1.43
	c0.036,0.855,0.207,1.708,0.219,2.564c0.044,2.98-0.038,5.966,0.084,8.944c0.14,3.427,0.359,6.855,0.708,10.266
	c0.311,3.042,0.449,3.08,3.579,2.79c2.965-0.275,5.928-0.586,8.89-0.902c0.434-0.047,0.853-0.215,1.305-0.334
	c0-0.51,0.035-0.909-0.006-1.299c-0.247-2.357-0.571-4.707-0.756-7.068c-0.3-3.826-0.501-7.659-0.768-11.488
	c-0.122-1.76-0.292-3.52-0.46-5.277c-0.017-0.179-0.161-0.346-0.285-0.598C20.176,36.337,20.035,36.458,19.982,36.502z
	 M6.014,42.431c-0.019,0.001-0.038,0.002-0.057,0.002c0-0.656,0.054-1.318-0.015-1.967c-0.074-0.692-0.22-1.387-0.415-2.057
	c-0.244-0.837-0.63-1.041-1.438-0.886c-0.855,0.162-1.163,0.506-1.067,1.522c0.115,1.2,0.396,2.384,0.54,3.583
	c0.095,0.799,0.075,1.612,0.106,2.42c0.137,3.43,0.245,6.861,0.418,10.289c0.119,2.363,0.316,4.721,0.504,7.081
	c0.05,0.618,0.388,1.004,1.073,1.051c1.136,0.075,1.487-0.32,1.38-1.537c-0.253-2.867-0.559-5.732-0.703-8.605
	C6.158,49.697,6.117,46.063,6.014,42.431z M16.678,32.899c-0.215-0.025-0.461-0.097-0.698-0.076
	c-2.802,0.256-5.61,0.475-8.404,0.811c-1.673,0.201-3.202,0.771-3.842,2.488c1.544-0.083,3.089-0.117,4.624-0.26
	c2.4-0.224,4.801-0.463,7.186-0.811C17,34.839,17.087,34.558,16.678,32.899z"/>
<path fill="#231F20" d="M122.667,68.884c-1.562,0.126-3.009,0.32-4.458,0.345c-2.978,0.054-5.958-0.007-8.937,0.031
	c-0.851,0.01-1.699,0.209-2.551,0.304c-1.151,0.127-2.304,0.301-3.459,0.339c-1.206,0.042-1.283-0.055-1.504-1.197
	c-0.114-0.59-0.153-1.198-0.18-1.802c-0.195-4.437-0.333-8.876-0.579-13.31c-0.26-4.683-0.578-9.365-0.959-14.041
	c-0.137-1.694,0.591-2.992,1.475-4.281c0.143-0.207,0.331-0.381,0.489-0.578c2.185-2.697,2.185-2.692,5.653-3.052
	c2.908-0.303,5.814-0.62,8.724-0.926c0.3-0.032,0.604-0.041,0.906-0.04c2.049,0.012,2.339,0.271,2.548,2.276
	c0.118,1.13,0.26,1.273,1.385,1.35c0.557,0.038,1.117,0.01,1.665,0.085c0.866,0.119,1.156,0.435,1.125,1.308
	c-0.146,4.084-0.315,8.164-0.489,12.246c-0.108,2.572-0.251,5.14-0.363,7.71c-0.17,3.873-0.329,7.747-0.489,11.621
	C122.651,67.717,122.667,68.163,122.667,68.884 M107.252,67.814c0.29,0.059,0.483,0.136,0.676,0.131
	c3.332-0.073,6.664-0.156,9.996-0.236c0.809-0.021,1.618-0.034,2.425-0.063c0.781-0.031,1.216-0.425,1.229-1.231
	c0.006-0.354,0.012-0.707,0.021-1.062c0.116-4.038,0.221-8.077,0.355-12.115c0.068-2.018,0.223-4.035,0.286-6.053
	c0.108-3.382,0.201-6.764,0.248-10.146c0.016-1.051-0.294-1.335-1.367-1.387c-0.752-0.035-1.521,0.173-2.263,0.091
	c-3.549-0.391-7.052,0.241-10.575,0.39c-0.606,0.026-1.21,0.085-1.816,0.125c-0.664,0.044-1.004,0.353-0.975,1.063
	c0.067,1.616-0.048,3.254,0.179,4.845c0.78,5.465,0.544,10.989,1.041,16.47c0.243,2.662,0.225,5.346,0.342,8.021
	C107.071,67.042,107.183,67.426,107.252,67.814 M104.896,48.739c0.032-0.002,0.063-0.003,0.095-0.006
	c-0.14-3.124-0.261-6.25-0.438-9.372c-0.038-0.642-0.212-1.307-0.474-1.893c-0.125-0.278-0.61-0.558-0.93-0.557
	c-1.519,0.009-2.152,0.746-2.064,2.264c0.011,0.202,0.015,0.405,0.03,0.606c0.269,3.161,0.573,6.32,0.801,9.484
	c0.352,4.882,0.736,9.764,0.646,14.667c-0.021,1.104,0.027,2.211,0.067,3.315c0.021,0.566,0.099,1.117,0.772,1.325
	c1.421,0.439,2.435-0.239,2.399-1.703c-0.061-2.419-0.174-4.838-0.299-7.256C105.315,55.989,105.099,52.364,104.896,48.739
	 M118.357,33.958c0.235-1.485,0.04-1.737-1.258-1.683c-0.253,0.01-0.502,0.06-0.754,0.086c-1.606,0.169-3.214,0.329-4.818,0.506
	c-1.956,0.217-3.916,0.429-5.868,0.684c-0.826,0.108-1.543,0.431-1.729,1.544C108.771,34.713,113.51,34.339,118.357,33.958"/>
<path fill="none" stroke="#231F20" stroke-miterlimit="10" d="M122.667,68.884c-1.562,0.126-3.009,0.32-4.458,0.345
	c-2.978,0.054-5.958-0.007-8.937,0.031c-0.851,0.01-1.699,0.209-2.551,0.304c-1.151,0.127-2.304,0.301-3.459,0.339
	c-1.206,0.042-1.283-0.055-1.504-1.197c-0.114-0.59-0.153-1.198-0.18-1.802c-0.195-4.437-0.333-8.876-0.579-13.31
	c-0.26-4.683-0.578-9.365-0.959-14.041c-0.137-1.694,0.591-2.992,1.475-4.281c0.143-0.207,0.331-0.381,0.489-0.578
	c2.185-2.697,2.185-2.692,5.653-3.052c2.908-0.303,5.814-0.62,8.724-0.926c0.3-0.032,0.604-0.041,0.906-0.04
	c2.049,0.012,2.339,0.271,2.548,2.276c0.118,1.13,0.26,1.273,1.385,1.35c0.557,0.038,1.117,0.01,1.665,0.085
	c0.866,0.119,1.156,0.435,1.125,1.308c-0.146,4.084-0.315,8.164-0.489,12.246c-0.108,2.572-0.251,5.14-0.363,7.71
	c-0.17,3.873-0.329,7.747-0.489,11.621C122.651,67.717,122.667,68.163,122.667,68.884z M107.252,67.814
	c0.29,0.059,0.483,0.136,0.676,0.131c3.332-0.073,6.664-0.156,9.996-0.236c0.809-0.021,1.618-0.034,2.425-0.063
	c0.781-0.031,1.216-0.425,1.229-1.231c0.006-0.354,0.012-0.707,0.021-1.062c0.116-4.038,0.221-8.077,0.355-12.115
	c0.068-2.018,0.223-4.035,0.286-6.053c0.108-3.382,0.201-6.764,0.248-10.146c0.016-1.051-0.294-1.335-1.367-1.387
	c-0.752-0.035-1.521,0.173-2.263,0.091c-3.549-0.391-7.052,0.241-10.575,0.39c-0.606,0.026-1.21,0.085-1.816,0.125
	c-0.664,0.044-1.004,0.353-0.975,1.063c0.067,1.616-0.048,3.254,0.179,4.845c0.78,5.465,0.544,10.989,1.041,16.47
	c0.243,2.662,0.225,5.346,0.342,8.021C107.071,67.042,107.183,67.426,107.252,67.814z M104.896,48.739
	c0.032-0.002,0.063-0.003,0.095-0.006c-0.14-3.124-0.261-6.25-0.438-9.372c-0.038-0.642-0.212-1.307-0.474-1.893
	c-0.125-0.278-0.61-0.558-0.93-0.557c-1.519,0.009-2.152,0.746-2.064,2.264c0.011,0.202,0.015,0.405,0.03,0.606
	c0.269,3.161,0.573,6.32,0.801,9.484c0.352,4.882,0.736,9.764,0.646,14.667c-0.021,1.104,0.027,2.211,0.067,3.315
	c0.021,0.566,0.099,1.117,0.772,1.325c1.421,0.439,2.435-0.239,2.399-1.703c-0.061-2.419-0.174-4.838-0.299-7.256
	C105.315,55.989,105.099,52.364,104.896,48.739z M118.357,33.958c0.235-1.485,0.04-1.737-1.258-1.683
	c-0.253,0.01-0.502,0.06-0.754,0.086c-1.606,0.169-3.214,0.329-4.818,0.506c-1.956,0.217-3.916,0.429-5.868,0.684
	c-0.826,0.108-1.543,0.431-1.729,1.544C108.771,34.713,113.51,34.339,118.357,33.958z"/>
<path fill="#231F20" d="M145.798,30.873c0.505-0.037,0.901-0.089,1.298-0.093c1.103-0.008,1.458,0.318,1.535,1.404
	c0.02,0.301,0.01,0.606,0.004,0.908c-0.097,3.525-0.186,7.05-0.294,10.575c-0.103,3.326-0.178,6.653-0.365,9.975
	c-0.077,1.35-0.396,2.688-0.651,4.022c-0.049,0.263-0.304,0.486-0.497,0.775c-1.829-0.967-3.689-0.318-5.515-0.297
	c-2.421,0.026-4.84,0.188-7.259,0.285c-0.805,0.033-1.612,0.014-2.413,0.082c-1.64,0.143-2.15-0.275-2.158-1.873
	c-0.021-4.042,0.012-8.082-0.052-12.123c-0.059-3.729-0.23-7.455-0.302-11.183c-0.014-0.625,0.106-1.314,0.379-1.871
	c1.531-3.132,1.553-3.101,5.027-3.194c2.723-0.074,5.443-0.244,8.166-0.303c2.171-0.047,2.171-0.001,2.745,2.081
	C145.512,30.28,145.638,30.5,145.798,30.873 M135.022,49.948c-0.056,0.004-0.11,0.007-0.166,0.01
	c0.135,1.861,0.284,3.723,0.395,5.584c0.081,1.394,0.212,1.624,1.61,1.551c2.774-0.139,5.542-0.355,8.309-0.584
	c1.034-0.085,1.228-0.303,1.284-1.315c0.228-4.134,0.442-8.268,0.636-12.404c0.12-2.571,0.197-5.145,0.29-7.718
	c0.021-0.606,0.067-1.214,0.043-1.818c-0.045-1.103-0.286-1.305-1.398-1.254c-0.251,0.011-0.505,0.046-0.752,0.096
	c-2.647,0.539-5.323,0.505-8.005,0.41c-0.503-0.018-1.004-0.153-1.505-0.143c-1.37,0.028-1.721,0.411-1.649,1.743
	c0.086,1.613,0.201,3.224,0.29,4.837c0.055,1.005,0.07,2.014,0.13,3.02C134.689,44.625,134.858,47.287,135.022,49.948
	 M130.962,57.348c0.607-0.051,1.056-0.053,1.489-0.132c1.152-0.212,1.243-0.324,1.305-1.462c0.02-0.353,0.016-0.707-0.002-1.059
	c-0.091-1.711-0.229-3.42-0.276-5.133c-0.142-5.187-0.249-10.375-0.373-15.563c-0.006-0.251,0.034-0.561-0.095-0.737
	c-0.209-0.288-0.503-0.577-0.826-0.7c-0.309-0.119-0.699-0.051-1.05-0.02c-0.926,0.083-1.123,0.296-1.046,1.26
	c0.067,0.854,0.272,1.698,0.304,2.55c0.136,3.776,0.257,7.553,0.332,11.329c0.055,2.868,0.027,5.736,0.049,8.603
	C130.774,56.571,130.873,56.858,130.962,57.348 M131.996,30.904c0.422,0.048,0.803,0.113,1.186,0.131
	c1.713,0.081,3.425,0.207,5.138,0.202c1.612-0.005,3.222-0.147,4.834-0.24c0.62-0.035,0.912-0.384,0.853-0.999
	c-0.058-0.585-0.472-0.721-0.971-0.72c-0.152,0-0.302,0.021-0.454,0.029c-1.308,0.069-2.616,0.137-3.926,0.208
	c-1.863,0.101-3.724,0.2-5.586,0.308C132.466,29.857,131.992,30.051,131.996,30.904"/>
<path fill="none" stroke="#231F20" stroke-miterlimit="10" d="M145.798,30.873c0.505-0.037,0.901-0.089,1.298-0.093
	c1.103-0.008,1.458,0.318,1.535,1.404c0.02,0.301,0.01,0.606,0.004,0.908c-0.097,3.525-0.186,7.05-0.294,10.575
	c-0.103,3.326-0.178,6.653-0.365,9.975c-0.077,1.35-0.396,2.688-0.651,4.022c-0.049,0.263-0.304,0.486-0.497,0.775
	c-1.829-0.967-3.689-0.318-5.515-0.297c-2.421,0.026-4.84,0.188-7.259,0.285c-0.805,0.033-1.612,0.014-2.413,0.082
	c-1.64,0.143-2.15-0.275-2.158-1.873c-0.021-4.042,0.012-8.082-0.052-12.123c-0.059-3.729-0.23-7.455-0.302-11.183
	c-0.014-0.625,0.106-1.314,0.379-1.871c1.531-3.132,1.553-3.101,5.027-3.194c2.723-0.074,5.443-0.244,8.166-0.303
	c2.171-0.047,2.171-0.001,2.745,2.081C145.512,30.28,145.638,30.5,145.798,30.873z M135.022,49.948
	c-0.056,0.004-0.11,0.007-0.166,0.01c0.135,1.861,0.284,3.723,0.395,5.584c0.081,1.394,0.212,1.624,1.61,1.551
	c2.774-0.139,5.542-0.355,8.309-0.584c1.034-0.085,1.228-0.303,1.284-1.315c0.228-4.134,0.442-8.268,0.636-12.404
	c0.12-2.571,0.197-5.145,0.29-7.718c0.021-0.606,0.067-1.214,0.043-1.818c-0.045-1.103-0.286-1.305-1.398-1.254
	c-0.251,0.011-0.505,0.046-0.752,0.096c-2.647,0.539-5.323,0.505-8.005,0.41c-0.503-0.018-1.004-0.153-1.505-0.143
	c-1.37,0.028-1.721,0.411-1.649,1.743c0.086,1.613,0.201,3.224,0.29,4.837c0.055,1.005,0.07,2.014,0.13,3.02
	C134.689,44.625,134.858,47.287,135.022,49.948z M130.962,57.348c0.607-0.051,1.056-0.053,1.489-0.132
	c1.152-0.212,1.243-0.324,1.305-1.462c0.02-0.353,0.016-0.707-0.002-1.059c-0.091-1.711-0.229-3.42-0.276-5.133
	c-0.142-5.187-0.249-10.375-0.373-15.563c-0.006-0.251,0.034-0.561-0.095-0.737c-0.209-0.288-0.503-0.577-0.826-0.7
	c-0.309-0.119-0.699-0.051-1.05-0.02c-0.926,0.083-1.123,0.296-1.046,1.26c0.067,0.854,0.272,1.698,0.304,2.55
	c0.136,3.776,0.257,7.553,0.332,11.329c0.055,2.868,0.027,5.736,0.049,8.603C130.774,56.571,130.873,56.858,130.962,57.348z
	 M131.996,30.904c0.422,0.048,0.803,0.113,1.186,0.131c1.713,0.081,3.425,0.207,5.138,0.202c1.612-0.005,3.222-0.147,4.834-0.24
	c0.62-0.035,0.912-0.384,0.853-0.999c-0.058-0.585-0.472-0.721-0.971-0.72c-0.152,0-0.302,0.021-0.454,0.029
	c-1.308,0.069-2.616,0.137-3.926,0.208c-1.863,0.101-3.724,0.2-5.586,0.308C132.466,29.857,131.992,30.051,131.996,30.904z"/>
<path fill="#FFFFFF" d="M69.414,83.17c-0.066-0.4-0.143-0.644-0.14-0.887c0.042-3.938,0.223-7.881,0.109-11.814
	c-0.126-4.333-0.523-8.66-0.795-12.99c-0.047-0.756-0.06-1.514-0.087-2.271c-0.071-1.916-0.146-3.833-0.21-5.749
	c-0.02-0.606-0.015-1.212-0.011-1.819c0.008-1.357,0.043-2.714,0.027-4.071c-0.014-1.097,0.126-1.332,1.18-1.581
	c0.441-0.105,0.89-0.214,1.341-0.241c4.08-0.25,8.159-0.521,12.241-0.705c4.027-0.182,8.061-0.269,12.146-0.397
	c0.428,1.31,0.606,2.589,0.596,3.898c-0.036,3.938-0.112,7.878-0.118,11.816c-0.008,4.293,0.106,8.589,0.047,12.881
	c-0.039,2.873-0.298,5.745-0.446,8.617c-0.047,0.907-0.039,1.818-0.084,2.727c-0.062,1.268-0.381,1.585-1.653,1.641
	c-2.62,0.116-5.242,0.194-7.861,0.332c-4.735,0.25-9.469,0.544-14.203,0.786C70.807,83.38,70.115,83.233,69.414,83.17"/>
<path fill="#00ADDD" d="M63.014,83.491c-0.272-6.738-0.7-13.434-0.769-20.134c-0.067-6.707,0.223-13.42,0.36-20.338
	c1.21-0.233,2.375-0.481,3.55-0.67c0.472-0.077,0.765,0.228,0.824,0.693c0.058,0.451,0.1,0.906,0.098,1.358
	c-0.017,3.537-0.126,7.074-0.046,10.606c0.061,2.672,0.383,5.338,0.544,8.009c0.176,2.925,0.387,5.851,0.429,8.78
	c0.049,3.485-0.051,6.973-0.117,10.458c-0.019,1-0.202,1.187-1.142,1.226C65.592,83.527,64.435,83.491,63.014,83.491"/>
<path fill="#FFFFFF" d="M64.503,40.704c0.138-0.226,0.157-0.276,0.191-0.311c2.816-2.866,2.819-2.846,7.736-3.269
	c2.211-0.19,4.414-0.48,6.622-0.71c0.852-0.088,1.707-0.131,2.561-0.201c1.957-0.161,3.918-0.296,5.871-0.499
	c1.238-0.129,1.524,0.067,1.589,1.339c0.011,0.202,0.011,0.405,0.004,0.606c-0.037,1.222-0.197,1.433-1.381,1.501
	c-1.106,0.064-2.222,0.008-3.33,0.066c-2.618,0.137-5.237,0.277-7.85,0.477C72.556,40.007,68.601,40.362,64.503,40.704"/>
<path fill="#00ADDD" d="M34.029,39.23c0.257,1.328,0.641,2.692,0.768,4.08c0.464,5.076,0.838,10.16,1.256,15.239
	c0.087,1.057,0.194,2.115,0.334,3.164c0.334,2.5,0.696,4.996,1.041,7.496c0.042,0.299,0.051,0.603,0.056,0.905
	c0.002,0.149,0.01,0.333-0.068,0.442c-0.642,0.907-1.646,0.545-2.495,0.631c-0.62,0.062-1.167-0.218-1.242-1.02
	c-0.311-3.312-0.661-6.622-0.976-9.935c-0.182-1.907-0.359-3.819-0.472-5.731c-0.077-1.307-0.014-2.623-0.059-3.933
	c-0.111-3.179-0.268-6.354-0.37-9.534C31.747,39.308,31.991,39.122,34.029,39.23"/>
<path fill="#FFFFFF" d="M46.642,33.639c0.503,1.498,0.375,1.837-0.943,2.081c-1.535,0.283-3.085,0.487-4.631,0.698
	c-1.995,0.273-3.993,0.523-5.991,0.774c-0.476,0.061-0.955,0.088-1.49,0.136c0.487-1.911,0.969-2.478,2.456-2.574
	c3.371-0.217,6.726-0.523,10.044-1.181C46.268,33.538,46.472,33.617,46.642,33.639"/>
<path fill="#FFFFFF" d="M19.983,36.502c0.052-0.045,0.193-0.165,0.401-0.342c0.124,0.253,0.268,0.42,0.286,0.599
	c0.167,1.758,0.338,3.516,0.459,5.278c0.267,3.828,0.468,7.66,0.768,11.486c0.186,2.362,0.509,4.711,0.756,7.068
	c0.042,0.391,0.006,0.789,0.006,1.3c-0.452,0.119-0.872,0.287-1.305,0.334c-2.962,0.316-5.924,0.627-8.89,0.902
	c-3.13,0.289-3.268,0.252-3.579-2.79c-0.348-3.41-0.567-6.839-0.708-10.265c-0.122-2.979-0.04-5.964-0.084-8.945
	c-0.012-0.856-0.184-1.708-0.219-2.564c-0.044-1.089,0.167-1.308,1.27-1.43c3.06-0.337,6.12-0.685,9.185-0.974
	C18.807,36.114,19.312,36.354,19.983,36.502 M11.563,62.179c0.069-0.003,0.139-0.008,0.208-0.012
	c-0.026-0.366-0.053-0.731-0.078-1.099c-0.062,0.004-0.125,0.009-0.188,0.012C11.525,61.447,11.544,61.812,11.563,62.179"/>
<path fill="#00ADDD" d="M6.014,42.431c0.103,3.632,0.144,7.267,0.326,10.895c0.144,2.873,0.45,5.738,0.703,8.605
	c0.107,1.216-0.245,1.612-1.38,1.537c-0.685-0.047-1.023-0.433-1.073-1.051c-0.188-2.359-0.385-4.718-0.504-7.08
	c-0.173-3.428-0.282-6.859-0.418-10.29c-0.031-0.807-0.01-1.62-0.106-2.42c-0.143-1.2-0.425-2.383-0.54-3.583
	c-0.096-1.016,0.213-1.359,1.067-1.522c0.808-0.154,1.195,0.049,1.439,0.887c0.194,0.67,0.341,1.363,0.414,2.056
	c0.069,0.649,0.015,1.311,0.015,1.967C5.977,42.433,5.995,42.432,6.014,42.431"/>
<path fill="#FFFFFF" d="M16.678,32.899c0.409,1.659,0.323,1.939-1.134,2.151c-2.385,0.348-4.786,0.587-7.186,0.811
	c-1.535,0.143-3.08,0.178-4.624,0.26c0.64-1.717,2.169-2.287,3.842-2.488c2.793-0.336,5.602-0.555,8.404-0.811
	C16.216,32.803,16.463,32.875,16.678,32.899"/>
<path fill="#FFFFFF" d="M107.252,67.814c-0.069-0.389-0.181-0.772-0.196-1.16c-0.118-2.674-0.1-5.357-0.343-8.02
	c-0.497-5.48-0.26-11.004-1.041-16.47c-0.228-1.59-0.111-3.229-0.179-4.845c-0.029-0.71,0.311-1.019,0.975-1.063
	c0.606-0.04,1.21-0.1,1.816-0.125c3.523-0.148,7.026-0.781,10.575-0.39c0.741,0.082,1.511-0.125,2.263-0.091
	c1.073,0.052,1.383,0.335,1.365,1.387c-0.045,3.382-0.138,6.764-0.246,10.145c-0.063,2.021-0.218,4.036-0.286,6.054
	c-0.135,4.038-0.239,8.077-0.355,12.115c-0.01,0.354-0.016,0.708-0.021,1.062c-0.014,0.806-0.448,1.2-1.229,1.231
	c-0.807,0.029-1.616,0.043-2.425,0.063c-3.332,0.08-6.664,0.163-9.996,0.236C107.735,67.95,107.542,67.873,107.252,67.814"/>
<path fill="#00ADDD" d="M104.896,48.738c0.203,3.625,0.42,7.251,0.606,10.877c0.125,2.418,0.238,4.837,0.299,7.256
	c0.035,1.464-0.979,2.143-2.399,1.703c-0.674-0.208-0.752-0.759-0.772-1.325c-0.04-1.104-0.087-2.211-0.067-3.315
	c0.091-4.902-0.294-9.784-0.646-14.667c-0.228-3.165-0.532-6.324-0.801-9.484c-0.016-0.202-0.02-0.404-0.03-0.607
	c-0.088-1.517,0.546-2.254,2.064-2.263c0.319-0.001,0.805,0.279,0.93,0.557c0.262,0.586,0.436,1.251,0.474,1.893
	c0.177,3.122,0.298,6.248,0.438,9.372C104.959,48.736,104.928,48.737,104.896,48.738"/>
<path fill="#FFFFFF" d="M118.357,33.958c-4.848,0.381-9.587,0.755-14.428,1.138c0.187-1.113,0.903-1.436,1.729-1.544
	c1.952-0.255,3.912-0.467,5.868-0.684c1.604-0.178,3.212-0.337,4.818-0.506c0.252-0.026,0.501-0.076,0.754-0.086
	C118.397,32.22,118.593,32.472,118.357,33.958"/>
<path fill="#FFFFFF" d="M135.022,49.948c-0.164-2.661-0.333-5.322-0.489-7.984c-0.06-1.006-0.075-2.015-0.13-3.02
	c-0.089-1.613-0.204-3.224-0.29-4.837c-0.071-1.333,0.279-1.715,1.649-1.743c0.501-0.01,1.002,0.125,1.505,0.143
	c2.682,0.096,5.357,0.128,8.005-0.41c0.247-0.05,0.501-0.085,0.752-0.096c1.112-0.051,1.354,0.151,1.398,1.254
	c0.024,0.604-0.021,1.212-0.043,1.818c-0.093,2.574-0.17,5.147-0.29,7.718c-0.193,4.136-0.408,8.27-0.636,12.404
	c-0.057,1.012-0.25,1.23-1.284,1.315c-2.767,0.229-5.534,0.446-8.309,0.584c-1.398,0.072-1.529-0.157-1.61-1.551
	c-0.11-1.861-0.26-3.723-0.395-5.584C134.912,49.955,134.967,49.952,135.022,49.948"/>
<path fill="#00ADDD" d="M130.962,57.348c-0.089-0.489-0.188-0.777-0.189-1.065c-0.021-2.867,0.006-5.734-0.049-8.602
	c-0.075-3.777-0.196-7.554-0.332-11.33c-0.029-0.852-0.234-1.697-0.304-2.549c-0.077-0.964,0.12-1.178,1.046-1.26
	c0.351-0.031,0.741-0.099,1.05,0.019c0.323,0.125,0.617,0.414,0.826,0.701c0.129,0.177,0.089,0.487,0.095,0.738
	c0.124,5.188,0.231,10.376,0.375,15.562c0.046,1.713,0.184,3.422,0.274,5.133c0.018,0.352,0.02,0.707,0.002,1.059
	c-0.062,1.138-0.152,1.25-1.305,1.462C132.018,57.295,131.569,57.297,130.962,57.348"/>
<path fill="#FFFFFF" d="M131.996,30.904c-0.004-0.853,0.47-1.046,1.073-1.082c1.862-0.108,3.723-0.208,5.586-0.308
	c1.31-0.071,2.618-0.139,3.926-0.208c0.152-0.008,0.302-0.028,0.454-0.029c0.499,0,0.913,0.135,0.971,0.72
	c0.06,0.615-0.232,0.964-0.853,0.999c-1.612,0.093-3.222,0.235-4.834,0.24c-1.713,0.005-3.425-0.121-5.138-0.202
	C132.799,31.017,132.418,30.952,131.996,30.904"/>
<path fill="#231F20" d="M11.563,62.179c-0.019-0.366-0.039-0.731-0.058-1.099c0.062-0.003,0.125-0.008,0.188-0.012
	c0.025,0.367,0.052,0.732,0.078,1.099C11.702,62.171,11.633,62.176,11.563,62.179"/>
<path fill="none" stroke="#231F20" stroke-miterlimit="10" d="M11.563,62.179c-0.019-0.366-0.039-0.731-0.058-1.099
	c0.062-0.003,0.125-0.008,0.188-0.012c0.025,0.367,0.052,0.732,0.078,1.099C11.702,62.171,11.633,62.176,11.563,62.179z"/>
</svg>
