<?xml version="1.0" encoding="utf-8"?>
<!-- Generator: Adobe Illustrator 15.1.0, SVG Export Plug-In . SVG Version: 6.00 Build 0)  -->
<!DOCTYPE svg PUBLIC "-//W3C//DTD SVG 1.1//EN" "http://www.w3.org/Graphics/SVG/1.1/DTD/svg11.dtd">
<svg version="1.1" id="Layer_1" xmlns="http://www.w3.org/2000/svg" xmlns:xlink="http://www.w3.org/1999/xlink" x="0px" y="0px"
	 width="150px" height="114px" viewBox="0 0 150 114" enable-background="new 0 0 150 114" xml:space="preserve">
<g>
	<path fill="#00ADDD" d="M118.459,66.115c-2.921-1.247-7.732-0.281-10.848-0.257c-3.577,0.025-7.154,0.067-10.731,0.122
		c-8.177,0.125-16.352,0.33-24.525,0.6c-2.338,0.076-2.87,2.899-1.593,4.138c-1.034,0.995-1.318,2.483-0.67,3.847
		c1.079,2.271,3.755,2.148,5.851,2.195c7.641,0.168,15.298,0.086,22.938-0.021c4.079-0.058,8.155-0.144,12.231-0.26
		c2.413-0.067,5.886,0.523,8.081-0.624C122.297,74.232,121.562,67.44,118.459,66.115"/>
	<path fill="#231F20" d="M133.39,33.132c-0.229-0.346-1.093-0.59-1.518-0.432c-1.493,0.55-2.946,1.226-4.361,1.965
		c-1.32,0.684-2.499,0.565-3.686-0.267c-3.411-2.382-6.901-4.677-10.242-7.16c-1.523-1.132-2.993-1.383-4.754-0.904
		c-2.46,0.676-4.951,1.25-7.428,1.863c-0.031-0.118-0.07-0.236-0.109-0.354c0.99-1.831,1.988-3.647,2.963-5.485
		c0.416-0.779,0.951-0.905,1.808-0.645c0.998,0.307,2.066,0.361,3.104,0.55c0.416,0.071,0.872,0.126,1.219,0.33
		c1.532,0.92,1.523,0.937,2.161-0.714c0.73-1.878,1.438-2.184,3.301-1.461c1.744,0.676,3.686-0.661,3.843-2.491
		c0.345-3.985-2.767-6.445-5.564-7.694c-0.581-0.259-1.516-0.205-2.099,0.079c-1.674,0.841-3.245,1.886-4.872,2.829
		c-1.171,0.684-2.327,1.398-3.538,1.988c-0.636,0.315-1.335,0.307-1.642-0.596c-0.581-1.706-1.202-3.388-1.784-5.085
		c-0.314-0.943-0.149-1.761,0.542-2.554c0.566-0.645,1.021-1.431,1.36-2.224c0.856-2.044,0.047-2.484-1.54-2.106
		c-0.071,0.016-0.166-0.079-0.252-0.118c-0.299-0.589-0.66-1.368-1.148-1.463c-0.525-0.102-1.179,0.441-1.815,0.724
		c-0.109-0.252-0.148-0.456-0.267-0.597c-0.346-0.4-0.833-1.171-1.068-1.101c-0.52,0.149-1.03,0.652-1.321,1.147
		c-0.259,0.424-0.219,1.022-0.299,1.549c-0.133,0.99-0.55,1.478-1.674,1.587c-0.88,0.079-1.761,0.652-2.529,1.171
		c-0.865,0.597-0.559,1.305,0.243,1.682c0.824,0.393,1.744,0.566,2.601,0.904c0.464,0.189,1.171,0.448,1.258,0.801
		c0.433,1.76,0.684,3.56,1.046,5.581c-0.575-0.197-0.842-0.26-1.085-0.385c-1.722-0.888-3.396-1.887-5.171-2.649
		c-1.085-0.47-1.682-1.083-1.706-2.239c-0.008-0.582,0.117-1.179,0.024-1.737c-0.095-0.574-0.253-1.431-0.613-1.58
		c-0.44-0.172-1.259,0.117-1.674,0.487c-0.631,0.558-1.062,1.353-1.722,2.248c-1.069-0.943-2.075-1.895-3.168-2.743
		c-0.338-0.259-0.903-0.228-1.359-0.322c-0.079,0.503-0.221,1.014-0.221,1.525c0,0.331,0.196,0.667,0.347,1.1
		c-0.778,0-1.384-0.117-1.902,0.032c-0.605,0.173-1.14,0.589-1.698,0.896c0.323,0.448,0.558,1.021,0.991,1.312
		c0.777,0.519,1.666,0.873,2.664,1.375c-0.911,0.621-1.666,1.131-2.429,1.65c0.017,0.142,0.023,0.284,0.039,0.417
		c0.716,0.212,1.423,0.566,2.146,0.583c1.101,0.039,2.239-0.032,3.308-0.283c1.447-0.346,2.594-0.173,3.742,0.879
		c1.563,1.431,3.301,2.673,4.919,4.056c0.221,0.189,0.354,0.849,0.205,1.045c-1.454,1.926-2.846,3.922-4.52,5.642
		c-1.194,1.227-2.798,2.06-4.205,3.089c-1.94,1.423-3.032,3.357-2.781,5.738c0.268,2.499,1.477,4.59,4.023,5.415
		c1.549,0.503,3.224,0.918,4.834,0.905c3.136-0.04,6.279-0.323,9.407-0.676c3.073-0.346,5.902-0.071,8.677,1.555
		c4.252,2.483,7.585,6.012,11.129,9.307c0.707,0.66,1.093,0.699,1.814,0.173c0.701-0.512,1.486-0.905,2.265-1.275
		c1.965-0.95,3.969-1.814,5.91-2.805c0.526-0.267,0.997-0.786,1.305-1.305c0.565-0.927,0.149-1.799-0.92-1.893
		c-2.688-0.252-5.375-0.08-7.82,1.123c-1.123,0.551-1.689,0.291-2.287-0.573c-1.053-1.517-2.161-2.987-3.159-4.535
		c-1.062-1.65-2.02-3.364-3.026-5.053c0.088-0.133,0.166-0.275,0.253-0.409c1.131,0.283,2.412,0.331,3.387,0.904
		c2.586,1.501,5.062,3.198,7.529,4.896c0.825,0.567,1.549,1.093,2.641,0.856c3.717-0.801,5.831-3.662,8.08-6.311
		C133.782,34.531,133.672,33.564,133.39,33.132 M126.953,45.383c0.07,0.151,0.133,0.292,0.203,0.434
		c-1.328,0.708-2.64,1.438-3.977,2.114c-1.037,0.519-2.185,0.841-3.145,1.478c-1.225,0.817-1.814,0.291-2.45-0.85
		C120.358,46.28,123.438,45.196,126.953,45.383 M91.577,21.193c0.543-0.714,1.046-0.951,1.785-0.307
		c0.211,0.189,0.494,0.393,0.754,0.409c0.338,0.024,0.684-0.141,1.029-0.227c-0.086-0.346-0.062-0.817-0.282-1.006
		c-0.85-0.708-1.808-1.305-2.688-1.99c-2.052-1.61-4.001-3.371-6.162-4.824c-0.763-0.504-2.013-0.41-3.026-0.378
		c-0.889,0.024-1.776,0.346-2.774,0.252c0.212-0.159,0.456-0.292,0.621-0.48c0.244-0.275,0.651-0.707,0.574-0.888
		c-0.142-0.331-0.551-0.636-0.92-0.778c-1.006-0.393-2.044-0.699-3.034-1.17c1.478-0.739,3.16,1.407,4.582-0.589
		c0.331,0.251,0.582,0.479,0.864,0.661c1.525,0.958,1.965,0.723,2.1-1.022c0.039-0.487,0.329-0.959,0.754-1.478
		c-0.637,3.435,1.383,4.778,4.009,5.911c2.263,0.975,4.354,2.341,6.57,3.435c1.422,0.699,2.601,1.43,2.059,3.277
		c1.022,0.462,1.509,0.157,1.666-0.762c0.236-1.368-0.33-2.555-1.737-3.207c-0.888-0.409-1.257-0.849-1.359-1.894
		c-0.188-1.918-0.738-3.796-1.084-5.706c-0.181-1.006-0.708-1.509-1.705-1.675c-0.685-0.118-1.337-0.393-2.005-0.606
		c0.023-0.132,0.056-0.266,0.079-0.399c0.385,0.023,0.786-0.024,1.155,0.078c1.8,0.495,1.901,0.456,2.396-1.131h2.051
		c0.7,0.407,1.313,0.762,1.95,1.131c-0.031,0.062-0.048,0.244-0.15,0.314c-1.9,1.454-1.328,3.176-0.628,4.976
		c0.464,1.194,0.763,2.459,1.163,3.796c-0.691,0.102-1.147,0.165-2.051,0.29c0.699,0.496,1.045,0.896,1.478,1.014
		c1.689,0.473,3.395,0.81,5.077-0.11c0.754-0.407,1.509-0.84,2.451-0.33c0.299,0.158,0.826-0.094,1.242-0.196
		c0.495-0.125,0.975-0.29,1.415-0.431c0.149,0.235,0.251,0.322,0.235,0.393c-0.409,2.012-0.417,1.971,1.596,1.579
		c0.416-0.078,1.061,0.095,1.32,0.393c0.385,0.449,0.598,1.039-0.031,1.66c-1.077,1.068-1.753,2.836-3.812,1.706
		c-0.221-0.119-0.574-0.025-0.857-0.008c-1.139,0.085-1.603-0.433-1.485-1.558c0.056-0.542,0.008-1.091,0.008-1.634
		c-0.196-0.046-0.393-0.094-0.589-0.134c-0.292,0.723-0.591,1.447-0.864,2.138c-0.236-0.205-0.543-0.464-0.85-0.73
		c-0.243,0.385-0.526,0.747-0.723,1.155c-1.092,2.256-2.043,4.598-3.277,6.775c-1.101,1.933-3.104,2.584-5.219,2.876
		c-1.179,0.157-2.351,0.487-3.529,0.494c-2.248,0.017-3.866-1.233-5.124-2.703C88.324,25.351,89.982,23.292,91.577,21.193
		 M101.025,30.294c-0.63,0.165-1.258,0.33-1.895,0.495c-0.031-0.188-0.071-0.369-0.11-0.558c0.637-0.125,1.273-0.251,1.902-0.377
		C100.962,30.003,100.993,30.146,101.025,30.294 M116.24,45.156c0.078,0.126,0.213,0.227,0.251,0.362
		c0.134,0.503,0.52,1.265,0.314,1.485c-0.644,0.715-1.171-0.008-1.689-0.417c-2.122-1.69-4.26-3.348-6.35-5.062
		c-3.891-3.191-8.284-3.285-12.952-2.398c-3.584,0.685-7.208,0.779-10.8-0.25c-3.662-1.053-5.392-5.211-3.245-8.158
		c0.455-0.629,1.187-1.054,1.689-1.478c3.687,3.262,7.442,5.392,12.347,4.023c2.42-0.675,4.851-1.343,7.302-1.933
		c3.348-0.81,3.827-0.315,5.855,2.617C111.509,37.604,113.827,41.416,116.24,45.156 M123.031,37.085
		c-0.551,0.714-1.015,0.204-1.494-0.08c-1.618-0.966-3.166-2.098-4.881-2.853c-1.336-0.589-2.867-0.873-4.338-1.021
		c-1.132-0.118-2.066-0.267-2.704-1.312c-0.219-0.362-0.597-0.628-0.896-0.951c-1.21-1.344-2.656-1.887-4.448-1.36
		c-0.439,0.134-0.92,0.149-1.383,0.212c-0.017-0.086-0.032-0.173-0.048-0.259c2.413-0.589,4.811-1.383,7.262-1.674
		c1.006-0.118,2.232,0.707,3.215,1.328c1.745,1.108,3.363,2.413,5.069,3.592c1.392,0.966,2.838,1.846,4.235,2.797
		C123.188,35.89,123.557,36.385,123.031,37.085 M126.057,39.372c-0.432,0.166-1.062-0.141-1.604-0.228
		c0.164-0.464,0.283-0.935,0.504-1.367c0.117-0.244,0.369-0.472,0.62-0.597c1.84-0.943,3.693-1.879,5.557-2.782
		c0.228-0.11,0.542-0.056,0.817-0.079c0.062,0.119,0.134,0.228,0.196,0.346C130.237,36.385,128.54,38.382,126.057,39.372"/>
	<path fill="#00ADDD" d="M123.031,37.084c-0.551,0.715-1.015,0.205-1.494-0.079c-1.618-0.966-3.166-2.098-4.881-2.852
		c-1.336-0.589-2.867-0.873-4.338-1.022c-1.132-0.118-2.066-0.267-2.704-1.312c-0.219-0.362-0.597-0.629-0.896-0.951
		c-1.21-1.344-2.656-1.887-4.448-1.36c-0.439,0.134-0.92,0.149-1.383,0.212c-0.017-0.085-0.032-0.173-0.048-0.259
		c2.413-0.589,4.811-1.384,7.262-1.674c1.006-0.118,2.232,0.707,3.215,1.328c1.745,1.109,3.363,2.413,5.069,3.592
		c1.392,0.966,2.838,1.846,4.236,2.797C123.188,35.89,123.557,36.385,123.031,37.084"/>
	<path fill="#00ADDD" d="M116.806,47.003c-0.644,0.715-1.171-0.008-1.689-0.417c-2.121-1.69-4.26-3.348-6.35-5.062
		c-3.891-3.191-8.284-3.285-12.952-2.398c-3.584,0.685-7.208,0.779-10.8-0.25c-3.662-1.053-5.392-5.211-3.245-8.158
		c0.455-0.629,1.187-1.054,1.689-1.478c3.687,3.262,7.442,5.392,12.347,4.024c2.421-0.676,4.851-1.344,7.302-1.934
		c3.348-0.81,3.827-0.315,5.855,2.617c2.546,3.654,4.864,7.466,7.277,11.207c0.078,0.126,0.213,0.227,0.251,0.362
		C116.625,46.02,117.011,46.783,116.806,47.003"/>
	<path fill="#231F20" d="M80.313,58.656c0.658,1.293,0.658,1.293-0.993,6.013c1.818,0.768,3.6,0.083,5.37-0.168
		c0.188-0.026,0.308-0.726,0.41-1.124c0.357-1.396,0.605-2.827,1.086-4.176c0.176-0.49,0.883-0.792,1.349-1.18
		c0.354,0.549,0.956,1.072,1.011,1.647c0.104,1.079-0.066,2.196-0.207,3.286c-0.06,0.457-0.333,0.888-0.577,1.496
		c1.209,0.122,2.287,0.232,3.326,0.338c0-1.31-0.268-2.607,0.076-3.717c0.332-1.067,1.296-1.938,2.172-2.823
		c0.9,1.549,1.054,3.057,0.705,4.657c-0.4,1.844-0.36,1.866,1.527,1.953c0.048,0.002,0.097,0.003,0.146,0.005
		c2.919,0.126,2.919,0.126,2.876-2.782c-0.025-1.677,0.636-3.031,1.921-3.862c1.063,0.773,0.999,1.9,0.852,3.002
		c-0.146,1.086-0.412,2.156-0.633,3.275c1.829,0,3.459,0.06,5.074-0.063c0.251-0.019,0.539-0.854,0.632-1.345
		c0.175-0.931,0.018-1.977,0.389-2.8c0.251-0.558,1.169-0.813,1.789-1.205c0.329,0.575,0.892,1.135,0.939,1.734
		c0.093,1.139-0.111,2.302-0.214,3.793c0.967,0,1.917,0.088,2.831-0.051c0.294-0.046,0.604-0.658,0.721-1.064
		c0.347-1.221,0.651-2.438,1.895-3.166c1.072,0.719,1.203,1.835,1.006,2.854c-0.301,1.551,0.33,2.107,1.738,2.271
		c0.457,0.055,0.947,0.286,1.306,0.579c0.238,0.196,0.269,0.645,0.393,0.98c-0.301,0.104-0.616,0.322-0.903,0.292
		c-0.771-0.081-1.524-0.322-2.295-0.39c-0.427-0.038-1.155,0.027-1.25,0.255c-0.194,0.459-0.166,1.1-0.011,1.595
		c0.169,0.536,0.688,0.961,0.86,1.496c0.103,0.319-0.168,0.757-0.271,1.144c-0.323-0.137-0.735-0.193-0.95-0.427
		c-0.386-0.422-0.652-0.95-1.021-1.516c-0.854,0.454-1.639,0.905-2.451,1.299c-1.758,0.854-2.439,0.571-3.2-1.243
		c-0.182-0.433-0.438-0.833-0.625-1.184c-1.422,0.697-2.786,1.934-4.009,1.808c-1.248-0.129-2.357-1.596-3.473-2.435
		c-1.16,0.74-2.394,1.717-3.783,2.362c-1.378,0.64-2.223-0.015-3.637-2.407c-1.069,0.788-2.115,1.604-3.206,2.35
		c-1.287,0.88-1.794,0.734-2.501-0.622c-0.134-0.257-0.291-0.515-0.362-0.793c-0.292-1.144-0.82-1.093-1.659-0.462
		c-0.803,0.604-1.662,1.21-2.592,1.553c-1.809,0.664-2.046,0.511-3.056-1.118c-0.226-0.364-0.438-0.736-0.72-1.212
		c-0.866,1.112-1.702,2.186-2.536,3.26c-0.127-0.089-0.252-0.177-0.378-0.264c0.721-1.128,1.441-2.254,2.266-3.541
		c-2.351-0.507-4.364-0.009-6.327,0.606c-0.305,0.096-0.513,0.989-0.502,1.509c0.069,3.441,0.357,6.885,0.293,10.319
		c-0.115,6.156-0.394,12.311-0.673,18.462c-0.192,4.209-0.939,8.404-0.229,12.632c0.077,0.464,0.01,0.953,0.01,1.606
		c1.833,0,3.658,0.088,5.472-0.018c5.521-0.315,11.032-0.858,16.555-1.015c4.146-0.117,8.321,0.046,12.455,0.411
		c4.886,0.433,9.754,0.625,14.597,0.397c0.147-2.394,0.272-4.65,0.434-6.903c0.081-1.146,0.073-2.188-1.567-2.228
		c0.104-0.287,0.123-0.568,0.229-0.605c1.484-0.519,1.405-1.706,1.398-2.96c-0.055-8.451-0.058-16.903-0.101-25.355
		c-0.007-1.453-0.175-2.91-0.175-4.363c0-0.613,0.241-1.226,0.373-1.838c0.125,0.011,0.25,0.021,0.376,0.033
		c0.112,0.189,0.306,0.369,0.323,0.567c0.301,3.333,0.755,6.664,0.822,10.003c0.088,4.458-0.176,8.921-0.193,13.383
		c-0.011,2.767,0.178,5.531,0.234,8.299c0.021,0.972,0.484,1.25,1.378,1.211c5.716-0.257,11.432-0.503,17.148-0.71
		c0.463-0.018,0.936,0.262,1.404,0.403c-0.396,0.344-0.754,0.909-1.195,0.988c-1.141,0.2-2.316,0.215-3.479,0.248
		c-4.457,0.126-8.915,0.207-13.371,0.351c-1.8,0.057-2.017,0.368-2.149,2.194c-0.189,2.591-0.377,5.185-0.708,7.761
		c-0.053,0.409-0.807,0.941-1.312,1.041c-1.134,0.222-2.321,0.329-3.475,0.269c-4.447-0.234-8.888-0.673-13.338-0.809
		c-4.401-0.132-8.814-0.058-13.22,0.044c-4.847,0.111-9.691,0.36-14.537,0.542c-1.553,0.058-3.105,0.112-4.658,0.111
		c-0.621,0-1.242-0.154-1.519-0.193c0.05-1.337,0.116-2.331,0.114-3.325c-0.002-1.555-0.111-3.109-0.06-4.66
		c0.036-1.132-0.395-1.593-1.512-1.58c-2.089,0.023-4.177-0.014-6.267-0.016c-4.124-0.005-8.248,0.002-12.373-0.012
		c-0.506-0.002-1.013-0.103-1.52-0.157c-0.057-0.16-0.112-0.319-0.168-0.48c0.508-0.28,1.003-0.769,1.528-0.805
		c2.903-0.191,5.813-0.343,8.722-0.376c3.544-0.04,7.09,0.014,10.635,0.104c1.239,0.031,1.314-0.733,1.355-1.591
		c0.268-5.573,0.61-11.145,0.754-16.721c0.116-4.466-0.013-8.938-0.035-13.406c-0.003-0.438-0.011-0.875-0.035-1.312
		c-0.132-2.57-0.136-2.582,2.476-3.062c1.384-0.254,2.771-0.521,4.169-0.66c1.887-0.19,1.893-0.14,1.719-2.106
		C77.576,61.157,78.466,59.599,80.313,58.656 M108.521,66.237c-0.144,1.319,0.168,2.558,1.096,3.021
		c0.633,0.315,1.813-0.19,2.605-0.604c0.363-0.189,0.569-1.064,0.492-1.576c-0.047-0.329-0.715-0.751-1.145-0.803
		C110.586,66.156,109.576,66.237,108.521,66.237 M101.566,66.107c-0.046,0.188-0.093,0.374-0.139,0.56
		c0.411,1.032,1.03,2.195,2.217,2.042c0.965-0.126,1.835-1.058,2.705-1.691c0.056-0.041-0.247-0.86-0.405-0.868
		C104.488,66.078,103.026,66.107,101.566,66.107 M91.271,66.458c-1.254-0.167-2.247-0.384-3.24-0.387
		c-0.337,0-1.006,0.71-0.957,0.81c0.371,0.74,0.115,2.264,1.327,2.021C89.498,68.685,90.706,68.018,91.271,66.458 M98.424,66.462
		h-4.778c0.022,1.246,0.666,1.929,1.7,2.119C96.759,68.841,97.815,68.107,98.424,66.462 M84.83,66.291
		c-1.97,0.162-3.559,0.294-5.148,0.425c-0.066,0.139-0.131,0.275-0.196,0.414c0.476,0.462,0.939,1.299,1.431,1.314
		C82.384,68.491,83.713,67.941,84.83,66.291 M86.906,59.568c-0.557,1.589-1.176,3.002-0.442,4.677
		C87.67,62.938,87.857,61.107,86.906,59.568 M92.842,60.401c-1.114,1.029-1.131,1.662,0,3.017V60.401z M108.366,60.674
		c-0.169-0.016-0.335-0.033-0.503-0.05c-0.796,0.868-0.26,1.75-0.037,2.63c0.137,0.005,0.272,0.012,0.407,0.017
		C108.278,62.404,108.322,61.54,108.366,60.674 M79.795,60.342c-0.225-0.042-0.448-0.087-0.673-0.13
		c-0.185,0.881-0.369,1.764-0.554,2.646c0.213,0.045,0.423,0.09,0.635,0.136C79.401,62.108,79.598,61.225,79.795,60.342
		 M114.615,63.106c-0.151-0.027-0.304-0.056-0.456-0.085l-0.297,1.453c0.178,0.032,0.355,0.065,0.532,0.099
		C114.469,64.084,114.542,63.596,114.615,63.106"/>
	<path fill="#231F20" d="M89.538,80.266c-0.056,1.133-0.106,2.264-0.168,3.396c-0.092,1.651,0.098,1.865,1.727,1.852
		c1.4-0.012,2.799-0.055,4.197-0.056c1.075-0.002,0.854-0.681,0.709-1.308c-0.193-0.833-0.513-1.681,0.684-2.423
		c0.138,0.989,0.293,1.816,0.357,2.654c0.071,0.887,0.491,1.148,1.348,1.05c0.664-0.078,1.357-0.054,2.021,0.048
		c1.169,0.178,1.587-0.278,1.556-1.432c-0.026-0.962,0.124-1.927,0.195-2.891c0.239,0.006,0.479,0.012,0.72,0.018
		c0,0.599,0.035,1.2-0.006,1.797c-0.149,2.113,0.135,2.447,2.27,2.562c0.387,0.022,0.78-0.008,1.165,0.03
		c1.182,0.119,1.994-0.235,2.157-1.546c0.026-0.22,0.189-0.42,0.331-0.715c0.848,0.617-0.325,2.331,1.379,2.287
		c1.02-0.026,2.044-0.058,3.06,0.012c1.608,0.106,0.772-1.709,1.726-2.135c0.121,0.083,0.325,0.15,0.333,0.238
		c0.109,1.122-0.189,2.4,1.662,2.494c0.558,0.029,0.412,0.94-0.163,1.022c-1.505,0.21-1.566,1.138-1.637,2.368
		c-0.08,1.382,0.467,2.085,1.681,2.471c0.108,0.034,0.169,0.215,0.339,0.45c-2.605,0.885-1.487,3.082-1.697,4.813
		c-0.029,0.239,0.439,0.624,0.758,0.793c0.326,0.176,0.776,0.112,1.122,0.265c0.267,0.117,0.455,0.408,0.678,0.622
		c-0.224,0.226-0.442,0.461-0.679,0.673c-0.063,0.058-0.186,0.048-0.279,0.071c-2.149,0.505-2.149,0.505-2.156,2.725
		c-0.004,1.068,0.041,2.142-0.039,3.202c-0.033,0.453-0.33,0.883-0.507,1.323c-0.22-0.048-0.44-0.094-0.66-0.142
		c0-0.839-0.003-1.679,0.002-2.517c0.005-1.021-0.004-2.041,0.028-3.06c0.025-0.834-0.289-1.211-1.173-1.279
		c-3.367-0.262-3.374-0.29-3.724,3.027c-0.07,0.675,0.024,1.368-0.076,2.034c-0.086,0.557-0.347,1.086-0.529,1.627
		c-0.173-0.024-0.346-0.047-0.519-0.07c-0.054-0.477-0.166-0.955-0.147-1.429c0.047-1.114,0.165-2.226,0.236-3.341
		c0.024-0.381,0.153-0.924-0.041-1.125c-1.067-1.106-2.376-0.148-3.574-0.256c-0.271-0.024-0.799,0.625-0.87,1.023
		c-0.151,0.852-0.029,1.746-0.117,2.613c-0.051,0.507-0.292,0.994-0.446,1.491c-0.19-0.023-0.381-0.047-0.57-0.068
		c-0.038-0.921-0.102-1.844-0.105-2.766c-0.011-2.368,0-2.368-2.295-2.297c-0.292,0.011-0.587,0.044-0.874,0.015
		c-1.177-0.129-1.559,0.447-1.484,1.545c0.059,0.87,0.067,1.749,0.024,2.62c-0.023,0.478-0.201,0.947-0.31,1.42
		c-0.187-0.001-0.371-0.002-0.558-0.002c-0.071-0.698-0.176-1.396-0.209-2.096c-0.184-3.791,0.384-3.195-3.479-3.287
		c-0.048-0.001-0.097,0.001-0.146,0.002c-2.664,0.034-2.639,0.036-2.852,2.65c-0.052,0.638-0.315,1.259-0.482,1.888
		c-0.162-0.033-0.325-0.067-0.487-0.1c0-0.849-0.045-1.7,0.011-2.545c0.074-1.083-0.272-1.665-1.461-1.591
		c-1.064,0.065-2.135,0.043-3.203,0.069c-1.01,0.024-1.455,0.503-1.446,1.557c0.009,0.956-0.178,1.912-0.278,2.868
		c-0.231-0.013-0.463-0.027-0.695-0.04c0-0.966-0.027-1.932,0.009-2.894c0.044-1.199-0.562-1.592-1.688-1.613
		c-3.241-0.059-3.236-0.082-3.46,3.158c-0.026,0.355-0.152,0.703-0.231,1.056c-0.166,0.001-0.332,0.004-0.497,0.006
		c-0.044-0.737-0.087-1.478-0.13-2.216c-0.093-1.586,0.306-2.198-1.914-2.283c-0.501-0.02-0.989-0.373-1.484-0.572
		c0.019-0.178,0.038-0.358,0.055-0.536c0.557-0.041,1.113-0.121,1.668-0.112c1.056,0.014,1.649-0.347,1.6-1.527
		c-0.046-1.065-0.012-2.14,0.073-3.204c0.09-1.104-0.369-1.617-1.453-1.705c-0.737-0.061-1.465-0.218-2.198-0.33
		c-0.015-0.171-0.031-0.341-0.045-0.512c0.491-0.125,0.981-0.352,1.474-0.358c2.267-0.024,2.497-0.229,2.51-2.49
		c0.001-0.339-0.038-0.682-0.012-1.019c0.103-1.271-0.414-1.94-1.745-1.888c-0.288,0.012-0.609,0.019-0.858-0.095
		c-0.234-0.107-0.59-0.459-0.548-0.559c0.111-0.267,0.387-0.612,0.635-0.646c0.664-0.09,1.349-0.03,2.264-0.03v-4.337
		c0.159-0.024,0.317-0.051,0.478-0.074c0.121,0.444,0.31,0.883,0.347,1.335c0.062,0.723-0.097,1.484,0.07,2.173
		c0.112,0.457,0.583,1.086,0.982,1.162c0.986,0.187,2.04,0.211,3.031,0.064c0.351-0.054,0.782-0.766,0.854-1.227
		c0.136-0.878,0.04-1.792,0.04-2.691c0.18-0.031,0.359-0.061,0.538-0.092c0.104,0.531,0.288,1.061,0.299,1.592
		c0.048,2.202,0.027,2.218,2.22,2.456c0.573,0.064,1.166,0.058,1.739-0.008c1.93-0.22,2.424-0.888,1.938-2.796
		c-0.257-1.011-0.002-1.756,0.633-2.44C89.22,80.214,89.379,80.239,89.538,80.266 M92.844,98.958c0.776,0,1.562,0.067,2.324-0.028
		c0.364-0.046,0.976-0.389,0.986-0.62c0.077-1.494,0.017-2.993,0.003-4.492c-1.056-0.188-2.11-0.374-3.166-0.561
		c-0.097-0.017-0.192-0.025-0.291-0.031c-2.833-0.188-2.833-0.188-2.796,2.639c0.002,0.048,0.003,0.098,0.004,0.145
		C89.947,98.978,89.947,98.978,92.844,98.958 M82.845,96.186c0.021,3.488-0.317,3.038,3.143,3.121c0.049,0.001,0.099,0,0.145,0
		c2.916-0.005,3-0.1,2.688-3.079c-0.291-2.771-0.305-2.623-3.122-2.907C82.354,92.983,82.909,93.565,82.845,96.186 M79.052,99.302
		c2.508,0.141,2.509,0.141,2.755-2.383c0.056-0.577,0.128-1.153,0.143-1.733c0.043-1.789-0.169-1.999-1.945-2.022
		c-3.394-0.044-3.394-0.044-3.489,3.365C76.441,99.153,76.441,99.153,79.052,99.302 M92.431,91.646
		c0.003,0.021,0.004,0.045,0.006,0.068c0.963-0.09,1.932-0.136,2.884-0.292c0.318-0.053,0.745-0.328,0.857-0.608
		c1.19-2.946-0.183-4.708-3.297-4.289c-3.185,0.432-3.137,0.431-3.047,3.652c0.033,1.161,0.483,1.58,1.58,1.474
		C91.749,91.619,92.091,91.646,92.431,91.646 M85.67,91.907c0.906,0,1.503,0.085,2.059-0.03c0.35-0.073,0.893-0.438,0.904-0.689
		c0.05-1.25,0.035-2.517-0.148-3.75c-0.047-0.315-0.766-0.683-1.218-0.755c-0.85-0.134-1.733-0.018-2.595-0.1
		c-1.943-0.181-2.108-0.058-2.129,1.86C82.51,91.828,82.651,91.971,85.67,91.907 M103.28,95.829c0,0.58-0.12,1.195,0.039,1.727
		c0.121,0.412,0.537,0.95,0.912,1.037c2.972,0.684,4.058-0.225,3.992-3.222c-0.003-0.145-0.02-0.291-0.004-0.436
		c0.119-1.188-0.411-1.72-1.605-1.902C103.582,92.569,103.263,92.796,103.28,95.829 M102.116,95.854
		c0.018-2.748,0.018-2.748-2.667-2.698c-0.096,0.003-0.194-0.004-0.289,0.008c-0.74,0.088-1.739-0.122-1.862,0.94
		c-0.174,1.513-0.396,3.078,0.567,4.464c0.043,0.063,0.175,0.066,0.268,0.096C100.642,99.479,102.102,98.451,102.116,95.854
		 M109.442,95.729c-0.022,0.446-0.09,0.979-0.058,1.507c0.019,0.314,0.184,0.888,0.295,0.891c1.372,0.039,2.749,0.024,4.119-0.064
		c0.166-0.013,0.377-0.535,0.43-0.844c0.089-0.521,0.083-1.059,0.093-1.59c0.04-2.341-0.086-2.48-2.404-2.471
		C109.614,93.17,109.158,92.791,109.442,95.729 M111.785,91.638c0-0.035,0-0.068,0-0.102c0.289,0,0.59-0.052,0.864,0.009
		c1.344,0.299,1.767-0.346,1.675-1.568c-0.02-0.289,0.01-0.58,0.014-0.871c0.025-1.828-0.074-1.938-1.903-2.132
		c-3.529-0.37-3.577-0.298-3.35,3.278c0.062,0.976,0.424,1.43,1.398,1.389C110.916,91.622,111.351,91.638,111.785,91.638
		 M77.005,89.251c0,0.338,0.056,0.687-0.01,1.012c-0.236,1.153,0.342,1.429,1.358,1.427c3.939-0.004,3.251,0.348,3.339-3.282
		c0.006-0.242-0.018-0.484-0.023-0.725c-0.02-0.752-0.388-1.107-1.152-1.196C77.802,86.173,76.985,86.8,77.005,89.251
		 M97.164,88.893c0.089,2.67,0.089,2.67,3.157,2.553c1.744-0.066,1.802-0.157,1.733-2.774c-0.047-1.815-0.64-2.22-3.091-2.101
		C97.269,86.65,97.097,86.873,97.164,88.893 M105.686,91.702c0.736-0.303,1.986-0.473,2.106-0.934
		c0.287-1.117,0.211-2.415-0.081-3.544c-0.082-0.313-1.437-0.297-2.205-0.43c-0.096-0.018-0.192-0.021-0.289-0.028
		c-2.255-0.173-2.451,0.025-2.213,2.232C103.257,91.346,103.257,91.346,105.686,91.702"/>
	<path fill="#231F20" d="M28.958,100.506c3.551-12.119,9.557-22.987,17.694-32.585c7.56-8.917,15.833-17.16,25.869-23.337
		l0.482,0.485c-0.337,0.372-0.631,0.8-1.02,1.107c-4.559,3.611-9.429,6.891-13.625,10.881c-4.975,4.728-9.731,9.788-13.935,15.204
		c-5.745,7.404-10.545,15.459-13.458,24.49c-0.435,1.348-1.113,2.618-1.679,3.924L28.958,100.506z"/>
	<path fill="#231F20" d="M102.989,75.907c-4.248,0.315-8.495,0.682-12.748,0.919c-1.435,0.079-2.896-0.109-4.325-0.307
		c-0.401-0.055-0.735-0.583-1.101-0.895c0.453-0.273,0.9-0.774,1.362-0.787c3.382-0.103,6.766-0.058,10.146-0.157
		c3.09-0.092,6.175-0.309,9.264-0.464c0.29-0.015,0.635-0.084,0.86,0.041c0.376,0.209,0.678,0.553,1.011,0.841
		c-0.326,0.294-0.632,0.808-0.982,0.841c-1.153,0.107-2.322,0.041-3.485,0.041C102.99,75.956,102.99,75.931,102.989,75.907"/>
	<path fill="#231F20" d="M16.141,94.515c1.594,1.927,3.11,3.782,4.655,5.613c0.446,0.527,0.632,1.092-0.026,1.437
		c-0.281,0.146-0.974-0.105-1.25-0.396c-1.253-1.327-2.449-2.712-3.621-4.113C14.996,95.979,15.067,95.409,16.141,94.515"/>
	<path fill="#231F20" d="M6.865,103.227c0.859-1.307,8.626-2.457,10.404-1.566c-0.432,0.372-0.756,0.896-1.145,0.949
		c-2.667,0.356-5.344,0.626-8.021,0.887C7.754,103.53,7.385,103.347,6.865,103.227"/>
	<path fill="#231F20" d="M22.709,91.634c0.128,0.251,0.272,0.497,0.381,0.756c0.823,1.96,1.679,3.908,2.424,5.898
		c0.14,0.377-0.166,0.924-0.268,1.392c-0.35-0.24-0.866-0.403-1.021-0.735c-0.844-1.791-1.654-3.602-2.347-5.453
		c-0.173-0.465,0.122-1.105,0.201-1.665C22.289,91.763,22.5,91.698,22.709,91.634"/>
	<path fill="#231F20" d="M31.953,102.885c1.739-3.626,4.808-6.1,7.607-8.805c0.154,0.086,0.309,0.174,0.463,0.262
		c-0.221,0.418-0.364,0.909-0.676,1.245c-1.415,1.517-2.902,2.967-4.314,4.488c-0.587,0.632-1.024,1.4-1.576,2.069
		c-0.337,0.409-0.76,0.749-1.146,1.118C32.191,103.136,32.073,103.01,31.953,102.885"/>
	<path fill="#231F20" d="M43.281,100.564c-0.43,1.092-6.271,4.287-7.686,4.293C35.852,103.354,40.8,100.542,43.281,100.564"/>
	<path fill="#231F20" d="M110.532,18.316c0.644-0.18,1.29-0.361,1.934-0.542c0.05,0.251,0.229,0.612,0.126,0.737
		c-0.527,0.636-1.163,0.969-1.914,0.385L110.532,18.316z"/>
</g>
</svg>
