<?xml version="1.0" encoding="utf-8"?>
<!-- Generator: Adobe Illustrator 15.1.0, SVG Export Plug-In . SVG Version: 6.00 Build 0)  -->
<!DOCTYPE svg PUBLIC "-//W3C//DTD SVG 1.1//EN" "http://www.w3.org/Graphics/SVG/1.1/DTD/svg11.dtd">
<svg version="1.1" id="Layer_1" xmlns="http://www.w3.org/2000/svg" xmlns:xlink="http://www.w3.org/1999/xlink" x="0px" y="0px"
	 width="549px" height="332px" viewBox="0 0 549 332" enable-background="new 0 0 549 332" xml:space="preserve">
<path fill="#231F20" d="M274.04,89.264c-0.028-0.621,0.149-1.215,0.463-1.729c-0.181,0.017-0.362,0.038-0.544,0.055
	c-1.403,0.135-1.998-0.487-2.341-1.93c-0.559-2.352-1.304-4.708-2.347-6.88c-0.861-1.797-2.288-2.144-4.011-1.084
	c-1.572,0.964-2.903,2.332-4.303,3.564c-1.21,1.066-2.63,2.021-3.489,3.33c-1.486,2.267-3.339,2.087-5.701,1.996
	c-4.09-0.155-8.187-0.14-12.284-0.103c0.032,0.058,0.043,0.127,0.072,0.187c-0.027,0.007-0.049-0.001-0.076,0.008
	c-0.104,0.08-0.222,0.094-0.354,0.036c-0.814-0.059-1.509,0.737-1.509,1.51c0,0.865,0.693,1.449,1.509,1.51
	c0.175,0.012,0.347,0.004,0.519-0.016c-0.063,0.161-0.108,0.329-0.193,0.479c3.309-0.056,6.619-0.079,9.924,0.025
	c1.571,0.049,3.164,0.566,4.675,1.083c2.039,0.694,3.128,0.471,4.688-1.199c2.082-2.228,4.206-4.414,6.32-6.612
	c0.142-0.146,0.352-0.229,0.794-0.507c0.334,1.733,0.545,3.32,0.953,4.854c0.911,3.432,2.975,4.404,5.988,4.193
	c0.831-0.059,1.663-0.101,2.494-0.151C274.557,91.244,274.087,90.313,274.04,89.264"/>
<path fill="#231F20" d="M280.809,221.715C280.708,221.631,280.67,221.525,280.809,221.715"/>
<path fill="#231F20" d="M390.168,144.538C390.084,144.627,390.11,144.59,390.168,144.538"/>
<path fill="#231F20" d="M546.093,234.871c-8.379-1.208-16.789-2.404-25.279-2.007c-5.042,0.234-10.326,1.274-15.326,0.046
	c-2.885-0.709-5.437-2.728-8.54-1.968c-3.262,0.798-4.881,2.564-8.92,2.567c-3.061,0.002-6.003-0.62-8.972,0.421
	c-4.146,1.452-5.303,2.57-9.908,1.01c-1.902-0.646-3.146-0.957-4.754-0.821c0.64-4.744,1.283-9.488,2.349-14.171
	c0.473-2.076,1.438-4.403-0.339-6.694c0.714-0.087,1.246-0.198,1.781-0.209c6.924-0.127,13.85-0.244,20.775-0.352
	c3.126-0.049,5.941-2.826,5.998-5.976c0.113-6.312,0.366-12.626,0.278-18.935c-0.129-9.152-0.55-18.299-0.749-27.451
	c-0.046-2.086,0.024-4.259,0.567-6.249c0.44-1.612,0.15-3.063-1.589-3.314c-2.255-0.325-4.535-0.659-6.804-0.653
	c-2.432,0.005-4.858,0.449-7.294,0.617c-4.952,0.341-9.909,0.616-14.864,0.937c-0.849,0.056-1.243-0.212-1.196-1.128
	c0.496-9.681,0.968-19.365,1.458-29.047c0.085-1.67,0.334-3.34,0.308-5.008c-0.039-2.623-2.151-4.721-4.71-4.729
	c-10.943-0.027-21.888,0.018-32.832-0.039c-5.569-0.027-11.139-0.205-16.708-0.324c-7.916-0.17-15.83-0.424-23.746-0.503
	c-9.435-0.096-18.872-0.038-28.308-0.062c-8.181-0.019-16.363-0.152-24.543-0.063c-7.925,0.084-15.847,0.392-23.771,0.585
	c-1.397,0.033-2.82,0.14-4.188-0.072c-0.921-0.144-2.137-0.559-2.561-1.253c-0.808-1.324-1.319-2.776-2.861-3.502
	c-0.164-0.077-0.1-0.696-0.098-1.063c0.037-5.182,0.099-10.366,0.101-15.55c0-0.443-0.25-1.069-0.592-1.298
	c-1.946-1.306-3.904-2.578-6.465-1.524c-1.265,0.521-2.636,0.778-4.124,1.2c-0.301-2.502-0.513-4.762-0.853-7.003
	c-0.63-4.158-1.783-8.19-4.078-11.728c-0.948-1.463-2.393-2.9-3.948-3.617c-5.134-2.365-10.487-2.312-15.879-0.711
	c-0.841,0.25-1.886,0.263-2.718,0.005c-2.069-0.646-4.031-1.646-6.109-2.251c-1.993-0.58-4.064-1.037-6.128-1.199
	c-2.909-0.23-5.674,0.712-8.508,1.333c-6.36,1.392-11.5,5.998-15.463,10.946c-2.862,3.572-3.865,8.371-5.387,12.627
	c-1.156,3.231-1.167,3.228-4.76,3.179c-0.112-0.002-0.224,0.004-0.335,0.006c-2.724,0.061-5.357,2.648-5.502,5.373
	c-0.209,3.958-0.417,7.916-0.702,11.869c-0.032,0.443-0.53,1.18-0.876,1.219c-3.398,0.39-6.806,0.711-10.218,0.945
	c-3.009,0.205-6.031,0.225-9.042,0.412c-6.581,0.406-13.165,0.787-19.735,1.326c-6.842,0.56-13.667,1.312-20.503,1.943
	c-3.663,0.338-6.459,1.877-7.845,5.444c-0.374,0.961-0.897,1.974-0.879,2.955c0.029,1.588,0.62,3.164,0.674,4.755
	c0.284,8.249,0.463,16.501,0.701,24.752c0.061,2.117,0.232,4.23,0.299,6.346c0.035,1.111-0.306,2.118-1.592,2.251
	c-2.829,0.292-5.668,0.499-8.504,0.729c-1.326,0.107-2.662,0.131-3.982,0.293c-3.039,0.37-6.067,0.841-9.107,1.196
	c-3.1,0.361-6.213,0.612-9.316,0.954c-1.356,0.147-2.143,0.917-2.092,2.343c0.088,2.434,0.263,4.868,0.306,7.303
	c0.139,7.764,0.226,15.528,0.35,23.292c0.111,7.037,0.314,14.072,0.324,21.108c0.003,2.122,3.484,4.726,5.606,4.699
	c6.356-0.076,12.713-0.142,19.069-0.187c0.987-0.007,1.976,0.112,2.984,0.174c0.131,1.339,0.13,2.526,0.379,3.658
	c0.847,3.842,1.788,7.666,2.635,11.507c-4.337,0.267-8.338-2.063-12.703-1.6c-4.513,0.479-8.061,3.724-12.541,4.125
	c-11.017,0.982-20.822,4.091-32.067,1.768c-0.553-0.533-1.102-1.07-1.659-1.597c-0.516-0.489-1.219-0.777-1.746-1.256
	c-2.132-1.938-4.148-4.012-6.36-5.851c-2.209-1.838-4.61-3.443-6.908-5.176c-0.653-0.492-1.077-0.916-0.917-2.038
	c0.633-4.452,1.081-8.936,1.432-13.421c0.327-4.171,0.414-8.36,0.661-12.538c0.303-5.125,0.724-10.243,0.979-15.37
	c0.239-4.8,0.269-9.612,0.501-14.414c0.218-4.521,0.57-9.038,0.88-13.555c0.442-6.434,0.88-12.868,1.355-19.298
	c0.535-7.241,1.225-14.473,1.603-21.721c0.127-2.437,0.355-4.368,3.075-5.106c0.523-0.142,0.884-0.811,1.375-1.158
	c3.717-2.63,7.441-5.25,11.177-7.852c2.46-1.714,4.983-3.338,7.406-5.104c2.581-1.882,5.066-3.894,7.612-5.825
	c3.451-2.616,6.947-5.175,10.373-7.821c2.893-2.236,5.649-4.65,8.582-6.827c4.766-3.538,9.644-6.925,14.44-10.424
	c2.277-1.661,4.416-3.515,6.717-5.141c4.111-2.905,8.324-5.667,12.442-8.562c3.218-2.265,6.292-4.738,9.548-6.944
	c3.986-2.701,8.121-5.181,12.143-7.83c2.818-1.854,5.533-3.866,8.333-5.749c3.821-2.568,7.684-5.075,11.519-7.622
	c2.762-1.834,5.513-3.684,8.259-5.541c1.098-0.741,2.474-1.308,3.183-2.33c0.977-1.407,2.154-1.25,3.444-1.182
	c4.074,0.218,8.144,0.557,12.22,0.656c6.022,0.146,12.049,0.115,18.073,0.18c6.419,0.07,12.837,0.161,19.256,0.249
	c9.275,0.128,18.55,0.259,27.825,0.403c0.689,0.01,1.375,0.135,1.848,0.184c-3.601,4.953-7.181,9.832-10.702,14.753
	c-0.938,1.312-1.797,2.7-2.523,4.14c-1.442,2.86-2.878,5.736-4.093,8.697c-0.552,1.345,0.06,2.544,1.668,2.884
	c0.76,0.159,1.535,0.345,2.305,0.353c2.905,0.03,5.812,0.035,8.715-0.029c7.938-0.174,15.877-0.355,23.813-0.596
	c7.205-0.218,14.421-0.913,21.609-0.688c11.443,0.357,22.868,1.297,34.3,2.034c0.445,0.029,0.867,0.515,1.288,0.806
	c0.71,0.491,1.35,1.247,2.13,1.435c0.915,0.221,2.677-1.707,2.588-2.776c-0.145-1.76-0.604-3.494-0.715-5.255
	c-0.605-9.585-4.167-17.823-10.695-24.909c-3.703-4.019-7.997-7.27-12.744-9.701c-3.752-1.924-7.996-3.021-12.134-4.01
	c-2.563-0.612-5.338-0.347-8.018-0.466c-4.758-0.21-9.459,0.217-14.075,1.384c-1.935,0.489-3.916,0.961-5.711,1.795
	c-3.67,1.705-7.225,3.664-10.842,5.487c-0.476,0.24-1.046,0.406-1.573,0.408c-2.398,0.015-4.797-0.04-7.195-0.07
	c-8.991-0.111-17.98-0.259-26.972-0.328c-7.928-0.062-15.86,0.083-23.785-0.09c-7.528-0.164-15.048-0.679-22.574-0.931
	c-6.148-0.207-12.3-0.273-18.45-0.373c-6.032-0.097-12.066-0.238-18.098-0.206c-3.065,0.017-6.128,0.397-9.194,0.563
	c-1.213,0.064-2.52-0.274-3.622,0.078c-0.829,0.266-1.399,1.34-2.085,2.055c0.708,0.607,1.356,1.32,2.149,1.784
	c0.42,0.244,1.094,0.086,1.651,0.058c4.685-0.237,9.369-0.668,14.055-0.688c6.092-0.022,12.185,0.275,18.277,0.44
	c0.5,0.014,0.999,0.063,1.862,0.121c-2.107,1.609-3.8,3.026-5.615,4.263c-3.949,2.691-7.988,5.248-11.938,7.938
	c-3.565,2.426-7.047,4.973-10.593,7.427c-0.862,0.597-1.878,0.968-2.745,1.558c-2.902,1.977-5.751,4.03-8.655,6.003
	c-1.747,1.188-3.634,2.18-5.325,3.438c-2.471,1.84-4.754,3.936-7.244,5.75c-2.736,1.995-5.614,3.792-8.43,5.676
	c-1.062,0.711-2.161,1.374-3.177,2.146c-2.849,2.156-5.635,4.397-8.499,6.535c-4.789,3.573-9.654,7.048-14.42,10.651
	c-3.399,2.571-6.667,5.314-10.032,7.931c-3.056,2.375-6.155,4.692-9.25,7.016c-3.495,2.622-7.006,5.223-10.512,7.83
	c-1.732,1.287-3.456,2.585-5.207,3.843c-1.434,1.032-2.895,2.026-4.36,3.011c-0.887,0.597-1.805,1.145-3.045,1.924
	c0.462-3.132,0.854-5.811,1.252-8.487c0.628-4.229,1.295-8.451,1.871-12.688c0.214-1.573-0.788-2.837-2.183-3.035
	c-0.978-0.14-2.234,1.009-2.443,2.328c-0.39,2.458-0.748,4.92-1.078,7.387c-0.208,1.545-0.305,3.104-0.516,4.648
	c-0.557,4.076-1.131,8.151-1.747,12.217c-0.086,0.562-0.308,1.272-0.717,1.584c-1.758,1.344-3.558,2.647-5.438,3.812
	c-3.529,2.183-7.13,4.249-10.686,6.389c-0.839,0.505-1.411,1.335-0.838,2.238c0.328,0.517,1.302,1.094,1.788,0.955
	c1.5-0.429,2.979-1.062,4.33-1.85c2.387-1.394,4.663-2.977,7.008-4.446c1.301-0.816,2.646-1.561,4.404-2.589
	c-0.282,4.174-0.446,7.734-0.781,11.279c-0.454,4.817-1.158,9.612-1.537,14.434c-0.406,5.18-0.52,10.383-0.833,15.571
	c-0.32,5.3-0.806,10.59-1.083,15.892c-0.708,13.55-1.303,27.107-2.031,40.658c-0.181,3.377-0.643,6.742-1.101,10.098
	c-0.101,0.736-0.608,1.528-1.153,2.066c-0.994,0.98-2.229,1.716-3.233,2.688c-2.659,2.577-5.246,5.226-7.866,7.842
	c-0.116,0.116-0.29,0.173-0.408,0.288c-2.211,2.17-4.455,4.31-6.615,6.53c-2.144,2.203-4.18,4.512-6.312,6.729
	c-0.69,0.718-1.619,1.207-2.294,1.937c-2.482,2.679-4.969,5.358-7.32,8.151c-1.224,1.453-2.252,3.095-3.208,4.742
	c-0.682,1.178-0.024,2.504,1.084,2.512c4.019,0.021,8.039,0.078,12.056,0.014c5.979-0.098,11.956-0.323,17.935-0.43
	c12.578-0.229,25.161-0.128,37.741-0.264c3.464-0.038,7.513,0.342,10.578-1.587c0.658-0.414,0.581-2.411,0.432-2.637
	c-1.515-2.298-2.012-3.896-3.913-5.865c-3.09-3.199-6.473-6.115-9.71-9.173c2.888,0.293,5.792,0.37,8.73,0.14
	c5.764-0.452,11.161-2.363,16.888-2.728c5.217-0.332,9.296-3.635,14.391-3.912c4.405-0.239,8.247,1.483,12.554,1.172
	c0.589,3.161,1.079,6.341,1.652,9.505c0.366,2.017,0.538,4.132,1.317,5.985c0.457,1.086,1.812,2.104,2.983,2.5
	c1.363,0.458,2.834-0.021,3.801-1.43c2.209-3.224,2.744-7.004,3.502-10.67c0.415-2.002,0.721-4.026,0.999-6.059
	c0.8,0.546,1.897,0.638,2.791-0.233c0.199-0.193,7.07,0.726,8.312,0.534c2.709-0.414,4.836-1.67,7.589-1.622
	c2.886,0.051,5.913,0.857,8.788,1.23c10.251,1.33,20.941,2.707,31.275,2.329c2.906-0.107,2.92-4.635,0-4.529
	c-12.657,0.463-25.177-2.027-37.708-3.314c-5.3-0.546-9.752,1.409-14.939,0.936c-2.405-0.221-3.779-0.765-5.539,0.435
	c0.043-0.314,0.083-0.631,0.127-0.944c0.486-3.476,0.819-6.975,1.43-10.424c0.275-1.558-0.047-2.539-1.554-3.211
	c0.807-0.197,1.517-0.3,2.23-0.339c9.262-0.506,18.525-0.98,27.785-1.51c7.783-0.443,15.562-0.979,23.346-1.41
	c2.619-0.144,5.25-0.061,7.874-0.134c6.255-0.17,12.51-0.359,18.764-0.569c1.006-0.033,1.315,0.445,1.187,1.323
	c-0.207,1.409-0.49,2.809-0.68,4.219c-0.289,2.155-0.544,4.315-0.782,6.478c-0.635,5.761-1.336,11.517-1.848,17.29
	c-0.31,3.503-0.35,7.031-0.454,10.549c-0.174,5.915-0.298,11.831-0.461,17.745c-0.01,0.362-0.103,0.764-0.286,1.072
	c-0.908,1.519-1.819,3.041-2.803,4.512c-1.386,2.068-2.786,4.131-4.278,6.124c-1.084,1.447-2.417,2.711-3.472,4.176
	c-0.982,1.365-2.347,2.837-2.472,4.352c-0.242,2.909,0.06,5.918,0.54,8.817c0.424,2.556,1.193,5.104,2.182,7.5
	c1.131,2.744,2.759,5.28,4.01,7.979c1.005,2.171,2.389,2.739,4.476,1.448c1.366-0.845,2.699-1.756,3.981-2.725
	c3.636-2.749,7.366-5.418,9.506-9.645c0.574-1.135,1.342-2.216,1.675-3.416c0.706-2.554,2.27-5.041,0.91-7.862
	c-0.138-0.288-0.063-0.822,0.125-1.097c1.338-1.965,0.96-4.166,0.555-6.176c-1.009-5.01-2.356-9.948-3.482-14.936
	c-0.144-0.637,0.011-1.533,0.38-2.062c1.804-2.576,3.832-5,5.582-7.609c2.336-3.487,4.51-7.083,6.711-10.659
	c0.927-1.505,1.723-3.091,2.619-4.617c1.871-3.183,3.956-6.258,5.605-9.55c1.832-3.657,3.296-7.499,4.883-11.275
	c1.139-2.711,2.216-5.447,3.402-8.375c2.078,1.294,4.099,2.483,6.045,3.779c2.403,1.6,4.638,3.485,7.148,4.877
	c2.087,1.158,3.635,2.335,3.305,4.969c-0.038,0.303,0.227,0.631,0.278,0.957c0.742,4.723,1.722,9.426,2.128,14.177
	c0.35,4.106,0.015,8.27,0.037,12.407c0.017,2.961,0.039,5.928,0.228,8.879c0.078,1.22,0.542,2.454,2.13,2.603
	c1.7,0.157,3.045-0.73,4.122-1.788c1.618-1.587,2.93-3.482,4.486-5.139c4.274-4.552,6.933-9.666,6.509-16.154
	c-0.237-3.649-0.043-7.327-0.043-11.352c1.38,0.704,2.849,1.184,3.979,2.085c2.994,2.389,5.524,0.691,7.352-1.538
	c1.057-1.29,0.838-2.666-0.28-3.945c-1.271-1.457-2.485-2.965-3.68-4.487c-1.573-2.003-3.061-4.073-4.661-6.055
	c-2.315-2.868-4.699-5.679-6.956-8.396c25.091-2.332,50.076-1.847,75.097-1.576c0.252,1.063,0.483,2.036,0.711,3.008
	c0.229,0.976,0.405,1.968,0.689,2.927c0.615,2.064,2.252,3.027,4.335,2.612c1.72-0.342,4.28-2.955,4.554-4.704
	c0.172-1.102,0.366-2.213,0.374-3.321c0.031-5.072-0.018-10.144,0.021-15.216c0.003-0.51,0.258-1.3,0.629-1.478
	c1.433-0.689,2.959-1.184,4.504-1.771c0.131,0.288,0.214,0.483,0.308,0.673c1.46,2.992,2.343,3.975,5.12,3.726
	c3.426-0.309,6.833-0.281,10.17-1.595c2.825-1.11,5.942-1.476,8.923-2.204c3.754-0.917,7.002-2.884,9.107-6.02
	c1.028-1.533,1.943-1.462,3.231-1.34c1.975,0.185,3.945,0.6,5.919,0.61c5.467,0.031,10.935-0.162,16.402-0.119
	c1.676,0.013,3.399,0.339,5.006,0.834c1.311,0.402,2.843,0.179,3.397-1.115c0.436-1.012,0.891-2.128,0.886-3.195
	c-0.025-4.355-0.281-8.711-0.343-13.066c-0.081-5.802-0.03-11.604-0.104-17.405c-0.016-1.195,0.533-1.586,1.563-1.677
	c1.392-0.122,2.779-0.315,4.173-0.377c3.402-0.152,6.813-0.156,10.209-0.393c3.084-0.214,6.149-0.677,9.228-0.99
	c1.446-0.146,1.842,0.55,1.846,2c0.016,5.477,0.18,10.951,0.32,16.426c0.052,2.008,0.319,4.016,0.27,6.017
	c-0.119,4.856-0.438,9.708-0.545,14.564c-0.098,4.417-0.042,8.837-0.007,13.256c0.009,1.251-0.404,1.789-1.745,1.804
	c-6.024,0.065-12.05,0.178-18.072,0.346c-8.158,0.229-16.317,0.477-24.473,0.808c-5.309,0.215-10.607,0.645-15.915,0.885
	c-6.131,0.277-12.266,0.495-18.4,0.655c-6.35,0.166-12.701,0.249-19.054,0.332c-1.98,0.025-2.584,1.113-1.727,2.933
	c0.515,1.092,1.281,1.375,2.354,1.509c1.075,0.134,2.111,0.573,3.186,0.715c1.05,0.14,2.563,0.517,3.09-0.005
	c0.803-0.793,1.469-0.769,2.342-0.714c0.836,0.054,1.68,0.157,2.511,0.104c7.61-0.483,15.216-1.071,22.83-1.477
	c5.798-0.306,11.606-0.407,17.411-0.539c0.416-0.009,1.117,0.391,1.221,0.737c0.725,2.43,1.303,4.902,1.972,7.349
	c1.157,4.241,2.328,8.48,3.493,12.72c-0.201-0.063-0.413-0.109-0.652-0.116c-4.972-0.158-10.006-0.553-14.979-0.455
	c-5.146,0.098-9.549,1.758-14.773,1.373c-4.408-0.326-8.173-0.672-12.646-0.067c-5.965,0.808-11.681,2.254-17.512-0.307
	c-2.643-1.161-4.951,2.739-2.286,3.909c10.165,4.466,20.645-0.459,31.24,0.831c5.109,0.621,8.469-0.589,13.606-1.144
	c5.646-0.61,11.685,0.206,17.351,0.386c0.747,0.025,1.3-0.259,1.663-0.689c0.806,2.945,1.615,5.889,2.404,8.839
	c0.638,2.382,3.678,3.401,5.561,1.701c1.756-1.584,2.58-3.597,2.959-5.815c0.25-1.465,0.47-2.932,0.683-4.402
	c0.086-0.011,0.169-0.012,0.259-0.03c4.604-1.012,8.064,3.101,13.056,1.352c2.781-0.975,4.735-2.195,7.729-2.291
	c1.429-0.045,2.877,0.314,4.309,0.316c2.815,0.005,4.479-0.851,7.055-1.555c3.419-0.937,5.878,0.25,9.414,0.948
	c3.27,0.647,6.575,0.484,9.88,0.284c10.036-0.606,19.467,0.01,29.439,1.448C547.739,239.648,548.971,235.285,546.093,234.871
	 M302.496,11.739c3.135-1.721,6.709-2.683,10.148-3.796c7.003-2.267,14.27-2.186,21.373-1.189c4.864,0.684,9.716,2.33,13.721,5.603
	c2.433,1.985,5.013,3.803,7.332,5.911c1.424,1.293,2.441,3.023,3.712,4.497c2.445,2.83,4.139,6.003,4.854,9.709
	c0.532,2.76,1.237,5.486,1.841,8.233c0.067,0.303-0.021,0.642-0.06,1.396c-4.655-0.369-9.094-0.86-13.544-1.045
	c-7.694-0.321-15.396-0.569-23.096-0.626c-5.467-0.04-10.938,0.31-16.408,0.438c-10.5,0.248-21.001,0.464-31.501,0.689
	c-0.885,0.018-1.771,0.002-3.021,0.002c0.562-1.199,0.899-2.19,1.449-3.042c2.554-3.955,5.066-7.943,7.79-11.779
	c2.081-2.934,4.212-5.909,6.766-8.411C296.428,15.807,299.347,13.466,302.496,11.739 M89.833,255.069
	c1.364,1.294,2.722,2.601,3.995,3.983c0.603,0.656,0.998,1.504,1.328,2.427c-0.759-1.584-2.096-1.479-3.44-1.364
	c-4.063,0.342-8.119,0.813-12.189,0.993c-7.97,0.35-15.947,0.551-23.923,0.786c-6.685,0.196-13.371,0.379-20.057,0.521
	c-2.891,0.063-5.785,0.011-8.678,0.011c-0.12-0.158-0.24-0.317-0.359-0.477c5.476-5.675,10.895-11.407,16.444-17.009
	c5.545-5.602,11.22-11.073,16.951-16.712c2.57,2.02,5.032,3.879,7.406,5.843c2.598,2.146,5.182,4.32,7.648,6.615
	c2.417,2.25,4.642,4.705,7.016,7.003C84.557,250.188,87.226,252.595,89.833,255.069 M301.281,115.645
	c0.094,1.224,0.261,2.531,0.278,3.842c0.027,1.941-0.083,3.884-0.079,5.827c0.005,2.837-0.474,5.475-2.364,7.766
	c-0.944,1.146-2.072,1.44-3.396,1.358c-2.504-0.155-5.002-0.417-7.507-0.535c-1.865-0.087-3.737-0.018-6.097-0.018
	c0.804-1.21,1.29-2.121,1.945-2.892c1-1.174,2.245-2.212,0.427-3.71c-0.293-0.242-0.36-0.756-0.549-1.181
	c1.151-0.835,2.375-1.602,3.45-2.536c1.108-0.965,1.095-2.219,0.092-3.33c-0.708-0.784-1.473-1.701-0.77-2.646
	c0.557-0.748,1.57-1.357,2.492-1.594c2.948-0.751,5.907-0.913,8.893,0.134C298.86,116.398,299.9,115.881,301.281,115.645
	 M218.033,157.336c-2.471,1.545-4.865,3.041-7.155,4.475c-1.63-2.854-3.513-5.769-5.004-8.869c-1.534-3.188-2.685-6.56-4.206-10.354
	c1.008,0.444,1.563,0.717,2.139,0.938c1.242,0.472,2.471,0.997,3.746,1.357c3.099,0.878,6.213,1.651,9.497,1.11
	c1.336-0.22,0.982,0.842,0.982,1.577C218.033,150.899,218.033,154.229,218.033,157.336 M211.141,166.981
	c2.12-2.447,4.13-5.357,7.758-5.938c0.594-0.094,1.245,0.033,1.847,0.161c1.362,0.289,2.696,0.724,4.066,0.957
	c4.981,0.849,8.993,3.462,12.68,6.746c0.691,0.615,1.646,0.924,2.446,1.427c1.675,1.054,3.349,2.113,4.969,3.247
	c0.212,0.149,0.29,0.935,0.111,1.123c-2.075,2.203-1.817,5.197-2.655,7.801c-0.8,2.486-1.208,5.104-1.718,7.677
	c-0.934,4.709-1.816,9.428-2.776,14.435c-3.995-0.871-8.147-1.396-12.02-2.731c-3.365-1.159-6.431-3.205-9.586-4.938
	c-0.54-0.296-0.816-1.036-1.292-1.489c-1.882-1.789-3.722-3.635-5.715-5.296c-3.067-2.553-4.147-5.726-3.665-9.633
	C206.211,175.487,207.83,170.801,211.141,166.981 M240.713,165.057c-2.87-1.773-5.679-3.735-8.752-5.065
	c-3.066-1.327-6.426-1.972-9.888-2.983v-12.831c0.873,0.299,1.541,0.522,2.206,0.754c3.653,1.271,7.306,2.546,10.958,3.819
	c0.417,0.146,0.901,0.208,1.236,0.464c2.994,2.289,6.613,3.255,10.097,4.159c4.499,1.168,9.145,1.213,13.484-1.218
	c3.481-1.952,7.106-3.644,10.584-5.602c3.429-1.932,6.743-4.065,10.127-6.079c0.656-0.392,1.401-0.632,2.646-1.18
	c-1.682,7.586-3.262,14.713-4.814,21.717c-3.028-0.613-5.992-1.585-8.99-1.706c-2.409-0.099-4.922,0.629-7.279,1.349
	c-5.071,1.549-9.56,4.107-12.999,8.296c-0.469,0.57-1.124,1.18-2.139,0.441C245.092,167.862,242.923,166.421,240.713,165.057
	 M283.047,163.084c0.663-1.999,0.988-4.109,1.468-6.171c1.082-4.655,2.21-9.299,3.224-13.968c0.313-1.44,0.32-2.946,0.498-4.742
	c2.638,0.152,5.433,0.313,8.206,0.472c-1.03,10.753-4.487,20.292-12.024,28.069C282.598,165.66,282.459,164.855,283.047,163.084
	 M293.655,92.416c0.67-0.233,1.393-0.318,2.317-0.521c0.992,6.276-0.521,12.328-0.861,18.877c-0.762,0.102-1.856,0.24-2.95,0.395
	c-1.372,0.195-2.745,0.398-4.117,0.603c-0.165,0.024-0.365,0.028-0.482,0.125c-1.509,1.238-3.165,2.349-4.466,3.778
	c-1.675,1.845-0.606,3.939-0.036,6.278c-0.619,0.446-1.333,0.938-2.023,1.462c-1.508,1.148-2.762,2.243-1.555,4.48
	c0.584,1.083,0.221,1.75-0.416,2.659c-0.921,1.315-1.561,2.845-0.883,4.528c0.386,0.958,0.095,1.541-0.787,2.042
	c-2.845,1.619-5.639,3.328-8.49,4.936c-1.5,0.847-3.102,1.514-4.617,2.337c-2.336,1.267-4.632,2.608-6.956,3.898
	c-0.634,0.353-1.296,0.665-1.97,0.934c-2.088,0.825-2.504,0.575-2.449-1.607c0.089-3.572,0.17-7.148,0.396-10.713
	c0.544-8.565,1.19-17.122,1.748-25.686c0.114-1.754,1.716-2.149,2.703-2.855c2.6-1.858,5.439-3.398,8.255-4.931
	c1.953-1.063,3.997-1.977,6.054-2.828c3.835-1.589,7.691-3.129,11.571-4.605C286.955,94.741,290.309,93.585,293.655,92.416
	 M259.198,101.927c0.2-2.071,2.67-3.576,5.725-3.558C262.851,99.657,261.088,100.752,259.198,101.927 M224.423,88.167
	c0.352-0.521,0.64-1.081,0.959-1.623h-0.357c0.412-1.055,0.754-1.949,1.108-2.839c0.862-2.163,1.694-4.338,2.612-6.477
	c0.322-0.75,0.735-1.545,1.322-2.085c3.214-2.956,6.098-6.379,10.365-7.942c3.228-1.181,6.549-1.63,10.024-1.479
	c3.519,0.153,6.325,2.051,9.321,3.395c2.412,1.081,4.416,0.739,6.741-0.04c4.308-1.44,8.786-1.794,12.52,1.278
	c1.505,1.237,2.452,3.435,3.086,5.381c0.959,2.95,1.451,6.054,2.078,9.105c0.085,0.413,0.086,0.773-0.018,1.067
	c0.057,0.449,0.043,0.9-0.101,1.261c-1.05,2.616-2.973,5.215-5.946,5.515c-1.565,0.506-3.129,1.02-4.732,1.229
	c-3.242,0.422-6.681-0.116-9.779,0.715c-3.131,0.841-6.409,2.097-8.438,5.132c-0.199,0.299-1.717,0.203-1.765,0.04
	c-1.278-4.366-5.105-4.017-8.363-4.426c-1.965-0.247-4.009,0.146-6.018,0.245c-2.455,0.122-4.908,0.266-7.364,0.334
	c-0.586,0.016-1.252-0.103-1.758-0.383c-1.833-1.017-3.624-2.112-5.405-3.217c-0.294-0.184-0.462-0.568-0.689-0.858
	c0.133-0.08,0.265-0.181,0.396-0.279C223.825,90.217,223.831,89.044,224.423,88.167 M249.917,104.54
	c-3.956-1.604-7.696-3.121-11.436-4.637C246.143,97.809,248.924,99.304,249.917,104.54 M214,106.308
	c0.135-2.957,0.372-5.909,0.576-8.862c0.03-0.443,0.054-0.911,0.214-1.313c0.683-1.717,2.632-2.353,4.467-1.36
	c3.312,1.791,6.559,3.706,9.872,5.495c1.863,1.006,3.8,1.878,5.715,2.784c2.554,1.21,5.109,2.417,7.683,3.583
	c2.015,0.912,4.035,1.824,6.1,2.612c1.009,0.385,1.189,1.021,1.113,1.938c-0.297,3.578-0.608,7.156-0.861,10.738
	c-0.192,2.725-0.323,5.451-0.449,8.18c-0.206,4.456-0.408,8.912-0.565,13.368c-0.066,1.873-0.011,3.75-0.011,6.116
	c-3.459-1.532-6.559-2.981-9.723-4.277c-1.691-0.692-3.498-1.102-5.242-1.67c-2.331-0.762-4.67-1.503-6.967-2.355
	c-1.35-0.5-1.761-2.659-0.637-3.584c1.949-1.606,2.082-3.585,1.39-5.725c-0.258-0.797-0.93-1.458-1.605-2.47
	c0.342-0.479,1.057-1.246,1.494-2.145c0.894-1.841,0.138-3.351-1.94-5.298c-1.52-1.426-3.371-1.307-5.139-1.66
	c-1.533-0.308-3.078-0.56-4.624-0.787c-0.95-0.14-1.312-0.618-1.275-1.577C213.745,114.128,213.823,110.216,214,106.308
	 M208.961,117.044c0.05,0.907,0.091,1.664,0.109,1.981c-1.168,0.776-2.17,1.22-2.854,1.959c-0.775,0.835-0.24,1.998,0.922,2.199
	c0.82,0.142,1.711,0.285,2.503,0.114c3.418-0.737,6.639,0.572,9.957,0.822c0.219,0.017,0.476,0.056,0.638,0.183
	c0.72,0.565,1.984,1.15,2,1.758c0.041,1.532-1.523,2.711-2.869,2.739c-0.439,0.012-0.87,0.329-1.305,0.508
	c0.403,0.512,0.711,1.175,1.23,1.501c0.896,0.561,2.083,0.736,2.831,1.422c0.411,0.377,0.174,1.461,0.229,2.225
	c-0.688,0.03-1.388,0.157-2.06,0.067c-1.236-0.166-2.447-0.582-3.684-0.663c-1.057-0.07-2.038,0.603-1.778,1.7
	c0.193,0.811,1.002,1.657,1.762,2.106c0.91,0.537,2.061,0.668,3.299,1.031c-0.922,1.469-1.736,2.458-3.303,2.646
	c-4.601,0.557-8.768,0.161-12.767-2.867c-1.879-1.423-2.096-2.582-1.971-4.43c0.228-3.346,0.348-6.699,0.626-10.042
	C202.824,119.84,204.611,117.928,208.961,117.044 M148.355,117.426c5.161-0.537,10.326-1.047,15.496-1.483
	c6.457-0.547,12.917-1.067,19.383-1.494c4.797-0.318,9.606-0.438,14.405-0.713c1.483-0.085,2.95-0.434,4.432-0.583
	c0.845-0.086,1.706-0.017,2.56-0.017c0.027,0.168,0.053,0.335,0.08,0.504c-0.961,0.604-2.241,0.996-2.815,1.859
	c-1.088,1.634-2.197,3.461-2.536,5.345c-0.737,4.091-1.051,8.263-1.412,12.41c-0.104,1.196,0.218,2.432,0.349,3.647
	c0.032,0.296,0.206,0.648,0.1,0.877c-1.006,2.159-0.307,4.174,0.388,6.231c0.964,2.851,1.674,5.797,2.791,8.581
	c1.092,2.721,2.413,5.377,3.925,7.887c0.74,1.227,2.143,2.056,3.246,3.064c0.178-0.077,0.355-0.153,0.533-0.23
	c-0.23,0.517-0.321,1.208-0.714,1.524c-2.327,1.876-3.239,4.555-4.315,7.17c-1.477,3.594-2.069,7.319-2.371,11.186
	c-0.235,3.003,0.972,5.21,2.647,7.386c0.662,0.859,1.308,1.731,2.007,2.657c-2.666,0.135-5.236,0.309-7.809,0.389
	c-5.518,0.171-11.038,0.296-16.557,0.437c-3.519,0.089-7.038,0.224-10.558,0.244c-6.03,0.037-12.061-0.026-18.091,0.013
	c-1.897,0.012-3.801,0.142-5.684,0.369c-1.318,0.158-1.763-0.135-1.715-1.562c0.242-7.204,0.49-14.412,0.52-21.619
	c0.036-8.599-0.126-17.201-0.243-25.802c-0.063-4.686-0.138-9.376-0.347-14.058c-0.152-3.399-0.489-6.791-0.83-10.179
	C145.06,119.853,146.626,117.606,148.355,117.426 M150.976,229.133c-0.931,6-1.605,12.039-2.537,18.039
	c-0.287,1.846-1.075,3.612-1.621,5.375c-2.167-10.264-4.336-20.529-6.574-31.13c4.5,0.208,8.52,0.395,12.907,0.598
	C150.86,224.216,151.336,226.812,150.976,229.133 M232.517,213.711c-6.473,0.271-12.949,0.422-19.425,0.614
	c-2.119,0.063-4.242,0.067-6.359,0.186c-7.215,0.409-14.428,0.855-21.642,1.293c-10.855,0.659-21.705,1.432-32.568,1.932
	c-3.768,0.173-7.567-0.31-11.351-0.522c-0.36-0.019-0.703-0.269-1.062-0.388c-0.637-0.21-1.285-0.589-1.918-0.571
	c-3.327,0.1-6.649,0.374-9.976,0.446c-4.41,0.096-8.824-0.003-13.233,0.122c-1.397,0.039-1.809-0.307-1.834-1.722
	c-0.109-6.144-0.395-12.281-0.512-18.425c-0.114-5.975-0.1-11.95-0.145-17.927c-0.022-2.955-0.038-5.91-0.086-8.864
	c-0.01-0.552-0.103-1.117-0.261-1.646c-0.559-1.877-0.497-1.991,1.468-2.137c3.382-0.253,6.771-0.433,10.143-0.776
	c2.827-0.289,5.633-0.778,8.451-1.161c2.568-0.349,5.143-0.655,7.71-1.018c1.154-0.164,1.641,0.231,1.622,1.434
	c-0.055,3.521-0.016,7.043-0.065,10.565c-0.094,6.875-0.23,13.749-0.322,20.624c-0.01,0.715,0.071,1.457,0.263,2.143
	c0.344,1.232,1.734,2.052,2.954,1.707c5.522-1.562,11.177-1.199,16.81-1.263c8.429-0.098,16.857-0.271,25.286-0.373
	c1.164-0.016,2.335,0.312,3.495,0.266c4.183-0.166,8.362-0.452,12.545-0.632c1.447-0.062,2.972,0.346,4.34,0.024
	c3.267-0.77,5.408,0.932,7.774,2.71c2.097,1.574,4.63,2.556,6.863,3.97c4.844,3.065,10.465,3.129,15.887,4.308
	c0.044,0.194,0.103,0.309,0.087,0.41c-0.223,1.49-0.065,3.212-0.783,4.408C235.718,215.036,233.931,213.652,232.517,213.711
	 M229.833,291.961c2.881,0.224,5.837-0.451,8.752-0.793c0.91-0.105,1.794-0.425,2.648-0.635c0.201,0.387,0.245,0.435,0.249,0.486
	c0.354,3.997,0.362,4.038-3.608,4.762c-4.196,0.763-8.405,1.085-12.579-0.181c-0.573-0.175-1.122-0.426-1.704-0.648
	C225.512,291.705,226.271,291.686,229.833,291.961 M240.102,305.027c-0.996,2.126-2.241,4.21-3.748,6
	c-1.327,1.575-3.1,2.808-4.789,4.036c-2.893,2.102-2.865,2.021-4.256-1.216c-1.149-2.676-2.648-5.209-3.669-7.929
	c-0.8-2.13-1.105-4.445-1.385-6.886c6.445,2.613,12.719,1.498,19.399,0.294C241.103,301.444,240.879,303.366,240.102,305.027
	 M253.914,250.796c-1.082,1.917-2.201,3.816-3.368,5.684c-1.546,2.476-3.137,4.926-4.739,7.366c-2.231,3.4-4.508,6.771-6.731,10.178
	c-1.363,2.088-0.239,4.241,0.02,6.335c0.195,1.575,0.75,3.109,1.207,4.645c0.251,0.841-0.016,1.25-0.832,1.455
	c-1.504,0.377-2.998,0.794-4.497,1.194c-0.901,0.24-1.798,0.653-2.704,0.675c-1.147,0.029-2.302-0.26-3.874-0.469
	c0.571-0.874,0.819-1.375,1.175-1.781c2.264-2.575,3.938-5.438,4.614-8.851c0.075-0.379,0.715-0.615,0.99-0.992
	c0.442-0.604,1.121-1.262,1.136-1.91c0.121-4.907-0.036-9.821,0.164-14.721c0.257-6.3,0.765-12.587,1.171-18.879
	c0.017-0.264,0.101-0.521,0.195-0.983c5.725,3.392,11.724,5.559,18.879,5.752C255.639,247.545,254.817,249.195,253.914,250.796
	 M258.957,241.166c-0.194,0.409-1.146,0.682-1.722,0.642c-1.213-0.085-2.431-0.34-3.608-0.663
	c-3.377-0.932-6.804-1.747-10.071-2.979c-1.755-0.661-3.271-2.022-4.786-3.209c-0.337-0.263-0.345-1.126-0.283-1.688
	c0.177-1.604,0.484-3.193,0.71-4.79c0.182-1.286,0.774-1.542,1.959-1.017c2.626,1.168,5.243,2.387,7.953,3.326
	c4.076,1.414,8.227,2.61,12.527,3.954C260.805,236.785,259.975,239.021,258.957,241.166 M268.06,219.698
	c-0.595,1.759-1.398,3.448-2.121,5.164c-0.302,0.718-0.776,1.393-0.941,2.139c-0.664,2.997-1.021,2.911-3.827,2.379
	c-2.979-0.563-5.901-1.461-8.816-2.32c-1.705-0.503-3.376-1.15-5.01-1.854c-2.026-0.872-4.036-1.798-5.965-2.863
	c-0.483-0.267-0.905-1.165-0.871-1.744c0.103-1.771,0.428-3.53,0.691-5.29c0.871-5.842,1.681-11.691,2.658-17.515
	c0.557-3.313,1.38-6.584,2.109-9.868c0.724-3.258,1.442-6.517,2.251-9.753c0.204-0.816,0.75-1.549,1.137-2.319
	c0.248-0.495,0.719-1.001,0.697-1.485c-0.084-1.851,1.012-2.947,2.207-4.096c2.947-2.833,6.551-4.41,10.25-6.006
	c3.168-1.367,6.275-1.195,9.473-0.937c0.761,0.062,1.527,0.543,2.211,0.963c1.087,0.668,2.211,1.336,3.132,2.203
	c1.776,1.672,2.818,3.724,2.706,6.291c-0.672,4.745-1.424,9.479-1.998,14.233c-0.699,5.802-3.036,11.12-4.723,16.628
	C271.66,209.029,269.861,214.366,268.06,219.698 M277.403,218.634c-0.12,0.181-0.589,0.159-0.897,0.167
	c-0.144,0.003-0.289-0.149-0.438-0.227c-2.634-1.376-2.756-1.416-1.816-4.3c0.836-2.565,2.037-5.008,2.974-7.542
	c0.691-1.869,1.212-3.802,1.816-5.703c0.363-1.144,0.742-2.281,1.175-3.604c0.584,0.375,0.814,0.529,1.05,0.675
	c3.672,2.245,4.383,4.272,2.94,8.289c-0.452,1.256-0.64,2.655-1.307,3.777C281.184,213.059,279.275,215.837,277.403,218.634
	 M291.73,228.174c-0.487,0.16-1.249-0.085-1.727-0.391c-3.081-1.973-6.12-4.014-9.166-6.041c-0.002-0.002-0.004-0.004-0.006-0.006
	c1.671-2.604,3.273-4.841,4.598-7.235c1.304-2.357,2.325-4.875,3.569-7.533c0.641,0.632,1.435,1.272,2.06,2.05
	c2.438,3.031,4.79,6.134,7.245,9.151c0.761,0.937,0.807,1.7,0.187,2.707c-0.729,1.184-1.305,2.459-1.951,3.693
	C295.512,226.533,293.711,227.52,291.73,228.174 M292.595,232.313c1.096-0.474,2.089-0.901,3.381-1.458
	c0.348,5.67,0.715,11.041,0.982,16.418c0.062,1.24-0.422,2.375-2.062,3.165C294.975,244.117,294.849,238.119,292.595,232.313
	 M315.369,239.363c-2.085,0.361-2.979-1.021-4.203-1.574c-1.236-0.557-2.44-1.26-3.736-1.568c-0.553-0.132-1.772,0.465-1.886,0.928
	c-0.451,1.828-1.779,3.312-1.611,5.425c0.276,3.488,0.161,7.009,0.173,10.516c0.012,3.69-1.404,6.99-3.3,9.994
	c-1.31,2.076-3.214,3.778-4.872,5.628c-0.201,0.225-0.529,0.333-1.062,0.656c-0.108-0.785-0.263-1.354-0.248-1.92
	c0.028-1.284,0.398-2.612,0.175-3.839c-0.909-4.959,1.886-8.33,4.718-11.747c1.239-1.496,1.921-3.226,1.763-5.232
	c-0.385-4.891-0.465-9.829-1.211-14.664c-0.515-3.336,0.508-5.923,2.345-8.694C306.685,228.575,310.916,233.831,315.369,239.363
	 M370.854,211.465c-6.865-0.007-13.73-0.03-20.597-0.018c-6.858,0.012-13.724-0.117-20.573,0.142
	c-7.3,0.277-14.582,0.99-21.878,1.395c-2.321,0.129-4.673-0.023-6.987-0.271c-0.697-0.073-1.444-0.797-1.947-1.404
	c-3.661-4.445-7.25-8.95-10.899-13.406c-0.994-1.212-2.113-2.322-3.528-3.863c2.824-0.203,5.145-0.417,7.468-0.527
	c3.901-0.187,7.804-0.401,11.706-0.431c4.731-0.035,9.463,0.139,14.195,0.171c4.132,0.029,8.264,0.034,12.396-0.037
	c5.786-0.1,11.571-0.309,17.357-0.423c6.028-0.119,12.056-0.182,18.084-0.258c0.319-0.005,0.638,0.1,1.015,0.165
	c-1.135,2.104-2.23,4.138-3.192,5.922c3.337,4.333,7.663,4.548,12.218,4.185c0.83,2.78,1.65,5.527,2.585,8.659
	C375.701,211.465,373.277,211.467,370.854,211.465 M380.267,128.976c-0.875-0.902-1.529-2.021-2.281-3.042
	c0.147-0.192,0.294-0.387,0.441-0.578c1.829,0.476,3.882,0.583,5.431,1.521c2.054,1.246,4.063,1.215,6.25,1.135
	c2.328-0.085,4.666,0.026,6.997,0.101c0.482,0.015,0.956,0.244,1.071,0.274c0.423,1.054,0.698,2.45,1.047,2.47
	c1.129,0.06,2.464-0.104,3.393-0.695c2.017-1.281,3.83-2.88,5.727-4.35c0.184,0.114,0.368,0.229,0.552,0.345
	c-1.093,2.604-2.185,5.208-3.319,7.907c1.438,2.128,1.961,2.382,4.118,1.73c0.242,1.415,0.439,2.817,0.732,4.198
	c0.249,1.175-0.411,1.544-1.343,1.884c-2.931,1.072-5.881,2.108-8.741,3.343c-2.08,0.899-4.069,2.029-6.032,3.173
	c-2.078,1.21-2.355,1.235-4.099-0.293v-3.594c0.789-0.604,1.582-1.206,2.373-1.808c-0.584-0.723-1.052-1.607-1.774-2.143
	c-2.827-2.094-6.178-1.694-8.225,1.104c-0.436,0.593,0.005,1.829,0.051,2.975c-0.171-0.028-0.781-0.084-1.36-0.248
	c-1.073-0.306-2.107-0.849-3.197-0.976c-1.593-0.189-1.546-0.988-1.494-2.302c0.13-3.413,1.864-5.959,3.956-8.401
	C381.714,131.336,381.521,130.269,380.267,128.976 M381.971,149.692c2.029,0.705,3.955,1.725,5.871,2.711
	c0.38,0.196,0.663,0.868,0.722,1.353c0.4,3.322,0.64,6.667,1.136,9.976c0.139,0.922,0.756,2.138,1.51,2.528
	c1.936,1,3.316-0.113,3.067-2.303c-0.275-2.431-0.63-4.855-0.999-7.275c-0.256-1.682,0.632-3.041,2.79-4.289
	c4.652-2.69,9.782-4.2,14.771-6.062c0.875-0.327,1.747-0.663,2.634-1.001v9.407c-0.988-0.499-1.563-0.793-2.142-1.081
	c-1.185-0.589-2.375-0.907-3.672-0.273c-0.378,0.186-0.854,0.227-1.288,0.23c-1.553,0.013-2.575,0.747-3.862,1.683
	c-2.168,1.578-2.469,3.59-2.299,5.627c0.124,1.5,1.268,2.947,2.084,4.346c0.406,0.697,1.095,1.232,1.818,2.018
	c-2.727,1.18-5.299,2.3-7.879,3.402c-0.561,0.238-1.187,0.341-1.722,0.623c-2.619,1.379-5.315,1.819-8.237,1.086
	c-4.32-1.085-8.677-2.018-13.001-3.086c-0.651-0.161-1.208-0.709-2.409-1.448c0.87-0.596,1.48-1.087,2.154-1.463
	c2.535-1.411,3.335-3.936,4.018-6.449c0.55-2.02-1.873-4.348-4.279-4.272c-1.375,0.045-2.746,0.17-4.542,0.284
	c0.308-3.55,0.602-6.93,0.901-10.394C373.503,146.962,377.77,148.231,381.971,149.692 M415.242,163.614
	c0.438,0.521,0.394,1.699,0.16,2.447c-0.161,0.517-1.023,0.817-1.661,1.277c-1.708-0.914-3.323-1.643-4.789-2.603
	c-1.236-0.812-2.311-1.875-3.436-2.854c-1.059-0.92-1.279-2.574-0.516-3.619c0.958-1.311,2.005-1.494,3.461-0.84
	C411.406,158.751,413.27,161.262,415.242,163.614 M369.955,160.293c0.527-0.201,1.105-0.271,1.66-0.401
	c0.122,0.179,0.243,0.356,0.365,0.535c-1.429,4.521-5.441,6.359-9.155,8.523c-1.906-2.499-0.672-5.905,2.26-6.737
	C366.755,161.74,368.323,160.917,369.955,160.293 M385.095,218.386l-0.265-0.034c-1.504-5.354-3.007-10.707-4.536-16.153
	c1.696-0.304,3.263-0.584,4.801-0.86V218.386z M422.469,192.315c-3.027,1.193-6.195,2.032-9.305,3.016
	c-1.106,0.351-2.246,0.616-3.318,1.048c-3.217,1.298-6.593,1.327-10.041,1.566c0.482-1.521,0.838-2.863,1.365-4.132
	c0.123-0.294,0.822-0.44,1.274-0.489c2.659-0.292,5.357-0.361,7.976-0.858c1.756-0.333,3.44-1.167,5.082-1.936
	c1.118-0.524,1.754-1.483,1.563-2.855c-0.22-1.585-0.953-2.72-2.572-3.066c-1.849-0.399-3.716-0.714-5.777-1.105
	c0.063-0.579,0.117-1.056,0.174-1.567c3.408-0.546,6.235,1.131,9.243,1.957c2.789,0.766,4.302,2.999,5.873,5.129
	C424.761,190.043,424.197,191.632,422.469,192.315 M458.524,150.974c-0.263,7.234-0.272,14.482-0.241,21.726
	c0.02,4.408,0.338,8.815,0.506,13.224c0.017,0.433-0.091,0.868-0.148,1.366c-7.556,0-15.028,0.059-22.499-0.032
	c-2.427-0.028-4.854-0.413-7.271-0.714c-0.417-0.051-0.896-0.423-1.157-0.783c-3.402-4.696-8.25-6.737-13.764-7.613
	c-1.354-0.215-2.688-0.564-4.14-0.873c0-0.758,0.128-1.665-0.048-2.509c-0.105-0.504-0.623-1.169-1.073-1.276
	c-0.426-0.104-1.105,0.321-1.487,0.702c-0.369,0.367-0.655,0.957-0.713,1.478c-0.435,3.996-1.999,7.575-4.006,10.985
	c-0.437,0.742-1.021,1.471-1.706,1.981c-2.801,2.086-5.502,4.399-8.563,6.013c-2.227,1.173-4.592,2.498-7.345,2.452
	c-0.924-0.017-1.846,0.465-2.783,0.56c-3.865,0.391-7.732,0.787-11.608,1.017c-0.734,0.043-1.512-0.654-2.269-1.011
	c0.762-0.608,1.441-1.535,2.305-1.762c1.863-0.49,3.838-0.536,5.737-0.916c3.823-0.768,7.727-1.342,11.396-2.589
	c1.784-0.606,3.245-2.428,4.604-3.923c0.894-0.984,0.104-2.743-1.207-3.309c-1.143-0.49-2.43,0.006-2.772,1.264
	c-0.521,1.91-2.247,1.878-3.582,2.262c-4.237,1.215-8.513,2.339-12.643,2.027c-0.501-1.251-1.025-2.377-1.408-3.549
	c-1.066-3.254-1.82-6.56-1.505-10.031c0.133-1.461,0.176-2.93,0.255-4.294c6.49,1.984,13.062,3.797,19.835,4.767
	c0.841,0.121,1.813-0.025,2.608-0.342c4.328-1.729,8.639-3.511,12.913-5.369c1.034-0.45,1.91-1.263,3.146-2.106
	c0.295,0.167,0.915,0.493,1.51,0.86c2.984,1.839,8.063,1.249,9.701-2.132c0.729-1.506,1.723-2.852,1.625-4.564
	c-0.044-0.771-0.338-1.798-0.892-2.225c-2.166-1.674-2.169-3.629-1.807-6.163c0.575-4.007,0.499-8.108,0.688-12.169
	c0.007-0.159-0.119-0.319-0.132-0.483c-0.226-2.991-0.33-3.095-3.045-3.212c-1.215-2.755-2.445-5.382-3.502-8.078
	c-0.234-0.597,0.106-1.444,0.252-2.164c0.445-2.223,1.094-4.42,1.343-6.662c0.224-2.02-1.438-3.293-3.333-2.47
	c-1.998,0.867-3.874,2.109-5.625,3.424c-1.294,0.975-2.312,1.439-3.988,0.753c-3.241-1.325-6.706-0.653-10.098-0.689
	c-2.018-0.022-4.065-0.435-6.032-0.936c-2.198-0.56-4.288-1.546-6.485-2.11c-2.297-0.59-5.346,0.7-4.011,4.223
	c0.688,1.813,1.582,3.567,2.567,5.238c0.646,1.095,0.653,1.946-0.151,2.877c-1.586,1.834-2.457,3.945-2.631,6.387
	c-0.058,0.788-0.506,1.549-0.823,2.46c-0.994-0.317-1.81-0.518-2.577-0.837c-2.213-0.919-3.19-0.02-4.395,2.079
	c-3.056,5.324-1.634,11.179-2.638,16.643c-0.938,0.306-1.974,0.561-2.942,0.974c-1.898,0.809-2.864,2.347-3.277,4.339
	c-0.633,3.048,0.534,6.399,3.054,7.656c0.884,0.44,2.14,0.165,3.225,0.163c0.359-0.001,0.717-0.167,1.078-0.26
	c0,2.673-0.185,5.238,0.053,7.766c0.231,2.469,0.893,4.898,1.459,7.83c-2.102,0-4.191-0.035-6.282,0.006
	c-8.822,0.174-17.645,0.461-26.469,0.535c-9.389,0.08-18.78-0.11-28.169-0.034c-5.796,0.047-11.59,0.369-17.385,0.574
	c-0.446,0.016-0.89,0.098-1.335,0.115c-4.112,0.169-4.012,0.115-3.333-3.998c0.777-4.716,1.233-9.484,1.794-14.234
	c0.105-0.9,0.362-1.16,1.368-1.117c0.801,0.036,1.931-0.366,2.396-0.972c2.084-2.724,3.876-5.671,5.977-8.381
	c2.501-3.229,3.52-7.024,4.487-10.835c0.82-3.226,1.387-6.517,2.02-9.786c0.09-0.465-0.135-0.982-0.097-1.466
	c0.031-0.386,0.126-0.893,0.39-1.111c3.24-2.724,4.59-6.332,4.811-10.409c0.131-2.399,0.092-4.814-0.026-7.213
	c-0.048-0.943-0.382-1.939-0.833-2.776c-0.578-1.072-0.302-1.452,0.796-1.483c2.996-0.091,5.993-0.192,8.99-0.237
	c5.524-0.087,11.05-0.167,16.574-0.197c8.938-0.046,17.876-0.099,26.814-0.053c6.311,0.033,12.622,0.318,18.933,0.325
	c7.928,0.009,15.858-0.271,23.786-0.199c5.688,0.051,11.371,0.591,17.06,0.703c8.26,0.16,16.522,0.135,24.783,0.179
	c5.31,0.029,10.618,0.053,15.928,0.039c0.925-0.002,1.123,0.354,1.081,1.21C459.56,128.653,458.932,139.81,458.524,150.974
	 M461.818,220.721c-1.679,6.595-2.035,13.373-3.048,20.06c-0.048,0.314-0.218,0.612-0.714,0.973
	c-2.658-9.221-5.316-18.442-8.043-27.907c4.693-0.26,8.933-0.493,13.044-0.721C462.612,215.935,462.416,218.378,461.818,220.721"/>
<path fill="#231F20" d="M448.771,268.285c-1.317-4.293-2.29-5.274-3.727-9.53c-0.444-1.318-1.767-2.188-3.146-2.152
	c-0.877,0.023-1.533,0.521-2.274,0.938c-0.914,0.515-1.817,1.052-2.752,1.533c-0.487,0.251-0.984,0.486-1.493,0.693
	c-0.178,0.073-1.336,0.364-1.323,0.554c-0.095-1.371,0.911-4.543,1.046-5.683c0.236-1.975,0.591-3.981,0.457-5.944
	c-0.169-2.479-1.089-3.414-3.547-3.616c-4.087-0.337-8.202-0.314-12.294-0.598c-4.452-0.308-8.87-0.609-13.359-0.266
	c-5.113,0.394-10.268,0.207-15.401,0.375c-3.388,0.112-6.77,0.39-10.151,0.622c-4.786,0.327-9.568,0.701-14.355,1.007
	c-1.328,0.085-1.732,0.836-1.688,1.982c0.027,0.717,0.185,1.428,0.251,2.144c0.141,1.537,0.341,3.076,0.368,4.615
	c0.027,1.611-0.095,3.227-0.197,4.837c-0.071,1.118-0.222,2.229-0.377,3.748c-1.507-0.672-2.619-1.138-3.704-1.658
	c-2.24-1.073-4.441-2.229-6.715-3.223c-0.576-0.252-1.551-0.285-2.014,0.044c-0.958,0.679-1.795,1.595-2.505,2.546
	c-2.414,3.236-4.698,6.569-7.147,9.777c-0.787,1.03-2.002,1.725-2.894,2.691c-1.385,1.503-1.083,3.553,0.673,4.322
	c1.559,0.681,3.223,1.122,4.841,1.663c1.765,0.589,3.53,1.173,5.546,1.842c-1.163,1.324-2.057,2.372-2.983,3.389
	c-1.408,1.544-2.891,3.025-4.224,4.631c-0.342,0.41-0.517,1.317-0.3,1.776c1.209,2.571,2.576,3.235,5.37,2.846
	c1.882-0.263,3.269,0.306,3.343,1.434c0.562,8.524,1.087,17.052,1.661,25.578c0.074,1.116,0.243,2.224,0.453,3.324
	c0.17,0.889,0.275,1.964,0.853,2.699c0.84,1.071,2.667,0.574,3.827,0.57c2.011-0.01,4.021-0.076,6.033-0.103
	c5.639-0.077,11.279-0.08,16.918-0.233c9.156-0.251,18.317-0.463,27.464-0.949c6.882-0.365,13.875,0.202,20.733-0.497
	c3.104-0.314,7.365-1.127,10.433-1.728c2.358-0.463,1.232-1.574,1.226-3.696c-0.003-0.901-0.011-1.956-0.188-2.877
	c-0.766-3.972-1.16-9.233-1.654-13.245c-0.501-4.074-0.636-8.19-1.027-12.281c-0.146-1.525,1.57-2.24,3.154-2.333
	c0.834-0.049,0.128,0.001,0.942-0.184c2.393-0.548,2.739-2.076,1.405-4.181c-1.307-2.062-2.203-4.384-3.405-6.85
	c1.016-0.054,1.562-0.1,2.106-0.108c2.169-0.035,2.366,0.18,4.525,0.02c1.653-0.121,3.514-2.249,3.301-3.421
	C450.415,272.716,449.487,270.622,448.771,268.285 M373.521,249.322c10.544-0.405,21.088-0.924,31.636-1.068
	c7.526-0.105,15.06,0.312,22.588,0.499c0.279,0.006,0.557,0.049,0.835,0.054c3.589,0.058,3.219-0.075,2.549,3.652
	c-0.37,2.063-1.161,4.052-1.721,6.088c-0.129,0.466-0.082,0.981-0.103,1.277c-2.727,0.121-5.27,0.229-7.811,0.349
	c-1.836,0.086-3.677,0.128-5.505,0.297c-1.47,0.137-2.918,0.507-4.388,0.64c-1.211,0.11-2.44-0.006-3.659,0.032
	c-8.91,0.277-17.819,0.558-26.727,0.857c-3.11,0.104-6.22,0.382-9.328,0.364c-2.571-0.018-2.606-0.163-2.562-2.716
	c0.028-1.562,0.25-3.122,0.247-4.683c-0.002-1.59-0.171-3.181-0.286-5.086C370.59,249.701,372.051,249.379,373.521,249.322
	 M370.245,267.845c1.117-1.352,2.279-1.441,3.802-1.488c5.243-0.157,10.481-0.491,15.725-0.721c1.271-0.055,2.555,0.118,3.825,0.051
	c4.166-0.219,8.329-0.499,12.491-0.757c0.112-0.007,0.239-0.055,0.332-0.017c2.021,0.821,3.914,0.634,5.93,0.335
	c2.25-0.334,4.619-0.696,6.907-0.774c2.174-0.074,4.35-0.114,6.522-0.218c0.816-0.039,1.184,0.124,1.538,1.025
	c0.925,2.354,2.125,4.602,3.247,6.96c-23.067,2.774-45.875,4.874-69.048,5.272c0.865-1.131,1.547-2.199,2.4-3.104
	C366.004,272.197,368.317,270.182,370.245,267.845 M344.345,275.301c0.836-0.854,1.827-1.782,2.711-2.801
	c0.717-0.828,1.314-1.762,1.95-2.66c0.255-0.36,0.448-0.765,0.705-1.125c1.082-1.515,2.229-2.987,3.255-4.539
	c1.243-1.883,1.304-1.962,3.283-0.981c2.742,1.356,5.464,2.756,8.117,4.097c-3.509,3.812-7.126,7.743-10.346,11.241
	C350.496,277.354,347.586,276.384,344.345,275.301 M435.003,319.287c-1.956,0.312-3.929,0.572-5.879,0.954
	c-9.374,1.831-18.85,1.618-28.333,1.64c-5.519,0.011-11.033,0.633-16.555,0.847c-8.42,0.325-16.845,0.533-25.526,0.801
	c-0.646-9.956-1.271-19.557-1.909-29.374c10.517-0.795,20.97-1.584,31.422-2.374c0.022,0.099,0.047,0.196,0.069,0.296
	c0.036-0.001,0.067-0.011,0.104-0.011h11.265c0.176-0.045,0.354-0.083,0.531-0.125c-0.297-0.146-0.591-0.293-0.905-0.451
	c1.248-0.031,2.477-0.064,3.705-0.096c0.167-0.023,0.329-0.062,0.498-0.083c0.277-0.032,0.544-0.006,0.805,0.049
	c4.69-0.121,9.265-0.242,13.84-0.336c4.131-0.083,8.263-0.063,12.394-0.155c0.832-0.02,1.362-0.066,1.447,1.015
	c0.246,3.146,0.549,6.289,0.919,9.422c0.68,5.784,1.425,11.561,2.138,17.339C435.052,318.803,435.019,318.968,435.003,319.287
	 M433.222,286.243c-6.181,0.198-12.363,0.3-18.542,0.511c-4.621,0.157-9.237,0.473-13.857,0.638
	c-4.506,0.161-9.019,0.139-13.52,0.361c-1.857,0.091-3.777,0.403-5.637,0.56c-1.816,0.153-3.572,0.221-5.395,0.346
	c-5.372,0.369-10.731,0.945-16.107,1.239c-3.527,0.192-7.074,0.036-10.997,0.036c2.071-2.041,4.333-3.686,5.794-5.869
	c1.551-2.314,3.604-1.972,5.661-2.091c6.57-0.379,13.146-0.679,19.719-1.029c7.471-0.397,14.952-0.664,22.405-1.274
	c5.993-0.491,11.944-1.479,17.929-2.11c3.665-0.386,9.256-0.066,12.939-0.162c0.651-0.017-0.3,0.244,0.04,0.904
	c1.195,2.314,2.182,4.735,3.388,7.424C435.598,285.928,434.413,286.205,433.222,286.243 M437.715,274.734
	c-0.521-0.024-0.533-0.84-0.83-1.357c-1.208-2.113-2.734-4.199-3.806-6.384c-0.17-0.348-0.332-1.001-0.072-1.214
	c1.774-1.452,4.397-0.935,6.206-2.347c0.755-0.589,1.44-1.265,2.426-2.139c1.653,5.295,2.437,8.367,4.04,13.496
	C442.699,274.79,440.202,274.856,437.715,274.734"/>
<path fill="#FFFFFF" d="M373.023,141.959c-0.994-0.317-1.811-0.519-2.576-0.837c-2.214-0.919-3.192-0.02-4.396,2.079
	c-3.055,5.323-1.634,11.18-2.637,16.644c-0.937,0.304-1.974,0.559-2.943,0.972c-1.897,0.811-2.862,2.348-3.275,4.339
	c-0.633,3.049,0.534,6.4,3.052,7.657c0.885,0.441,2.14,0.165,3.226,0.163c0.358-0.001,0.717-0.167,1.078-0.259
	c0,2.672-0.185,5.237,0.053,7.764c0.231,2.47,0.893,4.9,1.459,7.831c-2.102,0-4.192-0.036-6.281,0.005
	c-8.824,0.174-17.646,0.461-26.47,0.536c-9.39,0.08-18.779-0.111-28.168-0.035c-5.798,0.047-11.592,0.37-17.387,0.575
	c-0.444,0.015-0.889,0.097-1.335,0.116c-4.111,0.17-4.01,0.114-3.332-3.998c0.777-4.716,1.233-9.486,1.793-14.236
	c0.106-0.899,0.362-1.16,1.368-1.116c0.801,0.035,1.933-0.366,2.396-0.972c2.084-2.723,3.876-5.671,5.976-8.381
	c2.502-3.229,3.521-7.025,4.489-10.834c0.82-3.227,1.385-6.518,2.018-9.787c0.09-0.464-0.134-0.982-0.096-1.465
	c0.031-0.387,0.127-0.894,0.389-1.113c3.242-2.722,4.591-6.332,4.812-10.409c0.13-2.397,0.091-4.812-0.027-7.213
	c-0.047-0.942-0.382-1.938-0.833-2.775c-0.579-1.071-0.302-1.451,0.795-1.483c2.997-0.09,5.994-0.192,8.991-0.238
	c5.525-0.087,11.049-0.167,16.574-0.196c8.938-0.046,17.877-0.1,26.813-0.054c6.312,0.034,12.622,0.319,18.934,0.326
	c7.929,0.008,15.858-0.271,23.786-0.2c5.688,0.052,11.37,0.592,17.061,0.703c8.259,0.161,16.521,0.136,24.782,0.18
	c5.309,0.028,10.619,0.054,15.928,0.039c0.925-0.003,1.124,0.354,1.081,1.21c-0.56,11.157-1.188,22.314-1.595,33.479
	c-0.265,7.234-0.273,14.482-0.242,21.725c0.019,4.408,0.339,8.816,0.506,13.226c0.016,0.432-0.091,0.867-0.148,1.365
	c-7.557,0-15.028,0.059-22.499-0.031c-2.428-0.029-4.854-0.413-7.271-0.714c-0.418-0.053-0.896-0.424-1.158-0.783
	c-3.402-4.697-8.25-6.738-13.764-7.614c-1.355-0.215-2.689-0.564-4.139-0.874c0-0.757,0.127-1.665-0.049-2.508
	c-0.104-0.503-0.623-1.168-1.073-1.277c-0.425-0.103-1.105,0.322-1.487,0.702c-0.369,0.368-0.656,0.958-0.713,1.479
	c-0.435,3.995-1.999,7.574-4.006,10.983c-0.438,0.743-1.021,1.472-1.706,1.983c-2.801,2.086-5.502,4.397-8.564,6.012
	c-2.226,1.172-4.59,2.498-7.344,2.452c-0.924-0.017-1.845,0.464-2.784,0.559c-3.865,0.393-7.731,0.787-11.607,1.019
	c-0.734,0.043-1.512-0.655-2.27-1.012c0.763-0.608,1.442-1.534,2.305-1.763c1.864-0.489,3.84-0.535,5.738-0.916
	c3.824-0.766,7.728-1.341,11.396-2.589c1.783-0.605,3.246-2.426,4.604-3.922c0.895-0.985,0.104-2.744-1.208-3.309
	c-1.141-0.489-2.428,0.007-2.771,1.264c-0.521,1.911-2.247,1.878-3.583,2.261c-4.237,1.215-8.514,2.339-12.644,2.029
	c-0.501-1.251-1.023-2.377-1.407-3.549c-1.066-3.255-1.819-6.562-1.505-10.032c0.133-1.46,0.177-2.929,0.255-4.293
	c6.49,1.983,13.062,3.796,19.834,4.765c0.842,0.121,1.814-0.023,2.609-0.341c4.329-1.729,8.638-3.51,12.913-5.37
	c1.034-0.449,1.91-1.262,3.147-2.104c0.295,0.167,0.915,0.492,1.51,0.858c2.983,1.84,8.062,1.249,9.7-2.132
	c0.729-1.505,1.723-2.85,1.625-4.563c-0.044-0.771-0.339-1.798-0.892-2.226c-2.167-1.673-2.17-3.628-1.807-6.163
	c0.575-4.007,0.499-8.106,0.688-12.169c0.009-0.158-0.119-0.318-0.131-0.481c-0.225-2.991-0.331-3.097-3.046-3.213
	c-1.213-2.755-2.445-5.382-3.501-8.077c-0.235-0.599,0.107-1.445,0.251-2.164c0.447-2.224,1.094-4.42,1.343-6.662
	c0.225-2.021-1.437-3.293-3.333-2.471c-1.998,0.867-3.874,2.108-5.624,3.425c-1.295,0.973-2.312,1.438-3.988,0.753
	c-3.241-1.326-6.705-0.655-10.098-0.691c-2.017-0.021-4.065-0.433-6.032-0.934c-2.198-0.561-4.287-1.546-6.485-2.112
	c-2.297-0.589-5.345,0.701-4.011,4.224c0.687,1.813,1.582,3.566,2.567,5.237c0.646,1.096,0.653,1.946-0.151,2.877
	c-1.585,1.834-2.457,3.947-2.632,6.388C373.79,140.287,373.341,141.049,373.023,141.959"/>
<path fill="#FFFFFF" d="M204.712,113.639c-0.961,0.604-2.241,0.997-2.815,1.86c-1.088,1.634-2.197,3.461-2.536,5.345
	c-0.737,4.091-1.051,8.263-1.412,12.41c-0.104,1.197,0.218,2.432,0.349,3.647c0.032,0.296,0.206,0.648,0.1,0.877
	c-1.006,2.159-0.307,4.174,0.388,6.231c0.963,2.851,1.673,5.797,2.791,8.581c1.092,2.721,2.412,5.377,3.924,7.887
	c0.741,1.227,2.144,2.056,3.247,3.064c0.178-0.077,0.355-0.154,0.533-0.23c-0.23,0.517-0.321,1.208-0.714,1.524
	c-2.327,1.876-3.239,4.555-4.315,7.17c-1.477,3.594-2.069,7.32-2.371,11.186c-0.235,3.003,0.972,5.21,2.648,7.386
	c0.661,0.859,1.307,1.731,2.006,2.657c-2.665,0.135-5.235,0.309-7.808,0.388c-5.518,0.172-11.038,0.297-16.557,0.438
	c-3.519,0.089-7.038,0.224-10.558,0.244c-6.03,0.037-12.061-0.026-18.091,0.013c-1.897,0.012-3.802,0.142-5.685,0.369
	c-1.317,0.158-1.762-0.135-1.714-1.562c0.242-7.204,0.489-14.412,0.52-21.619c0.036-8.599-0.126-17.201-0.243-25.802
	c-0.063-4.686-0.138-9.376-0.347-14.058c-0.152-3.399-0.49-6.791-0.83-10.179c-0.162-1.614,1.405-3.86,3.134-4.041
	c5.161-0.538,10.326-1.047,15.496-1.483c6.457-0.547,12.917-1.067,19.383-1.494c4.796-0.318,9.605-0.438,14.405-0.713
	c1.483-0.085,2.95-0.434,4.432-0.583c0.845-0.086,1.706-0.017,2.56-0.017C204.658,113.304,204.685,113.471,204.712,113.639"/>
<path fill="#FFFFFF" d="M237.369,208.629c0.044,0.193,0.102,0.309,0.087,0.409c-0.223,1.49-0.065,3.213-0.783,4.408
	c-0.955,1.59-2.742,0.205-4.157,0.265c-6.472,0.271-12.949,0.423-19.424,0.614c-2.12,0.063-4.243,0.067-6.359,0.187
	c-7.216,0.408-14.429,0.854-21.643,1.293c-10.855,0.659-21.705,1.43-32.567,1.93c-3.768,0.174-7.568-0.308-11.352-0.521
	c-0.359-0.021-0.703-0.271-1.062-0.39c-0.636-0.21-1.284-0.589-1.918-0.57c-3.326,0.1-6.649,0.374-9.976,0.446
	c-4.409,0.097-8.824-0.004-13.232,0.121c-1.397,0.039-1.81-0.306-1.835-1.721c-0.108-6.144-0.394-12.282-0.511-18.424
	c-0.115-5.976-0.101-11.951-0.146-17.928c-0.022-2.955-0.037-5.909-0.086-8.863c-0.009-0.553-0.102-1.118-0.26-1.648
	c-0.559-1.877-0.497-1.99,1.468-2.136c3.381-0.253,6.77-0.433,10.142-0.776c2.827-0.289,5.633-0.777,8.451-1.161
	c2.569-0.349,5.144-0.654,7.71-1.018c1.155-0.164,1.641,0.231,1.623,1.433c-0.055,3.522-0.017,7.044-0.065,10.566
	c-0.094,6.875-0.23,13.749-0.323,20.624c-0.009,0.714,0.072,1.457,0.263,2.143c0.344,1.232,1.735,2.053,2.954,1.707
	c5.523-1.562,11.178-1.199,16.81-1.263c8.429-0.097,16.857-0.271,25.286-0.373c1.164-0.015,2.336,0.312,3.496,0.265
	c4.183-0.165,8.361-0.45,12.544-0.632c1.448-0.061,2.973,0.348,4.341,0.025c3.266-0.77,5.407,0.931,7.774,2.71
	c2.097,1.575,4.63,2.555,6.863,3.969C226.326,207.388,231.946,207.449,237.369,208.629"/>
<path fill="#FFFFFF" d="M280.031,172.787c-0.674,4.744-1.425,9.479-1.998,14.232c-0.7,5.802-3.036,11.121-4.724,16.628
	c-1.648,5.381-3.447,10.718-5.251,16.051c-0.594,1.76-1.397,3.447-2.12,5.163c-0.303,0.72-0.776,1.395-0.941,2.141
	c-0.664,2.997-1.021,2.91-3.827,2.379c-2.979-0.565-5.902-1.461-8.817-2.322c-1.704-0.502-3.375-1.149-5.009-1.852
	c-2.026-0.872-4.037-1.8-5.965-2.863c-0.483-0.268-0.905-1.165-0.871-1.745c0.103-1.771,0.428-3.531,0.691-5.29
	c0.871-5.841,1.681-11.692,2.658-17.514c0.557-3.315,1.379-6.584,2.109-9.868c0.723-3.258,1.441-6.518,2.251-9.753
	c0.204-0.818,0.75-1.549,1.136-2.321c0.248-0.495,0.719-1.001,0.698-1.484c-0.084-1.852,1.011-2.946,2.207-4.097
	c2.946-2.833,6.55-4.41,10.25-6.005c3.167-1.368,6.276-1.196,9.473-0.936c0.762,0.061,1.527,0.543,2.21,0.963
	c1.088,0.668,2.211,1.336,3.134,2.203C279.101,168.169,280.142,170.221,280.031,172.787"/>
<path fill="#FFFFFF" d="M284.443,194.039c2.824-0.202,5.144-0.417,7.469-0.526c3.899-0.188,7.803-0.403,11.706-0.431
	c4.73-0.035,9.463,0.139,14.194,0.171c4.131,0.027,8.265,0.033,12.396-0.037c5.787-0.103,11.571-0.311,17.357-0.423
	c6.027-0.119,12.057-0.184,18.084-0.26c0.318-0.004,0.639,0.102,1.015,0.165c-1.135,2.105-2.23,4.14-3.192,5.923
	c3.337,4.333,7.662,4.549,12.217,4.185c0.831,2.781,1.651,5.528,2.586,8.66c-2.572,0-4.997,0.002-7.421,0
	c-6.866-0.007-13.73-0.031-20.597-0.02c-6.858,0.014-13.724-0.116-20.574,0.144c-7.299,0.275-14.581,0.989-21.878,1.393
	c-2.32,0.129-4.673-0.021-6.986-0.269c-0.697-0.074-1.444-0.797-1.946-1.405c-3.662-4.446-7.251-8.951-10.901-13.407
	C286.978,196.689,285.857,195.58,284.443,194.039"/>
<path fill="#00ADDD" d="M283.06,121.949c-0.619,0.446-1.333,0.938-2.023,1.464c-1.508,1.146-2.762,2.242-1.555,4.479
	c0.584,1.083,0.221,1.75-0.416,2.661c-0.921,1.315-1.562,2.843-0.883,4.528c0.386,0.958,0.095,1.541-0.787,2.042
	c-2.845,1.617-5.64,3.326-8.489,4.934c-1.501,0.847-3.102,1.514-4.618,2.337c-2.336,1.269-4.632,2.61-6.956,3.9
	c-0.634,0.351-1.296,0.665-1.97,0.932c-2.088,0.827-2.503,0.577-2.449-1.605c0.089-3.572,0.17-7.149,0.397-10.715
	c0.544-8.563,1.189-17.12,1.747-25.685c0.115-1.753,1.716-2.15,2.703-2.856c2.6-1.856,5.439-3.396,8.255-4.931
	c1.953-1.062,3.998-1.975,6.054-2.828c3.835-1.589,7.691-3.129,11.571-4.604c3.313-1.262,6.668-2.416,10.015-3.585
	c0.67-0.235,1.392-0.32,2.317-0.523c0.992,6.278-0.521,12.328-0.861,18.877c-0.762,0.104-1.857,0.241-2.95,0.396
	c-1.373,0.193-2.746,0.396-4.118,0.601c-0.165,0.026-0.364,0.03-0.481,0.125c-1.509,1.24-3.165,2.35-4.466,3.78
	C281.42,117.516,282.489,119.61,283.06,121.949"/>
<path fill="#00ADDD" d="M247.854,149.586c-3.459-1.531-6.559-2.981-9.723-4.277c-1.691-0.693-3.498-1.102-5.243-1.67
	c-2.33-0.762-4.669-1.502-6.966-2.355c-1.35-0.501-1.762-2.659-0.637-3.585c1.949-1.604,2.082-3.585,1.39-5.724
	c-0.258-0.796-0.93-1.458-1.605-2.469c0.342-0.481,1.057-1.246,1.494-2.146c0.894-1.84,0.138-3.349-1.94-5.296
	c-1.52-1.425-3.372-1.307-5.139-1.662c-1.533-0.306-3.078-0.558-4.624-0.787c-0.95-0.139-1.313-0.617-1.275-1.576
	c0.158-3.909,0.236-7.821,0.414-11.73c0.135-2.957,0.371-5.909,0.576-8.863c0.03-0.442,0.054-0.91,0.214-1.312
	c0.683-1.718,2.632-2.354,4.467-1.361c3.312,1.791,6.559,3.706,9.872,5.495c1.863,1.006,3.8,1.878,5.715,2.785
	c2.554,1.21,5.109,2.417,7.683,3.583c2.015,0.912,4.035,1.823,6.1,2.611c1.009,0.385,1.189,1.021,1.113,1.938
	c-0.297,3.579-0.608,7.157-0.861,10.739c-0.192,2.724-0.323,5.45-0.449,8.179c-0.206,4.456-0.408,8.912-0.565,13.369
	C247.8,145.344,247.854,147.221,247.854,149.586"/>
<path fill="#FFFFFF" d="M237.869,204.616c-3.995-0.869-8.147-1.396-12.02-2.729c-3.365-1.161-6.431-3.207-9.586-4.939
	c-0.539-0.296-0.816-1.034-1.291-1.487c-1.883-1.789-3.723-3.637-5.716-5.295c-3.067-2.556-4.147-5.729-3.665-9.636
	c0.621-5.043,2.239-9.728,5.55-13.549c2.121-2.445,4.13-5.355,7.758-5.936c0.594-0.096,1.245,0.033,1.848,0.161
	c1.361,0.289,2.695,0.723,4.065,0.957c4.982,0.849,8.993,3.462,12.68,6.744c0.691,0.615,1.646,0.926,2.446,1.429
	c1.676,1.052,3.349,2.111,4.969,3.247c0.212,0.147,0.29,0.933,0.111,1.123c-2.075,2.201-1.817,5.195-2.655,7.801
	c-0.8,2.484-1.207,5.102-1.718,7.674C239.71,194.891,238.829,199.609,237.869,204.616"/>
<path fill="#00ADDD" d="M284.556,85.969c-0.076-0.303-0.197-0.634-0.337-0.97c-0.008-0.053-0.005-0.1-0.018-0.157
	c-0.627-3.052-1.12-6.155-2.079-9.105c-0.633-1.946-1.581-4.144-3.085-5.381c-3.733-3.073-8.212-2.718-12.52-1.278
	c-2.325,0.779-4.329,1.121-6.741,0.039c-2.996-1.343-5.802-3.24-9.321-3.394c-3.475-0.151-6.796,0.298-10.024,1.479
	c-4.267,1.563-7.151,4.986-10.365,7.942c-0.587,0.54-1,1.335-1.322,2.085c-0.918,2.138-1.75,4.313-2.612,6.477
	c-0.653,1.641-1.421,3.239-2.137,4.852c-0.407,0.918-0.815,1.835-1.215,2.756c-0.107,0.247-0.47,0.636-0.335,0.924
	c0.056,0.118,0.163,0.202,0.266,0.282c1.152,0.884,2.637,2.121,4.101,2.381c0.274,0.049,0.553-0.096,0.832-0.065
	c0.383,0.043,0.764,0.179,1.121,0.314c0.038,0.003,5.054-1.406,5.76-6.413c0.077-0.547,1.364-1.132,3.539-1.139
	c1.419-0.005,0.526,0,1.491-0.926c4.097-0.037,8.122-0.239,12.212-0.084c2.362,0.092,4.215,0.271,5.701-1.996
	c0.859-1.31,2.279-2.265,3.489-3.329c1.4-1.233,2.732-2.602,4.304-3.565c1.722-1.059,3.148-0.713,4.01,1.084
	c1.043,2.172,1.788,4.528,2.347,6.879c0.343,1.443,0.938,2.065,2.341,1.931c0.093-0.009,0.186-0.018,0.277-0.027
	c0.348,0.7,1.072,1.164,1.855,1.362c0.474,0.12,0.974,0.177,1.457,0.247c0.244,0.036,0.567,0.121,0.816,0.124
	c0.015,0,0.02,0.002,0.031,0.002c0.025,0.527,0.325,0.923,0.746,1.149c0.022,0.116,0.049,0.236,0.068,0.349
	c0.169,1.016,1.437,1.31,2.217,0.902C283.174,90.788,285.069,88.03,284.556,85.969"/>
<path fill="#FFFFFF" d="M283.411,139.295c-1.682,7.587-3.262,14.714-4.814,21.718c-3.028-0.614-5.992-1.585-8.99-1.707
	c-2.409-0.099-4.922,0.629-7.279,1.348c-5.071,1.55-9.559,4.109-12.999,8.296c-0.469,0.571-1.124,1.182-2.139,0.442
	c-2.097-1.53-4.267-2.97-6.476-4.335c-2.87-1.774-5.678-3.736-8.752-5.066c-3.066-1.326-6.426-1.971-9.887-2.981v-12.831
	c0.872,0.298,1.54,0.521,2.205,0.753c3.653,1.271,7.306,2.546,10.958,3.819c0.417,0.146,0.902,0.208,1.236,0.465
	c2.994,2.288,6.614,3.255,10.097,4.158c4.499,1.168,9.144,1.213,13.484-1.219c3.481-1.951,7.107-3.642,10.584-5.6
	c3.429-1.933,6.742-4.067,10.127-6.08C281.421,140.083,282.166,139.844,283.411,139.295"/>
<path fill="#00ADDD" d="M368.213,155.963c0.309-3.55,0.603-6.931,0.903-10.395c4.386,1.394,8.654,2.663,12.855,4.124
	c2.027,0.705,3.954,1.725,5.87,2.71c0.38,0.197,0.663,0.869,0.722,1.354c0.399,3.321,0.641,6.667,1.136,9.975
	c0.138,0.921,0.755,2.138,1.51,2.529c1.937,1,3.316-0.114,3.067-2.304c-0.276-2.432-0.629-4.855-0.998-7.275
	c-0.257-1.682,0.632-3.041,2.79-4.289c4.651-2.69,9.781-4.2,14.769-6.062c0.876-0.327,1.748-0.663,2.636-1.001v9.406
	c-0.989-0.499-1.564-0.793-2.142-1.081c-1.186-0.588-2.376-0.906-3.673-0.271c-0.378,0.184-0.854,0.226-1.288,0.229
	c-1.552,0.014-2.575,0.747-3.863,1.684c-2.168,1.578-2.467,3.591-2.299,5.628c0.124,1.5,1.27,2.946,2.084,4.345
	c0.408,0.698,1.097,1.232,1.82,2.018c-2.728,1.181-5.3,2.3-7.88,3.402c-0.562,0.239-1.188,0.34-1.722,0.623
	c-2.619,1.379-5.314,1.82-8.237,1.086c-4.319-1.085-8.677-2.017-13-3.086c-0.652-0.161-1.209-0.709-2.41-1.449
	c0.87-0.595,1.48-1.086,2.154-1.462c2.536-1.412,3.335-3.935,4.019-6.449c0.549-2.02-1.873-4.348-4.281-4.271
	C371.381,155.724,370.01,155.849,368.213,155.963"/>
<path fill="#FFFFFF" d="M228.396,287.858c0.571-0.875,0.819-1.376,1.175-1.78c2.265-2.575,3.937-5.44,4.614-8.853
	c0.075-0.379,0.715-0.614,0.991-0.992c0.441-0.604,1.12-1.262,1.136-1.909c0.12-4.906-0.037-9.82,0.163-14.722
	c0.257-6.299,0.765-12.587,1.171-18.879c0.017-0.262,0.101-0.52,0.195-0.982c5.725,3.392,11.724,5.559,18.879,5.753
	c-1.081,2.052-1.902,3.701-2.806,5.302c-1.082,1.917-2.201,3.816-3.367,5.683c-1.547,2.478-3.138,4.927-4.74,7.367
	c-2.231,3.401-4.508,6.771-6.731,10.177c-1.363,2.089-0.239,4.241,0.02,6.335c0.195,1.575,0.75,3.111,1.207,4.646
	c0.251,0.84-0.016,1.25-0.832,1.455c-1.504,0.377-2.998,0.794-4.497,1.193c-0.901,0.239-1.797,0.652-2.704,0.676
	C231.123,288.355,229.967,288.065,228.396,287.858"/>
<path fill="#FFFFFF" d="M408.894,126.155c-1.093,2.604-2.186,5.208-3.319,7.906c1.438,2.128,1.962,2.382,4.117,1.732
	c0.243,1.414,0.44,2.815,0.733,4.197c0.249,1.176-0.411,1.545-1.343,1.885c-2.931,1.071-5.881,2.105-8.741,3.342
	c-2.08,0.899-4.07,2.03-6.032,3.172c-2.078,1.21-2.354,1.237-4.099-0.293v-3.602c-0.163,0.178-0.101,0.087-0.018,0.021
	c0.795-0.608,1.594-1.215,2.391-1.82c-0.585-0.724-1.052-1.606-1.774-2.143c-2.827-2.093-6.178-1.695-8.226,1.104
	c-0.435,0.594,0.006,1.828,0.052,2.976c-0.171-0.03-0.781-0.084-1.36-0.249c-1.073-0.305-2.108-0.848-3.196-0.976
	c-1.594-0.189-1.547-0.987-1.496-2.303c0.131-3.413,1.865-5.959,3.958-8.399c1.173-1.369,0.981-2.438-0.273-3.731
	c-0.875-0.901-1.529-2.02-2.281-3.042c0.147-0.191,0.294-0.384,0.441-0.578c1.829,0.478,3.882,0.583,5.431,1.522
	c2.055,1.246,4.063,1.214,6.25,1.134c2.328-0.085,4.666,0.027,6.997,0.1c0.482,0.017,0.956,0.244,1.07,0.275
	c0.424,1.053,0.699,2.451,1.048,2.469c1.128,0.062,2.464-0.103,3.393-0.693c2.017-1.281,3.83-2.881,5.727-4.352
	C408.525,125.925,408.71,126.041,408.894,126.155 M383.408,137.59c1.378,0.062,2.418-0.81,2.453-2.118
	c0.036-1.357-0.838-2.012-2.022-2.188c-1.354-0.203-2.854,0.799-2.925,1.8C380.794,136.758,381.535,137.504,383.408,137.59
	 M392.08,138.111c1.443,0.054,2.466-0.771,2.502-2.017c0.035-1.253-0.888-2.29-2.147-2.215c-1.147,0.067-2.469,0.205-2.676,1.668
	C389.539,137.103,390.504,138.054,392.08,138.111"/>
<path fill="#FFFFFF" d="M208.961,117.044c0.05,0.907,0.091,1.664,0.109,1.98c-1.167,0.778-2.169,1.221-2.854,1.959
	c-0.774,0.835-0.24,1.998,0.922,2.2c0.821,0.141,1.711,0.286,2.503,0.115c3.418-0.738,6.64,0.571,9.958,0.821
	c0.218,0.018,0.476,0.057,0.637,0.184c0.72,0.564,1.984,1.149,2,1.757c0.041,1.533-1.523,2.711-2.869,2.74
	c-0.438,0.01-0.87,0.329-1.305,0.507c0.403,0.511,0.711,1.175,1.231,1.501c0.895,0.561,2.082,0.737,2.83,1.422
	c0.411,0.377,0.174,1.46,0.229,2.225c-0.688,0.029-1.388,0.156-2.059,0.067c-1.237-0.166-2.448-0.582-3.685-0.664
	c-1.056-0.069-2.038,0.604-1.778,1.701c0.193,0.811,1.002,1.658,1.762,2.106c0.91,0.537,2.061,0.668,3.299,1.03
	c-0.922,1.47-1.736,2.458-3.303,2.648c-4.601,0.555-8.768,0.161-12.767-2.868c-1.879-1.422-2.096-2.582-1.971-4.429
	c0.228-3.347,0.348-6.7,0.626-10.042C202.823,119.841,204.611,117.929,208.961,117.044"/>
<path fill="#FFFFFF" d="M277.52,92.743c-0.875-0.01-1.639-0.34-2.232-0.858c-0.831,0.049-1.663,0.091-2.494,0.149
	c-3.013,0.213-5.078-0.762-5.988-4.191c-0.407-1.535-0.619-3.12-0.954-4.855c-0.442,0.278-0.652,0.36-0.794,0.509
	c-2.114,2.196-4.238,4.385-6.32,6.61c-1.56,1.67-2.649,1.896-4.688,1.2c-1.511-0.516-3.104-1.035-4.675-1.084
	c-3.305-0.103-6.564-1.109-9.872-1.053c-0.528,0.925-1.914,0.655-3.302,0.66c-2.046,0.006-3.71,2.02-5.747,1.813
	c-0.008,0.012-0.014,0.025-0.022,0.037c-1.089,1.614-2.345,2.874-0.512,3.889c0.506,0.28,1.172,0.4,1.759,0.385
	c2.455-0.068,4.909-0.214,7.363-0.334c2.009-0.101,4.054-0.492,6.019-0.245c3.257,0.408,7.084,0.058,8.363,4.426
	c0.047,0.163,1.565,0.257,1.764-0.04c2.03-3.037,5.307-4.291,8.439-5.132c3.097-0.831,6.536-0.293,9.778-0.715
	c1.604-0.209,3.168-0.725,4.733-1.23C277.932,92.705,277.735,92.746,277.52,92.743"/>
<path fill="#FFFFFF" d="M282.118,133.885c0.802-1.21,1.29-2.121,1.944-2.892c0.999-1.174,2.245-2.212,0.427-3.711
	c-0.293-0.241-0.36-0.755-0.548-1.18c1.15-0.835,2.375-1.602,3.449-2.536c1.108-0.965,1.096-2.219,0.092-3.33
	c-0.707-0.784-1.474-1.701-0.77-2.646c0.556-0.748,1.571-1.357,2.493-1.593c2.948-0.752,5.907-0.914,8.891,0.133
	c0.765,0.269,1.804-0.249,3.185-0.485c0.094,1.224,0.261,2.531,0.278,3.842c0.026,1.942-0.083,3.884-0.079,5.827
	c0.006,2.837-0.474,5.475-2.364,7.766c-0.944,1.146-2.072,1.44-3.396,1.358c-2.504-0.156-5.002-0.417-7.507-0.535
	C286.349,133.815,284.477,133.885,282.118,133.885"/>
<path fill="#00ADDD" d="M302.412,223.27c4.272,5.307,8.503,10.562,12.957,16.094c-2.085,0.36-2.979-1.021-4.204-1.573
	c-1.234-0.558-2.439-1.261-3.735-1.569c-0.553-0.132-1.772,0.464-1.887,0.928c-0.45,1.827-1.778,3.312-1.61,5.425
	c0.275,3.487,0.161,7.009,0.173,10.516c0.012,3.69-1.404,6.991-3.3,9.994c-1.311,2.076-3.213,3.778-4.872,5.628
	c-0.201,0.224-0.529,0.333-1.062,0.656c-0.107-0.784-0.263-1.354-0.249-1.92c0.029-1.283,0.399-2.612,0.176-3.839
	c-0.909-4.959,1.886-8.33,4.718-11.747c1.239-1.496,1.921-3.226,1.763-5.232c-0.385-4.891-0.465-9.829-1.211-14.664
	C299.553,228.629,300.576,226.042,302.412,223.27"/>
<path fill="#00ADDD" d="M241.653,299.327c-0.55,2.116-0.774,4.038-1.552,5.699c-0.995,2.126-2.24,4.21-3.748,6
	c-1.327,1.574-3.099,2.81-4.789,4.036c-2.893,2.104-2.865,2.023-4.256-1.215c-1.148-2.675-2.648-5.209-3.668-7.928
	c-0.8-2.13-1.106-4.446-1.386-6.888C228.699,301.646,234.973,300.53,241.653,299.327"/>
<path fill="#FFFFFF" d="M280.828,221.741c1.674-2.604,3.277-4.846,4.602-7.239c1.304-2.359,2.325-4.875,3.569-7.533
	c0.642,0.63,1.435,1.271,2.06,2.048c2.438,3.033,4.79,6.134,7.246,9.153c0.76,0.935,0.806,1.7,0.186,2.707
	c-0.729,1.182-1.305,2.459-1.95,3.691c-1.028,1.964-2.829,2.95-4.809,3.606c-0.488,0.16-1.25-0.085-1.728-0.391
	c-3.081-1.975-6.12-4.016-9.166-6.043C280.709,221.655,280.642,221.475,280.828,221.741"/>
<path fill="#FFFFFF" d="M288.237,138.203c2.637,0.151,5.432,0.312,8.206,0.473c-1.03,10.753-4.487,20.292-12.026,28.068
	c-1.82-1.084-1.959-1.89-1.371-3.659c0.664-1.999,0.99-4.11,1.469-6.171c1.081-4.655,2.209-9.301,3.225-13.97
	C288.052,141.506,288.058,140,288.237,138.203"/>
<path fill="#FFFFFF" d="M140.243,221.417c4.5,0.208,8.52,0.395,12.908,0.598c-2.291,2.202-1.814,4.797-2.175,7.119
	c-0.931,6-1.606,12.039-2.538,18.039c-0.287,1.845-1.074,3.611-1.62,5.375C144.65,242.282,142.482,232.018,140.243,221.417"/>
<path fill="#FFFFFF" d="M261.635,234.742c-0.83,2.044-1.661,4.278-2.679,6.425c-0.194,0.408-1.146,0.68-1.722,0.64
	c-1.213-0.085-2.431-0.338-3.608-0.663c-3.377-0.93-6.803-1.747-10.071-2.978c-1.755-0.661-3.271-2.024-4.786-3.209
	c-0.337-0.265-0.345-1.126-0.283-1.689c0.177-1.603,0.484-3.192,0.711-4.79c0.182-1.286,0.773-1.542,1.958-1.015
	c2.626,1.168,5.244,2.385,7.953,3.326C253.184,232.203,257.336,233.397,261.635,234.742"/>
<path fill="#FFFFFF" d="M463.058,213.125c-0.445,2.81-0.643,5.254-1.239,7.597c-1.679,6.593-2.035,13.373-3.047,20.058
	c-0.048,0.316-0.218,0.613-0.715,0.975c-2.658-9.223-5.316-18.443-8.043-27.907C454.706,213.587,458.946,213.353,463.058,213.125"/>
<path fill="#FFFFFF" d="M218.032,157.336c-2.471,1.546-4.865,3.041-7.155,4.475c-1.63-2.854-3.512-5.769-5.004-8.87
	c-1.533-3.187-2.685-6.558-4.206-10.353c1.008,0.442,1.563,0.717,2.14,0.936c1.241,0.473,2.47,0.998,3.745,1.359
	c3.099,0.878,6.213,1.649,9.497,1.108c1.336-0.219,0.983,0.843,0.983,1.577C218.032,150.899,218.032,154.229,218.032,157.336"/>
<path fill="#FFFFFF" d="M408.716,183.503c0.063-0.578,0.117-1.057,0.174-1.567c3.408-0.546,6.235,1.131,9.243,1.957
	c2.788,0.766,4.302,2.999,5.873,5.129c0.755,1.021,0.192,2.611-1.537,3.294c-3.027,1.194-6.195,2.032-9.305,3.016
	c-1.107,0.351-2.246,0.615-3.319,1.049c-3.217,1.298-6.592,1.326-10.04,1.564c0.483-1.52,0.838-2.862,1.365-4.131
	c0.122-0.294,0.823-0.44,1.274-0.49c2.659-0.292,5.357-0.359,7.976-0.856c1.756-0.333,3.439-1.167,5.082-1.938
	c1.118-0.522,1.754-1.481,1.563-2.854c-0.221-1.585-0.952-2.721-2.571-3.068C412.645,184.209,410.777,183.895,408.716,183.503"/>
<path fill="#FFFFFF" d="M280.217,197.425c0.585,0.375,0.814,0.529,1.051,0.675c3.671,2.246,4.382,4.272,2.938,8.289
	c-0.451,1.256-0.639,2.655-1.305,3.776c-1.718,2.894-3.625,5.672-5.498,8.47c-0.12,0.18-0.589,0.158-0.896,0.167
	c-0.145,0.003-0.29-0.15-0.438-0.229c-2.633-1.376-2.756-1.416-1.816-4.299c0.836-2.565,2.037-5.008,2.974-7.542
	c0.69-1.87,1.212-3.802,1.815-5.703C279.405,199.887,279.784,198.748,280.217,197.425"/>
<path fill="#FFFFFF" d="M241.233,290.532c0.201,0.389,0.245,0.437,0.25,0.486c0.353,3.997,0.361,4.038-3.609,4.762
	c-4.196,0.765-8.405,1.085-12.578-0.181c-0.573-0.173-1.123-0.424-1.704-0.646c1.92-3.247,2.678-3.269,6.241-2.991
	c2.881,0.222,5.837-0.451,8.752-0.793C239.495,291.062,240.379,290.744,241.233,290.532"/>
<path fill="#FFFFFF" d="M413.742,167.339c-1.709-0.913-3.324-1.644-4.789-2.604c-1.238-0.81-2.312-1.875-3.437-2.852
	c-1.059-0.921-1.279-2.575-0.516-3.619c0.957-1.312,2.005-1.496,3.461-0.84c2.944,1.326,4.808,3.839,6.78,6.188
	c0.438,0.522,0.393,1.7,0.16,2.448C415.242,166.578,414.379,166.879,413.742,167.339"/>
<path fill="#FFFFFF" d="M384.83,218.351c-1.503-5.354-3.006-10.706-4.536-16.152c1.697-0.304,3.262-0.584,4.8-0.86v17.048
	C385.006,218.374,384.918,218.363,384.83,218.351"/>
<path fill="#FFFFFF" d="M371.98,160.427c-1.429,4.521-5.442,6.359-9.155,8.522c-1.905-2.498-0.671-5.904,2.259-6.736
	c1.671-0.474,3.24-1.296,4.87-1.92c0.528-0.201,1.106-0.271,1.662-0.401C371.737,160.07,371.859,160.248,371.98,160.427"/>
<path fill="#FFFFFF" d="M294.896,250.438c0.078-6.319-0.049-12.317-2.303-18.125c1.097-0.473,2.09-0.899,3.382-1.457
	c0.349,5.67,0.715,11.04,0.982,16.418C297.02,248.513,296.536,249.649,294.896,250.438"/>
<path fill="#FFFFFF" d="M249.917,104.54c-3.956-1.604-7.696-3.12-11.436-4.638C246.143,97.809,248.923,99.305,249.917,104.54"/>
<path fill="#FFFFFF" d="M264.922,98.369c-2.072,1.287-3.834,2.384-5.725,3.559C259.397,99.854,261.867,98.35,264.922,98.369"/>
<path fill="#FFFFFF" d="M365.416,42.103c-4.653-0.368-9.093-0.858-13.544-1.045c-7.693-0.32-15.395-0.568-23.094-0.626
	c-5.468-0.04-10.938,0.312-16.409,0.44c-10.5,0.248-21,0.463-31.501,0.688c-0.885,0.02-1.77,0.003-3.021,0.003
	c0.562-1.199,0.898-2.189,1.449-3.042c2.554-3.955,5.066-7.942,7.789-11.779c2.082-2.935,4.212-5.909,6.767-8.41
	c2.576-2.525,5.495-4.865,8.644-6.592c3.135-1.722,6.709-2.684,10.15-3.796c7.002-2.267,14.269-2.186,21.373-1.189
	c4.862,0.684,9.715,2.33,13.72,5.603c2.432,1.985,5.012,3.804,7.332,5.91c1.424,1.293,2.441,3.024,3.712,4.497
	c2.445,2.831,4.138,6.003,4.854,9.709c0.531,2.762,1.236,5.487,1.841,8.234C365.543,41.01,365.455,41.348,365.416,42.103"/>
<path fill="#00ADDD" d="M59.904,228.228c2.571,2.021,5.032,3.88,7.406,5.844c2.598,2.146,5.182,4.319,7.648,6.614
	c2.417,2.25,4.642,4.705,7.016,7.004c2.582,2.498,5.251,4.906,7.858,7.38c1.364,1.294,2.723,2.601,3.995,3.983
	c0.603,0.656,1.876,1.886,1.328,2.427c-1.981-0.158-2.322-0.349-3.667-0.234c-4.062,0.342-7.892-0.316-11.962-0.137
	c-7.97,0.35-15.947,0.551-23.923,0.785c-6.685,0.197-13.37,0.38-20.057,0.522c-2.891,0.062-5.785,0.01-8.678,0.01
	c-0.12-0.159-0.239-0.317-0.359-0.477c5.476-5.675,10.896-11.407,16.444-17.01C48.499,239.339,54.173,233.868,59.904,228.228"/>
<path fill="#FFFFFF" d="M429.306,259.823c-2.728,0.121-5.27,0.23-7.811,0.351c-1.836,0.086-3.677,0.128-5.505,0.296
	c-1.47,0.137-2.918,0.506-4.388,0.64c-1.211,0.11-2.44-0.006-3.66,0.032c-8.909,0.277-17.818,0.557-26.726,0.857
	c-3.11,0.104-6.22,0.383-9.328,0.363c-2.571-0.017-2.606-0.162-2.561-2.715c0.027-1.562,0.249-3.122,0.247-4.682
	c-0.003-1.591-0.172-3.182-0.287-5.087c1.302-0.178,2.763-0.5,4.233-0.558c10.544-0.404,21.088-0.923,31.637-1.067
	c7.525-0.105,15.059,0.312,22.587,0.499c0.279,0.007,0.557,0.05,0.835,0.054c3.589,0.057,3.219-0.075,2.549,3.652
	c-0.37,2.064-1.161,4.052-1.721,6.088C429.279,259.013,429.326,259.527,429.306,259.823"/>
<path fill="#FFFFFF" d="M349.167,289.934c2.071-2.04,4.333-3.687,5.794-5.868c1.551-2.316,3.705-2.74,5.763-2.859
	c6.57-0.379,13.112-0.341,19.685-0.692c7.471-0.396,13.68-0.646,21.134-1.258c5.993-0.49,13.148-1.064,19.133-1.695
	c3.665-0.387,8.389-0.851,12.072-0.945c0.652-0.018,2.413,1.51,2.753,2.17c1.194,2.313,2.695,4.893,3.9,7.584
	c-1.445,0.202-2.629,0.477-3.821,0.516c-6.18,0.199-14.721-0.343-20.899-0.132c-4.621,0.158-9.237,0.475-13.857,0.639
	c-4.506,0.161-9.019,0.139-13.52,0.36c-1.857,0.092-3.777,0.404-5.637,0.562c-1.816,0.152-3.572,0.22-5.395,0.345
	c-5.372,0.369-10.731,0.946-16.107,1.24C356.637,290.09,353.09,289.934,349.167,289.934"/>
<path fill="#00ADDD" d="M431.565,272.841c-23.067,2.775-46.876,4.273-70.049,4.674c0.864-1.131,1.547-2.199,2.401-3.106
	c2.085-2.212,4.399-4.226,6.327-6.562c1.117-1.354,2.28-1.442,3.801-1.488c3.913-0.119,7.821-0.334,11.73-0.532
	c1.718-0.086,3.433-0.206,5.155-0.176c1.71,0.029,3.378,0.018,5.082-0.116c1.701-0.132,3.415-0.23,5.123-0.317
	c3.892-0.195,7.787-0.29,11.681-0.438c1.927-0.074,3.854-0.16,5.777-0.279c1.901-0.117,3.818-0.11,5.725-0.18
	c0.485-0.02,0.973-0.039,1.46-0.062c0.815-0.038,1.184,0.123,1.538,1.024C428.242,267.637,430.443,270.485,431.565,272.841"/>
<path fill="#FFFFFF" d="M435.148,301.198c-0.369-3.134-0.672-6.275-0.919-9.422c-0.085-1.081-0.614-1.033-1.447-1.016
	c-4.13,0.092-10.625,0.074-14.756,0.157c-4.574,0.093-9.149,0.214-13.838,0.336c0.173,0.037-0.433-0.112-0.27-0.042
	c-13.532,0.232-16.236,0.594-17.882,0.619c-1.645,0.023-3.408,0.306-6.002,0.453c-7.764,0.587-15.533,1.174-23.341,1.764
	c0.638,9.818,1.263,19.418,1.91,29.374c8.681-0.268,17.104-0.476,25.524-0.8c5.522-0.214,11.037-0.836,16.556-0.849
	c9.482-0.02,17.71,0.505,28.368-0.684c1.974-0.22,6.284-0.64,8.24-0.954c0.016-0.318,0.014-1.439-0.006-1.598
	C436.573,312.758,435.829,306.981,435.148,301.198"/>
<path fill="#FFFFFF" d="M364.366,267.29c-3.509,3.813-7.127,7.743-10.346,11.241c-3.524-1.177-6.435-2.146-9.677-3.229
	c0.837-0.856,1.828-1.782,2.711-2.802c0.718-0.827,1.315-1.763,1.951-2.659c0.255-0.361,0.448-0.767,0.705-1.125
	c1.082-1.517,2.229-2.987,3.255-4.539c1.244-1.884,1.304-1.963,3.282-0.983C358.99,264.552,361.714,265.949,364.366,267.29"/>
<path fill="#FFFFFF" d="M442.011,261.71c3.388,6.269,4.779,10.633,5.243,12.321c0.109,0.398-0.183,0.778-0.594,0.802
	c-2.889,0.173-6.117,1.179-8.392,1.065c-0.52-0.025-1.434-1.94-1.73-2.459c-1.208-2.113-3.028-5.043-4.1-7.228
	c-0.17-0.348-0.09-1.113,0.169-1.325c1.774-1.453,3.332-1.572,5.598-2.737c0.437-0.223,1.422-0.621,1.797-0.887
	C440.676,260.785,441.618,260.984,442.011,261.71"/>
<path fill="#231F20" d="M383.409,137.589c-1.874-0.086-2.616-0.83-2.495-2.507c0.072-1.001,1.571-2.003,2.925-1.8
	c1.186,0.177,2.06,0.831,2.022,2.19C385.826,136.779,384.786,137.651,383.409,137.589"/>
<path fill="#231F20" d="M392.08,138.111c-1.576-0.058-2.541-1.009-2.321-2.563c0.207-1.463,1.528-1.601,2.676-1.668
	c1.26-0.075,2.183,0.962,2.147,2.215C394.546,137.341,393.523,138.165,392.08,138.111"/>
<path fill="#231F20" d="M406.72,308.179c0.827,0.265,1.006,0.795,0.971,1.509c-0.585,4.285-3.226,7.335-7.5,8.235
	c-2.207,0.271-2.146,0.48-4.378,0.515c-0.37,0.006-3.09-0.388-3.426-0.541c-3.805-1.748-7.326-5.507-7.059-10.283
	c0.182-3.233,1.54-6.095,3.704-8.63c1.914-2.242,4.433-3.114,7.142-3.564c2.344-0.389,4.717,0.581,6.844,1.762
	c1.867,1.286,2.644,3.077,3.795,4.971c0.238,0.39,0.31,0.882,0.5,1.448h-1.535c-0.2-0.456-0.449-0.927-0.618-1.423
	c-1.368-3.993-4.706-5.385-8.367-5.484c-2.426-0.068-4.901,0.89-6.735,2.993c-1.812,2.078-3.014,4.403-3.484,7.051
	c-0.501,2.81,0.085,5.354,2.19,7.549c2.654,2.771,5.809,3.509,9.454,3.006c4.857-0.671,7.742-3.526,8.391-8.394
	C406.637,308.685,406.674,308.472,406.72,308.179"/>
<path fill="#231F20" d="M402.758,313.208c-0.089-2.953-0.179-5.906-0.27-8.911c-2,0.677-4.695,2.901-4.438,4.963
	c0.145,1.159,0.026,2.354-0.021,3.531c-0.021,0.492-0.169,0.979-0.261,1.469c-0.125,0.008-0.25,0.014-0.375,0.021
	c-0.138-0.309-0.361-0.609-0.396-0.931c-0.197-1.773-0.43-3.547-0.482-5.327c-0.029-1.007-0.344-1.654-1.248-2.061
	c-1.265-0.571-2.517-1.172-3.96-1.846c-0.095,1.343-0.206,2.57-0.26,3.799c-0.047,1.063,0.007,2.132-0.06,3.192
	c-0.026,0.417,0.128,0.819-0.013,1.229c-0.176-0.037-0.74-0.071-0.917-0.108c0.127-3.145,0.255-6.29,0.395-9.748
	c1.168,0.425,2.09,0.639,2.889,1.08c1.227,0.674,2.185,1.226,3.414,1.892c0.402,0.218,1.162,0.211,1.532-0.033
	c1.135-0.754,2.287-1.359,3.388-2.167c0.363-0.267,1.065-0.592,1.269-0.438c0.345,0.263,0.558,0.876,0.583,1.355
	c0.126,2.386,0.188,4.774,0.234,7.164C403.774,312.04,403.858,312.831,402.758,313.208"/>
<path fill="#231F20" d="M396.63,303.666c-0.565,0.205-1.339-0.732-1.343-1.17c-0.004-0.606,0.051-1.217-0.015-1.817
	c-0.096-0.889,0.277-1.311,1.127-1.511c1.414-0.331,1.821-0.048,1.747,1.344c0-0.003,0.542,0.241,0.59,0.264
	c0.026,0.012,0.054,0.022,0.074,0.044c0.02,0.017,0.032,0.042,0.045,0.064c0.355,0.664,0.464,1.295,0.045,1.959
	c-0.34,0.54-0.93,0.851-1.562,0.87c-0.551,0.019-1.289,0.312-1.402-0.657c0.662-0.068,1.335-0.091,1.98-0.235
	c0.188-0.043,0.225-0.404,0.24-0.646c0.009-0.131-0.174-0.426-0.399-0.443C395.563,301.553,396.362,302.938,396.63,303.666
	 M397.503,300.186c-0.591-0.691-1.615-0.271-1.255,0.962C396.714,301.017,397.658,301.147,397.503,300.186"/>
<path fill="#231F20" d="M395.371,310.288c0.15,0.712-0.03,1.459-0.678,2.026c-0.374,0.327-1.041,0.606-1.466,0.493
	c-0.327-0.088-0.639-0.812-0.675-1.274c-0.008-0.108-0.015-0.217-0.02-0.328c-0.037-0.796-0.092-1.934,0.446-2.601
	c0.418-0.519,1.027-0.233,1.446,0.129C394.909,309.151,395.249,309.708,395.371,310.288 M393.185,310.51
	c0,1.022,0.302,1.308,0.657,1.388c0.585-0.241,0.871-0.836,0.873-1.257c-0.049-0.565-0.322-1.311-0.755-1.468
	C393.646,309.173,393.273,309.438,393.185,310.51"/>
<path fill="#231F20" d="M400.24,312.531c-0.068-0.399-0.093-0.81-0.178-1.205c-0.08-0.38-0.153-0.757-0.219-1.139
	c-0.042-0.244-0.098-0.557-0.281-0.742c-0.207-0.209-0.543-0.098-0.725-0.346c-0.296-0.404-0.143-0.606,0.385-0.736
	c0.67-0.163,1.368-0.209,2.207-0.325c-0.101,0.399,0.206,0.822,0.082,0.866c-0.763,0.27-0.929,1.028-0.889,1.69
	c0.011,0.163,0.245,1.936,0.124,1.936C400.578,312.53,400.409,312.531,400.24,312.531"/>
<path fill="#231F20" d="M242.149,86.941c-0.517,0.046-1.022,0.135-1.528,0.218c-0.187-0.497-1.084-0.621-1.792-0.575
	c-5.652,0.362-9.729,3.596-11.466,8.998c-0.366,1.14,0.597,1.874,1.53,1.842c0.499,1.033,2.372,1.221,2.855-0.217
	c1.286-3.832,4.572-6.063,8.309-6.906h0.199c0.27,0,0.489-0.071,0.683-0.17c0.402-0.066,5.187-0.14,5.594-0.175
	C248.454,89.79,244.087,86.774,242.149,86.941"/>
<path fill="#231F20" d="M280.936,93.111c-0.372-1.479-0.946-3.41-2.304-4.281c-1.253-0.806-3.02-1.308-4.501-1.226
	c-1.098,0.062-1.553,1.056-1.405,1.889c-0.837,0.912-0.043,2.829,1.525,2.485c1.106-0.24,2.008,1.265,2.276,2.122
	c0.354,1.132,1.579,1.269,2.346,0.781C279.868,95.247,281.277,94.471,280.936,93.111"/>
<path fill="#231F20" d="M39.839,243.685c-11.857-2.359-23.257,5.002-34.914,1.971c-2.822-0.735-4.026,3.633-1.203,4.366
	c11.89,3.093,23.103-4.32,34.913-1.971C41.481,248.618,42.699,244.254,39.839,243.685"/>
</svg>
