<?xml version="1.0" encoding="utf-8"?>
<!-- Generator: Adobe Illustrator 15.1.0, SVG Export Plug-In . SVG Version: 6.00 Build 0)  -->
<!DOCTYPE svg PUBLIC "-//W3C//DTD SVG 1.1//EN" "http://www.w3.org/Graphics/SVG/1.1/DTD/svg11.dtd">
<svg version="1.1" id="Layer_1" xmlns="http://www.w3.org/2000/svg" xmlns:xlink="http://www.w3.org/1999/xlink" x="0px" y="0px"
	 width="150px" height="114px" viewBox="0 0 150 114" enable-background="new 0 0 150 114" xml:space="preserve">
<path fill="#FFFFFF" d="M121.011,57.815c-0.244-0.623-0.312-1.322-0.851-1.816c-0.176-0.158-0.297-0.394-0.41-0.614
	c-0.214-0.433-0.457-0.821-0.837-1.147c-0.607-0.524-1.154-1.101-1.542-1.815c-0.38-0.691-0.517-1.413-0.175-2.149
	c0.175-0.38,0.404-0.744,0.661-1.079c0.448-0.585,0.448-1.245-0.075-1.709c-0.145-0.137-0.357-0.197-0.466-0.25
	c-0.156-0.266-0.24-0.524-0.408-0.669c-0.327-0.272-0.677-0.538-1.062-0.706c-0.814-0.358-1.543-0.813-2.196-1.397
	c-0.555-0.495-0.903-1.118-0.691-1.892c0.113-0.41,0.304-0.798,0.478-1.186c0.123-0.25,0.267-0.485,0.274-0.774
	c-0.577-0.22-1.117-0.448-1.664-0.637c-0.556-0.19-1.1-0.35-1.701-0.38c-0.91-0.039-1.762-0.374-2.566-0.806
	c-0.106-0.053-0.229-0.136-0.281-0.235c-0.229-0.457-0.518-0.912-0.631-1.398c-0.146-0.653-0.22-1.337-0.03-2.012
	c0.037-0.122,0.008-0.267,0.008-0.425c-0.381-0.061-0.708-0.031-1.042,0.053c-0.204,0.053-0.409,0.098-0.622,0.144
	c-0.706,0.167-1.429,0.288-2.118,0.509c-0.754,0.236-1.514,0.365-2.295,0.386c-0.312,0.008-0.6-0.053-0.844-0.265
	c-0.105-0.091-0.221-0.175-0.296-0.289c-0.29-0.425-0.63-0.79-0.995-1.155c-0.638-0.645-1.125-1.443-1.307-2.347
	c-0.151-0.775-0.592-1.216-1.192-1.466c-0.175,0.068-0.304,0.175-0.388,0.145c-0.417-0.175-0.714-0.015-0.957,0.334
	c-0.334-0.13-0.608-0.069-0.844,0.182c-0.054,0.061-0.15,0.083-0.22,0.129c-0.585,0.403-1.216,0.745-1.747,1.208
	c-0.615,0.547-1.283,0.98-2.052,1.284c-0.919,0.364-1.813,0.22-2.727,0.015c-0.145-0.039-0.281-0.144-0.402-0.251
	c-0.485-0.418-0.956-0.843-1.436-1.268c-0.328-0.281-0.448-0.304-0.806-0.083c-0.486,0.288-0.994,0.562-1.421,0.926
	c-0.439,0.372-0.835,0.82-1.177,1.292c-0.333,0.455-0.585,0.971-0.851,1.473c-0.417,0.76-1.079,1.086-1.906,1.155
	c-0.373,0.031-0.744,0.076-1.116,0.06c-0.585-0.015-1.186,0.016-1.726-0.28c-0.516-0.289-1.063-0.319-1.655-0.275
	c-0.449,0.031-0.736,0.236-0.95,0.578c-0.129,0.221-0.228,0.486-0.273,0.744c-0.076,0.456-0.128,0.92-0.128,1.375
	c0.008,1.412-0.091,2.81-0.441,4.178c-0.167,0.645-0.524,1.132-1.154,1.359c-0.41,0.144-0.851,0.258-1.291,0.303
	c-0.799,0.077-1.596,0.084-2.394,0.129c-0.509,0.031-0.539,0.062-0.516,0.578c0.03,0.638,0.114,1.269,0.128,1.899
	c0.016,0.425,0.054,0.88-0.272,1.215c-0.479,0.486-1.064,0.829-1.748,0.957c-0.858,0.167-1.687,0.403-2.394,0.965
	c-0.235,0.19-0.554,0.341-0.501,0.691c0.045,0.333,0.395,0.365,0.654,0.47c0.342,0.145,0.683,0.244,0.95,0.555
	c0.197,0.251,0.091,0.517,0.175,0.752c0.402,1.093-0.486,2.119-1.238,2.544c-0.418,0.229-0.851,0.441-1.224,0.738
	c-0.729,0.592-1.435,1.215-2.119,1.86c-0.319,0.297-0.592,0.662-0.82,1.042c-0.259,0.41-0.205,0.494,0.212,0.743
	c0.228,0.13,0.517,0.252,0.631,0.464c0.25,0.434,0.547,0.843,0.745,1.33c0.312,0.796,0.28,1.521-0.061,2.264
	c-0.318,0.675-0.677,1.328-0.972,2.013c-0.281,0.654-0.532,1.313-0.76,1.991c-0.198,0.569-0.289,1.163-0.19,1.808
	c0.342,0.029,0.676,0.06,1.003,0.099c0.424,0.045,0.85,0.061,1.26,0.167c0.653,0.174,1.276,0.447,1.93,0.606
	c0.546,0.137,0.851,0.412,1.01,0.958c0.106,0.34,0.296,0.69,0.539,0.949c0.251,0.257,0.312,0.516,0.235,0.82
	c-0.174,0.646-0.372,1.285-0.562,1.931c-0.19,0.66-0.319,1.32-0.296,2.02c0.282,0,0.509-0.023,0.737,0.008
	c0.684,0.076,1.299-0.084,1.884-0.426c0.623-0.372,1.306-0.547,2.021-0.601c0.494-0.038,0.988-0.098,1.473-0.181
	c0.654-0.121,1.238-0.093,1.656,0.523c0.152,0.221,0.327,0.425,0.517,0.607c0.403,0.401,0.592,0.905,0.57,1.442
	c-0.031,0.593-0.077,1.217-0.251,1.786c-0.365,1.185-0.334,2.385-0.312,3.593c0.007,0.646,0.478,0.889,1.048,0.592
	c0.182-0.106,0.365-0.228,0.555-0.318c0.957-0.478,1.967-0.715,3.039-0.5c0.181,0.028,0.371,0.149,0.493,0.287
	c0.539,0.594,1.033,1.207,1.201,2.035c0.082,0.41,0.196,0.867,0.447,1.186c0.532,0.678,0.904,1.473,1.634,2.013
	c0.462,0.35,0.615,0.319,1.009,0.031c0.107-0.084,0.244-0.259,0.327-0.235c0.358,0.104,0.524-0.16,0.723-0.336
	c0.812-0.735,1.739-1.291,2.734-1.73c0.736-0.327,1.374-0.221,1.944,0.318c0.067,0.062,0.129,0.13,0.197,0.183
	c0.439,0.351,0.836,0.753,1.488,0.714c0.312-0.022,0.585,0.205,0.723,0.577c-0.146,0.015-0.243,0.015-0.334,0.023
	c0.045,0.105,0.075,0.243,0.159,0.312c0.395,0.326,0.788,0.661,1.215,0.943c0.319,0.203,0.67,0.363,1.071,0.394
	c0.074-0.455-0.319-0.576-0.501-0.82c0.273-0.41,0.508,0.183,0.706,0.022c0.387-0.638,0.737-1.229,1.108-1.814
	c0.281-0.442,0.654-0.799,1.147-0.996c0.478-0.188,0.957-0.388,1.443-0.548c0.326-0.113,0.669-0.113,0.996,0.031
	c0.228,0.1,0.446,0.235,0.683,0.281c1.109,0.221,2.181,0.653,3.336,0.578c0.036-0.009,0.075-0.009,0.105,0.008
	c0.402,0.195,0.805,0.044,1.208,0.014c0.267-0.03,0.463-0.152,0.63-0.356c0.638-0.782,1.284-1.567,1.923-2.347
	c0.021-0.032,0.021-0.068,0.038-0.094c-0.046-0.15-0.085-0.287-0.139-0.492c0.222,0.061,0.366,0.106,0.517,0.152
	c0.19-0.204,0.373-0.395,0.556-0.593c0.061-0.061,0.114-0.145,0.19-0.174c0.41-0.122,0.818-0.237,1.23-0.343
	c0.189-0.054,0.355-0.009,0.456,0.182c0.143,0.268,0.395,0.305,0.646,0.259c0.433-0.075,0.866-0.19,1.299-0.28
	c0.122-0.03,0.25-0.075,0.356-0.047c0.403,0.107,0.768-0.054,1.132-0.151c0.22-0.06,0.441-0.136,0.668-0.159
	c0.396-0.046,0.675-0.303,0.691-0.707c0.038-0.812-0.137-1.594-0.356-2.362c-0.167-0.576-0.349-1.154-0.372-1.762
	c-0.031-0.706,0.053-1.353,0.66-1.815c0.395-0.304,0.752-0.653,1.17-0.918c0.713-0.457,1.451-0.868,2.324-0.989
	c0.389-0.06,0.745-0.273,1.094-0.508c0.471-0.312,0.843-0.737,1.315-1.041c0.09-0.061,0.174-0.122,0.266-0.184
	c0.213-0.135,0.425-0.265,0.652-0.41c-0.076-0.175-0.098-0.31-0.174-0.394c-0.465-0.517-0.903-1.065-1.428-1.505
	c-0.624-0.508-1.041-1.125-1.209-1.884c-0.16-0.722-0.121-1.428,0.6-1.899c0.076-0.044,0.13-0.12,0.199-0.174
	c0.63-0.502,1.32-0.889,2.064-1.192c0.455-0.184,0.912-0.411,1.33-0.677c0.349-0.219,0.297-0.539-0.092-0.721
	c-0.028-0.016-0.067-0.016-0.104-0.04c-1.058-0.562-1.748-1.252-1.642-2.414c0.029-0.28-0.077-0.577,0.198-0.843
	c0.409,0.105,0.584-0.175,0.683-0.525c0.099-0.327,0.166-0.668,0.252-1.018c0.484,0.03,0.63-0.008,0.683-0.319
	c0.045-0.272,0.19-0.396,0.418-0.478C120.964,58.135,121.07,57.99,121.011,57.815 M100.388,61.514
	c0.016-0.022,0.016-0.044,0.021-0.061c-0.029-0.046-0.068-0.089-0.092-0.143c-0.083-0.197-0.159-0.395-0.234-0.593
	c-0.083,0.035-0.167,0.075-0.258,0.113c-0.267-0.303-0.563-0.585-0.791-0.913c-0.576-0.834-1.36-1.435-2.135-2.064
	c-0.995-0.798-2.202-1.132-3.373-1.527c-1.162-0.395-2.362-0.623-3.592-0.736c-0.973-0.092-1.914,0.083-2.864,0.174
	c-1.261,0.121-2.468,0.509-3.66,0.904c-0.738,0.251-1.413,0.661-2.119,0.995c-0.214,0.099-0.443,0.183-0.754,0.311
	c0.047-0.219,0.039-0.348,0.092-0.44c0.113-0.22,0.251-0.426,0.395-0.638c0.335-0.494,0.669-0.996,1.01-1.488
	c0.1-0.138,0.205-0.282,0.334-0.396c-0.007-0.145,0.024-0.289,0.101-0.44c0.522-1.018,1.558-1.61,2.278-2.462
	c0.151-0.182,0.381-0.258,0.615-0.258c0.426-0.243,0.889-0.448,1.375-0.601c0.105-0.107,0.25-0.189,0.44-0.227
	c3.054-0.532,5.849-0.737,8.826,0.303c2.675,0.935,4.125,2.917,5.659,5.188c0.13,0.182,0.168,0.365,0.151,0.531
	c0.183,0.35,0.344,0.707,0.449,1.063c0.008,0.03,0.022,0.053,0.038,0.076c0.265,0.661,0.265,1.366,0.334,2.051
	c0.107,1.049,0.024,2.089-0.402,3.077c-0.159,0.38-0.297,0.759-0.456,1.139c-0.038,0.076-0.145,0.13-0.221,0.197
	c-0.06-0.06-0.12-0.083-0.136-0.129c-0.197-0.546-0.379-1.101-0.593-1.64c-0.099-0.267-0.229-0.525-0.372-0.767
	C100.341,61.917,100.273,61.72,100.388,61.514 M95.342,70.326c-0.067,0.029-0.143,0.037-0.219,0.061
	c-1.604,0.745-3.45,1.132-4.869,1.11c-1.026-0.024-2.075-0.168-3.1-0.42v0.009c-0.176,0.038-0.298,0.015-0.38-0.098
	c-0.206-0.062-0.403-0.13-0.607-0.189c0.008,0.013,0.008,0.027,0.016,0.044c-0.139-0.053-0.26-0.113-0.396-0.167
	c-1.185-0.434-2.286-1.033-3.229-1.808c-0.157-0.054-0.287-0.166-0.394-0.279c-0.138-0.146-0.26-0.299-0.381-0.45
	c-0.501-0.524-0.919-1.116-1.253-1.769c-0.684-0.829-1.025-2.053-1.033-3.108c-0.054-0.387-0.054-0.714,0.357-1.077
	c0.637-0.548,1.208-1.179,1.906-1.656c0.684-0.473,1.405-0.874,2.226-1.087c0.569-0.146,1.107-0.396,1.679-0.518
	c1.216-0.274,2.439-0.494,3.684-0.494c1.3-0.008,2.546,0.281,3.754,0.715c0.568,0.205,1.132,0.426,1.662,0.699
	c0.686,0.343,1.247,0.857,1.777,1.413c0.73,0.76,1.215,1.655,1.68,2.583c0.114,0.213,0.19,0.425,0.146,0.668
	c0.091,0.228,0.175,0.448,0.227,0.66c0,0,0,0.008,0.008,0.008c0.061,0.039,0.129,0.113,0.159,0.184
	c0.251,0.705,0.281,1.419,0.145,2.156c-0.099,0.501-0.425,0.805-0.76,1.161c-0.614,0.662-1.45,0.942-2.15,1.451
	C95.82,70.257,95.556,70.257,95.342,70.326"/>
<path fill="#231F20" d="M33.784,42.819c0.084-0.055,0.132-0.076,0.131-0.087c-0.009-0.054-0.033-0.104-0.051-0.155
	C33.844,42.641,33.823,42.705,33.784,42.819"/>
<path fill="#231F20" d="M37.587,47.502c-0.076-0.062-0.118-0.113-0.167-0.125c-0.026-0.007-0.101,0.056-0.099,0.085
	c0.004,0.056,0.045,0.109,0.071,0.164C37.443,47.593,37.494,47.561,37.587,47.502"/>
<path fill="#231F20" d="M44.548,48.422c-0.018-0.028-0.036-0.059-0.055-0.088c-0.076,0.052-0.154,0.103-0.228,0.16
	c-0.004,0.003,0.028,0.053,0.043,0.083C44.388,48.525,44.468,48.474,44.548,48.422"/>
<path fill="#231F20" d="M47.975,51.76c-0.047-0.069-0.077-0.138-0.097-0.135c-0.054,0.006-0.109,0.04-0.151,0.078
	c-0.009,0.009,0.035,0.112,0.058,0.112C47.839,51.817,47.896,51.785,47.975,51.76"/>
<path fill="#231F20" d="M42.343,48.742c-0.105-0.054-0.148-0.095-0.192-0.095c-0.041-0.001-0.081,0.041-0.123,0.064
	c0.031,0.033,0.056,0.084,0.092,0.095C42.156,48.816,42.204,48.785,42.343,48.742"/>
<path fill="#231F20" d="M55.981,55.965c0,0.029,0,0.057,0.001,0.086c0.071-0.004,0.14-0.009,0.209-0.017
	c0.003,0-0.002-0.059-0.003-0.089C56.119,55.953,56.051,55.958,55.981,55.965"/>
<path fill="#231F20" d="M56.042,50.79c-0.026,0.1-0.049,0.146-0.039,0.156c0.04,0.039,0.09,0.066,0.136,0.098
	C56.114,50.979,56.089,50.912,56.042,50.79"/>
<path fill="#231F20" d="M38.15,48.983c-0.011-0.025-0.021-0.048-0.032-0.072l-0.192,0.059c0.015,0.04,0.03,0.08,0.045,0.121
	C38.031,49.055,38.089,49.02,38.15,48.983"/>
<path fill="#231F20" d="M55.731,54.906c0.001,0.02,0.003,0.04,0.005,0.06c0.048,0.011,0.098,0.037,0.145,0.029
	c0.039-0.006,0.073-0.047,0.11-0.075l-0.024-0.066C55.887,54.872,55.809,54.89,55.731,54.906"/>
<path fill="#231F20" d="M88.389,29.798c-0.052,0.008-0.099,0.026-0.142,0.02c-0.019-0.003-0.031-0.052-0.047-0.079
	c0.044-0.014,0.09-0.036,0.134-0.038C88.348,29.7,88.363,29.751,88.389,29.798"/>
<path fill="#FFFFFF" d="M99.675,86.689c0.072-0.08,0.14-0.123,0.144-0.174c0.002-0.041-0.069-0.126-0.106-0.123
	c-0.052,0.003-0.127,0.061-0.141,0.108C99.56,86.54,99.624,86.601,99.675,86.689"/>
<path fill="#FFFFFF" d="M99.149,86.904c0.015-0.022,0.046-0.053,0.04-0.072c-0.004-0.022-0.044-0.037-0.066-0.053
	c-0.016,0.024-0.048,0.055-0.044,0.074C99.086,86.876,99.124,86.889,99.149,86.904"/>
<path fill="#FFFFFF" d="M100.969,84.457c-0.011,0.026-0.036,0.057-0.032,0.082c0.003,0.021,0.041,0.034,0.063,0.052
	c0.014-0.026,0.037-0.056,0.033-0.08C101.028,84.489,100.992,84.475,100.969,84.457"/>
<path fill="#FFFFFF" d="M102.588,83.974c0.008-0.016,0.025-0.04,0.021-0.046c-0.02-0.021-0.045-0.037-0.067-0.058
	c0,0.031-0.004,0.061,0.002,0.091C102.544,83.967,102.571,83.97,102.588,83.974"/>
<path fill="#FFFFFF" d="M79.387,53.442c-0.007-0.022-0.012-0.05-0.024-0.072c-0.005-0.008-0.04-0.006-0.041-0.003
	c-0.008,0.023-0.011,0.05-0.016,0.076H79.387z"/>
<path fill="#FFFFFF" d="M61.891,18.312c0,0.075,0.021,0.151-0.004,0.207c-0.252,0.561-0.214,1.141-0.133,1.729
	c0.088,0.638,0.598,1.23,1.24,1.377c0.398,0.09,0.805,0.152,1.209,0.21c0.416,0.058,0.791,0.2,1.123,0.458
	c0.11,0.085,0.244,0.139,0.367,0.209c0.501,0.283,0.531,0.707,0.118,1.106c-0.457,0.44-0.982,0.838-1.14,1.511
	c-0.018,0.082-0.094,0.149-0.143,0.221c-0.52,0.762-0.413,1.406,0.335,1.974c0.425,0.324,0.846,0.653,1.29,0.947
	c0.431,0.283,0.644,0.704,0.803,1.161c0.045,0.129,0.014,0.321-0.051,0.446c-0.148,0.284-0.323,0.556-0.518,0.808
	c-0.464,0.601-0.728,1.296-0.924,2.012c-0.227,0.827,0.009,1.59,0.539,2.249c0.468,0.583,0.96,1.146,1.454,1.706
	c0.474,0.536,0.68,1.153,0.63,1.864c-0.032,0.451-0.292,0.795-0.544,1.136c-0.064,0.087-0.206,0.14-0.321,0.162
	c-0.8,0.162-1.5,0.525-2.147,1.012c-0.375,0.283-0.594,0.675-0.7,1.106c-0.119,0.479-0.167,0.978-0.215,1.472
	c-0.055,0.564-0.075,1.13-0.113,1.751c-0.545,0.016-1.073,0.026-1.6,0.049c-0.707,0.028-1.436-0.029-2.115,0.125
	c-0.969,0.218-1.909,0.59-2.587,1.383c-0.158,0.183-0.249,0.429-0.351,0.654c-0.206,0.452-0.386,0.916-0.6,1.364
	c-0.083,0.172-0.216,0.327-0.355,0.458c-0.058,0.056-0.252,0.075-0.28,0.034c-0.166-0.234-0.393-0.179-0.623-0.198
	c-0.164-0.013-0.345-0.094-0.474-0.2c-0.328-0.269-0.628-0.569-0.941-0.856c-0.064-0.06-0.13-0.127-0.209-0.161
	c-0.352-0.158-0.697-0.375-1.067-0.437c-0.354-0.06-0.74,0.022-1.104,0.084c-0.464,0.077-0.926,0.176-1.377,0.306
	c-0.194,0.055-0.392,0.179-0.534,0.325c-0.542,0.561-1.068,1.136-1.585,1.72c-0.295,0.333-0.49,0.394-0.874,0.199
	c-0.344-0.175-0.564-0.467-0.785-0.775c-0.344-0.471-0.695-0.947-1.108-1.355c-0.665-0.657-1.501-0.841-2.411-0.683
	c-0.401,0.069-0.802,0.154-1.192,0.269c-0.457,0.135-0.917,0.279-1.349,0.477c-0.432,0.199-0.839,0.084-1.251-0.002
	c-0.09-0.019-0.207-0.164-0.217-0.258c-0.042-0.404-0.055-0.813-0.068-1.22c-0.006-0.229,0.024-0.461,0.011-0.69
	c-0.068-1.101-0.779-1.747-1.647-2.261c-0.812-0.481-1.722-0.734-2.604-1.046c-0.644-0.229-0.875-0.681-0.644-1.326
	c0.096-0.267,0.204-0.533,0.33-0.787c0.351-0.709,0.284-1.456,0.19-2.193c-0.058-0.459-0.394-0.811-0.765-1.041
	c-0.524-0.325-1.1-0.569-1.659-0.833c-0.466-0.22-0.937-0.439-1.419-0.618c-0.306-0.113-0.491-0.294-0.509-0.608
	c-0.018-0.324,0.271-0.415,0.48-0.578c0.668-0.52,1.407-0.954,1.956-1.626c0.187-0.228,0.275-0.442,0.216-0.729
	c-0.026-0.121-0.055-0.25-0.036-0.368c0.098-0.607-0.262-1.01-0.623-1.402c-0.213-0.229-0.469-0.42-0.75-0.67
	c-0.136-0.59-0.033-0.881,0.607-1.136c0.489-0.194,1.024-0.276,1.544-0.384c0.572-0.117,1.178-0.133,1.721-0.329
	c0.718-0.257,1.36-0.7,1.784-1.361c0.471-0.736,0.297-1.531-0.412-2.082c-0.416-0.323-0.846-0.63-1.262-0.953
	c-0.303-0.237-0.331-0.469-0.006-0.682c0.615-0.402,1.185-0.869,1.995-0.935c0.529-0.044,1.059-0.296,1.551-0.531
	c0.654-0.315,1.285-0.687,1.903-1.068c0.36-0.222,0.701-0.488,1.003-0.784c0.167-0.163,0.237-0.427,0.346-0.649
	c0.164-0.332,0.294-0.685,0.49-0.996c0.331-0.523,0.703-1.02,1.058-1.529c0.03-0.043,0.046-0.104,0.086-0.133
	c0.507-0.387,1.005-0.784,1.528-1.146c0.323-0.227,0.497-0.182,0.702,0.143c0.178,0.283,0.32,0.589,0.472,0.888
	c0.304,0.594,0.845,0.951,1.343,1.35c0.105,0.084,0.26,0.127,0.398,0.144c1.031,0.123,2.021,0.059,2.858-0.668
	c0.119-0.102,0.27-0.169,0.412-0.241c0.961-0.491,1.923-0.979,2.886-1.466c0.093-0.046,0.187-0.099,0.287-0.123
	c0.447-0.101,0.534-0.067,0.667,0.367c0.2,0.663,0.383,1.332,0.55,2.005c0.154,0.62,0.463,1.168,0.882,1.621
	c0.206,0.221,0.593,0.321,0.916,0.377c0.645,0.113,1.273-0.014,1.874-0.274c0.13-0.057,0.265-0.111,0.383-0.189
	C60.622,18.551,61.238,18.418,61.891,18.312 M56.974,39.366l-0.018,0.019c0.216-0.363,0.432-0.728,0.65-1.089
	c0.045-0.076,0.091-0.161,0.161-0.212c0.265-0.189,0.424-0.436,0.567-0.737c0.239-0.503,0.279-0.484,0.151-0.951
	c0.158,0.067,0.282,0.12,0.433,0.185c0.43-1.092,0.849-2.156,0.982-3.323c0.136-1.199,0.136-2.372-0.255-3.524
	c-0.134-0.399-0.376-0.767-0.341-1.218c0.004-0.058-0.048-0.134-0.094-0.185c-0.648-0.739-1.361-1.412-2.218-1.904
	c-0.533-0.306-1.015-0.715-1.636-0.859c-0.082-0.019-0.152-0.09-0.229-0.135c-0.336-0.195-0.656-0.432-1.014-0.574
	c-0.551-0.221-1.135-0.362-1.694-0.565c-0.631-0.231-1.257-0.354-1.925-0.153c-0.195,0.059-0.434,0.075-0.627,0.02
	c-0.677-0.19-1.329-0.125-1.996,0.052c-0.875,0.232-1.778,0.382-2.561,0.867c-0.598,0.37-1.185,0.763-1.751,1.181
	c-0.68,0.502-1.368,1.004-1.988,1.576c-0.86,0.788-1.406,1.793-1.868,2.862c-0.544,1.259-0.646,2.589-0.668,3.915
	c-0.013,0.726,0.183,1.485,0.427,2.179c0.309,0.88,0.627,1.786,1.228,2.522c0.585,0.719,1.072,1.561,2.035,1.88
	c0.079,0.026,0.138,0.108,0.21,0.156c0.403,0.271,0.771,0.593,1.259,0.733c0.458,0.133,0.887,0.378,1.349,0.475
	c0.692,0.145,1.401,0.208,2.105,0.291c0.088,0.01,0.254-0.052,0.264-0.102c0.018-0.099-0.044-0.214-0.085-0.318
	c-0.019-0.047-0.066-0.085-0.121-0.15c0.429-0.073,0.401,0.271,0.485,0.392c1.135,0.325,2.182-0.028,3.257-0.206
	c0.034-0.061,0.086-0.15,0.135-0.235c0.771,0.13,0.936,0.076,1.294-0.416H53.6c0.161-0.166,0.278-0.328,0.435-0.432
	c0.061-0.042,0.209,0.048,0.334,0.082c0.153-0.181,0.278-0.398,0.565-0.418c0.108-0.008,0.219-0.113,0.314-0.193
	C55.826,40.361,56.399,39.861,56.974,39.366"/>
<path fill="#00ADDB" d="M106.278,86.659v1.061c0.216,0.065,0.288-0.003,0.294-0.188c0.009-0.264,0.01-0.532,0.062-0.788
	c0.021-0.109,0.145-0.249,0.252-0.283c0.491-0.155,0.983-0.318,1.486-0.407c0.962-0.171,1.932-0.291,2.896-0.444
	c0.279-0.045,0.552-0.136,0.829-0.194c0.281-0.06,0.41,0.016,0.445,0.298c0.041,0.314,0.043,0.635,0.057,0.952
	c0.006,0.106-0.017,0.219,0.008,0.317c0.27,1.018,0.409,2.05,0.373,3.106c-0.007,0.199,0.1,0.405,0.154,0.608
	c0.126,0.475,0.007,0.627-0.481,0.613c-0.514-0.014-1.023-0.037-1.534-0.05c-0.087-0.003-0.172,0.019-0.258,0.04
	c-0.599,0.154-1.203,0.294-1.795,0.473c-0.355,0.107-0.689,0.283-1.032,0.422c-0.171,0.067-0.323,0.252-0.538,0.088
	c-0.028-0.021-0.125,0.031-0.177,0.067c-0.775,0.53-1.556,1.054-2.316,1.602c-0.252,0.178-0.455,0.423-0.744,0.694
	c-0.029-0.185-0.049-0.278-0.06-0.371c-0.046-0.41,0.049-0.852-0.277-1.203c-0.053-0.057-0.049-0.168-0.071-0.254
	c-0.237-0.889-0.337-1.806-0.518-2.706c-0.047-0.232,0.034-0.365,0.25-0.457c0.473-0.202,0.797-0.561,1.082-0.988
	c0.27-0.409,0.637-0.755,0.941-1.143c0.16-0.202,0.275-0.438,0.418-0.654C106.061,86.815,106.126,86.781,106.278,86.659
	 M106.395,89.35c0.048-0.312-0.116-0.642,0.084-0.944c0.016-0.023-0.058-0.106-0.095-0.17c-0.343,0.39-0.332,0.627,0.022,1.127
	c-0.05-0.017-0.1-0.047-0.148-0.045c-0.045,0-0.109,0.026-0.126,0.059c-0.014,0.029,0.017,0.105,0.05,0.125
	c0.033,0.018,0.104,0.008,0.137-0.018C106.356,89.457,106.369,89.396,106.395,89.35 M106.148,90.37
	c0.039-0.008,0.079-0.016,0.118-0.023c-0.025-0.07-0.049-0.142-0.073-0.214c-0.022,0.006-0.045,0.012-0.067,0.018L106.148,90.37z"/>
<path fill="#00ADDB" d="M100.896,90.208c0.158,0.297,0.808,4.271,0.741,4.683c-0.201-0.014-0.407-0.023-0.612-0.044
	c-0.779-0.081-1.55-0.117-2.326,0.075c-0.533,0.132-1.091,0.147-1.628,0.262c-0.714,0.153-1.422,0.328-2.12,0.534
	c-0.64,0.188-1.206,0.52-1.638,1.048c-0.055,0.068-0.125,0.121-0.183,0.175c-0.516-0.065-0.713-0.338-0.768-0.842
	c-0.082-0.755-0.266-1.501-0.394-2.252c-0.027-0.151-0.004-0.312-0.004-0.508c0.146,0.024,0.244,0.037,0.342,0.058
	c0.083,0.017,0.18,0.078,0.248,0.056c0.383-0.13,0.763-0.271,1.138-0.426c0.309-0.127,0.526-0.342,0.636-0.675
	c0.099-0.302,0.252-0.587,0.348-0.891c0.108-0.342,0.292-0.562,0.676-0.566c0.059,0,0.116-0.058,0.272-0.143
	c-0.281-0.185-0.514-0.337-0.69-0.453c0.476-1.29,0.64-1.386,1.401-0.937c0.141,0.193-0.332,0.52,0.176,0.653
	c0.056-0.112,0.116-0.231,0.178-0.355c0.891-0.018,1.748,0.167,2.611,0.382C99.808,90.167,100.35,90.156,100.896,90.208
	 M92.554,95.297c0.384-0.172,0.384-0.172,0.128-0.426C92.644,94.996,92.613,95.101,92.554,95.297 M92.518,93.754
	c-0.039,0.009-0.077,0.018-0.117,0.025c0.032,0.132,0.064,0.265,0.095,0.397c0.035-0.009,0.067-0.016,0.104-0.023
	C92.571,94.019,92.546,93.888,92.518,93.754 M95.771,90.185c0.029,0.011,0.061,0.021,0.092,0.032
	c0.015-0.064,0.027-0.129,0.042-0.194c-0.022-0.006-0.044-0.011-0.066-0.016C95.815,90.065,95.791,90.124,95.771,90.185"/>
<path fill="#00ADDB" d="M82.552,97.345c-0.148-0.564-0.277-0.982-0.368-1.411c-0.171-0.815-0.32-1.635-0.476-2.453
	c-0.022-0.123-0.035-0.246-0.044-0.37c-0.028-0.496-0.025-0.495,0.458-0.691c0.264-0.104,0.532-0.197,0.78-0.329
	c0.217-0.114,0.416-0.146,0.662-0.095c0.249,0.052,0.448-0.14,0.358-0.361c-0.153-0.375,0.119-0.623,0.285-0.791
	c0.429-0.437,0.951-0.783,1.434-1.163c0.235,0.108,0.43,0.194,0.521,0.447c0.045,0.127,0.224,0.208,0.352,0.299
	c0.302,0.211,0.618,0.401,0.909,0.623c0.594,0.454,1.177,0.916,1.753,1.39c0.112,0.093,0.222,0.241,0.246,0.377
	c0.131,0.734,0.236,1.474,0.349,2.211c0.008,0.048-0.016,0.101-0.033,0.213c-0.315-0.043-0.63-0.063-0.936-0.128
	c-0.985-0.21-1.963-0.258-2.932,0.093c-0.267,0.097-0.537,0.19-0.812,0.255c-0.55,0.125-0.895,0.551-1.308,0.867
	C83.377,96.614,83.029,96.937,82.552,97.345 M84.459,91.961c0.033-0.039,0.066-0.079,0.099-0.116
	c-0.086-0.055-0.173-0.11-0.261-0.165c-0.021,0.029-0.04,0.056-0.06,0.085C84.312,91.831,84.385,91.896,84.459,91.961"/>
<path fill="#00ADDB" d="M73.821,92.993c-0.106-0.425-0.229-0.834-0.305-1.248c-0.202-1.103-0.385-2.208-0.574-3.312
	c-0.021-0.123-0.047-0.246-0.052-0.368c-0.023-0.509,0.016-0.548,0.477-0.761c0.369-0.171,0.732-0.353,1.086-0.554
	c0.542-0.306,0.605-0.324,1.34-0.166c0.067,0.218,0.176,0.451,0.206,0.692c0.089,0.747,0.537,1.302,0.956,1.874
	c0.177,0.238,0.388,0.453,0.534,0.711c0.267,0.47,0.578,0.888,1.037,1.188c0.135,0.087,0.249,0.202,0.368,0.308
	c0.288,0.255,0.431,0.516,0.407,0.959c-0.031,0.572,0.135,1.158,0.235,1.734c0.088,0.502,0.278,0.99,0.229,1.576
	c-0.137-0.05-0.255-0.068-0.345-0.128c-0.715-0.46-1.407-0.958-2.142-1.386c-0.439-0.257-0.929-0.447-1.417-0.6
	C75.22,93.312,74.557,93.178,73.821,92.993"/>
<path fill="#00ADDB" d="M69.706,86.114c-0.826-0.25-1.556-0.547-2.315-0.673c-0.759-0.126-1.547-0.077-2.361-0.108
	c-0.299-1.787-0.595-3.558-0.893-5.336c0.641-0.092,1.247-0.124,1.821-0.274c0.542-0.141,1.05-0.402,1.574-0.609
	c0.16-0.064,0.32-0.142,0.487-0.163c0.541-0.073,1.084-0.122,1.627-0.183c0.281-0.032,0.413,0.07,0.366,0.36
	c-0.089,0.543-0.22,1.077-0.326,1.618c-0.069,0.346-0.175,0.694-0.179,1.046c-0.012,1.08,0.004,2.162,0.037,3.241
	C69.552,85.381,69.645,85.727,69.706,86.114"/>
<path fill="#00ADDB" d="M117.707,81.012c-0.101,0.866-0.287,1.637-0.805,2.301c-0.464,0.592-0.692,1.382-1.538,1.688
	c0.149,0.135,0.248,0.223,0.365,0.329c-0.069,0.035-0.113,0.076-0.157,0.077c-0.198,0.006-0.345-0.089-0.417-0.272
	c-0.115-0.296-0.245-0.592-0.312-0.9c-0.037-0.172,0.018-0.378,0.077-0.555c0.106-0.318,0.271-0.619,0.361-0.941
	c0.055-0.195,0.055-0.426,0.013-0.627c-0.099-0.469-0.277-0.924-0.351-1.395c-0.137-0.885-0.394-1.728-0.721-2.555
	c-0.015-0.043,0.015-0.103,0.027-0.188c0.503-0.211,1.021-0.421,1.537-0.641c0.796-0.343,1.594-0.687,2.386-1.043
	c0.388-0.174,0.469-0.126,0.53,0.3c0.034,0.248,0.122,0.49,0.21,0.818c-0.049,0.1-0.156,0.299-0.251,0.506
	c-0.136,0.294-0.298,0.532-0.686,0.404c-0.035-0.013-0.094,0.036-0.146,0.06c-0.004,0.058-0.031,0.131-0.006,0.155
	c0.41,0.419,0.151,0.855,0.038,1.288c-0.066,0.255-0.141,0.506-0.209,0.753c0.449,0.21,0.625,0.126,0.595-0.287
	c-0.017-0.245-0.007-0.438,0.169-0.628c0.068-0.076,0.068-0.229,0.073-0.349c0.006-0.123-0.031-0.249-0.027-0.372
	c0.006-0.339,0.066-0.402,0.397-0.429c0.104-0.008,0.209-0.001,0.356-0.001c0.021,0.131,0.057,0.264,0.065,0.4
	c0.037,0.565,0.075,1.132,0.092,1.697c0.009,0.315-0.103,0.58-0.396,0.768c-0.191,0.124-0.326,0.333-0.514,0.462
	c-0.153,0.105-0.347,0.15-0.595,0.252c0.013-0.161-0.002-0.259,0.03-0.333c0.041-0.09,0.128-0.158,0.174-0.245
	c0.073-0.135,0.235-0.291,0.066-0.425C118.04,81.007,117.854,81.034,117.707,81.012"/>
<path fill="#00ADDB" d="M61.868,80.45c-1.033,0.041-1.978,0.078-2.978,0.116c-0.043-0.38-0.105-0.729-0.118-1.078
	c-0.023-0.671-0.013-1.343-0.021-2.016c-0.01-0.88-0.015-1.765-0.043-2.644c-0.011-0.372-0.1-0.741-0.105-1.111
	c-0.008-0.403,0.039-0.808,0.06-1.206c0.513-0.215,0.999-0.232,1.461-0.12c0.632,0.155,1.246,0.392,1.929,0.611
	c-0.03,0.195-0.048,0.381-0.087,0.562c-0.197,0.921-0.446,1.831-0.584,2.759c-0.099,0.675-0.062,1.371-0.067,2.061
	c-0.002,0.132,0.062,0.282,0.138,0.398C61.774,79.268,61.744,79.828,61.868,80.45"/>
<path fill="#00ADDB" d="M31.362,44.822c-0.902-0.332-1.73-0.638-2.559-0.945c-0.25-0.092-0.256-0.306-0.264-0.529
	c-0.026-0.851-0.036-1.703-0.098-2.552c-0.083-1.165,0.135-2.305,0.236-3.455c0.018-0.188,0.105-0.368,0.162-0.554
	c0.095,0.011,0.161-0.003,0.192,0.024c0.768,0.683,1.78,0.857,2.666,1.293c0.142,0.07,0.303,0.106,0.438,0.186
	c0.201,0.12,0.321,0.279,0.176,0.53c-0.113,0.194-0.207,0.399-0.306,0.603c-0.04,0.079-0.093,0.162-0.097,0.247
	c-0.023,0.527-0.22,1.021-0.268,1.556c-0.063,0.722-0.064,1.451-0.162,2.172c-0.029,0.227-0.006,0.461-0.022,0.69
	C31.438,44.312,31.4,44.531,31.362,44.822"/>
<path fill="#00ADDB" d="M54.373,53.933c-0.359-0.016-0.658-0.012-0.954-0.047c-0.383-0.047-0.761-0.141-1.144-0.184
	c-0.586-0.067-1.14,0.102-1.649,0.356c-0.619,0.308-1.204,0.684-1.803,1.029c-0.105,0.062-0.207,0.14-0.319,0.178
	c-0.17,0.056-0.285-0.03-0.293-0.206c-0.042-0.798-0.079-1.594-0.11-2.391c-0.008-0.223,0.111-0.37,0.322-0.438
	c0.217-0.072,0.432-0.166,0.655-0.209c0.577-0.111,0.976-0.44,1.317-0.911c0.36-0.5,0.788-0.953,1.197-1.417
	c0.154-0.173,0.354-0.251,0.563-0.074c0.549,0.462,1.243,0.654,1.849,1.014c0.326,0.192,0.448,0.444,0.395,0.793
	c-0.102,0.671-0.034,1.339,0.009,2.008C54.417,53.571,54.391,53.71,54.373,53.933"/>
<path fill="#00ADDB" d="M45.26,51.075c-0.025,0.031-0.08,0.097-0.149,0.183c0.219,0.241,0.451,0.441,0.916,0.373
	c-0.515,0.358-0.181,0.842-0.357,1.24c-0.071,0.005-0.145,0.032-0.205,0.012c-0.652-0.212-1.323-0.237-1.998-0.191
	c-0.297,0.02-0.591,0.102-0.888,0.122c-0.634,0.04-1.269,0.054-1.903,0.085c-0.283,0.014-0.565,0.043-0.848,0.064
	c-0.202,0.013-0.351-0.053-0.374-0.281c-0.076-0.825-0.196-1.648-0.15-2.504c0.144-0.021,0.262-0.053,0.38-0.053
	c0.829-0.007,1.6-0.286,2.379-0.519c0.228-0.068,0.434-0.206,0.659-0.287c0.711-0.257,1.047-0.131,1.419,0.477
	c0.116,0.188,0.296,0.334,0.445,0.502c0.099,0.112,0.19,0.231,0.287,0.344C44.986,50.771,45.102,50.897,45.26,51.075"/>
<path fill="#00ADDB" d="M36.852,50.77c-0.581-0.189-1.105-0.23-1.468-0.707c-0.14-0.184-0.401-0.271-0.603-0.41
	c-0.318-0.215-0.641-0.427-0.944-0.661c-0.065-0.05-0.074-0.193-0.082-0.295c-0.111-1.383-0.017-2.767,0.036-4.149
	c0.005-0.117,0.063-0.232,0.103-0.367c0.535-0.017,0.975,0.233,1.437,0.385c0.302,0.099,0.588,0.244,0.885,0.357
	c0.297,0.112,0.392,0.338,0.387,0.63c-0.003,0.23-0.024,0.463-0.003,0.691c0.015,0.167,0.07,0.333,0.134,0.489
	c0.119,0.287,0.19,0.59-0.003,0.845c-0.226,0.299-0.194,0.582-0.102,0.904C36.832,49.203,36.781,49.948,36.852,50.77"/>
<path fill="#00ADDB" d="M121.147,67.983c0.061,0.535,0.133,1.022,0.166,1.511c0.016,0.236-0.15,0.385-0.397,0.475
	c-0.201-0.201-0.537-0.256-0.607-0.608c-0.012-0.054-0.127-0.082-0.184-0.134c-0.27-0.25-0.544-0.493-0.799-0.755
	c-0.142-0.148-0.089-0.306,0.083-0.398c0.261-0.141,0.533-0.267,0.838-0.415c0.068,0.14,0.119,0.239,0.183,0.367
	C120.641,68.014,120.867,68.001,121.147,67.983 M120.625,68.452c0.008-0.047,0.016-0.093,0.023-0.142
	c-0.1-0.011-0.198-0.023-0.3-0.036c-0.006,0.033-0.009,0.062-0.016,0.094C120.431,68.396,120.527,68.424,120.625,68.452
	 M120.149,68.963c0.094-0.124,0.123-0.161,0.152-0.2c-0.036-0.026-0.079-0.079-0.105-0.073c-0.042,0.013-0.094,0.061-0.102,0.101
	C120.086,68.832,120.121,68.884,120.149,68.963"/>
<path fill="#FFFFFF" d="M47.49,51.403c-0.247,0.291-0.411,0.485-0.574,0.677c-0.022-0.012-0.043-0.024-0.066-0.036
	c0.022-0.11,0.043-0.219,0.083-0.415c-0.106,0.076-0.154,0.14-0.197,0.136c-0.145-0.013-0.311-0.016-0.421-0.091
	c-0.065-0.044-0.095-0.264-0.043-0.325c0.09-0.108,0.261-0.229,0.382-0.214C46.901,51.168,47.137,51.284,47.49,51.403"/>
<path fill="#FFFFFF" d="M55.378,49.893c0.261-0.154,0.45-0.481,0.838-0.315c0.081,0.034,0.238-0.05,0.283-0.005
	c0.146,0.146,0.255,0.328,0.391,0.512c-0.208,0.071-0.358,0.121-0.51,0.171c0.008-0.11,0.017-0.219,0.024-0.329
	c-0.026-0.008-0.052-0.016-0.078-0.023c-0.075,0.161-0.152,0.323-0.239,0.513c-0.098-0.048-0.172-0.083-0.311-0.152
	c0.142-0.083,0.232-0.135,0.322-0.188c-0.193-0.336-0.193-0.336-0.621-0.017c-0.029-0.062-0.057-0.122-0.086-0.18L55.378,49.893z"/>
<path fill="#FFFFFF" d="M46.247,54.517c0.079-0.125,0.159-0.25,0.271-0.428c0.174,0.146,0.34,0.287,0.523,0.443
	c-0.474,0.248-0.474,0.248-0.786-0.026L46.247,54.517z"/>
<path fill="#FFFFFF" d="M46.616,50.847c0.142-0.216,0.2-0.353,0.3-0.442c0.061-0.053,0.189-0.049,0.283-0.037
	c0.047,0.007,0.126,0.103,0.116,0.137c-0.026,0.089-0.074,0.209-0.146,0.242C47.03,50.802,46.87,50.805,46.616,50.847"/>
<path fill="#FFFFFF" d="M55.078,49.744c-0.006,0.281,0.162,0.447,0.428,0.584c-0.069,0.143-0.13,0.27-0.191,0.397
	c-0.075-0.039-0.129-0.053-0.13-0.07c-0.015-0.301-0.539-0.553-0.091-0.898L55.078,49.744"/>
<path fill="#FFFFFF" d="M38.405,49.069c-0.056-0.357,0.138-0.496,0.296-0.643c0.035-0.033,0.125-0.007,0.188-0.011
	c0.002,0.077,0.035,0.184-0.001,0.226C38.761,48.778,38.608,48.893,38.405,49.069"/>
<path fill="#FFFFFF" d="M115.665,85.785c-0.127,0.085-0.199,0.153-0.284,0.181c-0.03,0.011-0.139-0.097-0.132-0.105
	c0.045-0.08,0.098-0.172,0.175-0.217C115.453,85.624,115.548,85.713,115.665,85.785"/>
<path fill="#FFFFFF" d="M38.97,49.643c-0.132-0.394,0.027-0.477,0.317-0.467C39.2,49.304,39.113,49.432,38.97,49.643"/>
<path fill="#FFFFFF" d="M47.509,50.951c0.39-0.22,0.39-0.22,0.543,0.263C47.856,51.12,47.721,51.053,47.509,50.951"/>
<path fill="#FFFFFF" d="M46.255,54.505c-0.183,0.087-0.365,0.262-0.568-0.022c0.208-0.182,0.383-0.11,0.558,0.036
	C46.247,54.517,46.255,54.505,46.255,54.505"/>
<path fill="#FFFFFF" d="M55.392,49.88c-0.104-0.044-0.21-0.088-0.313-0.135c0-0.001,0.016,0.012,0.016,0.012
	c-0.056-0.04-0.111-0.08-0.205-0.146c0.155-0.128,0.271-0.269,0.409-0.018c0.048,0.088,0.056,0.199,0.081,0.298
	C55.379,49.894,55.392,49.88,55.392,49.88"/>
<path fill="#FFFFFF" d="M89.389,89.01c-0.122-0.08-0.246-0.162-0.464-0.307c0.358,0.049,0.358,0.049,0.45,0.319L89.389,89.01z"/>
<path fill="#FFFFFF" d="M33.784,42.819c0.039-0.115,0.06-0.179,0.081-0.243c0.018,0.051,0.042,0.102,0.051,0.155
	C33.917,42.743,33.869,42.765,33.784,42.819"/>
<path fill="#FFFFFF" d="M37.587,47.502c-0.093,0.059-0.145,0.091-0.195,0.124c-0.025-0.054-0.067-0.107-0.071-0.164
	c-0.002-0.029,0.072-0.092,0.099-0.085C37.47,47.389,37.511,47.44,37.587,47.502"/>
<path fill="#FFFFFF" d="M38.579,47.542c0.011,0.162,0.345,0.274,0.001,0.542L38.579,47.542L38.579,47.542z"/>
<path fill="#FFFFFF" d="M44.548,48.422c-0.08,0.052-0.16,0.103-0.24,0.154c-0.015-0.029-0.047-0.08-0.043-0.083
	c0.073-0.058,0.152-0.108,0.228-0.16C44.512,48.363,44.53,48.394,44.548,48.422"/>
<path fill="#FFFFFF" d="M47.975,51.76c-0.079,0.025-0.136,0.058-0.19,0.055c-0.022,0-0.067-0.103-0.058-0.112
	c0.042-0.038,0.097-0.072,0.151-0.078C47.897,51.622,47.928,51.691,47.975,51.76"/>
<path fill="#FFFFFF" d="M45.993,54.053c-0.063-0.094-0.126-0.188-0.189-0.283c0.027-0.02,0.055-0.041,0.083-0.061
	c0.073,0.085,0.145,0.17,0.217,0.254C46.066,53.994,46.03,54.023,45.993,54.053"/>
<path fill="#FFFFFF" d="M38.58,47.541c-0.155,0.058-0.305,0.211-0.474-0.02c0.157,0.008,0.316,0.015,0.473,0.022L38.58,47.541z"/>
<path fill="#FFFFFF" d="M42.343,48.742c-0.139,0.043-0.187,0.074-0.223,0.064c-0.037-0.01-0.062-0.062-0.092-0.095
	c0.042-0.023,0.082-0.065,0.123-0.064C42.194,48.647,42.238,48.688,42.343,48.742"/>
<path fill="#FFFFFF" d="M55.981,55.965c0.07-0.007,0.138-0.013,0.208-0.021c0.001,0.031,0.006,0.089,0.003,0.089
	c-0.07,0.008-0.139,0.013-0.209,0.017C55.981,56.022,55.981,55.994,55.981,55.965"/>
<path fill="#FFFFFF" d="M56.042,50.79c0.047,0.122,0.072,0.188,0.098,0.254c-0.046-0.032-0.097-0.06-0.136-0.098
	C55.993,50.936,56.017,50.89,56.042,50.79"/>
<path fill="#FFFFFF" d="M38.15,48.983c-0.061,0.037-0.119,0.072-0.179,0.108c-0.015-0.041-0.03-0.082-0.045-0.121l0.192-0.059
	C38.13,48.935,38.14,48.958,38.15,48.983"/>
<path fill="#FFFFFF" d="M55.731,54.906c0.078-0.016,0.156-0.034,0.236-0.052l0.024,0.066c-0.037,0.027-0.072,0.069-0.11,0.075
	c-0.046,0.007-0.096-0.018-0.145-0.029C55.734,54.946,55.732,54.926,55.731,54.906"/>
<path fill="#231F20" d="M105.324,60.718c-0.069-1.041-0.342-2.068-0.532-3.091c-0.166-0.874-0.637-1.634-0.987-2.44
	c-0.168-0.373-0.509-0.66-0.768-0.995c-0.138-0.174-0.334-0.342-0.388-0.547c-0.084-0.334-0.258-0.585-0.463-0.843
	c-0.105-0.122-0.219-0.243-0.334-0.357c-0.046-0.03-0.106-0.061-0.183-0.076c-0.083-0.015-0.183-0.122-0.211-0.205
	c-0.023-0.069-0.055-0.129-0.084-0.19c-1.961-1.915-4.217-3.449-7.096-4.155c-5.691-1.397-9.608,1.595-13.825,4.785
	c-0.007,0.008-0.015,0.016-0.023,0.016v0.015c-0.492,0.72-0.699,1.648-1.52,2.142c-0.075,0.045-0.099,0.182-0.15,0.281
	c-0.441,0.888-0.936,1.756-1.17,2.735c-0.145,0.6-0.267,1.207-0.371,1.815c-0.056,0.274,0.013,0.531,0.363,0.606
	c-0.038,0.259-0.061,0.486-0.099,0.716c-0.099,0.615-0.198,1.229-0.092,1.858c0.1,0.596,0.152,1.194,0.251,1.795
	c0.182,1.07,0.455,2.119,1.04,3.061c0.829,1.338,1.756,2.59,3.07,3.494c0.881,0.601,1.732,1.239,2.719,1.664
	c0.341,0.145,0.706,0.251,1.018,0.456c0.586,0.372,1.254,0.456,1.907,0.593c0.448,0.091,0.904,0.183,1.36,0.266
	c1.001,0.176,2.004,0.295,3.022,0.182c0.6-0.068,1.201-0.189,1.8-0.228c0.485-0.023,0.948-0.092,1.405-0.258
	c0.404-0.14,0.812-0.274,1.225-0.389c1.798-0.501,3.287-1.525,4.55-2.856c1.04-1.094,2.021-2.256,2.734-3.601
	c0.221-0.402,0.471-0.796,0.63-1.223c0.334-0.934,0.677-1.868,0.918-2.825C105.225,62.206,105.377,61.446,105.324,60.718
	 M98.905,67.516c-0.099,0.501-0.425,0.805-0.76,1.161c-0.614,0.662-1.45,0.942-2.15,1.451c-0.175,0.129-0.439,0.129-0.653,0.199
	c-0.067,0.028-0.143,0.036-0.219,0.06c-1.604,0.745-3.45,1.132-4.869,1.11c-1.026-0.024-2.075-0.168-3.1-0.42v0.009
	c-0.176,0.038-0.298,0.015-0.38-0.098c-0.206-0.062-0.403-0.13-0.607-0.189c0.008,0.013,0.008,0.027,0.016,0.044
	c-0.139-0.053-0.26-0.113-0.396-0.167c-1.185-0.434-2.286-1.033-3.229-1.808c-0.157-0.054-0.287-0.166-0.394-0.279
	c-0.138-0.146-0.26-0.299-0.381-0.45c-0.501-0.524-0.919-1.116-1.253-1.769c-0.684-0.829-1.025-2.053-1.033-3.108
	c-0.054-0.387-0.054-0.714,0.357-1.077c0.637-0.548,1.208-1.179,1.906-1.656c0.684-0.473,1.405-0.874,2.226-1.087
	c0.569-0.146,1.107-0.396,1.679-0.518c1.216-0.274,2.439-0.494,3.684-0.494c1.3-0.008,2.546,0.281,3.754,0.715
	c0.568,0.205,1.132,0.426,1.662,0.699c0.686,0.343,1.247,0.857,1.777,1.413c0.73,0.76,1.215,1.655,1.68,2.583
	c0.114,0.213,0.19,0.425,0.146,0.668c0.091,0.228,0.175,0.448,0.227,0.66c0,0,0,0.008,0.008,0.008
	c0.061,0.039,0.129,0.113,0.159,0.184C99.012,66.064,99.042,66.778,98.905,67.516 M102.232,63.315
	c-0.159,0.38-0.297,0.759-0.456,1.139c-0.038,0.076-0.145,0.13-0.221,0.197c-0.06-0.06-0.12-0.083-0.136-0.129
	c-0.197-0.546-0.379-1.101-0.593-1.64c-0.099-0.267-0.229-0.525-0.372-0.767c-0.114-0.199-0.182-0.396-0.067-0.603
	c0.016-0.022,0.016-0.044,0.021-0.061c-0.029-0.046-0.068-0.089-0.092-0.143c-0.083-0.197-0.159-0.395-0.234-0.593
	c-0.083,0.035-0.167,0.075-0.258,0.114c-0.267-0.304-0.563-0.586-0.791-0.914c-0.576-0.834-1.36-1.435-2.135-2.064
	c-0.995-0.798-2.202-1.132-3.373-1.527c-1.162-0.395-2.362-0.622-3.592-0.736c-0.973-0.092-1.914,0.083-2.864,0.174
	c-1.261,0.121-2.468,0.509-3.66,0.904c-0.738,0.251-1.413,0.661-2.119,0.995c-0.214,0.099-0.443,0.183-0.754,0.311
	c0.047-0.219,0.039-0.348,0.092-0.44c0.113-0.22,0.251-0.426,0.395-0.638c0.335-0.494,0.669-0.996,1.01-1.488
	c0.1-0.138,0.205-0.282,0.334-0.396c-0.007-0.145,0.024-0.289,0.101-0.44c0.522-1.018,1.558-1.61,2.278-2.462
	c0.151-0.182,0.381-0.258,0.615-0.258c0.426-0.243,0.889-0.448,1.375-0.601c0.105-0.106,0.25-0.189,0.44-0.227
	c3.054-0.532,5.849-0.737,8.826,0.303c2.675,0.935,4.125,2.917,5.659,5.188c0.13,0.182,0.168,0.365,0.151,0.531
	c0.183,0.35,0.344,0.707,0.449,1.063c0.008,0.03,0.022,0.053,0.038,0.076c0.265,0.661,0.265,1.366,0.334,2.051
	C102.742,61.287,102.659,62.327,102.232,63.315"/>
<path fill="#00ADDB" d="M102.232,63.315c-0.159,0.38-0.297,0.759-0.456,1.139c-0.038,0.076-0.145,0.13-0.221,0.197
	c-0.06-0.06-0.12-0.083-0.136-0.129c-0.197-0.546-0.379-1.101-0.593-1.64c-0.099-0.267-0.229-0.525-0.372-0.767
	c-0.114-0.199-0.182-0.396-0.067-0.603c0.016-0.022,0.016-0.044,0.021-0.061c-0.029-0.046-0.068-0.089-0.092-0.143
	c-0.083-0.197-0.159-0.395-0.234-0.593c-0.083,0.035-0.167,0.075-0.258,0.114c-0.267-0.304-0.563-0.586-0.791-0.914
	c-0.576-0.834-1.36-1.435-2.135-2.064c-0.995-0.798-2.202-1.132-3.373-1.527c-1.162-0.395-2.362-0.622-3.592-0.736
	c-0.973-0.092-1.914,0.083-2.864,0.174c-1.261,0.121-2.468,0.509-3.66,0.904c-0.738,0.251-1.413,0.661-2.119,0.995
	c-0.214,0.099-0.443,0.183-0.754,0.311c0.047-0.219,0.039-0.348,0.092-0.44c0.113-0.22,0.251-0.426,0.395-0.638
	c0.335-0.494,0.669-0.996,1.01-1.488c0.1-0.138,0.205-0.282,0.334-0.396c-0.007-0.145,0.024-0.289,0.101-0.44
	c0.522-1.018,1.558-1.61,2.278-2.462c0.151-0.182,0.381-0.258,0.615-0.258c0.426-0.243,0.889-0.448,1.375-0.601
	c0.105-0.106,0.25-0.189,0.44-0.227c3.054-0.532,5.849-0.737,8.826,0.303c2.675,0.935,4.125,2.917,5.659,5.188
	c0.13,0.182,0.168,0.365,0.151,0.531c0.183,0.35,0.344,0.707,0.449,1.063c0.008,0.03,0.022,0.053,0.038,0.076
	c0.265,0.661,0.265,1.366,0.334,2.051C102.742,61.287,102.659,62.327,102.232,63.315"/>
<path fill="#231F20" d="M81.48,51.619c-0.088,0.062-0.176,0.125-0.263,0.187c-0.017-0.039-0.034-0.078-0.052-0.118
	C81.271,51.665,81.376,51.642,81.48,51.619"/>
<path fill="#231F20" d="M95.506,51.013c-0.03-0.004-0.06-0.009-0.089-0.015c0,0.012-0.003,0.034,0.001,0.034
	c0.028,0.009,0.058,0.015,0.088,0.021C95.506,51.04,95.506,51.027,95.506,51.013"/>
<path fill="#231F20" d="M90.466,89.147c0.163,0.042,0.339,0.066,0.488,0.138c0.07,0.035,0.094,0.165,0.137,0.25
	c-0.104,0.034-0.243,0.124-0.304,0.088c-0.152-0.088-0.268-0.239-0.396-0.363C90.415,89.223,90.44,89.184,90.466,89.147"/>
<path fill="#231F20" d="M99.675,86.689c-0.051-0.089-0.115-0.149-0.104-0.188c0.014-0.048,0.089-0.105,0.141-0.108
	c0.037-0.003,0.108,0.082,0.106,0.123C99.814,86.566,99.747,86.609,99.675,86.689"/>
<path fill="#231F20" d="M103.71,83.898c-0.334,0.036-0.334,0.036-0.417-0.231c0.153,0.088,0.291,0.166,0.43,0.246L103.71,83.898z"/>
<path fill="#231F20" d="M103.723,83.913c0.016-0.089,0.032-0.177,0.052-0.266c0.027,0.012,0.055,0.024,0.08,0.035
	c-0.048,0.071-0.098,0.144-0.146,0.216C103.71,83.898,103.723,83.913,103.723,83.913"/>
<path fill="#231F20" d="M99.148,86.904c-0.024-0.016-0.063-0.028-0.068-0.051c-0.005-0.02,0.027-0.05,0.043-0.074
	c0.022,0.016,0.062,0.03,0.068,0.053C99.195,86.852,99.164,86.882,99.148,86.904"/>
<path fill="#231F20" d="M100.969,84.457c0.023,0.018,0.061,0.032,0.064,0.054c0.004,0.024-0.021,0.054-0.033,0.08
	c-0.021-0.018-0.061-0.03-0.063-0.052C100.934,84.514,100.958,84.483,100.969,84.457"/>
<path fill="#231F20" d="M102.588,83.974c-0.017-0.004-0.044-0.007-0.044-0.013c-0.006-0.03-0.002-0.06-0.002-0.091
	c0.022,0.021,0.048,0.037,0.067,0.058C102.613,83.934,102.596,83.958,102.588,83.974"/>
<path fill="#231F20" d="M79.387,53.442h-0.081c0.005-0.025,0.008-0.052,0.016-0.076c0.001-0.003,0.036-0.004,0.041,0.003
	C79.375,53.392,79.38,53.42,79.387,53.442"/>
<path fill="#231F20" d="M56.974,39.366c-0.575,0.496-1.148,0.995-1.727,1.488c-0.095,0.08-0.206,0.185-0.314,0.194
	c-0.288,0.02-0.412,0.235-0.565,0.418c-0.125-0.035-0.273-0.124-0.334-0.083c-0.157,0.104-0.274,0.265-0.435,0.432h-0.722
	c-0.358,0.491-0.523,0.547-1.294,0.416c-0.049,0.084-0.102,0.175-0.136,0.235c-1.076,0.177-2.121,0.531-3.258,0.206
	c-0.083-0.12-0.055-0.466-0.484-0.392c0.054,0.066,0.103,0.103,0.121,0.15c0.041,0.104,0.103,0.219,0.085,0.319
	c-0.009,0.049-0.176,0.111-0.263,0.101c-0.705-0.083-1.414-0.146-2.106-0.291c-0.461-0.097-0.891-0.343-1.349-0.474
	c-0.488-0.142-0.855-0.463-1.258-0.734c-0.073-0.049-0.132-0.131-0.211-0.158c-0.962-0.319-1.45-1.161-2.036-1.879
	c-0.6-0.737-0.917-1.643-1.227-2.522c-0.244-0.694-0.439-1.453-0.427-2.18c0.023-1.325,0.125-2.656,0.669-3.914
	c0.462-1.069,1.008-2.074,1.867-2.862c0.621-0.572,1.309-1.073,1.989-1.576c0.566-0.418,1.153-0.81,1.751-1.18
	c0.783-0.487,1.687-0.636,2.561-0.868c0.667-0.178,1.319-0.244,1.996-0.053c0.193,0.054,0.432,0.039,0.627-0.02
	c0.668-0.201,1.294-0.078,1.925,0.152c0.559,0.205,1.143,0.345,1.694,0.566c0.358,0.143,0.678,0.378,1.014,0.574
	c0.077,0.045,0.147,0.115,0.229,0.134c0.62,0.145,1.103,0.555,1.635,0.86c0.857,0.491,1.569,1.165,2.218,1.904
	c0.046,0.051,0.099,0.126,0.094,0.186c-0.035,0.45,0.207,0.818,0.341,1.218c0.391,1.151,0.391,2.324,0.254,3.523
	c-0.133,1.168-0.552,2.231-0.982,3.323c-0.151-0.065-0.275-0.118-0.433-0.186c0.128,0.468,0.088,0.448-0.151,0.952
	c-0.143,0.301-0.302,0.547-0.567,0.737c-0.069,0.051-0.115,0.137-0.161,0.211c-0.219,0.364-0.434,0.727-0.651,1.09
	c-0.138-0.195-0.138-0.195-0.322-0.043C56.775,39.352,56.875,39.359,56.974,39.366 M52.892,40.242
	c-0.231,0.006-0.279,0.171-0.184,0.313c0.126,0.185,0.326,0.211,0.557,0.027c-0.146-0.132-0.267-0.243-0.385-0.351
	c0.087-0.024,0.173-0.046,0.26-0.068c-0.02-0.033-0.038-0.065-0.056-0.097C53.02,40.125,52.956,40.183,52.892,40.242 M52.604,39.333
	c0.196-0.754,0.441-1.476,0.415-2.252c-0.025-0.699-0.141-1.36-0.62-1.909c-0.104-0.12-0.191-0.253-0.278-0.385
	c-0.491-0.744-1.099-1.34-1.97-1.624c-0.184-0.061-0.35-0.176-0.523-0.267c-0.443-0.234-0.907-0.38-1.419-0.346
	c-0.211,0.015-0.425,0.005-0.637-0.004c-0.673-0.028-1.36-0.072-2.002,0.14c-0.568,0.187-1.096,0.492-1.642,0.748
	c-0.112,0.052-0.215,0.138-0.332,0.164c-0.631,0.139-1.129,0.539-1.675,0.84c-0.097,0.054-0.195,0.233-0.178,0.338
	c0.071,0.49,0.11,1.002,0.294,1.452c0.357,0.869,0.812,1.689,1.563,2.313c0.236,0.196,0.426,0.429,0.743,0.493
	c0.032,0.007,0.059,0.038,0.088,0.06c0.735,0.533,1.589,0.771,2.459,0.936c0.855,0.161,1.718,0.277,2.594,0.091
	c0.603-0.127,1.214-0.213,1.825-0.308C51.763,39.742,52.182,39.588,52.604,39.333 M55.613,36.611c0.04,0.01,0.079,0.02,0.119,0.031
	c0.106-0.136,0.236-0.261,0.317-0.411c0.574-1.073,1.062-2.18,1.069-3.423c0.003-0.63,0.043-1.257-0.269-1.874
	c-0.481-0.948-1.198-1.66-2.001-2.312c-0.164-0.132-0.342-0.251-0.52-0.364c-0.627-0.402-1.287-0.731-1.994-0.975
	c-0.483-0.167-0.938-0.417-1.425-0.564c-0.339-0.103-0.686-0.159-0.982-0.372c-0.178-0.127-0.361-0.083-0.559-0.021
	c-0.217,0.068-0.451,0.13-0.674,0.122c-0.586-0.026-1.139,0.123-1.646,0.367c-1.364,0.655-2.64,1.422-3.655,2.599
	c-0.449,0.52-0.777,1.061-0.998,1.688c-0.029,0.081,0.009,0.186,0.02,0.331c0.749-0.323,1.457-0.603,2.14-0.931
	c1.04-0.5,2.13-0.762,3.279-0.763c0.263-0.001,0.536,0.137,0.787,0.098c0.673-0.107,1.269,0.131,1.863,0.348
	c0.955,0.35,1.869,0.785,2.581,1.548c0.231,0.247,0.456,0.499,0.677,0.755c0.929,1.079,1.654,2.257,1.8,3.716
	C55.556,36.342,55.588,36.476,55.613,36.611 M41.173,39.733c0.217,0.137,0.348,0.242,0.417-0.015
	c0.018-0.068-0.007-0.147-0.015-0.269C41.419,39.56,41.314,39.634,41.173,39.733 M42.732,38.549
	c-0.009,0.051-0.018,0.102-0.026,0.15l0.356,0.051c0.006-0.032,0.013-0.062,0.02-0.092C42.965,38.622,42.849,38.585,42.732,38.549
	 M48.954,42.259c-0.026,0-0.052,0.002-0.078,0.003v0.298c0.032-0.002,0.062-0.004,0.092-0.005
	C48.964,42.457,48.958,42.358,48.954,42.259"/>
<path fill="#FFFFFF" d="M56.974,39.366c-0.1-0.006-0.199-0.014-0.34-0.024c0.184-0.152,0.184-0.152,0.322,0.043
	C56.957,39.385,56.974,39.366,56.974,39.366"/>
<path fill="#231F20" d="M106.407,89.363c-0.355-0.501-0.366-0.738-0.023-1.128c0.037,0.063,0.11,0.147,0.095,0.17
	c-0.2,0.303-0.035,0.633-0.084,0.944L106.407,89.363z"/>
<path fill="#231F20" d="M106.395,89.349c-0.024,0.047-0.039,0.107-0.076,0.135c-0.033,0.025-0.104,0.035-0.136,0.017
	c-0.034-0.019-0.064-0.095-0.052-0.124c0.017-0.032,0.082-0.059,0.127-0.06c0.049-0.002,0.099,0.029,0.148,0.047
	C106.407,89.363,106.395,89.349,106.395,89.349"/>
<path fill="#231F20" d="M120.625,68.452c-0.098-0.028-0.194-0.056-0.292-0.084c0.007-0.031,0.01-0.061,0.016-0.094
	c0.102,0.013,0.2,0.025,0.3,0.036C120.641,68.359,120.633,68.406,120.625,68.452"/>
<path fill="#231F20" d="M120.149,68.963c-0.028-0.079-0.063-0.131-0.055-0.173c0.008-0.04,0.06-0.088,0.102-0.101
	c0.026-0.006,0.069,0.047,0.105,0.073C120.272,68.802,120.243,68.839,120.149,68.963"/>
<path fill="#FFFFFF" d="M81.506,51.603c-0.097,0.068-0.193,0.134-0.289,0.203c-0.016-0.039-0.033-0.078-0.051-0.118
	c0.118-0.025,0.234-0.051,0.354-0.076C81.521,51.613,81.506,51.603,81.506,51.603"/>
<path fill="#FFFFFF" d="M95.506,51.013c0,0.014,0,0.027,0,0.04c-0.03-0.006-0.06-0.012-0.089-0.021c-0.003,0,0-0.021,0-0.034
	C95.446,51.004,95.476,51.009,95.506,51.013"/>
<path fill="#00ADDB" d="M55.612,36.611c-0.024-0.135-0.057-0.269-0.07-0.405c-0.146-1.458-0.872-2.637-1.8-3.716
	c-0.22-0.256-0.445-0.508-0.676-0.755c-0.711-0.763-1.627-1.198-2.582-1.548c-0.594-0.217-1.19-0.455-1.863-0.348
	c-0.25,0.04-0.523-0.099-0.787-0.098c-1.149,0.001-2.239,0.263-3.28,0.763c-0.683,0.328-1.391,0.608-2.14,0.932
	c-0.01-0.145-0.048-0.25-0.02-0.331c0.22-0.628,0.549-1.169,0.998-1.688c1.015-1.177,2.292-1.944,3.655-2.599
	c0.508-0.245,1.06-0.393,1.646-0.367c0.224,0.008,0.458-0.054,0.675-0.122c0.197-0.062,0.38-0.107,0.559,0.021
	c0.296,0.212,0.643,0.269,0.981,0.371c0.487,0.149,0.943,0.399,1.425,0.565c0.707,0.244,1.367,0.573,1.994,0.975
	c0.178,0.113,0.356,0.231,0.521,0.364c0.802,0.652,1.52,1.363,2,2.312c0.313,0.616,0.272,1.243,0.27,1.874
	c-0.006,1.243-0.496,2.35-1.069,3.423c-0.081,0.15-0.21,0.275-0.317,0.411C55.691,36.631,55.652,36.621,55.612,36.611"/>
<path fill="#FFFFFF" d="M52.877,40.23c0.12,0.11,0.242,0.22,0.387,0.353c-0.231,0.184-0.43,0.157-0.556-0.028
	c-0.096-0.143-0.047-0.307,0.183-0.313L52.877,40.23z"/>
<path fill="#FFFFFF" d="M41.173,39.733c0.142-0.1,0.247-0.174,0.402-0.284c0.008,0.123,0.033,0.202,0.015,0.27
	C41.521,39.975,41.39,39.871,41.173,39.733"/>
<path fill="#FFFFFF" d="M42.731,38.549c0.117,0.035,0.233,0.073,0.351,0.109c-0.007,0.031-0.013,0.061-0.021,0.092L42.706,38.7
	C42.714,38.651,42.723,38.6,42.731,38.549"/>
<path fill="#FFFFFF" d="M48.954,42.259c0.004,0.099,0.01,0.198,0.014,0.296c-0.03,0.001-0.061,0.003-0.092,0.005v-0.298
	C48.902,42.262,48.928,42.26,48.954,42.259"/>
<path fill="#FFFFFF" d="M52.892,40.242c0.064-0.059,0.128-0.117,0.192-0.175c0.018,0.032,0.036,0.064,0.056,0.097
	c-0.087,0.021-0.173,0.044-0.261,0.066C52.877,40.23,52.892,40.242,52.892,40.242"/>
<path fill="#231F20" d="M43.604,38.772c-0.26-0.362-0.58-0.605-1.006-0.744c-0.124-0.041-0.251,0.004-0.345,0.088
	c-0.004-0.003-0.007-0.006-0.011-0.009c-0.391-0.292-0.77,0.367-0.383,0.656c0.252,0.188,0.495,0.385,0.732,0.59
	c0.174,0.148,0.45,0.107,0.582-0.049C43.473,39.377,43.827,39.083,43.604,38.772"/>
<path fill="#231F20" d="M59.073,33.695c-1.121,4.875-5.545,9.029-10.823,8.3c-0.059-0.093-0.153-0.164-0.289-0.178
	c-1.233-0.125-2.358-0.505-3.499-0.976c-1.085-0.446-2.297-0.868-3.034-1.839c-0.292-0.385-0.953-0.006-0.656,0.384
	c1.362,1.795,4.332,2.788,6.617,3.118c0.04,0.082,0.117,0.147,0.24,0.17c5.854,1.091,10.927-3.341,12.176-8.777
	C59.915,33.42,59.183,33.217,59.073,33.695"/>
<path fill="#231F20" d="M53.677,39.852c-0.043-0.259-0.389-0.47-0.648-0.233c-0.347,0.317-0.586,0.695-0.749,1.134
	c-0.109,0.293,0.21,0.517,0.467,0.467c0.553-0.109,1.072-0.324,1.24-0.909C54.059,40.056,53.878,39.885,53.677,39.852"/>
<path fill="#231F20" d="M33.861,42.249c-0.489,0-0.49,0.759,0,0.759C34.35,43.008,34.352,42.249,33.861,42.249"/>
<path fill="#231F20" d="M39.108,48.863c-0.127-0.391-0.19-0.771-0.213-1.191c-0.015-0.275-0.075-0.562-0.354-0.683
	c-0.142-0.063-0.275-0.032-0.38,0.037c0.001-0.009,0.002-0.02,0.003-0.029c0.063-0.484-0.698-0.479-0.76,0
	c-0.003,0.026-0.004,0.054-0.007,0.08c-0.143,0.041-0.261,0.155-0.261,0.347v1.188c0,0.276,0.242,0.39,0.453,0.354
	c0.019,0.039,0.025,0.078,0.047,0.116c0.111,0.2,0.314,0.219,0.475,0.141c-0.024,0.214,0.11,0.417,0.28,0.536
	c0.512,0.356,1.131,0.013,1.361-0.495C39.949,48.828,39.32,48.451,39.108,48.863"/>
<path fill="#231F20" d="M47.816,50.626c0.104-0.095-0.861-0.608-0.991-0.628c-0.049-0.009-0.1-0.007-0.15-0.001
	c0.121-0.168,0.127-0.406-0.11-0.52c-0.968-0.463-0.749-1.582-1.877-1.604c-1.495-0.028-2.925,0.754-4.461,0.704
	c-0.489-0.017-0.489,0.743,0,0.759c1.316,0.043,2.51-0.343,3.79-0.576c0.19-0.035,0.696-0.202,0.87-0.094
	c-0.059-0.038,0.216,0.517,0.246,0.566c0.072,0.123,0.155,0.227,0.243,0.324c-0.254-0.115-0.636,0.084-0.54,0.438
	c0.141,0.514,0.503,0.916,0.684,1.416c0.124,0.343,0.185,0.926,0.527,1.136c0.268,0.165,0.629,0.048,0.795-0.205
	c0.067-0.104,0.1-0.22,0.12-0.34c0.055,0.038,0.117,0.064,0.183,0.085c0.155,0.261,0.675,0.196,0.714-0.202
	c0.233-0.218,0.396-0.548,0.556-0.798C48.655,50.71,48.126,50.346,47.816,50.626 M45.567,49.792
	c-0.01-0.037-0.029-0.062-0.047-0.091c0.191,0.173,0.407,0.312,0.661,0.433c0.079,0.038,0.151,0.04,0.223,0.03
	c-0.001,0.004-0.005,0.006-0.007,0.008c-0.139,0.268-0.152,0.61-0.177,0.907c0,0.008-0.003,0.021-0.004,0.03
	c-0.037-0.103-0.073-0.208-0.118-0.307C45.94,50.451,45.67,50.167,45.567,49.792"/>
<path fill="#231F20" d="M46.85,53.723c-0.143-0.045-0.281,0.016-0.378,0.117c-0.002-0.019-0.001-0.039-0.004-0.058
	c-0.079-0.481-0.811-0.277-0.733,0.202c0.022,0.131-0.042,0.211-0.132,0.295c-0.211,0.193-0.1,0.562,0.168,0.634
	c0.434,0.116,0.938,0.054,1.274-0.271C47.357,54.339,47.274,53.854,46.85,53.723"/>
<path fill="#231F20" d="M57.886,48.283c0.069-0.479-0.663-0.685-0.733-0.202c-0.276,1.893-1.969,0.551-2.847,0.21
	c-0.808-0.314-1.688-0.384-2.543-0.458c-0.487-0.042-0.484,0.717,0,0.759c0.933,0.081,1.887,0.165,2.726,0.621
	c0.083,0.046,0.161,0.092,0.24,0.139c-0.034,0.071-0.042,0.154-0.034,0.233c-0.273,0.06-0.476,0.393-0.206,0.618
	c0.149,0.125,0.304,0.207,0.475,0.281c-0.023,0.343,0.245,0.685,0.469,0.912c0.031,0.03,0.064,0.053,0.099,0.069
	c-0.002,0.011-0.007,0.025-0.009,0.037c-0.083,0.477,0.65,0.683,0.734,0.201c0.067-0.384,0.229-0.85,0.173-1.238
	c-0.01-0.068-0.039-0.12-0.065-0.173c0.216,0.002,0.429-0.036,0.632-0.152c0.246-0.142,0.218-0.418,0.07-0.581
	C57.496,49.286,57.805,48.839,57.886,48.283"/>
<path fill="#231F20" d="M122.962,62.699c-0.311-0.355-0.6-0.744-0.949-1.071c-0.433-0.401-0.387-0.804,0.137-1.07
	c0.439-0.22,0.859-0.478,1.277-0.735c0.074-0.039,0.136-0.131,0.158-0.206c0.13-0.402,0.311-0.79,0.175-1.231
	c-0.098-0.318-0.121-0.66-0.227-0.98c-0.335-0.979-0.708-1.944-1.323-2.779c-0.381-0.509-0.653-1.042-0.721-1.588
	c-0.774-0.509-1.413-1.041-1.9-1.732c0.184-0.38,0.418-0.639,0.791-0.721c0.068-0.016,0.151-0.046,0.182-0.092
	c0.221-0.402,0.486-0.79,0.631-1.223c0.113-0.335,0.204-0.722,0.022-1.086c-0.448-0.874-0.963-1.701-1.618-2.439
	c-0.304-0.333-0.577-0.668-0.631-1.116c-0.432-0.121-2.977-1.604-3.235-1.869c0.304-0.471,0.631-0.934,0.904-1.428
	c0.205-0.357,0.448-0.752,0.029-1.148c-0.052-0.044-0.052-0.128-0.09-0.189c-0.236-0.357-0.464-0.707-0.7-1.055
	c-0.076-0.115-0.144-0.221-0.203-0.304c-0.206-0.175-0.417-0.319-0.669-0.418c-0.046-0.015-0.083-0.038-0.129-0.061
	c-0.093-0.022-0.182-0.046-0.273-0.068c-0.365,0.114-0.745,0.039-1.117-0.106c-1.077-0.417-2.158-0.804-3.304-0.994
	c-0.282-0.046-0.586-0.136-0.776-0.426c0.025-0.054,0.046-0.099,0.076-0.144c-0.356-0.35-0.318-0.896,0-1.253
	c0.062-0.068,0.131-0.114,0.198-0.175c0.03-0.235,0.076-0.47,0.105-0.707c0.009-0.083,0.023-0.197-0.022-0.258
	c-0.318-0.402-0.592-0.874-0.994-1.162c-0.586-0.418-1.291-0.594-2.021-0.57c-1.437,0.045-2.804,0.441-4.172,0.813
	c-0.53,0.137-1.032,0.174-1.442-0.167c-0.396-0.326-1.009-0.486-1.07-1.147c-0.008-0.076-0.114-0.137-0.161-0.212
	c-0.098-0.183-0.205-0.364-0.265-0.562c-0.328-1.064-0.882-1.93-1.809-2.583c-0.971-0.684-2.014-0.791-3.091-0.479
	c-1.269,0.365-2.424,0.988-3.502,1.763c-0.479,0.341-0.973,0.66-1.452,0.995c-0.241,0.166-0.478,0.333-0.796,0.554
	c-0.161-0.038-0.425-0.167-0.669-0.137c-0.312,0.031-0.517-0.068-0.715-0.266c-0.204-0.197-0.402-0.401-0.372-0.698
	c-0.159-0.083-0.287-0.167-0.433-0.236c-0.622-0.288-1.245-0.66-1.968-0.517c-0.494,0.101-0.979,0.282-1.45,0.464
	c-0.684,0.266-1.262,0.699-1.868,1.094c-1.003,0.661-1.718,1.526-2.234,2.582c-0.349,0.714-1.003,1.064-1.754,0.858
	c-0.941-0.259-1.915-0.373-2.887-0.486c-0.273-0.038-0.577-0.053-0.843,0.007c-0.57,0.114-1.2,0.122-1.504,0.76
	c-0.03,0.061-0.099,0.114-0.159,0.137c-0.494,0.243-0.729,0.684-0.867,1.162c-0.311,1.064-0.486,2.15-0.478,3.267
	c0,0.197,0.008,0.395,0.008,0.592c-0.069-0.592-0.13-1.186-0.198-1.777c-0.015-0.183-0.068-0.334-0.145-0.472
	c-0.114-0.622-0.456-1.147-0.843-1.632v-0.996c0.198-1.686,0.601-3.524,0.213-5.088c0.007-0.372-0.114-0.745-0.358-1.042
	c-0.053-0.061-0.105-0.114-0.167-0.159c-0.152-0.236-0.327-0.464-0.547-0.669c-0.031-0.038-0.068-0.053-0.106-0.067
	c-0.38-0.472-0.829-0.881-1.375-1.193c-0.441-0.25-0.501-0.638-0.198-1.04c0.244-0.328,0.547-0.601,0.828-0.897
	c0.122-0.129,0.305-0.236,0.357-0.388c0.221-0.691,0.478-1.397,0.022-2.097c-0.175-0.258-0.372-0.523-0.607-0.721
	c-0.432-0.372-0.912-0.684-1.359-1.041c-0.289-0.228-0.593-0.357-0.958-0.41c-0.433-0.054-0.858-0.167-1.322-0.266
	c0.038-0.168,0.038-0.304,0.099-0.403c0.319-0.471,0.418-1.01,0.547-1.542c0.083-0.365,0.007-0.623-0.206-0.888
	c-0.212-0.258-0.478-0.418-0.805-0.479c-1.268-0.243-2.506-0.182-3.714,0.312c-0.54,0.228-1.101,0.372-1.679,0.554
	c-0.075-0.174-0.151-0.296-0.189-0.433c-0.244-0.79-0.456-1.603-0.745-2.384c-0.114-0.319-0.326-0.662-0.601-0.852
	c-0.388-0.266-0.851-0.456-1.307-0.569c-0.327-0.083-0.714-0.069-1.04,0.022c-0.616,0.175-1.231,0.389-1.793,0.669
	c-0.714,0.357-1.375,0.812-2.058,1.223c-0.091,0.053-0.183,0.137-0.274,0.152c-0.387,0.054-0.699,0.235-0.994,0.47
	c-0.289,0.229-0.403,0.206-0.585-0.113c-0.121-0.197-0.197-0.425-0.312-0.623c-0.228-0.38-0.387-0.844-0.713-1.103
	c-0.608-0.486-1.36-0.721-2.143-0.66c-1.033,0.075-1.86,0.607-2.589,1.298c-0.107,0.1-0.183,0.236-0.304,0.304
	c-0.494,0.29-0.82,0.745-1.109,1.201c-0.486,0.774-1.185,1.36-1.771,2.043c-0.03,0.046-0.083,0.069-0.129,0.099
	c-0.273,0.152-0.555,0.304-0.828,0.472c-0.858,0.531-1.725,1.062-2.773,1.154c-0.106,0.008-0.212,0.037-0.304,0.083
	c-0.547,0.258-1.094,0.509-1.633,0.774c-0.616,0.311-1.056,0.798-1.269,1.451c-0.129,0.411-0.258,0.889-0.167,1.292
	c0.099,0.478,0.388,0.934,0.812,1.276c0.342,0.265,0.638,0.592,1.018,0.964c-0.273,0.122-0.463,0.251-0.676,0.289
	c-0.395,0.083-0.813,0.091-1.208,0.167c-0.509,0.099-1.025,0.182-1.497,0.357s-0.896,0.456-1.336,0.699
	c-0.076,0.045-0.167,0.098-0.197,0.167c-0.198,0.471-0.578,0.873-0.571,1.42c0,0.312,0.008,0.646,0.115,0.927
	c0.212,0.531,0.509,1.018,0.949,1.397c0.152,0.138,0.258,0.32,0.395,0.501c-0.479,0.388-0.897,0.737-1.33,1.078
	c-0.068,0.062-0.144,0.099-0.228,0.138c-0.357,0.19-0.684,0.387-0.865,0.805c-0.115,0.281-0.38,0.501-0.578,0.745
	c-0.259,0.334-0.63,0.584-0.722,1.041c-0.076,0.433-0.175,0.865-0.22,1.306c-0.16,1.573-0.365,3.146-0.244,4.733
	c0.039,0.478,0.039,0.958,0.046,1.436c0.083,0.129,0.145,0.28,0.137,0.47c-0.045,1.118,0.502,2.226,1.36,2.94
	c0.144,0.03,0.288,0.053,0.432,0.069c0.479,0.052,0.95,0.128,1.414,0.257c0.387,0.106,0.744,0.327,1.131,0.441
	c0.35,0.106,0.54,0.265,0.555,0.66c0.015,0.456,0.069,0.921,0.145,1.368c0.045,0.258,0.289,0.486,0.015,0.706
	c0.091,0.212,0.159,0.394,0.25,0.562c0.16,0.273,0.304,0.524,0.662,0.639c0.637,0.205,1.246,0.494,1.708,1.018
	c0.19,0.212,0.479,0.365,0.752,0.487c0.592,0.272,1.2,0.516,1.809,0.751c0.319,0.121,0.463,0.288,0.523,0.646
	c0.122,0.706,0.342,1.397,1.186,1.587c0.015,0.007,0.03,0.015,0.045,0.022c0.433,0.364,0.812,0.228,1.177-0.16
	c0.494,0.267,1.003,0.281,1.55,0.22c0.858-0.091,1.694-0.34,2.568-0.34c0.667-0.01,1.321-0.017,1.958,0.211
	c0.206,0.069,0.289,0.168,0.32,0.365c0.039,0.267,0.068,0.532,0.152,0.782c0.145,0.396,0.244,0.828,0.638,1.063
	c0.16,0.099,0.396,0.099,0.533,0.221c0.334,0.296,0.804,0.053,1.131,0.334c0.022,0.016,0.099-0.015,0.145-0.038
	c0.197-0.091,0.388-0.174,0.569-0.288c0.684-0.403,1.353-0.851,2.059-1.224c0.38-0.205,0.82-0.394,1.245-0.408
	c0.631-0.032,1.277,0.09,1.907,0.166c0.577,0.069,1.139,0.167,1.739,0.069c0.137-0.024,0.251-0.069,0.365-0.122
	c0.015-0.007,0.039-0.016,0.053-0.023c1.002-0.122,1.899-0.501,2.635-1.223c0.525-0.509,0.92-1.139,1.527-1.557
	c0.137-0.098,0.334-0.182,0.524-0.273c0.03,0.038,0.06,0.083,0.091,0.129c-0.122,0.327-0.342,0.608-0.684,0.843
	c-0.417,0.289-0.76,0.683-1.147,1.018c-0.463,0.403-0.95,0.798-1.421,1.192c-0.037,0.039-0.075,0.076-0.106,0.122
	c-0.44,0.677-0.903,1.337-1.169,2.111c-0.114,0.328-0.228,0.669-0.29,1.011c-0.045,0.274,0.016,0.562,0.008,0.844
	c-0.038,0.881,0.334,1.435,1.155,1.663c0.19,0.052,0.387,0.046,0.577,0.084c0.327,0.083,0.395,0.182,0.281,0.487
	c-0.144,0.377-0.304,0.759-0.493,1.123c-0.601,1.153-1.079,2.354-1.375,3.623c-0.19,0.774-0.281,1.573-0.387,2.364
	c-0.068,0.447,0.007,0.871,0.296,1.259c0.183,0.244,0.289,0.509,0.129,0.837c-0.091,0.196-0.076,0.455-0.076,0.69
	c0,1.049,0.015,2.098,0.03,3.145c0.03,1.436,0.053,2.88,0.099,4.314c0.014,0.585,0.075,1.178,0.357,1.708
	c0.151,0.306,0.28,0.616,0.44,0.914c0.054,0.089,0.144,0.22,0.235,0.235c0.343,0.075,0.692,0.144,1.042,0.151
	c0.479,0,0.957-0.076,1.436-0.091c0.668-0.017,1.345,0,2.029,0c0.037,0.182,0.075,0.342,0.098,0.493
	c0.091,0.653,0.16,1.306,0.266,1.952c0.061,0.418,0.213,0.828,0.243,1.246c0.061,0.89,0.615,1.216,1.253,1.209
	c0.661-0.017,1.322-0.008,1.975,0.007c0.646,0.014,1.276,0.143,1.846,0.447c0.326,0.176,0.6,0.44,0.896,0.668
	c0.388,0.289,0.73,0.691,1.307,0.51c0.061-0.023,0.137,0,0.212,0.007c0.198,0.022,0.319,0.107,0.358,0.32
	c0.076,0.401,0.189,0.805,0.235,1.208c0.16,1.367,0.577,2.665,1.048,3.948c0.083,0.236,0.205,0.357,0.44,0.402
	c0.715,0.139,1.421,0.29,2.127,0.427c0.653,0.122,1.185,0.493,1.755,0.797c0.075,0.039,0.159,0.107,0.182,0.183
	c0.084,0.221,0.244,0.281,0.456,0.288c0.083,0.008,0.176,0.055,0.243,0.1c0.486,0.357,0.98,0.707,1.451,1.078
	c0.509,0.402,0.865,0.941,1.2,1.489c0.123,0.213,0.258,0.472,0.562,0.411c0.341-0.075,0.614,0.021,0.896,0.204
	c0.304,0.205,0.705,0.145,1.002-0.083c0.342-0.281,0.692-0.557,1.034-0.829c0.493-0.386,1.01-0.737,1.457-1.161
	c0.396-0.357,0.774-0.661,1.33-0.707c0.28-0.022,0.556-0.145,0.827-0.159c0.662-0.047,1.315-0.047,1.854,0.416
	c0.067,0.054,0.159,0.115,0.235,0.109c0.455-0.076,0.752,0.265,1.109,0.439c0.272,0.145,0.417,0.395,0.486,0.722
	c0.135,0.675,0.334,1.329,0.971,1.747c0.28,0.182,0.562,0.281,0.836,0.152c0.281-0.13,0.518-0.364,0.745-0.586
	c0.182-0.158,0.326-0.364,0.486-0.554c0.181-0.214,0.41-0.403,0.524-0.646c0.318-0.677,0.781-1.071,1.519-1.269
	c1.617-0.425,3.221-0.743,4.898-0.471c0.396,0.062,0.76,0.145,1.103,0.364c0.342,0.214,0.729,0.358,1.087,0.563
	c0.614,0.349,1.162,0.091,1.633-0.252c0.586-0.425,1.048-0.994,1.404-1.649c0.145-0.257,0.328-0.523,0.562-0.697
	c0.472-0.365,0.873-0.858,1.52-0.935c0.029,0,0.061-0.046,0.091-0.052c0.494-0.19,0.972-0.435,1.481-0.549
	c0.615-0.129,1.269-0.15,1.898-0.228c0.67-0.075,1.352-0.121,2.014-0.257c0.318-0.062,0.607-0.146,0.935-0.07
	c0.197,0.046,0.44,0.085,0.614,0.008c0.502-0.227,0.836-0.591,0.723-1.216c-0.031-0.174-0.008-0.355-0.015-0.531
	c-0.023-0.312,0.022-0.584,0.241-0.835c0.639-0.707,0.96-1.573,1.148-2.484c0.212-1.02,0.592-1.975,1.116-2.856
	c0.812-1.374,1.839-2.574,3.229-3.417c0.31-0.191,0.533-0.441,0.752-0.73c0.281-0.364,0.175-0.752,0.145-1.124
	c-0.016-0.151-0.274-0.281-0.418-0.433c-0.022-0.022-0.029-0.062-0.061-0.122c0.257-0.509,0.244-1.071-0.024-1.572
	c-0.333-0.638-0.424-1.3-0.417-2.005c0.008-0.38-0.067-0.769-0.098-1.154c-0.017-0.161-0.024-0.328,0.022-0.472
	c0.243-0.774,0.485-1.557,0.761-2.325c0.128-0.371,0.341-0.705,0.456-1.076c0.081-0.245,0.196-0.45,0.408-0.525
	c0.418-0.152,0.387-0.434,0.351-0.774c-0.084-0.67-0.168-1.338-0.197-2.014c-0.023-0.577,0.067-1.163,0.053-1.748
	c-0.017-0.44,0.015-0.835,0.272-1.215c0.106-0.158,0.16-0.356,0.206-0.546c0.144-0.562,0.061-1.072-0.357-1.505
	C123.168,62.998,123.077,62.836,122.962,62.699 M68.688,41.454c0.045,0.395,0.091,0.791,0.129,1.185
	c-0.66,0.023-1.313,0.046-1.975,0.068c-0.03-0.373-0.053-0.401,0.236-0.554c0.456-0.236,0.926-0.441,1.405-0.615
	C68.551,41.506,68.62,41.484,68.688,41.454 M68.157,32.551c0.121-0.205,0.242-0.402,0.372-0.608
	c-0.007,0.472-0.015,0.942-0.046,1.421c-0.015,0.296-0.091,0.654-0.122,1.003c-0.061-0.076-0.113-0.16-0.183-0.234
	C67.769,33.606,67.814,33.082,68.157,32.551 M32.31,38.825c-0.114,0.19-0.205,0.395-0.304,0.6c-0.038,0.077-0.091,0.16-0.099,0.244
	c-0.022,0.531-0.22,1.025-0.266,1.557c-0.061,0.721-0.068,1.451-0.159,2.172c-0.031,0.229-0.008,0.464-0.023,0.691
	c-0.023,0.221-0.061,0.44-0.099,0.738c-0.896-0.335-1.731-0.639-2.553-0.949c-0.257-0.092-0.257-0.305-0.265-0.524
	c-0.031-0.851-0.038-1.709-0.1-2.553c-0.083-1.17,0.129-2.31,0.235-3.456c0.016-0.19,0.107-0.373,0.16-0.555
	c0.099,0.008,0.167-0.008,0.198,0.023c0.76,0.684,1.777,0.859,2.659,1.292c0.144,0.076,0.304,0.105,0.44,0.189
	C32.332,38.416,32.455,38.575,32.31,38.825 M35.386,50.067c-0.144-0.189-0.403-0.273-0.607-0.41
	c-0.319-0.22-0.638-0.433-0.942-0.668c-0.068-0.045-0.076-0.19-0.083-0.289c-0.106-1.39-0.016-2.773,0.038-4.156
	c0.007-0.113,0.061-0.227,0.099-0.364c0.54-0.016,0.98,0.235,1.444,0.387c0.296,0.098,0.585,0.243,0.881,0.357
	c0.296,0.114,0.395,0.334,0.387,0.63c0,0.229-0.022,0.464,0,0.691c0.016,0.168,0.069,0.335,0.129,0.487
	c0.122,0.288,0.19,0.591,0,0.842c-0.228,0.305-0.197,0.585-0.106,0.905c0.205,0.721,0.159,1.465,0.228,2.294
	C36.274,50.584,35.743,50.539,35.386,50.067 M38.888,48.64c-0.129,0.136-0.281,0.25-0.486,0.433
	c-0.053-0.365,0.144-0.502,0.296-0.646c0.038-0.03,0.13-0.008,0.19-0.008C38.888,48.496,38.926,48.601,38.888,48.64 M45.763,51.974
	c-0.016,0.037-0.023,0.083-0.031,0.121v0.008c-0.007,0.053-0.007,0.106-0.007,0.167c0,0.144,0.015,0.289-0.008,0.425
	c-0.007,0.061-0.023,0.122-0.045,0.175c-0.077,0.008-0.145,0.03-0.206,0.015c-0.653-0.211-1.321-0.243-1.998-0.197
	c-0.296,0.022-0.592,0.105-0.888,0.122c-0.638,0.045-1.269,0.061-1.907,0.09c-0.281,0.016-0.562,0.046-0.843,0.062
	c-0.205,0.015-0.356-0.053-0.372-0.281c-0.076-0.821-0.197-1.649-0.151-2.5c0.144-0.022,0.258-0.053,0.379-0.053
	c0.828-0.009,1.603-0.289,2.378-0.524c0.228-0.068,0.433-0.205,0.661-0.289c0.714-0.25,1.048-0.129,1.421,0.478
	c0.113,0.19,0.295,0.335,0.44,0.501c0.099,0.114,0.189,0.236,0.289,0.35c0.114,0.129,0.228,0.25,0.388,0.433
	c-0.022,0.03-0.083,0.099-0.152,0.182c0.076,0.084,0.152,0.161,0.243,0.229c0.031,0.015,0.061,0.038,0.092,0.053
	c0.037,0.023,0.083,0.046,0.136,0.062c0.038,0.015,0.083,0.028,0.121,0.028c0.045,0.008,0.091,0.017,0.137,0.017
	c0.06,0,0.121-0.008,0.19-0.017C45.876,51.739,45.8,51.853,45.763,51.974 M46.257,54.504c0.075-0.121,0.159-0.243,0.257-0.418
	c0.175,0.151,0.342,0.288,0.524,0.448C46.568,54.777,46.568,54.777,46.257,54.504 M46.978,52.011l-0.023,0.024
	c-0.016,0.015-0.022,0.03-0.038,0.045c-0.023-0.007-0.045-0.022-0.068-0.037c0.023-0.106,0.045-0.221,0.084-0.412
	c-0.107,0.078-0.151,0.138-0.198,0.138c-0.145-0.015-0.312-0.015-0.417-0.09c-0.07-0.047-0.099-0.266-0.046-0.326
	c0.091-0.107,0.258-0.229,0.38-0.213c0.25,0.03,0.486,0.145,0.835,0.266C47.274,51.663,47.114,51.845,46.978,52.011 M46.613,50.85
	c0.144-0.221,0.205-0.357,0.304-0.447c0.061-0.054,0.191-0.046,0.282-0.031c0.045,0.008,0.129,0.099,0.114,0.137
	c-0.023,0.084-0.069,0.206-0.144,0.236C47.031,50.804,46.872,50.804,46.613,50.85 M54.369,53.934
	c-0.356-0.016-0.653-0.016-0.949-0.045c-0.379-0.046-0.759-0.145-1.147-0.19c-0.585-0.061-1.14,0.106-1.649,0.357
	c-0.615,0.312-1.2,0.684-1.8,1.033c-0.106,0.061-0.205,0.137-0.319,0.175c-0.175,0.061-0.289-0.031-0.296-0.206
	c-0.038-0.797-0.076-1.595-0.107-2.393c-0.007-0.22,0.107-0.364,0.32-0.432c0.22-0.077,0.433-0.168,0.653-0.214
	c0.585-0.113,0.98-0.44,1.322-0.911c0.357-0.501,0.79-0.949,1.193-1.413c0.159-0.174,0.357-0.25,0.569-0.076
	c0.546,0.464,1.238,0.654,1.846,1.01c0.327,0.198,0.449,0.449,0.395,0.798c-0.099,0.668-0.038,1.337,0.008,2.006
	C54.415,53.569,54.392,53.713,54.369,53.934 M54.619,48.427c-0.166-0.152-0.334-0.311-0.5-0.464
	c-0.061-0.061-0.129-0.129-0.206-0.167c-0.357-0.152-0.699-0.372-1.071-0.433c-0.349-0.061-0.736,0.022-1.101,0.083
	c-0.464,0.076-0.928,0.175-1.383,0.305c-0.19,0.053-0.387,0.182-0.531,0.326c-0.54,0.562-1.063,1.139-1.58,1.716
	c-0.296,0.335-0.494,0.396-0.874,0.206c-0.35-0.174-0.57-0.471-0.789-0.775c-0.343-0.47-0.692-0.949-1.109-1.359
	c-0.662-0.655-1.498-0.844-2.409-0.685c-0.402,0.068-0.805,0.16-1.192,0.273c-0.456,0.129-0.919,0.273-1.353,0.472
	c-0.425,0.205-0.835,0.083-1.246,0c-0.091-0.016-0.213-0.16-0.22-0.259c-0.045-0.402-0.053-0.812-0.068-1.223
	c-0.007-0.227,0.023-0.456,0.015-0.683c-0.068-1.102-0.783-1.747-1.648-2.263c-0.812-0.48-1.724-0.738-2.605-1.049
	c-0.646-0.228-0.874-0.675-0.646-1.322c0.099-0.266,0.205-0.531,0.327-0.789c0.357-0.708,0.288-1.459,0.197-2.196
	c-0.062-0.455-0.395-0.806-0.768-1.041c-0.524-0.319-1.102-0.568-1.664-0.828c-0.463-0.22-0.935-0.44-1.413-0.623
	c-0.311-0.107-0.494-0.289-0.509-0.608c-0.023-0.319,0.266-0.41,0.479-0.578c0.668-0.516,1.406-0.95,1.953-1.625
	c0.189-0.227,0.28-0.441,0.219-0.729c-0.03-0.121-0.061-0.25-0.038-0.365c0.098-0.607-0.266-1.01-0.623-1.405
	c-0.213-0.228-0.471-0.418-0.752-0.669c-0.137-0.592-0.03-0.882,0.607-1.14c0.486-0.19,1.025-0.272,1.542-0.38
	c0.577-0.122,1.177-0.137,1.724-0.327c0.713-0.257,1.359-0.699,1.786-1.358c0.471-0.737,0.295-1.534-0.419-2.089
	c-0.409-0.319-0.843-0.624-1.261-0.95c-0.303-0.235-0.326-0.472,0-0.685c0.615-0.402,1.186-0.866,1.991-0.934
	c0.531-0.039,1.055-0.296,1.549-0.532c0.661-0.312,1.291-0.684,1.906-1.064c0.358-0.228,0.7-0.493,1.003-0.782
	c0.167-0.167,0.234-0.433,0.349-0.654c0.159-0.334,0.289-0.684,0.486-0.995c0.335-0.525,0.707-1.018,1.056-1.527
	c0.03-0.044,0.046-0.105,0.092-0.136c0.501-0.387,1.002-0.782,1.526-1.146c0.319-0.222,0.494-0.183,0.698,0.144
	c0.182,0.281,0.319,0.593,0.471,0.889c0.304,0.593,0.851,0.95,1.345,1.353c0.107,0.083,0.258,0.129,0.402,0.145
	c1.026,0.121,2.022,0.053,2.856-0.669c0.114-0.106,0.267-0.174,0.411-0.242c0.957-0.494,1.921-0.98,2.886-1.467
	c0.092-0.045,0.183-0.099,0.289-0.122c0.44-0.106,0.532-0.068,0.661,0.364c0.206,0.662,0.387,1.33,0.555,2.006
	c0.151,0.623,0.463,1.169,0.881,1.618c0.205,0.228,0.593,0.327,0.912,0.379c0.646,0.114,1.275-0.015,1.875-0.273
	c0.129-0.053,0.266-0.114,0.38-0.19c0.547-0.357,1.163-0.493,1.815-0.592c0,0.068,0.023,0.144,0,0.205
	c-0.258,0.562-0.212,1.14-0.137,1.724c0.091,0.64,0.6,1.231,1.245,1.383c0.396,0.092,0.798,0.152,1.208,0.205
	c0.41,0.062,0.79,0.206,1.116,0.464c0.115,0.083,0.251,0.136,0.373,0.205c0.501,0.288,0.531,0.706,0.114,1.109
	c-0.456,0.44-0.98,0.835-1.14,1.511c-0.015,0.076-0.091,0.145-0.144,0.22c-0.516,0.76-0.41,1.406,0.342,1.975
	c0.417,0.319,0.843,0.653,1.283,0.943c0.434,0.288,0.646,0.706,0.806,1.161c0.046,0.129,0.015,0.319-0.053,0.448
	c-0.145,0.282-0.319,0.555-0.517,0.805c-0.463,0.608-0.729,1.299-0.919,2.014c-0.228,0.827,0.007,1.594,0.531,2.248
	c0.472,0.585,0.965,1.147,1.459,1.709c0.471,0.533,0.675,1.155,0.63,1.861c-0.029,0.456-0.296,0.798-0.547,1.14
	c-0.061,0.083-0.205,0.136-0.319,0.158c-0.797,0.16-1.504,0.525-2.15,1.011c-0.372,0.29-0.593,0.676-0.698,1.11
	c-0.114,0.478-0.167,0.979-0.213,1.473c-0.053,0.562-0.076,1.131-0.114,1.748c-0.546,0.015-1.071,0.029-1.603,0.053
	c-0.706,0.022-1.436-0.031-2.111,0.122c-0.973,0.22-1.907,0.593-2.59,1.382c-0.151,0.182-0.243,0.434-0.349,0.655
	c-0.206,0.455-0.388,0.918-0.601,1.366c-0.054,0.107-0.123,0.206-0.198,0.297h-0.008c-0.045,0.053-0.099,0.105-0.152,0.16
	c-0.053,0.052-0.251,0.076-0.281,0.037c-0.16-0.235-0.388-0.182-0.615-0.197c-0.167-0.015-0.35-0.1-0.479-0.205
	c-0.145-0.122-0.288-0.25-0.432-0.38C54.619,48.435,54.619,48.427,54.619,48.427 M55.311,50.729
	c-0.068-0.046-0.121-0.053-0.129-0.076c-0.015-0.273-0.448-0.509-0.175-0.813c0.016-0.015,0.046-0.039,0.068-0.061l0.008-0.007
	c0,0.038,0,0.068,0.007,0.098c0.038,0.205,0.19,0.343,0.418,0.456C55.44,50.47,55.379,50.6,55.311,50.729 M56.382,50.257
	c0.008-0.114,0.016-0.22,0.022-0.335c-0.022-0.007-0.053-0.015-0.076-0.021c-0.076,0.166-0.152,0.326-0.243,0.516
	c-0.099-0.046-0.167-0.083-0.311-0.152c0.145-0.083,0.235-0.136,0.327-0.19c-0.198-0.334-0.198-0.334-0.624-0.015
	c-0.03-0.061-0.06-0.114-0.083-0.175c0.023-0.015,0.038-0.03,0.062-0.045c0.113-0.084,0.22-0.19,0.341-0.251
	c0.039-0.015,0.069-0.03,0.107-0.046c0.038-0.007,0.075-0.015,0.114-0.015c0.061,0,0.122,0.015,0.197,0.046
	c0.084,0.037,0.243-0.046,0.288,0c0.145,0.144,0.252,0.327,0.388,0.509C56.686,50.152,56.533,50.205,56.382,50.257 M60.461,51.191
	c-0.356,0.114-0.767,0.357-1.01,0.487c-0.54,0.289-1.01,0.652-1.466,1.048h-0.007c-0.008-0.009-0.023-0.009-0.031-0.009
	c-0.327,0.244-0.676,0.501-1.063,0.784c-0.266-0.745-0.175-1.413-0.061-2.089c0.266-0.083,0.501-0.189,0.745-0.213
	c0.259-0.03,0.418-0.167,0.578-0.341c0.676-0.722,1.2-1.542,1.481-2.492c0.197-0.668,0.714-0.934,1.292-1.056
	c0.957-0.19,1.937-0.212,2.917-0.204c0.083,0,0.167,0.045,0.319,0.09c-0.251,0.122-0.426,0.212-0.593,0.296
	c-0.752,0.388-1.359,0.964-2.043,1.436C60.841,49.407,60.5,50.341,60.461,51.191 M61.965,73.57
	c-0.198,0.918-0.449,1.822-0.585,2.758c-0.099,0.674-0.06,1.366-0.068,2.059c0,0.128,0.062,0.28,0.137,0.395
	c0.327,0.485,0.297,1.049,0.417,1.67c-1.033,0.038-1.974,0.077-2.978,0.114c-0.037-0.379-0.106-0.728-0.113-1.078
	c-0.023-0.669-0.015-1.344-0.023-2.014c-0.008-0.881-0.015-1.763-0.045-2.642c-0.007-0.373-0.099-0.746-0.106-1.117
	c-0.008-0.402,0.038-0.806,0.061-1.201c0.516-0.22,1.002-0.236,1.466-0.122c0.63,0.154,1.246,0.388,1.922,0.609
	C62.026,73.199,62.003,73.389,61.965,73.57 M70.01,79.13c-0.092,0.541-0.221,1.081-0.327,1.618
	c-0.069,0.341-0.175,0.691-0.175,1.041c-0.015,1.087,0,2.166,0.031,3.243c0.015,0.349,0.106,0.692,0.167,1.08
	c-0.828-0.245-1.557-0.549-2.317-0.67c-0.759-0.13-1.542-0.075-2.362-0.105c-0.296-1.793-0.592-3.563-0.889-5.341
	c0.638-0.092,1.246-0.122,1.823-0.273c0.54-0.138,1.048-0.402,1.573-0.606c0.16-0.07,0.319-0.145,0.486-0.168
	c0.539-0.068,1.086-0.121,1.625-0.183C69.926,78.735,70.055,78.835,70.01,79.13 M79.422,95.5c-0.714-0.463-1.405-0.958-2.143-1.383
	c-0.44-0.258-0.928-0.448-1.413-0.599c-0.646-0.206-1.307-0.343-2.044-0.525c-0.106-0.425-0.228-0.836-0.304-1.246
	c-0.205-1.101-0.388-2.21-0.577-3.312c-0.023-0.121-0.046-0.251-0.053-0.371c-0.023-0.51,0.015-0.547,0.478-0.761
	c0.365-0.168,0.729-0.35,1.086-0.554c0.539-0.305,0.607-0.32,1.337-0.168c0.069,0.22,0.183,0.457,0.206,0.69
	c0.091,0.753,0.538,1.309,0.957,1.878c0.182,0.242,0.394,0.454,0.539,0.713c0.266,0.471,0.575,0.889,1.033,1.186
	c0.137,0.091,0.251,0.206,0.371,0.312c0.289,0.251,0.426,0.516,0.404,0.957c-0.032,0.57,0.136,1.155,0.235,1.732
	c0.091,0.508,0.28,0.995,0.227,1.58C79.627,95.576,79.513,95.561,79.422,95.5 M89.737,95.241c-0.312-0.046-0.63-0.068-0.936-0.13
	c-0.987-0.21-1.96-0.258-2.931,0.092c-0.268,0.099-0.54,0.19-0.812,0.252c-0.549,0.128-0.891,0.555-1.309,0.873
	c-0.371,0.289-0.72,0.607-1.2,1.017c-0.144-0.56-0.271-0.986-0.364-1.413c-0.175-0.812-0.319-1.633-0.478-2.452
	c-0.022-0.122-0.039-0.243-0.046-0.371c-0.022-0.496-0.022-0.496,0.463-0.685c0.26-0.106,0.532-0.206,0.774-0.335
	c0.222-0.114,0.419-0.144,0.662-0.091c0.25,0.053,0.447-0.145,0.364-0.365c-0.152-0.371,0.113-0.622,0.281-0.789
	c0.432-0.433,0.948-0.783,1.436-1.162c0.236,0.106,0.427,0.189,0.524,0.447c0.044,0.121,0.22,0.205,0.35,0.297
	c0.305,0.214,0.614,0.403,0.91,0.623c0.594,0.455,1.178,0.918,1.747,1.39c0.115,0.091,0.222,0.245,0.251,0.381
	c0.13,0.728,0.236,1.473,0.35,2.21C89.774,95.075,89.759,95.127,89.737,95.241 M101.64,94.893c-0.204-0.016-0.41-0.023-0.614-0.046
	c-0.784-0.084-1.55-0.122-2.325,0.076c-0.531,0.129-1.093,0.144-1.632,0.258c-0.709,0.152-1.421,0.335-2.121,0.54
	c-0.638,0.183-1.2,0.517-1.633,1.047c-0.054,0.069-0.128,0.123-0.184,0.175c-0.517-0.067-0.712-0.341-0.767-0.841
	c-0.083-0.76-0.266-1.505-0.396-2.258c-0.028-0.15-0.006-0.311-0.006-0.502c0.144,0.022,0.242,0.03,0.342,0.055
	c0.083,0.016,0.182,0.076,0.25,0.053c0.38-0.129,0.767-0.266,1.14-0.426c0.304-0.122,0.524-0.34,0.63-0.668
	c0.1-0.305,0.252-0.592,0.351-0.897c0.113-0.34,0.295-0.562,0.675-0.562c0.061,0,0.121-0.06,0.273-0.145
	c-0.281-0.184-0.515-0.333-0.689-0.456c0.477-1.291,0.638-1.382,1.404-0.934c0.136,0.197-0.335,0.524,0.175,0.653
	c0.054-0.113,0.114-0.228,0.175-0.357c0.889-0.015,1.746,0.167,2.612,0.381c0.51,0.128,1.048,0.114,1.596,0.167
	C101.054,90.501,101.699,94.481,101.64,94.893 M112.655,91.307c-0.511-0.014-1.026-0.038-1.535-0.045
	c-0.084-0.007-0.174,0.015-0.26,0.038c-0.599,0.151-1.199,0.296-1.791,0.47c-0.357,0.114-0.692,0.289-1.031,0.427
	c-0.176,0.067-0.329,0.249-0.541,0.082c-0.03-0.015-0.131,0.032-0.175,0.07c-0.775,0.531-1.558,1.056-2.316,1.603
	c-0.252,0.182-0.455,0.425-0.745,0.697c-0.03-0.188-0.055-0.281-0.062-0.371c-0.044-0.409,0.046-0.858-0.281-1.207
	c-0.053-0.054-0.045-0.169-0.067-0.251c-0.234-0.889-0.335-1.809-0.518-2.707c-0.044-0.232,0.031-0.363,0.252-0.462
	c0.471-0.195,0.797-0.555,1.079-0.987c0.272-0.409,0.637-0.752,0.94-1.14c0.16-0.205,0.273-0.44,0.418-0.651
	c0.038-0.055,0.106-0.093,0.259-0.213v1.061c0.212,0.062,0.281-0.007,0.289-0.188c0.008-0.266,0.016-0.531,0.062-0.79
	c0.021-0.105,0.149-0.25,0.256-0.28c0.486-0.159,0.981-0.32,1.489-0.411c0.957-0.167,1.93-0.288,2.896-0.439
	c0.272-0.047,0.547-0.137,0.828-0.197c0.279-0.061,0.409,0.015,0.44,0.295c0.046,0.319,0.046,0.639,0.06,0.958
	c0.008,0.106-0.021,0.22,0.008,0.319c0.267,1.018,0.41,2.043,0.373,3.1c-0.008,0.204,0.098,0.409,0.151,0.613
	C113.262,91.171,113.141,91.322,112.655,91.307 M113.368,75.417c-0.418,0.265-0.775,0.615-1.17,0.919
	c-0.607,0.463-0.691,1.108-0.66,1.814c0.023,0.607,0.205,1.186,0.372,1.762c0.22,0.769,0.395,1.551,0.356,2.362
	c-0.017,0.404-0.296,0.662-0.691,0.708c-0.227,0.022-0.448,0.099-0.668,0.158c-0.364,0.099-0.729,0.259-1.132,0.151
	c-0.106-0.028-0.234,0.017-0.356,0.047c-0.433,0.091-0.866,0.205-1.299,0.281c-0.251,0.045-0.503,0.009-0.646-0.259
	c-0.101-0.19-0.267-0.235-0.456-0.183c-0.412,0.105-0.82,0.221-1.23,0.343c-0.076,0.029-0.13,0.114-0.19,0.175
	c-0.183,0.197-0.365,0.388-0.556,0.592c-0.15-0.046-0.295-0.092-0.517-0.151c0.054,0.204,0.093,0.341,0.139,0.492
	c-0.017,0.024-0.017,0.062-0.038,0.093c-0.639,0.779-1.285,1.564-1.923,2.347c-0.167,0.204-0.363,0.326-0.63,0.357
	c-0.403,0.029-0.806,0.182-1.208-0.015c-0.03-0.017-0.069-0.017-0.105-0.008c-1.155,0.075-2.227-0.356-3.336-0.578
	c-0.236-0.046-0.455-0.182-0.683-0.28c-0.327-0.145-0.67-0.145-0.996-0.032c-0.486,0.161-0.966,0.359-1.443,0.548
	c-0.493,0.197-0.866,0.555-1.147,0.996c-0.371,0.585-0.722,1.177-1.108,1.814c-0.198,0.16-0.433-0.432-0.706-0.022
	c0.182,0.245,0.575,0.366,0.501,0.82c-0.401-0.029-0.752-0.19-1.071-0.393c-0.427-0.283-0.82-0.618-1.215-0.943
	c-0.084-0.069-0.114-0.206-0.159-0.312c0.091-0.008,0.188-0.008,0.334-0.023c-0.138-0.372-0.41-0.6-0.723-0.577
	c-0.652,0.039-1.049-0.363-1.488-0.714c-0.068-0.053-0.13-0.121-0.197-0.183c-0.57-0.538-1.208-0.646-1.944-0.318
	c-0.995,0.439-1.922,0.995-2.734,1.73c-0.198,0.176-0.364,0.441-0.723,0.336c-0.083-0.022-0.22,0.151-0.327,0.236
	c-0.394,0.287-0.547,0.317-1.009-0.032c-0.729-0.54-1.102-1.335-1.634-2.013c-0.251-0.318-0.365-0.775-0.447-1.185
	c-0.168-0.828-0.662-1.442-1.201-2.036c-0.122-0.138-0.312-0.259-0.493-0.287c-1.072-0.214-2.083,0.022-3.039,0.5
	c-0.189,0.091-0.373,0.212-0.555,0.319c-0.57,0.296-1.041,0.054-1.048-0.592c-0.023-1.209-0.053-2.409,0.312-3.593
	c0.174-0.57,0.22-1.194,0.251-1.786c0.021-0.538-0.167-1.042-0.57-1.442c-0.19-0.184-0.365-0.388-0.517-0.608
	c-0.418-0.616-1.002-0.645-1.656-0.522c-0.485,0.082-0.979,0.142-1.473,0.181c-0.714,0.053-1.397,0.228-2.021,0.6
	c-0.585,0.343-1.2,0.502-1.884,0.426c-0.228-0.031-0.455-0.007-0.737-0.007c-0.022-0.699,0.106-1.36,0.296-2.021
	c0.19-0.646,0.388-1.284,0.562-1.931c0.076-0.304,0.016-0.562-0.235-0.82c-0.243-0.259-0.433-0.608-0.539-0.949
	c-0.16-0.545-0.464-0.82-1.01-0.958c-0.654-0.158-1.277-0.433-1.93-0.605c-0.41-0.107-0.835-0.123-1.26-0.168
	c-0.327-0.038-0.662-0.069-1.003-0.098c-0.099-0.646-0.008-1.239,0.19-1.809c0.228-0.678,0.479-1.337,0.76-1.99
	c0.295-0.685,0.653-1.339,0.972-2.014c0.341-0.743,0.373-1.467,0.061-2.264c-0.198-0.487-0.494-0.896-0.745-1.33
	c-0.114-0.211-0.403-0.334-0.631-0.464c-0.417-0.249-0.471-0.333-0.212-0.743c0.229-0.38,0.501-0.745,0.82-1.042
	c0.684-0.645,1.391-1.268,2.119-1.86c0.373-0.296,0.806-0.509,1.224-0.738c0.752-0.425,1.64-1.45,1.238-2.544
	c-0.084-0.235,0.022-0.501-0.175-0.752c-0.267-0.312-0.608-0.41-0.95-0.554c-0.259-0.105-0.608-0.137-0.654-0.471
	c-0.053-0.349,0.266-0.501,0.501-0.691c0.707-0.562,1.535-0.797,2.394-0.965c0.684-0.128,1.269-0.47,1.748-0.957
	c0.326-0.334,0.288-0.791,0.272-1.216c-0.015-0.63-0.098-1.26-0.128-1.899c-0.023-0.516,0.007-0.547,0.516-0.577
	c0.798-0.045,1.595-0.054,2.394-0.129c0.44-0.045,0.881-0.16,1.291-0.304c0.63-0.228,0.987-0.715,1.154-1.359
	c0.35-1.368,0.449-2.766,0.441-4.178c0-0.456,0.053-0.92,0.128-1.375c0.046-0.259,0.144-0.524,0.273-0.744
	c0.214-0.343,0.501-0.548,0.95-0.578c0.592-0.045,1.139-0.015,1.655,0.274c0.54,0.296,1.141,0.265,1.726,0.28
	c0.372,0.017,0.743-0.029,1.116-0.06c0.827-0.068,1.489-0.395,1.906-1.155c0.266-0.502,0.518-1.018,0.851-1.473
	c0.342-0.473,0.737-0.92,1.177-1.292c0.427-0.364,0.935-0.639,1.421-0.926c0.357-0.222,0.478-0.198,0.806,0.083
	c0.479,0.425,0.95,0.851,1.436,1.268c0.121,0.108,0.258,0.213,0.402,0.251c0.913,0.205,1.808,0.349,2.727-0.015
	c0.769-0.304,1.437-0.737,2.052-1.284c0.531-0.463,1.162-0.805,1.747-1.208c0.069-0.046,0.166-0.068,0.22-0.129
	c0.235-0.25,0.51-0.312,0.844-0.183c0.243-0.349,0.54-0.509,0.957-0.334c0.084,0.031,0.213-0.076,0.388-0.145
	c0.601,0.25,1.041,0.691,1.192,1.466c0.182,0.904,0.669,1.702,1.307,2.347c0.365,0.365,0.705,0.73,0.995,1.155
	c0.075,0.114,0.19,0.197,0.296,0.289c0.244,0.212,0.532,0.273,0.844,0.265c0.781-0.021,1.541-0.15,2.295-0.386
	c0.689-0.22,1.412-0.342,2.118-0.509c0.213-0.046,0.418-0.091,0.622-0.144c0.334-0.083,0.661-0.114,1.042-0.053
	c0,0.16,0.029,0.304-0.008,0.426c-0.189,0.675-0.115,1.359,0.03,2.012c0.113,0.486,0.402,0.941,0.631,1.398
	c0.053,0.099,0.175,0.182,0.281,0.235c0.805,0.433,1.656,0.768,2.566,0.806c0.602,0.031,1.146,0.189,1.701,0.38
	c0.547,0.189,1.087,0.417,1.664,0.637c-0.008,0.29-0.151,0.524-0.274,0.774c-0.174,0.389-0.364,0.775-0.478,1.186
	c-0.212,0.774,0.137,1.397,0.691,1.892c0.653,0.584,1.382,1.04,2.196,1.397c0.386,0.168,0.735,0.433,1.062,0.706
	c0.168,0.145,0.252,0.403,0.408,0.669c0.108,0.053,0.321,0.113,0.466,0.251c0.523,0.463,0.523,1.124,0.075,1.709
	c-0.257,0.334-0.486,0.699-0.661,1.079c-0.342,0.736-0.205,1.458,0.175,2.15c0.388,0.713,0.935,1.291,1.542,1.814
	c0.38,0.328,0.623,0.715,0.837,1.147c0.113,0.221,0.234,0.456,0.41,0.614c0.539,0.495,0.606,1.194,0.851,1.816
	c0.06,0.175-0.047,0.319-0.213,0.388c-0.228,0.082-0.373,0.205-0.418,0.478c-0.053,0.313-0.198,0.35-0.683,0.319
	c-0.086,0.35-0.153,0.691-0.252,1.019c-0.099,0.35-0.273,0.631-0.683,0.524c-0.275,0.266-0.169,0.562-0.198,0.843
	c-0.106,1.162,0.584,1.853,1.642,2.415c0.037,0.023,0.076,0.023,0.104,0.039c0.389,0.182,0.44,0.502,0.092,0.722
	c-0.418,0.265-0.875,0.492-1.33,0.676c-0.744,0.304-1.435,0.69-2.064,1.192c-0.069,0.054-0.123,0.13-0.199,0.175
	c-0.721,0.471-0.76,1.177-0.6,1.898c0.168,0.76,0.585,1.377,1.209,1.885c0.524,0.439,0.963,0.987,1.428,1.504
	c0.076,0.084,0.098,0.22,0.174,0.396c-0.228,0.144-0.439,0.273-0.652,0.408c-0.092,0.062-0.176,0.123-0.266,0.184
	c-0.473,0.305-0.845,0.729-1.315,1.041c-0.349,0.234-0.705,0.448-1.094,0.508C114.819,74.549,114.081,74.961,113.368,75.417
	 M118.982,81.379c-0.19,0.122-0.327,0.327-0.517,0.454c-0.152,0.107-0.349,0.153-0.594,0.251c0.009-0.157,0-0.258,0.03-0.333
	c0.04-0.083,0.131-0.152,0.175-0.243c0.069-0.129,0.236-0.289,0.062-0.426c-0.099-0.075-0.281-0.045-0.433-0.069
	c-0.099,0.868-0.288,1.634-0.804,2.304c-0.465,0.592-0.693,1.374-1.537,1.686c0.145,0.137,0.244,0.221,0.365,0.327
	c-0.067,0.038-0.113,0.076-0.159,0.076c-0.198,0.008-0.343-0.093-0.417-0.273c-0.115-0.296-0.244-0.593-0.313-0.897
	c-0.035-0.174,0.023-0.379,0.078-0.555c0.105-0.318,0.273-0.622,0.363-0.941c0.054-0.197,0.054-0.425,0.015-0.63
	c-0.098-0.464-0.279-0.92-0.349-1.39c-0.137-0.889-0.395-1.733-0.722-2.562c-0.015-0.037,0.008-0.098,0.023-0.183
	c0.509-0.213,1.024-0.425,1.535-0.646c0.796-0.34,1.594-0.683,2.392-1.039c0.388-0.175,0.464-0.129,0.523,0.303
	c0.038,0.243,0.129,0.487,0.213,0.812c-0.023,0.053-0.061,0.13-0.106,0.215c-0.044,0.09-0.099,0.189-0.144,0.296
	c-0.137,0.296-0.296,0.531-0.684,0.402c-0.037-0.009-0.099,0.037-0.151,0.061c0,0.053-0.031,0.128,0,0.151
	c0.409,0.425,0.151,0.858,0.037,1.292c-0.068,0.251-0.144,0.508-0.213,0.752c0.449,0.212,0.631,0.128,0.601-0.288
	c-0.022-0.245-0.008-0.434,0.166-0.623c0.068-0.078,0.068-0.236,0.068-0.35c0.009-0.122-0.029-0.252-0.021-0.374
	c0-0.341,0.068-0.401,0.395-0.433c0.105-0.006,0.212,0,0.356,0c0.023,0.13,0.061,0.267,0.069,0.404
	c0.03,0.561,0.074,1.13,0.091,1.692C119.385,80.923,119.271,81.188,118.982,81.379 M120.919,69.97
	c-0.204-0.205-0.539-0.259-0.608-0.609c-0.015-0.052-0.129-0.082-0.182-0.135c-0.272-0.252-0.547-0.495-0.805-0.752
	c-0.138-0.153-0.084-0.306,0.084-0.402c0.265-0.136,0.531-0.267,0.844-0.41c0.067,0.136,0.112,0.234,0.181,0.363
	c0.213-0.014,0.434-0.021,0.715-0.038c0.061,0.532,0.135,1.02,0.167,1.513C121.329,69.726,121.162,69.88,120.919,69.97"/>
<path fill="#00ADDB" d="M68.816,42.638c-0.66,0.023-1.313,0.046-1.975,0.068c-0.03-0.373-0.053-0.401,0.236-0.554
	c0.456-0.236,0.926-0.441,1.405-0.615c0.069-0.031,0.137-0.054,0.205-0.084C68.733,41.849,68.779,42.244,68.816,42.638"/>
<path fill="#00ADDB" d="M68.528,31.942c-0.007,0.472-0.015,0.942-0.046,1.421c-0.015,0.296-0.091,0.654-0.122,1.003
	c-0.061-0.076-0.114-0.16-0.183-0.234c-0.41-0.525-0.364-1.05-0.021-1.581C68.277,32.346,68.399,32.148,68.528,31.942"/>
<path fill="#00ADDB" d="M64.153,47.196c-0.251,0.122-0.426,0.212-0.593,0.296c-0.752,0.388-1.359,0.964-2.043,1.436
	c-0.675,0.479-1.017,1.413-1.056,2.264c-0.356,0.114-0.767,0.357-1.01,0.487c-0.54,0.289-1.01,0.652-1.466,1.048h-0.007
	c-0.008-0.009-0.023-0.009-0.031-0.009c-0.327,0.244-0.676,0.501-1.063,0.784c-0.266-0.745-0.175-1.413-0.061-2.089
	c0.266-0.083,0.501-0.189,0.745-0.213c0.259-0.03,0.418-0.167,0.578-0.341c0.676-0.722,1.2-1.542,1.481-2.492
	c0.197-0.668,0.714-0.934,1.292-1.056c0.957-0.19,1.937-0.212,2.917-0.204C63.917,47.106,64.001,47.151,64.153,47.196"/>
</svg>
