<?xml version="1.0" encoding="utf-8"?>
<!-- Generator: Adobe Illustrator 15.1.0, SVG Export Plug-In . SVG Version: 6.00 Build 0)  -->
<!DOCTYPE svg PUBLIC "-//W3C//DTD SVG 1.1//EN" "http://www.w3.org/Graphics/SVG/1.1/DTD/svg11.dtd">
<svg version="1.1" id="Layer_1" xmlns="http://www.w3.org/2000/svg" xmlns:xlink="http://www.w3.org/1999/xlink" x="0px" y="0px"
	 width="150px" height="114px" viewBox="0 0 150 114" enable-background="new 0 0 150 114" xml:space="preserve">
<path fill="#231F20" d="M135.085,51.548c-3.953-0.233-7.92-0.239-11.881-0.304c-0.892-0.015-1.789,0.188-2.68,0.176
	c-2.876-0.042-5.752-0.135-8.626-0.214c-0.472-0.014-0.96,0.017-1.405-0.106c-0.256-0.07-0.439-0.406-0.656-0.623
	c0.218-0.205,0.403-0.481,0.66-0.594c0.24-0.107,0.556-0.044,0.838-0.052c3.624-0.101,7.248-0.179,10.87-0.315
	c0.968-0.036,1.78,0.013,2.077,1.135c0.021,0.083,0.229,0.117,0.392,0.193c0.645-0.514,0.574-1.163,0.331-1.785
	c-0.232-0.597-0.803-0.776-1.391-0.809c-0.589-0.033-1.18-0.006-1.746-0.006c-0.081-0.248-0.13-0.379-0.168-0.513
	c-0.387-1.354-0.429-1.433-1.833-1.433c-1.973-0.002-3.946,0.05-5.917,0.126c-1.079,0.042-1.329,0.352-1.43,1.498
	c-0.015,0.179-0.052,0.354-0.097,0.643c-0.869,0.049-1.712,0.058-2.544,0.153c-1.08,0.121-1.267,0.384-1.23,1.434
	c0.009,0.265-0.049,0.532-0.073,0.773c-1.247,0.29-5.044,0.294-6.007-0.023c3.227-1.665,5.438-4.287,7.483-7.056
	c2.594-3.511,4.508-7.409,6.26-11.388c0.341-0.777,0.184-1.072-0.684-1.339c-0.697-0.213-1.414-0.361-2.153-0.546
	c0.259-0.824,0.541-1.479,0.664-2.163c0.487-2.734,0.934-5.475,1.378-8.217c0.075-0.463,0.103-0.94,0.092-1.409
	c-0.029-1.098-0.436-1.554-1.497-1.683c-0.312-0.037-0.637,0.028-0.796,0.038c-0.512-0.484-0.856-1.006-1.337-1.216
	c-0.659-0.287-1.42-0.335-2.298-0.52c0-0.892,0.051-1.826-0.013-2.754c-0.071-1.077-0.193-2.156-0.384-3.218
	c-0.147-0.831-0.864-1.043-1.591-1.182c-0.701-0.134-1.2,0.175-1.552,0.736c-0.58,0.925-1.084,1.881-1.065,3.027
	c0.005,0.342-0.07,0.685-0.143,1.323c-0.336-0.72-0.504-1.157-0.736-1.556c-0.236-0.406-0.488-0.82-0.812-1.154
	c-1.117-1.145-2.526-0.781-2.884,0.767c-0.124,0.53-0.082,1.126,0.003,1.674c0.314,2.003,0.68,4,1.023,5.999
	c0.418,2.429,0.418,2.429-1.64,3.754c-0.033,0.02-0.091,0.001-0.269,0.001c-1.254-1.617-1.725-3.604-1.771-5.614
	c-0.061-2.715-0.397-5.36-1.318-7.897c-0.783-2.162-2.002-4.128-3.99-5.362c-1.383-0.857-2.944-1.458-4.479-2.028
	c-2.438-0.905-4.927-0.941-7.296,0.221c-1.517,0.745-3.004,1.597-4.376,2.579c-0.988,0.707-1.732,0.811-2.789,0.152
	c-1.026-0.64-2.185-1.25-3.356-1.438c-2.858-0.462-5.514,0.219-7.875,1.981c-1.539,1.148-2.743,2.531-3.703,4.209
	c-1.147,2.006-1.706,4.068-1.337,6.366c0.062,0.385,0.008,0.787,0.008,1.361c-3.161-1.037-5.173,0.375-6.471,2.82
	c-1.254,2.362-1.306,4.742,1.142,6.559c-0.092,0.251-0.116,0.455-0.224,0.592c-0.999,1.263-1.393,2.775-1.753,4.292
	c-0.954,4.013,1.542,7.458,5.501,8.292c0.301,0.063,0.599,0.15,0.909,0.229c-0.038,0.241-0.02,0.398-0.086,0.508
	c-1.407,2.386-2.24,4.98-2.74,7.685c-0.197,1.061-0.269,2.146-0.39,3.219c-0.049,0.434-0.088,0.941-0.61,0.99
	c-1.096,0.101-2.203,0.276-3.25,0.158c-0.105-1.771-0.199-3.365-0.295-4.961c-0.036-0.626,0.221-0.989,0.879-1.019
	c0.235-0.011,0.474-0.028,0.703-0.08c0.891-0.198,1.365-0.793,1.341-1.719c-0.03-1.178-0.06-2.358-0.144-3.533
	c-0.124-1.737-0.766-2.247-2.475-2.042c-0.094,0.012-0.187,0.035-0.28,0.042c-1.973,0.155-3.944,0.327-5.917,0.46
	c-3.198,0.215-6.4,0.392-9.597,0.611c-1.174,0.081-2.352,0.183-3.513,0.368c-1.334,0.211-1.544,0.549-1.514,1.881
	c0.017,0.752,0.006,1.51-0.059,2.26c-0.08,0.917-0.611,1.432-1.539,1.565c-0.792,0.112-1.576,0.287-2.367,0.415
	c-0.708,0.115-1.102,0.483-1.094,1.229c0.013,1.39,0.007,2.779,0.046,4.169c-0.016,0.037-0.025,0.079-0.022,0.129
	c0.014,0.292,0.046,0.583,0.069,0.875c0.001,0.227,0.015,0.453,0.05,0.68c-0.09,0.003-0.179,0.007-0.269,0.01
	c-1.364,0.062-2.728,0.177-4.091,0.271c-1.457,0.101-2.912,0.233-4.37,0.292c-0.868,0.036-1.673,0.181-2.373,0.7
	c-0.023,0.177-0.101,0.34-0.053,0.449c0.741,1.664,0.579,3.44,0.512,5.159c-0.091,2.308,0.706,2.771,2.788,3.017
	c0.328,0.037,0.66,0.039,0.99,0.041c0.795,0.006,1.59,0.002,2.656,0.002c0.312,2.881,0.773,5.68,0.886,8.489
	c0.213,5.321,0.206,10.653,0.327,15.979c0.069,3.062,0.199,6.125,0.324,9.184c0.031,0.753,0.21,1.501,0.218,2.25
	c0.034,2.926,0.019,5.85,0.039,8.775c0.01,1.557,0.163,1.683,1.657,1.821c4.078,0.381,8.159,0.693,12.257,0.817
	c2.541,0.077,5.076,0.492,7.616,0.504c5.512,0.023,11.025-0.145,16.537-0.182c5.663-0.036,11.328,0,16.991-0.018
	c1.792-0.006,3.588-0.024,5.375-0.146c2.539-0.17,5.075-0.654,7.608-0.624c5.754,0.071,11.475-0.741,17.236-0.438
	c6.413,0.336,12.825-0.102,19.237-0.239c1.162-0.025,1.98-0.792,2.969-1.188c0.219-0.089,0.376-0.545,0.41-0.848
	c0.229-2.013,0.449-4.029,0.606-6.049c0.093-1.175,0.018-2.362,0.099-3.538c0.228-3.338,0.653-6.669,0.711-10.01
	c0.071-4.118,0.66-8.178,1.008-12.264c0.116-1.36,0.297-2.716,0.39-4.079c0.175-2.58,0.728-5.142,0.417-7.75
	c-0.028-0.234-0.015-0.472-0.015-0.707c-0.001-1.642,0.043-1.688,1.632-1.721c0.474-0.012,0.947,0.006,1.417-0.037
	c1.021-0.097,1.494-0.512,1.766-1.527c0.097-0.365,0.19-0.738,0.218-1.112c0.111-1.645,0.25-3.292,0.284-4.94
	C137.708,51.711,137.493,51.689,135.085,51.548 M114.511,47.534c1.723-0.078,3.449-0.308,5.17-0.008
	c0.311,0.054,0.599,0.239,0.896,0.363c-0.04,0.149-0.078,0.297-0.117,0.447c-0.631,0.048-1.263,0.116-1.896,0.142
	c-1.349,0.053-2.697,0.109-4.047,0.104c-0.26-0.002-0.7-0.244-0.74-0.438C113.675,47.65,114.128,47.551,114.511,47.534
	 M112.645,20.36c0.047-0.358,0.235-0.714,0.427-1.032c0.216-0.358,0.528-0.801,0.987-0.5c0.219,0.143,0.338,0.665,0.274,0.968
	c-0.316,1.561-0.695,3.11-1.081,4.656c-0.097,0.392-0.298,0.758-0.45,1.137c-0.127-0.004-0.253-0.008-0.38-0.012
	c-0.074-0.396-0.236-0.798-0.207-1.186C112.317,23.045,112.465,21.7,112.645,20.36 M110.018,17.351
	c0.252-0.203,0.682-0.307,1.01-0.267c0.447,0.054,0.589,0.466,0.584,1.582c-0.052,0.211-0.115,0.732-0.311,1.199
	c-0.108,0.258-0.438,0.598-0.661,0.592c-0.316-0.008-0.72-0.228-0.92-0.485C109.26,19.382,109.437,17.82,110.018,17.351
	 M110.722,24.522c-0.233,0.435-0.398,0.936-0.729,1.277c-0.176,0.183-0.763,0.236-0.944,0.085c-0.393-0.327-0.251-0.78,0.173-1.044
	c0.384-0.239,0.81-0.406,1.218-0.604C110.533,24.331,110.627,24.426,110.722,24.522 M106.244,14.924l0.039-0.001
	c0-1.08-0.017-2.161,0.008-3.241c0.008-0.321,0.11-0.649,0.211-0.96c0.135-0.411,0.344-0.889,0.85-0.736
	c0.252,0.075,0.491,0.511,0.563,0.825c0.592,2.555,0.371,5.14,0.196,7.719c-0.024,0.369-0.122,0.753-0.274,1.089
	c-0.103,0.222-0.36,0.507-0.561,0.515c-0.197,0.009-0.533-0.259-0.59-0.466c-0.198-0.72-0.364-1.462-0.426-2.205
	C106.189,16.623,106.244,15.771,106.244,14.924 M101.824,11.699c1.193,0.992,2.944,5.711,3.277,8.754
	c-0.557,0.199-1.147,0.408-1.723,0.612C102.643,19.557,101.524,12.874,101.824,11.699 M101.224,24.082
	c0.563-0.549,1.217-1.082,1.93-1.382c1.843-0.776,3.838-0.764,5.798-0.877c0.462-0.027,0.96,0.052,1.108,0.802
	c-1.25,1.269-3.206,0.635-4.757,1.547c0.244,0.349,0.385,0.773,0.662,0.901c0.697,0.324,1.032,0.821,1.312,1.527
	c0.493,1.252,1.63,1.539,2.933,0.849c0.409-0.217,0.763-0.63,1.267-0.271c0.472,0.335,1.219,0.416,1.208,1.223
	c-0.007,0.644-0.756,1.584-1.452,1.75c-0.405,0.096-0.842,0.11-1.261,0.09c-2.104-0.105-4.204-0.233-6.4-0.358
	c-0.491-1.181-1.183-2.307-2.285-3.199C100.404,25.97,100.416,24.869,101.224,24.082 M95.642,18.776
	c0.188-1.915,0.387-3.83,0.581-5.744c0.055-0.006,0.109-0.013,0.163-0.02c0.14,1.35,0.403,2.701,0.391,4.049
	c-0.021,2.458,0.71,4.634,2.049,6.652c0.671,1.012,0.73,1.309,0.7,2.788c-2.041,1.14-2.31,1.059-2.79-1.18
	c-0.425-1.979-0.719-3.987-1.063-5.983C95.642,19.155,95.623,18.961,95.642,18.776 M76.821,5.854
	c1.554-1.58,3.409-2.666,5.597-3.105c2.392-0.48,4.667-0.058,6.898,0.887c1.781,0.755,3.155,1.835,4.329,3.443
	c1.193,1.637,1.672,3.285,1.554,5.223c-0.118,1.927-0.333,3.863-0.264,5.786c0.117,3.192,0.069,6.43,1.332,9.466
	c0.291,0.701-0.185,1.034-0.576,1.439c-1.294,1.342-1.46,2.819-0.518,4.351c0.465,0.755,1.091,1.093,2.007,1.017
	c1.182-0.098,2.206-0.476,3.019-1.348c0.734-0.789,0.791-1.455,0.167-2.474c-0.219,0.267-0.429,0.484-0.592,0.731
	c-0.205,0.312-0.326,0.687-0.564,0.966c-0.614,0.726-1.852,1.005-2.421,0.595c-0.615-0.441-0.861-2.001-0.434-2.749
	c0.656-1.145,2.624-2.021,3.923-1.772c0.684,0.131,1.038,0.606,1.316,1.171c0.714,1.453,0.12,4.494-1.103,5.697
	c-1.071,1.053-3.312,1.282-4.933,0.617c-2.297-0.939-3.062-2.815-3.178-5.064c-0.09-1.737,0.079-3.492-0.086-5.216
	c-0.3-3.153-0.879-6.255-2.364-9.117c-0.854-1.647-1.892-3.103-3.316-4.343c-1.783-1.551-3.843-2.106-6.101-2.241
	c-0.625-0.037-1.302,0.119-1.967-0.466c1.025-1.047,2.197-1.646,3.444-1.992c2.472-0.686,4.859-0.426,7.031,1.047
	c0.739,0.502,1.437,1.065,2.188,1.547c0.234,0.151,0.583,0.125,0.879,0.179c0.039-0.349,0.224-0.775,0.086-1.027
	c-0.238-0.438-0.652-0.792-1.031-1.141c-2.81-2.581-6.948-3.277-10.372-1.568c-0.801,0.4-1.565,0.87-2.354,1.295
	C77.642,8.104,77.295,8,76.702,7.354C76.175,6.779,76.42,6.262,76.821,5.854 M84.525,29.628c-1.896,0.125-3.571-1.625-3.291-3.589
	c0.155-1.085,0.633-2.167,1.17-3.14c0.325-0.593,0.832-1.016,1.464-1.25c0.393-0.146,0.864-0.248,1.377-0.301
	c1.679-0.175,3.769,0.17,4.75,1.214c0.479,0.511,0.454,1.396,0.552,2.043c0.234,1.54-0.591,3.187-1.957,3.931
	C87.322,29.229,85.94,29.534,84.525,29.628 M83.24,35.038c-1.194,0.646-2.482-0.118-2.427-1.475
	c0.012-0.277,0.214-0.687,0.438-0.789c1.095-0.491,2.227-0.898,3.484-1.39C84.937,33.014,84.254,34.491,83.24,35.038 M89.81,21.013
	c-3.223-1.966-6.956-1.077-8.947,2.139c-0.623,1.006-0.623,1.006-1.846,1.291c-0.09-0.39-0.191-0.777-0.271-1.171
	c-0.294-1.494-1.068-2.597-2.53-3.158c-0.704-0.271-1.381-0.631-2.104-0.833c-0.569-0.157-1.191-0.214-1.781-0.175
	c-2.224,0.148-3.653,1.358-4.385,3.436c-0.062,0.178-0.147,0.347-0.228,0.518c-0.017,0.038-0.06,0.065-0.255,0.268
	c-0.074-2.459,0.462-4.603,1.399-6.628c0.65-1.406,1.716-2.503,3.219-3.035c1.554-0.549,3.142-1.005,4.703-1.533
	c0.938-0.316,1.853-0.7,2.875-0.562c1.443,0.194,2.93,0.238,4.314,0.633c0.951,0.271,1.84,0.94,2.621,1.594
	c2.234,1.875,3.239,4.407,3.746,7.302C90.06,21.057,89.91,21.075,89.81,21.013 M75.583,27.945c-0.976,0.714-2.157,0.913-3.296,0.868
	c-0.304,0-0.541,0.008-0.776-0.002c-2.052-0.084-3.411-1.312-3.013-3.948c0.065-0.417,0.195-0.826,0.31-1.233
	c0.338-1.202,0.742-2.571,2.036-2.846c1.613-0.342,3.392-0.605,4.783,0.822c0.491,0.502,1.106,0.924,1.461,1.508
	C78.161,24.877,77.47,26.565,75.583,27.945 M74.754,29.925c0.602,1.519,0.725,1.626,2.305,1.457
	c0.743-0.079,1.474-0.297,2.197-0.501c0.405-0.114,0.393-0.159,0.796-0.963c-1.115-0.731-2.275,0.314-3.617-0.088
	c1.203-1.385,1.509-3.215,3.083-4.515c0.737,1.992,0.724,4.088,2.68,5.263c-1.32,0.852-2.917,0.605-3.915,1.581
	c0.629,1.126,1.163,2.157,1.763,3.147c1.054,1.742,2.728,2.085,4.276,0.773c1.524-1.293,2.672-2.83,1.986-5.073
	c1.43-0.684,2.811-1.345,4.418-2.115c-1.674,2.915-2.795,5.887-5.054,8.155c-2.562,2.575-8.104,3.724-11.507,0.718
	c-1.446-1.275-2.625-2.687-3.582-4.324c-0.709-1.214-1.407-2.436-2.099-3.661c-0.133-0.234-0.216-0.499-0.272-0.835
	C70.2,30.756,72.524,30.196,74.754,29.925 M59.776,10.453c0.579-1.984,1.775-3.393,3.427-4.501c1.25-0.837,2.672-0.972,4.073-1.179
	c0.05,0.096,0.098,0.191,0.147,0.287c-0.919,1.04-1.937,2.011-2.73,3.139c-0.806,1.147-1.544,2.394-2.029,3.701
	c-0.484,1.309-0.73,2.736-0.88,4.131c-0.145,1.354-0.304,2.773,0.392,4.109c0.856-0.231,0.703-0.806,0.731-1.294
	c0.097-1.643,0.057-3.309,0.328-4.923c0.416-2.467,1.567-4.629,3.315-6.447c1.075-1.119,2.365-1.687,3.939-1.54
	c0.423,0.04,0.849,0.053,1.273,0.047c0.664-0.01,1.154,0.277,1.701,0.931c-4.307,1.342-7.402,3.897-8.761,8.174
	c-0.32,1.011-0.724,2.142-0.101,3.294c0.866-0.224,0.815-0.891,0.858-1.471c0.101-1.338,0.436-2.59,1.145-3.749
	c1.53-2.496,3.711-4.114,6.523-4.857c1.802-0.477,3.112,0.203,3.903,1.977c-1.026,0.676-2.216,0.981-3.38,1.257
	c-2.305,0.544-4.11,1.837-5.679,3.524c-1.157,1.242-1.379,2.881-1.676,4.438c-0.245,1.286-0.272,2.624-0.299,3.941
	c-0.043,2.114,0.089,4.236-0.052,6.341c-0.055,0.828-0.464,1.795-1.034,2.392c-1.096,1.148-2.384,2.062-4.047,2.433
	c-2.362,0.526-4.912-0.76-5.552-3.523c-0.639-2.757,0.149-4.968,2.413-6.368c1.377-0.851,2.268-0.484,2.519,1.091
	c0.094,0.596,0.107,1.23,0.014,1.825c-0.118,0.764-0.649,1.081-1.312,0.928c-0.653-0.15-0.77-0.422-0.574-1.484
	c0.328,0.074,0.652,0.147,1.03,0.233c0.063-0.716-0.186-1.188-0.814-1.351c-0.583-0.149-0.984,0.222-1.295,0.667
	c-0.624,0.895-0.479,2.347,0.287,2.982c0.822,0.681,1.955,0.622,2.849-0.147c0.943-0.812,1.208-1.898,1.156-3.065
	c-0.029-0.654-0.161-1.316-0.346-1.946c-0.594-2.035-1.22-4.061-1.857-6.083C58.532,15.677,59.007,13.083,59.776,10.453
	 M56.232,35.637c-1.735,0.17-2.288-0.397-2.28-2.194C54.926,33.926,55.596,34.626,56.232,35.637 M51.393,23.22
	c-0.3-1.816,1.332-4.12,3.136-4.444c0.275-0.05,0.593-0.121,0.836-0.032c0.506,0.183,1.152,0.347,1.42,0.738
	c0.393,0.577,0.135,1.294-0.333,1.815c-0.274,0.307-0.635,0.557-1,0.754c-0.452,0.245-0.924,0.223-1.276-0.213
	c-0.363-0.447-0.417-0.946-0.09-1.436c0.197-0.295,0.443-0.556,0.677-0.842c-0.496-0.461-0.852-0.225-1.187,0.043
	c-1.024,0.824-1.227,2.745-0.341,3.717c0.222,0.244,0.646,0.393,0.99,0.423c1.599,0.14,2.819-0.583,3.78-1.802
	c0.228-0.289,0.395-0.623,0.746-1.186c0.242,0.812,0.419,1.405,0.58,1.942c-1.204,0.73-2.293,1.445-3.435,2.064
	c-1.069,0.581-2.185,0.84-3.353,0.149C51.872,24.513,51.514,23.948,51.393,23.22 M55.646,38.297
	c-3.044-0.689-5.312-3.536-4.473-6.741c0.26-1,0.575-1.994,0.975-2.943c0.315-0.746,0.489-0.762,1.558-0.692
	c-0.117,1.623-0.207,3.251-0.363,4.873c-0.082,0.859-0.166,1.679,0.396,2.435c0.759,1.024,1.583,1.333,2.823,0.993
	c1.104-0.302,1.125-0.3,2.372,0.297C58.271,37.841,56.946,38.591,55.646,38.297 M29.805,42.847c0.022-0.654,0.493-0.824,1.075-0.87
	c3.612-0.284,7.223-0.6,10.838-0.871c1.078-0.081,2.166-0.028,3.247-0.085c1.506-0.08,3.009-0.215,4.515-0.304
	c0.91-0.053,1.12,0.105,1.172,0.988c0.051,0.893,0.02,1.793,0.002,2.689c-0.013,0.607-0.356,0.956-0.949,1.047
	c-0.326,0.05-0.656,0.085-0.985,0.097c-0.471,0.018-0.945,0.033-1.416,0.009c-4.166-0.219-8.284,0.379-12.417,0.72
	c-0.281,0.023-0.569,0.067-0.847,0.037c-1.382-0.149-2.762-0.32-4.245-0.495C29.795,44.896,29.77,43.871,29.805,42.847
	 M25.784,48.046c2.503-0.419,5.011-0.946,7.571-0.396c0.274,0.059,0.566,0.088,0.843,0.063c2.3-0.216,4.594-0.505,6.897-0.656
	c1.834-0.121,3.679-0.117,5.518-0.094c0.934,0.012,1.174,0.289,1.26,1.188c0.098,1.033,0.187,2.068,0.203,3.104
	c0.021,1.344-0.199,1.561-1.546,1.597c-2.922,0.079-5.83,0.226-8.75,0.496c-4.366,0.404-8.764,0.461-13.154,0.63
	c-0.035-0.431-0.051-0.861-0.04-1.294v-0.001c0.002-0.026,0.01-0.051,0.011-0.078c0.029-0.99,0.026-1.983-0.027-2.972
	C24.504,48.406,24.522,48.257,25.784,48.046 M17.071,62.762c-0.612,0.034-1.227,0.091-1.838,0.063
	c-1.118-0.05-1.307-0.255-1.354-1.352c-0.023-0.518,0.026-1.041-0.022-1.557c-0.105-1.118-0.257-2.232-0.377-3.351
	c-0.029-0.27-0.004-0.544-0.004-0.883c0.358-0.078,0.668-0.189,0.982-0.206c4-0.206,8-0.412,12.001-0.59
	c2.636-0.118,5.275-0.161,7.91-0.294c1.739-0.091,3.474-0.286,5.21-0.437c0.188-0.017,0.374-0.063,0.562-0.066
	c6.604-0.1,13.206-0.195,19.81-0.285c0.176-0.002,0.353,0.068,0.625,0.124c-0.671,1.287-0.618,2.572-0.394,3.893
	c0.083,0.493-0.025,1.024-0.094,1.532c-0.13,0.964-0.606,1.515-1.677,1.517c-0.6,0.004-1.195,0.257-1.798,0.364
	c-0.881,0.157-1.764,0.371-2.651,0.408c-3.062,0.127-6.127,0.224-9.191,0.27c-3.492,0.055-6.984,0.025-10.477,0.062
	c-1.365,0.014-2.729,0.125-4.093,0.17c-1.65,0.054-3.303,0.05-4.953,0.131C22.521,62.412,19.797,62.6,17.071,62.762 M61.439,108.448
	c-0.005,0.372-0.054,0.751-0.131,1.12c-0.11,0.518-0.444,0.822-0.992,0.836c-1.268,0.033-2.534,0.065-3.801,0.087
	c-1.791,0.031-3.58,0.05-5.369,0.075c-1.791,0.027-3.583,0.056-5.375,0.081c-3.303,0.045-6.601,0.043-9.881-0.456
	c-0.788-0.119-1.601-0.06-2.402-0.091c-3.015-0.117-6.032-0.188-9.041-0.376c-2.02-0.128-2.024-0.201-2.034-2.187
	c-0.011-2.312,0.022-4.623-0.021-6.936c-0.021-1.176-0.221-2.346-0.255-3.522c-0.137-4.522-0.242-9.048-0.351-13.571
	c-0.1-4.194-0.14-8.393-0.312-12.584c-0.065-1.593-0.406-3.177-0.649-4.763c-0.389-2.537-0.2-2.727,2.387-2.764
	c3.771-0.054,7.541-0.202,11.312-0.251c4.104-0.054,8.208-0.008,12.311-0.067c2.307-0.033,4.612-0.189,7.092-0.296
	c-0.077,0.402-0.119,0.618-0.202,1.051c1.829-0.276,3.618,0.053,5.39-0.35c-1.027-0.618-2.173-0.228-3.432-0.544
	c1.667-0.308,3.151-0.582,4.766-0.879c0.376,0.78,0.19,1.736,0.222,2.64c0.107,3.098,0.174,6.195,0.192,9.294
	c0.009,1.458-0.188,2.918-0.18,4.376c0.008,1.504,0.159,3.009,0.235,4.514c0.092,1.83,0.193,3.663,0.251,5.496
	c0.122,3.816,0.255,7.633,0.313,11.446C61.526,102.702,61.465,105.576,61.439,108.448 M92.149,76.021
	c-0.065,3.192,0.285,6.391,0.386,9.589c0.039,1.269-0.163,2.544-0.159,3.814c0.007,2.729,0.127,5.46,0.105,8.188
	c-0.02,2.872-0.144,5.74-0.241,8.609c-0.026,0.752-0.139,1.501-0.188,2.252c-0.045,0.695-0.436,0.995-1.093,1.049
	c-1.08,0.085-2.158,0.211-3.238,0.274c-2.212,0.133-4.423,0.292-6.636,0.342c-5.42,0.122-10.841,0.203-16.262,0.272
	c-2.18,0.029-2.204-0.145-2.111-2.382c0.124-3.011,0.102-6.031,0.077-9.048C62.768,96.493,62.67,94,62.57,91.511
	c-0.08-1.976-0.283-3.95-0.312-5.926c-0.048-3.476-0.012-6.956-0.002-10.435c0.002-0.848,0.075-1.695,0.055-2.543
	c-0.073-3.062-0.162-6.122-0.267-9.182c-0.027-0.8-0.147-1.596-0.201-2.393c-0.036-0.518-0.049-1.035-0.04-1.551
	c0.035-1.74,0.042-2.725,0.092-4.463c0.004-0.136,0.062-0.27,0.134-0.568c1.053-0.152,2.152-0.34,3.259-0.465
	c2.294-0.259,4.592-0.485,6.888-0.725c0.188-0.02,0.375-0.049,0.564-0.05c4.237-0.042,8.478-0.011,12.714-0.146
	c2.016-0.065,5.316,0.107,7.329-0.126c0.004,0,0.043-0.756,0.047-0.756c-0.646,5.202-0.604,10.439-0.852,15.664
	C91.851,70.593,92.206,73.291,92.149,76.021 M92.913,51.491c-1.218-0.557-2.498-0.201-3.746-0.216
	c-1.506-0.018-3.013,0.121-4.521,0.163c-4.003,0.113-8.01,0.176-12.012,0.332c-1.597,0.061-3.186,0.31-4.778,0.485
	c-1.306,0.143-1.488,0.006-1.514-1.315c-0.036-1.84-0.026-3.682-0.076-5.521c-0.015-0.532-0.168-1.06-0.254-1.569
	c-0.862,0.027-0.898,0.539-0.896,1.007c0.006,1.738-0.29,3.457-0.046,5.218c0.312,2.259,0.147,2.402-2.104,2.621
	c-2.436,0.236-4.879,0.159-7.318-0.074c-0.723-0.068-0.973-0.45-0.974-1.115c-0.013-5.043,1.26-9.584,4.958-13.261
	c1.114-1.107,2.201-2.18,3.657-2.839c0.458-0.206,0.801-0.651,1.229-0.94c0.815-0.552,1.615-1.141,2.491-1.581
	c0.869-0.437,1.09-0.328,1.641,0.469c0.695,1.006,1.271,2.105,2.052,3.037c1.721,2.053,3.678,3.8,6.488,4.215
	c3.675,0.544,6.961-0.258,9.605-2.951c1.117-1.137,2.038-2.465,3.041-3.71c0.318-0.396,0.617-0.808,1.031-1.353
	c0.494,0.92,0.914,1.684,1.316,2.456c0.941,1.804,2.57,2.383,4.441,2.361c1.024-0.011,1.846,0.323,2.59,0.934
	c0.537,0.442,0.599,1.373,0.144,1.899c-0.073,0.084-0.329,0.013-0.639,0.013c0.362,1.208-0.085,2.248-0.414,3.336
	c-0.309,1.028-0.445,2.115-0.575,3.188c-0.086,0.71,0.179,1.292,1.083,1.466c0.113-0.368,0.328-0.723,0.311-1.064
	c-0.123-2.299,0.862-4.323,1.533-6.425c0.044-0.135,0.084-0.271,0.137-0.402c0.507-1.271,0.413-2.49-0.443-3.616
	c0.3-0.37,0.494-0.704,0.771-0.939c0.968-0.827,1.601-1.87,1.943-3.066c0.224-0.777,0.696-0.997,1.429-1.097
	c2.132-0.291,4.231,0.061,6.339,0.23c1.203,0.097,2.463,0.062,3.595,0.853c0.035,1.159-0.619,2.149-1.141,3.088
	c-1.508,2.717-3.073,5.418-4.827,7.981c-1.388,2.03-3.269,3.621-5.441,4.856c-0.846,0.482-1.648,1.141-2.272,1.884
	c-0.759,0.908-1.622,0.891-2.658,0.855c-1.721-0.059-3.447,0.061-5.172,0.105C92.913,51.489,92.913,51.489,92.913,51.491
	 M130.411,72.532c-0.399,4.789-1.239,9.532-1.294,14.364c-0.043,3.951-0.484,7.899-0.722,11.851
	c-0.076,1.271-0.035,2.547-0.099,3.82c-0.076,1.506-0.167,3.015-0.327,4.513c-0.139,1.306-0.519,1.582-1.825,1.651
	c-2.967,0.157-5.931,0.396-8.897,0.474c-2.399,0.062-4.804-0.103-7.204-0.103c-3.395,0.002-6.786,0.067-10.181,0.093
	c-2.066,0.016-4.134,0.002-6.329,0.002c0-1.126-0.018-2.202,0.004-3.279c0.073-3.771,0.189-7.544,0.233-11.315
	c0.04-3.256,0.041-6.517-0.014-9.771c-0.033-1.979-0.25-3.955-0.306-5.933c-0.107-3.913-0.183-7.826-0.219-11.738
	c-0.011-1.175,0.172-2.351,0.23-3.526c0.039-0.766,0.416-1.053,1.159-1.113c1.737-0.137,3.464-0.374,5.214-0.028
	c0.585,0.113,1.221-0.004,1.832-0.037c1.035-0.056,2.068-0.178,3.103-0.188c2.637-0.024,5.274,0.064,7.908-0.017
	c2.824-0.087,5.644-0.315,8.467-0.481c0.188-0.012,0.376-0.038,0.564-0.038c2.26,0.008,4.519,0.015,6.776,0.03
	c0.283,0.002,0.566,0.029,0.847,0.069c1.386,0.203,1.428,0.319,1.548,1.683C131.147,66.549,130.662,69.526,130.411,72.532
	 M135.879,59.479c-0.059,1.276-0.461,1.616-1.525,1.535c-4.519-0.346-9.044-0.298-13.565-0.211
	c-2.875,0.055-5.746,0.247-8.621,0.321c-1.979,0.05-3.963-0.037-5.943,0.008c-3.862,0.087-7.725,0.22-11.587,0.332
	c-0.184,0.004-0.37-0.018-0.826-0.043c0-0.569-0.018-1.029,0.003-1.485c0.092-2.119,0.194-4.236,0.296-6.354
	c0.058-1.258,0.293-1.416,1.553-1.391c1.882,0.039,3.765-0.016,5.646-0.002c2.962,0.022,5.923,0.076,8.885,0.105
	c3.632,0.035,7.265,0.04,10.896,0.088c3.301,0.044,6.599,0.163,9.897,0.186c1.595,0.011,3.191-0.126,4.872-0.2
	c0.046,0.446,0.115,0.807,0.113,1.167C135.956,55.517,135.973,57.501,135.879,59.479"/>
<path fill="none" stroke="#231F20" stroke-miterlimit="10" d="M135.085,51.548c-3.953-0.233-7.92-0.239-11.881-0.304
	c-0.892-0.015-1.789,0.188-2.68,0.176c-2.876-0.042-5.752-0.135-8.626-0.214c-0.472-0.014-0.96,0.017-1.405-0.106
	c-0.256-0.07-0.439-0.406-0.656-0.623c0.218-0.205,0.403-0.481,0.66-0.594c0.24-0.107,0.556-0.044,0.838-0.052
	c3.624-0.101,7.248-0.179,10.87-0.315c0.968-0.036,1.78,0.013,2.077,1.135c0.021,0.083,0.229,0.117,0.392,0.193
	c0.645-0.514,0.574-1.163,0.331-1.785c-0.232-0.597-0.803-0.776-1.391-0.809c-0.589-0.033-1.18-0.006-1.746-0.006
	c-0.081-0.248-0.13-0.379-0.168-0.513c-0.387-1.354-0.429-1.433-1.833-1.433c-1.973-0.002-3.946,0.05-5.917,0.126
	c-1.079,0.042-1.329,0.352-1.43,1.498c-0.015,0.179-0.052,0.354-0.097,0.643c-0.869,0.049-1.712,0.058-2.544,0.153
	c-1.08,0.121-1.267,0.384-1.23,1.434c0.009,0.265-0.049,0.532-0.073,0.773c-1.247,0.29-5.044,0.294-6.007-0.023
	c3.227-1.665,5.438-4.287,7.483-7.056c2.594-3.511,4.508-7.409,6.26-11.388c0.341-0.777,0.184-1.072-0.684-1.339
	c-0.697-0.213-1.414-0.361-2.153-0.546c0.259-0.824,0.541-1.479,0.664-2.163c0.487-2.734,0.934-5.475,1.378-8.217
	c0.075-0.463,0.103-0.94,0.092-1.409c-0.029-1.098-0.436-1.554-1.497-1.683c-0.312-0.037-0.637,0.028-0.796,0.038
	c-0.512-0.484-0.856-1.006-1.337-1.216c-0.659-0.287-1.42-0.335-2.298-0.52c0-0.892,0.051-1.826-0.013-2.754
	c-0.071-1.077-0.193-2.156-0.384-3.218c-0.147-0.831-0.864-1.043-1.591-1.182c-0.701-0.134-1.2,0.175-1.552,0.736
	c-0.58,0.925-1.084,1.881-1.065,3.027c0.005,0.342-0.07,0.685-0.143,1.323c-0.336-0.72-0.504-1.157-0.736-1.556
	c-0.236-0.406-0.488-0.82-0.812-1.154c-1.117-1.145-2.526-0.781-2.884,0.767c-0.124,0.53-0.082,1.126,0.003,1.674
	c0.314,2.003,0.68,4,1.023,5.999c0.418,2.429,0.418,2.429-1.64,3.754c-0.033,0.02-0.091,0.001-0.269,0.001
	c-1.254-1.617-1.725-3.604-1.771-5.614c-0.061-2.715-0.397-5.36-1.318-7.897c-0.783-2.162-2.002-4.128-3.99-5.362
	c-1.383-0.857-2.944-1.458-4.479-2.028c-2.438-0.905-4.927-0.941-7.296,0.221c-1.517,0.745-3.004,1.597-4.376,2.579
	c-0.988,0.707-1.732,0.811-2.789,0.152c-1.026-0.64-2.185-1.25-3.356-1.438c-2.858-0.462-5.514,0.219-7.875,1.981
	c-1.539,1.148-2.743,2.531-3.703,4.209c-1.147,2.006-1.706,4.068-1.337,6.366c0.062,0.385,0.008,0.787,0.008,1.361
	c-3.161-1.037-5.173,0.375-6.471,2.82c-1.254,2.362-1.306,4.742,1.142,6.559c-0.092,0.251-0.116,0.455-0.224,0.592
	c-0.999,1.263-1.393,2.775-1.753,4.292c-0.954,4.013,1.542,7.458,5.501,8.292c0.301,0.063,0.599,0.15,0.909,0.229
	c-0.038,0.241-0.02,0.398-0.086,0.508c-1.407,2.386-2.24,4.98-2.74,7.685c-0.197,1.061-0.269,2.146-0.39,3.219
	c-0.049,0.434-0.088,0.941-0.61,0.99c-1.096,0.101-2.203,0.276-3.25,0.158c-0.105-1.771-0.199-3.365-0.295-4.961
	c-0.036-0.626,0.221-0.989,0.879-1.019c0.235-0.011,0.474-0.028,0.703-0.08c0.891-0.198,1.365-0.793,1.341-1.719
	c-0.03-1.178-0.06-2.358-0.144-3.533c-0.124-1.737-0.766-2.247-2.475-2.042c-0.094,0.012-0.187,0.035-0.28,0.042
	c-1.973,0.155-3.944,0.327-5.917,0.46c-3.198,0.215-6.4,0.392-9.597,0.611c-1.174,0.081-2.352,0.183-3.513,0.368
	c-1.334,0.211-1.544,0.549-1.514,1.881c0.017,0.752,0.006,1.51-0.059,2.26c-0.08,0.917-0.611,1.432-1.539,1.565
	c-0.792,0.112-1.576,0.287-2.367,0.415c-0.708,0.115-1.102,0.483-1.094,1.229c0.013,1.39,0.007,2.779,0.046,4.169
	c-0.016,0.037-0.025,0.079-0.022,0.129c0.014,0.292,0.046,0.583,0.069,0.875c0.001,0.227,0.015,0.453,0.05,0.68
	c-0.09,0.003-0.179,0.007-0.269,0.01c-1.364,0.062-2.728,0.177-4.091,0.271c-1.457,0.101-2.912,0.233-4.37,0.292
	c-0.868,0.036-1.673,0.181-2.373,0.7c-0.023,0.177-0.101,0.34-0.053,0.449c0.741,1.664,0.579,3.44,0.512,5.159
	c-0.091,2.308,0.706,2.771,2.788,3.017c0.328,0.037,0.66,0.039,0.99,0.041c0.795,0.006,1.59,0.002,2.656,0.002
	c0.312,2.881,0.773,5.68,0.886,8.489c0.213,5.321,0.206,10.653,0.327,15.979c0.069,3.062,0.199,6.125,0.324,9.184
	c0.031,0.753,0.21,1.501,0.218,2.25c0.034,2.926,0.019,5.85,0.039,8.775c0.01,1.557,0.163,1.683,1.657,1.821
	c4.078,0.381,8.159,0.693,12.257,0.817c2.541,0.077,5.076,0.492,7.616,0.504c5.512,0.023,11.025-0.145,16.537-0.182
	c5.663-0.036,11.328,0,16.991-0.018c1.792-0.006,3.588-0.024,5.375-0.146c2.539-0.17,5.075-0.654,7.608-0.624
	c5.754,0.071,11.475-0.741,17.236-0.438c6.413,0.336,12.825-0.102,19.237-0.239c1.162-0.025,1.98-0.792,2.969-1.188
	c0.219-0.089,0.376-0.545,0.41-0.848c0.229-2.013,0.449-4.029,0.606-6.049c0.093-1.175,0.018-2.362,0.099-3.538
	c0.228-3.338,0.653-6.669,0.711-10.01c0.071-4.118,0.66-8.178,1.008-12.264c0.116-1.36,0.297-2.716,0.39-4.079
	c0.175-2.58,0.728-5.142,0.417-7.75c-0.028-0.234-0.015-0.472-0.015-0.707c-0.001-1.642,0.043-1.688,1.632-1.721
	c0.474-0.012,0.947,0.006,1.417-0.037c1.021-0.097,1.494-0.512,1.766-1.527c0.097-0.365,0.19-0.738,0.218-1.112
	c0.111-1.645,0.25-3.292,0.284-4.94C137.708,51.711,137.493,51.689,135.085,51.548z M114.511,47.534
	c1.723-0.078,3.449-0.308,5.17-0.008c0.311,0.054,0.599,0.239,0.896,0.363c-0.04,0.149-0.078,0.297-0.117,0.447
	c-0.631,0.048-1.263,0.116-1.896,0.142c-1.349,0.053-2.697,0.109-4.047,0.104c-0.26-0.002-0.7-0.244-0.74-0.438
	C113.675,47.65,114.128,47.551,114.511,47.534z M112.645,20.36c0.047-0.358,0.235-0.714,0.427-1.032
	c0.216-0.358,0.528-0.801,0.987-0.5c0.219,0.143,0.338,0.665,0.274,0.968c-0.316,1.561-0.695,3.11-1.081,4.656
	c-0.097,0.392-0.298,0.758-0.45,1.137c-0.127-0.004-0.253-0.008-0.38-0.012c-0.074-0.396-0.236-0.798-0.207-1.186
	C112.317,23.045,112.465,21.7,112.645,20.36z M110.018,17.351c0.252-0.203,0.682-0.307,1.01-0.267
	c0.447,0.054,0.589,0.466,0.584,1.582c-0.052,0.211-0.115,0.732-0.311,1.199c-0.108,0.258-0.438,0.598-0.661,0.592
	c-0.316-0.008-0.72-0.228-0.92-0.485C109.26,19.382,109.437,17.82,110.018,17.351z M110.722,24.522
	c-0.233,0.435-0.398,0.936-0.729,1.277c-0.176,0.183-0.763,0.236-0.944,0.085c-0.393-0.327-0.251-0.78,0.173-1.044
	c0.384-0.239,0.81-0.406,1.218-0.604C110.533,24.331,110.627,24.426,110.722,24.522z M106.244,14.924l0.039-0.001
	c0-1.08-0.017-2.161,0.008-3.241c0.008-0.321,0.11-0.649,0.211-0.96c0.135-0.411,0.344-0.889,0.85-0.736
	c0.252,0.075,0.491,0.511,0.563,0.825c0.592,2.555,0.371,5.14,0.196,7.719c-0.024,0.369-0.122,0.753-0.274,1.089
	c-0.103,0.222-0.36,0.507-0.561,0.515c-0.197,0.009-0.533-0.259-0.59-0.466c-0.198-0.72-0.364-1.462-0.426-2.205
	C106.189,16.623,106.244,15.771,106.244,14.924z M101.824,11.699c1.193,0.992,2.944,5.711,3.277,8.754
	c-0.557,0.199-1.147,0.408-1.723,0.612C102.643,19.557,101.524,12.874,101.824,11.699z M101.224,24.082
	c0.563-0.549,1.217-1.082,1.93-1.382c1.843-0.776,3.838-0.764,5.798-0.877c0.462-0.027,0.96,0.052,1.108,0.802
	c-1.25,1.269-3.206,0.635-4.757,1.547c0.244,0.349,0.385,0.773,0.662,0.901c0.697,0.324,1.032,0.821,1.312,1.527
	c0.493,1.252,1.63,1.539,2.933,0.849c0.409-0.217,0.763-0.63,1.267-0.271c0.472,0.335,1.219,0.416,1.208,1.223
	c-0.007,0.644-0.756,1.584-1.452,1.75c-0.405,0.096-0.842,0.11-1.261,0.09c-2.104-0.105-4.204-0.233-6.4-0.358
	c-0.491-1.181-1.183-2.307-2.285-3.199C100.404,25.97,100.416,24.869,101.224,24.082z M95.642,18.776
	c0.188-1.915,0.387-3.83,0.581-5.744c0.055-0.006,0.109-0.013,0.163-0.02c0.14,1.35,0.403,2.701,0.391,4.049
	c-0.021,2.458,0.71,4.634,2.049,6.652c0.671,1.012,0.73,1.309,0.7,2.788c-2.041,1.14-2.31,1.059-2.79-1.18
	c-0.425-1.979-0.719-3.987-1.063-5.983C95.642,19.155,95.623,18.961,95.642,18.776z M76.821,5.854
	c1.554-1.58,3.409-2.666,5.597-3.105c2.392-0.48,4.667-0.058,6.898,0.887c1.781,0.755,3.155,1.835,4.329,3.443
	c1.193,1.637,1.672,3.285,1.554,5.223c-0.118,1.927-0.333,3.863-0.264,5.786c0.117,3.192,0.069,6.43,1.332,9.466
	c0.291,0.701-0.185,1.034-0.576,1.439c-1.294,1.342-1.46,2.819-0.518,4.351c0.465,0.755,1.091,1.093,2.007,1.017
	c1.182-0.098,2.206-0.476,3.019-1.348c0.734-0.789,0.791-1.455,0.167-2.474c-0.219,0.267-0.429,0.484-0.592,0.731
	c-0.205,0.312-0.326,0.687-0.564,0.966c-0.614,0.726-1.852,1.005-2.421,0.595c-0.615-0.441-0.861-2.001-0.434-2.749
	c0.656-1.145,2.624-2.021,3.923-1.772c0.684,0.131,1.038,0.606,1.316,1.171c0.714,1.453,0.12,4.494-1.103,5.697
	c-1.071,1.053-3.312,1.282-4.933,0.617c-2.297-0.939-3.062-2.815-3.178-5.064c-0.09-1.737,0.079-3.492-0.086-5.216
	c-0.3-3.153-0.879-6.255-2.364-9.117c-0.854-1.647-1.892-3.103-3.316-4.343c-1.783-1.551-3.843-2.106-6.101-2.241
	c-0.625-0.037-1.302,0.119-1.967-0.466c1.025-1.047,2.197-1.646,3.444-1.992c2.472-0.686,4.859-0.426,7.031,1.047
	c0.739,0.502,1.437,1.065,2.188,1.547c0.234,0.151,0.583,0.125,0.879,0.179c0.039-0.349,0.224-0.775,0.086-1.027
	c-0.238-0.438-0.652-0.792-1.031-1.141c-2.81-2.581-6.948-3.277-10.372-1.568c-0.801,0.4-1.565,0.87-2.354,1.295
	C77.642,8.104,77.295,8,76.702,7.354C76.175,6.779,76.42,6.262,76.821,5.854z M84.525,29.628c-1.896,0.125-3.571-1.625-3.291-3.589
	c0.155-1.085,0.633-2.167,1.17-3.14c0.325-0.593,0.832-1.016,1.464-1.25c0.393-0.146,0.864-0.248,1.377-0.301
	c1.679-0.175,3.769,0.17,4.75,1.214c0.479,0.511,0.454,1.396,0.552,2.043c0.234,1.54-0.591,3.187-1.957,3.931
	C87.322,29.229,85.94,29.534,84.525,29.628z M83.24,35.038c-1.194,0.646-2.482-0.118-2.427-1.475
	c0.012-0.277,0.214-0.687,0.438-0.789c1.095-0.491,2.227-0.898,3.484-1.39C84.937,33.014,84.254,34.491,83.24,35.038z M89.81,21.013
	c-3.223-1.966-6.956-1.077-8.947,2.139c-0.623,1.006-0.623,1.006-1.846,1.291c-0.09-0.39-0.191-0.777-0.271-1.171
	c-0.294-1.494-1.068-2.597-2.53-3.158c-0.704-0.271-1.381-0.631-2.104-0.833c-0.569-0.157-1.191-0.214-1.781-0.175
	c-2.224,0.148-3.653,1.358-4.385,3.436c-0.062,0.178-0.147,0.347-0.228,0.518c-0.017,0.038-0.06,0.065-0.255,0.268
	c-0.074-2.459,0.462-4.603,1.399-6.628c0.65-1.406,1.716-2.503,3.219-3.035c1.554-0.549,3.142-1.005,4.703-1.533
	c0.938-0.316,1.853-0.7,2.875-0.562c1.443,0.194,2.93,0.238,4.314,0.633c0.951,0.271,1.84,0.94,2.621,1.594
	c2.234,1.875,3.239,4.407,3.746,7.302C90.06,21.057,89.91,21.075,89.81,21.013z M75.583,27.945
	c-0.976,0.714-2.157,0.913-3.296,0.868c-0.304,0-0.541,0.008-0.776-0.002c-2.052-0.084-3.411-1.312-3.013-3.948
	c0.065-0.417,0.195-0.826,0.31-1.233c0.338-1.202,0.742-2.571,2.036-2.846c1.613-0.342,3.392-0.605,4.783,0.822
	c0.491,0.502,1.106,0.924,1.461,1.508C78.161,24.877,77.47,26.565,75.583,27.945z M74.754,29.925
	c0.602,1.519,0.725,1.626,2.305,1.457c0.743-0.079,1.474-0.297,2.197-0.501c0.405-0.114,0.393-0.159,0.796-0.963
	c-1.115-0.731-2.275,0.314-3.617-0.088c1.203-1.385,1.509-3.215,3.083-4.515c0.737,1.992,0.724,4.088,2.68,5.263
	c-1.32,0.852-2.917,0.605-3.915,1.581c0.629,1.126,1.163,2.157,1.763,3.147c1.054,1.742,2.728,2.085,4.276,0.773
	c1.524-1.293,2.672-2.83,1.986-5.073c1.43-0.684,2.811-1.345,4.418-2.115c-1.674,2.915-2.795,5.887-5.054,8.155
	c-2.562,2.575-8.104,3.724-11.507,0.718c-1.446-1.275-2.625-2.687-3.582-4.324c-0.709-1.214-1.407-2.436-2.099-3.661
	c-0.133-0.234-0.216-0.499-0.272-0.835C70.2,30.756,72.524,30.196,74.754,29.925z M59.776,10.453
	c0.579-1.984,1.775-3.393,3.427-4.501c1.25-0.837,2.672-0.972,4.073-1.179c0.05,0.096,0.098,0.191,0.147,0.287
	c-0.919,1.04-1.937,2.011-2.73,3.139c-0.806,1.147-1.544,2.394-2.029,3.701c-0.484,1.309-0.73,2.736-0.88,4.131
	c-0.145,1.354-0.304,2.773,0.392,4.109c0.856-0.231,0.703-0.806,0.731-1.294c0.097-1.643,0.057-3.309,0.328-4.923
	c0.416-2.467,1.567-4.629,3.315-6.447c1.075-1.119,2.365-1.687,3.939-1.54c0.423,0.04,0.849,0.053,1.273,0.047
	c0.664-0.01,1.154,0.277,1.701,0.931c-4.307,1.342-7.402,3.897-8.761,8.174c-0.32,1.011-0.724,2.142-0.101,3.294
	c0.866-0.224,0.815-0.891,0.858-1.471c0.101-1.338,0.436-2.59,1.145-3.749c1.53-2.496,3.711-4.114,6.523-4.857
	c1.802-0.477,3.112,0.203,3.903,1.977c-1.026,0.676-2.216,0.981-3.38,1.257c-2.305,0.544-4.11,1.837-5.679,3.524
	c-1.157,1.242-1.379,2.881-1.676,4.438c-0.245,1.286-0.272,2.624-0.299,3.941c-0.043,2.114,0.089,4.236-0.052,6.341
	c-0.055,0.828-0.464,1.795-1.034,2.392c-1.096,1.148-2.384,2.062-4.047,2.433c-2.362,0.526-4.912-0.76-5.552-3.523
	c-0.639-2.757,0.149-4.968,2.413-6.368c1.377-0.851,2.268-0.484,2.519,1.091c0.094,0.596,0.107,1.23,0.014,1.825
	c-0.118,0.764-0.649,1.081-1.312,0.928c-0.653-0.15-0.77-0.422-0.574-1.484c0.328,0.074,0.652,0.147,1.03,0.233
	c0.063-0.716-0.186-1.188-0.814-1.351c-0.583-0.149-0.984,0.222-1.295,0.667c-0.624,0.895-0.479,2.347,0.287,2.982
	c0.822,0.681,1.955,0.622,2.849-0.147c0.943-0.812,1.208-1.898,1.156-3.065c-0.029-0.654-0.161-1.316-0.346-1.946
	c-0.594-2.035-1.22-4.061-1.857-6.083C58.532,15.677,59.007,13.083,59.776,10.453z M56.232,35.637
	c-1.735,0.17-2.288-0.397-2.28-2.194C54.926,33.926,55.596,34.626,56.232,35.637z M51.393,23.22c-0.3-1.816,1.332-4.12,3.136-4.444
	c0.275-0.05,0.593-0.121,0.836-0.032c0.506,0.183,1.152,0.347,1.42,0.738c0.393,0.577,0.135,1.294-0.333,1.815
	c-0.274,0.307-0.635,0.557-1,0.754c-0.452,0.245-0.924,0.223-1.276-0.213c-0.363-0.447-0.417-0.946-0.09-1.436
	c0.197-0.295,0.443-0.556,0.677-0.842c-0.496-0.461-0.852-0.225-1.187,0.043c-1.024,0.824-1.227,2.745-0.341,3.717
	c0.222,0.244,0.646,0.393,0.99,0.423c1.599,0.14,2.819-0.583,3.78-1.802c0.228-0.289,0.395-0.623,0.746-1.186
	c0.242,0.812,0.419,1.405,0.58,1.942c-1.204,0.73-2.293,1.445-3.435,2.064c-1.069,0.581-2.185,0.84-3.353,0.149
	C51.872,24.513,51.514,23.948,51.393,23.22z M55.646,38.297c-3.044-0.689-5.312-3.536-4.473-6.741c0.26-1,0.575-1.994,0.975-2.943
	c0.315-0.746,0.489-0.762,1.558-0.692c-0.117,1.623-0.207,3.251-0.363,4.873c-0.082,0.859-0.166,1.679,0.396,2.435
	c0.759,1.024,1.583,1.333,2.823,0.993c1.104-0.302,1.125-0.3,2.372,0.297C58.271,37.841,56.946,38.591,55.646,38.297z
	 M29.805,42.847c0.022-0.654,0.493-0.824,1.075-0.87c3.612-0.284,7.223-0.6,10.838-0.871c1.078-0.081,2.166-0.028,3.247-0.085
	c1.506-0.08,3.009-0.215,4.515-0.304c0.91-0.053,1.12,0.105,1.172,0.988c0.051,0.893,0.02,1.793,0.002,2.689
	c-0.013,0.607-0.356,0.956-0.949,1.047c-0.326,0.05-0.656,0.085-0.985,0.097c-0.471,0.018-0.945,0.033-1.416,0.009
	c-4.166-0.219-8.284,0.379-12.417,0.72c-0.281,0.023-0.569,0.067-0.847,0.037c-1.382-0.149-2.762-0.32-4.245-0.495
	C29.795,44.896,29.77,43.871,29.805,42.847z M25.784,48.046c2.503-0.419,5.011-0.946,7.571-0.396
	c0.274,0.059,0.566,0.088,0.843,0.063c2.3-0.216,4.594-0.505,6.897-0.656c1.834-0.121,3.679-0.117,5.518-0.094
	c0.934,0.012,1.174,0.289,1.26,1.188c0.098,1.033,0.187,2.068,0.203,3.104c0.021,1.344-0.199,1.561-1.546,1.597
	c-2.922,0.079-5.83,0.226-8.75,0.496c-4.366,0.404-8.764,0.461-13.154,0.63c-0.035-0.431-0.051-0.861-0.04-1.294v-0.001
	c0.002-0.026,0.01-0.051,0.011-0.078c0.029-0.99,0.026-1.983-0.027-2.972C24.504,48.406,24.522,48.257,25.784,48.046z
	 M17.071,62.762c-0.612,0.034-1.227,0.091-1.838,0.063c-1.118-0.05-1.307-0.255-1.354-1.352c-0.023-0.518,0.026-1.041-0.022-1.557
	c-0.105-1.118-0.257-2.232-0.377-3.351c-0.029-0.27-0.004-0.544-0.004-0.883c0.358-0.078,0.668-0.189,0.982-0.206
	c4-0.206,8-0.412,12.001-0.59c2.636-0.118,5.275-0.161,7.91-0.294c1.739-0.091,3.474-0.286,5.21-0.437
	c0.188-0.017,0.374-0.063,0.562-0.066c6.604-0.1,13.206-0.195,19.81-0.285c0.176-0.002,0.353,0.068,0.625,0.124
	c-0.671,1.287-0.618,2.572-0.394,3.893c0.083,0.493-0.025,1.024-0.094,1.532c-0.13,0.964-0.606,1.515-1.677,1.517
	c-0.6,0.004-1.195,0.257-1.798,0.364c-0.881,0.157-1.764,0.371-2.651,0.408c-3.062,0.127-6.127,0.224-9.191,0.27
	c-3.492,0.055-6.984,0.025-10.477,0.062c-1.365,0.014-2.729,0.125-4.093,0.17c-1.65,0.054-3.303,0.05-4.953,0.131
	C22.521,62.412,19.797,62.6,17.071,62.762z M61.439,108.448c-0.005,0.372-0.054,0.751-0.131,1.12
	c-0.11,0.518-0.444,0.822-0.992,0.836c-1.268,0.033-2.534,0.065-3.801,0.087c-1.791,0.031-3.58,0.05-5.369,0.075
	c-1.791,0.027-3.583,0.056-5.375,0.081c-3.303,0.045-6.601,0.043-9.881-0.456c-0.788-0.119-1.601-0.06-2.402-0.091
	c-3.015-0.117-6.032-0.188-9.041-0.376c-2.02-0.128-2.024-0.201-2.034-2.187c-0.011-2.312,0.022-4.623-0.021-6.936
	c-0.021-1.176-0.221-2.346-0.255-3.522c-0.137-4.522-0.242-9.048-0.351-13.571c-0.1-4.194-0.14-8.393-0.312-12.584
	c-0.065-1.593-0.406-3.177-0.649-4.763c-0.389-2.537-0.2-2.727,2.387-2.764c3.771-0.054,7.541-0.202,11.312-0.251
	c4.104-0.054,8.208-0.008,12.311-0.067c2.307-0.033,4.612-0.189,7.092-0.296c-0.077,0.402-0.119,0.618-0.202,1.051
	c1.829-0.276,3.618,0.053,5.39-0.35c-1.027-0.618-2.173-0.228-3.432-0.544c1.667-0.308,3.151-0.582,4.766-0.879
	c0.376,0.78,0.19,1.736,0.222,2.64c0.107,3.098,0.174,6.195,0.192,9.294c0.009,1.458-0.188,2.918-0.18,4.376
	c0.008,1.504,0.159,3.009,0.235,4.514c0.092,1.83,0.193,3.663,0.251,5.496c0.122,3.816,0.255,7.633,0.313,11.446
	C61.526,102.702,61.465,105.576,61.439,108.448z M92.149,76.021c-0.065,3.192,0.285,6.391,0.386,9.589
	c0.039,1.269-0.163,2.544-0.159,3.814c0.007,2.729,0.127,5.46,0.105,8.188c-0.02,2.872-0.144,5.74-0.241,8.609
	c-0.026,0.752-0.139,1.501-0.188,2.252c-0.045,0.695-0.436,0.995-1.093,1.049c-1.08,0.085-2.158,0.211-3.238,0.274
	c-2.212,0.133-4.423,0.292-6.636,0.342c-5.42,0.122-10.841,0.203-16.262,0.272c-2.18,0.029-2.204-0.145-2.111-2.382
	c0.124-3.011,0.102-6.031,0.077-9.048C62.768,96.493,62.67,94,62.57,91.511c-0.08-1.976-0.283-3.95-0.312-5.926
	c-0.048-3.476-0.012-6.956-0.002-10.435c0.002-0.848,0.075-1.695,0.055-2.543c-0.073-3.062-0.162-6.122-0.267-9.182
	c-0.027-0.8-0.147-1.596-0.201-2.393c-0.036-0.518-0.049-1.035-0.04-1.551c0.035-1.74,0.042-2.725,0.092-4.463
	c0.004-0.136,0.062-0.27,0.134-0.568c1.053-0.152,2.152-0.34,3.259-0.465c2.294-0.259,4.592-0.485,6.888-0.725
	c0.188-0.02,0.375-0.049,0.564-0.05c4.237-0.042,8.478-0.011,12.714-0.146c2.016-0.065,5.316,0.107,7.329-0.126
	c0.004,0,0.043-0.756,0.047-0.756c-0.646,5.202-0.604,10.439-0.852,15.664C91.851,70.593,92.206,73.291,92.149,76.021z
	 M92.913,51.491c-1.218-0.557-2.498-0.201-3.746-0.216c-1.506-0.018-3.013,0.121-4.521,0.163c-4.003,0.113-8.01,0.176-12.012,0.332
	c-1.597,0.061-3.186,0.31-4.778,0.485c-1.306,0.143-1.488,0.006-1.514-1.315c-0.036-1.84-0.026-3.682-0.076-5.521
	c-0.015-0.532-0.168-1.06-0.254-1.569c-0.862,0.027-0.898,0.539-0.896,1.007c0.006,1.738-0.29,3.457-0.046,5.218
	c0.312,2.259,0.147,2.402-2.104,2.621c-2.436,0.236-4.879,0.159-7.318-0.074c-0.723-0.068-0.973-0.45-0.974-1.115
	c-0.013-5.043,1.26-9.584,4.958-13.261c1.114-1.107,2.201-2.18,3.657-2.839c0.458-0.206,0.801-0.651,1.229-0.94
	c0.815-0.552,1.615-1.141,2.491-1.581c0.869-0.437,1.09-0.328,1.641,0.469c0.695,1.006,1.271,2.105,2.052,3.037
	c1.721,2.053,3.678,3.8,6.488,4.215c3.675,0.544,6.961-0.258,9.605-2.951c1.117-1.137,2.038-2.465,3.041-3.71
	c0.318-0.396,0.617-0.808,1.031-1.353c0.494,0.92,0.914,1.684,1.316,2.456c0.941,1.804,2.57,2.383,4.441,2.361
	c1.024-0.011,1.846,0.323,2.59,0.934c0.537,0.442,0.599,1.373,0.144,1.899c-0.073,0.084-0.329,0.013-0.639,0.013
	c0.362,1.208-0.085,2.248-0.414,3.336c-0.309,1.028-0.445,2.115-0.575,3.188c-0.086,0.71,0.179,1.292,1.083,1.466
	c0.113-0.368,0.328-0.723,0.311-1.064c-0.123-2.299,0.862-4.323,1.533-6.425c0.044-0.135,0.084-0.271,0.137-0.402
	c0.507-1.271,0.413-2.49-0.443-3.616c0.3-0.37,0.494-0.704,0.771-0.939c0.968-0.827,1.601-1.87,1.943-3.066
	c0.224-0.777,0.696-0.997,1.429-1.097c2.132-0.291,4.231,0.061,6.339,0.23c1.203,0.097,2.463,0.062,3.595,0.853
	c0.035,1.159-0.619,2.149-1.141,3.088c-1.508,2.717-3.073,5.418-4.827,7.981c-1.388,2.03-3.269,3.621-5.441,4.856
	c-0.846,0.482-1.648,1.141-2.272,1.884c-0.759,0.908-1.622,0.891-2.658,0.855c-1.721-0.059-3.447,0.061-5.172,0.105
	C92.913,51.489,92.913,51.489,92.913,51.491z M130.411,72.532c-0.399,4.789-1.239,9.532-1.294,14.364
	c-0.043,3.951-0.484,7.899-0.722,11.851c-0.076,1.271-0.035,2.547-0.099,3.82c-0.076,1.506-0.167,3.015-0.327,4.513
	c-0.139,1.306-0.519,1.582-1.825,1.651c-2.967,0.157-5.931,0.396-8.897,0.474c-2.399,0.062-4.804-0.103-7.204-0.103
	c-3.395,0.002-6.786,0.067-10.181,0.093c-2.066,0.016-4.134,0.002-6.329,0.002c0-1.126-0.018-2.202,0.004-3.279
	c0.073-3.771,0.189-7.544,0.233-11.315c0.04-3.256,0.041-6.517-0.014-9.771c-0.033-1.979-0.25-3.955-0.306-5.933
	c-0.107-3.913-0.183-7.826-0.219-11.738c-0.011-1.175,0.172-2.351,0.23-3.526c0.039-0.766,0.416-1.053,1.159-1.113
	c1.737-0.137,3.464-0.374,5.214-0.028c0.585,0.113,1.221-0.004,1.832-0.037c1.035-0.056,2.068-0.178,3.103-0.188
	c2.637-0.024,5.274,0.064,7.908-0.017c2.824-0.087,5.644-0.315,8.467-0.481c0.188-0.012,0.376-0.038,0.564-0.038
	c2.26,0.008,4.519,0.015,6.776,0.03c0.283,0.002,0.566,0.029,0.847,0.069c1.386,0.203,1.428,0.319,1.548,1.683
	C131.147,66.549,130.662,69.526,130.411,72.532z M135.879,59.479c-0.059,1.276-0.461,1.616-1.525,1.535
	c-4.519-0.346-9.044-0.298-13.565-0.211c-2.875,0.055-5.746,0.247-8.621,0.321c-1.979,0.05-3.963-0.037-5.943,0.008
	c-3.862,0.087-7.725,0.22-11.587,0.332c-0.184,0.004-0.37-0.018-0.826-0.043c0-0.569-0.018-1.029,0.003-1.485
	c0.092-2.119,0.194-4.236,0.296-6.354c0.058-1.258,0.293-1.416,1.553-1.391c1.882,0.039,3.765-0.016,5.646-0.002
	c2.962,0.022,5.923,0.076,8.885,0.105c3.632,0.035,7.265,0.04,10.896,0.088c3.301,0.044,6.599,0.163,9.897,0.186
	c1.595,0.011,3.191-0.126,4.872-0.2c0.046,0.446,0.115,0.807,0.113,1.167C135.956,55.517,135.973,57.501,135.879,59.479z"/>
<path fill="#FFFFFF" d="M93.533,109.197c0-1.126-0.018-2.202,0.004-3.279c0.073-3.771,0.189-7.544,0.233-11.315
	c0.04-3.256,0.041-6.517-0.014-9.772c-0.034-1.978-0.25-3.953-0.306-5.931c-0.107-3.913-0.183-7.826-0.219-11.738
	c-0.011-1.175,0.173-2.351,0.23-3.526c0.039-0.766,0.416-1.053,1.159-1.113c1.738-0.137,3.464-0.374,5.213-0.028
	c0.586,0.113,1.223-0.004,1.833-0.037c1.035-0.056,2.068-0.178,3.104-0.188c2.636-0.024,5.272,0.064,7.907-0.017
	c2.824-0.087,5.644-0.315,8.467-0.481c0.188-0.012,0.376-0.038,0.564-0.038c2.26,0.008,4.519,0.015,6.776,0.03
	c0.283,0.002,0.566,0.029,0.847,0.069c1.386,0.203,1.427,0.319,1.547,1.683c0.268,3.034-0.218,6.012-0.469,9.018
	c-0.399,4.789-1.239,9.532-1.294,14.364c-0.044,3.951-0.484,7.899-0.722,11.849c-0.076,1.271-0.035,2.549-0.099,3.822
	c-0.076,1.506-0.167,3.015-0.327,4.513c-0.14,1.306-0.519,1.582-1.825,1.651c-2.967,0.157-5.93,0.398-8.897,0.474
	c-2.4,0.062-4.804-0.103-7.204-0.103c-3.395,0.002-6.787,0.067-10.181,0.093C97.796,109.211,95.728,109.197,93.533,109.197
	 M96.429,65.253c-0.041,0.601-0.115,1.095-0.101,1.583c0.036,1.082,0.167,2.161,0.167,3.243c0.002,1.551-0.193,3.109-0.097,4.65
	c0.21,3.339,0.448,6.683,0.864,10c0.534,4.269,0.657,8.546,0.77,12.836c0.043,1.622-0.551,3.281,0.206,4.878
	c0.036,0.075-0.005,0.186-0.008,0.28c-0.041,1.616,0.312,2.227,1.877,2.626c0.99,0.254,2.053,0.321,3.079,0.296
	c2.3-0.054,4.601-0.186,6.896-0.35c1.69-0.121,3.381-0.297,5.06-0.537c2.521-0.359,5.03-0.788,7.543-1.197
	c0.65-0.108,1.301-0.233,1.942-0.388c0.827-0.199,1.305-0.76,1.389-1.594c0.22-2.203,0.438-4.407,0.603-6.616
	c0.252-3.384,0.521-6.77,0.669-10.159c0.137-3.105,0.181-6.217,0.155-9.326c-0.024-2.821-0.22-5.641-0.286-8.463
	c-0.017-0.688-0.198-1.12-0.911-1.146c-1.503-0.057-3.007-0.085-4.51-0.106c-0.471-0.008-0.943,0.085-1.409,0.052
	c-4.319-0.303-8.634-0.865-12.97-0.21c-0.324,0.048-0.659,0.021-0.989,0.022c-2.358,0.002-4.719-0.002-7.077,0.016
	c-0.34,0.002-0.678,0.116-1.068,0.188c0.191,0.715,0.64,0.863,1.111,0.896c0.561,0.038,1.127-0.008,1.69-0.012
	c0.326-0.004,0.731-0.122,0.961,0.027c0.677,0.439,1.355,0.245,2.056,0.196c0.651-0.046,1.311-0.008,1.968,0.008
	c0.562,0.012,1.128,0.073,1.69,0.063c2.681-0.052,5.36-0.176,8.041-0.166c2.448,0.008,4.896,0.184,7.344,0.225
	c2.47,0.042,2.612,0.156,2.649,2.644c0.021,1.321,0.005,2.646,0.116,3.961c0.338,4.052,0.291,8.104,0.002,12.154
	c-0.188,2.632-0.484,5.257-0.691,7.889c-0.19,2.396-0.307,4.8-0.494,7.196c-0.087,1.11-0.154,1.166-1.244,1.365
	c-1.252,0.229-2.512,0.417-3.771,0.599c-2.473,0.355-4.941,0.715-7.419,1.025c-1.728,0.217-3.464,0.462-5.2,0.495
	c-2.067,0.038-4.145-0.057-6.204-0.244c-1.179-0.107-1.396-0.56-1.282-1.747c0.035-0.375,0.124-0.752,0.106-1.122
	c-0.145-3.058-0.39-6.115-0.447-9.174c-0.079-4.112-0.719-8.166-1.072-12.25c-0.172-1.969-0.186-3.954-0.24-5.932
	c-0.065-2.4-0.088-4.799-0.15-7.197C97.724,66.004,97.36,65.514,96.429,65.253"/>
<path fill="#FFFFFF" d="M92.937,51.499c-1.226-0.573-2.514-0.208-3.77-0.224c-1.506-0.018-3.013,0.121-4.521,0.163
	c-4.003,0.113-8.01,0.175-12.012,0.332c-1.597,0.061-3.186,0.31-4.778,0.485c-1.306,0.143-1.488,0.006-1.514-1.315
	c-0.036-1.84-0.026-3.681-0.076-5.521c-0.015-0.533-0.168-1.061-0.254-1.569c-0.862,0.027-0.898,0.539-0.896,1.007
	c0.006,1.739-0.29,3.457-0.046,5.217c0.311,2.26,0.147,2.403-2.104,2.621c-2.436,0.237-4.879,0.16-7.318-0.073
	c-0.723-0.068-0.973-0.45-0.974-1.115c-0.013-5.043,1.26-9.584,4.958-13.261c1.115-1.107,2.201-2.18,3.657-2.839
	c0.458-0.206,0.801-0.651,1.229-0.94c0.815-0.552,1.615-1.141,2.491-1.581c0.869-0.437,1.09-0.328,1.641,0.469
	c0.694,1.005,1.271,2.105,2.052,3.036c1.721,2.054,3.678,3.801,6.488,4.217c3.675,0.543,6.961-0.259,9.605-2.952
	c1.117-1.137,2.038-2.465,3.041-3.71c0.318-0.396,0.617-0.808,1.031-1.353c0.494,0.92,0.914,1.683,1.316,2.456
	c0.941,1.804,2.57,2.383,4.441,2.361c1.024-0.012,1.846,0.323,2.59,0.934c0.537,0.442,0.599,1.373,0.144,1.899
	c-0.073,0.084-0.329,0.013-0.639,0.013c0.362,1.208-0.085,2.248-0.414,3.336c-0.309,1.028-0.445,2.115-0.575,3.188
	c-0.086,0.71,0.179,1.292,1.084,1.466c0.112-0.368,0.327-0.723,0.31-1.064c-0.123-2.299,0.862-4.323,1.534-6.426
	c0.043-0.134,0.084-0.27,0.136-0.401c0.507-1.271,0.413-2.49-0.443-3.616c0.3-0.37,0.494-0.704,0.771-0.94
	c0.968-0.826,1.601-1.87,1.943-3.066c0.224-0.777,0.696-0.997,1.429-1.097c2.132-0.291,4.231,0.061,6.339,0.229
	c1.203,0.097,2.463,0.062,3.595,0.854c0.035,1.159-0.619,2.149-1.141,3.088c-1.508,2.717-3.073,5.418-4.827,7.981
	c-1.388,2.03-3.269,3.621-5.441,4.856c-0.846,0.482-1.648,1.141-2.272,1.884c-0.76,0.908-1.622,0.891-2.658,0.855
	c-1.721-0.059-3.447,0.061-5.172,0.105L92.937,51.499z M93.086,40.621c-0.922,0.457-0.806,1.122-0.73,1.68
	c0.343,2.519,0.727,5.03,1.123,7.541c0.037,0.238,0.257,0.449,0.377,0.649c0.721-0.128,0.764-0.627,0.754-1.096
	c-0.017-0.75-0.038-1.509-0.164-2.246c-0.278-1.622-0.616-3.234-0.944-4.848C93.394,41.775,93.246,41.259,93.086,40.621"/>
<path fill="#FFFFFF" d="M53.929,62.782c-0.079,0.404-0.12,0.62-0.204,1.053c1.831-0.276,3.619,0.053,5.391-0.35
	c-1.026-0.616-2.173-0.228-3.432-0.544c1.668-0.308,3.152-0.582,4.766-0.879c0.376,0.78,0.189,1.736,0.222,2.64
	c0.107,3.098,0.174,6.195,0.192,9.296c0.009,1.456-0.188,2.916-0.181,4.374c0.009,1.504,0.161,3.007,0.236,4.514
	c0.093,1.83,0.193,3.663,0.252,5.496c0.121,3.816,0.253,7.633,0.312,11.446c0.045,2.872-0.017,5.748-0.042,8.62
	c-0.004,0.372-0.054,0.753-0.131,1.12c-0.11,0.518-0.444,0.82-0.993,0.836c-1.267,0.033-2.533,0.065-3.8,0.087
	c-1.791,0.031-3.58,0.05-5.369,0.075c-1.792,0.027-3.583,0.056-5.375,0.081c-3.303,0.045-6.602,0.043-9.881-0.456
	c-0.788-0.119-1.601-0.06-2.402-0.091c-3.014-0.117-6.031-0.19-9.041-0.378c-2.02-0.126-2.024-0.199-2.034-2.185
	c-0.011-2.312,0.023-4.623-0.021-6.936c-0.022-1.176-0.221-2.346-0.255-3.522c-0.137-4.522-0.242-9.046-0.352-13.571
	c-0.1-4.194-0.139-8.393-0.311-12.584c-0.065-1.593-0.407-3.177-0.65-4.763c-0.388-2.537-0.199-2.727,2.387-2.764
	c3.771-0.054,7.542-0.202,11.312-0.251c4.104-0.054,8.209-0.008,12.312-0.067C49.143,63.047,51.448,62.891,53.929,62.782
	 M56.59,103.444c0-0.74-0.03-1.395,0.007-2.046c0.07-1.272,0.263-2.541,0.253-3.809c-0.02-3.015-0.128-6.027-0.201-9.042
	c-0.104-4.287-0.116-8.581-0.343-12.862c-0.143-2.688-0.454-5.352,0.242-8.013c0.223-0.855-0.038-1.099-0.944-1.104
	c-3.87-0.027-7.739-0.021-11.607-0.068c-1.555-0.019-3.108-0.182-4.663-0.198c-2.31-0.023-4.64-0.162-6.922,0.091
	c-2.16,0.241-4.273,0.366-6.505-0.134c0,1.064-0.078,2.045,0.018,3.009c0.164,1.642,0.618,3.271,0.626,4.907
	c0.019,3.739,0.582,7.425,0.877,11.133c0.406,5.123,0.808,10.245,1.221,15.367c0.054,0.658,0.169,1.309,0.249,1.966
	c0.075,0.62,0.451,0.913,1.042,0.946c1.409,0.079,2.818,0.205,4.228,0.199c2.252-0.008,4.505-0.108,6.759-0.163
	c0.424-0.009,0.849,0.006,1.273,0.023c2.159,0.091,4.316,0.197,6.477,0.272c2.072,0.071,4.146,0.099,6.217,0.172
	C55.544,104.114,56.106,103.988,56.59,103.444"/>
<path fill="#FFFFFF" d="M93.811,61.421c0-0.569-0.018-1.029,0.003-1.485c0.093-2.119,0.194-4.236,0.295-6.354
	c0.06-1.258,0.294-1.416,1.554-1.391c1.882,0.039,3.765-0.016,5.646-0.002c2.962,0.022,5.923,0.076,8.884,0.105
	c3.633,0.035,7.266,0.04,10.897,0.088c3.301,0.044,6.599,0.163,9.898,0.186c1.595,0.011,3.191-0.126,4.872-0.2
	c0.045,0.446,0.114,0.807,0.112,1.167c-0.016,1.98,0,3.965-0.093,5.942c-0.06,1.276-0.462,1.616-1.526,1.535
	c-4.519-0.346-9.043-0.298-13.566-0.211c-2.874,0.055-5.746,0.247-8.62,0.321c-1.979,0.05-3.963-0.037-5.942,0.008
	c-3.863,0.087-7.725,0.22-11.589,0.332C94.452,61.468,94.267,61.446,93.811,61.421"/>
<path fill="#FFFFFF" d="M13.476,55.684c0.358-0.078,0.668-0.188,0.982-0.205c4-0.208,8-0.413,12.001-0.591
	c2.636-0.118,5.275-0.16,7.91-0.294c1.739-0.091,3.474-0.287,5.21-0.437c0.188-0.017,0.374-0.063,0.562-0.066
	c6.604-0.099,13.206-0.195,19.81-0.285c0.176-0.002,0.353,0.068,0.625,0.124c-0.671,1.287-0.618,2.572-0.394,3.893
	c0.083,0.492-0.025,1.024-0.094,1.532c-0.13,0.964-0.606,1.513-1.677,1.517c-0.6,0.004-1.195,0.257-1.798,0.364
	c-0.881,0.157-1.764,0.371-2.651,0.408c-3.062,0.129-6.127,0.224-9.191,0.27c-3.492,0.055-6.984,0.025-10.477,0.062
	c-1.365,0.014-2.729,0.125-4.093,0.17c-1.65,0.054-3.303,0.05-4.953,0.131c-2.726,0.136-5.451,0.325-8.176,0.485
	c-0.612,0.034-1.227,0.091-1.838,0.063c-1.118-0.05-1.307-0.255-1.354-1.352c-0.023-0.518,0.026-1.041-0.022-1.557
	c-0.104-1.118-0.257-2.232-0.377-3.351C13.451,56.297,13.476,56.022,13.476,55.684"/>
<path fill="#00ADDD" d="M78.549,9.347c1.024-1.047,2.196-1.646,3.443-1.992c2.472-0.687,4.859-0.426,7.031,1.048
	c0.739,0.501,1.438,1.065,2.188,1.546c0.235,0.15,0.583,0.124,0.879,0.178c0.04-0.348,0.223-0.774,0.087-1.026
	c-0.238-0.438-0.653-0.792-1.032-1.141c-2.81-2.581-6.948-3.277-10.371-1.568c-0.802,0.4-1.566,0.87-2.354,1.294
	C77.642,8.104,77.295,8,76.702,7.354c-0.527-0.575-0.28-1.092,0.119-1.5c1.554-1.581,3.41-2.667,5.597-3.106
	c2.391-0.479,4.667-0.058,6.898,0.887c1.781,0.755,3.156,1.836,4.329,3.443c1.194,1.637,1.672,3.285,1.554,5.223
	c-0.118,1.927-0.333,3.863-0.263,5.786c0.116,3.192,0.069,6.43,1.331,9.466c0.291,0.703-0.185,1.035-0.575,1.44
	c-1.294,1.342-1.461,2.819-0.518,4.351c0.464,0.755,1.09,1.092,2.006,1.017c1.182-0.097,2.206-0.476,3.019-1.348
	c0.735-0.789,0.791-1.456,0.168-2.474c-0.22,0.267-0.43,0.483-0.593,0.731c-0.205,0.311-0.327,0.686-0.564,0.966
	c-0.614,0.725-1.852,1.004-2.421,0.595c-0.615-0.443-0.861-2.002-0.433-2.75c0.654-1.144,2.622-2.021,3.921-1.771
	c0.685,0.131,1.039,0.606,1.317,1.171c0.714,1.453,0.12,4.494-1.103,5.696c-1.071,1.054-3.312,1.283-4.934,0.618
	c-2.296-0.939-3.061-2.815-3.177-5.064c-0.09-1.736,0.079-3.491-0.085-5.216c-0.301-3.153-0.88-6.255-2.365-9.118
	c-0.854-1.647-1.892-3.102-3.317-4.342c-1.782-1.552-3.842-2.107-6.101-2.242C79.89,9.775,79.212,9.932,78.549,9.347"/>
<path fill="#00ADDD" d="M67.423,5.06C66.505,6.1,65.487,7.07,64.694,8.2c-0.806,1.146-1.544,2.393-2.029,3.7
	c-0.483,1.308-0.729,2.735-0.879,4.131c-0.145,1.354-0.305,2.774,0.391,4.109c0.856-0.231,0.702-0.806,0.731-1.294
	c0.097-1.643,0.057-3.309,0.329-4.923c0.415-2.467,1.566-4.628,3.314-6.447c1.075-1.119,2.366-1.687,3.939-1.539
	c0.423,0.04,0.849,0.053,1.273,0.046c0.664-0.009,1.154,0.278,1.702,0.933c-4.308,1.341-7.403,3.896-8.762,8.173
	c-0.321,1.011-0.724,2.142-0.101,3.294c0.866-0.224,0.814-0.89,0.858-1.471c0.102-1.339,0.436-2.591,1.145-3.749
	c1.53-2.496,3.711-4.114,6.523-4.858c1.802-0.477,3.112,0.203,3.903,1.978c-1.026,0.676-2.216,0.981-3.381,1.257
	c-2.304,0.544-4.109,1.837-5.679,3.524c-1.156,1.242-1.378,2.881-1.675,4.438c-0.245,1.287-0.272,2.624-0.299,3.94
	c-0.044,2.114,0.09,4.237-0.052,6.342c-0.055,0.828-0.464,1.795-1.034,2.392c-1.096,1.147-2.384,2.062-4.047,2.434
	c-2.362,0.526-4.912-0.761-5.552-3.524c-0.639-2.757,0.149-4.968,2.413-6.368c1.377-0.851,2.268-0.484,2.519,1.091
	c0.094,0.596,0.107,1.23,0.014,1.825c-0.117,0.764-0.65,1.081-1.312,0.927c-0.653-0.15-0.77-0.422-0.574-1.483
	c0.327,0.074,0.652,0.147,1.03,0.233c0.064-0.716-0.186-1.189-0.814-1.351c-0.583-0.149-0.983,0.222-1.295,0.667
	c-0.624,0.895-0.479,2.347,0.287,2.982c0.822,0.681,1.954,0.622,2.849-0.147c0.943-0.812,1.209-1.898,1.157-3.065
	c-0.03-0.653-0.162-1.316-0.347-1.946c-0.594-2.035-1.22-4.06-1.857-6.083c-0.849-2.693-0.374-5.288,0.395-7.918
	c0.58-1.984,1.776-3.393,3.428-4.501c1.25-0.837,2.671-0.972,4.073-1.179C67.327,4.868,67.374,4.964,67.423,5.06 M63.306,28.304
	c-0.533,1.141-0.998,2.32-1.62,3.409c-0.563,0.988-1.495,1.604-2.674,1.537c-1.262-0.073-2.019-0.912-2.503-2.006
	c-0.163-0.368-0.238-0.776-0.372-1.23c-0.499,1.298-0.274,2.177,0.757,3.161c0.846,0.807,2.127,0.977,3.279,0.392
	C62.33,32.476,62.999,30.477,63.306,28.304"/>
<path fill="#FFFFFF" d="M67.462,23.327c-0.073-2.459,0.462-4.604,1.4-6.628c0.649-1.406,1.715-2.503,3.218-3.035
	c1.555-0.549,3.141-1.005,4.703-1.533c0.938-0.316,1.853-0.7,2.876-0.562c1.442,0.194,2.929,0.237,4.314,0.633
	c0.951,0.271,1.839,0.941,2.62,1.594c2.234,1.875,3.239,4.407,3.746,7.302c-0.28-0.041-0.43-0.022-0.53-0.084
	c-3.223-1.966-6.956-1.077-8.948,2.139c-0.623,1.006-0.623,1.006-1.845,1.291c-0.09-0.39-0.19-0.778-0.271-1.171
	c-0.294-1.494-1.068-2.597-2.53-3.158c-0.705-0.271-1.382-0.631-2.104-0.832c-0.568-0.157-1.191-0.215-1.781-0.175
	c-2.225,0.147-3.652,1.357-4.385,3.435c-0.062,0.178-0.147,0.347-0.228,0.518C67.699,23.097,67.657,23.124,67.462,23.327
	 M73.32,18.696c1.497-0.022,2.903-0.318,4.143-1.187c0.348-0.243,1.048-0.33,0.798-0.958c-0.242-0.604-0.829-0.281-1.241-0.172
	c-1.678,0.443-3.325,1.01-5.109,0.872c-0.214-0.016-0.653,0.348-0.642,0.513c0.018,0.255,0.288,0.624,0.53,0.705
	C72.276,18.631,72.81,18.63,73.32,18.696 M86.883,19.843c0.228-0.218,0.723-0.472,0.782-0.803c0.09-0.497-0.447-0.629-0.882-0.698
	c-0.185-0.03-0.374-0.043-0.56-0.073c-1.04-0.168-2.004-0.505-2.831-1.191c-0.285-0.236-0.61-0.456-0.955-0.58
	c-0.408-0.146-0.766,0.217-0.646,0.638c0.075,0.259,0.232,0.521,0.418,0.718C83.417,19.128,85.041,19.455,86.883,19.843"/>
<path fill="#FFFFFF" d="M78.283,32.158c0.629,1.127,1.163,2.156,1.763,3.147c1.054,1.742,2.728,2.085,4.276,0.773
	c1.524-1.292,2.672-2.83,1.987-5.073c1.429-0.685,2.81-1.346,4.417-2.116c-1.674,2.914-2.795,5.887-5.054,8.156
	c-2.563,2.575-8.104,3.724-11.507,0.718c-1.446-1.276-2.625-2.687-3.582-4.324c-0.709-1.214-1.407-2.436-2.099-3.66
	c-0.132-0.235-0.216-0.5-0.272-0.836c1.988,1.813,4.311,1.253,6.542,0.982c0.602,1.519,0.725,1.625,2.305,1.456
	c0.741-0.079,1.474-0.297,2.197-0.5c0.405-0.115,0.393-0.16,0.796-0.964c-1.116-0.73-2.275,0.315-3.617-0.087
	c1.203-1.386,1.509-3.217,3.083-4.515c0.738,1.991,0.724,4.087,2.68,5.262C80.878,31.429,79.281,31.183,78.283,32.158"/>
<path fill="#00ADDD" d="M29.795,45.809c0-0.913-0.025-1.939,0.009-2.962c0.022-0.654,0.492-0.824,1.075-0.87
	c3.613-0.285,7.224-0.6,10.838-0.871c1.079-0.081,2.166-0.028,3.247-0.085c1.505-0.079,3.009-0.215,4.515-0.304
	c0.91-0.053,1.12,0.105,1.171,0.988c0.052,0.893,0.021,1.793,0.003,2.689c-0.013,0.607-0.356,0.956-0.949,1.047
	c-0.326,0.05-0.656,0.085-0.985,0.097c-0.472,0.018-0.945,0.034-1.416,0.009c-4.167-0.219-8.284,0.38-12.417,0.72
	c-0.282,0.023-0.569,0.067-0.847,0.037C32.658,46.155,31.278,45.984,29.795,45.809"/>
<path fill="#FFFFFF" d="M103.57,29.882c-0.492-1.18-1.183-2.307-2.286-3.199c-0.88-0.713-0.868-1.814-0.061-2.602
	c0.563-0.549,1.217-1.082,1.931-1.382c1.842-0.776,3.837-0.764,5.797-0.877c0.462-0.027,0.96,0.052,1.108,0.802
	c-1.25,1.269-3.205,0.635-4.757,1.547c0.245,0.35,0.384,0.773,0.662,0.901c0.697,0.324,1.032,0.821,1.312,1.527
	c0.493,1.252,1.63,1.539,2.933,0.849c0.409-0.217,0.763-0.63,1.268-0.271c0.471,0.335,1.217,0.416,1.207,1.223
	c-0.007,0.644-0.756,1.584-1.452,1.75c-0.405,0.096-0.842,0.11-1.261,0.09C107.867,30.136,105.767,30.007,103.57,29.882"/>
<path fill="#FFFFFF" d="M72.287,28.813c-0.304,0-0.541,0.008-0.776-0.002c-2.051-0.084-3.411-1.312-3.012-3.948
	c0.063-0.417,0.194-0.826,0.308-1.233c0.338-1.202,0.743-2.571,2.037-2.846c1.613-0.342,3.392-0.605,4.783,0.822
	c0.491,0.502,1.107,0.924,1.461,1.508c1.073,1.764,0.383,3.451-1.505,4.832C74.607,28.66,73.426,28.858,72.287,28.813
	 M72.281,24.758c0.143,0.466,0.193,0.97,0.446,1.334c0.169,0.245,0.632,0.411,0.945,0.386c0.192-0.015,0.505-0.462,0.497-0.707
	c-0.03-0.839-0.142-1.681-0.303-2.506c-0.04-0.205-0.381-0.482-0.586-0.484c-0.2-0.002-0.499,0.266-0.588,0.484
	C72.5,23.735,72.413,24.25,72.281,24.758"/>
<path fill="#FFFFFF" d="M85.258,21.483c0.081,0.308,0.148,0.567,0.244,0.931c0.588-0.112,1.127-0.238,1.676-0.316
	c1.958-0.28,3.072,0.556,3.37,2.508c0.233,1.54-0.591,3.188-1.958,3.931c-1.268,0.691-2.649,0.997-4.064,1.091
	c-1.896,0.125-3.571-1.625-3.291-3.589c0.155-1.085,0.633-2.168,1.17-3.14C82.957,21.896,83.944,21.401,85.258,21.483 M86.143,25.52
	c0.018-1.234-0.215-1.687-0.792-1.729c-0.587-0.043-1.077,0.564-1.15,1.502c-0.024,0.313-0.021,0.706,0.143,0.936
	c0.188,0.262,0.578,0.534,0.868,0.522c0.286-0.012,0.62-0.328,0.816-0.597C86.172,25.955,86.128,25.62,86.143,25.52"/>
<path fill="#00ADDD" d="M58.932,36.519c-0.66,1.322-1.985,2.072-3.286,1.778c-3.045-0.689-5.312-3.535-4.474-6.741
	c0.262-1,0.576-1.994,0.976-2.943c0.315-0.747,0.489-0.763,1.558-0.692c-0.117,1.623-0.207,3.25-0.362,4.873
	c-0.083,0.86-0.167,1.679,0.395,2.435c0.758,1.024,1.583,1.333,2.822,0.993C57.665,35.92,57.685,35.922,58.932,36.519"/>
<path fill="#00ADDD" d="M54.761,19.559c-0.495-0.461-0.851-0.225-1.186,0.044c-1.024,0.824-1.228,2.744-0.342,3.716
	c0.222,0.244,0.646,0.393,0.991,0.422c1.599,0.14,2.819-0.583,3.78-1.802c0.227-0.288,0.394-0.622,0.746-1.185
	c0.243,0.813,0.419,1.404,0.58,1.942c-1.203,0.73-2.293,1.446-3.435,2.064c-1.069,0.581-2.185,0.84-3.353,0.148
	c-0.669-0.396-1.027-0.96-1.148-1.688c-0.299-1.816,1.332-4.12,3.136-4.444c0.275-0.05,0.593-0.12,0.836-0.032
	c0.506,0.183,1.152,0.347,1.42,0.738c0.393,0.577,0.135,1.294-0.333,1.816c-0.274,0.306-0.635,0.555-1.001,0.753
	c-0.451,0.245-0.923,0.223-1.275-0.212c-0.363-0.448-0.417-0.947-0.09-1.437C54.282,20.106,54.528,19.845,54.761,19.559"/>
<path fill="#00ADDD" d="M96.387,13.012c0.139,1.35,0.401,2.701,0.391,4.049c-0.021,2.458,0.709,4.634,2.048,6.652
	c0.671,1.012,0.731,1.309,0.7,2.788c-2.041,1.14-2.311,1.059-2.79-1.18c-0.425-1.979-0.719-3.987-1.063-5.983
	c-0.031-0.184-0.048-0.377-0.03-0.563c0.188-1.915,0.386-3.83,0.581-5.744C96.276,13.026,96.332,13.019,96.387,13.012"/>
<path fill="#FFFFFF" d="M106.282,14.923c0-1.08-0.016-2.161,0.01-3.241c0.008-0.322,0.108-0.649,0.21-0.96
	c0.135-0.411,0.344-0.89,0.85-0.737c0.252,0.075,0.491,0.511,0.563,0.825c0.592,2.555,0.371,5.14,0.196,7.718
	c-0.024,0.37-0.121,0.753-0.274,1.09c-0.104,0.222-0.36,0.507-0.56,0.515c-0.198,0.009-0.534-0.259-0.59-0.466
	c-0.199-0.72-0.365-1.462-0.427-2.205c-0.07-0.841-0.017-1.692-0.017-2.539L106.282,14.923z"/>
<path fill="#FFFFFF" d="M101.823,11.699c1.194,0.992,2.946,5.712,3.279,8.754c-0.558,0.199-1.148,0.408-1.725,0.612
	C102.643,19.557,101.524,12.875,101.823,11.699"/>
<path fill="#FFFFFF" d="M84.736,31.384c0.199,1.63-0.482,3.106-1.496,3.654c-1.194,0.647-2.482-0.118-2.426-1.476
	c0.01-0.276,0.213-0.686,0.438-0.788C82.347,32.283,83.479,31.875,84.736,31.384"/>
<path fill="#FFFFFF" d="M112.423,25.578c-0.075-0.396-0.237-0.797-0.208-1.185c0.103-1.349,0.25-2.694,0.43-4.034
	c0.047-0.358,0.235-0.714,0.427-1.031c0.216-0.358,0.528-0.801,0.987-0.5c0.219,0.143,0.338,0.665,0.274,0.968
	c-0.316,1.561-0.695,3.11-1.081,4.656c-0.097,0.392-0.298,0.758-0.45,1.136C112.675,25.585,112.549,25.582,112.423,25.578"/>
<path fill="#00ADDD" d="M120.46,48.336c-0.632,0.048-1.263,0.116-1.896,0.142c-1.348,0.053-2.697,0.109-4.048,0.104
	c-0.26-0.001-0.699-0.244-0.738-0.438c-0.102-0.496,0.35-0.594,0.733-0.611c1.723-0.078,3.449-0.308,5.17-0.008
	c0.311,0.054,0.598,0.24,0.896,0.363C120.538,48.039,120.499,48.187,120.46,48.336"/>
<path fill="#FFFFFF" d="M111.611,18.665c-0.052,0.212-0.115,0.733-0.311,1.199c-0.108,0.259-0.438,0.599-0.661,0.593
	c-0.316-0.008-0.72-0.228-0.92-0.485c-0.46-0.589-0.283-2.151,0.298-2.62c0.252-0.204,0.682-0.307,1.01-0.267
	C111.475,17.138,111.616,17.549,111.611,18.665"/>
<path fill="#00ADDD" d="M56.231,35.636c-1.735,0.171-2.287-0.396-2.279-2.193C54.926,33.926,55.596,34.626,56.231,35.636"/>
<path fill="#FFFFFF" d="M110.722,24.522c-0.232,0.435-0.398,0.936-0.729,1.277c-0.176,0.183-0.763,0.236-0.944,0.085
	c-0.393-0.327-0.251-0.78,0.173-1.044c0.384-0.239,0.81-0.406,1.218-0.604C110.534,24.331,110.627,24.426,110.722,24.522"/>
<path fill="#231F20" d="M96.429,65.253c0.932,0.261,1.295,0.751,1.313,1.478c0.062,2.398,0.085,4.797,0.15,7.197
	c0.055,1.978,0.068,3.963,0.24,5.932c0.354,4.084,0.993,8.138,1.072,12.25c0.058,3.059,0.303,6.116,0.447,9.174
	c0.018,0.37-0.071,0.747-0.106,1.122c-0.113,1.188,0.104,1.64,1.282,1.747c2.06,0.188,4.137,0.282,6.204,0.244
	c1.736-0.033,3.473-0.278,5.2-0.495c2.478-0.311,4.946-0.67,7.419-1.025c1.259-0.182,2.519-0.369,3.771-0.599
	c1.09-0.199,1.157-0.255,1.244-1.365c0.188-2.396,0.304-4.8,0.494-7.196c0.207-2.632,0.504-5.257,0.691-7.889
	c0.289-4.051,0.336-8.103-0.002-12.154c-0.111-1.314-0.096-2.64-0.116-3.961c-0.037-2.487-0.18-2.602-2.649-2.644
	c-2.448-0.041-4.896-0.217-7.344-0.225c-2.681-0.01-5.36,0.114-8.041,0.166c-0.562,0.01-1.128-0.052-1.69-0.063
	c-0.657-0.016-1.316-0.054-1.968-0.008c-0.7,0.049-1.379,0.243-2.056-0.196c-0.229-0.149-0.635-0.031-0.961-0.027
	c-0.563,0.004-1.13,0.05-1.69,0.012c-0.472-0.033-0.92-0.182-1.111-0.896c0.391-0.071,0.729-0.186,1.068-0.188
	c2.358-0.018,4.719-0.014,7.077-0.016c0.33-0.002,0.665,0.025,0.989-0.022c4.336-0.655,8.65-0.093,12.97,0.21
	c0.466,0.033,0.938-0.06,1.409-0.052c1.503,0.021,3.007,0.05,4.51,0.106c0.713,0.026,0.895,0.459,0.911,1.146
	c0.066,2.822,0.262,5.642,0.286,8.463c0.025,3.109-0.019,6.221-0.155,9.326c-0.148,3.39-0.417,6.775-0.669,10.159
	c-0.165,2.209-0.383,4.413-0.603,6.616c-0.084,0.834-0.562,1.395-1.389,1.594c-0.642,0.154-1.292,0.279-1.942,0.388
	c-2.513,0.409-5.022,0.838-7.543,1.197c-1.679,0.24-3.369,0.416-5.06,0.537c-2.296,0.164-4.597,0.296-6.896,0.35
	c-1.026,0.025-2.089-0.042-3.079-0.296c-1.564-0.399-1.918-1.01-1.877-2.626c0.003-0.095,0.044-0.205,0.008-0.28
	c-0.757-1.597-0.163-3.256-0.206-4.878c-0.112-4.29-0.235-8.567-0.77-12.836c-0.416-3.317-0.654-6.661-0.864-10
	c-0.097-1.541,0.099-3.1,0.097-4.65c0-1.082-0.131-2.161-0.167-3.243C96.313,66.348,96.388,65.854,96.429,65.253"/>
<path fill="none" stroke="#231F20" stroke-miterlimit="10" d="M96.429,65.253c0.932,0.261,1.295,0.751,1.313,1.478
	c0.062,2.398,0.085,4.797,0.15,7.197c0.055,1.978,0.068,3.963,0.24,5.932c0.354,4.084,0.993,8.138,1.072,12.25
	c0.058,3.059,0.303,6.116,0.447,9.174c0.018,0.37-0.071,0.747-0.106,1.122c-0.113,1.188,0.104,1.64,1.282,1.747
	c2.06,0.188,4.137,0.282,6.204,0.244c1.736-0.033,3.473-0.278,5.2-0.495c2.478-0.311,4.946-0.67,7.419-1.025
	c1.259-0.182,2.519-0.369,3.771-0.599c1.09-0.199,1.157-0.255,1.244-1.365c0.188-2.396,0.304-4.8,0.494-7.196
	c0.207-2.632,0.504-5.257,0.691-7.889c0.289-4.051,0.336-8.103-0.002-12.154c-0.111-1.314-0.096-2.64-0.116-3.961
	c-0.037-2.487-0.18-2.602-2.649-2.644c-2.448-0.041-4.896-0.217-7.344-0.225c-2.681-0.01-5.36,0.114-8.041,0.166
	c-0.562,0.01-1.128-0.052-1.69-0.063c-0.657-0.016-1.316-0.054-1.968-0.008c-0.7,0.049-1.379,0.243-2.056-0.196
	c-0.229-0.149-0.635-0.031-0.961-0.027c-0.563,0.004-1.13,0.05-1.69,0.012c-0.472-0.033-0.92-0.182-1.111-0.896
	c0.391-0.071,0.729-0.186,1.068-0.188c2.358-0.018,4.719-0.014,7.077-0.016c0.33-0.002,0.665,0.025,0.989-0.022
	c4.336-0.655,8.65-0.093,12.97,0.21c0.466,0.033,0.938-0.06,1.409-0.052c1.503,0.021,3.007,0.05,4.51,0.106
	c0.713,0.026,0.895,0.459,0.911,1.146c0.066,2.822,0.262,5.642,0.286,8.463c0.025,3.109-0.019,6.221-0.155,9.326
	c-0.148,3.39-0.417,6.775-0.669,10.159c-0.165,2.209-0.383,4.413-0.603,6.616c-0.084,0.834-0.562,1.395-1.389,1.594
	c-0.642,0.154-1.292,0.279-1.942,0.388c-2.513,0.409-5.022,0.838-7.543,1.197c-1.679,0.24-3.369,0.416-5.06,0.537
	c-2.296,0.164-4.597,0.296-6.896,0.35c-1.026,0.025-2.089-0.042-3.079-0.296c-1.564-0.399-1.918-1.01-1.877-2.626
	c0.003-0.095,0.044-0.205,0.008-0.28c-0.757-1.597-0.163-3.256-0.206-4.878c-0.112-4.29-0.235-8.567-0.77-12.836
	c-0.416-3.317-0.654-6.661-0.864-10c-0.097-1.541,0.099-3.1,0.097-4.65c0-1.082-0.131-2.161-0.167-3.243
	C96.313,66.348,96.388,65.854,96.429,65.253z"/>
<path fill="#231F20" d="M65.367,80.188c0.082-5.16,2.021-9.435,6.186-12.569c1.733-1.305,3.652-2.018,5.952-1.569
	c1.659,0.322,3.392,0.32,4.945,1.073c4.087,1.983,6.438,5.18,6.815,9.784c0.192,2.371,0.178,4.72-0.575,6.985
	c-0.412,1.24-1.045,2.412-1.636,3.586c-0.184,0.361-0.515,0.693-0.857,0.92c-4.076,2.692-8.612,3.671-13.227,2.25
	C68.187,89.174,65.248,85.956,65.367,80.188 M88.376,78.963c-0.092-0.865-0.162-1.76-0.287-2.644
	c-0.479-3.405-2.238-5.93-5.235-7.621c-1.78-1.006-3.758-1.155-5.711-1.479c-2.498-0.413-4.606,0.448-6.33,2.066
	c-3.06,2.874-4.672,6.497-4.627,10.727c0.021,1.987,0.322,3.979,1.589,5.632c2.261,2.952,5.381,4.279,8.995,4.268
	c2.298-0.008,4.592-0.405,6.781-1.261c1.344-0.525,2.285-1.398,3.057-2.594C88.007,83.886,88.075,81.426,88.376,78.963"/>
<path fill="none" stroke="#231F20" stroke-miterlimit="10" d="M65.367,80.188c0.082-5.16,2.021-9.435,6.186-12.569
	c1.733-1.305,3.652-2.018,5.952-1.569c1.659,0.322,3.392,0.32,4.945,1.073c4.087,1.983,6.438,5.18,6.815,9.784
	c0.192,2.371,0.178,4.72-0.575,6.985c-0.412,1.24-1.045,2.412-1.636,3.586c-0.184,0.361-0.515,0.693-0.857,0.92
	c-4.076,2.692-8.612,3.671-13.227,2.25C68.187,89.174,65.248,85.956,65.367,80.188z M88.376,78.963
	c-0.092-0.865-0.162-1.76-0.287-2.644c-0.479-3.405-2.238-5.93-5.235-7.621c-1.78-1.006-3.758-1.155-5.711-1.479
	c-2.498-0.413-4.606,0.448-6.33,2.066c-3.06,2.874-4.672,6.497-4.627,10.727c0.021,1.987,0.322,3.979,1.589,5.632
	c2.261,2.952,5.381,4.279,8.995,4.268c2.298-0.008,4.592-0.405,6.781-1.261c1.344-0.525,2.285-1.398,3.057-2.594
	C88.007,83.886,88.075,81.426,88.376,78.963z"/>
<path fill="#231F20" d="M93.086,40.621c0.16,0.638,0.308,1.155,0.415,1.68c0.328,1.614,0.666,3.226,0.944,4.848
	c0.126,0.737,0.147,1.496,0.164,2.246c0.01,0.469-0.033,0.968-0.754,1.096c-0.12-0.2-0.34-0.411-0.377-0.649
	c-0.396-2.511-0.78-5.022-1.123-7.541C92.28,41.743,92.164,41.078,93.086,40.621"/>
<path fill="none" stroke="#231F20" stroke-miterlimit="10" d="M93.086,40.621c0.16,0.638,0.308,1.155,0.415,1.68
	c0.328,1.614,0.666,3.226,0.944,4.848c0.126,0.737,0.147,1.496,0.164,2.246c0.01,0.469-0.033,0.968-0.754,1.096
	c-0.12-0.2-0.34-0.411-0.377-0.649c-0.396-2.511-0.78-5.022-1.123-7.541C92.28,41.743,92.164,41.078,93.086,40.621z"/>
<path fill="#231F20" d="M56.59,103.444c-0.484,0.544-1.046,0.67-1.698,0.646c-2.071-0.073-4.145-0.101-6.217-0.172
	c-2.16-0.075-4.318-0.182-6.476-0.272c-0.425-0.018-0.85-0.032-1.274-0.023c-2.253,0.055-4.506,0.155-6.76,0.163
	c-1.408,0.006-2.818-0.12-4.227-0.199c-0.59-0.033-0.967-0.326-1.042-0.946c-0.08-0.657-0.195-1.31-0.249-1.966
	c-0.413-5.122-0.815-10.244-1.221-15.367c-0.295-3.708-0.859-7.394-0.877-11.133c-0.008-1.636-0.462-3.266-0.626-4.907
	c-0.096-0.964-0.018-1.944-0.018-3.009c2.232,0.5,4.345,0.375,6.505,0.134c2.282-0.253,4.613-0.116,6.922-0.089
	c1.554,0.015,3.108,0.178,4.663,0.196c3.868,0.047,7.738,0.041,11.607,0.068c0.907,0.006,1.167,0.249,0.943,1.104
	c-0.695,2.663-0.383,5.324-0.241,8.013c0.227,4.281,0.239,8.575,0.342,12.862c0.072,3.015,0.182,6.027,0.203,9.042
	c0.009,1.268-0.184,2.536-0.255,3.809C56.56,102.05,56.59,102.704,56.59,103.444 M54.777,68.297
	c-0.67-0.083-1.266-0.199-1.865-0.221c-1.69-0.06-3.383-0.095-5.076-0.112c-0.562-0.006-1.126,0.089-1.689,0.106
	c-1.082,0.035-2.165,0.075-3.246,0.055c-0.94-0.018-1.879-0.176-2.817-0.17c-4.235,0.026-8.469,0.088-12.704,0.145
	c-0.078,0.002-0.155,0.095-0.373,0.233c0.024,0.514,0,1.116,0.091,1.703c0.395,2.563,0.717,5.124,0.713,7.733
	c-0.003,1.831,0.252,3.665,0.42,5.494c0.407,4.409,0.835,8.816,1.246,13.224c0.109,1.175,0.237,2.349,0.273,3.522
	c0.073,2.384,0.048,2.416,2.5,2.434c5,0.037,10,0.01,14.998,0.06c2.166,0.021,4.33,0.197,6.496,0.25
	c1.149,0.028,1.414-0.211,1.466-1.238c0.114-2.21,0.231-4.423,0.255-6.634c0.017-1.41-0.196-2.822-0.191-4.231
	c0.008-2.115,0.126-4.226,0.179-6.339c0.022-0.848,0.07-1.705-0.025-2.545C54.934,77.366,54.58,72.961,54.777,68.297"/>
<path fill="none" stroke="#231F20" stroke-miterlimit="10" d="M56.59,103.444c-0.484,0.544-1.046,0.67-1.698,0.646
	c-2.071-0.073-4.145-0.101-6.217-0.172c-2.16-0.075-4.318-0.182-6.476-0.272c-0.425-0.018-0.85-0.032-1.274-0.023
	c-2.253,0.055-4.506,0.155-6.76,0.163c-1.408,0.006-2.818-0.12-4.227-0.199c-0.59-0.033-0.967-0.326-1.042-0.946
	c-0.08-0.657-0.195-1.31-0.249-1.966c-0.413-5.122-0.815-10.244-1.221-15.367c-0.295-3.708-0.859-7.394-0.877-11.133
	c-0.008-1.636-0.462-3.266-0.626-4.907c-0.096-0.964-0.018-1.944-0.018-3.009c2.232,0.5,4.345,0.375,6.505,0.134
	c2.282-0.253,4.613-0.116,6.922-0.089c1.554,0.015,3.108,0.178,4.663,0.196c3.868,0.047,7.738,0.041,11.607,0.068
	c0.907,0.006,1.167,0.249,0.943,1.104c-0.695,2.663-0.383,5.324-0.241,8.013c0.227,4.281,0.239,8.575,0.342,12.862
	c0.072,3.015,0.182,6.027,0.203,9.042c0.009,1.268-0.184,2.536-0.255,3.809C56.56,102.05,56.59,102.704,56.59,103.444z
	 M54.777,68.297c-0.67-0.083-1.266-0.199-1.865-0.221c-1.69-0.06-3.383-0.095-5.076-0.112c-0.562-0.006-1.126,0.089-1.689,0.106
	c-1.082,0.035-2.165,0.075-3.246,0.055c-0.94-0.018-1.879-0.176-2.817-0.17c-4.235,0.026-8.469,0.088-12.704,0.145
	c-0.078,0.002-0.155,0.095-0.373,0.233c0.024,0.514,0,1.116,0.091,1.703c0.395,2.563,0.717,5.124,0.713,7.733
	c-0.003,1.831,0.252,3.665,0.42,5.494c0.407,4.409,0.835,8.816,1.246,13.224c0.109,1.175,0.237,2.349,0.273,3.522
	c0.073,2.384,0.048,2.416,2.5,2.434c5,0.037,10,0.01,14.998,0.06c2.166,0.021,4.33,0.197,6.496,0.25
	c1.149,0.028,1.414-0.211,1.466-1.238c0.114-2.21,0.231-4.423,0.255-6.634c0.017-1.41-0.196-2.822-0.191-4.231
	c0.008-2.115,0.126-4.226,0.179-6.339c0.022-0.848,0.07-1.705-0.025-2.545C54.934,77.366,54.58,72.961,54.777,68.297z"/>
<path fill="#231F20" d="M63.306,28.304c-0.307,2.173-0.977,4.172-3.132,5.263c-1.152,0.585-2.434,0.415-3.279-0.392
	c-1.031-0.983-1.255-1.863-0.757-3.161c0.134,0.454,0.208,0.862,0.372,1.23c0.484,1.094,1.241,1.933,2.503,2.006
	c1.179,0.067,2.111-0.549,2.674-1.537C62.309,30.625,62.773,29.445,63.306,28.304"/>
<path fill="none" stroke="#231F20" stroke-miterlimit="10" d="M63.306,28.304c-0.307,2.173-0.977,4.172-3.132,5.263
	c-1.152,0.585-2.434,0.415-3.279-0.392c-1.031-0.983-1.255-1.863-0.757-3.161c0.134,0.454,0.208,0.862,0.372,1.23
	c0.484,1.094,1.241,1.933,2.503,2.006c1.179,0.067,2.111-0.549,2.674-1.537C62.309,30.625,62.773,29.445,63.306,28.304z"/>
<path fill="#231F20" d="M73.32,18.696c-0.51-0.066-1.044-0.064-1.521-0.227c-0.242-0.082-0.512-0.45-0.53-0.705
	c-0.011-0.165,0.428-0.529,0.642-0.512c1.784,0.136,3.43-0.43,5.109-0.873c0.41-0.109,0.998-0.431,1.24,0.173
	c0.251,0.628-0.449,0.714-0.797,0.958C76.223,18.378,74.815,18.674,73.32,18.696"/>
<path fill="none" stroke="#231F20" stroke-miterlimit="10" d="M73.32,18.696c-0.51-0.066-1.044-0.064-1.521-0.227
	c-0.242-0.082-0.512-0.45-0.53-0.705c-0.011-0.165,0.428-0.529,0.642-0.512c1.784,0.136,3.43-0.43,5.109-0.873
	c0.41-0.109,0.998-0.431,1.24,0.173c0.251,0.628-0.449,0.714-0.797,0.958C76.223,18.378,74.815,18.674,73.32,18.696z"/>
<path fill="#231F20" d="M86.883,19.843c-1.842-0.388-3.466-0.714-4.673-1.989c-0.186-0.197-0.343-0.459-0.418-0.718
	c-0.12-0.421,0.237-0.784,0.646-0.638c0.345,0.124,0.67,0.344,0.955,0.58c0.827,0.686,1.791,1.022,2.831,1.191
	c0.186,0.03,0.375,0.043,0.56,0.073c0.435,0.069,0.972,0.201,0.882,0.698C87.605,19.371,87.11,19.625,86.883,19.843"/>
<path fill="none" stroke="#231F20" stroke-miterlimit="10" d="M86.883,19.843c-1.842-0.388-3.466-0.714-4.673-1.989
	c-0.186-0.197-0.343-0.459-0.418-0.718c-0.12-0.421,0.237-0.784,0.646-0.638c0.345,0.124,0.67,0.344,0.955,0.58
	c0.827,0.686,1.791,1.022,2.831,1.191c0.186,0.03,0.375,0.043,0.56,0.073c0.435,0.069,0.972,0.201,0.882,0.698
	C87.605,19.371,87.11,19.625,86.883,19.843z"/>
<path fill="#231F20" d="M72.281,24.758c0.132-0.508,0.219-1.022,0.41-1.492c0.09-0.218,0.388-0.486,0.588-0.484
	c0.205,0.002,0.546,0.28,0.586,0.484c0.161,0.825,0.273,1.667,0.303,2.506c0.009,0.244-0.304,0.691-0.497,0.707
	c-0.313,0.025-0.776-0.141-0.945-0.386C72.474,25.728,72.423,25.224,72.281,24.758"/>
<path fill="none" stroke="#231F20" stroke-miterlimit="10" d="M72.281,24.758c0.132-0.508,0.219-1.022,0.41-1.492
	c0.09-0.218,0.388-0.486,0.588-0.484c0.205,0.002,0.546,0.28,0.586,0.484c0.161,0.825,0.273,1.667,0.303,2.506
	c0.009,0.244-0.304,0.691-0.497,0.707c-0.313,0.025-0.776-0.141-0.945-0.386C72.474,25.728,72.423,25.224,72.281,24.758z"/>
<path fill="#231F20" d="M86.143,25.52c-0.015,0.1,0.029,0.436-0.115,0.633c-0.196,0.269-0.53,0.585-0.816,0.597
	c-0.29,0.011-0.681-0.261-0.868-0.522c-0.164-0.23-0.167-0.622-0.143-0.936c0.073-0.938,0.563-1.545,1.15-1.502
	C85.928,23.833,86.16,24.285,86.143,25.52"/>
<path fill="none" stroke="#231F20" stroke-miterlimit="10" d="M86.143,25.52c-0.015,0.1,0.029,0.436-0.115,0.633
	c-0.196,0.269-0.53,0.585-0.816,0.597c-0.29,0.011-0.681-0.261-0.868-0.522c-0.164-0.23-0.167-0.622-0.143-0.936
	c0.073-0.938,0.563-1.545,1.15-1.502C85.928,23.833,86.16,24.285,86.143,25.52z"/>
<path fill="#FFFFFF" d="M88.376,78.963c-0.302,2.463-0.369,4.921-1.769,7.092c-0.771,1.197-1.713,2.07-3.057,2.596
	c-2.189,0.855-4.483,1.253-6.781,1.261c-3.613,0.012-6.734-1.315-8.995-4.268c-1.267-1.653-1.568-3.645-1.589-5.632
	c-0.044-4.231,1.567-7.853,4.627-10.727c1.723-1.616,3.832-2.479,6.33-2.066c1.953,0.324,3.931,0.474,5.712,1.479
	c2.996,1.693,4.755,4.216,5.234,7.621C88.214,77.203,88.284,78.098,88.376,78.963 M80.729,73.017
	c0.561-0.132,0.946-0.44,1.197-0.887c-0.07-0.069-0.139-0.137-0.208-0.206c-0.326,0.368-0.651,0.737-0.978,1.106
	c-0.309-0.944-0.913-1.561-2.03-1.634c0.205-0.472,0.383-0.798,0.49-1.147c0.235-0.761-0.041-1.17-0.855-1.232
	c-0.889-0.065-1.624,0.146-2.186,0.97c-0.54,0.794-0.802,1.539-0.495,2.483c0.171,0.529,0.194,1.108,0.264,1.667
	c0.216,1.699,0.894,2.136,2.492,1.555c0.673-0.245,1.275-0.579,1.578-1.308C80.196,73.909,80.483,73.471,80.729,73.017
	 M71.458,73.982c-0.73,1.344-0.965,2.679-0.897,4.044c0.15,3.092,0.388,6.182,0.938,9.235c0.011,0.054,0.143,0.087,0.368,0.216
	c0.05-1.828,0.095-3.58,0.149-5.334c0.053-1.75,0.114-3.499,0.184-5.539c0.591,0.421,0.958,0.675,1.319,0.942
	c1.021,0.754,2.032,1.524,3.062,2.268c0.539,0.391,1.029,0.35,1.474-0.206c1.291-1.611,3.171-2.488,4.74-3.751
	c0.042-0.037,0.17,0.033,0.329,0.073c0.507,3.188,0.29,6.491,1.069,9.684c0.562-1.269,0.94-2.538,0.751-3.93
	c-0.131-0.978-0.156-1.971-0.26-2.953c-0.148-1.406-0.309-2.811-0.5-4.211c-0.04-0.293-0.238-0.565-0.466-1.081
	c-2.183,1.539-4.11,3.177-6.243,4.688C75.467,76.742,73.5,75.388,71.458,73.982 M80.105,85.116c0.339-0.274,0.569-0.367,0.594-0.498
	c0.106-0.588,0.259-1.198,0.196-1.777c-0.08-0.749-0.412-1.064,0.321-1.271c0.441-0.124,0.873-0.342,1.253-0.601
	c0.139-0.091,0.208-0.45,0.145-0.628c-0.061-0.164-0.36-0.388-0.522-0.365c-1.118,0.156-1.699,0.242-2.796,0.504
	c-0.653,0.159-0.818,0.76-0.302,1.157c0.7,0.539,0.772,1.242,0.86,1.995C79.904,84.069,79.999,84.5,80.105,85.116 M73.327,83.575
	c-0.013,1.296,0.499,1.94,1.514,1.908c0.984-0.031,1.857-1.033,1.844-2.115c-0.016-1.236-0.751-2.088-1.796-2.09
	C73.975,81.274,73.34,82.209,73.327,83.575"/>
<path fill="#FFFFFF" d="M54.777,68.297c-0.198,4.664,0.156,9.069,0.653,13.469c0.095,0.84,0.047,1.697,0.025,2.545
	c-0.053,2.113-0.171,4.224-0.179,6.339c-0.005,1.409,0.208,2.821,0.191,4.231c-0.024,2.211-0.141,4.424-0.255,6.634
	c-0.052,1.027-0.317,1.267-1.466,1.238c-2.166-0.053-4.33-0.229-6.496-0.25c-4.998-0.05-9.999-0.022-14.998-0.06
	c-2.452-0.018-2.427-0.05-2.5-2.434c-0.036-1.174-0.164-2.348-0.273-3.522c-0.411-4.407-0.839-8.814-1.246-13.224
	c-0.168-1.829-0.423-3.663-0.42-5.494c0.004-2.609-0.318-5.17-0.713-7.733c-0.091-0.587-0.067-1.189-0.091-1.703
	c0.218-0.139,0.294-0.231,0.373-0.233c4.234-0.057,8.468-0.118,12.704-0.145c0.938-0.006,1.877,0.152,2.817,0.17
	c1.081,0.021,2.164-0.02,3.246-0.055c0.563-0.018,1.127-0.112,1.689-0.106c1.692,0.018,3.386,0.053,5.076,0.112
	C53.512,68.098,54.107,68.214,54.777,68.297"/>
<path fill="#231F20" d="M71.658,74.119c1.929,1.329,3.794,2.613,5.696,3.923c0.073,0.05,0.17,0.05,0.243-0.002
	c2.016-1.438,3.856-2.986,5.912-4.454c0.106-0.075,0.257-0.036,0.313,0.079c0.183,0.375,0.327,0.608,0.361,0.857
	c0.191,1.398,0.352,2.803,0.5,4.209c0.103,0.982,0.128,1.976,0.261,2.953c0.156,1.164-0.082,2.242-0.492,3.306
	c-0.075,0.193-0.363,0.174-0.405-0.03c-0.607-2.986-0.451-6.059-0.924-9.029c-0.159-0.04-0.287-0.108-0.329-0.075
	c-1.569,1.265-3.449,2.142-4.74,3.753c-0.446,0.556-0.935,0.599-1.474,0.206c-1.03-0.743-2.041-1.514-3.062-2.27
	c-0.292-0.214-0.587-0.421-1.001-0.714c-0.136-0.095-0.326,0-0.331,0.168c-0.063,1.873-0.121,3.509-0.17,5.145
	c-0.053,1.752-0.099,3.506-0.149,5.332c-0.224-0.127-0.356-0.16-0.368-0.214c-0.55-3.054-0.788-6.142-0.938-9.235
	c-0.064-1.292,0.143-2.557,0.784-3.83C71.402,74.085,71.553,74.046,71.658,74.119"/>
<path fill="#231F20" d="M80.729,73.017c-0.247,0.454-0.211,0.883-0.408,1.357c-0.303,0.729-1.229,1.072-1.9,1.317
	c-1.599,0.581-2.276,0.145-2.491-1.555c-0.07-0.559-0.094-1.138-0.265-1.667c-0.306-0.944-0.044-1.689,0.495-2.483
	c0.562-0.824,1.297-1.035,2.186-0.97c0.813,0.062,1.09,0.472,0.855,1.232c-0.108,0.35-0.286,0.676-0.491,1.147
	c1.117,0.073,1.723,0.689,2.031,1.634L80.729,73.017z M79.022,72.634c-0.705,0.166-1.263,0.201-1.691,0.454
	c-0.147,0.087,0.026,0.719,0.053,1.106C78.766,74.046,78.766,74.046,79.022,72.634 M77.799,70.419
	c-0.629-0.191-1.027-0.089-0.891,0.709L77.799,70.419z"/>
<path fill="#231F20" d="M80.105,85.116c-0.107-0.616-0.201-1.047-0.251-1.483c-0.087-0.753,0.135-2.14-1.166-1.954
	c-0.518-0.398-0.047-1.039,0.607-1.198c1.097-0.262,2.22-0.425,3.339-0.581c0.161-0.023,0.457,0.188,0.517,0.354
	c0.064,0.176-0.006,0.533-0.144,0.626c-0.381,0.257-0.811,0.477-1.252,0.601c-0.734,0.207-0.94,0.612-0.859,1.361
	c0.062,0.579-0.091,1.189-0.197,1.777C80.675,84.749,80.444,84.842,80.105,85.116"/>
<path fill="#231F20" d="M73.326,83.575c0.014-1.366,0.649-2.299,1.563-2.297c1.045,0.002,1.778,0.855,1.796,2.09
	c0.013,1.083-0.859,2.084-1.844,2.115C73.826,85.514,73.315,84.871,73.326,83.575 M73.985,83.515
	c0.471,0.34,0.721,0.663,0.997,0.684c0.444,0.037,0.644-0.376,0.537-0.761c-0.069-0.249-0.39-0.622-0.565-0.604
	C74.683,82.858,74.441,83.171,73.985,83.515"/>
<path fill="#FFFFFF" d="M79.362,73.084c-0.257,1.41-0.461,1.437-1.845,1.586c-0.026-0.389-0.336-1.495-0.187-1.584
	C77.76,72.835,78.731,72.566,79.362,73.084"/>
<path fill="#FFFFFF" d="M77.799,70.419c0,0.413,0.527,0.857-0.891,0.709C76.771,70.33,77.17,70.228,77.799,70.419"/>
<path fill="#FFFFFF" d="M73.985,83.515c0.456-0.344,0.698-0.656,0.969-0.682c0.175-0.018,0.496,0.355,0.565,0.604
	c0.107,0.385-0.093,0.798-0.537,0.761C74.706,84.178,74.456,83.854,73.985,83.515"/>
<path fill="#231F20" d="M93.38,51.845c-0.002-0.047-0.018-0.092-0.038-0.134c-0.03-0.112-0.119-0.207-0.271-0.207h-0.394
	c-0.005,0-0.007,0.003-0.011,0.003c-0.126-0.004-0.252-0.001-0.384,0.017c-0.019,0.001-0.033,0.011-0.052,0.016
	c-0.556-0.007-1.111-0.005-1.668,0.018c-0.16,0.006-0.248,0.115-0.273,0.237c-1.368-0.03-2.735-0.072-4.103-0.143
	c-0.38-0.02-0.378,0.571,0,0.59c2.384,0.122,4.768,0.184,7.154,0.187C93.707,52.429,93.719,51.886,93.38,51.845"/>
<path fill="none" stroke="#231F20" stroke-miterlimit="10" d="M93.38,51.845c-0.002-0.047-0.018-0.092-0.038-0.134
	c-0.03-0.112-0.119-0.207-0.271-0.207h-0.394c-0.005,0-0.007,0.003-0.011,0.003c-0.126-0.004-0.252-0.001-0.384,0.017
	c-0.019,0.001-0.033,0.011-0.052,0.016c-0.556-0.007-1.111-0.005-1.668,0.018c-0.16,0.006-0.248,0.115-0.273,0.237
	c-1.368-0.03-2.735-0.072-4.103-0.143c-0.38-0.02-0.378,0.571,0,0.59c2.384,0.122,4.768,0.184,7.154,0.187
	C93.707,52.429,93.719,51.886,93.38,51.845z"/>
</svg>
