<?xml version="1.0" encoding="utf-8"?>
<!-- Generator: Adobe Illustrator 15.1.0, SVG Export Plug-In . SVG Version: 6.00 Build 0)  -->
<!DOCTYPE svg PUBLIC "-//W3C//DTD SVG 1.1//EN" "http://www.w3.org/Graphics/SVG/1.1/DTD/svg11.dtd">
<svg version="1.1" id="Layer_1" xmlns="http://www.w3.org/2000/svg" xmlns:xlink="http://www.w3.org/1999/xlink" x="0px" y="0px"
	 width="150px" height="114px" viewBox="0 0 150 114" enable-background="new 0 0 150 114" xml:space="preserve">
<g>
	<path d="M118.104,88.172c0.147-0.158,0.23-0.257,0.322-0.346c0.723-0.698,1.443-1.399,2.172-2.092
		c0.479-0.453,0.536-0.988,0.29-1.558c-0.186-0.425-0.39-0.851-0.652-1.229c-1.522-2.178-3.051-4.35-4.611-6.502
		c-0.246-0.341-0.645-0.583-0.997-0.834c-0.464-0.332-0.953-0.338-1.454-0.045c-0.51,0.298-1.033,0.572-1.57,0.867
		c-0.109-0.096-0.162-0.121-0.182-0.163c-0.069-0.139-0.135-0.279-0.185-0.425c-0.961-2.808-1.954-5.601-2.566-8.52
		c-0.524-2.504-0.978-5.013-1.131-7.567c-0.082-1.388-0.314-2.784-0.059-4.168c0.147-0.799,0.028-0.926-0.701-1.214
		c-1.438-0.567-2.774-1.38-4.301-1.736c-0.344-0.08-0.666-0.279-0.979-0.457c-0.901-0.513-0.904-0.571-0.444-1.493
		c0.597-1.2,1.168-2.413,1.767-3.612c0.368-0.739,0.79-1.451,1.148-2.193c0.615-1.277,1.21-2.564,1.796-3.855
		c0.842-1.856,1.651-3.729,2.515-5.575c0.279-0.595,0.325-1.146-0.031-1.676c-0.221-0.329-0.522-0.625-0.84-0.865
		c-0.536-0.403-1.1-0.771-1.676-1.112c-0.555-0.328-1.136-0.609-1.711-0.901c-0.55-0.28-1.122-0.522-1.659-0.827
		c-1.748-0.994-3.471-2.038-5.232-3.01c-1.672-0.922-3.383-1.769-5.066-2.67c-1.207-0.646-2.384-1.346-3.597-1.981
		c-1.508-0.79-3.038-1.535-4.558-2.305c-0.183-0.093-0.343-0.229-0.521-0.332c-0.425-0.244-0.847-0.497-1.284-0.717
		c-1.565-0.79-3.141-1.56-4.706-2.352c-0.62-0.313-1.22-0.668-1.831-1c-0.838-0.454-1.683-0.894-2.516-1.356
		c-0.831-0.46-1.66-0.927-2.473-1.419c-0.42-0.255-0.831-0.39-1.308-0.207c-0.094,0.037-0.208,0.12-0.283,0.094
		c-0.7-0.245-1.308,0.164-1.958,0.25c-1.128,0.149-1.877,0.822-2.472,1.697c-0.93,1.364-1.894,2.713-2.709,4.146
		c-2.005,3.522-3.998,7.053-5.865,10.65c-1.03,1.984-1.787,4.108-2.68,6.165c-0.524,1.208-1.1,2.394-1.605,3.609
		c-0.505,1.214-1.458,2.185-1.841,3.465c-0.072,0.24-0.271,0.438-0.397,0.663c-0.227,0.405-0.467,0.805-0.659,1.227
		c-0.952,2.086-1.785,4.229-2.948,6.215c-0.222,0.378-0.417,0.773-0.6,1.171c-1.054,2.3-2.119,4.594-3.142,6.907
		c-1.18,2.665-2.334,5.341-3.469,8.024c-0.542,1.283-1.031,2.591-1.518,3.896c-0.188,0.506-0.326,1.032-0.445,1.559
		c-0.282,1.246-0.494,2.51-0.826,3.741c-0.147,0.546-0.063,0.975,0.249,1.372c0.219,0.278,0.49,0.55,0.796,0.718
		c0.86,0.469,1.739,0.908,2.631,1.312c1.904,0.859,3.823,1.687,5.733,2.534c1.274,0.564,2.541,1.146,3.813,1.714
		c1.863,0.831,3.75,1.611,5.585,2.5c1.413,0.682,2.719,1.557,4.186,2.167c1.975,0.821,3.864,1.847,5.787,2.794
		c1.226,0.603,2.441,1.23,3.67,1.83c0.881,0.431,1.758,0.872,2.667,1.237c1.101,0.439,2.214,0.858,3.409,1.001
		c0.482,0.057,0.923-0.02,1.143-0.452c0.326-0.632,0.889-0.889,1.473-1.165c0.372-0.179,0.717-0.412,1.071-0.623
		c0.817-0.486,1.576-1.076,2.522-1.33c0.195-0.051,0.388-0.246,0.504-0.426c0.154-0.233,0.264-0.509,0.334-0.781
		c0.285-1.084,0.841-2.047,1.339-3.035c0.074-0.147,0.194-0.271,0.334-0.462c1.405,1.451,3.011,2.522,4.755,3.382
		c1.73,0.854,3.512,1.588,5.503,1.896c-0.231,0.425-0.411,0.756-0.564,1.04c0.756,1.158,1.546,2.214,2.172,3.361
		c0.754,1.387,1.567,2.718,2.627,3.896c0.497,0.552,0.672,0.587,1.239,0.07c0.324-0.295,0.636-0.605,0.962-0.896
		c0.126-0.111,0.28-0.189,0.466-0.31c0.253,0.395,0.474,0.74,0.694,1.085c1.026,1.608,2.035,3.228,3.084,4.82
		c0.78,1.184,1.619,2.33,2.42,3.502c0.567,0.83,1.11,1.677,1.672,2.513c0.279,0.415,0.546,0.53,0.817,0.373
		c0.29-0.166,0.299-0.406,0.003-0.854c-0.496-0.754-1.004-1.499-1.506-2.249c-1.335-1.994-2.687-3.978-3.999-5.985
		c-0.764-1.165-1.465-2.37-2.195-3.558c-0.167-0.271-0.199-0.509,0.072-0.754c0.746-0.67,1.452-1.389,2.223-2.03
		c0.889-0.74,1.869-1.37,2.738-2.133c1.443-1.262,3.009-2.336,4.643-3.323c0.904-0.547,1.805-1.105,2.732-1.609
		c0.768-0.415,1.58-0.747,2.362-1.137c0.373-0.186,0.636-0.07,0.88,0.214c0.152,0.176,0.334,0.326,0.479,0.506
		c0.484,0.602,0.928,1.238,1.439,1.816c1.248,1.409,2.531,2.788,3.79,4.188c1.281,1.427,2.808,2.584,4.226,3.858
		c0.19,0.17,0.419,0.304,0.642,0.432c0.508,0.294,0.598,0.248,0.867-0.446C124.437,95.734,121.093,92.129,118.104,88.172
		 M41.207,63.245c0.896-2.057,1.779-4.12,2.726-6.153c0.871-1.871,1.826-3.703,2.729-5.558c0.892-1.832,1.75-3.682,2.656-5.507
		c0.836-1.686,1.738-3.338,2.576-5.024c0.632-1.269,1.226-2.557,1.806-3.85c0.896-2,1.709-4.039,2.657-6.014
		c2.4-5.007,4.929-9.947,8.143-14.499c0.372-0.527,0.711-1.078,1.09-1.6c0.651-0.898,1.625-1.073,2.708-1.21
		c-0.771,1.503-1.479,2.933-2.231,4.339c-1.048,1.956-2.128,3.894-3.194,5.84c-0.707,1.29-1.428,2.571-2.109,3.874
		c-0.262,0.5-0.415,1.057-0.646,1.575c-0.735,1.646-1.484,3.279-2.376,4.856c-1.242,2.196-2.31,4.49-3.458,6.74
		c-0.222,0.437-0.494,0.849-0.701,1.292c-1.003,2.153-2.04,4.291-2.973,6.475c-0.832,1.949-1.873,3.787-2.81,5.679
		c-0.62,1.25-1.242,2.497-1.857,3.749c-0.591,1.204-1.181,2.409-1.752,3.623c-0.208,0.441-0.36,0.907-0.564,1.431
		c-0.436-0.236-0.777-0.078-1.135,0.161c-0.465,0.312-0.972,0.56-1.631,0.931C41.005,63.904,41.07,63.559,41.207,63.245
		 M40.692,65.753c0.715-0.396,1.414-0.817,2.12-1.229c0.048,0.027,0.097,0.055,0.146,0.082c-0.375,0.77-0.75,1.539-1.151,2.358
		c-0.997,0.053-1.666,0.837-2.507,1.361C39.287,67.293,39.92,66.182,40.692,65.753 M38.263,70.588
		c0.129-0.268,0.333-0.533,0.571-0.708c0.704-0.516,1.44-0.988,2.167-1.473c0.075-0.051,0.172-0.07,0.407-0.162
		c-0.249,0.692-0.444,1.262-0.658,1.825c-0.31,0.816-0.628,1.63-0.95,2.44c-0.063,0.161-0.127,0.362-0.255,0.452
		c-0.731,0.506-1.482,0.985-2.308,1.527C37.448,73.108,37.673,71.797,38.263,70.588 M75.029,94.598
		c-0.837,0.102-1.623-0.135-2.389-0.427c-2.175-0.829-4.259-1.853-6.33-2.909c-2.829-1.443-5.684-2.834-8.534-4.233
		c-2.317-1.138-4.628-2.287-6.97-3.371c-3.139-1.451-6.302-2.851-9.461-4.259c-1.012-0.452-2.05-0.847-3.062-1.296
		c-0.375-0.167-0.733-0.388-1.06-0.634c-0.427-0.323-0.524-0.653-0.192-1.067c0.463-0.575,1.01-1.091,1.57-1.579
		c0.475-0.416,1.017-0.754,1.552-1.144c0.405,0.285,0.433,0.35,0.095,0.682c-0.367,0.359-0.782,0.668-1.159,1.018
		c-0.334,0.31-0.806,0.581-0.718,1.118c0.089,0.54,0.56,0.783,1.031,0.945c0.827,0.285,1.673,0.514,2.495,0.811
		c0.479,0.175,0.923,0.439,1.385,0.659c0.137,0.064,0.297,0.181,0.42,0.154c0.619-0.14,1.108,0.185,1.61,0.426
		c1.274,0.616,2.535,1.262,3.798,1.901c3.338,1.69,6.682,3.372,10.009,5.086c1.928,0.991,3.805,2.084,5.749,3.043
		c1.919,0.945,3.884,1.802,5.845,2.66c1.322,0.579,2.671,1.097,4.011,1.638C75.08,93.965,75.082,93.96,75.029,94.598 M78.587,91.82
		c-0.84,0.507-1.69,0.994-2.541,1.484c-0.306,0.177-0.548,0.191-0.906-0.029c-0.588-0.358-1.272-0.556-1.914-0.826
		c-1.687-0.709-3.402-1.358-5.051-2.148c-1.997-0.957-3.942-2.022-5.9-3.06c-2.803-1.482-5.59-2.993-8.397-4.469
		c-1.599-0.843-3.208-1.666-4.835-2.448c-2.141-1.028-4.303-2.01-6.457-3.009c-0.632-0.293-1.271-0.573-1.903-0.868
		c-0.157-0.073-0.296-0.181-0.479-0.295c0.509-0.553,0.983-1.068,1.534-1.666c0.386,0.199,0.918,0.404,1.37,0.723
		c1.756,1.238,3.758,1.918,5.75,2.626c0.949,0.336,1.904,0.654,2.845,1.01c1.281,0.482,2.562,0.968,3.823,1.499
		c1.141,0.479,2.251,1.029,3.383,1.531c1.651,0.731,3.313,1.438,4.964,2.174c2.689,1.195,5.372,2.406,8.057,3.61
		c1.012,0.454,2.037,0.883,3.035,1.367c1.411,0.686,2.802,1.411,4.335,2.189C78.978,91.493,78.803,91.69,78.587,91.82
		 M81.116,89.208c-0.233,0.51-0.403,1.049-0.63,1.644c-0.277-0.12-0.518-0.199-0.736-0.322c-3.307-1.877-6.799-3.37-10.268-4.91
		c-2.643-1.175-5.273-2.381-7.949-3.478c-2.769-1.136-5.456-2.452-8.265-3.506c-2.079-0.779-4.201-1.436-6.253-2.271
		c-1.093-0.445-2.113-1.068-3.16-1.622c-0.729-0.386-1.459-0.769-2.166-1.19c-1.346-0.801-1.328-0.541-0.768-1.969
		c0.716-1.825,1.395-3.663,2.122-5.484c0.247-0.62,0.602-1.196,0.885-1.803c0.554-1.192,1.071-2.401,1.643-3.586
		c0.561-1.162,1.171-2.3,1.758-3.448c0.493-0.965,0.983-1.932,1.478-2.896c0.613-1.193,1.233-2.382,1.844-3.576
		c0.153-0.298,0.292-0.604,0.425-0.913c1.208-2.825,2.403-5.654,3.873-8.36c1.393-2.563,2.729-5.157,4.076-7.746
		c0.548-1.052,1.07-2.12,1.582-3.191c0.188-0.395,0.297-0.826,0.468-1.229c0.281-0.661,0.551-1.33,0.881-1.967
		c0.593-1.146,1.217-2.274,1.847-3.4c0.681-1.215,1.409-2.404,2.068-3.63c0.708-1.317,1.349-2.672,2.041-3.998
		c0.477-0.912,0.993-1.802,1.533-2.776c0.309,0.158,0.551,0.276,0.79,0.403c0.771,0.413,1.539,0.831,2.312,1.241
		c0.57,0.302,1.149,0.586,1.718,0.892c0.793,0.426,1.578,0.875,2.374,1.296c1.026,0.542,2.063,1.063,3.094,1.599
		c1.119,0.582,2.241,1.164,3.355,1.757c1.139,0.608,2.271,1.225,3.404,1.844c1.269,0.692,2.529,1.398,3.801,2.084
		c1.045,0.563,2.099,1.108,3.148,1.66c0.137,0.072,0.274,0.142,0.411,0.214c0.909,0.484,1.821,0.964,2.728,1.455
		c0.292,0.158,0.618,0.295,0.848,0.524c0.471,0.469,1.046,0.735,1.621,1.03c1.078,0.553,2.131,1.158,3.203,1.724
		c0.478,0.252,0.982,0.454,1.465,0.7c0.48,0.244,0.95,0.51,1.417,0.779c0.604,0.348,1.202,0.704,1.798,1.064
		c0.553,0.333,0.67,0.61,0.518,1.216c-0.05,0.199-0.131,0.393-0.216,0.581c-0.83,1.864-1.704,3.708-2.486,5.591
		c-1.013,2.435-2.335,4.711-3.503,7.065c-0.598,1.2-1.134,2.431-1.71,3.641c-1.167,2.447-2.338,4.89-3.518,7.33
		c-0.494,1.022-1.02,2.029-1.52,3.048c-0.179,0.363-0.326,0.742-0.541,1.24c-0.767-0.863-1.451-1.599-2.093-2.369
		c-0.325-0.393-0.694-0.686-1.167-0.861c-0.652-0.241-1.308-0.483-1.959-0.729c-0.23-0.086-0.456-0.183-0.822-0.331
		c0.001-0.002,0.003-0.002,0.005-0.003c-0.527-0.18-1.049-0.39-1.567-0.596c-0.173-0.02-0.353-0.07-0.544-0.177
		c-0.396-0.221-0.866-0.306-1.415-0.487c0.003-0.01,0.007-0.019,0.01-0.026c-0.436-0.121-0.879-0.214-1.336-0.258
		c-0.208-0.021-0.373-0.104-0.497-0.223c-0.169-0.039-0.336-0.073-0.503-0.098c-0.56-0.084-1.122-0.158-1.674,0.098
		c-0.391,0.182-0.595,0.425-0.576,0.893c0.045,1.088,0.163,2.159,0.479,3.205c0.083,0.275,0.171,0.553,0.222,0.834
		c0.036,0.058,0.071,0.121,0.097,0.193c0.022,0.064,0.049,0.126,0.072,0.188c0.71,1.038,1.409,2.079,2.143,3.096
		c0.199,0.033,0.384,0.154,0.504,0.399c0.213,0.438,0.507,0.815,0.839,1.164c0.464,0.301,0.893,0.629,1.236,1.124
		c0.154,0.13,0.313,0.255,0.484,0.358c0.499,0.298,0.607,0.657,0.5,1.213c-0.426,2.209-0.078,4.365,0.567,6.484
		c0.104,0.343,0.138,0.605-0.062,0.933c-0.36,0.595-0.662,1.226-0.984,1.843c-0.74,1.418-1.507,2.82-2.208,4.257
		C82.814,85.508,81.964,87.359,81.116,89.208 M85.366,60.249c-0.11,0.367-0.24,0.739-0.426,1.072
		c-0.513,0.922-1.487,1.203-2.368,0.618c-0.551-0.365-1.094-0.813-1.478-1.343c-0.448-0.622-0.355-1.415-0.337-2.302
		c0.442,0.029,0.783,0.002,1.094,0.081c0.999,0.255,1.992,0.531,2.977,0.835C85.461,59.406,85.557,59.61,85.366,60.249
		 M86.422,88.582c-0.924-0.534-1.724-1.215-2.512-1.925c-0.335-0.302-0.437-0.611-0.243-1.021c0.329-0.698,0.626-1.414,0.982-2.099
		c0.822-1.575,1.671-3.139,2.515-4.703c0.082-0.15,0.207-0.278,0.358-0.476c0.218,0.328,0.416,0.593,0.579,0.877
		c1.112,1.925,2.816,3.274,4.506,4.636c0.33,0.266,1.124,0.294,1.398,0.075c0.109-0.088,0.226-0.251,0.22-0.375
		c-0.006-0.113-0.162-0.296-0.272-0.312c-1.062-0.154-1.697-0.972-2.399-1.619c-1.656-1.521-2.942-3.323-3.662-5.48
		c-0.641-1.916-0.819-3.882-0.515-5.884c0.045-0.307,0.112-0.609,0.163-0.916c0.054-0.319-0.053-0.524-0.378-0.662
		c-0.294-0.124-0.577-0.312-0.815-0.525c-0.5-0.446-0.98-0.917-1.446-1.4c-0.788-0.815-1.573-1.635-2.332-2.477
		c-0.371-0.414-0.695-0.873-0.843-1.564c0.377,0.118,0.665,0.205,0.949,0.298c0.952,0.311,1.775,0.095,2.496-0.587
		c0.578-0.547,0.99-1.185,1.131-1.982c0.03-0.173,0.081-0.343,0.131-0.547c0.153,0.023,0.284,0.02,0.397,0.063
		c1.134,0.434,2.27,0.858,3.391,1.32c0.274,0.113,0.538,0.312,0.737,0.532c1.053,1.171,2.059,2.385,3.128,3.539
		c1.016,1.096,2.091,2.138,3.142,3.202c0.224,0.228,0.457,0.342,0.729,0.062c0.275-0.283,0.303-0.576,0.007-0.872
		c-0.655-0.656-1.332-1.292-2.003-1.934c-0.147-0.143-0.311-0.271-0.455-0.417c-0.884-0.9-0.865-1.555-0.089-2.556
		c1.45-1.868,3.336-3.11,5.492-4.002c0.331-0.137,0.666-0.298,0.939-0.521c0.145-0.117,0.269-0.434,0.209-0.585
		c-0.102-0.267-0.379-0.154-0.606-0.079c-1.532,0.504-2.925,1.273-4.232,2.207C97.04,60,96.845,60.106,96.61,60.25
		c0.216-0.967,3.021-6.911,3.601-7.636c0.212,0.108,0.433,0.229,0.66,0.335c0.444,0.208,0.887,0.419,1.338,0.608
		c1.261,0.526,2.523,1.046,3.79,1.555c0.344,0.138,0.436,0.352,0.42,0.719c-0.106,2.689,0.137,5.354,0.518,8.018
		c0.314,2.203,0.869,4.349,1.347,6.512c0.211,0.953,0.586,1.869,0.886,2.802c0.6,1.867,1.196,3.734,1.802,5.601
		c0.079,0.242,0.216,0.466,0.306,0.707c0.202,0.543,0.087,0.761-0.44,1.036c-1.921,1.002-3.817,2.049-5.754,3.021
		c-2.371,1.191-4.363,2.931-6.514,4.437c-1.345,0.941-2.536,2.103-3.789,3.173c-0.288,0.247-0.548,0.366-0.969,0.309
		C91.116,91.078,88.74,89.919,86.422,88.582 M96.624,90.757c-0.08,0.082-0.162,0.164-0.242,0.245
		c-0.024-0.03-0.07-0.085-0.069-0.086c0.083-0.075,0.171-0.147,0.258-0.22C96.588,90.717,96.606,90.737,96.624,90.757
		 M98.259,99.896c-0.444-0.533-0.868-1.007-1.251-1.511c-0.248-0.326-0.438-0.694-0.651-1.046c-0.734-1.21-1.474-2.416-2.196-3.633
		c-0.326-0.55-0.313-0.604,0.147-1.06c0.399-0.396,0.819-0.771,1.284-1.207c1.412,2.372,3.214,4.287,5.001,6.312
		C99.892,98.548,99.166,99.241,98.259,99.896 M101.037,96.547c-0.005-0.003-0.114-0.026-0.176-0.095
		c-0.487-0.532-0.979-1.062-1.441-1.614c-0.349-0.417-0.339-0.461,0.07-0.805c0.673-0.563,1.368-1.101,2.035-1.671
		c0.133-0.113,0.292-0.359,0.25-0.481c-0.096-0.285-0.392-0.239-0.588-0.112c-0.711,0.458-1.408,0.941-2.103,1.425
		c-0.186,0.129-0.347,0.291-0.604,0.51c-0.461-0.644-0.888-1.238-1.334-1.859c1.112-1.431,2.512-2.741,3.846-3.604
		c0.696,0.814,1.045,1.854,1.654,2.729c0.595,0.856,1.367,1.63,1.58,2.659C103.159,94.606,102.122,95.555,101.037,96.547
		 M115.306,87.363c-0.888,0.046-1.39,0.731-2.088,1.077c-0.712,0.351-1.374,0.809-2.046,1.238c-0.761,0.486-1.513,0.986-2.258,1.495
		c-0.871,0.597-1.735,1.204-2.597,1.816c-0.516,0.365-0.642,0.383-0.991-0.147c-0.932-1.418-2.069-2.698-2.793-4.261
		c-0.264-0.572-0.702-1.063-1.106-1.657c0.564-0.428,1.112-0.883,1.701-1.279c0.826-0.56,1.655-1.116,2.559-1.562
		c2.01-0.995,3.994-2.038,5.99-3.06c0.063-0.032,0.148-0.025,0.274-0.043c0.114,0.181,0.241,0.37,0.356,0.562
		c0.805,1.354,1.595,2.713,2.417,4.054c0.213,0.348,0.526,0.632,0.782,0.953C115.811,86.93,115.748,87.339,115.306,87.363
		 M115.337,84.55c-0.701-1.201-1.457-2.373-2.11-3.599c-0.495-0.926-0.896-1.906-1.282-2.885c-0.226-0.571-0.16-0.661,0.356-1.024
		c0.23-0.164,0.478-0.307,0.728-0.442c0.689-0.373,1.04-0.315,1.528,0.305c0.528,0.669,1.023,1.362,1.53,2.046
		c0.643,0.87,1.307,1.725,1.917,2.616c0.612,0.892,1.198,1.805,1.74,2.74c0.354,0.608,0.313,0.706-0.189,1.203
		c-0.602,0.595-1.227,1.167-1.902,1.807C116.697,86.475,115.939,85.582,115.337,84.55"/>
	
		<path fill="none" stroke="#000000" stroke-width="1.536" stroke-linecap="round" stroke-linejoin="round" stroke-miterlimit="10" d="
		M118.104,88.172c0.147-0.158,0.23-0.257,0.322-0.346c0.723-0.698,1.443-1.399,2.172-2.092c0.479-0.453,0.536-0.988,0.29-1.558
		c-0.186-0.425-0.39-0.851-0.652-1.229c-1.522-2.178-3.051-4.35-4.611-6.502c-0.246-0.341-0.645-0.583-0.997-0.834
		c-0.464-0.332-0.953-0.338-1.454-0.045c-0.51,0.298-1.033,0.572-1.57,0.867c-0.109-0.096-0.162-0.121-0.182-0.163
		c-0.069-0.139-0.135-0.279-0.185-0.425c-0.961-2.808-1.954-5.601-2.566-8.52c-0.524-2.504-0.978-5.013-1.131-7.567
		c-0.082-1.388-0.314-2.784-0.059-4.168c0.147-0.799,0.028-0.926-0.701-1.214c-1.438-0.567-2.774-1.38-4.301-1.736
		c-0.344-0.08-0.666-0.279-0.979-0.457c-0.901-0.513-0.904-0.571-0.444-1.493c0.597-1.2,1.168-2.413,1.767-3.612
		c0.368-0.739,0.79-1.451,1.148-2.193c0.615-1.277,1.21-2.564,1.796-3.855c0.842-1.856,1.651-3.729,2.515-5.575
		c0.279-0.595,0.325-1.146-0.031-1.676c-0.221-0.329-0.522-0.625-0.84-0.865c-0.536-0.403-1.1-0.771-1.676-1.112
		c-0.555-0.328-1.136-0.609-1.711-0.901c-0.55-0.28-1.122-0.522-1.659-0.827c-1.748-0.994-3.471-2.038-5.232-3.01
		c-1.672-0.922-3.383-1.769-5.066-2.67c-1.207-0.646-2.384-1.346-3.597-1.981c-1.508-0.79-3.038-1.535-4.558-2.305
		c-0.183-0.093-0.343-0.229-0.521-0.332c-0.425-0.244-0.847-0.497-1.284-0.717c-1.565-0.79-3.141-1.56-4.706-2.352
		c-0.62-0.313-1.22-0.668-1.831-1c-0.838-0.454-1.683-0.894-2.516-1.356c-0.831-0.46-1.66-0.927-2.473-1.419
		c-0.42-0.255-0.831-0.39-1.308-0.207c-0.094,0.037-0.208,0.12-0.283,0.094c-0.7-0.245-1.308,0.164-1.958,0.25
		c-1.128,0.149-1.877,0.822-2.472,1.697c-0.93,1.364-1.894,2.713-2.709,4.146c-2.005,3.522-3.998,7.053-5.865,10.65
		c-1.03,1.984-1.787,4.108-2.68,6.165c-0.524,1.208-1.1,2.394-1.605,3.609c-0.505,1.214-1.458,2.185-1.841,3.465
		c-0.072,0.24-0.271,0.438-0.397,0.663c-0.227,0.405-0.467,0.805-0.659,1.227c-0.952,2.086-1.785,4.229-2.948,6.215
		c-0.222,0.378-0.417,0.773-0.6,1.171c-1.054,2.3-2.119,4.594-3.142,6.907c-1.18,2.665-2.334,5.341-3.469,8.024
		c-0.542,1.283-1.031,2.591-1.518,3.896c-0.188,0.506-0.326,1.032-0.445,1.559c-0.282,1.246-0.494,2.51-0.826,3.741
		c-0.147,0.546-0.063,0.975,0.249,1.372c0.219,0.278,0.49,0.55,0.796,0.718c0.86,0.469,1.739,0.908,2.631,1.312
		c1.904,0.859,3.823,1.687,5.733,2.534c1.274,0.564,2.541,1.146,3.813,1.714c1.863,0.831,3.75,1.611,5.585,2.5
		c1.413,0.682,2.719,1.557,4.186,2.167c1.975,0.821,3.864,1.847,5.787,2.794c1.226,0.603,2.441,1.23,3.67,1.83
		c0.881,0.431,1.758,0.872,2.667,1.237c1.101,0.439,2.214,0.858,3.409,1.001c0.482,0.057,0.923-0.02,1.143-0.452
		c0.326-0.632,0.889-0.889,1.473-1.165c0.372-0.179,0.717-0.412,1.071-0.623c0.817-0.486,1.576-1.076,2.522-1.33
		c0.195-0.051,0.388-0.246,0.504-0.426c0.154-0.233,0.264-0.509,0.334-0.781c0.285-1.084,0.841-2.047,1.339-3.035
		c0.074-0.147,0.194-0.271,0.334-0.462c1.405,1.451,3.011,2.522,4.755,3.382c1.73,0.854,3.512,1.588,5.503,1.896
		c-0.231,0.425-0.411,0.756-0.564,1.04c0.756,1.158,1.546,2.214,2.172,3.361c0.754,1.387,1.567,2.718,2.627,3.896
		c0.497,0.552,0.672,0.587,1.239,0.07c0.324-0.295,0.636-0.605,0.962-0.896c0.126-0.111,0.28-0.189,0.466-0.31
		c0.253,0.395,0.474,0.74,0.694,1.085c1.026,1.608,2.035,3.228,3.084,4.82c0.78,1.184,1.619,2.33,2.42,3.502
		c0.567,0.83,1.11,1.677,1.672,2.513c0.279,0.415,0.546,0.53,0.817,0.373c0.29-0.166,0.299-0.406,0.003-0.854
		c-0.496-0.754-1.004-1.499-1.506-2.249c-1.335-1.994-2.687-3.978-3.999-5.985c-0.764-1.165-1.465-2.37-2.195-3.558
		c-0.167-0.271-0.199-0.509,0.072-0.754c0.746-0.67,1.452-1.389,2.223-2.03c0.889-0.74,1.869-1.37,2.738-2.133
		c1.443-1.262,3.009-2.336,4.643-3.323c0.904-0.547,1.805-1.105,2.732-1.609c0.768-0.415,1.58-0.747,2.362-1.137
		c0.373-0.186,0.636-0.07,0.88,0.214c0.152,0.176,0.334,0.326,0.479,0.506c0.484,0.602,0.928,1.238,1.439,1.816
		c1.248,1.409,2.531,2.788,3.79,4.188c1.281,1.427,2.808,2.584,4.226,3.858c0.19,0.17,0.419,0.304,0.642,0.432
		c0.508,0.294,0.598,0.248,0.867-0.446C124.437,95.734,121.093,92.129,118.104,88.172z M41.207,63.245
		c0.896-2.057,1.779-4.12,2.726-6.153c0.871-1.871,1.826-3.703,2.729-5.558c0.892-1.832,1.75-3.682,2.656-5.507
		c0.836-1.686,1.738-3.338,2.576-5.024c0.632-1.269,1.226-2.557,1.806-3.85c0.896-2,1.709-4.039,2.657-6.014
		c2.4-5.007,4.929-9.947,8.143-14.499c0.372-0.527,0.711-1.078,1.09-1.6c0.651-0.898,1.625-1.073,2.708-1.21
		c-0.771,1.503-1.479,2.933-2.231,4.339c-1.048,1.956-2.128,3.894-3.194,5.84c-0.707,1.29-1.428,2.571-2.109,3.874
		c-0.262,0.5-0.415,1.057-0.646,1.575c-0.735,1.646-1.484,3.279-2.376,4.856c-1.242,2.196-2.31,4.49-3.458,6.74
		c-0.222,0.437-0.494,0.849-0.701,1.292c-1.003,2.153-2.04,4.291-2.973,6.475c-0.832,1.949-1.873,3.787-2.81,5.679
		c-0.62,1.25-1.242,2.497-1.857,3.749c-0.591,1.204-1.181,2.409-1.752,3.623c-0.208,0.441-0.36,0.907-0.564,1.431
		c-0.436-0.236-0.777-0.078-1.135,0.161c-0.465,0.312-0.972,0.56-1.631,0.931C41.005,63.904,41.07,63.559,41.207,63.245z
		 M40.692,65.753c0.715-0.396,1.414-0.817,2.12-1.229c0.048,0.027,0.097,0.055,0.146,0.082c-0.375,0.77-0.75,1.539-1.151,2.358
		c-0.997,0.053-1.666,0.837-2.507,1.361C39.287,67.293,39.92,66.182,40.692,65.753z M38.263,70.588
		c0.129-0.268,0.333-0.533,0.571-0.708c0.704-0.516,1.44-0.988,2.167-1.473c0.075-0.051,0.172-0.07,0.407-0.162
		c-0.249,0.692-0.444,1.262-0.658,1.825c-0.31,0.816-0.628,1.63-0.95,2.44c-0.063,0.161-0.127,0.362-0.255,0.452
		c-0.731,0.506-1.482,0.985-2.308,1.527C37.448,73.108,37.673,71.797,38.263,70.588z M75.029,94.598
		c-0.837,0.102-1.623-0.135-2.389-0.427c-2.175-0.829-4.259-1.853-6.33-2.909c-2.829-1.443-5.684-2.834-8.534-4.233
		c-2.317-1.138-4.628-2.287-6.97-3.371c-3.139-1.451-6.302-2.851-9.461-4.259c-1.012-0.452-2.05-0.847-3.062-1.296
		c-0.375-0.167-0.733-0.388-1.06-0.634c-0.427-0.323-0.524-0.653-0.192-1.067c0.463-0.575,1.01-1.091,1.57-1.579
		c0.475-0.416,1.017-0.754,1.552-1.144c0.405,0.285,0.433,0.35,0.095,0.682c-0.367,0.359-0.782,0.668-1.159,1.018
		c-0.334,0.31-0.806,0.581-0.718,1.118c0.089,0.54,0.56,0.783,1.031,0.945c0.827,0.285,1.673,0.514,2.495,0.811
		c0.479,0.175,0.923,0.439,1.385,0.659c0.137,0.064,0.297,0.181,0.42,0.154c0.619-0.14,1.108,0.185,1.61,0.426
		c1.274,0.616,2.535,1.262,3.798,1.901c3.338,1.69,6.682,3.372,10.009,5.086c1.928,0.991,3.805,2.084,5.749,3.043
		c1.919,0.945,3.884,1.802,5.845,2.66c1.322,0.579,2.671,1.097,4.011,1.638C75.08,93.965,75.082,93.96,75.029,94.598z M78.587,91.82
		c-0.84,0.507-1.69,0.994-2.541,1.484c-0.306,0.177-0.548,0.191-0.906-0.029c-0.588-0.358-1.272-0.556-1.914-0.826
		c-1.687-0.709-3.402-1.358-5.051-2.148c-1.997-0.957-3.942-2.022-5.9-3.06c-2.803-1.482-5.59-2.993-8.397-4.469
		c-1.599-0.843-3.208-1.666-4.835-2.448c-2.141-1.028-4.303-2.01-6.457-3.009c-0.632-0.293-1.271-0.573-1.903-0.868
		c-0.157-0.073-0.296-0.181-0.479-0.295c0.509-0.553,0.983-1.068,1.534-1.666c0.386,0.199,0.918,0.404,1.37,0.723
		c1.756,1.238,3.758,1.918,5.75,2.626c0.949,0.336,1.904,0.654,2.845,1.01c1.281,0.482,2.562,0.968,3.823,1.499
		c1.141,0.479,2.251,1.029,3.383,1.531c1.651,0.731,3.313,1.438,4.964,2.174c2.689,1.195,5.372,2.406,8.057,3.61
		c1.012,0.454,2.037,0.883,3.035,1.367c1.411,0.686,2.802,1.411,4.335,2.189C78.978,91.493,78.803,91.69,78.587,91.82z
		 M81.116,89.208c-0.233,0.51-0.403,1.049-0.63,1.644c-0.277-0.12-0.518-0.199-0.736-0.322c-3.307-1.877-6.799-3.37-10.268-4.91
		c-2.643-1.175-5.273-2.381-7.949-3.478c-2.769-1.136-5.456-2.452-8.265-3.506c-2.079-0.779-4.201-1.436-6.253-2.271
		c-1.093-0.445-2.113-1.068-3.16-1.622c-0.729-0.386-1.459-0.769-2.166-1.19c-1.346-0.801-1.328-0.541-0.768-1.969
		c0.716-1.825,1.395-3.663,2.122-5.484c0.247-0.62,0.602-1.196,0.885-1.803c0.554-1.192,1.071-2.401,1.643-3.586
		c0.561-1.162,1.171-2.3,1.758-3.448c0.493-0.965,0.983-1.932,1.478-2.896c0.613-1.193,1.233-2.382,1.844-3.576
		c0.153-0.298,0.292-0.604,0.425-0.913c1.208-2.825,2.403-5.654,3.873-8.36c1.393-2.563,2.729-5.157,4.076-7.746
		c0.548-1.052,1.07-2.12,1.582-3.191c0.188-0.395,0.297-0.826,0.468-1.229c0.281-0.661,0.551-1.33,0.881-1.967
		c0.593-1.146,1.217-2.274,1.847-3.4c0.681-1.215,1.409-2.404,2.068-3.63c0.708-1.317,1.349-2.672,2.041-3.998
		c0.477-0.912,0.993-1.802,1.533-2.776c0.309,0.158,0.551,0.276,0.79,0.403c0.771,0.413,1.539,0.831,2.312,1.241
		c0.57,0.302,1.149,0.586,1.718,0.892c0.793,0.426,1.578,0.875,2.374,1.296c1.026,0.542,2.063,1.063,3.094,1.599
		c1.119,0.582,2.241,1.164,3.355,1.757c1.139,0.608,2.271,1.225,3.404,1.844c1.269,0.692,2.529,1.398,3.801,2.084
		c1.045,0.563,2.099,1.108,3.148,1.66c0.137,0.072,0.274,0.142,0.411,0.214c0.909,0.484,1.821,0.964,2.728,1.455
		c0.292,0.158,0.618,0.295,0.848,0.524c0.471,0.469,1.046,0.735,1.621,1.03c1.078,0.553,2.131,1.158,3.203,1.724
		c0.478,0.252,0.982,0.454,1.465,0.7c0.48,0.244,0.95,0.51,1.417,0.779c0.604,0.348,1.202,0.704,1.798,1.064
		c0.553,0.333,0.67,0.61,0.518,1.216c-0.05,0.199-0.131,0.393-0.216,0.581c-0.83,1.864-1.704,3.708-2.486,5.591
		c-1.013,2.435-2.335,4.711-3.503,7.065c-0.598,1.2-1.134,2.431-1.71,3.641c-1.167,2.447-2.338,4.89-3.518,7.33
		c-0.494,1.022-1.02,2.029-1.52,3.048c-0.179,0.363-0.326,0.742-0.541,1.24c-0.767-0.863-1.451-1.599-2.093-2.369
		c-0.325-0.393-0.694-0.686-1.167-0.861c-0.652-0.241-1.308-0.483-1.959-0.729c-0.23-0.086-0.456-0.183-0.822-0.331
		c0.001-0.002,0.003-0.002,0.005-0.003c-0.527-0.18-1.049-0.39-1.567-0.596c-0.173-0.02-0.353-0.07-0.544-0.177
		c-0.396-0.221-0.866-0.306-1.415-0.487c0.003-0.01,0.007-0.019,0.01-0.026c-0.436-0.121-0.879-0.214-1.336-0.258
		c-0.208-0.021-0.373-0.104-0.497-0.223c-0.169-0.039-0.336-0.073-0.503-0.098c-0.56-0.084-1.122-0.158-1.674,0.098
		c-0.391,0.182-0.595,0.425-0.576,0.893c0.045,1.088,0.163,2.159,0.479,3.205c0.083,0.275,0.171,0.553,0.222,0.834
		c0.036,0.058,0.071,0.121,0.097,0.193c0.022,0.064,0.049,0.126,0.072,0.188c0.71,1.038,1.409,2.079,2.143,3.096
		c0.199,0.033,0.384,0.154,0.504,0.399c0.213,0.438,0.507,0.815,0.839,1.164c0.464,0.301,0.893,0.629,1.236,1.124
		c0.154,0.13,0.313,0.255,0.484,0.358c0.499,0.298,0.607,0.657,0.5,1.213c-0.426,2.209-0.078,4.365,0.567,6.484
		c0.104,0.343,0.138,0.605-0.062,0.933c-0.36,0.595-0.662,1.226-0.984,1.843c-0.74,1.418-1.507,2.82-2.208,4.257
		C82.814,85.508,81.964,87.359,81.116,89.208z M85.366,60.249c-0.11,0.367-0.24,0.739-0.426,1.072
		c-0.513,0.922-1.487,1.203-2.368,0.618c-0.551-0.365-1.094-0.813-1.478-1.343c-0.448-0.622-0.355-1.415-0.337-2.302
		c0.442,0.029,0.783,0.002,1.094,0.081c0.999,0.255,1.992,0.531,2.977,0.835C85.461,59.406,85.557,59.61,85.366,60.249z
		 M86.422,88.582c-0.924-0.534-1.724-1.215-2.512-1.925c-0.335-0.302-0.437-0.611-0.243-1.021c0.329-0.698,0.626-1.414,0.982-2.099
		c0.822-1.575,1.671-3.139,2.515-4.703c0.082-0.15,0.207-0.278,0.358-0.476c0.218,0.328,0.416,0.593,0.579,0.877
		c1.112,1.925,2.816,3.274,4.506,4.636c0.33,0.266,1.124,0.294,1.398,0.075c0.109-0.088,0.226-0.251,0.22-0.375
		c-0.006-0.113-0.162-0.296-0.272-0.312c-1.062-0.154-1.697-0.972-2.399-1.619c-1.656-1.521-2.942-3.323-3.662-5.48
		c-0.641-1.916-0.819-3.882-0.515-5.884c0.045-0.307,0.112-0.609,0.163-0.916c0.054-0.319-0.053-0.524-0.378-0.662
		c-0.294-0.124-0.577-0.312-0.815-0.525c-0.5-0.446-0.98-0.917-1.446-1.4c-0.788-0.815-1.573-1.635-2.332-2.477
		c-0.371-0.414-0.695-0.873-0.843-1.564c0.377,0.118,0.665,0.205,0.949,0.298c0.952,0.311,1.775,0.095,2.496-0.587
		c0.578-0.547,0.99-1.185,1.131-1.982c0.03-0.173,0.081-0.343,0.131-0.547c0.153,0.023,0.284,0.02,0.397,0.063
		c1.134,0.434,2.27,0.858,3.391,1.32c0.274,0.113,0.538,0.312,0.737,0.532c1.053,1.171,2.059,2.385,3.128,3.539
		c1.016,1.096,2.091,2.138,3.142,3.202c0.224,0.228,0.457,0.342,0.729,0.062c0.275-0.283,0.303-0.576,0.007-0.872
		c-0.655-0.656-1.332-1.292-2.003-1.934c-0.147-0.143-0.311-0.271-0.455-0.417c-0.884-0.9-0.865-1.555-0.089-2.556
		c1.45-1.868,3.336-3.11,5.492-4.002c0.331-0.137,0.666-0.298,0.939-0.521c0.145-0.117,0.269-0.434,0.209-0.585
		c-0.102-0.267-0.379-0.154-0.606-0.079c-1.532,0.504-2.925,1.273-4.232,2.207C97.04,60,96.845,60.106,96.61,60.25
		c0.216-0.967,3.021-6.911,3.601-7.636c0.212,0.108,0.433,0.229,0.66,0.335c0.444,0.208,0.887,0.419,1.338,0.608
		c1.261,0.526,2.523,1.046,3.79,1.555c0.344,0.138,0.436,0.352,0.42,0.719c-0.106,2.689,0.137,5.354,0.518,8.018
		c0.314,2.203,0.869,4.349,1.347,6.512c0.211,0.953,0.586,1.869,0.886,2.802c0.6,1.867,1.196,3.734,1.802,5.601
		c0.079,0.242,0.216,0.466,0.306,0.707c0.202,0.543,0.087,0.761-0.44,1.036c-1.921,1.002-3.817,2.049-5.754,3.021
		c-2.371,1.191-4.363,2.931-6.514,4.437c-1.345,0.941-2.536,2.103-3.789,3.173c-0.288,0.247-0.548,0.366-0.969,0.309
		C91.116,91.078,88.74,89.919,86.422,88.582z M96.624,90.757c-0.08,0.082-0.162,0.164-0.242,0.245
		c-0.024-0.03-0.07-0.085-0.069-0.086c0.083-0.075,0.171-0.147,0.258-0.22C96.588,90.717,96.606,90.737,96.624,90.757z
		 M98.259,99.896c-0.444-0.533-0.868-1.007-1.251-1.511c-0.248-0.326-0.438-0.694-0.651-1.046c-0.734-1.21-1.474-2.416-2.196-3.633
		c-0.326-0.55-0.313-0.604,0.147-1.06c0.399-0.396,0.819-0.771,1.284-1.207c1.412,2.372,3.214,4.287,5.001,6.312
		C99.892,98.548,99.166,99.241,98.259,99.896z M101.037,96.547c-0.005-0.003-0.114-0.026-0.176-0.095
		c-0.487-0.532-0.979-1.062-1.441-1.614c-0.349-0.417-0.339-0.461,0.07-0.805c0.673-0.563,1.368-1.101,2.035-1.671
		c0.133-0.113,0.292-0.359,0.25-0.481c-0.096-0.285-0.392-0.239-0.588-0.112c-0.711,0.458-1.408,0.941-2.103,1.425
		c-0.186,0.129-0.347,0.291-0.604,0.51c-0.461-0.644-0.888-1.238-1.334-1.859c1.112-1.431,2.512-2.741,3.846-3.604
		c0.696,0.814,1.045,1.854,1.654,2.729c0.595,0.856,1.367,1.63,1.58,2.659C103.159,94.606,102.122,95.555,101.037,96.547z
		 M115.306,87.363c-0.888,0.046-1.39,0.731-2.088,1.077c-0.712,0.351-1.374,0.809-2.046,1.238c-0.761,0.486-1.513,0.986-2.258,1.495
		c-0.871,0.597-1.735,1.204-2.597,1.816c-0.516,0.365-0.642,0.383-0.991-0.147c-0.932-1.418-2.069-2.698-2.793-4.261
		c-0.264-0.572-0.702-1.063-1.106-1.657c0.564-0.428,1.112-0.883,1.701-1.279c0.826-0.56,1.655-1.116,2.559-1.562
		c2.01-0.995,3.994-2.038,5.99-3.06c0.063-0.032,0.148-0.025,0.274-0.043c0.114,0.181,0.241,0.37,0.356,0.562
		c0.805,1.354,1.595,2.713,2.417,4.054c0.213,0.348,0.526,0.632,0.782,0.953C115.811,86.93,115.748,87.339,115.306,87.363z
		 M115.337,84.55c-0.701-1.201-1.457-2.373-2.11-3.599c-0.495-0.926-0.896-1.906-1.282-2.885c-0.226-0.571-0.16-0.661,0.356-1.024
		c0.23-0.164,0.478-0.307,0.728-0.442c0.689-0.373,1.04-0.315,1.528,0.305c0.528,0.669,1.023,1.362,1.53,2.046
		c0.643,0.87,1.307,1.725,1.917,2.616c0.612,0.892,1.198,1.805,1.74,2.74c0.354,0.608,0.313,0.706-0.189,1.203
		c-0.602,0.595-1.227,1.167-1.902,1.807C116.697,86.475,115.939,85.582,115.337,84.55z"/>
	<path d="M116.804,62.767c0.252-0.36,0.655-0.374,1.032-0.424c2.921-0.396,5.861-0.384,8.799-0.401
		c1.367-0.009,2.735-0.019,4.101-0.005c0.773,0.008,1.546,0.063,2.318,0.099c0.077,0.003,0.154,0.014,0.23,0.023
		c0.312,0.041,0.571,0.165,0.551,0.521c-0.02,0.33-0.306,0.405-0.566,0.406c-0.359,0.002-0.718-0.068-1.077-0.077
		c-1.131-0.031-2.26-0.068-3.391-0.065c-2.425,0.007-4.851,0.001-7.273,0.076c-1.26,0.038-2.515,0.245-3.773,0.362
		C117.108,63.344,117.092,63.324,116.804,62.767"/>
	<path fill="none" stroke="#000000" stroke-width="1.024" stroke-linecap="round" stroke-miterlimit="10" d="M116.804,62.767
		c0.252-0.36,0.655-0.374,1.032-0.424c2.921-0.396,5.861-0.384,8.799-0.401c1.367-0.009,2.735-0.019,4.101-0.005
		c0.773,0.008,1.546,0.063,2.318,0.099c0.077,0.003,0.154,0.014,0.23,0.023c0.312,0.041,0.571,0.165,0.551,0.521
		c-0.02,0.33-0.306,0.405-0.566,0.406c-0.359,0.002-0.718-0.068-1.077-0.077c-1.131-0.031-2.26-0.068-3.391-0.065
		c-2.425,0.007-4.851,0.001-7.273,0.076c-1.26,0.038-2.515,0.245-3.773,0.362C117.108,63.344,117.092,63.324,116.804,62.767z"/>
	<path d="M26.516,101.738c-0.133-0.036-0.353-0.038-0.492-0.146c-0.191-0.147-0.148-0.366,0.023-0.539
		c0.343-0.346,0.683-0.698,1.037-1.031c0.746-0.706,1.511-1.395,2.252-2.105c0.964-0.925,1.92-1.858,2.868-2.8
		c0.988-0.981,1.959-1.977,2.942-2.962c0.2-0.199,0.41-0.391,0.632-0.567c0.395-0.315,0.749-0.343,0.959-0.096
		c0.188,0.221,0.096,0.528-0.259,0.865c-0.728,0.692-1.465,1.374-2.18,2.079c-1.708,1.679-3.389,3.386-5.115,5.046
		c-0.76,0.729-1.604,1.374-2.411,2.057C26.715,101.586,26.652,101.631,26.516,101.738"/>
	<path fill="none" stroke="#000000" stroke-width="1.024" stroke-linecap="round" stroke-miterlimit="10" d="M26.516,101.738
		c-0.133-0.036-0.353-0.038-0.492-0.146c-0.191-0.147-0.148-0.366,0.023-0.539c0.343-0.346,0.683-0.698,1.037-1.031
		c0.746-0.706,1.511-1.395,2.252-2.105c0.964-0.925,1.92-1.858,2.868-2.8c0.988-0.981,1.959-1.977,2.942-2.962
		c0.2-0.199,0.41-0.391,0.632-0.567c0.395-0.315,0.749-0.343,0.959-0.096c0.188,0.221,0.096,0.528-0.259,0.865
		c-0.728,0.692-1.465,1.374-2.18,2.079c-1.708,1.679-3.389,3.386-5.115,5.046c-0.76,0.729-1.604,1.374-2.411,2.057
		C26.715,101.586,26.652,101.631,26.516,101.738z"/>
	<path d="M17.549,51.67c-0.226-0.439-0.088-0.72,0.271-0.701c0.616,0.033,1.234,0.092,1.84,0.203
		c3.316,0.608,6.628,1.235,9.941,1.857c0.151,0.029,0.336,0.027,0.437,0.117c0.117,0.104,0.233,0.304,0.212,0.441
		c-0.021,0.132-0.211,0.326-0.34,0.336c-0.329,0.028-0.67,0.001-0.997-0.059c-2.937-0.549-5.869-1.117-8.805-1.665
		c-0.633-0.118-1.278-0.164-1.91-0.279C17.939,51.874,17.699,51.729,17.549,51.67"/>
	<path fill="none" stroke="#000000" stroke-width="1.024" stroke-linecap="round" stroke-miterlimit="10" d="M17.549,51.67
		c-0.226-0.439-0.088-0.72,0.271-0.701c0.616,0.033,1.234,0.092,1.84,0.203c3.316,0.608,6.628,1.235,9.941,1.857
		c0.151,0.029,0.336,0.027,0.437,0.117c0.117,0.104,0.233,0.304,0.212,0.441c-0.021,0.132-0.211,0.326-0.34,0.336
		c-0.329,0.028-0.67,0.001-0.997-0.059c-2.937-0.549-5.869-1.117-8.805-1.665c-0.633-0.118-1.278-0.164-1.91-0.279
		C17.939,51.874,17.699,51.729,17.549,51.67z"/>
	<path d="M93.791,13.044c0.424-0.959,0.807-1.941,1.28-2.877c1.362-2.687,2.759-5.356,4.148-8.029
		c0.142-0.272,0.302-0.542,0.498-0.775c0.074-0.088,0.302-0.133,0.406-0.084c0.103,0.047,0.214,0.259,0.187,0.365
		c-0.091,0.372-0.199,0.75-0.374,1.088c-1.399,2.697-2.823,5.38-4.22,8.08c-0.33,0.639-0.575,1.323-0.886,1.974
		C94.592,13.284,94.434,13.317,93.791,13.044"/>
	<path fill="none" stroke="#000000" stroke-width="1.024" stroke-linecap="round" stroke-miterlimit="10" d="M93.791,13.044
		c0.424-0.959,0.807-1.941,1.28-2.877c1.362-2.687,2.759-5.356,4.148-8.029c0.142-0.272,0.302-0.542,0.498-0.775
		c0.074-0.088,0.302-0.133,0.406-0.084c0.103,0.047,0.214,0.259,0.187,0.365c-0.091,0.372-0.199,0.75-0.374,1.088
		c-1.399,2.697-2.823,5.38-4.22,8.08c-0.33,0.639-0.575,1.323-0.886,1.974C94.592,13.284,94.434,13.317,93.791,13.044z"/>
	<path d="M72.044,110.028c-0.178-0.053-0.41-0.06-0.535-0.179c-0.096-0.091-0.085-0.327-0.068-0.493
		c0.013-0.118,0.112-0.228,0.182-0.336c1.255-1.946,2.507-3.895,3.769-5.837c0.589-0.906,1.189-1.805,1.8-2.696
		c0.093-0.137,0.248-0.295,0.396-0.316c0.146-0.021,0.391,0.069,0.46,0.189c0.085,0.145,0.104,0.411,0.024,0.553
		c-0.175,0.311-0.46,0.558-0.65,0.861c-0.875,1.396-1.721,2.81-2.604,4.201c-0.771,1.216-1.574,2.41-2.37,3.61
		C72.35,109.732,72.209,109.85,72.044,110.028"/>
	<path fill="none" stroke="#000000" stroke-width="1.024" stroke-linecap="round" stroke-miterlimit="10" d="M72.044,110.028
		c-0.178-0.053-0.41-0.06-0.535-0.179c-0.096-0.091-0.085-0.327-0.068-0.493c0.013-0.118,0.112-0.228,0.182-0.336
		c1.255-1.946,2.507-3.895,3.769-5.837c0.589-0.906,1.189-1.805,1.8-2.696c0.093-0.137,0.248-0.295,0.396-0.316
		c0.146-0.021,0.391,0.069,0.46,0.189c0.085,0.145,0.104,0.411,0.024,0.553c-0.175,0.311-0.46,0.558-0.65,0.861
		c-0.875,1.396-1.721,2.81-2.604,4.201c-0.771,1.216-1.574,2.41-2.37,3.61C72.35,109.732,72.209,109.85,72.044,110.028z"/>
	<path d="M42.002,12.498c0.257,0.182,0.513,0.331,0.732,0.523c0.539,0.474,1.058,0.971,1.59,1.454
		c0.267,0.243,0.555,0.462,0.816,0.711c1.412,1.354,2.812,2.721,4.232,4.066c0.334,0.317,0.736,0.563,1.094,0.858
		c0.352,0.291,0.425,0.568,0.236,0.782c-0.198,0.224-0.483,0.211-0.812-0.038c-0.041-0.032-0.079-0.067-0.118-0.1
		c-0.688-0.582-1.397-1.142-2.062-1.749c-1.027-0.936-2.021-1.908-3.04-2.854c-0.433-0.402-0.88-0.79-1.341-1.161
		c-0.569-0.458-1.066-0.97-1.393-1.632C41.779,13.037,41.781,13.036,42.002,12.498"/>
	<path fill="none" stroke="#000000" stroke-width="1.024" stroke-linecap="round" stroke-miterlimit="10" d="M42.002,12.498
		c0.257,0.182,0.513,0.331,0.732,0.523c0.539,0.474,1.058,0.971,1.59,1.454c0.267,0.243,0.555,0.462,0.816,0.711
		c1.412,1.354,2.812,2.721,4.232,4.066c0.334,0.317,0.736,0.563,1.094,0.858c0.352,0.291,0.425,0.568,0.236,0.782
		c-0.198,0.224-0.483,0.211-0.812-0.038c-0.041-0.032-0.079-0.067-0.118-0.1c-0.688-0.582-1.397-1.142-2.062-1.749
		c-1.027-0.936-2.021-1.908-3.04-2.854c-0.433-0.402-0.88-0.79-1.341-1.161c-0.569-0.458-1.066-0.97-1.393-1.632
		C41.779,13.037,41.781,13.036,42.002,12.498z"/>
	<path d="M117.177,33.553c-0.086,0.022-0.193,0.088-0.278,0.066c-0.165-0.043-0.388-0.097-0.453-0.219
		c-0.056-0.103,0.03-0.357,0.136-0.458c0.429-0.407,0.894-0.776,1.339-1.167c1.587-1.394,3.164-2.799,4.763-4.18
		c0.443-0.384,0.943-0.71,1.436-1.034c0.096-0.063,0.367-0.042,0.401,0.023c0.072,0.135,0.091,0.345,0.036,0.49
		c-0.059,0.156-0.212,0.289-0.348,0.404c-1.211,1.041-2.438,2.065-3.64,3.115c-0.895,0.779-1.756,1.592-2.641,2.381
		C117.698,33.181,117.439,33.354,117.177,33.553"/>
	<path fill="none" stroke="#000000" stroke-width="1.024" stroke-linecap="round" stroke-miterlimit="10" d="M117.177,33.553
		c-0.086,0.022-0.193,0.088-0.278,0.066c-0.165-0.043-0.388-0.097-0.453-0.219c-0.056-0.103,0.03-0.357,0.136-0.458
		c0.429-0.407,0.894-0.776,1.339-1.167c1.587-1.394,3.164-2.799,4.763-4.18c0.443-0.384,0.943-0.71,1.436-1.034
		c0.096-0.063,0.367-0.042,0.401,0.023c0.072,0.135,0.091,0.345,0.036,0.49c-0.059,0.156-0.212,0.289-0.348,0.404
		c-1.211,1.041-2.438,2.065-3.64,3.115c-0.895,0.779-1.756,1.592-2.641,2.381C117.698,33.181,117.439,33.354,117.177,33.553z"/>
	<path fill="#FFFFFF" d="M88.776,59.521c-0.289-0.073-0.574-0.162-0.857-0.259c-0.002,0.002-0.003,0.002-0.004,0.003
		c0.367,0.149,0.593,0.245,0.822,0.331c0.651,0.246,1.307,0.488,1.959,0.73c0.473,0.175,0.842,0.469,1.167,0.86
		c0.642,0.771,1.326,1.506,2.092,2.368c0.216-0.497,0.363-0.876,0.541-1.239c0.501-1.019,1.026-2.025,1.521-3.048
		c1.18-2.439,2.351-4.883,3.518-7.33c0.577-1.21,1.112-2.44,1.709-3.641c1.169-2.354,2.491-4.63,3.504-7.066
		c0.782-1.883,1.656-3.727,2.486-5.59c0.084-0.188,0.166-0.382,0.215-0.581c0.153-0.607,0.035-0.884-0.517-1.216
		c-0.596-0.36-1.195-0.717-1.798-1.064c-0.468-0.269-0.938-0.535-1.417-0.78c-0.481-0.246-0.987-0.447-1.465-0.699
		c-1.073-0.567-2.125-1.171-3.203-1.725c-0.574-0.294-1.15-0.562-1.621-1.029c-0.229-0.229-0.556-0.367-0.849-0.525
		c-0.906-0.49-1.818-0.97-2.727-1.454c-0.137-0.073-0.274-0.143-0.411-0.214c-1.05-0.553-2.104-1.097-3.148-1.661
		c-1.271-0.686-2.532-1.391-3.8-2.083c-1.134-0.618-2.268-1.237-3.405-1.843c-1.115-0.593-2.235-1.175-3.355-1.757
		c-1.03-0.535-2.067-1.057-3.093-1.599c-0.798-0.421-1.581-0.87-2.375-1.296c-0.568-0.305-1.148-0.589-1.718-0.892
		c-0.772-0.409-1.54-0.828-2.312-1.24c-0.237-0.127-0.481-0.246-0.789-0.404c-0.54,0.973-1.057,1.864-1.532,2.776
		c-0.694,1.326-1.333,2.68-2.042,3.999c-0.659,1.226-1.387,2.414-2.068,3.629c-0.63,1.125-1.254,2.254-1.847,3.399
		c-0.331,0.637-0.601,1.307-0.882,1.969c-0.171,0.404-0.279,0.834-0.468,1.229c-0.511,1.072-1.033,2.139-1.581,3.192
		c-1.348,2.587-2.684,5.182-4.077,7.746c-1.47,2.706-2.666,5.533-3.874,8.359c-0.132,0.309-0.271,0.615-0.424,0.913
		c-0.611,1.194-1.231,2.384-1.845,3.577c-0.495,0.963-0.984,1.931-1.478,2.896c-0.587,1.148-1.197,2.287-1.758,3.448
		c-0.571,1.184-1.089,2.393-1.643,3.586c-0.283,0.606-0.638,1.183-0.885,1.803c-0.727,1.82-1.406,3.659-2.122,5.484
		c-0.56,1.428-0.578,1.168,0.768,1.97c0.707,0.42,1.438,0.804,2.166,1.189c1.047,0.555,2.067,1.176,3.16,1.622
		c2.053,0.835,4.176,1.492,6.253,2.271c2.809,1.054,5.497,2.371,8.266,3.506c2.675,1.096,5.305,2.303,7.948,3.478
		c3.469,1.539,6.961,3.033,10.27,4.91c0.216,0.123,0.458,0.203,0.735,0.322c0.226-0.596,0.396-1.135,0.629-1.645
		c0.85-1.848,1.697-3.698,2.591-5.526c0.701-1.437,1.469-2.839,2.208-4.256c0.321-0.619,0.624-1.25,0.985-1.844
		c0.198-0.327,0.165-0.59,0.061-0.934c-0.646-2.118-0.994-4.274-0.567-6.482c0.107-0.558-0.001-0.915-0.5-1.214
		c-0.171-0.103-0.329-0.229-0.484-0.358c0.009,0.012,0.016,0.025,0.023,0.037c0.196,0.173,0.391,0.346,0.574,0.527
		c0.582,0.569,0.008,1.388-0.625,1.369c-0.28,0.173-0.647,0.185-0.945-0.121c-0.197-0.201-0.382-0.411-0.569-0.619
		c-0.008-0.004-0.015-0.006-0.021-0.009c-0.969-0.464-1.677-1.09-2.228-2.012c-0.045-0.075-0.074-0.148-0.092-0.221
		c-0.204-0.163-0.394-0.341-0.557-0.544c-0.122-0.155-0.238-0.312-0.349-0.475c-0.047,0.048-0.099,0.092-0.161,0.128
		c-0.358,0.209-0.909,0.101-1.104-0.288c-0.224-0.448-0.455-0.889-0.753-1.293c-0.26-0.353-0.058-0.902,0.289-1.104
		c0.125-0.072,0.251-0.102,0.376-0.103c-0.144-0.345-0.282-0.69-0.425-1.033c-0.053-0.129-0.067-0.248-0.059-0.356
		c-0.421-1.135-0.723-2.311-0.832-3.519c-0.091-1.035,1.524-1.025,1.615,0c0.1,1.127,0.412,2.271,0.852,3.357
		c0.034,0.035,0.069,0.068,0.099,0.111c-0.051-0.281-0.139-0.559-0.222-0.834c-0.316-1.047-0.435-2.118-0.479-3.206
		c-0.021-0.467,0.184-0.709,0.576-0.892c0.551-0.255,1.112-0.182,1.673-0.098c0.167,0.026,0.334,0.061,0.503,0.099
		c-0.112-0.108-0.19-0.242-0.232-0.387c-0.494-0.564,0.143-1.564,0.905-1.271c0.021-0.017,0.039-0.038,0.064-0.052
		c0.062-0.036,0.118-0.071,0.176-0.106c0.056-0.211,0.199-0.404,0.403-0.524c0.008-0.15,0.056-0.299,0.133-0.427
		c-0.069-0.296,0.043-0.596,0.285-0.797c-0.295-0.499,0.141-1.375,0.916-1.242c0.025,0.005,0.05,0.007,0.074,0.011
		c0.222-0.208,0.544-0.278,0.872-0.037c0.069,0.05,0.135,0.097,0.197,0.143c0.992,0.079,1.985,0.201,2.569,1.115
		c0.245,0.384,0.062,0.87-0.289,1.104c-0.796,0.528-1.604,0.683-2.457,0.788c-0.062,0.071-0.134,0.136-0.235,0.181
		c-0.05,0.022-0.097,0.044-0.146,0.067c0.251,0.223,0.339,0.542,0.282,0.825c0.774,0.287,1.543,0.599,2.335,0.853
		c0.021-0.013,0.044-0.024,0.063-0.037c0.313-0.629,0.846-1.046,1.688-0.95c1.021,0.118,1.028,1.732,0,1.614"/>
	<path fill="none" stroke="#000000" stroke-width="1.024" stroke-miterlimit="10" d="M88.776,59.521
		c-0.289-0.073-0.574-0.162-0.857-0.259c-0.002,0.002-0.003,0.002-0.004,0.003c0.367,0.149,0.593,0.245,0.822,0.331
		c0.651,0.246,1.307,0.488,1.959,0.73c0.473,0.175,0.842,0.469,1.167,0.86c0.642,0.771,1.326,1.506,2.092,2.368
		c0.216-0.497,0.363-0.876,0.541-1.239c0.501-1.019,1.026-2.025,1.521-3.048c1.18-2.439,2.351-4.883,3.518-7.33
		c0.577-1.21,1.112-2.44,1.709-3.641c1.169-2.354,2.491-4.63,3.504-7.066c0.782-1.883,1.656-3.727,2.486-5.59
		c0.084-0.188,0.166-0.382,0.215-0.581c0.153-0.607,0.035-0.884-0.517-1.216c-0.596-0.36-1.195-0.717-1.798-1.064
		c-0.468-0.269-0.938-0.535-1.417-0.78c-0.481-0.246-0.987-0.447-1.465-0.699c-1.073-0.567-2.125-1.171-3.203-1.725
		c-0.574-0.294-1.15-0.562-1.621-1.029c-0.229-0.229-0.556-0.367-0.849-0.525c-0.906-0.49-1.818-0.97-2.727-1.454
		c-0.137-0.073-0.274-0.143-0.411-0.214c-1.05-0.553-2.104-1.097-3.148-1.661c-1.271-0.686-2.532-1.391-3.8-2.083
		c-1.134-0.618-2.268-1.237-3.405-1.843c-1.115-0.593-2.235-1.175-3.355-1.757c-1.03-0.535-2.067-1.057-3.093-1.599
		c-0.798-0.421-1.581-0.87-2.375-1.296c-0.568-0.305-1.148-0.589-1.718-0.892c-0.772-0.409-1.54-0.828-2.312-1.24
		c-0.237-0.127-0.481-0.246-0.789-0.404c-0.54,0.973-1.057,1.864-1.532,2.776c-0.694,1.326-1.333,2.68-2.042,3.999
		c-0.659,1.226-1.387,2.414-2.068,3.629c-0.63,1.125-1.254,2.254-1.847,3.399c-0.331,0.637-0.601,1.307-0.882,1.969
		c-0.171,0.404-0.279,0.834-0.468,1.229c-0.511,1.072-1.033,2.139-1.581,3.192c-1.348,2.587-2.684,5.182-4.077,7.746
		c-1.47,2.706-2.666,5.533-3.874,8.359c-0.132,0.309-0.271,0.615-0.424,0.913c-0.611,1.194-1.231,2.384-1.845,3.577
		c-0.495,0.963-0.984,1.931-1.478,2.896c-0.587,1.148-1.197,2.287-1.758,3.448c-0.571,1.184-1.089,2.393-1.643,3.586
		c-0.283,0.606-0.638,1.183-0.885,1.803c-0.727,1.82-1.406,3.659-2.122,5.484c-0.56,1.428-0.578,1.168,0.768,1.97
		c0.707,0.42,1.438,0.804,2.166,1.189c1.047,0.555,2.067,1.176,3.16,1.622c2.053,0.835,4.176,1.492,6.253,2.271
		c2.809,1.054,5.497,2.371,8.266,3.506c2.675,1.096,5.305,2.303,7.948,3.478c3.469,1.539,6.961,3.033,10.27,4.91
		c0.216,0.123,0.458,0.203,0.735,0.322c0.226-0.596,0.396-1.135,0.629-1.645c0.85-1.848,1.697-3.698,2.591-5.526
		c0.701-1.437,1.469-2.839,2.208-4.256c0.321-0.619,0.624-1.25,0.985-1.844c0.198-0.327,0.165-0.59,0.061-0.934
		c-0.646-2.118-0.994-4.274-0.567-6.482c0.107-0.558-0.001-0.915-0.5-1.214c-0.171-0.103-0.329-0.229-0.484-0.358
		c0.009,0.012,0.016,0.025,0.023,0.037c0.196,0.173,0.391,0.346,0.574,0.527c0.582,0.569,0.008,1.388-0.625,1.369
		c-0.28,0.173-0.647,0.185-0.945-0.121c-0.197-0.201-0.382-0.411-0.569-0.619c-0.008-0.004-0.015-0.006-0.021-0.009
		c-0.969-0.464-1.677-1.09-2.228-2.012c-0.045-0.075-0.074-0.148-0.092-0.221c-0.204-0.163-0.394-0.341-0.557-0.544
		c-0.122-0.155-0.238-0.312-0.349-0.475c-0.047,0.048-0.099,0.092-0.161,0.128c-0.358,0.209-0.909,0.101-1.104-0.288
		c-0.224-0.448-0.455-0.889-0.753-1.293c-0.26-0.353-0.058-0.902,0.289-1.104c0.125-0.072,0.251-0.102,0.376-0.103
		c-0.144-0.345-0.282-0.69-0.425-1.033c-0.053-0.129-0.067-0.248-0.059-0.356c-0.421-1.135-0.723-2.311-0.832-3.519
		c-0.091-1.035,1.524-1.025,1.615,0c0.1,1.127,0.412,2.271,0.852,3.357c0.034,0.035,0.069,0.068,0.099,0.111
		c-0.051-0.281-0.139-0.559-0.222-0.834c-0.316-1.047-0.435-2.118-0.479-3.206c-0.021-0.467,0.184-0.709,0.576-0.892
		c0.551-0.255,1.112-0.182,1.673-0.098c0.167,0.026,0.334,0.061,0.503,0.099c-0.112-0.108-0.19-0.242-0.232-0.387
		c-0.494-0.564,0.143-1.564,0.905-1.271c0.021-0.017,0.039-0.038,0.064-0.052c0.062-0.036,0.118-0.071,0.176-0.106
		c0.056-0.211,0.199-0.404,0.403-0.524c0.008-0.15,0.056-0.299,0.133-0.427c-0.069-0.296,0.043-0.596,0.285-0.797
		c-0.295-0.499,0.141-1.375,0.916-1.242c0.025,0.005,0.05,0.007,0.074,0.011c0.222-0.208,0.544-0.278,0.872-0.037
		c0.069,0.05,0.135,0.097,0.197,0.143c0.992,0.079,1.985,0.201,2.569,1.115c0.245,0.384,0.062,0.87-0.289,1.104
		c-0.796,0.528-1.604,0.683-2.457,0.788c-0.062,0.071-0.134,0.136-0.235,0.181c-0.05,0.022-0.097,0.044-0.146,0.067
		c0.251,0.223,0.339,0.542,0.282,0.825c0.774,0.287,1.543,0.599,2.335,0.853c0.021-0.013,0.044-0.024,0.063-0.037
		c0.313-0.629,0.846-1.046,1.688-0.95c1.021,0.118,1.028,1.732,0,1.614"/>
	<path fill="#FFFFFF" d="M86.352,58.667c-0.643-0.257-1.287-0.508-1.949-0.69c-0.003,0.008-0.008,0.017-0.011,0.025
		c0.55,0.183,1.02,0.268,1.416,0.488C86,58.596,86.179,58.648,86.352,58.667"/>
	<path fill="#FFFFFF" d="M87.523,78.358c0.219,0.328,0.416,0.593,0.58,0.878c1.111,1.924,2.815,3.273,4.505,4.634
		c0.33,0.267,1.124,0.294,1.398,0.076c0.109-0.088,0.226-0.252,0.22-0.375c-0.006-0.113-0.163-0.296-0.272-0.312
		c-1.063-0.153-1.696-0.971-2.399-1.618c-1.657-1.521-2.942-3.323-3.662-5.48c-0.642-1.916-0.819-3.882-0.516-5.884
		c0.047-0.307,0.113-0.61,0.164-0.916c0.054-0.319-0.053-0.524-0.377-0.662c-0.295-0.124-0.577-0.312-0.816-0.525
		c-0.5-0.446-0.981-0.917-1.447-1.4c-0.787-0.815-1.572-1.635-2.331-2.478c-0.371-0.412-0.695-0.873-0.843-1.563
		c0.378,0.118,0.665,0.205,0.949,0.298c0.952,0.311,1.775,0.095,2.496-0.587c0.578-0.547,0.99-1.185,1.13-1.981
		c0.031-0.174,0.083-0.344,0.132-0.548c0.153,0.023,0.284,0.021,0.397,0.063c1.134,0.434,2.271,0.858,3.391,1.321
		c0.274,0.112,0.539,0.31,0.738,0.531c1.052,1.171,2.057,2.385,3.127,3.538c1.015,1.097,2.091,2.14,3.142,3.203
		c0.223,0.228,0.456,0.342,0.729,0.062c0.276-0.283,0.303-0.577,0.008-0.872c-0.655-0.656-1.332-1.292-2.002-1.934
		c-0.148-0.143-0.312-0.271-0.457-0.417c-0.883-0.9-0.863-1.555-0.087-2.556c1.449-1.868,3.335-3.11,5.491-4.002
		c0.33-0.136,0.665-0.298,0.939-0.521c0.145-0.116,0.268-0.433,0.21-0.584c-0.103-0.267-0.381-0.154-0.607-0.079
		c-1.532,0.504-2.925,1.273-4.233,2.207C97.04,60,96.845,60.106,96.609,60.25c0.217-0.967,3.021-6.911,3.602-7.636
		c0.212,0.108,0.432,0.229,0.66,0.335c0.443,0.208,0.887,0.419,1.338,0.608c1.261,0.525,2.523,1.045,3.791,1.555
		c0.342,0.138,0.435,0.352,0.42,0.719c-0.107,2.689,0.137,5.354,0.517,8.018c0.313,2.203,0.87,4.349,1.347,6.512
		c0.21,0.953,0.585,1.869,0.885,2.802c0.6,1.867,1.197,3.734,1.804,5.6c0.079,0.243,0.216,0.467,0.304,0.708
		c0.202,0.543,0.088,0.761-0.439,1.036c-1.921,1.002-3.818,2.048-5.754,3.021c-2.371,1.191-4.363,2.931-6.514,4.437
		c-1.345,0.941-2.536,2.103-3.789,3.173c-0.287,0.246-0.549,0.366-0.969,0.309c-2.694-0.367-5.07-1.525-7.387-2.863
		c-0.926-0.533-1.726-1.215-2.513-1.925c-0.335-0.302-0.437-0.611-0.243-1.021c0.33-0.699,0.625-1.414,0.982-2.099
		c0.821-1.575,1.672-3.139,2.516-4.703C87.247,78.683,87.373,78.555,87.523,78.358"/>
	<path fill="none" stroke="#000000" stroke-width="0.512" stroke-miterlimit="10" d="M87.523,78.358
		c0.219,0.328,0.416,0.593,0.58,0.878c1.111,1.924,2.815,3.273,4.505,4.634c0.33,0.267,1.124,0.294,1.398,0.076
		c0.109-0.088,0.226-0.252,0.22-0.375c-0.006-0.113-0.163-0.296-0.272-0.312c-1.063-0.153-1.696-0.971-2.399-1.618
		c-1.657-1.521-2.942-3.323-3.662-5.48c-0.642-1.916-0.819-3.882-0.516-5.884c0.047-0.307,0.113-0.61,0.164-0.916
		c0.054-0.319-0.053-0.524-0.377-0.662c-0.295-0.124-0.577-0.312-0.816-0.525c-0.5-0.446-0.981-0.917-1.447-1.4
		c-0.787-0.815-1.572-1.635-2.331-2.478c-0.371-0.412-0.695-0.873-0.843-1.563c0.378,0.118,0.665,0.205,0.949,0.298
		c0.952,0.311,1.775,0.095,2.496-0.587c0.578-0.547,0.99-1.185,1.13-1.981c0.031-0.174,0.083-0.344,0.132-0.548
		c0.153,0.023,0.284,0.021,0.397,0.063c1.134,0.434,2.271,0.858,3.391,1.321c0.274,0.112,0.539,0.31,0.738,0.531
		c1.052,1.171,2.057,2.385,3.127,3.538c1.015,1.097,2.091,2.14,3.142,3.203c0.223,0.228,0.456,0.342,0.729,0.062
		c0.276-0.283,0.303-0.577,0.008-0.872c-0.655-0.656-1.332-1.292-2.002-1.934c-0.148-0.143-0.312-0.271-0.457-0.417
		c-0.883-0.9-0.863-1.555-0.087-2.556c1.449-1.868,3.335-3.11,5.491-4.002c0.33-0.136,0.665-0.298,0.939-0.521
		c0.145-0.116,0.268-0.433,0.21-0.584c-0.103-0.267-0.381-0.154-0.607-0.079c-1.532,0.504-2.925,1.273-4.233,2.207
		C97.04,60,96.845,60.106,96.609,60.25c0.217-0.967,3.021-6.911,3.602-7.636c0.212,0.108,0.432,0.229,0.66,0.335
		c0.443,0.208,0.887,0.419,1.338,0.608c1.261,0.525,2.523,1.045,3.791,1.555c0.342,0.138,0.435,0.352,0.42,0.719
		c-0.107,2.689,0.137,5.354,0.517,8.018c0.313,2.203,0.87,4.349,1.347,6.512c0.21,0.953,0.585,1.869,0.885,2.802
		c0.6,1.867,1.197,3.734,1.804,5.6c0.079,0.243,0.216,0.467,0.304,0.708c0.202,0.543,0.088,0.761-0.439,1.036
		c-1.921,1.002-3.818,2.048-5.754,3.021c-2.371,1.191-4.363,2.931-6.514,4.437c-1.345,0.941-2.536,2.103-3.789,3.173
		c-0.287,0.246-0.549,0.366-0.969,0.309c-2.694-0.367-5.07-1.525-7.387-2.863c-0.926-0.533-1.726-1.215-2.513-1.925
		c-0.335-0.302-0.437-0.611-0.243-1.021c0.33-0.699,0.625-1.414,0.982-2.099c0.821-1.575,1.672-3.139,2.516-4.703
		C87.247,78.683,87.373,78.555,87.523,78.358z"/>
	<path fill="#00AFDD" d="M68.298,13.831c-0.771,1.503-1.479,2.933-2.232,4.339c-1.047,1.956-2.128,3.894-3.194,5.84
		c-0.707,1.29-1.427,2.571-2.109,3.874c-0.262,0.5-0.416,1.057-0.646,1.575c-0.735,1.646-1.483,3.279-2.375,4.856
		c-1.242,2.196-2.311,4.49-3.458,6.74c-0.222,0.437-0.495,0.849-0.702,1.292c-1.003,2.153-2.04,4.291-2.972,6.475
		c-0.832,1.949-1.874,3.787-2.811,5.679c-0.619,1.25-1.242,2.496-1.856,3.748c-0.59,1.204-1.181,2.409-1.753,3.623
		c-0.207,0.441-0.36,0.907-0.564,1.431c-0.436-0.236-0.777-0.078-1.136,0.161c-0.464,0.312-0.972,0.56-1.631,0.931
		c0.146-0.49,0.21-0.835,0.347-1.149c0.897-2.057,1.78-4.12,2.727-6.153c0.871-1.871,1.825-3.703,2.729-5.558
		c0.892-1.832,1.749-3.682,2.655-5.507c0.837-1.686,1.738-3.338,2.577-5.023c0.632-1.27,1.226-2.557,1.805-3.851
		c0.897-2,1.71-4.039,2.657-6.014c2.4-5.007,4.929-9.947,8.144-14.499c0.372-0.527,0.712-1.078,1.09-1.6
		C66.24,14.143,67.213,13.968,68.298,13.831 M65.066,17.267c-0.907,0.805-1.765,2.589-1.812,3.828
		c0.221-0.055,0.526-0.041,0.593-0.161c0.521-0.935,1.006-1.89,1.48-2.851C65.475,17.785,65.443,17.481,65.066,17.267"/>
	<path fill="none" stroke="#000000" stroke-width="1.024" stroke-miterlimit="10" d="M68.298,13.831
		c-0.771,1.503-1.479,2.933-2.232,4.339c-1.047,1.956-2.128,3.894-3.194,5.84c-0.707,1.29-1.427,2.571-2.109,3.874
		c-0.262,0.5-0.416,1.057-0.646,1.575c-0.735,1.646-1.483,3.279-2.375,4.856c-1.242,2.196-2.311,4.49-3.458,6.74
		c-0.222,0.437-0.495,0.849-0.702,1.292c-1.003,2.153-2.04,4.291-2.972,6.475c-0.832,1.949-1.874,3.787-2.811,5.679
		c-0.619,1.25-1.242,2.496-1.856,3.748c-0.59,1.204-1.181,2.409-1.753,3.623c-0.207,0.441-0.36,0.907-0.564,1.431
		c-0.436-0.236-0.777-0.078-1.136,0.161c-0.464,0.312-0.972,0.56-1.631,0.931c0.146-0.49,0.21-0.835,0.347-1.149
		c0.897-2.057,1.78-4.12,2.727-6.153c0.871-1.871,1.825-3.703,2.729-5.558c0.892-1.832,1.749-3.682,2.655-5.507
		c0.837-1.686,1.738-3.338,2.577-5.023c0.632-1.27,1.226-2.557,1.805-3.851c0.897-2,1.71-4.039,2.657-6.014
		c2.4-5.007,4.929-9.947,8.144-14.499c0.372-0.527,0.712-1.078,1.09-1.6C66.24,14.143,67.213,13.968,68.298,13.831z M65.066,17.267
		c-0.907,0.805-1.765,2.589-1.812,3.828c0.221-0.055,0.526-0.041,0.593-0.161c0.521-0.935,1.006-1.89,1.48-2.851
		C65.475,17.785,65.443,17.481,65.066,17.267z"/>
	<path fill="#FFFFFF" d="M79.3,91.215c-0.322,0.276-0.497,0.474-0.713,0.604c-0.84,0.507-1.691,0.993-2.541,1.484
		c-0.307,0.177-0.548,0.191-0.906-0.029c-0.588-0.358-1.272-0.555-1.914-0.825c-1.687-0.71-3.402-1.359-5.051-2.148
		c-1.997-0.958-3.942-2.024-5.9-3.061c-2.803-1.482-5.59-2.993-8.397-4.47c-1.599-0.842-3.208-1.664-4.835-2.447
		c-2.141-1.027-4.303-2.01-6.457-3.008c-0.632-0.295-1.271-0.574-1.903-0.869c-0.157-0.073-0.296-0.181-0.479-0.295
		c0.509-0.552,0.983-1.068,1.534-1.666c0.386,0.199,0.918,0.404,1.37,0.723c1.756,1.237,3.758,1.918,5.75,2.626
		c0.949,0.336,1.904,0.655,2.845,1.01c1.281,0.482,2.562,0.968,3.823,1.498c1.141,0.479,2.251,1.031,3.383,1.533
		c1.651,0.73,3.313,1.437,4.964,2.173c2.689,1.195,5.372,2.405,8.057,3.61c1.013,0.454,2.037,0.883,3.036,1.368
		C76.376,89.711,77.767,90.438,79.3,91.215"/>
	<path fill="none" stroke="#000000" stroke-width="1.024" stroke-miterlimit="10" d="M79.3,91.215
		c-0.322,0.276-0.497,0.474-0.713,0.604c-0.84,0.507-1.691,0.993-2.541,1.484c-0.307,0.177-0.548,0.191-0.906-0.029
		c-0.588-0.358-1.272-0.555-1.914-0.825c-1.687-0.71-3.402-1.359-5.051-2.148c-1.997-0.958-3.942-2.024-5.9-3.061
		c-2.803-1.482-5.59-2.993-8.397-4.47c-1.599-0.842-3.208-1.664-4.835-2.447c-2.141-1.027-4.303-2.01-6.457-3.008
		c-0.632-0.295-1.271-0.574-1.903-0.869c-0.157-0.073-0.296-0.181-0.479-0.295c0.509-0.552,0.983-1.068,1.534-1.666
		c0.386,0.199,0.918,0.404,1.37,0.723c1.756,1.237,3.758,1.918,5.75,2.626c0.949,0.336,1.904,0.655,2.845,1.01
		c1.281,0.482,2.562,0.968,3.823,1.498c1.141,0.479,2.251,1.031,3.383,1.533c1.651,0.73,3.313,1.437,4.964,2.173
		c2.689,1.195,5.372,2.405,8.057,3.61c1.013,0.454,2.037,0.883,3.036,1.368C76.376,89.711,77.767,90.438,79.3,91.215z"/>
	<path fill="#FFFFFF" d="M101.427,86.924c0.564-0.428,1.112-0.884,1.701-1.279c0.827-0.56,1.655-1.116,2.559-1.562
		c2.01-0.995,3.994-2.038,5.989-3.06c0.064-0.032,0.149-0.025,0.274-0.043c0.115,0.181,0.242,0.37,0.358,0.562
		c0.804,1.354,1.594,2.713,2.416,4.054c0.212,0.348,0.526,0.632,0.782,0.953c0.303,0.38,0.24,0.789-0.202,0.812
		c-0.887,0.046-1.389,0.731-2.087,1.077c-0.712,0.351-1.374,0.809-2.046,1.238c-0.761,0.486-1.513,0.986-2.258,1.495
		c-0.871,0.597-1.735,1.204-2.597,1.816c-0.516,0.365-0.643,0.383-0.991-0.147c-0.933-1.418-2.069-2.698-2.793-4.261
		C102.27,88.009,101.832,87.518,101.427,86.924 M104.198,88.926c0.028,0.059,0.057,0.118,0.084,0.177
		c0.205-0.008,0.432,0.033,0.608-0.041c0.111-0.046,0.239-0.291,0.206-0.399c-0.087-0.274-0.349-0.298-0.562-0.161
		C104.39,88.595,104.308,88.782,104.198,88.926 M106.196,87.925c0.337,0.014,0.562,0.071,0.747,0.009
		c0.1-0.033,0.208-0.288,0.18-0.411c-0.056-0.243-0.423-0.321-0.628-0.142C106.382,87.48,106.337,87.657,106.196,87.925"/>
	<path fill="none" stroke="#000000" stroke-width="0.512" stroke-miterlimit="10" d="M101.427,86.924
		c0.564-0.428,1.112-0.884,1.701-1.279c0.827-0.56,1.655-1.116,2.559-1.562c2.01-0.995,3.994-2.038,5.989-3.06
		c0.064-0.032,0.149-0.025,0.274-0.043c0.115,0.181,0.242,0.37,0.358,0.562c0.804,1.354,1.594,2.713,2.416,4.054
		c0.212,0.348,0.526,0.632,0.782,0.953c0.303,0.38,0.24,0.789-0.202,0.812c-0.887,0.046-1.389,0.731-2.087,1.077
		c-0.712,0.351-1.374,0.809-2.046,1.238c-0.761,0.486-1.513,0.986-2.258,1.495c-0.871,0.597-1.735,1.204-2.597,1.816
		c-0.516,0.365-0.643,0.383-0.991-0.147c-0.933-1.418-2.069-2.698-2.793-4.261C102.27,88.009,101.832,87.518,101.427,86.924z
		 M104.198,88.926c0.028,0.059,0.057,0.118,0.084,0.177c0.205-0.008,0.432,0.033,0.608-0.041c0.111-0.046,0.239-0.291,0.206-0.399
		c-0.087-0.274-0.349-0.298-0.562-0.161C104.39,88.595,104.308,88.782,104.198,88.926z M106.196,87.925
		c0.337,0.014,0.562,0.071,0.747,0.009c0.1-0.033,0.208-0.288,0.18-0.411c-0.056-0.243-0.423-0.321-0.628-0.142
		C106.382,87.48,106.337,87.657,106.196,87.925z"/>
	<path fill="#FFFFFF" d="M40.154,73.679c0.405,0.285,0.434,0.35,0.095,0.682c-0.366,0.359-0.782,0.668-1.159,1.018
		c-0.333,0.31-0.806,0.581-0.717,1.118c0.089,0.54,0.559,0.783,1.03,0.946c0.827,0.284,1.673,0.513,2.495,0.811
		c0.478,0.174,0.923,0.439,1.386,0.658c0.136,0.064,0.297,0.182,0.419,0.154c0.619-0.139,1.109,0.184,1.61,0.427
		c1.275,0.615,2.536,1.261,3.798,1.899c3.338,1.692,6.682,3.373,10.01,5.087c1.927,0.991,3.805,2.083,5.748,3.043
		c1.919,0.946,3.884,1.801,5.845,2.661c1.323,0.578,2.672,1.095,4.011,1.638c0.354,0.145,0.356,0.14,0.304,0.778
		c-0.837,0.101-1.622-0.135-2.389-0.428c-2.175-0.83-4.259-1.853-6.33-2.909c-2.828-1.443-5.683-2.834-8.533-4.233
		c-2.317-1.138-4.628-2.287-6.97-3.37c-3.139-1.453-6.302-2.852-9.461-4.26c-1.012-0.452-2.05-0.847-3.062-1.296
		c-0.374-0.167-0.733-0.387-1.06-0.634c-0.427-0.323-0.524-0.653-0.192-1.067c0.462-0.575,1.01-1.092,1.569-1.579
		C39.077,74.407,39.62,74.068,40.154,73.679"/>
	<path fill="#00AFDD" d="M117.652,87.317c-0.954-0.841-1.712-1.735-2.314-2.767c-0.701-1.2-1.457-2.372-2.111-3.599
		c-0.494-0.926-0.894-1.906-1.281-2.885c-0.227-0.571-0.161-0.661,0.356-1.024c0.23-0.163,0.478-0.307,0.728-0.441
		c0.689-0.373,1.04-0.317,1.529,0.304c0.527,0.669,1.022,1.361,1.528,2.046c0.644,0.87,1.307,1.724,1.919,2.616
		c0.611,0.892,1.196,1.806,1.738,2.74c0.354,0.609,0.314,0.705-0.188,1.203C118.955,86.106,118.329,86.678,117.652,87.317"/>
	<path fill="#FFFFFF" d="M97.147,91.844c1.112-1.431,2.512-2.741,3.847-3.604c0.695,0.814,1.044,1.854,1.653,2.729
		c0.595,0.856,1.367,1.63,1.58,2.659c-1.068,0.979-2.105,1.927-3.19,2.919c-0.005-0.003-0.113-0.026-0.176-0.095
		c-0.487-0.532-0.979-1.062-1.441-1.615c-0.349-0.416-0.339-0.46,0.07-0.804c0.673-0.563,1.368-1.101,2.036-1.671
		c0.132-0.113,0.291-0.359,0.249-0.481c-0.097-0.285-0.392-0.239-0.588-0.112c-0.711,0.458-1.408,0.941-2.103,1.424
		c-0.186,0.13-0.347,0.292-0.603,0.511C98.019,93.059,97.593,92.465,97.147,91.844"/>
	<path fill="#FFFFFF" d="M95.592,91.44c1.412,2.372,3.214,4.287,5.001,6.312c-0.701,0.797-1.428,1.489-2.334,2.145
		c-0.444-0.533-0.868-1.007-1.251-1.511c-0.248-0.325-0.438-0.694-0.651-1.046c-0.734-1.21-1.474-2.416-2.196-3.633
		c-0.326-0.55-0.313-0.604,0.147-1.06C94.708,92.25,95.127,91.875,95.592,91.44 M97.587,95.619c-0.12-0.026-0.329-0.129-0.515-0.099
		c-0.25,0.041-0.39,0.473-0.268,0.708c0.143,0.275,0.396,0.213,0.614,0.156C97.674,96.318,97.765,96.014,97.587,95.619"/>
	<path fill="#00AFDD" d="M80.757,58.294c0.442,0.028,0.782,0.001,1.094,0.081c0.999,0.255,1.992,0.531,2.977,0.834
		c0.634,0.196,0.729,0.4,0.538,1.039c-0.11,0.367-0.24,0.739-0.425,1.072c-0.514,0.923-1.488,1.203-2.369,0.618
		c-0.551-0.364-1.094-0.813-1.477-1.343C80.646,59.973,80.739,59.182,80.757,58.294"/>
	<path fill="#00AFDD" d="M37.238,74.491c0.21-1.383,0.435-2.693,1.025-3.902c0.13-0.268,0.334-0.533,0.571-0.708
		c0.704-0.517,1.44-0.989,2.167-1.473c0.076-0.052,0.173-0.07,0.408-0.162c-0.249,0.692-0.445,1.262-0.658,1.825
		c-0.309,0.816-0.627,1.63-0.95,2.44c-0.063,0.162-0.127,0.362-0.255,0.452C38.814,73.469,38.062,73.949,37.238,74.491"/>
	<path fill="none" stroke="#000000" stroke-width="1.024" stroke-miterlimit="10" d="M37.238,74.491
		c0.21-1.383,0.435-2.693,1.025-3.902c0.13-0.268,0.334-0.533,0.571-0.708c0.704-0.517,1.44-0.989,2.167-1.473
		c0.076-0.052,0.173-0.07,0.408-0.162c-0.249,0.692-0.445,1.262-0.658,1.825c-0.309,0.816-0.627,1.63-0.95,2.44
		c-0.063,0.162-0.127,0.362-0.255,0.452C38.814,73.469,38.062,73.949,37.238,74.491z"/>
	<path fill="#FFFFFF" d="M42.958,64.606c-0.375,0.771-0.751,1.539-1.151,2.359c-0.997,0.052-1.666,0.837-2.507,1.361
		c-0.014-1.033,0.62-2.146,1.392-2.572c0.715-0.396,1.414-0.819,2.12-1.229C42.86,64.552,42.909,64.58,42.958,64.606"/>
	<path fill="none" stroke="#000000" stroke-width="0.512" stroke-miterlimit="10" d="M42.958,64.606
		c-0.375,0.771-0.751,1.539-1.151,2.359c-0.997,0.052-1.666,0.837-2.507,1.361c-0.014-1.033,0.62-2.146,1.392-2.572
		c0.715-0.396,1.414-0.819,2.12-1.229C42.86,64.552,42.909,64.58,42.958,64.606z"/>
	<path fill="#FFFFFF" d="M96.624,90.757c-0.08,0.081-0.162,0.164-0.242,0.245c-0.024-0.03-0.07-0.084-0.069-0.086
		c0.083-0.075,0.171-0.147,0.259-0.22C96.587,90.717,96.607,90.737,96.624,90.757"/>
	<path d="M65.066,17.267c0.377,0.214,0.409,0.518,0.261,0.816c-0.474,0.961-0.958,1.916-1.48,2.851
		c-0.067,0.12-0.372,0.106-0.593,0.161C63.301,19.856,64.159,18.072,65.066,17.267"/>
	<path d="M104.198,88.926c0.11-0.146,0.192-0.331,0.336-0.425c0.214-0.138,0.476-0.113,0.562,0.161
		c0.033,0.108-0.095,0.354-0.205,0.4c-0.179,0.073-0.403,0.033-0.609,0.04C104.254,89.044,104.227,88.985,104.198,88.926"/>
	<path d="M106.196,87.925c0.142-0.269,0.187-0.445,0.299-0.544c0.205-0.18,0.572-0.102,0.628,0.142
		c0.028,0.123-0.08,0.378-0.18,0.411C106.757,87.997,106.533,87.939,106.196,87.925"/>
	<path d="M97.587,95.619c0.178,0.396,0.087,0.699-0.168,0.766c-0.218,0.057-0.472,0.119-0.614-0.156
		c-0.122-0.235,0.018-0.667,0.268-0.708C97.258,95.49,97.467,95.592,97.587,95.619"/>
	<path fill="#FFFFFF" d="M80.788,30.912c0.421,0.11,0.737,0.144,1.007,0.273c0.729,0.353,0.893,1.069,0.893,1.76
		c-0.002,1.531-0.454,2.963-1.343,4.207c-0.975,1.365-2.188,2.524-3.47,3.603c-0.35,0.294-0.76,0.56-1.189,0.7
		c-0.367,0.12-0.812,0.109-1.201,0.036c-0.404-0.075-0.645-0.381-0.651-0.84c-0.021-1.223,0.13-2.396,0.638-3.535
		C76.656,34.462,78.669,32.554,80.788,30.912"/>
	<path d="M85.404,35.923c0.354-0.742-0.612-1.341-1.119-0.889c-1.372,0.231-2.742,0.475-4.072,0.882
		c-0.488-1.012-0.769-2.099-0.846-3.227c-0.032-0.458-0.4-0.669-0.758-0.655c-0.326-0.181-0.746-0.141-0.915,0.308
		c-0.88,2.324-1.868,4.597-2.967,6.826c-0.411,0.835,0.878,1.494,1.292,0.656c0.811-1.646,1.562-3.316,2.253-5.012
		c0.193,0.7,0.462,1.377,0.798,2.031c0.022,0.435,0.394,0.858,0.922,0.67c1.127-0.401,2.286-0.657,3.456-0.871
		c-0.891,1.829-1.809,3.645-2.757,5.445c-0.434,0.825,0.858,1.48,1.292,0.656C83.167,40.491,84.307,38.218,85.404,35.923"/>
	<path d="M92.078,38.702c-0.981,0.552-1.735,1.325-2.523,2.103c-0.436-1.111-0.737-2.259-0.873-3.449
		c-0.104-0.922-1.551-0.844-1.445,0.085c0.162,1.425,0.51,2.811,1.062,4.134c0.044,0.104,0.103,0.188,0.171,0.254
		c-0.875,0.789-1.794,1.524-2.759,2.207c-0.76,0.539,0.022,1.757,0.783,1.218c1.069-0.757,2.091-1.572,3.06-2.453
		c1.084-0.987,2.02-2.157,3.31-2.882C93.676,39.461,92.888,38.246,92.078,38.702"/>
	<path d="M66.902,43.93c0.753-0.171,1.247-0.713,1.334-1.497c0.23-2.063-1.884-3.1-3.569-3.427c-0.154-0.03-0.288-0.012-0.404,0.035
		c-0.327-0.186-0.757-0.148-0.938,0.299c-1.026,2.543-2.185,5.019-3.483,7.434c-0.239,0.445,0.03,0.837,0.398,0.978
		c0.036,0.267,0.206,0.518,0.542,0.603c1.64,0.417,4.141,1.607,5.501,0.026C67.308,47.191,67.615,45.33,66.902,43.93 M66.022,40.979
		c0.355,0.235,0.976,0.857,0.761,1.351c-0.162,0.373-1.104,0.229-1.455,0.231c-0.604,0.004-1.209,0.007-1.814,0.011
		c0.317-0.707,0.623-1.417,0.917-2.135C64.979,40.543,65.552,40.666,66.022,40.979 M64.755,47.689
		c-0.496,0.146-1.11-0.101-1.59-0.222c-0.604-0.152-1.208-0.307-1.812-0.461c0.547-1.034,1.072-2.077,1.569-3.134
		c0.117,0.09,0.267,0.147,0.451,0.146c0.652-0.003,1.342,0.042,2.021,0.041c0.006,0.115,0.039,0.235,0.118,0.355
		C66.076,45.278,65.917,47.344,64.755,47.689"/>
	<path d="M75.285,44.328c-0.067-0.057-0.139-0.094-0.21-0.123c0.034-0.33-0.13-0.667-0.556-0.735
		c-2.275-0.371-4.274,0.745-5.502,2.649c-1.069,1.66-1.756,4.369,0.197,5.691c1.948,1.319,3.838-0.26,5.04-1.776
		C75.414,48.572,77.167,45.905,75.285,44.328 M69.55,49.898c-0.469-1.146,0.345-2.674,1.076-3.552
		c0.871-1.047,2.08-1.633,3.437-1.472c-0.008,0.182,0.062,0.37,0.247,0.525C75.922,46.75,70.895,53.184,69.55,49.898"/>
	<path d="M83.389,48.41c-0.835-0.389-1.651-0.809-2.45-1.26c-0.12-0.156-0.309-0.267-0.51-0.3c-0.596-0.35-1.186-0.713-1.762-1.099
		c-0.773-0.518-1.422,0.778-0.656,1.292c0.425,0.284,0.857,0.557,1.293,0.822c-1.228,2.132-2.524,4.218-3.905,6.256
		c-0.521,0.769,0.775,1.417,1.292,0.655c1.365-2.015,2.65-4.078,3.863-6.186c0.713,0.395,1.438,0.767,2.18,1.112
		C83.577,50.095,84.236,48.805,83.389,48.41"/>
	<path d="M90.826,51.945c-1.125-0.077-2.236,0.054-3.299,0.417c-0.141-0.224-0.299-0.438-0.467-0.655
		c-0.242-0.313-0.585-0.711-0.522-1.136c0.048-0.324-0.1-0.568-0.314-0.71c-0.264-0.417-0.977-0.559-1.277,0.015l-1.805,3.448
		c-0.474,0.906-0.898,2.259-1.553,3.105c-0.229,0.059-0.424,0.228-0.479,0.535c-0.004,0.021-0.008,0.042-0.011,0.062
		c-0.014,0.071-0.014,0.143-0.007,0.21c0.498,0.056,0.985,0.153,1.47,0.284c0.698-0.81,1.132-2.13,1.612-3.048l1.308-2.498
		c0.003,0.005,0.006,0.012,0.009,0.018c0.281,0.476,0.716,0.866,0.946,1.372c0.028,0.44,0.389,0.845,0.901,0.621
		c0.855-0.376,1.753-0.595,2.674-0.623l-2.785,5.974c0.46,0.148,0.906,0.331,1.35,0.53c1.077-2.312,2.154-4.624,3.232-6.935
		C92.128,52.249,91.345,51.688,90.826,51.945"/>
	<path fill="#FFFFFF" d="M75.889,57.823l3.644-0.309c0,0-0.068,3.334,0.481,5.122c0.549,1.786,2.337,3.712,2.337,3.712l3.542,2.604
		l0.342,0.628l-0.516,1.649l-1.547-0.103l-7.32-3.267L75.889,57.823z"/>
	<polygon fill="#FFFFFF" points="88.951,53.286 87.026,54.248 86.338,53.836 85.651,51.773 82.635,57.52 84.414,57.959 
		87.164,59.059 90.05,53.56 	"/>
	<polygon fill="#FFFFFF" points="91.81,52.93 89.364,58.373 90.188,59.198 92.113,58.786 	"/>
	<path d="M90.965,52.228c-1.142-0.078-2.269,0.055-3.349,0.422c-0.144-0.228-0.304-0.444-0.475-0.665
		c-0.244-0.318-0.593-0.721-0.53-1.153c0.05-0.329-0.101-0.577-0.317-0.721c-0.269-0.423-0.994-0.567-1.298,0.015l-1.832,3.5
		c-0.48,0.92-0.91,2.293-1.576,3.152c-0.231,0.06-0.43,0.232-0.486,0.544c-0.002,0.02-0.007,0.041-0.01,0.062
		c-0.014,0.073-0.015,0.145-0.007,0.213c0.506,0.057,1.001,0.155,1.491,0.288c0.709-0.82,1.149-2.163,1.639-3.094l1.326-2.535
		c0.003,0.005,0.006,0.011,0.009,0.017c0.286,0.484,0.727,0.88,0.961,1.393c0.027,0.447,0.395,0.858,0.915,0.63
		c0.868-0.382,1.778-0.603,2.714-0.631l-2.829,6.063c0.469,0.15,0.921,0.335,1.371,0.538c1.095-2.347,2.188-4.693,3.283-7.04
		C92.288,52.536,91.494,51.967,90.965,52.228"/>
</g>
</svg>
