<?xml version="1.0" encoding="utf-8"?>
<!-- Generator: Adobe Illustrator 15.1.0, SVG Export Plug-In . SVG Version: 6.00 Build 0)  -->
<!DOCTYPE svg PUBLIC "-//W3C//DTD SVG 1.1//EN" "http://www.w3.org/Graphics/SVG/1.1/DTD/svg11.dtd">
<svg version="1.1" id="Layer_1" xmlns="http://www.w3.org/2000/svg" xmlns:xlink="http://www.w3.org/1999/xlink" x="0px" y="0px"
	 width="400px" height="210.999px" viewBox="0 0 400 210.999" enable-background="new 0 0 400 210.999" xml:space="preserve">
<path fill="#231F20" d="M136.549,41.64c3.09,0,5.503,0.119,7.902-0.02c6.939-0.408,13.867-0.965,20.806-1.377
	c9.655-0.574,19.311-1.207,28.976-1.549c6.506-0.23,13.03-0.049,19.544,0.039c3.572,0.051,4.195,0.92,4.281,4.564
	c0.025,1.156,0.721,2.301,1.111,3.451l1.574-0.4c-0.473-2.697-0.725-5.463-1.555-8.045c-0.238-0.746-2.127-1.305-3.281-1.354
	c-4.998-0.205-10.016-0.012-15.007-0.283c-17.222-0.936-34.27,1.061-51.344,2.768c-3.415,0.344-6.86,0.414-10.29,0.613l-0.291-1.107
	c1.582-0.494,3.136-1.277,4.75-1.428c9.515-0.906,19.03-1.965,28.571-2.389c10.185-0.449,20.396-0.328,30.597-0.309
	c5.324,0.012,10.645,0.467,15.967,0.471c2.168,0.004,2.932,1.074,3.264,2.824c0.545,2.875,1.004,5.768,1.516,8.75
	c3.324,0,6.543,0.051,9.762-0.049c0.33-0.01,1.869,0.004,3.053,0.018c0.82,0.01,1.506,0.629,1.609,1.443
	c0.408,3.188,0.709,5.957,1.07,9.299c0.963,8.98,2.068,17.951,2.807,26.951c0.859,10.451,1.119,20.959,2.131,31.391
	c1.059,10.871,2.82,21.67,4.014,32.529c0.311,2.832,0.297,6.027-0.709,8.611c-2.838,7.301-3.07,14.891-2.631,22.402
	c0.281,4.768,2.018,9.539,3.656,14.109c1.527,4.254,3.791,8.248,5.801,12.512c-1.09,2.203-3.131,1.617-5.211,1.613
	c-8.033-0.016-16.068,0.211-24.105,0.303c-6.4,0.072-6.865-0.514-6.934-6.867c-0.082-7.338,0.463-14.82-0.789-21.973
	c-1.264-7.207-4.758-13.869-11.135-18.361c-0.41-0.289-1.004-0.438-1.516-0.443c-3.119-0.041-6.24-0.021-8.281-0.021
	c-2.292,2.619-3.751,5.043-5.861,6.57c-11.534,8.352-18.147,19.92-22.081,33.229c-2.431,8.221-2.428,8.457-10.813,8.34
	c-6.047-0.09-12.092-0.342-18.138-0.553c-0.378-0.012-0.747-0.281-2.238-0.875c1.058-0.375,1.471-0.654,1.881-0.65
	c5.958,0.068,11.945-0.158,17.864,0.371c5.366,0.482,7.128-0.111,8.497-5.332c3.49-13.322,10.213-24.635,20.634-33.709
	c1.293-1.127,2.723-2.086,4.149-3.037c1.186-0.791,1.874-1.713,2.127-2.805c0.425-1.834-1.55-3.295-3.191-2.379
	c-3.392,1.898-6.84,3.893-10.077-0.549c-2.907-3.992-1.558-8.918,0.579-12.727c2.332-4.156,6.288-1.617,9.447-0.369
	c2.652-2.959,0.888-5.576-0.667-7.525c-1.178-1.473-3.53-2.248-5.506-2.725c-0.803-0.193-2.264,1.029-2.961,1.955
	c-2.415,3.209-4.563,6.621-6.955,9.852c-0.681,0.918-1.836,1.486-3.063,1.922c1.985-5.293,7.336-8.254,7.989-14.391
	c0.062-0.584-0.449-1.076-1.033-1.002c-4.01,0.506-7.31,1.146-9.058,5.268c-1.056,2.488-2.434,4.865-3.89,7.15
	c-0.638,1-1.834,1.646-2.777,2.453c-0.197-0.215-0.395-0.428-0.591-0.641c1.391-2.404,2.861-4.77,4.135-7.234
	c0.529-1.021,1.926-2.836,0.91-3.402c-1.37-0.77-0.305-1.238-2-0.447c-5.846,2.721-10.645,5.799-10.48,12.455
	c0.147,5.914,1.106,11.883,2.372,17.682c1.396,6.404,0.722,12.303-2.372,17.971c-3.176,5.818-6.446,11.584-9.661,17.383
	c-0.544,0.982-1.013,2.006-1.515,3.012l-1.4-1.262c1.524-2.68,3.147-5.312,4.55-8.055c2.567-5.016,5.349-9.965,7.357-15.203
	c1.069-2.791,1.182-6.176,0.884-9.213c-0.432-4.41-1.623-8.746-2.498-13.111c-0.063-0.318-0.284-0.623-0.282-0.934
	c0.057-5.621-1.071-10.902-2.637-16.383c-2.154-7.531-2.379-15.621-3.338-23.482c-1.959-16.037-3.263-32.182-6.015-48.08
	c-1.498-8.648-1.908-17.225-2.286-25.883C136.176,42.921,136.518,41.845,136.549,41.64 M158.039,137.722
	c2.152-1.674,4.305-3.352,6.643-5.172c-2.404-27.59-4.851-55.678-7.315-83.949c-3.086,0.408-6.701,0.889-10.614,1.406
	c1.024,6.854,1.946,13.291,2.958,19.713c0.953,6.053,2.296,12.061,2.951,18.143c1.464,13.619,2.568,27.279,3.911,40.916
	c0.295,3,0.973,5.959,1.472,8.939c-1.146,0.057-2.293,0.111-3.526,0.17c-0.213-1.143-0.461-2.088-0.558-3.047
	c-1.28-12.701-2.467-25.412-3.822-38.104c-1.528-14.322-3.291-28.619-4.764-42.949c-0.449-4.367-2.679-7.082-6.938-9.424
	c0,2.334-0.188,4.166,0.032,5.949c1.39,11.211,2.954,22.4,4.301,33.619c2.161,17.988,4.156,36,6.347,53.992
	c0.246,2.029-0.016,4.754,2.781,5.33C154.089,141.276,156.064,139.501,158.039,137.722 M242.414,138.446
	c0.215-0.223,0.43-0.445,0.645-0.668c-0.768-9.479-1.49-18.959-2.316-28.432c-1.117-12.869-2.281-25.732-3.484-38.594
	c-0.598-6.373-1.34-12.732-1.99-19.1c-0.168-1.615-0.615-2.441-2.613-2.385c-4.98,0.139-9.973-0.021-14.959-0.17
	c-10.205-0.303-20.407-0.787-30.614-0.988c-8.24-0.158-16.484-0.014-24.726,0.01c-2.391,0.006-3.527,1-3.224,3.604
	c0.515,4.424,0.754,8.881,1.205,13.312c1.24,12.207,2.649,24.4,3.769,36.621c0.968,10.572,1.969,20.666,2.804,31.768
	c0.995,0.064,2.012,0.953,3.21,0.67c2.19-0.521,4.322-1.354,6.415-2.207c2.354-0.961,4.043-0.801,4.351,2.285
	c1.042-0.115,1.904-0.162,2.748-0.312c4.511-0.824,9.543,3.221,9.571,7.711c0.018,3.02-3.111,6.525-5.598,6.096
	c-1.257-0.217-2.413-1.107-3.662-1.24c-0.926-0.096-2.67,0.389-2.772,0.881c-0.459,2.209-0.752,4.537-0.568,6.777
	c0.399,4.854,3.726,6.314,7.894,3.801c1.605-0.969,3.417-1.594,5.199-2.406c0.614,1.363,1.004,2.23,1.35,3
	c1.989,0,3.837,0.113,5.667-0.029c2.449-0.188,5.517,0.867,6.023-3.375c0.102-0.859,2.758-2.219,3.955-1.973
	c2.184,0.445,4.215,1.824,6.189,3.016c0.818,0.492,1.33,1.5,2.229,2.57c0.461-1.287,1.008-2.088,0.977-2.869
	c-0.072-1.99,0.275-4.484-0.76-5.861c-2.992-3.982-6.754-7.381-9.879-11.277c-1.803-2.244-0.936-4.809,1.879-5.697
	c2.41-0.764,5.064-0.756,8.182-1.162c3.43-4.811,6.355-5.045,11.715-0.232C238.684,126.966,240.244,133.259,242.414,138.446
	 M227.35,152.12c-0.881-2.377-1.988-4.207-2.193-6.133c-0.678-6.355-4.055-10.105-10.209-11.381
	c-1.049-0.217-2.225,0.164-3.34,0.268c0.357,1.025,0.479,2.24,1.121,3.039c2.502,3.117,5.281,6.014,7.746,9.16
	c2.357,3.006,2.932,6.574,1.635,10.127c-0.57,1.566-2.127,2.773-3.354,4.291c-2.062-1.883-3.973-3.973-6.246-5.529
	c-0.359-0.246-0.818-0.346-1.326-0.373c-1.451-0.084-2.475,1.396-1.951,2.754c0.137,0.357,0.299,0.699,0.506,1.012
	c1.941,2.982,4.336,5.691,6.104,8.764c4.045,7.039,4.396,14.896,4.572,22.777c0.102,4.451,0.398,8.906,0.779,13.346
	c0.057,0.656,1.076,1.766,1.643,1.76c9.188-0.098,18.373-0.344,27.938-0.564c-0.373-0.812-0.549-1.168-0.701-1.531
	c-2.236-5.285-5.102-10.406-6.564-15.898c-2.629-9.869-1.801-19.988,1.391-29.553c2.275-6.812-0.682-11.869-3.314-17.473
	c-0.877-1.869-1.92-3.652-2.971-5.43c-0.562-0.947-1.012-2.346-1.889-2.771c-1.031-0.498-2.424-0.254-3.658-0.33
	c-0.004,0.998-0.305,2.119,0.045,2.971c1.232,2.971,2.799,5.807,4.002,8.787c0.41,1.016,0.125,2.312,0.16,3.482
	c-0.951-0.73-2.133-1.301-2.795-2.236c-0.795-1.123-1.016-2.641-1.723-3.85c-1.908-3.262-3.803-6.557-6.018-9.607
	c-0.635-0.877-2.527-1.557-3.508-1.252c-0.9,0.277-1.352,2.004-2.037,3.156C226.455,136.218,230.953,148.681,227.35,152.12
	 M216.523,46.485c-0.713-6.895,0.119-5.998-6.055-6.104c-8.023-0.137-16.056-0.131-24.076,0.117
	c-12.581,0.389-25.155,0.982-37.727,1.609c-2.155,0.109-4.278,0.811-7.043,1.367c2.215,2.01,3.866,3.508,5.052,4.586
	c1.689-0.658,2.793-1.406,3.939-1.479c7.907-0.52,15.82-1.211,23.734-1.246c11.276-0.047,22.556,0.4,33.837,0.678
	C210.867,46.081,213.549,46.312,216.523,46.485"/>
<path fill="#231F20" d="M386.65,60.601h3.762c3.174,0,5.383,2.977,4.678,6.072c-0.004,0.02-0.01,0.039-0.014,0.057
	c-0.602,2.791-0.062,5.83,0.025,8.764c0.201,6.709,0.357,13.42,0.646,20.123c0.465,10.738,0.887,21.482,1.631,32.201
	c0.188,2.691-0.57,3.59-3.016,3.684c-13.035,0.5-26.064,1.068-39.1,1.514c-4.527,0.154-9.07,0.025-13.84,0.025
	c-0.197-2.154-0.379-3.963-0.533-5.777c-0.887-10.473-1.904-20.939-2.607-31.424c-0.488-7.27-0.602-14.566-0.77-21.854
	c-0.09-3.873-0.217-7.781,0.172-11.621c0.502-4.943,1.871-5.932,6.867-6.158c11.844-0.541,23.684-1.096,35.529-1.631
	c0.779-0.037,1.564-0.01,2.342,0.07C386.975,55.112,387.252,55.386,386.65,60.601 M360.145,130.987
	c11.244-0.83,22.672,1.252,34.111-1.738c-0.281-2.553-0.68-4.789-0.746-7.031c-0.201-6.945-0.197-13.895-0.422-20.84
	c-0.355-11.057-0.906-22.109-1.199-33.17c-0.064-2.432-0.83-3.301-3.225-3.236c-7.711,0.203-15.424,0.297-23.135,0.406
	c-2.775,0.041-5.553,0.008-7.777,0.008c0,5.35-0.023,10.654,0.008,15.959c0.016,2.721,0.096,5.441,0.197,8.156
	c0.197,5.199,0.494,10.393,0.635,15.59C358.822,113.62,357.605,122.231,360.145,130.987 M357.621,130.675
	c-0.438-2.729-1.141-5.283-1.201-7.855c-0.379-16.201-0.586-32.404-0.918-48.607c-0.047-2.385-0.047-4.92-0.869-7.078
	c-0.41-1.074-2.6-1.826-4.066-1.988c-0.744-0.086-2.377,1.436-2.402,2.27c-0.186,5.977-0.391,11.99,0.055,17.943
	c0.605,8.102,1.773,16.164,2.719,24.24c0.705,6.033,1.578,12.051,2.094,18.1C353.287,130.675,354.541,131.491,357.621,130.675
	 M339.949,62.962c-0.338,23.08,2.75,45.363,3.926,68.004c2.305-0.129,4.062-0.227,5.803-0.324
	c-0.773-6.674-1.535-12.91-2.211-19.156c-0.701-6.475-1.582-12.945-1.91-19.439c-0.379-7.475-0.254-14.977-0.307-22.465
	c-0.01-1.668-0.592-4.279-0.592-4.279s-0.863,0.686,0,0C343.055,64.505,341.764,63.862,339.949,62.962 M340.66,59.405
	c3.102,2.881,6.885,3.92,10.428,3.252c1.908-0.361,3.854-0.68,5.789-0.719c8.121-0.158,16.246-0.16,24.367-0.314
	c2.436-0.049,3.967-1.09,2.9-4.256C369.717,56.229,355.377,58.116,340.66,59.405"/>
<path fill="#231F20" d="M326.326,119.868c-0.598-8.123-1.135-16.242-1.891-24.344c-0.588-6.449-1.625-12.854-2.15-19.303
	c-0.281-3.424,0.244-6.902,0.145-10.346c-0.082-2.762-1.326-4.232-4.561-4.078c-5.629,0.264-5.932-0.246-5.73-6.023
	c0.01-0.316,0.191-0.635,0.174-0.951c-0.072-2.326-0.555-3.891-3.617-3.525c-14.777,1.742-29.572,3.289-44.352,4.967
	c-0.9,0.102-2.307,0.537-2.498,1.137c-0.727,2.271-1.697,4.752-1.434,7.021c1.332,11.699,1.822,23.443,2.66,35.18
	c0.781,10.998,2.924,21.906,4.621,32.834c0.139,0.891,1.4,2.236,2.209,2.281c5.178,0.344,10.373,0.51,15.568,0.463
	c2.742-0.025,5.477-0.617,8.211-0.947c0.027,0.186-0.027-0.18,0,0c3.615-0.588,7.305-0.67,10.93-1.205
	c6.33-0.955,12.668-1.818,19-2.771c2.143-0.326,3.217-1.652,3.088-3.879C326.572,124.21,326.49,122.028,326.326,119.868
	 M309.996,53.151c0.234,3.15,0.416,5.566,0.619,8.229c-4.807,0.256-9.32,0.445-13.828,0.754c-7.111,0.48-14.232,0.891-21.307,1.699
	c-2.09,0.234-3.426,0.172-4.715-1.6c-0.926-1.271-2.324-2.189-4.359-4.033C281.42,56.464,295.508,54.831,309.996,53.151
	 M270.512,132.946c-5.996-23.754-5.178-48.059-8.012-71.984c0.482-0.281,0.535-0.307,1.018-0.602
	c1.154,0.811,2.279,1.654,3.469,2.418c1.908,1.236,2.316,2.727,2.279,5.15c-0.072,5.385,0.482,10.809,1.236,16.148
	c1.445,10.094,3.279,20.131,4.805,30.211c0.764,5.051,1.182,10.148,1.834,15.215c0.109,0.863,0.652,1.682,1.145,2.871
	C275.697,132.565,273.236,132.745,270.512,132.946 M287.631,132.155c-2.27,0.246-4.502,0.463-6.301,0.645
	c-3.715-21.781-6.223-44.199-9.238-65.125c2.916-0.773,3.262-0.971,5.584-1.436c1.645-0.334,2.455,0.363,2.689,2.262
	c1.916,15.65,3.998,31.273,5.959,46.914c0.627,5.014,1.07,10.047,1.582,15.068C287.932,130.728,287.732,131.511,287.631,132.155
	 M321.531,128.522c-10.209,1.035-20.41,2.172-30.611,3.277c-2.297-17.908-5.703-39.119-7.992-56.895
	c-0.311-2.371-0.344-4.779-0.672-7.148c-0.266-1.836,0.654-2.316,2.189-2.373c8.775-0.309,17.547-0.625,26.32-0.906
	c1.729-0.064,3.463,0.109,5.178-0.035c3.09-0.246,3.926,1.551,4.043,4.139c0.236,5.215,0.363,10.447,0.773,15.65
	c0.545,7.023,1.426,14.016,1.943,21.039c0.5,6.83,0.709,13.678,1.09,20.508C323.893,127.487,323.412,128.333,321.531,128.522"/>
<path fill="#00ADDD" d="M287.906,130.483c0.025,0.244-0.172,1.027-0.275,1.672c-2.27,0.246-4.502,0.463-6.301,0.645
	c-3.715-21.781-6.223-44.199-9.238-65.125c2.916-0.773,3.26-0.971,5.584-1.436c1.645-0.334,2.455,0.363,2.689,2.262
	c1.916,15.65,3.998,31.273,5.959,46.914C286.951,120.429,287.395,125.462,287.906,130.483"/>
<path fill="#231F20" d="M6.14,68.144L5.172,65.47c-0.201-0.555,0.143-1.162,0.725-1.271c2.116-0.393,4.434-0.883,6.778-1.113
	c9.618-0.949,19.249-1.775,28.875-2.648c0.217-0.018,0.453-0.025,0.645-0.062c7.62-1.381,8.956,0.699,11.832,4.916
	c0.475,0.697,1.023,1.346,1.906,2.494c1.082,0.914,1.997,1.512,4.165,1.504c2.367-0.01,2.885,1.182,2.991,3.256
	c0.863,16.924,1.89,33.84,2.664,50.768c0.237,5.191-0.009,10.424-0.381,15.613c-0.081,1.119-1.478,2.764-2.581,3.082
	c-5.108,1.465-10.273,2.193-15.721,1.879c-5.905-0.346-11.877,0.709-17.821,0.719c-5.596,0.01-11.191-0.381-16.786-0.682
	c-1.042-0.055-1.809-1.002-1.631-2.031c0.229-1.311,0.436-3.02,0.25-4.23c-2.242-14.598-4.462-29.199-6.526-43.822
	c-0.879-6.232-1.536-12.512-1.948-18.793c-0.148-2.281,0.662-4.643,1.214-6.924c0.044-0.182,0.968-1.488,1.768-1.494
	c2.868,2.354,6.282,3.816,9.15,6.182c-0.043,1.475,0.076,5.395,0.213,6.854c0.648,6.9,0.986,13.748,1.791,20.633
	c1.383,11.832,2.92,23.648,4.289,35.484c0.26,2.252,0.038,4.561,0.038,7.047c2.438-0.137,4.897-0.277,7.309-0.41
	c-2.354-22.896-4.686-45.576-7.081-68.865c-2.456,0.613-4.505,1.127-6.556,1.639c-0.002-0.926-0.002-1.848-0.002-2.381
	c13.933-3.215,27.141-2.713,39.126-3.383c-1.894-4.713-5.214-7.789-9.831-6.979c-3.36,0.588-6.9,0.902-10.272,1.262
	c-6.213,0.658-12.488,0.707-18.713,1.273C11.884,65.272,8.469,65.294,6.14,68.144 M22.962,73.759
	c2.285,23.166,4.529,45.906,6.817,69.105c11.113-0.695,21.464-1.303,31.802-2.078c0.681-0.051,1.781-1.338,1.812-2.086
	c0.215-5.084,0.424-10.189,0.205-15.271c-0.545-12.688-1.316-25.363-2.004-38.045c-0.252-4.621-0.527-9.24-0.791-13.822
	C48.174,72.294,35.96,73.005,22.962,73.759 M4.935,72.024c-0.099,0.934-0.291,1.559-0.21,2.15c1.296,9.525,2.383,19.086,4.01,28.553
	c2.252,13.113,4.728,26.182,5.414,39.547c1.46,0.084,3.16,0.182,4.631,0.268c-0.63-4.639-1.285-9.121-1.84-13.613
	c-1.466-11.869-2.863-23.746-4.387-35.604c-0.115-0.895-1.389-6.686-0.928-8.871C13.124,77.341,11.924,74.999,4.935,72.024"/>
<path fill="#231F20" d="M137.679,125.37c-1.071-7.611-2.68-15.158-3.424-22.807c-0.958-9.736-2.774-19.469-1.264-29.449
	c0.227-1.492-0.746-2.902-2.231-3.17c-1.23-0.225-2.408-0.408-3.581-0.398c-3.197,0.035-4.161-1.672-4.26-4.451
	c-0.028-0.816-0.101-1.631-0.183-2.443c-0.117-1.166-1.216-1.977-2.364-1.74c-1.391,0.289-2.599,0.541-3.82,0.613
	c-5.831,0.328-11.672,0.445-17.503,0.771c-6.939,0.393-13.87,0.957-20.81,1.328c-2.443,0.127-1.707,1.57-1.58,2.961
	c0.263,2.861,0.662,5.738,0.552,8.602c-0.162,4.314,2.426,12.254,2.426,12.254c0.318,0.309,0.263,1.025,0.327,1.562
	c1.207,9.254,2.379,18.502,3.606,27.746c1.153,8.693,2.361,17.387,3.57,26.27c4.042,0.191,8.038,0.729,11.989,0.492
	c11.672-0.691,23.325-1.762,34.988-2.525c3.143-0.211,4.651-1.627,4.514-4.615C138.46,132.7,138.188,129.013,137.679,125.37
	 M120.767,62.452c0.163,2.361,0.308,4.367,0.49,7.021c-3.524,0-7.039-0.072-10.545,0.016c-6.176,0.164-12.625-0.615-18.439,0.955
	c-5.14,1.391-7.082-1.678-11.014-3.484C94.593,62.007,107.759,65.694,120.767,62.452 M89.484,140.647
	c-3.325-23.859-6.631-47.604-9.919-71.221c1.69,0.773,3.452,1.58,5.141,2.354c1.808,21.555,5.959,47.314,8.866,68.867H89.484z
	 M95.661,140.856c-2.579-21.473-4.551-45.75-7.085-67.305c0.218,0.1-0.653-0.301,0,0c1.854-1.045,3.679-1.408,4.297-1.752
	c0.999,5.465,2.026,10.57,2.833,15.723c0.455,2.877,0.582,5.812,0.782,8.736c0.754,11.281,1.399,22.57,2.253,33.854
	c0.163,2.135-0.455,7.756,0.399,10.562C97.978,140.739,96.814,140.794,95.661,140.856 M133.564,138.94
	c-10.881,0.48-21.763,1.07-32.635,1.635c-1.672-21.926-3.343-46.916-5.042-68.996h34.117c0,4.408-0.362,8.414,0.064,12.336
	c1.498,13.588,3.27,27.15,4.932,40.73c0.463,3.758,0.917,7.518,1.308,11.289C136.499,137.868,135.771,138.841,133.564,138.94"/>
<path fill="#00ADDD" d="M93.572,140.647h-4.087c-3.325-23.859-6.631-47.604-9.92-71.221c1.69,0.773,3.452,1.58,5.141,2.354
	C86.515,93.335,90.665,119.095,93.572,140.647"/>
<path fill="#00ADDD" d="M99.14,140.675c-1.162,0.064-2.325,0.119-3.478,0.182c-0.241,0.014-1.928-17.387-2.089-18.947
	c-0.674-6.549-1.314-13.102-1.963-19.648c-0.643-6.494-1.293-12.984-1.995-19.471c-0.332-3.074-0.727-6.146-1.035-9.223
	c0-0.002,1.265-0.889,1.371-0.953c0.45-0.275,0.947-0.467,1.464-0.564c0.474-0.09,1.026-0.012,1.458-0.25
	c0.999,5.465,2.025,10.57,2.834,15.723c0.454,2.877,0.581,5.812,0.781,8.736c0.754,11.281,1.399,22.57,2.252,33.854
	C98.903,132.247,98.286,137.868,99.14,140.675"/>
<path fill="#231F20" d="M185.887,18.669c-0.608-3.969-0.844-10.194-0.598-15.507c0.103-2.193,3.346-2.282,3.549-0.097
	c0.002,0.03,0.004,0.061,0.007,0.091c0.403,4.538,0.418,9.11,0.645,13.667c0.035,0.686,0.01,1.336-0.101,1.943
	C189.036,20.722,186.188,20.632,185.887,18.669"/>
<path fill="#231F20" d="M146.601,22.247c1.242,1.803-1.447,3.709-2.788,1.977c-4.721-6.096-9.365-12.068-13.903-18.119
	c-0.083-0.11-0.141-0.238-0.183-0.378c-0.382-1.298,1.125-2.393,2.294-1.708c0.198,0.115,0.37,0.25,0.505,0.417
	c4.528,5.573,8.894,11.283,13.377,16.894C146.151,21.64,146.391,21.944,146.601,22.247"/>
<path fill="#231F20" d="M258.49,167.245c-0.516-1.039,0.652-2.105,1.641-1.494c5.533,3.42,11.08,6.828,16.562,10.342
	c0.008,0.004,0.014,0.012,0.02,0.016c1.076,0.723,0.129,2.42-1.094,1.996C266.492,174.931,260.273,170.841,258.49,167.245"/>
<path fill="#231F20" d="M292.033,158.552c0.65,0.963-0.363,2.176-1.424,1.703c-5.943-2.641-11.902-5.271-17.805-8.016
	c-0.01-0.002-0.018-0.006-0.025-0.01c-1.162-0.57-0.453-2.383,0.82-2.125C283.066,152.015,289.781,155.231,292.033,158.552"/>
<path fill="#231F20" d="M231.975,25.528c-0.309-0.189-0.445-0.564-0.334-0.906c0.279-0.857,0.508-1.752,1.014-2.445
	c3.951-5.43,7.973-10.809,12.039-16.154c0.254-0.335,0.654-0.558,1.074-0.764c0.447-0.219,0.98,0.028,1.104,0.511
	c0.146,0.591,0.273,1.178,0.098,1.652c-0.438,1.188-1.287,2.248-2.078,3.275c-3.443,4.46-6.91,8.901-10.412,13.313
	c-0.445,0.561-1.043,1-1.613,1.463C232.609,25.677,232.252,25.7,231.975,25.528"/>
<path fill="#231F20" d="M121.423,44.683c-1.015-0.443-1.775-0.688-2.446-1.082c-3.827-2.254-7.678-4.475-11.406-6.881
	c-0.077-0.049-0.149-0.104-0.215-0.168c-1.088-1.023-0.358-2.91,1.127-3.074c0.332-0.037,0.631-0.016,0.872,0.115
	c4.366,2.379,8.601,5.002,12.829,7.629c0.007,0.004,0.014,0.01,0.021,0.016c1.125,0.715,1.003,2.414-0.151,3.082L121.423,44.683z"/>
<path fill="#231F20" d="M268.619,41.565c-4.746,2.703-9.494,5.402-14.24,8.105c-0.24-0.18-0.48-0.359-0.721-0.541
	c0.324-0.863,0.393-2.139,1.016-2.529c4.162-2.604,8.352-5.17,12.74-7.332C268.189,40.749,267.844,40.083,268.619,41.565"/>
<path fill="#231F20" d="M143.597,175.64c1.398,0.35,2.414,1.639,2.293,3.072c-0.025,0.299-0.099,0.549-0.256,0.727
	c-4.329,4.885-8.837,9.609-13.339,14.334c-0.523,0.551-1.349,0.814-2.034,1.209c-0.104-0.111-0.208-0.223-0.311-0.332
	C135.92,184.478,137.625,185.81,143.597,175.64"/>
<path fill="#231F20" d="M201.186,182.153c0.254,3.635,0.102,8.109-0.359,11.762c-0.177,1.408-2.248,1.33-2.311-0.086
	c-0.175-4.014-0.115-7.92,0.518-11.771C199.24,180.792,201.098,180.874,201.186,182.153"/>
<path fill="#231F20" d="M103.299,165.571c5.858-4.115,12.69-7.273,19.842-10.121c2.464-0.98,4.762,1.441,2.376,2.506
	C116.88,161.812,107.769,165.138,103.299,165.571"/>
<path fill="#FFFFFF" d="M242.311,138.19c-2.119-5.135-3.748-11.15-11.09-6.602c-5.361-4.812-8.285-4.578-11.715,0.232
	c-3.117,0.406-5.771,0.398-8.182,1.162c-2.812,0.889-3.68,3.453-1.879,5.697c3.125,3.896,6.887,7.295,9.879,11.277
	c1.035,1.377,0.688,3.871,0.76,5.861c0.031,0.781-0.516,1.582-0.977,2.869c-0.898-1.074-1.41-2.078-2.229-2.57
	c-1.975-1.191-4.006-2.57-6.189-3.016c-1.197-0.246-3.854,1.113-3.955,1.977c-0.508,4.238-3.574,3.184-6.022,3.371
	c-1.831,0.143-3.679,0.029-5.667,0.029c-0.188-0.416-0.39-0.865-0.631-1.402c-0.395-0.881-1.419-1.283-2.304-0.91
	c-1.252,0.525-2.484,1.037-3.615,1.719c-4.011,2.422-7.579,0.684-7.907-3.99c-0.153-2.182,0.136-4.439,0.583-6.588
	c0.102-0.492,1.846-0.977,2.773-0.881c1.248,0.133,2.404,1.023,3.659,1.24c2.488,0.43,5.618-3.076,5.6-6.096
	c-0.028-4.49-5.06-8.535-9.571-7.711c-0.843,0.15-1.705,0.197-2.748,0.312c-0.307-3.086-1.996-3.246-4.35-2.285
	c-2.093,0.854-4.224,1.686-6.415,2.207c-1.199,0.283-2.216-0.605-3.21-0.67c-0.836-11.102-1.836-21.195-2.804-31.768
	c-1.12-12.221-2.528-24.414-3.769-36.623c-0.451-4.432-0.689-8.887-1.205-13.311c-0.303-2.602,0.835-3.598,3.225-3.604
	c8.242-0.023,16.486-0.168,24.726-0.008c10.208,0.199,20.409,0.684,30.614,0.986c4.986,0.146,9.977,0.309,14.959,0.17
	c1.998-0.057,2.445,0.77,2.613,2.385c0.65,6.367,1.393,12.727,1.99,19.1c1.203,12.861,2.367,25.725,3.484,38.594
	c0.832,9.547,1.561,19.104,2.334,28.658C242.633,138.112,242.752,138.081,242.311,138.19 M193.098,99.161l0.068,0.086
	c0.108-2.588-1.458-2.834-3.349-2.211c-2.062,0.68-4.126,5.393-3.269,7.598c0.842,2.164,2.248,3.799,4.981,3.082
	c2.503-0.66,4.924-4.338,4.457-6.889C195.693,99.22,194.968,98.14,193.098,99.161 M179.722,97.149
	c-2.606,2.4-4.842,4.459-7.731,7.119c3.78-0.416,6.677-0.736,10.127-1.115c-1.22,4.221-4.697,4.811-7.659,6.584
	c3.047,1.119,5.105-0.467,6.756-1.834c1.276-1.059,2.596-3.303,2.321-4.715c-0.463-2.365-2.854-1.568-4.665-1.186
	c-0.252,0.051-0.549-0.1-0.991-0.193c0.626-0.783,1.339-1.369,1.642-2.121c0.487-1.211,1.192-2.684,0.855-3.742
	c-0.202-0.637-2.223-0.994-3.408-0.947c-2.244,0.084-4.473,0.553-6.645,0.855c-1.308,6.701-0.875,10.064,1.729,11.381
	c-0.089-1.867-0.219-3.553-0.239-5.24C171.753,96.917,173.521,95.651,179.722,97.149 M216.971,99.183
	c1.191,0.703,2.25,1.076,2.961,1.795c1.877,1.893,3.119,1.213,4.371-0.695c0.965-1.469,2.121-2.812,3.762-4.953
	c0.326,4.434,0.58,7.863,0.891,12.061c2.117-2.947,1.809-12.338,0-13.658c-0.512-0.375-2.076-0.061-2.592,0.477
	c-1.561,1.631-2.844,3.529-4.299,5.404c-2.504-1.555-4.789-2.975-7.074-4.395c-0.303,0.225-0.609,0.449-0.912,0.674l1.541,10.773
	c0.578-0.035,1.16-0.066,1.738-0.1C217.234,104.233,217.111,101.903,216.971,99.183 M199.882,71.749
	c-3.137,2.592-5.797,4.791-8.251,6.822c-2.986-1.375-5.671-2.609-8.741-4.021c0.237,4.895,0.042,9.281,1.354,13.438
	c0.448-0.049,0.896-0.098,1.344-0.146c-0.217-3.359-0.437-6.721-0.705-10.848c2.493,1.518,4.471,2.723,6.549,3.99
	c2.171-1.812,4.446-3.711,6.91-5.764c1.017,3.811,0.305,7.758,2.453,10.762c0.424-0.117,0.848-0.23,1.272-0.348
	C201.391,81.339,200.714,77.046,199.882,71.749 M206.568,73.927c-0.303,0.297-0.607,0.592-0.91,0.887
	c1.012,1.197,2.135,2.322,3.006,3.617c1.086,1.607,2.01,3.326,2.896,5.057c0.32,0.619,0.168,3.25,0.32,3.957
	c0.566-0.635,1.686-3.061,1.785-3.764c0.441-3.102,0.658-6.234,0.898-9.361c0.057-0.732-0.113-1.484-0.184-2.227
	c-0.33-0.029-0.66-0.061-0.992-0.088c-0.387,1.969-0.773,3.936-1.264,6.436C210.006,76.722,208.287,75.323,206.568,73.927
	 M203.705,99.349c0.338,2.928,0.688,5.947,1.035,8.967c0.588-0.055,1.18-0.111,1.766-0.166c-0.172-2.207-0.314-4.42-0.525-6.625
	c-0.172-1.787,0.047-3.15,2.246-3.533c0.693-0.119,1.242-1.064,1.857-1.631c-0.16-0.23-0.324-0.461-0.484-0.689
	c-3.281,0.498-6.562,0.996-9.845,1.496c-0.063,0.221-0.125,0.441-0.187,0.662C200.853,98.302,202.139,98.774,203.705,99.349"/>
<path fill="#00ADDD" d="M158.045,137.718c-0.501-2.98-1.178-5.939-1.474-8.939c-1.343-13.637-2.446-27.295-3.911-40.916
	c-0.655-6.082-1.998-12.09-2.951-18.143c-1.012-6.422-1.933-12.857-2.957-19.713c3.912-0.518,7.527-0.998,10.613-1.406
	c2.464,28.271,4.911,56.359,7.315,83.949c-2.338,1.82-4.491,3.498-6.642,5.172L158.045,137.718z"/>
<path fill="#00ADDD" d="M158.039,137.72c-1.975,1.781-3.95,3.557-6.143,5.535c-2.796-0.576-2.534-3.301-2.781-5.33
	c-2.19-17.992-4.184-36.004-6.347-53.992c-1.347-11.219-2.911-22.408-4.301-33.619c-0.22-1.783-0.032-3.615-0.032-5.949
	c4.259,2.342,6.491,5.057,6.938,9.424c1.473,14.33,3.235,28.627,4.764,42.949c1.355,12.691,2.542,25.402,3.822,38.104
	c0.097,0.959,0.345,1.904,0.558,3.047c1.232-0.059,2.379-0.113,3.527-0.17L158.039,137.72"/>
<path fill="#FFFFFF" d="M216.523,46.485c-2.975-0.174-5.656-0.404-8.338-0.471c-11.281-0.277-22.561-0.725-33.837-0.678
	c-7.915,0.035-15.827,0.727-23.734,1.246c-1.146,0.072-2.25,0.82-3.939,1.479c-1.187-1.078-2.837-2.576-5.052-4.586
	c2.766-0.557,4.889-1.258,7.043-1.367c12.572-0.627,25.146-1.221,37.727-1.609c8.02-0.248,16.053-0.254,24.076-0.117
	C216.643,40.487,215.811,39.591,216.523,46.485"/>
<path fill="#FFFFFF" d="M360.145,130.985c-2.539-8.754-1.326-17.365-1.553-25.895c-0.141-5.197-0.438-10.391-0.635-15.59
	c-0.102-2.719-0.182-5.436-0.197-8.156c-0.031-5.305-0.008-10.609-0.008-15.961c2.225,0,5.002,0.035,7.777-0.006
	c7.711-0.109,15.424-0.203,23.133-0.406c2.396-0.066,3.164,0.803,3.227,3.236c0.293,11.061,0.844,22.113,1.199,33.17
	c0.225,6.945,0.221,13.895,0.422,20.84c0.066,2.244,0.465,4.479,0.746,7.031C382.816,132.239,371.389,130.157,360.145,130.985"/>
<path fill="#00ADDD" d="M357.621,130.675c-3.08,0.816-4.334,0-4.59-2.977c-0.516-6.049-1.389-12.066-2.094-18.1
	c-0.945-8.076-2.113-16.139-2.719-24.24c-0.445-5.955-0.24-11.967-0.057-17.943c0.027-0.834,1.66-2.355,2.404-2.27
	c1.467,0.162,3.656,0.914,4.066,1.988c0.822,2.16,0.822,4.693,0.869,7.078c0.332,16.203,0.539,32.406,0.918,48.607
	C356.48,125.392,357.184,127.946,357.621,130.675"/>
<path fill="#00ADDD" d="M339.949,62.962c1.814,0.9,3.105,1.543,4.709,2.34c-0.863,0.686,0,0,0,0s0.584,2.609,0.592,4.279
	c0.051,7.488-0.07,14.988,0.307,22.465c0.328,6.494,1.209,12.965,1.91,19.439c0.676,6.246,1.438,12.482,2.211,19.156
	c-1.74,0.098-3.498,0.195-5.805,0.324C342.699,108.325,339.611,86.042,339.949,62.962"/>
<path fill="#FFFFFF" d="M340.66,59.405c14.717-1.289,29.057-3.176,43.484-2.037c1.066,3.166-0.465,4.207-2.9,4.256
	c-8.121,0.154-16.246,0.156-24.367,0.314c-1.936,0.039-3.881,0.357-5.789,0.719C347.545,63.325,343.762,62.286,340.66,59.405"/>
<path fill="#00ADDD" d="M263.533,60.376c1.148,0.805,2.275,1.641,3.449,2.402c1.91,1.236,2.318,2.727,2.287,5.154
	c-0.072,5.377,0.477,10.805,1.236,16.145c1.438,10.094,3.275,20.129,4.803,30.211c0.766,5.049,1.176,10.148,1.83,15.217
	c0.115,0.863,0.658,1.676,1.146,2.865c-2.588,0.191-5.049,0.375-7.773,0.576c-6.021-23.846-5.174-48.246-8.041-72.254
	C262.826,60.587,263.18,60.481,263.533,60.376"/>
<path fill="#FFFFFF" d="M266.404,58.202c15.014-1.74,29.104-3.371,43.592-5.047c0.234,3.145,0.416,5.566,0.615,8.221
	c-4.803,0.26-9.316,0.443-13.824,0.756c-7.109,0.486-14.23,0.891-21.303,1.697c-2.096,0.24-3.43,0.174-4.719-1.6
	C269.842,60.964,268.445,60.046,266.404,58.202"/>
<path fill="#FFFFFF" d="M22.962,73.759c12.999-0.754,25.212-1.465,37.842-2.197c0.263,4.582,0.539,9.201,0.791,13.822
	c0.689,12.682,1.458,25.357,2.004,38.047c0.218,5.08,0.008,10.186-0.205,15.27c-0.032,0.748-1.132,2.037-1.812,2.086
	c-10.338,0.773-20.688,1.383-31.803,2.078C27.491,119.665,25.247,96.927,22.962,73.759"/>
<path fill="#00ADDD" d="M14.744,75.19c2.05-0.512,4.1-1.025,6.556-1.641c2.395,23.291,4.727,45.971,7.081,68.867
	c-2.412,0.133-4.871,0.273-7.309,0.408c0-2.484,0.222-4.793-0.038-7.045c-1.369-11.836-2.906-23.65-4.289-35.484
	c-0.804-6.885-1.464-13.787-2.111-20.688c-0.137-1.459,0.06-2.947,0.104-4.426L14.744,75.19z"/>
<path fill="#00ADDD" d="M4.935,72.024c6.989,2.975,8.188,5.316,6.689,12.43c-0.46,2.186,0.813,7.977,0.928,8.871
	c1.524,11.857,2.921,23.734,4.387,35.604c0.555,4.492,1.209,8.975,1.84,13.613c-1.472-0.086-3.171-0.184-4.631-0.268
	c-0.686-13.365-3.162-26.434-5.414-39.547C7.107,93.261,6.021,83.7,4.725,74.175C4.645,73.583,4.836,72.958,4.935,72.024"/>
<path fill="#FFFFFF" d="M120.767,62.448c0.167,2.365,0.308,4.375,0.494,7.025c-3.526,0-7.041-0.074-10.551,0.016
	c-6.174,0.16-12.627-0.617-18.433,0.955c-4.588,1.242-8.167-1.713-11.683-3.654c-0.42-0.23-0.334-0.857,0.136-0.957
	C95.632,62.737,108.154,65.591,120.767,62.448"/>
<path fill="#231F20" d="M179.723,97.149c-6.202-1.498-7.969-0.232-7.909,4.846c0.02,1.688,0.151,3.373,0.239,5.238
	c-2.604-1.316-3.037-4.678-1.729-11.379c2.172-0.303,4.401-0.768,6.645-0.855c1.185-0.049,3.206,0.311,3.408,0.947
	c0.338,1.059-0.368,2.533-0.855,3.742c-0.303,0.752-1.016,1.338-1.642,2.121c0.442,0.094,0.739,0.244,0.991,0.193
	c1.81-0.383,4.201-1.18,4.665,1.186c0.275,1.408-1.044,3.656-2.321,4.715c-1.651,1.367-3.709,2.953-6.756,1.832
	c2.962-1.771,6.439-2.361,7.66-6.582c-3.451,0.379-6.348,0.699-10.128,1.115C174.879,101.608,177.116,99.548,179.723,97.149"/>
<path fill="#231F20" d="M216.971,99.183c0.141,2.717,0.264,5.051,0.387,7.383c-1.102,0.107-0.627,0.061-1.729,0.168
	c-0.518-3.625-1.037-7.25-1.555-10.875c0.445-0.291,0.504-0.33,0.947-0.619c2.277,1.412,4.551,2.826,7.045,4.373
	c1.453-1.875,2.736-3.773,4.297-5.404c0.516-0.537,2.08-0.852,2.59-0.477c1.465,1.068,1.947,7.416,0.955,11.363
	c-0.158,0.635-1.082,0.553-1.131-0.098c-0.232-3.188-0.451-6.105-0.713-9.668c-1.641,2.141-2.797,3.484-3.762,4.953
	c-1.252,1.908-2.494,2.588-4.371,0.695C219.221,100.259,218.162,99.886,216.971,99.183"/>
<path fill="#231F20" d="M199.882,71.749c0.833,5.297,1.509,9.59,2.185,13.885c-0.424,0.117-0.848,0.23-1.273,0.348
	c-2.147-3.004-1.435-6.951-2.452-10.762c-2.464,2.053-4.739,3.951-6.911,5.764c-2.079-1.268-4.056-2.473-6.548-3.99
	c0.269,4.127,0.488,7.488,0.705,10.848c-0.448,0.049-0.896,0.098-1.344,0.146c-1.312-4.156-1.117-8.543-1.353-13.438
	c3.068,1.412,5.754,2.646,8.741,4.021C194.084,76.54,196.745,74.341,199.882,71.749"/>
<path fill="#231F20" d="M193.098,99.161c1.87-1.021,2.595,0.059,2.889,1.666c0.467,2.553-1.953,6.23-4.457,6.887
	c-2.734,0.719-4.14-0.916-4.981-3.08c-0.857-2.205,1.206-6.918,3.269-7.598c1.892-0.625,3.458-0.377,3.345,2.203
	c-1.023-0.125-2.861-0.527-2.931-0.32c-0.619,1.805-1.412,3.781-1.191,5.588c0.243,1.982,1.755,2.203,3.232,0.607
	C193.949,103.3,193.971,101.306,193.098,99.161"/>
<path fill="#231F20" d="M206.568,72.534c1.719,1.396,3.438,2.793,5.557,4.512c0.49-2.498,0.877-3.072,1.264-5.041
	c0.332,0.027,0.662,0.059,0.992,0.088c0.07,0.742,0.24,1.494,0.184,2.227c-0.24,3.127-0.457,6.26-0.898,9.361
	c-0.1,0.703-1.254,2.871-1.822,3.508c-0.146-0.709-0.443-6.701-0.762-7.32c-0.887-1.729-1.332-1.225-2.418-2.834
	c-0.871-1.291-1.994-2.414-3.006-3.615L206.568,72.534z"/>
<path fill="#231F20" d="M203.705,99.349c-1.566-0.574-2.852-1.047-4.137-1.52c0.062-0.221,0.124-0.441,0.187-0.662
	c3.282-0.5,6.563-0.998,9.845-1.496c0.16,0.229,0.324,0.459,0.484,0.689c-0.615,0.566-1.164,1.512-1.857,1.631
	c-2.199,0.383-2.418,1.746-2.246,3.533c0.211,2.205,0.354,4.418,0.525,6.625c-0.586,0.055-1.178,0.111-1.766,0.166
	C204.393,105.296,204.043,102.276,203.705,99.349"/>
<path fill="#FFFFFF" d="M193.098,99.161c0.873,2.145,0.851,4.139-0.826,5.953c-1.477,1.596-2.989,1.375-3.232-0.607
	c-0.221-1.807,0.572-3.783,1.191-5.588c0.07-0.207,1.908,0.195,2.931,0.32C193.166,99.247,193.098,99.161,193.098,99.161"/>
</svg>
