<?xml version="1.0" encoding="utf-8"?>
<!-- Generator: Adobe Illustrator 15.1.0, SVG Export Plug-In . SVG Version: 6.00 Build 0)  -->
<!DOCTYPE svg PUBLIC "-//W3C//DTD SVG 1.1//EN" "http://www.w3.org/Graphics/SVG/1.1/DTD/svg11.dtd">
<svg version="1.1" id="Layer_1" xmlns="http://www.w3.org/2000/svg" xmlns:xlink="http://www.w3.org/1999/xlink" x="0px" y="0px"
	 width="203px" height="158px" viewBox="0 0 203 158" enable-background="new 0 0 203 158" xml:space="preserve">
<path fill="#231F20" d="M85.329,9.32c0.708-0.657,1.348-1.392,2.092-2.002c0.926-0.759,1.616-0.47,1.614,0.736
	c-0.002,1.62-0.036,3.269-0.34,4.851c-0.439,2.28-0.364,2.958,2.169,4.566c0.698,0.442,1.53,0.709,2.333,0.946
	c3.389,1.003,6.83,0.497,10.241,0.194c1.612-0.144,3.141-0.057,4.592,0.574c1.375,0.597,2.653,1.413,4.014,2.046
	c3.025,1.408,5.091,3.839,6.881,6.511c0.687,1.026,1.152,2.273,1.433,3.486c0.943,4.071-0.804,7.54-3.051,10.628
	c-2.061,2.833-4.879,4.956-8.021,6.647c-2.805,1.511-5.525,3.199-8.178,4.967c-1.992,1.327-3.365,3.253-4.289,5.474
	c-1.062,2.555-0.73,5.045,0.23,7.56c0.377,0.99,0.726,2.119,0.629,3.141c-0.339,3.562-1.92,6.549-4.663,8.893
	c-0.443,0.38-0.847,0.806-1.347,1.284c0.827,1.932,1.608,3.752,2.385,5.575c0.614,1.438,1.358,2.841,1.805,4.33
	c0.986,3.29,2.016,6.58,2.305,10.038c0.055,0.655,0.23,1.306,0.393,1.947c0.596,2.374,0.713,4.802,0.382,7.193
	c-0.382,2.76-1.612,5.168-3.837,6.975c-1.662,1.349-3.492,2.354-5.566,2.925c-0.562,0.154-1.176,0.381-1.586,0.765
	c-0.555,0.521-1.132,0.602-1.818,0.566c-4.1-0.209-8.199-0.402-12.299-0.605c-9.885-0.49-19.769-0.984-29.653-1.472
	c-4.641-0.229-9.291-0.334-13.92-0.701c-4.327-0.342-8.642-0.897-12.947-1.471c-3.588-0.477-7.162-1.07-10.726-1.702
	c-1.238-0.22-2.463-0.622-3.63-1.097c-1.39-0.564-1.521-1.782-0.323-2.606c2.534-1.741,5.072-3.484,7.664-5.138
	c4.271-2.729,8.612-5.35,12.88-8.087c4.107-2.634,8.149-5.372,12.236-8.039c4.648-3.032,9.283-6.085,13.981-9.037
	c4.75-2.984,9.546-5.901,14.374-8.761c2.538-1.502,5.221-2.762,7.777-4.235c2.235-1.288,4.677-1.642,7.149-1.646
	c1.286-0.002,2.588,0.495,3.852,0.872c0.53,0.159,1.143,0.478,0.895,1.538c-0.752-0.231-1.483-0.396-2.167-0.679
	c-2.478-1.021-4.864-0.602-7.17,0.482c-2.318,1.091-3.344,3.237-4.09,5.507c-1.607,4.888-1.768,9.937-1.668,15.032
	c0.049,2.52,0.776,4.872,1.31,7.275c1.279,5.764,3.61,10.999,7.907,15.187c1.726,1.681,3.711,3.126,5.262,4.948
	c1.812,2.129,3.81,2.505,6.266,1.577c0.11-0.041,0.248-0.019,0.354-0.064c1.936-0.839,3.881-1.655,5.264-3.366
	c1.54-1.903,2.478-4.078,2.288-6.514c-0.282-3.602-0.625-7.218-1.281-10.765c-0.513-2.773-1.432-5.49-2.377-8.159
	c-0.761-2.151-1.861-4.181-2.755-6.288c-0.675-1.594-0.943-1.681-2.538-0.484c0.138,0.352,0.269,0.738,0.437,1.108
	c0.423,0.933,0.954,1.828,1.28,2.793c1.565,4.628,3.154,9.251,4.58,13.922c0.961,3.151,1.012,6.433,0.641,9.695
	c-0.319,2.8-1.704,4.705-4.647,5.253c-0.616,0.114-1.312,0.396-1.735,0.831c-0.594,0.612-1.14,0.658-1.756,0.257
	c-1.561-1.02-3.276-1.897-4.596-3.177c-2.463-2.384-4.694-5.009-7.009-7.545c-0.194-0.215-0.301-0.516-0.427-0.786
	c-0.483-1.039-1.034-2.054-1.417-3.128c-0.664-1.864-1.506-3.728-1.767-5.659c-0.586-4.355-1.028-8.744-1.209-13.134
	c-0.129-3.125,0.199-6.3,1.521-9.219c1.815-4.005,6.468-4.728,9.3-1.365c1.112,1.32,2.145,1.792,3.705,1.107
	c0.217-0.095,0.471-0.104,0.704-0.166c3.764-0.998,4.819-2.469,4.654-6.367c-0.069-1.625-0.169-3.264-0.037-4.878
	c0.263-3.221,1.679-5.755,4.748-7.165c0.877-0.403,1.71-0.899,2.594-1.28c1.682-0.726,3.221-1.646,4.522-2.949
	c1.534-1.536,3.144-3.003,4.599-4.61c1.791-1.978,3.246-4.214,4.261-6.691c1.216-2.968,0.664-5.813-0.894-8.493
	c-1.391-2.395-3.849-2.526-6.203-2.585c-1.797-0.045-3.641,0.062-5.398,0.418c-3.538,0.715-6.995,0.321-10.396-0.55
	c-3.275-0.839-6-2.668-7.449-5.822c-1.244-2.71-1.715-5.655-1.429-8.65c0.198-2.071,0.81-4.039,2.285-5.599
	c0.292-0.308,0.869-0.605,1.219-0.52c0.284,0.07,0.543,0.707,0.602,1.122c0.117,0.829,0.061,1.691,1.033,2.248
	C84.69,9.808,85.036,9.592,85.329,9.32 M10.981,113.803c6.159,0.806,12.33,1.519,18.502,2.219c1.311,0.148,2.648,0.062,3.971,0.131
	c5.298,0.277,10.594,0.616,15.894,0.85c6.625,0.292,13.255,0.481,19.88,0.756c4.037,0.168,8.07,0.415,12.105,0.622
	c0.476,0.025,0.955,0.025,1.727,0.044c-0.631-1.042-1.319-1.732-2.107-2.324c-2.52-1.892-4.815-4.029-6.793-6.476
	c-2.169-2.682-4.017-5.575-4.998-8.926c-0.763-2.605-1.559-5.208-2.139-7.855c-0.382-1.753-0.522-3.582-0.569-5.382
	c-0.132-5.14-0.014-10.263,1.843-15.17c0.08-0.21,0.071-0.455,0.147-0.986c-1.037,0.51-1.87,0.913-2.698,1.328
	c-0.809,0.405-1.647,0.766-2.411,1.243c-4.55,2.846-9.104,5.685-13.614,8.591c-5.168,3.331-10.268,6.771-15.445,10.091
	c-6.24,4.001-12.54,7.909-18.793,11.889c-3.608,2.297-7.179,4.654-10.761,6.992c-0.242,0.157-0.447,0.373-0.669,0.563
	c0.014,0.161,0.027,0.32,0.04,0.481C6.388,112.931,8.668,113.5,10.981,113.803 M89.837,113.3c0.939,0.056,1.452-0.438,1.912-1.002
	c0.872-1.063,1.275-2.31,1.401-3.663c0.27-2.918,0.11-5.833-0.769-8.608c-1.655-5.229-3.506-10.394-5.28-15.585
	c-0.058-0.17-0.159-0.326-0.22-0.496c-0.636-1.775-1.802-2.479-3.753-2.29c-2.693,0.263-5.415,0.239-8.123,0.382
	c-0.832,0.044-1.654,0.231-2.424,0.345c-0.36,1.332,0.097,8.934,0.644,10.428c0.441-0.514,0.857-0.921,1.183-1.39
	c1.169-1.682,2.297-3.393,3.466-5.075c0.496-0.712,0.957-1.553,2.372-1.215c-0.327,0.619-0.533,1.151-0.856,1.602
	c-1.757,2.448-3.537,4.88-5.321,7.309c-0.899,1.224-0.417,2.381,0.092,3.64c0.876-0.18,1.149-0.914,1.516-1.476
	c1.778-2.727,3.52-5.478,5.258-8.23c0.366-0.58,0.688-1.149,1.638-0.787c-0.083,0.363-0.081,0.742-0.249,1.014
	c-0.885,1.437-1.789,2.864-2.73,4.265c-1.346,2.001-2.695,4.002-4.111,5.952c-0.865,1.192-0.344,2.129,0.414,3.294
	c3.345-3.08,4.645-7.704,8.219-10.615c0.586,0.896,0.051,1.334-0.272,1.791c-2.123,3.003-4.258,5.999-6.391,8.996
	c-0.535,0.752-1.08,1.501,0.065,2.53c1.274-1.304,2.312-2.733,3.248-4.247c0.949-1.539,1.859-3.103,2.837-4.622
	c0.408-0.635,0.856-1.347,1.869-1.11c0.354,0.894-0.302,1.386-0.687,1.938c-1.824,2.623-3.684,5.22-5.508,7.843
	c-0.935,1.343-0.861,1.726,0.594,3.007c0.792-1.029,1.636-2.014,2.354-3.082c1.109-1.65,2.094-3.383,3.207-5.028
	c0.637-0.94,0.705-0.895,1.877-1.146c0.446,0.562,0.056,0.998-0.245,1.427c-1.76,2.52-3.534,5.03-5.294,7.55
	c-0.274,0.393-0.587,0.795-0.722,1.24c-0.2,0.664,0.148,1.26,0.75,1.461c0.346,0.117,1.006-0.047,1.23-0.322
	c1.177-1.451,2.278-2.965,3.368-4.484c0.414-0.577,0.7-1.261,1.833-1.34c-0.125,0.541-0.116,1.021-0.332,1.358
	c-1.039,1.621-2.134,3.207-3.222,4.798c-0.237,0.348-0.6,0.629-0.761,1.004c-0.118,0.274-0.001,0.648,0.012,0.979
	c0.367-0.04,0.883,0.062,1.075-0.144c0.698-0.745,1.288-1.593,1.921-2.399c0.447-0.569,0.88-1.151,1.355-1.696
	c0.364-0.419,0.793-0.758,1.61-0.217c-0.254,0.493-0.454,1.025-0.774,1.471c-0.738,1.028-1.552,2.005-2.304,3.024
	c-0.35,0.474-0.821,0.988-0.254,1.6c0.444,0.478,1.284,0.317,1.91-0.342c0.205-0.216,0.352-0.488,0.538-0.726
	c0.142-0.183,0.304-0.351,0.456-0.525c0.12,0.028,0.239,0.057,0.358,0.085C89.824,112.262,89.83,112.756,89.837,113.3
	 M106.709,48.392c2.848-1.81,5.876-3.379,8.237-5.859c2.09-2.196,3.362-4.875,3.986-7.795c0.399-1.871-0.033-3.814-1.028-5.418
	c-2.897-4.67-6.909-7.962-12.518-8.608c-2.487-0.286-5.056,0.046-7.579,0.216c-3.113,0.21-6.028-0.333-8.619-2.094
	c-0.879-0.596-1.624-1.43-2.312-2.253c-0.7-0.838-0.739-1.878-0.518-2.931c0.233-1.114,0.441-2.234,0.724-3.68
	c-1.776,1.215-3.279,2.887-5.213,0.826c-0.977,1.335-0.936,2.659-0.755,3.849c0.306,2.016,0.757,4.037,1.421,5.963
	c0.708,2.053,2.472,3.253,4.359,4.133c3.798,1.771,7.783,1.981,11.86,1.207c3.121-0.592,6.245-0.532,9.331,0.203
	c2.032,0.484,3.322,1.959,4.152,3.76c2.103,4.562,1.703,8.928-1.396,12.93c-1.5,1.937-3.14,3.765-4.77,5.706
	C106.292,48.496,106.537,48.501,106.709,48.392 M95.478,55.929c-2.028,1.578-3.526,3.468-3.471,6.214
	c0.04,1.929,0.007,3.862,0.145,5.783c0.181,2.508-1.072,4.113-3.079,5.292c-2.015,1.186-4.292,1.606-6.544,1.979
	c-1.714,0.283-3.481,0.25-5.224,0.364c-1.414,0.092-2.828,0.194-4.379,0.301c-0.254,1.686-0.473,3.136-0.691,4.584
	c0.425,0.108,0.601,0.201,0.768,0.188c4.562-0.344,9.127-0.66,13.685-1.061c4.024-0.354,6.475-2.884,8.239-6.246
	c0.361-0.688,0.535-1.471,0.815-2.203c0.5-1.307,0.481-2.591-0.122-3.861c-0.103-0.218-0.178-0.447-0.276-0.668
	c-1.516-3.41-1.266-6.673,0.783-9.802c0.209-0.32,0.308-0.712,0.58-1.359C96.092,55.675,95.73,55.732,95.478,55.929 M80.516,72.968
	c-1.672-2.705-4.389-2.763-5.896-0.003C76.569,73.614,78.63,73.601,80.516,72.968"/>
<path fill="#231F20" d="M121.981,58.453c0.536,0.391,1.106,0.751,1.582,1.208c1.778,1.707,4.017,2.119,6.331,2.285
	c2.55,0.185,3.614-0.951,3.168-3.443c-0.275-1.536-0.747-3.035-1.094-4.559c-0.361-1.586-0.596-3.207-1.033-4.771
	c-1.701-6.082-2.706-12.226-2.188-18.575c0.371-4.544,1.609-8.75,5.111-11.821c3.84-3.368,8.323-5.609,13.557-5.674
	c4.122-0.051,7.914,1.106,10.671,4.4c1.459,1.744,2.64,3.717,3.994,5.551c1.284,1.742,2.577,3.483,3.97,5.138
	c1.356,1.61,2.906,3.058,4.249,4.679c0.761,0.918,1.33,2.012,1.868,3.085c0.18,0.355,0.162,1.047-0.074,1.303
	c-0.216,0.235-0.897,0.228-1.281,0.082c-0.84-0.319-1.61-0.817-2.43-1.2c-1.346-0.628-1.638-0.569-2.723,0.441
	c-0.575,0.534-1.128,1.091-1.715,1.611c-1.243,1.101-1.948,0.896-2.493-0.618c-1.021-2.834-2.03-5.675-3.173-8.461
	c-0.397-0.971-1.141-1.811-1.785-2.666c-0.47-0.624-1.063-1.153-1.55-1.766c-1.248-1.572-2.877-2.145-4.812-1.831
	c-1.428,0.231-2.853,0.506-4.256,0.857c-4.974,1.246-8.724,5.465-9.502,10.328c-0.603,3.767-0.369,7.576,0.431,11.334
	c0.339,1.59,0.571,3.204,0.824,4.811c0.503,3.199,0.512,6.474,1.747,9.561c0.669,1.671,0.218,3.312-0.826,4.792
	c-2.147,3.04-5.352,4.459-8.78,4.847c-4.187,0.475-8.441,0.125-12.584-0.871c-0.532-0.127-1.012-0.473-1.741-0.827
	c1.708-2.038,4.536-1.301,6.091-3.31c-0.899-1.811-1.825-3.68-2.798-5.641C120.316,57.489,120.631,57.467,121.981,58.453
	 M136.34,56.538c-0.295-3.297-0.482-6.627-1.128-9.861c-0.834-4.185-1.249-8.361-0.707-12.575c0.531-4.129,2.294-7.516,6.141-9.686
	c2.039-1.149,4.075-1.953,6.389-2.3c2.261-0.339,4.468-1.031,6.791-0.617c1.242,0.222,2.485,0.435,3.729,0.647
	c0.391,0.068,0.785,0.125,1.167,0.186c0.045-0.239,0.12-0.376,0.08-0.459c-2.637-5.616-8.003-8.275-13.948-7.285
	c-2.838,0.473-5.419,1.749-7.699,3.457c-2.497,1.872-4.333,4.301-5.293,7.358c-1.406,4.476-1.4,9.051-0.872,13.611
	c0.36,3.099,1.179,6.146,1.793,9.215c0.639,3.187,1.274,6.375,1.92,9.561c0.126,0.62,0.303,1.23,0.456,1.845
	c0.161-0.015,0.321-0.029,0.482-0.043C136.296,58.685,136.434,57.587,136.34,56.538 M129.84,63.621
	c-2.752-0.394-5.447-0.965-7.557-3.067c-0.104,0.088-0.209,0.177-0.314,0.267c0.256,0.628,0.487,1.268,0.772,1.883
	c0.202,0.436,0.499,0.825,0.713,1.256c0.55,1.11,0.427,1.453-0.698,1.937c-0.868,0.374-1.749,0.715-3.013,1.228
	c0.696,0.281,0.985,0.49,1.284,0.505c2.404,0.122,4.809,0.3,7.213,0.274c2.125-0.023,4.208-0.585,6.026-1.662
	c1.945-1.151,3.406-2.787,3.468-5.727C135.07,62.228,132.857,64.054,129.84,63.621 M165.981,34.331
	c0.853-0.372,1.934-0.22,3.042-0.308c-0.981-1.14-2.004-2.362-3.065-3.549c-0.843-0.942-1.805-1.785-2.582-2.774
	c-1.518-1.933-3.557-3.021-5.795-3.829c-0.212-0.076-0.457-0.06-0.798-0.1c0.105,0.87,0.831,1.076,1.229,1.544
	c0.654,0.766,1.439,1.487,1.854,2.375c0.814,1.738,1.396,3.584,2.106,5.372c0.417,1.052,0.899,2.078,1.453,3.347
	C164.354,35.624,165.061,34.732,165.981,34.331"/>
<path fill="#231F20" d="M102.098,119.162c-2.038-0.412-2.21-0.795-1.168-2.635c0.118-0.208,0.263-0.402,0.398-0.602
	c1.498-2.231,3.463-3.978,5.553-5.648c2.263-1.812,4.817-2.739,7.611-3.086c3.318-0.41,6.851,1.086,8.596,4.476
	c1.528,2.971,2.157,6.126,1.588,9.466c-0.641,3.766-0.791,7.539-0.387,11.351c0.473,4.434,3.334,7.521,7.458,7.708
	c1.985,0.089,4.015,0.23,5.958-0.079c1.931-0.304,3.853-0.981,5.638-1.801c1.399-0.642,2.54-1.823,3.877-2.633
	c2.9-1.756,5.909-2.781,9.202-0.932c0.521,0.293,1.091,0.562,1.671,0.678c0.738,0.148,1.166,0.493,1.404,1.207
	c0.15,0.449,0.478,0.834,0.712,1.257c1.649,2.979,2.181,6.114,1.24,9.43c-0.511,1.796-1.062,3.579-1.61,5.362
	c-0.184,0.602-0.413,1.188-0.64,1.83c-1.951-0.573-1.699-2.76-3.323-3.646c-0.715,0.638-1.468,1.297-2.206,1.973
	c-0.514,0.47-1.123,0.958-1.745,0.459c-0.455-0.366-0.662-1.055-0.938-1.619c-0.066-0.136,0.041-0.353,0.057-0.531
	c0.202-2.222,0.509-4.44,0.562-6.668c0.034-1.355-0.097-2.805-0.553-4.068c-0.733-2.041-2.758-2.615-4.598-1.467
	c-1.521,0.95-2.993,1.978-4.449,3.021c-2.849,2.039-5.662,4.089-9.229,4.792c-3.842,0.757-7.513,0.521-10.666-1.938
	c-1.787-1.393-3.486-3.04-4.788-4.883c-1.6-2.266-1.463-5.012-1.08-7.696c0.427-2.988,1.679-5.667,3.135-8.239
	c0.957-1.693,1.065-3.022-0.387-4.536c-1.458-1.521-2.659-1.97-4.591-1.111c-1.564,0.695-2.887,1.698-4.074,2.949
	c-1.032,1.086-2.195,2.072-3.398,2.968c-1.3,0.968-2.369,0.443-2.429-1.16c-0.041-1.064,0.123-2.138,0.207-3.404
	C103.74,119.503,102.92,119.328,102.098,119.162 M104.383,118.26c0.417-0.015,0.827-0.159,1.247-0.209
	c1.433-0.17,1.773,0.241,1.367,1.607c-0.235,0.784-0.453,1.571-0.713,2.481c1.135,0.157,1.679-0.41,2.123-1.035
	c1.15-1.615,2.7-2.694,4.414-3.643c2.638-1.46,5.077-1.172,7.435,0.562c0.48,0.353,0.933,0.746,1.504,1.206
	c0.753-1.449,0.908-2.918,0.577-4.385c-0.639-2.829-1.953-5.208-4.937-6.164c-2.06-0.659-4.081-0.211-5.996,0.576
	c-3.832,1.573-6.503,4.476-8.706,7.877c-0.134,0.207-0.301,0.394-0.453,0.59l0.416,0.463
	C103.234,118.215,103.81,118.278,104.383,118.26 M132.556,142.301c-2.316-0.054-4.571-0.444-6.476-1.907
	c-2.337-1.794-3.552-4.139-3.667-7.128c-0.141-3.683-0.153-7.346,0.466-10.988c0.036-0.209-0.058-0.438-0.133-0.92
	c-0.369,0.444-0.652,0.666-0.78,0.957c-1.074,2.422-2.289,4.801-3.129,7.304c-0.919,2.741-1.702,5.663-0.379,8.473
	c1.662,3.52,4.025,6.333,8.128,7.298c4.007,0.94,7.641,0.184,11.109-1.835c0.363-0.213,0.716-0.447,1.056-0.696
	c0.137-0.102,0.227-0.267,0.486-0.586C136.875,142.287,134.715,142.354,132.556,142.301 M159.662,147.129
	c0.337-1.399,0.741-2.812,0.821-4.237c0.118-2.117-0.49-4.083-2.164-5.533c-2.563-2.224-5.61-3.616-9.3-0.932
	c0.396,0.298,0.729,0.591,1.101,0.82c2.05,1.269,3.242,3.04,3.196,5.508c-0.03,1.567-0.139,3.134-0.193,4.702
	c-0.032,0.879-0.031,1.762-0.052,3.087c0.887-0.7,1.439-1.121,1.974-1.562c1.373-1.133,1.963-0.996,2.692,0.654
	c0.166,0.375,0.299,0.764,0.448,1.146l0.423-0.033C158.963,149.544,159.367,148.35,159.662,147.129"/>
<path fill="#231F20" d="M196.574,86.573c-3.292-0.074-6.03-1.144-7.54-4.334c-0.205-0.437-0.436-0.862-0.642-1.299
	c-0.566-1.196-0.709-2.415-0.222-3.683c0.476-1.236,0.986-2.466,1.356-3.734c0.603-2.059,1.032-4.172-0.596-5.988
	c-0.988-1.104-2.278-1.813-3.767-2.01c-2.726-0.359-5.415-0.172-8.06,0.636c-1.153,0.352-1.664,1.132-1.714,2.271
	c-0.05,1.143-0.102,2.287-0.093,3.431c0.042,5.118-0.624,10.109-2.599,14.872c-0.944,2.278-1.66,4.712-3.893,6.165
	c-1.262,0.821-2.618,1.504-3.852,2.363c-2.004,1.398-4.239,2.037-6.626,2.154c-1.682,0.083-3.38,0.084-5.058-0.046
	c-3.149-0.243-6.154-0.153-8.448,2.473c-0.154,0.176-0.376,0.371-0.587,0.398c-0.396,0.051-0.928,0.131-1.173-0.074
	c-0.229-0.192-0.222-0.745-0.194-1.13c0.021-0.279,0.223-0.558,0.384-0.81c0.77-1.206,1.554-2.401,2.34-3.612
	c-0.051-0.057-0.111-0.195-0.205-0.225c-0.46-0.139-0.929-0.253-1.396-0.367c-0.585-0.144-1.194-0.223-1.755-0.433
	c-0.748-0.278-0.98-0.912-0.431-1.391c1.572-1.368,2.996-3.188,5.352-3.033c2.21,0.146,4.444,0.408,6.586,0.946
	c2.761,0.691,5.455,1.495,8.36,1.227c3.013-0.276,4.016-1.02,4.797-3.948c0.186-0.698,0.368-1.414,0.406-2.13
	c0.147-2.83,0.324-5.662,0.324-8.494c0.001-2.836,0.449-5.522,1.862-8.011c0.416-0.733,0.755-1.519,1.224-2.216
	c2.737-4.076,5.985-7.412,11.299-7.773c2.192-0.15,4.345-0.118,6.41,0.743c1.112,0.464,2.267,0.86,3.315,1.442
	c1.311,0.727,2.615,1.511,3.768,2.459c1.511,1.244,2.303,2.897,2.156,4.943c-0.087,1.2-0.038,2.41-0.048,3.616
	c-0.01,1.328-0.126,2.665-0.007,3.981c0.241,2.667,0.912,5.134,3.769,6.269c0.242,0.096,0.409,0.386,0.615,0.589
	c-1.363,1.236-2.194,1.225-6.507-0.06c0.556,1.454,2.063,1.828,3.108,2.86C198.02,86.509,197.285,86.589,196.574,86.573
	 M193.746,82.909c-0.369-0.875-0.595-1.821-0.786-2.757c-0.061-0.293,0.113-0.861,0.312-0.932c0.33-0.117,0.843-0.05,1.144,0.147
	c0.547,0.358,0.98,0.886,1.488,1.31c0.48,0.401,0.994,0.764,1.568,1.2c0.088-0.359,0.171-0.501,0.131-0.565
	c-1.805-2.866-1.859-6.053-1.713-9.277c0.062-1.327,0.134-2.653,0.194-3.98c0.072-1.551-0.491-2.764-1.707-3.792
	c-2.31-1.955-4.991-3.193-7.814-4.081c-3.685-1.157-7.542,0.258-9.389,3.236c-0.146,0.235-0.207,0.522-0.384,0.984
	c0.597-0.058,0.992-0.066,1.376-0.14c3.383-0.639,6.712-0.672,9.946,0.749c2.752,1.209,4.988,4.652,3.756,7.847
	c-0.712,1.85-1.547,3.685-1.974,5.604c-0.651,2.929,1.846,6.048,5.206,6.432C194.528,84.077,194.014,83.545,193.746,82.909
	 M148.402,94.41c-0.727,0.86-1.239,1.468-1.938,2.295c0.491-0.03,0.723,0.011,0.902-0.066c1.487-0.635,2.953-0.677,4.579-0.397
	c4.333,0.749,8.55,0.51,12.245-2.331c0.519-0.399,1.188-0.598,1.736-0.966c0.568-0.382,1.073-0.858,1.525-1.458
	c-2.88,1.246-5.853,1.405-8.843,1.021c-1.66-0.214-3.284-0.725-4.918-1.133c-1.17-0.291-2.317-0.67-3.489-0.946
	c-2.411-0.566-4.384,0.113-6.03,2.365C145.601,93.339,146.86,93.82,148.402,94.41 M169.502,88.062
	c2.534-3.388,3.575-7.289,3.826-11.443c0.075-1.262,0.085-2.526,0.144-3.79c0.119-2.574,0.249-5.148,0.387-7.968
	c-0.85,0.932-1.546,1.823-2.047,2.9c-0.457,0.979-0.956,1.943-1.512,2.869c-0.974,1.621-1.057,3.448-1.191,5.231
	c-0.219,2.877-0.232,5.771-0.411,8.651c-0.091,1.469-0.354,2.928-0.584,4.751C168.742,88.729,169.206,88.459,169.502,88.062"/>
<path fill="#231F20" d="M138.301,119.05c0.444-0.324,0.865-0.648,1.305-0.945c2.062-1.39,2.581-3.342,2.188-5.693
	c-0.158-0.947-0.617-1.318-1.547-1.396c-1.45-0.121-2.863-0.199-4.289,0.275c-1.137,0.379-2.329,0.613-3.512,0.834
	c-1.254,0.233-1.822-0.181-1.98-1.453c-0.126-1.015-0.143-2.042-0.176-3.065c-0.046-1.422,0.743-2.592,2.428-2.42
	c0.831,0.086,1.759,0.182,2.509-0.093c2.554-0.938,4.979-0.305,7.432,0.321c2.406,0.615,4.084,2.127,5.482,4.135
	c1.648,2.366,2.704,4.934,3.255,7.864C147.951,120.106,140.524,121.051,138.301,119.05 M148.299,117.887
	c0.634-0.245,1.262-0.598,1.031-1.448c-1.046-3.882-2.759-7.311-6.561-9.22c-0.672-0.337-1.453-0.454-2.345-0.412
	c0.26,0.279,0.524,0.553,0.777,0.836c1.188,1.331,1.979,2.852,2.295,4.623c0.301,1.69-0.006,3.23-0.995,4.629
	c-0.369,0.523-0.771,1.022-1.159,1.533c0.092,0.136,0.182,0.272,0.272,0.408C143.894,118.935,146.138,118.717,148.299,117.887
	 M135.349,106.293c-0.78,0.052-1.564,0.023-2.344,0.079c-0.584,0.041-1.11,0.301-1.122,0.955c-0.021,1.059,0.062,2.12,0.112,3.46
	c2.846-0.582,5.438-1.111,8.357-1.709C138.784,107.59,137.542,106.151,135.349,106.293"/>
<path fill="#231F20" d="M80.455,54.427c-1.242,0.944-1.991,0.869-2.862-0.399c-0.576-0.838-1.013-1.773-1.487-2.678
	c-0.583-1.116-1.154-2.239-1.708-3.369c-0.767-1.566-1.578-3.115-2.248-4.723c-0.479-1.149-0.055-1.866,1.117-1.838
	c1.41,0.033,2.561-0.532,3.758-1.105c1.411-0.675,2.84-1.317,4.286-1.913c1.599-0.658,1.918-0.527,2.71,0.978
	c0.98,1.86,1.864,3.776,2.93,5.586c1.02,1.731,1.128,1.948-0.466,3.096c-2.032,1.464-3.778,3.155-5.115,5.5
	C81.152,53.771,80.834,54.139,80.455,54.427 M74.572,42.939c-0.125,1.349,0.56,2.371,1.09,3.417
	c0.543,1.072,1.191,2.092,1.781,3.142c0.568,1.009,0.519,2.37,1.729,3.108c0.212-0.196,0.425-0.324,0.544-0.512
	c1.21-1.915,2.746-3.471,4.711-4.646c1.303-0.779,1.255-0.99,0.506-2.306c-0.714-1.255-1.37-2.542-2.058-3.813
	c-0.278-0.515-0.575-1.02-0.955-1.691C79.397,40.772,77.003,41.848,74.572,42.939"/>
<path fill="#231F20" d="M185.829,41.182c1.505-0.225,1.761-0.417,1.825-1.944c0.042-1.002-0.111-2.043-0.361-3.02
	c-0.484-1.899-0.467-2.021,1.284-2.672c0.505-0.188,1.007-0.406,1.478-0.667c0.791-0.441,1.573-0.401,2.158,0.233
	c0.722,0.782,1.476,1.616,1.904,2.567c0.511,1.139,0.772,2.411,1.001,3.651c0.492,2.683-0.382,4.953-2.592,6.498
	c-1.312,0.917-2.849,1.572-4.366,2.118c-1.454,0.523-2.561,0.01-3.376-1.341c-0.621-1.03-1.164-2.116-1.649-3.217
	c-0.224-0.509-0.226-1.115-0.362-1.861C183.938,41.397,184.89,41.322,185.829,41.182 M189.436,41.872
	c-1.522,0.616-3.215,0.812-4.89,1.206c0.076,1.26,0.698,2.166,1.283,3.04c0.21,0.313,0.854,0.572,1.231,0.5
	c2.953-0.562,5.47-1.815,6.771-4.748c0.345-0.776,0.527-1.589,0.029-2.574C192.305,40.223,190.956,41.257,189.436,41.872
	 M189.013,40.306c0.396-0.088,0.835-0.072,1.126-0.272c0.743-0.51,1.468-1.067,2.112-1.696c0.964-0.942,1.074-2.272,0.37-3.298
	c-0.585-0.854-1.149-1.027-2.149-0.615c-0.604,0.249-1.188,0.541-1.774,0.812C188.81,37.045,188.905,38.591,189.013,40.306"/>
<path fill="#231F20" d="M108.244,89.492c1.021,0.461,1.708-0.042,2.398-0.525c0.789-0.552,1.537-1.174,2.369-1.65
	c1.005-0.575,1.494-0.509,2.22,0.365c1.346,1.619,2.655,3.273,3.897,4.974c0.787,1.076,0.695,1.38-0.354,2.248
	c-0.46,0.382-0.955,0.749-1.49,1.006c-2.069,0.99-2.326,0.899-3.67-0.979c-1.177-1.645-2.711-2.897-4.447-3.9
	c-0.432-0.247-0.96-0.327-1.391-0.467c-0.577,0.82-0.139,1.244,0.306,1.521c2.316,1.442,3.869,3.586,5.378,5.768
	c0.539,0.778,1.103,0.914,1.992,0.527c1.926-0.837,4.008-1.325,5.678-2.716c1.398-1.164,1.498-1.242,0.417-2.745
	c-1.617-2.242-3.311-4.435-5.051-6.584c-0.815-1.006-2.002-1.326-3.277-1.041c-2.048,0.457-3.501,1.805-4.792,3.352
	C108.267,88.835,108.304,89.187,108.244,89.492"/>
<path fill="#231F20" d="M122.276,13.16c-0.251-0.45-0.492-0.972-0.812-1.438c-0.511-0.744-1.083-1.445-1.613-2.177
	c-0.842-1.165-0.849-1.661,0.199-2.642c0.742-0.693,1.603-1.268,2.45-1.835c0.741-0.496,1.537-0.908,2.448-1.438
	c1.672,1.56,3.367,3.141,5.096,4.752c-1.649,2.489-4.745,3.107-6.095,5.549c0.703,0.675,1.22,0.332,1.639,0.056
	c2.008-1.328,4.017-2.659,5.962-4.076c0.997-0.726,1.078-1.361,0.228-2.278c-1.715-1.85-3.495-3.65-5.349-5.362
	c-1.06-0.979-1.349-0.885-2.531-0.119c-1.107,0.718-2.251,1.382-3.325,2.145c-0.63,0.448-1.143,1.057-1.732,1.565
	c-0.578,0.498-1.158,1.004-1.79,1.428c-0.762,0.511-0.908,0.854-0.43,1.605c0.226,0.352,0.515,0.67,0.809,0.969
	c1.053,1.074,2.125,2.127,3.177,3.201C121.055,13.527,121.488,13.934,122.276,13.16"/>
<path fill="#231F20" d="M141.669,43.746c1.271-1.093,2.514-2.223,3.822-3.268c1.15-0.916,2.486-1.048,3.725-0.267
	c1.476,0.93,2.863,2.003,4.257,3.056c0.611,0.463,0.727,1.133,0.285,1.77c-1.335,1.927-2.63,3.891-4.092,5.718
	c-1.148,1.434-1.64,1.441-2.849,0.115c-1.43-1.569-2.972-2.821-5.164-3.039c-0.117-0.012-0.232-0.066-0.343-0.114
	c-0.991-0.429-1.249-1.044-0.732-2.016c0.338-0.634,0.808-1.198,1.22-1.792C141.754,43.855,141.712,43.801,141.669,43.746
	 M147.282,48.931c0.519,0.588,1.222,0.56,1.692-0.119c0.818-1.181,1.586-2.398,2.345-3.618c0.334-0.537,0.217-1.068-0.294-1.429
	c-0.931-0.655-1.869-1.308-2.856-1.871c-0.318-0.183-0.907-0.26-1.186-0.086c-1.688,1.045-3.029,2.442-4.36,4.481
	C144.77,46.748,146.142,47.636,147.282,48.931"/>
<path fill="#231F20" d="M166.111,107.376c1.557-0.381,2.786-1.222,4.057-1.952c0.363-0.208,0.669-0.514,1.019-0.748
	c0.455-0.305,0.899-0.307,1.297,0.12c1.394,1.497,2.849,2.944,4.165,4.507c1.026,1.217,0.931,1.707-0.495,2.563
	c-1.071,0.645-2.277,1.065-3.432,1.565c-0.836,0.361-1.311-0.002-1.724-0.766c-0.656-1.216-1.426-2.372-2.162-3.543
	c-0.191-0.305-0.385-0.654-0.67-0.84c-0.257-0.166-0.748-0.288-0.939-0.152c-0.206,0.145-0.346,0.701-0.227,0.929
	c0.53,1.008,1.159,1.967,1.761,2.938c0.441,0.711,0.914,1.404,1.336,2.127c0.627,1.067,0.866,1.199,2.031,0.936
	c2.2-0.498,4.232-1.389,6.085-2.673c1.36-0.943,1.607-2.068,0.602-3.381c-0.875-1.142-1.897-2.17-2.863-3.24
	c-0.805-0.893-1.633-1.764-2.429-2.663c-0.768-0.868-1.234-0.948-2.152-0.316c-1.487,1.02-2.979,2.034-4.469,3.05
	C166.472,106.128,165.873,106.297,166.111,107.376"/>
<path fill="#231F20" d="M123.042,8.374c0.535-0.321,1.067-0.646,1.606-0.962c0.56-0.329,1.124-0.648,1.707-0.984
	C124.942,5.319,123.31,6.093,123.042,8.374"/>
<path fill="#231F20" d="M124.208,10.469c1.269-0.447,2.376-0.746,2.848-2.033C125.293,8.15,124.338,8.779,124.208,10.469"/>
<path fill="#231F20" d="M114.108,93.718c1.442-0.096,1.442-0.096,2.17-0.976C115.073,91.941,114.359,92.229,114.108,93.718"/>
<path fill="#231F20" d="M114.839,90.574c-1.014-0.688-1.733-0.582-2.405,0.21C113.383,91.673,113.512,91.665,114.839,90.574"/>
<path fill="#231F20" d="M172.436,111.191c1.152,0.026,1.811-0.662,2.688-1.333C173.633,109.52,173.092,109.809,172.436,111.191"/>
<path fill="#231F20" d="M173.236,106.75c-1.27-0.122-1.851,0.321-2.521,1.11C171.944,108.255,172.465,107.648,173.236,106.75"/>
<path fill="#FFFFFF" d="M4.054,112.002c0.222-0.189,0.425-0.406,0.668-0.563c3.583-2.338,7.152-4.695,10.761-6.992
	c6.254-3.979,12.554-7.888,18.794-11.889c5.176-3.319,10.275-6.76,15.445-10.091c4.51-2.906,9.064-5.745,13.613-8.591
	c0.765-0.478,1.603-0.838,2.411-1.243c0.828-0.415,1.663-0.818,2.699-1.328c-0.077,0.531-0.068,0.776-0.149,0.986
	c-1.856,4.906-1.975,10.03-1.842,15.17c0.046,1.8,0.186,3.629,0.57,5.382c0.578,2.647,1.375,5.25,2.138,7.855
	c0.982,3.351,2.829,6.244,4.999,8.926c1.977,2.446,4.272,4.584,6.792,6.476c0.789,0.592,1.477,1.282,2.107,2.324
	c-0.772-0.019-1.25-0.019-1.727-0.044c-4.036-0.207-8.069-0.454-12.105-0.622c-6.625-0.274-13.255-0.464-19.88-0.756
	c-5.301-0.233-10.596-0.572-15.895-0.85c-1.323-0.069-2.659,0.018-3.971-0.131c-6.171-0.7-12.342-1.413-18.5-2.219
	c-2.315-0.303-4.594-0.872-6.889-1.319C4.08,112.322,4.066,112.163,4.054,112.002 M59.895,87.194
	c-0.105,2.479,0.177,4.921,0.776,7.326c0.858,3.442,1.642,6.912,3.353,10.07c0.33,0.608,0.562,1.585,1.497,1.13
	c0.857-0.418,0.425-1.273,0.129-1.909c-2.058-4.405-3.27-9.037-3.768-13.861c-0.092-0.896-0.066-1.804-0.164-2.698
	c-0.051-0.46-0.172-0.954-0.411-1.339c-0.28-0.449-0.935-0.375-1.308,0.179C59.972,86.37,59.913,86.781,59.895,87.194
	 M60.887,106.292c0.207-0.112,0.39-0.457,0.396-0.704c0.009-0.347-0.123-0.71-0.251-1.045c-1.583-4.146-2.289-8.479-2.777-12.86
	c-0.06-0.539-0.066-1.083-0.1-1.625c-0.023-0.36-0.013-0.728-0.08-1.079c-0.131-0.688-0.42-1.401-1.234-1.218
	c-0.298,0.067-0.619,0.845-0.615,1.296c0.009,1.443,0.02,2.914,0.292,4.324c0.638,3.309,1.386,6.598,2.183,9.872
	c0.251,1.034,0.798,1.995,1.22,3.016C60.338,106.29,60.675,106.406,60.887,106.292 M55.552,106.213
	c-0.747-2.967-1.445-5.948-2.284-8.891c-0.474-1.667-0.444-3.324-0.362-5.006c0.017-0.36,0.087-0.717,0.11-1.076
	c0.046-0.652,0.232-1.47-0.697-1.576c-0.858-0.1-1.134,0.715-1.16,1.342c-0.077,1.912-0.321,3.889,0.048,5.73
	c0.657,3.289,1.371,6.6,2.803,9.681c0.439,0.945,0.428,0.949,1.383,1.437C56.032,107.365,55.691,106.77,55.552,106.213 M46.09,94.04
	c0.275,1.779,0.489,3.579,0.92,5.323c0.536,2.162,1.253,4.279,1.918,6.408c0.18,0.572,0.382,1.168,0.722,1.649
	c0.185,0.263,0.677,0.311,1.031,0.456c0.116-0.314,0.38-0.659,0.322-0.938c-0.292-1.415-0.676-2.811-1.01-4.217
	c-0.68-2.869-1.348-5.741-2.02-8.614c-0.083-0.351-0.095-0.733-0.247-1.049c-0.291-0.601-1.129-0.622-1.553,0.04
	C46.15,93.333,46.038,93.699,46.09,94.04 M40.957,97.792c0.249,1.905,0.4,3.836,0.842,5.696c0.327,1.374,1.027,2.664,1.607,3.972
	c0.247,0.556,0.759,0.877,1.299,0.463c0.201-0.155,0.236-0.788,0.097-1.086c-1.198-2.547-1.456-5.305-1.878-8.027
	c-0.092-0.593-0.132-1.2-0.296-1.771c-0.197-0.688-0.61-1.175-1.729-0.879C40.917,96.748,40.889,97.276,40.957,97.792
	 M36.924,106.309c0.181,0.507,0.237,0.486,1.456,0.898c-0.004-0.694,0.072-1.323-0.029-1.922c-0.301-1.774-0.667-3.537-1.019-5.303
	c-0.138-0.691-0.424-1.257-1.599-1.296C35.475,101.403,36.055,103.878,36.924,106.309 M30.855,102.613
	c0.377,1.321,0.815,2.631,1.333,3.904c0.105,0.261,0.654,0.449,1.001,0.452c0.146,0.002,0.483-0.607,0.418-0.857
	c-0.385-1.506-0.818-3.003-1.332-4.468c-0.175-0.498-0.668-0.685-1.261-0.138C30.964,101.812,30.754,102.257,30.855,102.613
	 M27.631,104.212c-0.138-0.314-0.764-0.623-1.13-0.583c-0.611,0.063-0.567,0.622-0.433,1.128c0.229,0.868,0.427,1.742,0.72,2.95
	C28.124,106.382,28.104,105.285,27.631,104.212 M22.473,107.07c-0.119-0.267-0.621-0.463-0.962-0.48
	c-0.14-0.008-0.458,0.55-0.435,0.829c0.053,0.681,0.364,1.242,1.581,1.266C22.6,108.043,22.665,107.499,22.473,107.07
	 M16.892,109.859c0.469,0.097,0.977,0.006,1.469-0.013c-0.067-0.312-0.031-0.724-0.22-0.916c-0.418-0.422-0.941-0.482-1.511,0.135
	C16.701,109.297,16.745,109.83,16.892,109.859"/>
<path fill="#00ADDD" d="M89.817,111.767c0.007,0.495,0.013,0.989,0.02,1.534c0.939,0.054,1.452-0.44,1.912-1.004
	c0.872-1.062,1.275-2.309,1.401-3.663c0.27-2.917,0.11-5.832-0.769-8.606c-1.655-5.229-3.506-10.395-5.28-15.586
	c-0.058-0.171-0.159-0.326-0.22-0.496c-0.636-1.776-1.802-2.479-3.753-2.289c-2.694,0.263-5.415,0.239-8.123,0.382
	c-0.832,0.044-1.654,0.23-2.424,0.344c-0.36,1.331,0.097,8.935,0.644,10.428c0.441-0.514,0.857-0.921,1.183-1.39
	c1.169-1.683,2.297-3.393,3.466-5.075c0.496-0.712,0.957-1.552,2.372-1.214c-0.326,0.618-0.533,1.15-0.856,1.601
	c-1.757,2.447-3.537,4.879-5.321,7.308c-0.9,1.225-0.417,2.382,0.092,3.641c0.876-0.18,1.149-0.913,1.515-1.475
	c1.779-2.728,3.521-5.479,5.258-8.231c0.366-0.58,0.688-1.149,1.638-0.787c-0.083,0.363-0.081,0.741-0.249,1.015
	c-0.885,1.437-1.789,2.863-2.73,4.264c-1.346,2.001-2.695,4.002-4.111,5.952c-0.865,1.192-0.344,2.129,0.414,3.294
	c3.345-3.081,4.645-7.704,8.218-10.614c0.587,0.896,0.052,1.333-0.271,1.79c-2.123,3.004-4.258,5.999-6.391,8.995
	c-0.535,0.754-1.08,1.502,0.065,2.532c1.274-1.304,2.312-2.735,3.247-4.249c0.95-1.538,1.86-3.102,2.838-4.621
	c0.408-0.635,0.856-1.347,1.869-1.11c0.354,0.894-0.302,1.386-0.687,1.938c-1.824,2.623-3.683,5.221-5.508,7.843
	c-0.935,1.343-0.861,1.726,0.594,3.007c0.792-1.028,1.635-2.014,2.354-3.082c1.109-1.649,2.094-3.383,3.207-5.028
	c0.637-0.94,0.705-0.895,1.877-1.147c0.446,0.562,0.056,0.999-0.245,1.428c-1.761,2.52-3.534,5.029-5.294,7.549
	c-0.274,0.394-0.587,0.795-0.722,1.241c-0.2,0.664,0.148,1.259,0.75,1.461c0.346,0.118,1.006-0.047,1.23-0.323
	c1.177-1.45,2.278-2.964,3.368-4.482c0.414-0.578,0.7-1.263,1.833-1.341c-0.125,0.541-0.116,1.022-0.332,1.358
	c-1.04,1.622-2.134,3.207-3.222,4.798c-0.237,0.348-0.6,0.629-0.761,1.004c-0.118,0.274-0.001,0.649,0.011,0.979
	c0.368-0.038,0.884,0.062,1.075-0.143c0.699-0.745,1.289-1.593,1.922-2.399c0.447-0.57,0.88-1.152,1.355-1.696
	c0.364-0.419,0.793-0.758,1.61-0.217c-0.254,0.493-0.454,1.025-0.774,1.471c-0.738,1.029-1.552,2.006-2.304,3.024
	c-0.35,0.474-0.821,0.987-0.254,1.6c0.444,0.477,1.284,0.317,1.91-0.341c0.205-0.217,0.352-0.489,0.538-0.727
	c0.142-0.183,0.304-0.351,0.456-0.525C89.579,111.71,89.698,111.738,89.817,111.767"/>
<path fill="#00ADDD" d="M106.072,48.544c0.22-0.049,0.465-0.043,0.638-0.153c2.848-1.81,5.876-3.379,8.237-5.859
	c2.09-2.196,3.362-4.875,3.986-7.796c0.399-1.87-0.033-3.813-1.028-5.417c-2.897-4.67-6.909-7.962-12.518-8.608
	c-2.487-0.287-5.056,0.046-7.58,0.216c-3.112,0.21-6.027-0.333-8.619-2.094c-0.878-0.596-1.623-1.43-2.311-2.253
	c-0.7-0.838-0.739-1.878-0.519-2.931c0.234-1.114,0.442-2.234,0.724-3.68c-1.776,1.215-3.278,2.887-5.213,0.826
	c-0.978,1.335-0.936,2.659-0.755,3.849c0.306,2.016,0.757,4.037,1.421,5.963c0.708,2.052,2.472,3.253,4.359,4.133
	c3.798,1.771,7.783,1.981,11.86,1.207c3.12-0.592,6.245-0.532,9.33,0.203c2.033,0.484,3.323,1.959,4.153,3.76
	c2.103,4.562,1.703,8.928-1.396,12.93C109.341,44.776,107.702,46.604,106.072,48.544"/>
<path fill="#FFFFFF" d="M96.706,55.434c-0.614,0.241-0.975,0.299-1.228,0.496c-2.028,1.578-3.527,3.468-3.471,6.214
	c0.039,1.929,0.007,3.862,0.146,5.783c0.179,2.508-1.072,4.113-3.079,5.293c-2.016,1.185-4.294,1.604-6.545,1.978
	c-1.715,0.283-3.482,0.25-5.225,0.364c-1.414,0.092-2.828,0.194-4.38,0.301c-0.254,1.686-0.472,3.136-0.69,4.584
	c0.427,0.108,0.602,0.201,0.769,0.188c4.562-0.344,9.127-0.66,13.685-1.062c4.025-0.354,6.476-2.883,8.239-6.245
	c0.361-0.688,0.536-1.471,0.815-2.203c0.5-1.307,0.481-2.591-0.122-3.861c-0.103-0.218-0.178-0.447-0.276-0.668
	c-1.514-3.41-1.265-6.673,0.784-9.802C96.335,56.474,96.435,56.082,96.706,55.434"/>
<path fill="#FFFFFF" d="M74.62,72.964c1.949,0.651,4.009,0.637,5.896,0.004C78.844,70.263,76.126,70.204,74.62,72.964"/>
<path fill="#00ADDD" d="M135.641,59.592c0.656-0.907,0.793-2.005,0.699-3.055c-0.295-3.296-0.481-6.627-1.128-9.861
	c-0.834-4.185-1.248-8.361-0.707-12.575c0.532-4.129,2.294-7.516,6.141-9.686c2.039-1.149,4.075-1.953,6.389-2.3
	c2.261-0.339,4.468-1.031,6.791-0.616c1.242,0.222,2.485,0.434,3.729,0.648c0.392,0.067,0.785,0.125,1.167,0.185
	c0.045-0.239,0.12-0.376,0.08-0.459c-2.637-5.616-8.003-8.275-13.948-7.285c-2.838,0.473-5.419,1.749-7.698,3.457
	c-2.498,1.872-4.334,4.301-5.294,7.358c-1.406,4.476-1.4,9.051-0.872,13.611c0.36,3.099,1.18,6.146,1.793,9.215
	c0.639,3.187,1.274,6.375,1.921,9.561c0.126,0.62,0.302,1.23,0.455,1.845C135.319,59.621,135.479,59.606,135.641,59.592"/>
<path fill="#FFFFFF" d="M137.733,60.514c-2.663,1.713-4.877,3.54-7.894,3.107c-2.751-0.394-5.446-0.965-7.556-3.067
	c-0.104,0.088-0.209,0.177-0.314,0.267c0.255,0.628,0.487,1.268,0.772,1.883c0.202,0.436,0.499,0.825,0.712,1.256
	c0.551,1.11,0.428,1.453-0.697,1.937c-0.868,0.374-1.749,0.715-3.013,1.228c0.696,0.281,0.986,0.49,1.285,0.505
	c2.403,0.122,4.809,0.3,7.213,0.274c2.125-0.023,4.208-0.585,6.026-1.662C136.212,65.09,137.673,63.454,137.733,60.514"/>
<path fill="#FFFFFF" d="M163.426,36.409c0.928-0.785,1.636-1.677,2.556-2.078c0.852-0.372,1.934-0.22,3.043-0.308
	c-0.982-1.141-2.005-2.363-3.067-3.55c-0.841-0.942-1.804-1.784-2.582-2.774c-1.518-1.934-3.556-3.022-5.794-3.829
	c-0.212-0.076-0.456-0.06-0.798-0.1c0.105,0.87,0.83,1.077,1.229,1.544c0.654,0.767,1.438,1.488,1.854,2.375
	c0.813,1.738,1.395,3.584,2.105,5.373C162.391,34.113,162.872,35.139,163.426,36.409"/>
<path fill="#00ADDD" d="M102.093,118.051c0.149-0.197,0.314-0.386,0.446-0.594c2.165-3.426,4.806-6.357,8.619-7.974
	c1.907-0.807,3.922-1.278,5.99-0.641c2.994,0.923,4.334,3.286,5.005,6.109c0.346,1.461,0.206,2.933-0.529,4.391
	c-0.576-0.455-1.032-0.843-1.518-1.191c-2.376-1.707-4.819-1.968-7.439-0.48c-1.703,0.967-3.242,2.065-4.375,3.693
	c-0.437,0.628-0.973,1.201-2.111,1.058c0.25-0.912,0.46-1.703,0.686-2.49c0.393-1.371,0.046-1.777-1.385-1.592
	c-0.417,0.054-0.826,0.204-1.244,0.223c-0.572,0.025-1.148-0.032-1.724-0.056L102.093,118.051z M103.879,117.69
	c0.093-0.091,0.149-0.22,0.22-0.335c-0.107-0.022-0.228-0.087-0.318-0.059c-0.074,0.024-0.113,0.156-0.167,0.241
	C103.706,117.594,103.859,117.71,103.879,117.69"/>
<path fill="#FFFFFF" d="M139.354,142.188c-2.361,0.042-4.521,0.133-6.68,0.105c-2.316-0.03-4.575-0.396-6.498-1.837
	c-2.357-1.769-3.597-4.099-3.744-7.087c-0.181-3.681-0.233-7.343,0.345-10.994c0.034-0.209-0.063-0.436-0.144-0.916
	c-0.363,0.445-0.644,0.672-0.77,0.964c-1.046,2.435-2.235,4.826-3.047,7.338c-0.891,2.752-1.64,5.683-0.286,8.476
	c1.7,3.503,4.094,6.291,8.208,7.209c4.017,0.897,7.641,0.1,11.087-1.957c0.362-0.217,0.711-0.456,1.049-0.708
	C139.01,142.678,139.098,142.512,139.354,142.188"/>
<path fill="#00ADDD" d="M158.404,150.954c0.395-1.194,0.836-2.374,1.172-3.585c0.384-1.388,0.836-2.786,0.963-4.205
	c0.188-2.113-0.355-4.099-1.979-5.604c-2.488-2.307-5.488-3.799-9.266-1.24c0.386,0.312,0.71,0.616,1.073,0.857
	c2.007,1.335,3.14,3.146,3.012,5.611c-0.081,1.563-0.242,3.126-0.349,4.691c-0.062,0.879-0.091,1.761-0.153,3.083
	c0.908-0.669,1.475-1.071,2.022-1.495c1.408-1.086,1.995-0.929,2.67,0.744c0.152,0.381,0.273,0.772,0.41,1.16L158.404,150.954z"/>
<path fill="#00ADDD" d="M195.101,84.895c-0.572-0.817-1.088-1.35-1.354-1.985c-0.369-0.876-0.595-1.821-0.786-2.757
	c-0.061-0.293,0.113-0.861,0.312-0.932c0.331-0.117,0.843-0.049,1.144,0.147c0.547,0.358,0.98,0.886,1.488,1.31
	c0.48,0.402,0.994,0.764,1.568,1.199c0.088-0.359,0.171-0.5,0.131-0.563c-1.805-2.867-1.86-6.055-1.713-9.278
	c0.062-1.327,0.134-2.653,0.194-3.98c0.072-1.551-0.491-2.764-1.707-3.792c-2.31-1.955-4.991-3.194-7.814-4.081
	c-3.685-1.157-7.542,0.257-9.389,3.237c-0.146,0.234-0.208,0.521-0.384,0.983c0.597-0.059,0.992-0.066,1.375-0.139
	c3.384-0.64,6.713-0.673,9.947,0.748c2.752,1.209,4.988,4.652,3.756,7.847c-0.712,1.85-1.547,3.685-1.975,5.604
	C189.243,81.392,191.74,84.511,195.101,84.895"/>
<path fill="#00ADDD" d="M144.173,92.794c1.429,0.545,2.688,1.026,4.23,1.616c-0.727,0.86-1.24,1.468-1.938,2.295
	c0.491-0.031,0.723,0.011,0.903-0.066c1.486-0.635,2.953-0.678,4.578-0.396c4.333,0.747,8.55,0.509,12.245-2.332
	c0.519-0.399,1.188-0.598,1.736-0.966c0.568-0.382,1.073-0.858,1.524-1.458c-2.879,1.246-5.852,1.405-8.842,1.021
	c-1.66-0.213-3.285-0.724-4.919-1.133c-1.169-0.291-2.316-0.67-3.489-0.946C147.792,89.862,145.819,90.542,144.173,92.794"/>
<path fill="#FFFFFF" d="M168.113,89.265c0.629-0.535,1.093-0.806,1.39-1.202c2.533-3.388,3.574-7.288,3.824-11.443
	c0.077-1.262,0.087-2.527,0.146-3.79c0.118-2.575,0.249-5.149,0.386-7.969c-0.851,0.933-1.546,1.825-2.048,2.901
	c-0.457,0.979-0.954,1.943-1.511,2.869c-0.974,1.621-1.057,3.447-1.192,5.231c-0.218,2.877-0.231,5.771-0.41,8.651
	C168.606,85.982,168.344,87.44,168.113,89.265"/>
<path fill="#FFFFFF" d="M141.615,118.836c2.278,0.099,4.522-0.119,6.684-0.949c0.634-0.245,1.262-0.598,1.031-1.449
	c-1.046-3.881-2.759-7.311-6.561-9.219c-0.672-0.337-1.453-0.454-2.345-0.412c0.26,0.278,0.524,0.553,0.777,0.836
	c1.188,1.331,1.979,2.852,2.295,4.623c0.301,1.69-0.006,3.231-0.995,4.63c-0.369,0.522-0.771,1.021-1.159,1.532
	C141.435,118.563,141.524,118.7,141.615,118.836"/>
<path fill="#00ADDD" d="M140.352,109.078c-1.567-1.487-2.81-2.927-5.004-2.784c-0.779,0.05-1.563,0.023-2.343,0.077
	c-0.584,0.042-1.11,0.301-1.123,0.956c-0.02,1.059,0.063,2.12,0.113,3.46C134.839,110.206,137.432,109.676,140.352,109.078"/>
<path fill="#FFFFFF" d="M82.876,41.33c0.688,1.27,1.343,2.558,2.058,3.812c0.749,1.316,0.797,1.526-0.506,2.306
	c-1.965,1.175-3.5,2.73-4.711,4.646c-0.119,0.188-0.332,0.317-0.544,0.512c-1.21-0.738-1.162-2.098-1.729-3.107
	c-0.59-1.05-1.238-2.069-1.781-3.142c-0.53-1.046-1.215-2.068-1.09-3.417c2.431-1.092,4.826-2.167,7.35-3.3
	C82.301,40.31,82.598,40.815,82.876,41.33 M79.021,47.135c0.352,0.479,1.106,0.379,1.108-0.103c0.002-0.622-0.169-1.277-0.408-1.861
	c-0.231-0.566-0.467-1.284-1.564-1.058C77.93,45.322,78.387,46.272,79.021,47.135 M80.993,43.391
	c-0.421,0.411-0.044,1.587,0.634,1.979c0.198,0.115,0.607,0.104,0.784-0.03c0.45-0.342,0.131-1.524-0.647-2.137
	C81.578,43.243,81.178,43.208,80.993,43.391"/>
<path fill="#FFFFFF" d="M193.86,39.295c-1.555,0.928-2.904,1.963-4.425,2.577c-1.522,0.615-3.215,0.812-4.89,1.206
	c0.076,1.26,0.698,2.165,1.283,3.039c0.21,0.313,0.854,0.572,1.231,0.5c2.953-0.562,5.47-1.814,6.771-4.748
	C194.176,41.093,194.358,40.281,193.86,39.295"/>
<path fill="#00ADDD" d="M188.697,35.235c0.112,1.81,0.208,3.356,0.315,5.071c0.396-0.088,0.835-0.072,1.127-0.272
	c0.742-0.51,1.467-1.067,2.111-1.696c0.965-0.942,1.074-2.272,0.371-3.299c-0.586-0.854-1.15-1.026-2.15-0.614
	C189.868,34.673,189.284,34.966,188.697,35.235"/>
<path fill="#00ADDD" d="M146.982,41.809c0.28-0.174,0.867-0.097,1.188,0.086c0.986,0.563,1.924,1.216,2.854,1.871
	c0.512,0.361,0.629,0.892,0.296,1.429c-0.76,1.22-1.527,2.437-2.346,3.618c-0.471,0.679-1.174,0.707-1.692,0.119
	c-1.142-1.295-2.513-2.184-4.66-2.641C143.954,44.251,145.296,42.854,146.982,41.809 M145.442,44.671
	c-0.06,0.173,0.334,0.722,0.521,0.722c0.943,0.003,1.323-0.609,1.407-1.57C146.229,43.32,145.719,43.867,145.442,44.671
	 M147.407,46.632c0.479,0.033,0.989-0.059,1.442-0.225c0.095-0.036,0-0.592-0.007-0.908c-0.484,0.056-0.969,0.113-2.02,0.234
	C147.1,46.179,147.238,46.621,147.407,46.632"/>
<path fill="#231F20" d="M60,86.091c-0.027,0.279-0.087,0.69-0.104,1.104c-0.106,2.479,0.177,4.921,0.776,7.326
	c0.858,3.442,1.642,6.912,3.354,10.07c0.329,0.608,0.561,1.585,1.496,1.13c0.857-0.418,0.426-1.273,0.129-1.908
	c-2.058-4.405-3.27-9.038-3.768-13.862c-0.092-0.896-0.066-1.805-0.164-2.698c-0.05-0.46-0.171-0.954-0.412-1.339
	C61.026,85.464,60.372,85.539,60,86.091"/>
<path fill="#231F20" d="M59.921,106.268c0.417,0.022,0.752,0.138,0.966,0.023c0.207-0.111,0.39-0.456,0.396-0.702
	c0.008-0.349-0.123-0.712-0.251-1.046c-1.583-4.146-2.289-8.479-2.777-12.861c-0.06-0.538-0.067-1.082-0.1-1.624
	c-0.021-0.36-0.013-0.728-0.08-1.079c-0.131-0.688-0.42-1.401-1.234-1.218c-0.298,0.067-0.619,0.845-0.615,1.296
	c0.009,1.443,0.021,2.914,0.292,4.324c0.639,3.309,1.387,6.598,2.184,9.872C58.953,104.286,59.499,105.248,59.921,106.268"/>
<path fill="#231F20" d="M55.395,107.854c0.637-0.488,0.297-1.084,0.158-1.642c-0.747-2.966-1.445-5.947-2.283-8.89
	c-0.475-1.667-0.445-3.324-0.363-5.006c0.017-0.36,0.086-0.717,0.11-1.076c0.046-0.652,0.232-1.47-0.697-1.576
	c-0.858-0.1-1.134,0.716-1.16,1.342c-0.077,1.912-0.321,3.889,0.048,5.73c0.658,3.289,1.371,6.599,2.803,9.681
	C54.451,107.362,54.439,107.366,55.395,107.854"/>
<path fill="#231F20" d="M46.173,93.1c-0.022,0.233-0.135,0.6-0.083,0.94c0.274,1.779,0.488,3.579,0.92,5.322
	c0.536,2.162,1.253,4.28,1.919,6.409c0.179,0.572,0.383,1.168,0.721,1.649c0.186,0.263,0.677,0.31,1.031,0.455
	c0.116-0.314,0.38-0.658,0.322-0.937c-0.292-1.416-0.677-2.811-1.009-4.217c-0.681-2.87-1.349-5.743-2.021-8.615
	c-0.083-0.35-0.095-0.732-0.247-1.048C47.437,92.459,46.599,92.438,46.173,93.1"/>
<path fill="#231F20" d="M40.899,96.159c0.018,0.589-0.01,1.117,0.057,1.633c0.25,1.905,0.4,3.836,0.843,5.695
	c0.328,1.375,1.027,2.665,1.607,3.973c0.247,0.556,0.758,0.877,1.299,0.463c0.202-0.155,0.236-0.788,0.097-1.086
	c-1.199-2.547-1.457-5.305-1.878-8.027c-0.091-0.593-0.132-1.2-0.297-1.771C42.43,96.35,42.017,95.863,40.899,96.159"/>
<path fill="#231F20" d="M35.732,98.687c-0.258,2.716,0.322,5.191,1.191,7.621c0.182,0.508,0.237,0.487,1.456,0.899
	c-0.005-0.694,0.073-1.323-0.029-1.923c-0.301-1.774-0.668-3.536-1.02-5.302C37.194,99.293,36.909,98.726,35.732,98.687"/>
<path fill="#231F20" d="M31.015,101.507c-0.051,0.305-0.261,0.75-0.159,1.106c0.377,1.321,0.814,2.631,1.333,3.904
	c0.106,0.26,0.654,0.449,1.001,0.452c0.146,0.002,0.483-0.607,0.419-0.857c-0.386-1.506-0.819-3.003-1.333-4.468
	C32.101,101.146,31.609,100.96,31.015,101.507"/>
<path fill="#231F20" d="M26.788,107.707c1.335-1.325,1.316-2.421,0.843-3.495c-0.139-0.314-0.764-0.623-1.129-0.583
	c-0.612,0.063-0.567,0.622-0.434,1.128C26.296,105.625,26.495,106.499,26.788,107.707"/>
<path fill="#231F20" d="M22.656,108.685c-0.057-0.642,0.008-1.186-0.184-1.614c-0.119-0.267-0.621-0.463-0.962-0.48
	c-0.14-0.008-0.457,0.55-0.435,0.83C21.129,108.099,21.439,108.66,22.656,108.685"/>
<path fill="#231F20" d="M16.631,109.065c0.069,0.231,0.114,0.765,0.261,0.795c0.469,0.096,0.976,0.005,1.469-0.014
	c-0.066-0.312-0.031-0.724-0.22-0.916C17.724,108.509,17.2,108.448,16.631,109.065"/>
<path fill="#231F20" d="M111.295,116.959c-0.013,0.106-0.059,0.294-0.033,0.305c0.121,0.049,0.262,0.049,0.395,0.066
	c-0.021-0.107-0.011-0.242-0.073-0.313C111.532,116.957,111.395,116.976,111.295,116.959"/>
<path fill="#231F20" d="M78.157,44.114c-0.226,1.207,0.229,2.158,0.863,3.021c0.353,0.479,1.108,0.379,1.109-0.103
	c0.002-0.623-0.17-1.278-0.408-1.861C79.489,44.606,79.255,43.887,78.157,44.114"/>
<path fill="#231F20" d="M81.763,43.203c-0.186,0.039-0.583,0.005-0.77,0.188c-0.421,0.411-0.045,1.587,0.634,1.979
	c0.198,0.114,0.607,0.104,0.784-0.03C82.86,44.999,82.541,43.816,81.763,43.203"/>
<path fill="#231F20" d="M147.37,43.823c-1.141-0.502-1.651,0.044-1.928,0.848c-0.06,0.173,0.334,0.722,0.521,0.722
	C146.906,45.396,147.285,44.784,147.37,43.823"/>
<path fill="#231F20" d="M146.822,45.734c0.277,0.445,0.416,0.887,0.585,0.898c0.479,0.033,0.989-0.06,1.442-0.225
	c0.096-0.035,0.001-0.592-0.007-0.908C148.358,45.556,147.874,45.612,146.822,45.734"/>
<path fill="#231F20" d="M83.263,138.56c-0.373-1.019-0.738-2.042-1.064-3.077c-0.398-1.262-0.816-2.524-1.11-3.814
	c-0.301-1.327-0.105-1.653,1.144-1.974c1.75-0.448,3.515-0.853,5.29-1.189c1.268-0.24,1.697,0.056,2.251,1.266
	c0.554,1.206,1.128,2.403,1.636,3.627c0.438,1.057,0.891,2.123,1.157,3.229c0.283,1.174-0.098,1.682-1.287,1.939
	c-2.061,0.447-4.133,0.853-6.207,1.239c-0.386,0.073-0.805-0.023-1.227-0.041C83.622,139.307,83.406,138.947,83.263,138.56
	 M89.318,132.954c-0.301-0.717-0.768-1.363-1.068-2.08c-0.338-0.806-0.896-1.095-1.71-0.928c-1.223,0.25-2.44,0.526-3.88,0.839
	c0.629,2.221,1.213,4.283,1.799,6.344c0.252,0.886,0.801,1.302,1.747,1.106c1.456-0.301,2.915-0.592,4.499-0.911
	C90.711,135.478,89.868,134.26,89.318,132.954"/>
<path fill="#FFFFFF" d="M86.208,138.235c-0.947,0.195-1.496-0.221-1.748-1.107c-0.587-2.061-1.17-4.122-1.799-6.343
	c1.44-0.312,2.657-0.589,3.879-0.839c0.815-0.167,1.374,0.121,1.712,0.928c0.3,0.718,0.766,1.364,1.066,2.08
	c0.55,1.306,1.394,2.523,1.387,4.37C89.121,137.644,87.664,137.935,86.208,138.235 M88.766,135.253
	c-1.348-0.832-2.825-0.605-3.954,0.719C86.372,136.14,87.548,135.913,88.766,135.253 M85.324,133.166
	c1.127,0.721,1.92,0.021,2.731-0.417C87.102,132.326,86.215,132.287,85.324,133.166"/>
<path fill="#231F20" d="M84.812,135.972c1.56,0.168,2.736-0.059,3.954-0.719C87.418,134.421,85.941,134.647,84.812,135.972"/>
<path fill="#231F20" d="M88.056,132.749c-0.955-0.423-1.841-0.462-2.731,0.418C86.452,133.887,87.244,133.187,88.056,132.749"/>
<path fill="#231F20" d="M178.637,135.191c-1.656-0.29-3.319-0.564-4.957-0.947c-1.484-0.346-1.706-1.121-0.62-2.084
	c2.337-2.072,4.718-4.095,7.072-6.146c0.537-0.466,1.081-0.688,1.812-0.438c2.163,0.74,4.341,1.44,6.516,2.153
	c0.617,0.204,0.877,0.596,1.106,1.248c0.576,1.633-0.158,2.647-1.317,3.565c-1.367,1.082-2.736,2.164-4.112,3.235
	c-0.713,0.555-1.427,1.131-2.555,0.969C181.064,135.487,179.828,135.4,178.637,135.191 M177.234,133.736
	c1.297,0.265,2.597,0.521,3.907,0.707c0.513,0.072,1.194,0.136,1.561-0.127c1.755-1.262,3.436-2.627,5.119-3.984
	c0.207-0.166,0.275-0.505,0.434-0.812c-1.124-0.919-2.468-1.104-3.695-1.518c-3.331-1.121-2.587-1.33-5.324,1.147
	c-1.375,1.245-2.867,2.363-4.306,3.538c0.026,0.159,0.053,0.318,0.08,0.478C175.75,133.358,176.484,133.583,177.234,133.736"/>
<path fill="#FFFFFF" d="M174.929,132.688c1.44-1.175,2.932-2.293,4.307-3.537c2.737-2.479,1.993-2.271,5.324-1.149
	c1.228,0.414,2.571,0.601,3.696,1.519c-0.159,0.309-0.228,0.646-0.435,0.812c-1.684,1.357-3.364,2.723-5.119,3.984
	c-0.366,0.263-1.048,0.199-1.561,0.127c-1.311-0.186-2.61-0.442-3.907-0.707c-0.749-0.152-1.484-0.378-2.225-0.571
	C174.983,133.006,174.956,132.847,174.929,132.688 M184.035,131.08c-1.591-0.143-2.713,0.533-3.173,1.908
	C182.518,133.056,183.664,132.365,184.035,131.08 M179.037,131.118c1.547,0.029,2.47-0.563,3.098-1.69
	C180.73,129.199,179.792,129.753,179.037,131.118"/>
<path fill="#231F20" d="M180.862,132.988c1.655,0.066,2.803-0.622,3.173-1.907C182.444,130.938,181.321,131.613,180.862,132.988"/>
<path fill="#231F20" d="M182.135,129.428c-1.404-0.229-2.343,0.325-3.098,1.691C180.584,131.146,181.507,130.555,182.135,129.428"/>
</svg>
