<?xml version="1.0" encoding="utf-8"?>
<!-- Generator: Adobe Illustrator 15.1.0, SVG Export Plug-In . SVG Version: 6.00 Build 0)  -->
<!DOCTYPE svg PUBLIC "-//W3C//DTD SVG 1.1//EN" "http://www.w3.org/Graphics/SVG/1.1/DTD/svg11.dtd">
<svg version="1.1" id="Layer_1" xmlns="http://www.w3.org/2000/svg" xmlns:xlink="http://www.w3.org/1999/xlink" x="0px" y="0px"
	 width="150px" height="114px" viewBox="0 0 150 114" enable-background="new 0 0 150 114" xml:space="preserve">
<path fill="#00ADDD" d="M119.348,20.723c-5.403-2.308-14.307-0.52-20.071-0.477c-6.618,0.049-13.237,0.126-19.856,0.227
	c-15.127,0.232-30.254,0.612-45.376,1.108c-4.325,0.141-5.308,5.367-2.947,7.66c-1.912,1.839-2.439,4.594-1.24,7.118
	c1.995,4.196,6.948,3.972,10.825,4.057c14.137,0.312,28.305,0.163,42.442-0.033c7.547-0.11,15.088-0.269,22.631-0.48
	c4.464-0.126,10.891,0.966,14.951-1.157C126.448,35.742,125.09,23.178,119.348,20.723"/>
<path fill="#231F20" d="M48.77,6.922c1.218,2.393,1.218,2.393-1.836,11.125c3.364,1.42,6.661,0.157,9.935-0.311
	c0.347-0.049,0.569-1.341,0.758-2.083c0.663-2.579,1.123-5.228,2.01-7.723c0.325-0.909,1.634-1.465,2.494-2.182
	c0.655,1.014,1.77,1.98,1.872,3.048c0.191,1.997-0.124,4.064-0.383,6.08c-0.109,0.847-0.618,1.641-1.068,2.769
	c2.236,0.225,4.232,0.427,6.155,0.622c0-2.419-0.497-4.824,0.141-6.872c0.614-1.977,2.397-3.591,4.018-5.229
	c1.665,2.867,1.95,5.657,1.305,8.619c-0.739,3.411-0.666,3.455,2.826,3.612c0.089,0.004,0.178,0.006,0.269,0.011
	c5.402,0.234,5.402,0.234,5.322-5.146c-0.046-3.104,1.176-5.61,3.555-7.15c1.969,1.434,1.848,3.518,1.574,5.556
	c-0.27,2.006-0.762,3.991-1.17,6.06c3.385,0,6.4,0.11,9.387-0.117c0.464-0.036,1-1.578,1.17-2.485
	c0.321-1.726,0.033-3.661,0.717-5.183c0.468-1.034,2.164-1.507,3.311-2.23c0.611,1.065,1.651,2.099,1.74,3.212
	c0.17,2.104-0.206,4.255-0.398,7.016c1.792,0,3.548,0.16,5.241-0.095c0.542-0.083,1.117-1.217,1.331-1.973
	c0.643-2.254,1.206-4.506,3.506-5.853c1.985,1.33,2.226,3.396,1.861,5.279c-0.556,2.872,0.613,3.9,3.217,4.205
	c0.845,0.101,1.753,0.528,2.416,1.07c0.44,0.361,0.496,1.194,0.727,1.812c-0.559,0.193-1.14,0.595-1.671,0.539
	c-1.426-0.148-2.821-0.596-4.247-0.721c-0.789-0.068-2.136,0.053-2.314,0.473c-0.357,0.851-0.307,2.034-0.018,2.95
	c0.312,0.994,1.273,1.781,1.592,2.768c0.19,0.593-0.312,1.403-0.501,2.115c-0.6-0.25-1.359-0.356-1.759-0.791
	c-0.712-0.777-1.205-1.757-1.888-2.798c-1.581,0.839-3.035,1.671-4.536,2.4c-3.251,1.58-4.514,1.057-5.922-2.299
	c-0.336-0.802-0.81-1.545-1.155-2.191c-2.631,1.289-5.157,3.579-7.417,3.345c-2.31-0.238-4.364-2.954-6.426-4.506
	c-2.145,1.37-4.427,3.177-7,4.369c-2.549,1.186-4.112-0.025-6.727-4.45c-1.979,1.457-3.915,2.964-5.935,4.348
	c-2.378,1.628-3.317,1.356-4.625-1.151c-0.249-0.477-0.539-0.954-0.67-1.468c-0.541-2.116-1.52-2.02-3.071-0.855
	c-1.486,1.12-3.076,2.239-4.795,2.871c-3.347,1.234-3.785,0.945-5.653-2.066c-0.418-0.675-0.812-1.363-1.331-2.24
	c-1.603,2.058-3.148,4.044-4.694,6.027c-0.234-0.163-0.465-0.326-0.7-0.483c1.336-2.089,2.668-4.175,4.195-6.554
	c-4.35-0.938-8.075-0.016-11.708,1.12c-0.563,0.177-0.949,1.833-0.929,2.794c0.127,6.369,0.662,12.733,0.542,19.094
	c-0.212,11.391-0.729,22.774-1.245,34.156c-0.355,7.791-1.739,15.55-0.425,23.37c0.146,0.861,0.02,1.767,0.02,2.976
	c3.392,0,6.769,0.163,10.124-0.032c10.215-0.584,20.413-1.588,30.631-1.88c7.672-0.216,15.396,0.088,23.043,0.762
	c9.041,0.799,18.048,1.155,27.008,0.736c0.272-4.429,0.503-8.604,0.802-12.775c0.151-2.116,0.135-4.045-2.898-4.121
	c0.19-0.529,0.227-1.051,0.423-1.117c2.747-0.961,2.601-3.156,2.585-5.476c-0.1-15.638-0.105-31.278-0.184-46.916
	c-0.012-2.69-0.323-5.385-0.323-8.07c0-1.137,0.446-2.269,0.689-3.401c0.231,0.019,0.463,0.038,0.695,0.062
	c0.208,0.347,0.568,0.681,0.601,1.046c0.554,6.166,1.395,12.331,1.519,18.51c0.165,8.245-0.325,16.507-0.357,24.761
	c-0.018,5.116,0.331,10.234,0.435,15.354c0.037,1.796-0.243,5.291-0.492,8.669c-0.348,4.793-0.695,9.592-1.309,14.358
	c-0.097,0.759-1.494,1.745-2.427,1.928c-2.098,0.409-4.294,0.607-6.43,0.496c-8.229-0.435-16.444-1.244-24.678-1.495
	c-8.144-0.246-16.309-0.107-24.459,0.079c-8.969,0.208-17.933,0.67-26.898,1.005c-2.874,0.106-5.746,0.209-8.619,0.205
	c-1.149-0.002-2.299-0.289-2.81-0.357c0.091-2.471,0.215-4.315,0.212-6.149c-0.005-2.878-0.207-5.757-0.112-8.626
	c0.067-2.094,0.669-7.505,0.744-9.088c0.495-10.313,1.127-20.623,1.396-30.938c0.214-8.263-0.025-16.539-0.066-24.805
	c-0.003-0.81-0.02-1.617-0.062-2.428c-0.246-4.752-0.253-4.776,4.58-5.664c2.561-0.469,5.126-0.963,7.713-1.222
	c3.492-0.351,3.5-0.255,3.179-3.894C43.705,11.55,45.35,8.667,48.77,6.922 M100.96,20.946c-0.265,2.445,0.312,4.737,2.029,5.592
	c1.168,0.583,3.354-0.355,4.821-1.118c0.672-0.35,1.052-1.968,0.911-2.916c-0.087-0.607-1.324-1.39-2.118-1.488
	C104.78,20.799,102.912,20.946,100.96,20.946 M88.092,20.709c-0.086,0.347-0.171,0.69-0.257,1.035
	c0.762,1.908,1.906,4.062,4.101,3.774c1.788-0.229,3.396-1.954,5.005-3.126c0.106-0.076-0.457-1.593-0.749-1.606
	C93.498,20.655,90.793,20.709,88.092,20.709 M69.042,21.355c-2.319-0.307-4.156-0.708-5.995-0.712c-0.622,0-1.863,1.313-1.769,1.499
	c0.687,1.368,0.211,4.188,2.454,3.739C65.763,25.479,68,24.244,69.042,21.355 M82.277,21.363h-8.841
	c0.043,2.308,1.234,3.572,3.148,3.922C79.198,25.768,81.152,24.408,82.277,21.363 M57.126,21.048
	c-3.643,0.299-6.584,0.545-9.524,0.786l-0.363,0.767c0.88,0.855,1.738,2.404,2.646,2.434C52.599,25.121,55.061,24.103,57.126,21.048
	 M60.968,8.61c-1.03,2.939-2.175,5.551-0.82,8.651C62.381,14.846,62.728,11.457,60.968,8.61 M71.949,10.152
	c-2.062,1.905-2.091,3.075,0,5.583V10.152z M100.673,10.655c-0.31-0.029-0.62-0.062-0.931-0.091
	c-1.472,1.607-0.48,3.237-0.067,4.865c0.252,0.01,0.502,0.021,0.752,0.032L100.673,10.655z M47.812,10.042
	c-0.414-0.081-0.831-0.163-1.245-0.241c-0.341,1.63-0.683,3.265-1.024,4.895c0.393,0.083,0.781,0.167,1.174,0.251
	C47.081,13.31,47.446,11.676,47.812,10.042 M112.235,15.157c-0.28-0.052-0.561-0.104-0.844-0.158l-0.55,2.686
	c0.329,0.063,0.658,0.125,0.986,0.187C111.963,16.966,112.099,16.06,112.235,15.157"/>
<path fill="#231F20" d="M65.837,46.905c-0.102,2.094-0.198,4.189-0.312,6.282c-0.168,3.055,0.183,3.451,3.195,3.424
	c2.591-0.021,5.179-0.098,7.767-0.101c1.989-0.003,1.58-1.26,1.312-2.422c-0.357-1.541-0.949-3.106,1.264-4.481
	c0.256,1.829,0.544,3.362,0.663,4.912c0.13,1.641,0.91,2.125,2.493,1.942c1.229-0.145,2.513-0.101,3.737,0.085
	c2.164,0.333,2.938-0.51,2.88-2.647c-0.049-1.778,0.229-3.563,0.36-5.348c0.444,0.012,0.889,0.022,1.333,0.032
	c0,1.106,0.065,2.223-0.011,3.328c-0.276,3.907,0.249,4.526,4.198,4.739c0.718,0.04,1.444-0.016,2.156,0.056
	c2.188,0.22,3.69-0.436,3.99-2.861c0.052-0.402,0.351-0.775,0.613-1.32c1.569,1.143-0.601,4.313,2.555,4.229
	c1.885-0.047,3.78-0.103,5.659,0.021c2.976,0.197,1.429-3.158,3.192-3.948c0.224,0.154,0.602,0.279,0.617,0.438
	c0.203,2.078-0.352,4.442,3.075,4.617c1.032,0.053,0.764,1.738-0.301,1.891c-2.784,0.391-2.898,2.105-3.029,4.384
	c-0.146,2.556,0.865,3.855,3.112,4.569c0.197,0.063,0.311,0.4,0.626,0.834c-4.821,1.641-2.751,5.701-3.141,8.908
	c-0.054,0.441,0.814,1.151,1.403,1.468c0.604,0.324,1.436,0.207,2.077,0.487c0.49,0.218,0.841,0.757,1.254,1.148
	c-0.417,0.419-0.82,0.854-1.256,1.247c-0.117,0.106-0.343,0.09-0.517,0.131c-3.979,0.935-3.979,0.935-3.992,5.042
	c-0.005,1.978,0.077,3.963-0.07,5.929c-0.063,0.832-0.611,1.629-0.939,2.444c-0.408-0.086-0.812-0.173-1.22-0.262
	c0-1.55-0.006-3.104,0.002-4.658c0.008-1.886-0.006-3.775,0.054-5.66c0.046-1.541-0.535-2.239-2.17-2.367
	c-6.23-0.484-6.244-0.534-6.89,5.602c-0.131,1.247,0.046,2.533-0.142,3.764c-0.157,1.03-0.641,2.013-0.977,3.01
	c-0.321-0.045-0.641-0.082-0.96-0.128c-0.099-0.883-0.307-1.77-0.272-2.644c0.088-2.064,0.305-4.119,0.436-6.181
	c0.046-0.708,0.283-1.713-0.076-2.083c-1.972-2.047-4.394-0.275-6.612-0.474c-0.502-0.044-1.479,1.156-1.61,1.895
	c-0.279,1.572-0.053,3.232-0.215,4.834c-0.095,0.939-0.541,1.842-0.828,2.761c-0.352-0.045-0.705-0.088-1.057-0.126
	c-0.067-1.705-0.187-3.412-0.193-5.118c-0.02-4.382,0-4.382-4.246-4.246c-0.541,0.016-1.086,0.077-1.618,0.018
	c-2.176-0.234-2.885,0.831-2.747,2.864c0.11,1.606,0.126,3.233,0.045,4.848c-0.043,0.882-0.372,1.751-0.573,2.627
	c-0.343-0.003-0.686-0.003-1.03-0.004c-0.133-1.291-0.327-2.581-0.389-3.877c-0.34-7.013,0.71-5.912-6.435-6.082
	c-0.09-0.002-0.179,0.002-0.269,0.002c-4.93,0.066-4.884,0.068-5.277,4.906c-0.095,1.179-0.584,2.327-0.891,3.493
	c-0.302-0.064-0.603-0.123-0.904-0.188c0-1.569-0.082-3.146,0.02-4.705c0.137-2.004-0.502-3.083-2.702-2.946
	c-1.97,0.124-3.95,0.081-5.927,0.13c-1.866,0.047-2.692,0.929-2.676,2.88c0.017,1.769-0.328,3.538-0.514,5.307
	c-0.43-0.023-0.856-0.051-1.286-0.075c0-1.785-0.053-3.57,0.015-5.352c0.082-2.219-1.042-2.946-3.12-2.985
	c-5.999-0.107-5.99-0.153-6.405,5.842c-0.046,0.658-0.28,1.302-0.429,1.952c-0.307,0.005-0.613,0.009-0.919,0.013
	c-0.08-1.365-0.161-2.733-0.241-4.1c-0.173-2.933,0.566-4.067-3.541-4.223c-0.928-0.038-1.831-0.691-2.746-1.06
	c0.035-0.33,0.068-0.663,0.103-0.992c1.029-0.077,2.06-0.226,3.085-0.211c1.953,0.026,3.052-0.64,2.96-2.823
	c-0.086-1.974-0.022-3.959,0.136-5.929c0.167-2.043-0.683-2.989-2.688-3.156c-1.364-0.11-2.712-0.401-4.066-0.611
	c-0.029-0.315-0.057-0.63-0.086-0.943c0.91-0.234,1.817-0.652,2.727-0.662c4.195-0.047,4.621-0.427,4.643-4.608
	c0.004-0.627-0.07-1.261-0.02-1.887c0.188-2.351-0.766-3.591-3.23-3.492c-0.533,0.022-1.127,0.034-1.588-0.175
	c-0.432-0.199-1.092-0.849-1.013-1.032c0.206-0.496,0.716-1.134,1.174-1.196c1.229-0.164,2.495-0.055,4.189-0.055v-8.024
	c0.294-0.046,0.588-0.094,0.884-0.14c0.223,0.825,0.573,1.638,0.643,2.474c0.115,1.337-0.181,2.747,0.13,4.019
	c0.208,0.845,1.079,2.01,1.819,2.15c1.822,0.347,3.772,0.391,5.607,0.118c0.648-0.097,1.446-1.414,1.579-2.268
	c0.252-1.625,0.073-3.317,0.073-4.982c0.332-0.056,0.665-0.112,0.997-0.168c0.192,0.984,0.532,1.961,0.552,2.944
	c0.087,4.074,0.049,4.101,4.106,4.545c1.062,0.117,2.156,0.104,3.218-0.014c3.571-0.41,4.486-1.644,3.586-5.175
	c-0.475-1.872-0.003-3.248,1.168-4.517C65.25,46.808,65.542,46.854,65.837,46.905 M71.954,81.489c1.438,0,2.887,0.125,4.299-0.05
	c0.676-0.087,1.806-0.721,1.828-1.151c0.14-2.761,0.031-5.538,0.003-8.309c-1.952-0.345-3.905-0.693-5.857-1.035
	c-0.177-0.034-0.357-0.051-0.538-0.061c-5.244-0.349-5.244-0.349-5.173,4.882c0.002,0.087,0.003,0.179,0.005,0.268
	C66.594,81.524,66.594,81.524,71.954,81.489 M53.454,76.36c0.039,6.456-0.588,5.621,5.814,5.774c0.089,0.003,0.181,0,0.268,0
	c5.396-0.008,5.55-0.185,4.973-5.696c-0.537-5.128-0.564-4.855-5.774-5.378C52.546,70.437,53.574,71.512,53.454,76.36
	 M46.435,82.123c4.642,0.263,4.644,0.264,5.099-4.405c0.104-1.07,0.235-2.136,0.263-3.206c0.081-3.311-0.312-3.702-3.599-3.746
	c-6.28-0.078-6.28-0.078-6.455,6.229C41.605,81.853,41.605,81.853,46.435,82.123 M71.189,67.961
	c0.004,0.041,0.008,0.083,0.011,0.127c1.782-0.167,3.576-0.25,5.333-0.541c0.59-0.097,1.38-0.604,1.589-1.127
	c2.203-5.448-0.336-8.709-6.099-7.932c-5.895,0.796-5.807,0.796-5.641,6.757c0.062,2.148,0.895,2.92,2.925,2.728
	C69.93,67.911,70.562,67.961,71.189,67.961 M58.68,68.445c1.678,0,2.783,0.153,3.81-0.059c0.645-0.135,1.651-0.809,1.671-1.273
	c0.095-2.313,0.068-4.658-0.274-6.94c-0.085-0.582-1.415-1.26-2.253-1.395c-1.57-0.25-3.206-0.034-4.8-0.185
	c-3.595-0.335-3.902-0.106-3.937,3.441C52.833,68.297,53.096,68.564,58.68,68.445 M91.264,75.699c0,1.075-0.222,2.212,0.072,3.197
	c0.225,0.76,0.995,1.757,1.688,1.918c5.498,1.267,7.507-0.418,7.384-5.962c-0.005-0.269-0.032-0.538-0.007-0.806
	c0.221-2.199-0.76-3.18-2.971-3.52C91.821,69.671,91.231,70.087,91.264,75.699 M89.111,75.744c0.031-5.083,0.031-5.083-4.936-4.988
	c-0.179,0.001-0.359-0.01-0.537,0.01c-1.367,0.164-3.216-0.226-3.444,1.743c-0.323,2.797-0.734,5.694,1.049,8.256
	c0.082,0.119,0.325,0.126,0.496,0.182C86.382,82.456,89.082,80.551,89.111,75.744 M102.665,75.518
	c-0.042,0.823-0.166,1.811-0.107,2.786c0.035,0.581,0.34,1.642,0.546,1.647c2.54,0.074,5.085,0.045,7.621-0.119
	c0.307-0.021,0.696-0.991,0.794-1.561c0.165-0.964,0.156-1.958,0.172-2.942c0.075-4.333-0.159-4.588-4.447-4.568
	C102.983,70.777,102.137,70.078,102.665,75.518 M107,67.943c0-0.06,0-0.124,0-0.187c0.533,0,1.09-0.095,1.598,0.019
	c2.485,0.551,3.268-0.64,3.101-2.903c-0.038-0.533,0.018-1.073,0.025-1.61c0.046-3.384-0.137-3.59-3.521-3.946
	c-6.53-0.687-6.619-0.55-6.2,6.066c0.116,1.805,0.784,2.646,2.589,2.569C105.392,67.916,106.195,67.943,107,67.943 M42.649,63.527
	c0,0.629,0.103,1.272-0.02,1.873c-0.437,2.136,0.634,2.644,2.513,2.642c7.291-0.01,6.016,0.645,6.177-6.075
	c0.013-0.448-0.029-0.892-0.04-1.337c-0.037-1.392-0.72-2.05-2.135-2.217C44.123,57.833,42.613,58.991,42.649,63.527 M79.947,62.865
	c0.164,4.939,0.164,4.939,5.843,4.725c3.226-0.124,3.334-0.293,3.207-5.135c-0.088-3.357-1.186-4.104-5.719-3.886
	C80.14,58.718,79.823,59.131,79.947,62.865 M95.714,68.065c1.362-0.561,3.675-0.874,3.896-1.729
	c0.534-2.067,0.391-4.465-0.149-6.556c-0.151-0.582-2.657-0.551-4.081-0.796c-0.176-0.034-0.354-0.039-0.533-0.051
	c-4.173-0.324-4.536,0.043-4.096,4.127C91.22,67.404,91.22,67.404,95.714,68.065"/>
<path fill="#231F20" d="M90.726,38.839c-7.861,0.585-15.718,1.263-23.588,1.702c-2.653,0.147-5.355-0.201-8.003-0.567
	c-0.741-0.101-1.36-1.082-2.034-1.655c0.838-0.507,1.666-1.434,2.52-1.457c6.256-0.189,12.519-0.105,18.773-0.292
	c5.717-0.167,11.427-0.57,17.14-0.858c0.537-0.026,1.174-0.153,1.59,0.079c0.697,0.388,1.256,1.021,1.872,1.554
	c-0.603,0.544-1.169,1.495-1.819,1.559c-2.133,0.197-4.295,0.073-6.447,0.073C90.729,38.93,90.728,38.884,90.726,38.839"/>
</svg>
