<?xml version="1.0" encoding="utf-8"?>
<!-- Generator: Adobe Illustrator 15.1.0, SVG Export Plug-In . SVG Version: 6.00 Build 0)  -->
<!DOCTYPE svg PUBLIC "-//W3C//DTD SVG 1.1//EN" "http://www.w3.org/Graphics/SVG/1.1/DTD/svg11.dtd">
<svg version="1.1" id="Layer_1" xmlns="http://www.w3.org/2000/svg" xmlns:xlink="http://www.w3.org/1999/xlink" x="0px" y="0px"
	 width="160px" height="132px" viewBox="0 0 160 132" enable-background="new 0 0 160 132" xml:space="preserve">
<path fill="#231F20" d="M156.583,98.34c-0.799-0.192-1.602-0.469-2.404-0.481c-3.879-0.058-7.77-0.051-11.65-0.052
	c-0.822-0.003-1.637,0.116-2.457,0.104c-12.032-0.24-24.073-0.481-36.104-0.731c-0.718-0.02-1.432-0.163-2.156-0.238
	c-0.098-4.083-0.126-7.907-0.287-11.733c-0.257-6.211-0.74-12.419-0.854-18.635c-0.105-5.866,0.214-11.749,0.222-17.621
	c0.009-3.419-0.145-6.831-0.354-10.235c-0.111-1.807-0.709-2.418-2.515-2.656c-2.918-0.391-5.847-0.623-8.766-0.917
	c-1.205-0.118-2.412-0.217-3.514-0.321c-0.354-0.858-0.782-1.467-0.859-2.11c-0.142-1.382-1.074-1.796-2.182-2.061
	c-0.459-0.116-0.938-0.207-1.41-0.209c-5.124-0.109-10.256-0.598-15.329,0.501c-1.025,0.229-1.991,0.681-2.811,0.964
	c-0.121,4.491-0.342,8.448-0.308,12.416c0.054,4.979-0.478,9.959,0.191,14.933c0.15,1.071-0.013,2.18-0.042,3.276
	c-0.016,0.888-0.085,1.782-0.035,2.663c0.193,3.688,0.5,7.367,0.607,11.053c0.162,5.538,0.2,11.072,0.268,16.605
	c0.015,1.568-0.402,1.963-1.932,1.941c-0.405-0.001-0.811-0.062-1.225-0.081c-2.518-0.162-5.041-0.402-7.56-0.479
	c-2.114-0.066-4.223,0.075-6.337,0.066c-2.729-0.009-5.463-0.102-8.203-0.091c-4.097,0.002-8.187,0.051-12.286,0.111
	c-2.457,0.037-4.916,0.186-7.37,0.149c-2.794-0.038-5.592-0.237-8.384-0.341c-0.614-0.027-1.228,0.062-1.843,0.083
	c-1.57,0.06-3.141,0.188-4.696,0.136c-1.01-0.037-1.723,0.159-2.173,1.396c0.427,0.293,0.867,0.797,1.373,0.886
	c1.335,0.226,2.701,0.348,4.05,0.375c1.774,0.029,3.544-0.113,5.309-0.103c3.013,0.026,6.02,0.191,9.032,0.159
	c3.269-0.043,6.541-0.247,9.801-0.375c0.208-0.016,0.415,0.011,0.623,0.017c4.501,0.121,9.001,0.254,13.501,0.355
	c6.285,0.144,12.575,0.067,18.843,0.775c3.182,0.359,6.414,0.287,9.62,0.431c4.3,0.201,8.59,0.449,12.881,0.623
	c5.054,0.194,10.116,0.189,15.138,0.986c1.87,0.295,3.808,0.197,5.714,0.239c2.651,0.052,5.306,0.031,7.966,0.103
	c5.859,0.159,11.716,0.43,17.576,0.515c6.627,0.094,13.256,0.018,19.884,0.019c1.03-0.001,2.049,0.045,3.078,0.008
	c0.72-0.027,1.386-0.255,1.447-1.133C157.711,98.88,157.239,98.499,156.583,98.34 M67.383,93.864
	c-0.185-2.205-0.474-4.488-0.553-6.783c-0.105-3.075,0.034-6.147-0.071-9.219c-0.123-3.819-0.398-7.631-0.597-11.441
	c-0.049-0.954-0.032-1.907-0.071-2.863c-0.074-2.181-0.157-4.355-0.24-6.53c-0.021-0.614-0.118-1.231-0.11-1.845
	c0.119-6.482,0.238-12.975,0.375-19.469c0.006-0.594,0.109-1.196,0.186-1.977c1.837-0.176,3.583-0.499,5.329-0.486
	c3.068,0.007,6.141,0.232,9.207,0.324c1.001,0.027,1.315,0.574,1.303,1.442c-0.077,4.917,0.224,9.815,0.035,14.738
	c-0.245,6.539-0.355,13.106,0.25,19.656c0.277,2.991,0.168,6.01,0.229,9.013c0.05,3.005,0.082,6.009,0.152,9.004
	c0.02,0.682,0.218,1.356,0.257,2.028c0.094,1.418,0.131,2.836,0.195,4.291C80.904,94.562,71.046,94.585,67.383,93.864
	 M98.364,94.826l-11.972-0.325c-0.197-2.884-0.474-5.525-0.536-8.182c-0.14-5.263-0.13-10.521-0.242-15.782
	c-0.081-4.299-0.125-8.615-0.434-12.9c-0.304-4.172-0.237-8.317,0.188-12.477c0.178-1.676-0.107-3.403-0.146-5.112
	c-0.018-0.728,0.029-1.454,0.053-2.321c3.459,0.245,6.637,0.396,9.811,0.728c2.006,0.216,2.59,0.948,2.613,3.187
	c0.031,3.014-0.152,6.02-0.149,9.023c0.026,6.695,0.109,13.391,0.173,20.087c0.038,3.136,0.057,6.28,0.161,9.419
	c0.141,4.231,0.355,8.469,0.534,12.704C98.438,93.47,98.386,94.062,98.364,94.826"/>
<path fill="#00ADDD" d="M98.364,94.826l-11.972-0.325c-0.197-2.884-0.474-5.525-0.536-8.182c-0.14-5.263-0.13-10.521-0.242-15.782
	c-0.081-4.299-0.125-8.615-0.434-12.9c-0.304-4.172-0.237-8.317,0.188-12.477c0.178-1.676-0.107-3.403-0.146-5.112
	c-0.018-0.728,0.029-1.454,0.053-2.321c3.459,0.245,6.637,0.396,9.811,0.728c2.006,0.216,2.59,0.948,2.613,3.187
	c0.031,3.014-0.152,6.02-0.149,9.023c0.026,6.695,0.109,13.391,0.173,20.087c0.038,3.136,0.057,6.28,0.161,9.419
	c0.141,4.231,0.355,8.469,0.534,12.704C98.438,93.47,98.386,94.062,98.364,94.826"/>
<path fill="#231F20" d="M65.463,44.516c-0.572-1.195-1.549-1.732-2.725-1.886c-2.06-0.263-4.131-0.509-6.198-0.545
	c-1.935-0.034-3.887-0.087-5.794,0.569c-0.943,0.323-2.019,0.295-3.038-0.053c0.039-1.444,0.093-2.775,0.112-4.105
	c0.047-3.502-1.867-5.715-4.881-7.024c-2.258-0.986-3.612-0.495-4.752,1.513c-1.637,2.903-2.315,6-1.942,9.323
	c0.054,0.465,0.069,0.937,0.104,1.363c-0.907,0.372-1.708,0.651-2.464,1.02c-2.363,1.153-4.399,2.778-6.518,4.328
	c-2.515,1.848-4.156,4.22-5.513,6.913c-0.419,0.847-0.479,1.639,0.143,2.382c1.088,1.294,2.099,2.681,3.343,3.82
	c1.105,1.012,2.483,1.729,3.745,2.577c0.603,0.402,0.96,0.837,0.768,1.663c-0.539,2.432-0.926,4.904-1.511,7.323
	c-0.775,3.199-1.749,6.346-2.496,9.544c-0.694,2.955-1.312,5.951-1.791,8.951c-0.295,1.84,1.296,3.744,3.119,4.096
	c1.474,0.277,3.229-0.393,3.764-1.626c0.604-1.39,1.135-2.84,1.505-4.303c0.583-2.362,0.951-4.79,1.497-7.162
	c0.823-3.558,1.722-7.103,2.592-10.647c0.244-0.976,0.515-1.94,0.882-3.301c1.229,2.008,1.942,4.283,2.096,6.63
	c0.246,3.83,0.453,7.67,0.642,11.508c0.146,2.96,0.99,5.626,3.092,7.808c1.158,1.201,3.58,1.701,4.901,1.039
	c1.818-0.905,2.671-2.42,2.341-4.479c-0.64-3.973-1.249-7.955-2.077-11.886c-0.904-4.283-2.387-8.459-2.276-12.912
	c0.109-4.33,0.178-8.662,0.418-12.979c0.109-1.943,0.705-2.323,2.655-2.525c2.662-0.288,5.348-0.478,7.994-0.907
	c2.219-0.357,4.414-0.9,6.557-1.56C65.669,48.384,66.319,46.324,65.463,44.516 M37.841,40.491c0.323-1.483,0.703-2.954,1.084-4.417
	c0.369-1.463,1.672-1.796,2.971-2.347c1.333,0.63,2.641,1.167,3.061,2.726c0.522,1.998,0.722,4.004-0.318,5.864
	c-0.863,1.526-2.328,2.278-4.036,2.553c-0.92,0.146-1.547-0.41-1.935-1.089C38.09,42.783,37.573,41.704,37.841,40.491
	 M61.398,47.126c-0.77,0.177-1.541,0.411-2.326,0.503c-3.21,0.347-6.43,0.638-9.639,0.976c-0.844,0.091-1.696,0.219-2.514,0.423
	c-1.568,0.383-2.558,1.367-2.8,3.012c-0.231,1.561-0.557,3.128-0.648,4.703c-0.274,4.941-0.229,9.89,0.384,14.806
	c0.279,2.226,1.005,4.398,1.435,6.61c0.87,4.481,1.664,8.985,2.524,13.465c0.181,0.949-0.176,1.603-0.931,1.968
	c-0.738,0.349-1.351,0.002-1.91-0.628c-1.135-1.306-1.756-2.795-1.861-4.478c-0.237-3.831-0.358-7.678-0.624-11.508
	c-0.197-2.811-0.803-5.556-2.017-8.119c-0.618-1.28-1.562-2.306-2.758-3.133c-2.16,0.658-3.234,1.999-3.591,4.303
	c-0.49,3.121-1.395,6.186-2.101,9.271c-0.771,3.321-1.568,6.643-2.262,9.976c-0.423,2.019-0.581,2.6-1.688,4.062
	c-0.982-0.301-1.276-0.971-1.123-1.739c0.385-2.021,0.835-4.036,1.343-6.026c0.316-1.236,0.84-2.413,1.156-3.641
	c0.715-2.7,1.375-5.419,2.024-8.141c0.255-1.069,0.436-2.151,0.655-3.23c0.294-1.483,0.6-2.968,0.893-4.414
	c1.908-0.731,3.335-1.825,3.99-3.668c0.469-1.318,0.657-2.644-0.695-3.625c-0.583-0.422-0.588-0.933-0.485-1.609
	c0.214-1.316,0.336-2.663,0.354-3.994c0.019-1.785-1.313-2.765-2.866-1.938c-1.753,0.935-3.473,2.041-4.181,4.135
	c-0.308,0.918-0.393,1.633,0.545,2.216c1.179,0.739,2.278,1.61,3.498,2.276c1.153,0.626,1.548,1.071,1.167,1.864
	c-0.562,1.193-2.196,1.95-3.019,1.287c-1.894-1.524-3.72-3.132-5.547-4.73c-0.875-0.76-0.833-1.637-0.333-2.643
	c1.019-2.041,2.634-3.506,4.443-4.762c2.493-1.726,5.057-3.354,7.423-4.907c0.402,0.096,0.544,0.102,0.637,0.169
	c2.186,1.56,4.111,1.613,6.342,0.105c0.673-0.454,1.283-0.636,2.168-0.573c2.347,0.138,4.738,0.402,7.04-0.566
	c1.375-0.575,2.848-0.508,4.286,0.023c0.561,0.203,1.193,0.24,1.795,0.304c0.903,0.099,1.809,0.152,2.75,0.234
	C62.442,46.587,62.082,46.975,61.398,47.126 M33.455,54.668l-0.073,2.67c-0.701-0.613-1.184-0.863-1.392-1.255
	C31.764,55.68,32.258,55.24,33.455,54.668"/>
<path fill="#231F20" d="M141.904,59.183c-1.211-2.762-2.72-5.221-5.13-7.201c-2.024-1.661-3.979-3.395-6.276-4.674
	c-0.734-0.407-1.51-0.73-2.404-1.151c0.058-0.423,0.099-0.895,0.178-1.354c0.562-3.3,0.041-6.43-1.435-9.414
	c-1.03-2.067-2.356-2.633-4.664-1.77c-3.08,1.144-5.111,3.25-5.252,6.75c-0.047,1.331-0.072,2.662-0.111,4.105
	c-1.028,0.292-2.113,0.264-3.039-0.111c-1.868-0.759-3.82-0.812-5.753-0.882c-2.066-0.076-4.147,0.058-6.22,0.21
	c-1.182,0.09-2.187,0.572-2.812,1.736c-0.955,1.759-0.426,3.85,1.453,4.553c2.104,0.773,4.275,1.437,6.463,1.911
	c2.618,0.573,5.292,0.908,7.942,1.339c1.927,0.307,2.501,0.719,2.505,2.666c0.007,4.324-0.159,8.653-0.286,12.983
	c-0.129,4.452-1.836,8.542-2.96,12.771c-1.04,3.882-1.875,7.824-2.718,11.757c-0.441,2.037,0.328,3.596,2.086,4.6
	c1.282,0.73,3.729,0.363,4.958-0.774c2.209-2.063,3.195-4.682,3.503-7.629c0.404-3.821,0.812-7.644,1.264-11.455
	c0.28-2.335,1.114-4.568,2.451-6.507c0.293,1.378,0.522,2.356,0.703,3.344c0.687,3.588,1.383,7.175,2.012,10.771
	c0.417,2.398,0.662,4.841,1.116,7.233c0.282,1.481,0.741,2.956,1.261,4.378c0.466,1.259,2.182,2.022,3.67,1.828
	c1.839-0.253,3.53-2.068,3.336-3.924c-0.315-3.021-0.763-6.043-1.304-9.032c-0.574-3.235-1.374-6.431-1.968-9.665
	c-0.453-2.448-0.705-4.94-1.121-7.395c-0.137-0.836,0.232-1.25,0.856-1.621c1.305-0.776,2.719-1.417,3.879-2.368
	c1.304-1.07,2.389-2.401,3.545-3.632C142.292,60.845,142.276,60.052,141.904,59.183 M119.897,38.484
	c0.495-1.535,1.829-2,3.196-2.557c1.267,0.619,2.548,1.023,2.848,2.504c0.291,1.481,0.59,2.972,0.833,4.47
	c0.203,1.223-0.372,2.273-1.003,3.238c-0.424,0.66-1.08,1.18-1.991,0.985c-1.689-0.366-3.112-1.198-3.881-2.768
	C118.95,42.444,119.26,40.45,119.897,38.484 M137.859,61.396c-1.92,1.497-3.831,3.002-5.805,4.421
	c-0.855,0.618-2.449-0.226-2.944-1.448c-0.327-0.812,0.091-1.235,1.276-1.797c1.253-0.598,2.399-1.408,3.615-2.083
	c0.959-0.532,0.913-1.25,0.655-2.183c-0.585-2.131-2.252-3.328-3.942-4.355c-1.505-0.912-2.898-0.003-2.975,1.779
	c-0.057,1.33,0.002,2.681,0.137,4.007c0.065,0.681,0.032,1.19-0.562,1.581c-1.413,0.906-1.298,2.239-0.9,3.582
	c0.554,1.875,1.92,3.045,3.785,3.879c0.216,1.46,0.438,2.957,0.655,4.455c0.158,1.092,0.279,2.18,0.478,3.261
	c0.501,2.752,1.012,5.505,1.579,8.238c0.251,1.245,0.708,2.447,0.958,3.699c0.398,2.013,0.739,4.052,1.025,6.089
	c0.102,0.778-0.228,1.431-1.227,1.677c-1.026-1.521-1.151-2.108-1.465-4.147c-0.513-3.364-1.13-6.725-1.709-10.083
	c-0.549-3.12-1.285-6.228-1.606-9.371c-0.23-2.318-1.23-3.716-3.343-4.49c-1.248,0.759-2.247,1.732-2.922,2.978
	c-1.362,2.496-2.115,5.204-2.465,7.999c-0.463,3.812-0.802,7.644-1.246,11.457c-0.196,1.676-0.897,3.129-2.101,4.371
	c-0.592,0.597-1.215,0.91-1.931,0.522c-0.735-0.406-1.066-1.077-0.833-2.015c1.103-4.426,2.138-8.884,3.249-13.31
	c0.55-2.186,1.401-4.315,1.793-6.523c0.877-4.875,1.19-9.815,1.183-14.763c-0.005-1.577-0.245-3.16-0.393-4.731
	c-0.143-1.657-1.079-2.692-2.623-3.159c-0.814-0.248-1.649-0.423-2.497-0.558c-3.185-0.512-6.384-0.975-9.571-1.496
	c-0.779-0.135-1.528-0.411-2.296-0.628c-0.674-0.189-1.013-0.595-0.859-1.431c0.946-0.032,1.862-0.034,2.771-0.086
	c0.604-0.031,1.228-0.032,1.798-0.206c1.467-0.452,2.94-0.439,4.281,0.21c2.256,1.092,4.647,0.958,7,0.945
	c0.896-0.013,1.485,0.201,2.134,0.691c2.146,1.625,4.071,1.676,6.338,0.238c0.097-0.064,0.238-0.061,0.646-0.134
	c2.278,1.676,4.75,3.443,7.146,5.301c1.739,1.352,3.282,2.903,4.181,4.995C138.771,59.805,138.766,60.685,137.859,61.396
	 M130.315,59.964l0.072-2.669c1.174,0.636,1.633,1.101,1.396,1.492C131.556,59.166,131.059,59.389,130.315,59.964"/>
</svg>
