<?xml version="1.0" encoding="utf-8"?>
<!-- Generator: Adobe Illustrator 15.1.0, SVG Export Plug-In . SVG Version: 6.00 Build 0)  -->
<!DOCTYPE svg PUBLIC "-//W3C//DTD SVG 1.1//EN" "http://www.w3.org/Graphics/SVG/1.1/DTD/svg11.dtd">
<svg version="1.1" id="Layer_1" xmlns="http://www.w3.org/2000/svg" xmlns:xlink="http://www.w3.org/1999/xlink" x="0px" y="0px"
	 width="160px" height="132px" viewBox="0 0 160 132" enable-background="new 0 0 160 132" xml:space="preserve">
<path fill="#231F20" d="M158.055,96.491c-0.058-0.219-0.47-0.409-0.759-0.474c-2.452-0.553-4.951-0.625-7.455-0.557
	c-4.923,0.13-9.832,0.013-14.742-0.343c-3.065-0.215-6.143-0.266-9.213-0.299c-6.488-0.071-12.971-0.08-19.451-0.13
	c-0.48,0-0.964-0.13-1.613-0.224c0.031-1.127,0.058-2.118,0.091-3.119c0.261-8.102,0.529-16.197,0.783-24.298
	c0.157-5.255,0.271-10.507,0.441-15.762c0.056-1.84-0.153-2.089-1.98-1.825c-1.157,1.927-0.905,4.193-1.198,6.304
	c-0.276,1.974-0.04,4.015,0.004,6.024c0.215,10.014-0.278,20.011-0.792,30.002c-0.044,0.876-0.048,1.751-0.075,2.758
	c-2.418,0.032-4.636,0.074-6.861,0.085c-0.66,0.003-0.805-0.494-0.812-1.044c-0.064-4.295-0.137-8.6-0.158-12.9
	c-0.004-0.882,0.264-1.771,0.268-2.653c0.013-2.293-0.119-4.581-0.079-6.867c0.126-6.203,0.302-12.409,0.47-18.61
	c0.017-0.59,0.101-1.172,0.159-1.767c2.41-0.221,4.619-0.466,6.84-0.594c0.751-0.041,1.243-0.236,1.242-0.987
	c0.005-0.702-0.525-1.126-1.169-1.199c-0.659-0.067-1.336,0.047-2.003,0.077c-1.608,0.076-3.209,0.15-4.976,0.228
	c-0.069-0.752-0.186-1.346-0.163-1.937c0.079-1.562,0.211-3.121,0.336-4.681c0.13-1.753-0.442-2.151-2.038-1.458
	c-0.444,0.197-0.954,0.321-1.434,0.329c-3.114,0.048-6.235,0.053-9.521,0.069c-0.01-0.431-0.015-1.03-0.033-1.634
	c-0.041-1.057-0.068-2.122-0.165-3.172c-0.031-0.363-0.155-0.9-0.408-1.033c-0.98-0.505-1.993-1.13-3.046-1.243
	c-2.376-0.259-4.793-0.262-7.196-0.314c-1.945-0.044-3.908,0.083-5.851-0.018c-1.713-0.096-1.952-0.018-1.963,1.705
	c-0.019,2.23,0.018,4.469,0.062,6.701c0.027,1.542-0.117,1.754-1.622,1.894c-0.278,0.021-0.556,0.007-0.834,0.013
	c-1.956,0.092-3.91,0.178-5.865,0.277c-1.113,0.054-1.953,0.545-2.2,1.693c-0.199,0.911-0.384,1.858-0.381,2.789
	c0.01,3.238,0.131,6.473,0.154,9.705c0.017,1.953-0.133,3.916-0.11,5.868c0.074,5.242,0.111,10.481,0.053,15.727
	c-0.047,4.293,0.178,8.592,0.304,12.889c0.042,1.302-0.235,1.76-1.495,1.844c-0.829,0.062-1.673-0.045-2.505-0.131
	c-1.054-0.105-2.104-0.334-3.159-0.377c-4.295-0.191-8.599-0.392-12.897-0.475c-3.688-0.063-7.376-0.095-11.058,0.076
	c-3.005,0.141-5.993,0.616-8.989,0.931c-3.219,0.336-6.438,0.667-9.658,1.003c-0.328,0.032-0.709,0.028-0.971,0.195
	c-0.289,0.188-0.64,0.552-0.641,0.845c-0.001,0.299,0.327,0.779,0.608,0.864c0.62,0.19,1.32,0.292,1.967,0.241
	c3.28-0.278,6.555-0.607,9.83-0.936c3.003-0.301,5.991-0.817,8.995-0.909c4.346-0.134,8.708-0.05,13.054,0.074
	c3.91,0.112,7.814,0.372,11.712,0.637c3.565,0.244,7.116,0.736,10.685,0.854c4.749,0.161,9.498,0.033,14.249,0.1
	c7.203,0.091,14.405,0.257,21.615,0.343c2.285,0.026,4.569-0.17,6.854-0.143c0.784,0.017,1.583,0.585,2.355,0.537
	c0.759-0.05,1.48-0.808,2.239-0.836c4.021-0.14,8.046-0.232,12.061-0.187c5.98,0.064,11.966,0.226,17.944,0.402
	c2.848,0.083,5.688,0.356,8.536,0.425c2.34,0.051,4.692-0.088,7.034-0.1c1.507-0.002,3.019,0.13,4.527,0.087
	c0.577-0.012,1.168-0.281,1.697-0.551C157.902,97.188,158.11,96.721,158.055,96.491 M55.478,94.28
	c-0.058-1.453-0.039-2.945-0.179-4.416c-0.426-4.521-0.109-9.043-0.043-13.557c0.046-3.237,0.155-6.479,0.034-9.714
	c-0.182-4.849-0.127-9.69-0.065-14.54c0.014-1.555-0.166-3.117-0.137-4.672c0.028-1.32,0.134-1.401,1.458-1.524
	c1.992-0.182,3.99-0.316,5.988-0.449c0.257-0.015,0.524,0.119,1.001,0.228c-0.566,16.266,0.565,32.5,0.444,48.762
	C62.697,94.784,58.252,94.725,55.478,94.28 M66.586,94.373c-0.069-0.28-0.2-0.595-0.211-0.915c-0.09-3.338-0.174-6.682-0.244-10.027
	c-0.068-3.35-0.131-6.694-0.186-10.046c-0.056-3.836-0.084-7.673-0.14-11.517c-0.023-1.224-0.163-2.45-0.137-3.673
	c0.037-1.61,0.234-3.224,0.27-4.836c0.077-3.07,0.125-6.132,0.118-9.203c-0.01-2.446-0.125-4.901-0.176-7.35
	c-0.01-0.382,0.049-0.769,0.089-1.241c4.41-0.673,8.771,0.196,13.233,0.157c0.579,0.697,0.436,1.63,0.44,2.486
	c0.021,3.795-0.039,7.593-0.017,11.387c0.052,7.318,0.195,14.632,0.184,21.941c-0.003,6.254-0.193,12.511-0.236,18.763
	c-0.01,1.369,0.252,2.744,0.406,4.221C77.281,95.054,68.995,94.975,66.586,94.373 M82.088,94.376
	c0.02-16.91,0.041-33.851,0.064-50.867c3.312-0.925,6.704-0.207,10.2-1.038c0.225,8.866-0.223,17.49-0.366,26.11
	c-0.137,8.586-0.208,17.178-0.305,25.868C89.871,94.894,83.715,94.853,82.088,94.376"/>
<path fill="#00ADDD" d="M91.682,94.449c-1.811,0.444-7.967,0.401-9.594-0.073c0.02-16.91,0.041-33.852,0.064-50.868
	c3.312-0.925,6.704-0.208,10.201-1.036c0.224,8.865-0.224,17.49-0.367,26.109C91.85,77.165,91.778,85.759,91.682,94.449"/>
<path fill="#00ADDD" d="M79.978,94.521c-2.697,0.533-10.983,0.454-13.392-0.147c-0.069-0.28-0.2-0.595-0.212-0.915
	c-0.09-3.338-0.173-6.682-0.243-10.027c-0.069-3.35-0.131-6.694-0.186-10.046c-0.057-3.836-0.084-7.673-0.141-11.517
	c-0.022-1.224-0.163-2.45-0.136-3.673c0.036-1.61,0.233-3.224,0.269-4.836c0.077-3.07,0.125-6.132,0.118-9.203
	c-0.01-2.446-0.125-4.901-0.176-7.35c-0.01-0.382,0.049-0.769,0.089-1.241c4.41-0.673,8.771,0.196,13.233,0.157
	c0.579,0.697,0.436,1.63,0.44,2.486c0.021,3.795-0.039,7.593-0.017,11.387c0.052,7.318,0.195,14.632,0.184,21.941
	c-0.002,6.254-0.192,12.511-0.238,18.763C79.562,91.669,79.824,93.044,79.978,94.521"/>
<path fill="#231F20" d="M54.417,93.168c-0.424-0.754-0.713-1.638-1.604-2.1c-0.514-0.271-0.94-0.721-1.402-1.095
	c-0.354-0.295-0.574-0.619-0.332-1.112c0.148-0.31,0.206-0.655,0.326-0.979c0.72-1.966,1.489-3.92,2.147-5.903
	c0.439-1.329,0.449-2.74-0.113-4.033c-0.458-1.048-1.07-2.051-1.732-2.993c-0.643-0.905-0.774-1.975-1.101-2.969
	c-0.123-0.372,0.001-0.819,0.014-1.298c0.857-0.116,1.576-0.201,2.295-0.313c1.025-0.161,1.716-0.78,2.082-1.71
	c0.352-0.9,0.004-1.681-0.667-2.316c-0.494-0.458-1.003-0.904-1.621-1.455c0.894-0.922,1.182-2.088,1.305-3.28
	c0.302-2.917-0.581-5.499-2.402-7.771c-0.732-0.909-0.767-0.938-0.034-1.835c0.511-0.632,0.745-1.335,0.787-2.119
	c0.105-1.81-0.465-3.367-1.736-4.662c-0.48-0.484-1.081-0.862-1.491-1.401c-0.517-0.667-1.039-0.632-1.674-0.289
	c-1.573,0.854-2.436,2.207-2.809,3.926c-0.333,1.513-0.221,2.99,0.262,4.434c0.205,0.646,0.004,1.119-0.31,1.68
	c-0.546,0.958-0.978,1.989-1.429,2.997c-0.192,0.427-0.316,0.882-0.487,1.322c-0.604,1.505-1.236,3.01-1.812,4.529
	c-0.351,0.908-0.402,1.804,0.248,2.676c0.67,0.9,0.644,1.122-0.179,1.996c-1.388,1.478-1.857,3.16-1.236,5.081
	c0.481,1.471,0.688,2.818-0.853,3.805c-0.071,0.046-0.101,0.144-0.152,0.212c-0.809,1.151-1.653,2.283-2.435,3.448
	c-2.513,3.748-5.738,6.891-8.57,10.365c-0.403,0.496-0.894,0.92-1.384,1.318c-1.136,0.914-0.946,2.601,0.408,3.192
	c0.7,0.312,1.408,0.602,2.138,0.823c0.482,0.151,1.014,0.249,1.509,0.221c1.497-0.098,2.994-0.245,4.479-0.427
	c0.767-0.091,1.528-0.245,2.264-0.453c0.854-0.25,1.233-1.169,0.708-1.829c-0.57-0.731-1.282-1.354-1.932-2.025
	c-0.223-0.229-0.446-0.457-0.797-0.814c3.886-2.924,6.983-6.433,9.839-10.261c1.079,0.967,1.432,2.055,1.253,3.237
	c-0.458,3.017-1.3,5.939-2.467,8.758c-0.208,0.509-0.37,1.06-0.439,1.607c-0.117,0.976,0.531,1.91,1.478,2.118
	c0.532,0.117,1.102,0.126,1.651,0.1c1.413-0.065,2.819-0.159,4.226-0.287c0.982-0.093,1.958-0.205,2.922-0.396
	C54.445,94.712,54.86,93.953,54.417,93.168 M47.532,45.377c0.47,0.374,0.876,0.733,1.328,1.037c0.941,0.637,1.367,1.621,1.701,2.624
	c0.38,1.115-0.792,3.037-1.949,3.198c-0.356,0.053-0.844-0.141-1.128-0.391c-0.842-0.719-1.262-1.646-1.23-2.806
	C46.296,47.68,46.628,46.458,47.532,45.377 M42.848,62.122c0.696-1.607,1.345-3.23,2.014-4.852c0.32-0.79,0.634-1.587,0.947-2.384
	c0.193-0.495,0.527-0.729,1.089-0.7c0.548,0.028,1.113-0.077,1.661-0.004c0.354,0.044,0.73,0.235,1.002,0.465
	c1.086,0.925,1.628,2.226,2.009,3.529c0.464,1.604,0.732,3.272,0.054,4.928c-0.155,0.378-0.223,0.799-0.369,1.337
	c-1.125-0.517-2.199-0.935-3.205-1.469c-0.747-0.403-0.924-1.053-0.567-1.878c0.214-0.501,0.588-0.942,0.803-1.452
	c0.163-0.37,0.293-0.824,0.234-1.209c-0.143-0.885-0.886-1.163-1.467-0.492c-1.005,1.162-1.941,2.416-1.793,4.115
	c0.118,1.295,0.681,2.276,1.904,2.838c1.509,0.694,3.019,1.394,4.536,2.095c0.542,0.246,1.092,0.476,1.271,1.293
	c-1.197,0.572-2.423,0.449-3.612,0.236c-2.324-0.425-4.106-1.82-5.773-3.388C42.698,64.292,42.329,63.331,42.848,62.122
	 M41.171,81.707c-1.92,2.61-4.448,4.61-6.873,6.692c-0.946,0.801-1.965,1.482-2.659,2.748c0.626,0.227,1.278,0.495,1.948,0.679
	c0.675,0.192,1.28,0.425,1.715,1.324c-2.782,0.37-5.381,1.154-7.99-0.535c5.145-5.237,9.656-10.955,14.013-16.847
	c1.047,0.606,1.605,1.503,2.253,2.508C42.782,79.414,42,80.574,41.171,81.707 M51.04,93.425c-1.622,0.075-3.249,0.128-4.876,0.182
	c-0.8,0.026-1.028-0.253-0.771-1.03c0.515-1.584,1.051-3.16,1.622-4.722c0.825-2.25,1.117-4.571,1.015-6.949
	c-0.047-1.085-0.821-1.773-1.439-2.514c-1.036-1.25-2.186-2.413-3.236-3.658c-1.017-1.224-1.315-2.772-1.727-4.251
	c-0.19-0.666,0.786-2.348,1.432-2.58c0.267-0.098,0.745-0.043,0.934,0.137c1.219,1.172,2.725,1.76,4.29,2.25
	c0.076,0.023,0.122,0.113,0.21,0.205c-0.004,0.14,0.012,0.307-0.021,0.474c-0.337,1.706,0.171,3.207,1.099,4.621
	c0.541,0.822,0.967,1.724,1.551,2.51c0.978,1.334,0.856,2.77,0.394,4.172c-0.689,2.115-1.489,4.198-2.303,6.269
	c-0.812,2.049-0.832,2.007,1.053,3.196c0.527,0.327,0.937,0.847,1.506,1.369C51.454,93.248,51.248,93.416,51.04,93.425"/>
<path fill="#231F20" d="M131.796,94.181c-0.476-0.422-0.935-0.873-1.311-1.391c-2.639-3.621-5.689-6.936-7.996-10.812
	c-0.718-1.208-1.499-2.383-2.253-3.577c-0.046-0.07-0.071-0.168-0.132-0.221c-1.486-1.066-1.206-2.4-0.653-3.845
	c0.731-1.886,0.354-3.589-0.959-5.141c-0.774-0.917-0.783-1.14-0.063-2.003c0.695-0.835,0.687-1.732,0.392-2.656
	c-0.494-1.55-1.043-3.086-1.563-4.623c-0.147-0.449-0.252-0.909-0.416-1.345c-0.401-1.033-0.771-2.083-1.265-3.07
	c-0.289-0.577-0.463-1.062-0.218-1.695c0.552-1.416,0.752-2.884,0.502-4.412c-0.287-1.738-1.075-3.136-2.594-4.073
	c-0.613-0.377-1.133-0.441-1.686,0.197c-0.438,0.517-1.06,0.861-1.564,1.32c-1.34,1.222-1.992,2.747-1.993,4.561
	c0.007,0.785,0.196,1.499,0.678,2.158c0.685,0.936,0.648,0.962-0.133,1.831c-1.948,2.171-2.969,4.7-2.826,7.628
	c0.059,1.198,0.291,2.378,1.126,3.347c-0.64,0.517-1.179,0.933-1.69,1.364c-0.712,0.6-1.094,1.359-0.792,2.279
	c0.314,0.945,0.971,1.603,1.987,1.818c0.705,0.15,1.416,0.273,2.266,0.436c-0.012,0.48,0.087,0.934-0.056,1.299
	c-0.373,0.976-0.562,2.034-1.253,2.905c-0.712,0.904-1.385,1.873-1.892,2.895c-0.631,1.26-0.696,2.67-0.331,4.021
	c0.55,2.017,1.211,4.007,1.825,6.012c0.095,0.329,0.141,0.677,0.271,0.994c0.209,0.505-0.021,0.818-0.398,1.093
	c-0.476,0.35-0.925,0.774-1.46,1.019c-0.906,0.41-1.25,1.276-1.714,2.01c-0.479,0.757-0.105,1.54,0.771,1.765
	c0.946,0.241,1.922,0.405,2.89,0.551c1.398,0.203,2.805,0.374,4.211,0.516c0.547,0.057,1.117,0.08,1.653-0.011
	c0.957-0.155,1.655-1.053,1.584-2.034c-0.033-0.55-0.164-1.11-0.345-1.628c-1.013-2.876-1.703-5.841-1.99-8.879
	c-0.119-1.191,0.298-2.257,1.428-3.166c2.637,3.979,5.545,7.647,9.27,10.78c-0.371,0.336-0.613,0.553-0.841,0.769
	c-0.692,0.633-1.43,1.219-2.047,1.918c-0.552,0.631-0.229,1.572,0.609,1.865c0.73,0.249,1.481,0.442,2.236,0.574
	c1.48,0.264,2.961,0.49,4.449,0.671c0.499,0.056,1.028-0.015,1.52-0.141c0.742-0.182,1.471-0.432,2.187-0.704
	C132.6,96.829,132.882,95.155,131.796,94.181 M109.872,50.645c0.394-0.983,0.872-1.942,1.848-2.527
	c0.457-0.279,0.884-0.616,1.381-0.964c0.838,1.127,1.109,2.364,1.072,3.725c-0.023,1.16-0.494,2.065-1.38,2.736
	c-0.299,0.234-0.79,0.402-1.143,0.33C110.503,53.719,109.438,51.738,109.872,50.645 M106.43,69.73
	c0.216-0.809,0.784-1.007,1.332-1.223c1.552-0.617,3.098-1.236,4.649-1.848c1.251-0.494,1.867-1.444,2.048-2.73
	c0.24-1.689-0.621-2.991-1.562-4.205c-0.55-0.703-1.299-0.465-1.49,0.412c-0.079,0.379,0.026,0.841,0.16,1.22
	c0.189,0.52,0.544,0.98,0.732,1.493c0.303,0.842,0.098,1.482-0.676,1.843c-1.034,0.48-2.121,0.839-3.272,1.294
	c-0.117-0.546-0.169-0.97-0.305-1.356c-0.58-1.69-0.222-3.34,0.327-4.918c0.445-1.28,1.063-2.549,2.199-3.415
	c0.284-0.214,0.67-0.384,1.025-0.41c0.544-0.041,1.103,0.093,1.658,0.094c0.556,0,0.883,0.253,1.049,0.758
	c0.271,0.813,0.533,1.626,0.816,2.433c0.573,1.656,1.141,3.31,1.742,4.953c0.453,1.235,0.039,2.176-0.899,2.963
	c-1.743,1.476-3.599,2.771-5.94,3.07C108.823,70.309,107.587,70.365,106.43,69.73 M112.248,80.17
	c-0.66,0.707-1.47,1.353-1.575,2.432c-0.223,2.371-0.058,4.705,0.638,6.994c0.485,1.592,0.942,3.194,1.371,4.804
	c0.215,0.792-0.036,1.055-0.825,0.985c-1.623-0.141-3.245-0.282-4.866-0.445c-0.208-0.019-0.398-0.197-0.707-0.358
	c0.59-0.491,1.027-0.988,1.571-1.284c1.955-1.087,1.926-1.046,1.231-3.136c-0.707-2.111-1.386-4.234-1.96-6.384
	c-0.387-1.428-0.431-2.867,0.619-4.146c0.618-0.754,1.093-1.631,1.678-2.421c1.002-1.362,1.592-2.834,1.347-4.557
	c-0.023-0.168,0.009-0.333,0.014-0.473c0.092-0.088,0.142-0.177,0.213-0.195c1.596-0.4,3.131-0.908,4.411-2.013
	c0.199-0.169,0.672-0.198,0.941-0.085c0.623,0.266,1.509,1.998,1.289,2.653c-0.492,1.453-0.873,2.984-1.961,4.151
	C114.567,77.88,113.356,78.979,112.248,80.17 M122.727,95.521c0.481-0.878,1.099-1.076,1.784-1.231
	c0.678-0.147,1.338-0.381,1.981-0.572c-0.63-1.303-1.611-2.037-2.505-2.889c-2.317-2.21-4.734-4.346-6.509-7.055
	c-0.759-1.176-1.479-2.374-2.21-3.555c0.7-0.968,1.3-1.834,2.386-2.382c4.03,6.12,8.219,12.072,13.079,17.58
	C128.037,96.962,125.484,96.04,122.727,95.521"/>
</svg>
