<?xml version="1.0" encoding="utf-8"?>
<!-- Generator: Adobe Illustrator 15.1.0, SVG Export Plug-In . SVG Version: 6.00 Build 0)  -->
<!DOCTYPE svg PUBLIC "-//W3C//DTD SVG 1.1//EN" "http://www.w3.org/Graphics/SVG/1.1/DTD/svg11.dtd">
<svg version="1.1" id="Layer_1" xmlns="http://www.w3.org/2000/svg"  x="0px" y="0px"
	 width="160px" height="132px" viewBox="0 0 160 132"  xml:space="preserve">
<path fill="#231F20" d="M144.225,97.966c-0.336-0.119-0.728-0.099-1.098-0.099c-3.822,0.036-7.645,0.092-11.477,0.119
	c-4.754,0.041-9.506,0.093-14.258,0.084c-4.692-0.007-9.381-0.105-14.071-0.152c-3.951-0.037-7.903-0.013-11.853-0.09
	c-3.379-0.072-3.384-0.262-3.33-3.702c0.064-3.889-0.039-7.784-0.205-11.67c-0.157-3.765-0.646-7.52-0.694-11.273
	c-0.084-6.483-0.819-12.957-0.354-19.445c0.03-0.369-0.049-0.742-0.039-1.113c0.035-2.039,0.061-4.069,0.115-6.108
	c0.028-1.05,0.157-2.097,0.165-3.137c0.032-2.66,0.024-5.311,0.017-7.972c-0.008-0.861,0.017-1.742-0.101-2.594
	c-0.159-1.096-0.873-1.734-1.804-1.731c-1.98,0.018-3.953,0.065-5.925,0.101c-0.73,0.021-1.496,0.2-2.203,0.081
	c-2.518-0.459-5.031-0.007-7.541-0.045c-0.49-0.013-0.992,0.055-1.466,0.182c-1.359,0.344-1.786,0.962-1.724,2.363
	c0.045,0.923,0.07,1.854,0.075,2.773c0.018,4.882-0.155,9.769,0.093,14.638c0.187,3.437-0.106,6.879,0.441,10.335
	c0.488,3.035,0.283,6.16,0.39,9.244c0.067,2.293,0.086,4.575,0.234,6.86c0.293,4.679,0.777,9.342,0.54,14.05
	c-0.055,0.917,0.039,1.851,0.075,2.772c0.067,1.583,0.134,3.154,0.209,4.816c-0.844,0.128-1.448,0.291-2.049,0.305
	c-2.223,0.07-4.457,0.21-6.675,0.101c-6.494-0.317-12.947,0.46-19.417,0.733c-4.436,0.181-8.86,0.632-13.291,0.962
	c-0.251,0.021-0.501,0.025-0.741,0.028c-4.055,0.12-8.109,0.231-12.364,0.356c0.536,1.615,1.083,2.12,2.631,2.191
	c1.839,0.091,3.692,0.011,5.544-0.05c4.246-0.155,8.501-0.31,12.749-0.535c3.867-0.216,7.741-0.649,11.614-0.735
	c8.638-0.187,17.292-0.201,25.929-0.338c3.022-0.049,6.039-0.257,9.063-0.364c1.041-0.042,2.102-0.035,3.14,0.035
	c2.717,0.152,5.42,0.457,8.129,0.51c6.299,0.129,12.591,0.151,18.892,0.202c5.741,0.045,11.481,0.109,17.223,0.105
	c4.873-0.009,9.748-0.096,14.621-0.153c0.189,0.005,0.379,0,0.561-0.026c0.643-0.083,1.288-0.294,1.318-1.043
	C145.332,98.827,144.938,98.215,144.225,97.966 M85.436,95.643c-4.85,0.681-9.541,1.014-14.407,0.82
	c-0.354-2.78-0.604-5.378-0.582-8.038c0.045-4.261-0.15-8.509-0.265-12.761c-0.029-1.112-0.13-2.215-0.17-3.327
	c-0.065-2.032-0.069-4.073-0.174-6.106c-0.317-6.4-0.784-12.807-0.96-19.224c-0.113-3.943,0.184-7.897,0.291-11.846l0.083-3.08
	c5.105-0.101,10.069-0.187,15.163-0.279c0.057,0.172,0.198,0.445,0.201,0.727c-0.016,3.881-0.061,7.771-0.096,11.651
	c-0.028,2.521-0.026,5.041-0.065,7.562c-0.03,1.849-0.18,3.707-0.13,5.558c0.173,6.537,0.236,13.081,0.689,19.606
	c0.369,5.231,0.526,10.467,0.614,15.713C85.643,93.588,85.516,94.555,85.436,95.643"/>
<path fill="#00ADDD" d="M85.629,92.617c0.014,0.972-0.113,1.938-0.193,3.025c-4.85,0.68-9.541,1.013-14.406,0.821
	c-0.355-2.781-0.605-5.378-0.583-8.038c0.045-4.262-0.15-8.508-0.265-12.762c-0.029-1.111-0.13-2.216-0.17-3.326
	c-0.065-2.032-0.069-4.074-0.174-6.108c-0.317-6.399-0.784-12.805-0.96-19.222c-0.113-3.945,0.184-7.899,0.291-11.847l0.083-3.08
	c5.105-0.102,10.069-0.188,15.163-0.278c0.057,0.171,0.198,0.444,0.201,0.725C84.6,36.408,84.555,40.3,84.52,44.18
	c-0.028,2.52-0.026,5.042-0.065,7.561c-0.03,1.851-0.18,3.707-0.13,5.56c0.173,6.537,0.236,13.081,0.689,19.604
	C85.383,82.138,85.54,87.373,85.629,92.617"/>
<path fill="#231F20" d="M67.157,42.549c-0.245-0.927-0.19-1.485,0.377-2.109c0.609-0.686,1.148-1.391,1.185-2.369
	c0.115-2.78-0.853-5.066-3.088-6.777c-0.284-0.208-0.66-0.356-1.019-0.406c-3.866-0.557-7.211,2.505-7.107,6.438
	c0.047,1.953,0.448,3.774,1.58,5.186c-1.258,1.387-2.422,2.645-3.68,4.03c-0.04-0.001-0.16-0.004-0.249-0.046
	c-2.434-1.355-4.099-0.461-3.995,2.354c0.091,2.914,0.502,5.814,2.316,8.306c0.25,0.346,0.282,1.018,0.16,1.455
	c-0.376,1.32-0.831,2.628-1.346,3.905c-1.051,2.611-2.171,5.191-3.212,7.806c-0.354,0.87-0.75,1.82-0.745,2.74
	c0.016,2.382,0.03,4.802,0.899,7.077c0.495,1.294,0.893,2.466-0.229,3.625c-0.133,0.137-0.15,0.387-0.225,0.585
	c-0.722,1.881-1.403,3.782-2.174,5.642c-0.214,0.505-0.6,1.105-1.056,1.301c-1.973,0.819-3.317,2.452-4.971,3.679
	c-1.745,1.282-1.212,2.639,0.662,3.608c0.395,0.202,0.927,0.146,1.397,0.159c2.418,0.085,4.735-0.512,7.024-1.181
	c1.392-0.402,2.483-1.184,2.884-2.684c0.289-1.071,0.588-2.154,0.907-3.217c0.153-0.475,0.356-0.94,0.539-1.405
	c0.32,0.359,0.372,0.65,0.364,0.94c-0.027,1.75-0.115,3.498-0.112,5.249c0,1.109,0.658,1.948,1.659,2.286
	c1.001,0.327,1.579-0.309,2.137-0.974c0.207-0.244,0.423-0.487,0.581-0.765c1.07-1.832,2.08-3.684,2.746-5.717
	c0.392-1.19,0.389-2.191-0.432-3.273c-1.498-1.922-2.864-3.949-3.721-6.272c-0.242-0.667-0.19-1.126,0.207-1.745
	c1.567-2.458,3.115-4.939,4.485-7.511c1.053-1.953,1.771-4.084,2.716-6.101c1.572-3.357,2.23-6.962,2.857-10.555
	c0.392-2.301,0.606-4.656,0.569-6.979C68.014,46.734,67.682,44.595,67.157,42.549 M50.261,93.87
	c-0.171,0.776-0.513,1.237-1.279,1.416c-1.178,0.288-2.348,0.647-3.544,0.854c-0.573,0.104-1.199-0.063-2.068-0.115
	c0.857-0.988,1.449-1.762,2.448-2.116c1.626-0.564,2.587-1.679,3.073-3.356c0.485-1.668,1.188-3.271,1.803-4.903
	c0.086-0.238,0.232-0.454,0.538-1.037c0.683,1,1.174,1.713,1.694,2.488C51.38,89.14,50.776,91.493,50.261,93.87 M65.284,55.202
	c-1.082,6.703-3.026,13.114-6.527,18.981c-0.576,0.955-1.191,1.879-1.816,2.802c-0.157,0.246-0.392,0.429-0.773,0.819
	c-0.105-0.554-0.196-0.887-0.237-1.218c-0.37-3.682,0.694-7.143,1.559-10.642c0.259-1.083,0.549-2.166,0.679-3.262
	c0.194-1.646-0.707-2.361-2.059-1.938c-0.757,3.21-1.542,6.341-2.248,9.492c-1.082,4.874-0.226,9.468,2.046,13.862
	c0.789,1.512,1.579,3.004,2.786,4.226c0.507,0.514,0.801,1.113,0.47,1.873c-0.683,1.582-1.346,3.165-2.03,4.757
	c-0.159-0.044-0.328-0.078-0.497-0.112c-0.046-0.893-0.181-1.797-0.117-2.675c0.153-1.967-0.13-3.724-1.375-5.39
	c-1.168-1.551-2.233-3.231-2.996-5.002c-1.241-2.905-1.708-6.008-1.382-9.171c0.098-1.028,0.536-2.046,0.923-3.036
	c1.258-3.257,2.587-6.493,3.855-9.75c0.291-0.751,0.632-1.172,1.565-1.248c1.885-0.159,3.248-1.392,4.602-2.596
	c1.046-0.951,2.121-1.883,3.249-2.883C65.603,53.762,65.392,54.545,65.284,55.202 M65.029,49.854
	c-1.695,2.354-3.885,4.176-6.066,6.018c-0.501,0.426-1.17,0.739-1.815,0.901c-1.107,0.27-1.641,0.025-2.136-0.918
	c-1.187-2.314-1.62-4.796-1.55-7.385c0.003-0.131,0.167-0.257,0.292-0.433c1.075,0.549,1.414,1.689,2.102,2.519
	c0.436,0.521,0.749,1.171,1.226,1.652c1.071,1.07,3.698,0.472,4.167-0.946c0.087-0.259-0.141-0.685-0.355-0.932
	c-0.126-0.151-0.486-0.151-0.736-0.139c-0.561,0.025-1.29,0.345-1.654,0.104c-0.58-0.376-0.92-1.114-1.422-1.768
	c0.301-0.423,0.561-0.786,0.935-1.296c0.6,0.386,0.983,0.637,1.681,0.345c1.042-0.431,2.239-0.648,3.369-0.647
	c0.83,0.013,1.666,0.524,2.4,0.774C65.821,48.654,65.507,49.188,65.029,49.854 M61.097,45.045c0.984-1.583,2.504-1.562,3.995-2.332
	c0.046,0.901,0.081,1.434,0.098,1.924C63.796,44.779,62.582,44.896,61.097,45.045 M64.388,40.633
	c-0.113,0.107-0.294,0.133-0.426,0.21c-1.921,1.128-2.717,0.955-3.573-1.027c-0.8-1.854-0.978-3.788-0.006-5.684
	c0.559-1.085,1.099-1.092,2.267-0.987c2.645,0.229,2.881,2.208,3.331,4.091C66.338,38.795,65.383,39.73,64.388,40.633"/>
<path fill="#231F20" d="M110.632,96.867c-1.585-1.314-2.849-3.02-4.765-3.942c-0.454-0.221-0.807-0.841-0.983-1.355
	c-0.669-1.9-1.257-3.836-1.864-5.753c-0.065-0.202-0.078-0.452-0.205-0.597c-1.058-1.218-0.586-2.366-0.031-3.632
	c0.99-2.224,1.136-4.641,1.281-7.018c0.055-0.919-0.289-1.89-0.586-2.776c-0.898-2.666-1.887-5.303-2.785-7.969
	c-0.444-1.304-0.83-2.633-1.133-3.973c-0.107-0.442-0.029-1.11,0.239-1.443c1.935-2.39,2.503-5.265,2.763-8.168
	c0.246-2.806-1.358-3.788-3.873-2.567c-0.08,0.038-0.201,0.036-0.24,0.035c-1.191-1.454-2.276-2.773-3.457-4.226
	c1.197-1.349,1.705-3.146,1.859-5.092c0.306-3.924-2.857-7.159-6.759-6.815c-0.351,0.031-0.745,0.16-1.03,0.352
	c-2.324,1.588-3.424,3.819-3.459,6.6c-0.008,0.979,0.494,1.714,1.064,2.429c0.521,0.655,0.547,1.216,0.262,2.129
	c-0.645,2.013-1.082,4.132-1.238,6.228c-0.164,2.316-0.078,4.681,0.199,6.998c0.424,3.623,0.885,7.258,2.282,10.696
	c0.834,2.064,1.437,4.231,2.372,6.237c1.229,2.644,2.65,5.204,4.071,7.743c0.362,0.64,0.401,1.101,0.122,1.754
	c-0.981,2.273-2.465,4.224-4.055,6.062c-0.889,1.036-0.945,2.035-0.619,3.244c0.565,2.067,1.474,3.972,2.443,5.859
	c0.143,0.284,0.346,0.54,0.528,0.795c0.522,0.693,1.073,1.358,2.092,1.087c1.019-0.283,1.72-1.084,1.78-2.193
	c0.087-1.749,0.104-3.499,0.162-5.248c0.008-0.29,0.084-0.578,0.414-0.919c0.158,0.476,0.345,0.949,0.461,1.434
	c0.262,1.077,0.502,2.175,0.732,3.261c0.319,1.519,1.377,2.357,2.744,2.835c2.25,0.791,4.521,1.513,6.941,1.559
	c0.47,0.014,1.007,0.099,1.402-0.082C111.7,99.566,112.296,98.242,110.632,96.867 M88.393,37.842
	c0.551-1.854,0.894-3.816,3.547-3.905c1.162-0.039,1.711-0.004,2.211,1.11c0.857,1.944,0.586,3.867-0.313,5.674
	c-0.974,1.935-1.767,2.063-3.624,0.832c-0.138-0.084-0.307-0.118-0.414-0.23C88.854,40.366,87.951,39.381,88.393,37.842
	 M92.836,45.906c-1.465-0.23-2.68-0.413-4.064-0.631c0.054-0.488,0.107-1.018,0.201-1.915C90.432,44.21,91.95,44.271,92.836,45.906
	 M88.339,48.325c0.746-0.21,1.599-0.678,2.438-0.646c1.129,0.062,2.312,0.343,3.328,0.831c0.682,0.328,1.067,0.1,1.697-0.254
	c0.336,0.529,0.586,0.906,0.854,1.343c-0.527,0.626-0.907,1.348-1.507,1.69c-0.385,0.22-1.086-0.139-1.646-0.195
	c-0.249-0.025-0.618-0.046-0.753,0.101c-0.216,0.233-0.467,0.647-0.404,0.909c0.401,1.441,2.992,2.183,4.12,1.173
	c0.502-0.457,0.839-1.089,1.313-1.585c0.732-0.791,1.121-1.91,2.236-2.401c0.114,0.183,0.271,0.318,0.268,0.448
	c-0.08,2.589-0.637,5.045-1.958,7.29c-0.535,0.915-1.081,1.131-2.173,0.801c-0.635-0.198-1.297-0.545-1.774-0.999
	c-2.067-1.957-4.166-3.895-5.72-6.336C88.219,49.802,87.934,49.254,88.339,48.325 M96.529,87.901
	c-1.344,1.595-1.711,3.335-1.674,5.306c0.026,0.881-0.158,1.777-0.252,2.665c-0.17,0.024-0.342,0.05-0.513,0.085
	c-0.586-1.626-1.173-3.242-1.769-4.859c-0.279-0.776,0.047-1.358,0.58-1.845c1.271-1.156,2.141-2.603,3-4.07
	c2.508-4.264,3.621-8.806,2.793-13.729c-0.533-3.187-1.137-6.354-1.73-9.602c-1.326-0.495-2.255,0.169-2.16,1.822
	c0.07,1.104,0.301,2.199,0.512,3.295c0.664,3.54,1.55,7.056,0.971,10.711c-0.049,0.328-0.158,0.655-0.293,1.202
	c-0.359-0.41-0.584-0.605-0.737-0.86c-0.563-0.955-1.139-1.91-1.651-2.896c-3.179-6.048-4.783-12.554-5.5-19.306
	c-0.072-0.662-0.23-1.456,0.437-2.089c1.082,1.059,2.097,2.048,3.099,3.056c1.276,1.273,2.582,2.58,4.454,2.841
	c0.927,0.125,1.246,0.564,1.495,1.331c1.09,3.321,2.23,6.622,3.322,9.944c0.322,1.009,0.705,2.05,0.757,3.081
	c0.144,3.176-0.489,6.249-1.887,9.082C98.936,84.795,97.771,86.414,96.529,87.901 M105.706,97.772
	c-1.183-0.271-2.322-0.692-3.493-1.045c-0.744-0.22-1.07-0.698-1.189-1.481c-0.385-2.402-0.861-4.785-2.305-6.906
	c0.57-0.745,1.1-1.43,1.825-2.391c0.284,0.598,0.408,0.82,0.481,1.062c0.535,1.665,1.142,3.304,1.535,4.994
	c0.404,1.701,1.303,2.866,2.887,3.52c0.979,0.406,1.537,1.213,2.33,2.243C106.916,97.776,106.283,97.909,105.706,97.772"/>
</svg>
