<?xml version="1.0" encoding="utf-8"?>
<!-- Generator: Adobe Illustrator 15.1.0, SVG Export Plug-In . SVG Version: 6.00 Build 0)  -->
<!DOCTYPE svg PUBLIC "-//W3C//DTD SVG 1.1//EN" "http://www.w3.org/Graphics/SVG/1.1/DTD/svg11.dtd">
<svg version="1.1" id="Layer_1" xmlns="http://www.w3.org/2000/svg"  x="0px" y="0px"
	 width="160px" height="132px" viewBox="0 0 160 132"  xml:space="preserve">
<path fill="#231F20" d="M156.557,92.538c-1.507-0.029-3.015-0.056-4.521-0.071c-5.423-0.057-10.841-0.022-16.258-0.022
	c-1.683,0.004-3.339-0.188-5.005-0.54c-0.147-2.531-0.396-4.938-0.394-7.347c-0.003-3.526,0.212-7.054,0.258-10.576
	c0.039-2.736-0.02-5.474-0.07-8.211c-0.035-1.789-0.175-3.572-0.19-5.36c-0.011-2.164,0.083-4.318,0.106-6.483
	c0.014-1.025-0.367-1.412-1.398-1.483c-0.209-0.011-0.42,0.031-0.629,0.024l-7.708-0.208c0.036-1.354,0.061-2.491,0.099-3.634
	c0.05-1.591-0.676-2.12-2.15-1.573c-0.437,0.155-0.938,0.414-1.334,0.32c-1.894-0.45-3.774-0.103-5.655,0.022
	c-1.266,0.083-1.484-0.083-1.478-1.387c0.012-3.002,0.079-5.995,0.153-8.987c0.022-0.852-0.266-1.285-1.092-1.42
	c-0.563-0.091-1.142-0.142-1.705-0.233c-0.819-0.142-1.642-0.458-2.453-0.416c-2.517,0.148-5.03,0.449-7.55,0.632
	c-0.866,0.068-1.759,0.037-2.629-0.07c-1.065-0.142-1.454,0.085-1.608,1.15c-0.025,0.159-0.037,0.32-0.034,0.474
	c0.064,2.779,0.142,5.56,0.206,8.341c0.008,0.258-0.021,0.522-0.048,0.78c-0.254,2.122-0.535,4.243-0.76,6.374
	c-0.122,1.141-0.206,1.419-1.361,1.533c-1.98,0.191-3.971,0.221-6.109,0.331c-0.11-0.583-0.207-0.885-0.213-1.186
	c-0.062-2.312-0.133-4.631-0.16-6.943c-0.016-1.271-0.218-1.527-1.504-1.702c-0.354-0.045-0.7-0.179-1.054-0.252
	c-0.66-0.144-1.323-0.427-1.967-0.38c-3.083,0.208-6.164,0.524-9.25,0.782c-0.573,0.048-1.158-0.003-1.739,0.03
	c-0.775,0.034-1.17-0.339-1.261-1.089c-0.172-1.408-0.435-2.811-0.5-4.229c-0.104-2.097-1.843-4.644-4.527-4.494
	c-1.314,0.076-2.618,0.272-3.924,0.307c-2.843,0.062-5.677,0.055-8.519,0.069c-0.88,0.011-1.232,0.385-1.206,1.251
	c0.056,2.047,0.119,4.094,0.154,6.141c0.022,1.48-0.098,1.553-1.634,1.567c-3.945,0.025-7.882,0.059-11.828,0.112
	c-1.432,0.025-2.135,0.725-2.09,2.165c0.085,2.997,0.235,5.995,0.342,8.986c0.054,1.634,0.101,3.262,0.098,4.889
	c-0.006,3.58-0.264,7.177-0.018,10.736c0.203,3.056,0.33,6.098,0.275,9.146c-0.01,0.425,0.054,0.847,0.071,1.266
	c0.114,2.732,0.228,5.465,0.329,8.197c0.026,0.846,0.037,1.69-0.013,2.526c-0.082,1.248-0.357,1.366-1.583,1.277
	c-1.673-0.122-3.354-0.147-5.029-0.144c-1.312,0.006-2.629,0.16-3.942,0.179c-2.682,0.047-5.364,0.092-8.05,0.054
	c-3.937-0.05-7.87-0.198-11.805-0.263c-0.794-0.01-1.585,0.066-2.378,0.119c-0.157,0.495-0.238,1.028-0.119,1.511
	c0.071,0.29,0.213,0.498,0.398,0.652c3.32,0,6.639-0.005,9.959,0.012c0.943,0.003,1.887,0.183,2.83,0.167
	c2.152-0.032,4.304-0.114,6.457-0.208c2.363-0.111,4.72-0.265,7.083-0.389c0.573-0.026,1.153-0.053,1.724-0.003
	c1.101,0.093,2.197,0.324,3.292,0.341c2.736,0.033,5.474-0.026,8.211-0.035c3.1-0.015,6.206-0.007,9.313-0.02
	c5.054-0.018,10.11-0.056,15.165-0.063c4.788-0.019,9.578-0.028,14.373-0.003c1.04,0.008,2.081,0.188,3.121,0.245
	c0.522,0.035,1.047-0.006,1.571-0.049c0.728-0.063,1.45-0.212,2.185-0.233c2.684-0.088,5.365-0.141,8.054-0.201
	c3.465-0.073,6.93-0.132,10.394-0.198c0.104-0.005,0.209,0.011,0.313,0.008c2.311,0.021,4.621,0.04,6.924,0.048
	c3.847,0.012,7.688-0.044,11.524,0.04c1.694,0.038,3.322,0.026,4.926-0.657c0.6-0.255,1.332-0.263,2.01-0.251
	c1.368,0.015,2.732,0.164,4.101,0.187c5.002,0.08,10.008,0.076,15.002,0.22c1.979,0.053,3.954-0.081,5.931-0.165
	C157.241,93.938,157.016,93.218,156.557,92.538 M50.394,93.022c-4.237,0.778-8.427-0.229-12.677,0.479
	c-0.06-3.19-0.075-5.977-0.181-8.758c-0.168-4.627-0.462-9.242-0.566-13.867c-0.099-4.1,0.012-8.208-0.001-12.312
	c-0.001-1.257-0.156-2.519-0.185-3.775c-0.062-2.626-0.082-5.245-0.121-7.892c0.43-0.149,0.714-0.331,1-0.336
	c2.521-0.058,5.049-0.073,7.571-0.129c1.103-0.027,2.201-0.087,3.3-0.19c0.791-0.077,1.25,0.208,1.278,0.99
	c0.043,1.258,0.135,2.531-0.017,3.77c-0.289,2.421-0.333,4.821-0.162,7.249c0.151,2.147-0.067,4.325,0.152,6.468
	c0.59,5.832,0.271,11.667,0.322,17.501c0.028,2.843,0.238,5.677,0.342,8.52C50.477,91.46,50.416,92.185,50.394,93.022
	 M66.803,83.561c-0.146,3.089-0.362,6.176-0.563,9.458c-4.512,0.603-8.793,0.411-13.204,0.103c-0.06-0.88-0.124-1.596-0.16-2.313
	c-0.306-6.265-0.268-12.524-0.134-18.791c0.06-2.72-0.299-5.452-0.469-8.18c-0.005-0.048-0.025-0.105-0.024-0.153
	c-0.104-2.838-0.258-5.675-0.278-8.511c-0.015-1.256,0.297-2.504,0.338-3.766c0.057-1.828,0.01-3.666-0.011-5.502
	c-0.023-2.472-0.082-4.945-0.106-7.417c-0.004-0.88,0.689-0.987,1.32-1.039c1.098-0.097,2.209-0.136,3.313-0.168
	c1.991-0.073,3.989-0.123,5.987-0.173c0.762-0.022,1.334,0.217,1.528,1.046c0.351,1.468,0.912,2.914,1.061,4.398
	c0.314,3.345,0.376,6.718,0.649,10.069c0.236,2.876,0.563,5.733,0.534,8.628c-0.021,2.605,0.16,5.213,0.207,7.817
	c0.044,2.522,0.039,5.041,0.06,7.562c0.004,0.629,0.009,1.256-0.001,1.886C66.845,80.197,66.883,81.881,66.803,83.561
	 M72.677,93.291c-1.202-0.005-2.406-0.115-3.633-0.183c-0.526-1.467-0.245-2.826-0.133-4.156c0.433-4.876,0.516-9.761,0.328-14.651
	c-0.023-0.686-0.04-1.369-0.049-2.055c-0.067-4.991-0.071-9.984-0.215-14.979c-0.063-2.305-0.42-4.598-0.617-6.899
	c-0.084-0.986-0.105-1.972-0.161-3.041c1.302-0.147,2.444-0.304,3.584-0.406c1.266-0.119,1.444,0.06,1.45,1.387
	c0.004,2.68-0.006,5.369-0.009,8.049c0.003,4.522,0.18,9.058-0.039,13.568c-0.288,5.961,0.292,11.883,0.473,17.821
	c0.039,1.418,0.154,2.832,0.171,4.257C73.835,93.015,73.597,93.295,72.677,93.291 M83.61,92.177
	c-0.156,0.324-0.495,0.775-0.775,0.795c-1.993,0.129-3.998,0.164-5.989,0.216c-0.14,0.003-0.275-0.127-0.427-0.2
	c-0.097-1.839-0.18-3.663-0.306-5.488c-0.514-7.56-0.658-15.124-0.417-22.699c0.137-4.31-0.033-8.629-0.041-12.944
	c-0.005-1.368,0.059-2.734,0.118-4.102c0.04-0.934,0.279-1.249,1.195-1.335c1.617-0.151,3.245-0.219,5.175-0.349
	c0.154,1.519,0.362,2.858,0.424,4.201c0.171,3.726,0.321,7.457,0.395,11.187c0.044,1.999-0.199,3.995-0.148,5.992
	c0.084,3.577,0.338,7.15,0.443,10.721c0.134,4.305,0.855,8.597,0.452,12.912C83.672,91.453,83.751,91.866,83.61,92.177
	 M94.637,92.797c-2.858,0.124-5.584,0.512-8.579,0.27c0.021-0.809,0.067-1.471,0.057-2.134c-0.072-3.199-0.133-6.405-0.256-9.606
	c-0.188-4.669-0.466-9.339-0.611-14.021c-0.061-1.885,0.145-3.779,0.146-5.67c0-1.257-0.184-2.512-0.247-3.769
	c-0.016-0.448,0.066-0.899,0.089-1.206c2.467-0.122,4.753-0.234,7.221-0.363c0.086,0.944,0.168,1.806,0.235,2.673
	c0.255,3.455,0.518,6.919,0.765,10.373c0.307,4.189,0.611,8.38,0.91,12.562c0.14,2.043,0.316,4.085,0.379,6.132
	C94.795,89.547,94.685,91.066,94.637,92.797 M107.442,92.432c-3.52,0.071-6.796,0.144-10.135,0.221
	c-0.069-0.526-0.159-0.827-0.145-1.128c0.183-4.169-0.354-8.296-0.668-12.437c-0.257-3.407-0.415-6.817-0.651-10.224
	c-0.163-2.26-0.437-4.508-0.578-6.759c-0.12-1.993-0.129-3.997-0.165-5.994c-0.02-1.097-0.031-2.199,0.047-3.3
	c0.05-0.83,0.248-1.649,0.382-2.475c0.017-0.106,0.124-0.214,0.099-0.298c-0.542-1.921,0.493-3.764,0.19-5.734
	c-0.311-1.977,0.025-4.048,0.082-6.162c0.395-0.107,0.782-0.278,1.182-0.331c3.132-0.411,6.263-0.808,9.427-0.576
	c1.358,0.1,1.414,0.122,1.396,1.504c-0.099,7.047-0.249,14.094-0.301,21.15c-0.021,3.679,0.192,7.364,0.177,11.041
	c-0.026,5.843-0.149,11.683-0.237,17.523C107.53,89.712,107.482,90.959,107.442,92.432 M128.062,92.284
	c-3.062,0.169-5.986-0.105-8.913-0.102c-2.938,0.011-5.874,0.163-8.781,0.252c-0.616-0.716-0.504-1.474-0.485-2.192
	c0.121-4.206,0.347-8.415,0.363-12.632c0.024-4.475-0.232-8.949-0.229-13.424c-0.002-4.579,0.164-9.161,0.26-13.737
	c0.004-0.154,0.078-0.299,0.171-0.638c1.045,0.342,1.889,0.122,2.813-0.238c1.573-0.622,3.209-0.227,4.979,0.134
	c0.058,0.987,0.115,1.966,0.179,2.944c0.07,0.994,0.28,2.004,0.198,2.987c-0.285,3.572-0.271,7.141-0.186,10.725
	c0.093,4.05-0.08,8.108-0.162,12.161c-0.06,3.267-0.17,6.531-0.237,9.795c-0.009,0.574,0.06,1.155,0.169,1.716
	c0.186,0.92,0.65,1.302,1.35,1.229c0.701-0.078,1.042-0.558,1.046-1.514c0.004-2.206-0.026-4.42,0.013-6.624
	c0.081-4.27,0.252-8.531,0.29-12.796c0.023-2.366-0.053-4.741-0.233-7.099c-0.217-2.811,0.165-5.559,0.445-8.4
	c2.188-0.673,4.327,0.006,6.577-0.325c0.094,0.673,0.205,1.172,0.227,1.675c0.331,9.154,0.419,18.308,0.023,27.47
	c-0.105,2.357,0.103,4.736,0.158,7.097C128.111,91.211,128.077,91.678,128.062,92.284"/>
<path fill="#00ADDD" d="M128.062,92.284c-3.062,0.169-5.986-0.105-8.913-0.102c-2.938,0.011-5.874,0.163-8.781,0.252
	c-0.616-0.716-0.504-1.474-0.485-2.192c0.121-4.206,0.347-8.415,0.363-12.632c0.024-4.475-0.232-8.949-0.229-13.424
	c-0.002-4.579,0.164-9.161,0.26-13.737c0.004-0.154,0.078-0.299,0.171-0.638c1.045,0.342,1.889,0.122,2.813-0.238
	c1.573-0.622,3.209-0.227,4.979,0.134c0.058,0.987,0.115,1.966,0.179,2.944c0.07,0.994,0.28,2.004,0.198,2.987
	c-0.285,3.572-0.271,7.141-0.186,10.725c0.093,4.05-0.08,8.108-0.162,12.161c-0.06,3.267-0.17,6.531-0.237,9.795
	c-0.009,0.574,0.06,1.155,0.169,1.716c0.186,0.92,0.65,1.302,1.35,1.229c0.701-0.078,1.042-0.558,1.046-1.514
	c0.004-2.206-0.026-4.42,0.013-6.624c0.081-4.27,0.252-8.531,0.29-12.796c0.023-2.366-0.053-4.741-0.233-7.099
	c-0.217-2.811,0.165-5.559,0.445-8.4c2.188-0.673,4.327,0.006,6.577-0.325c0.094,0.673,0.205,1.172,0.227,1.675
	c0.331,9.154,0.419,18.308,0.023,27.47c-0.105,2.357,0.103,4.736,0.158,7.097C128.111,91.211,128.077,91.678,128.062,92.284"/>
<path fill="#00ADDD" d="M83.61,92.177c-0.156,0.324-0.495,0.775-0.775,0.795c-1.993,0.128-3.998,0.164-5.989,0.215
	c-0.14,0.004-0.276-0.125-0.427-0.2c-0.097-1.838-0.18-3.662-0.305-5.487c-0.514-7.56-0.659-15.125-0.419-22.699
	c0.138-4.31-0.032-8.629-0.04-12.944c-0.004-1.368,0.06-2.734,0.119-4.101c0.038-0.935,0.278-1.249,1.194-1.336
	c1.617-0.152,3.245-0.22,5.175-0.349c0.154,1.518,0.362,2.857,0.425,4.199c0.17,3.726,0.32,7.458,0.394,11.188
	c0.044,1.999-0.199,3.995-0.148,5.992c0.084,3.577,0.338,7.151,0.442,10.722c0.135,4.304,0.856,8.595,0.453,12.913
	C83.672,91.453,83.751,91.867,83.61,92.177"/>
<path fill="#00ADDD" d="M66.803,83.561c-0.146,3.089-0.362,6.176-0.562,9.458c-4.513,0.604-8.794,0.411-13.204,0.103
	c-0.061-0.881-0.125-1.596-0.161-2.313c-0.306-6.265-0.269-12.524-0.134-18.791c0.06-2.72-0.299-5.452-0.469-8.18
	c-0.005-0.048-0.025-0.104-0.023-0.153c-0.104-2.838-0.258-5.675-0.279-8.511c-0.015-1.256,0.297-2.505,0.339-3.766
	c0.056-1.828,0.008-3.666-0.012-5.502c-0.023-2.472-0.083-4.945-0.107-7.417c-0.004-0.88,0.69-0.987,1.32-1.039
	c1.099-0.097,2.21-0.136,3.314-0.168c1.991-0.073,3.989-0.123,5.987-0.173c0.761-0.022,1.334,0.217,1.528,1.046
	c0.351,1.468,0.913,2.914,1.061,4.398c0.314,3.345,0.376,6.718,0.648,10.069c0.236,2.876,0.564,5.733,0.534,8.628
	c-0.021,2.605,0.159,5.213,0.207,7.817c0.044,2.522,0.039,5.041,0.061,7.562c0.004,0.629,0.007,1.256-0.002,1.886
	C66.845,80.197,66.883,81.881,66.803,83.561"/>
<path fill="#231F20" d="M35.333,82.304c-0.461-0.494-0.801-1.11-1.12-1.714c-0.145-0.275-0.211-0.662-0.141-0.953
	c0.221-0.914,0.53-1.8,0.785-2.701c0.664-2.334,0.273-4.621-0.428-6.846c-0.823-2.59-2.707-4.219-5.2-5.167
	c-0.878-0.337-1.771-0.634-2.67-0.951c-0.162-0.716-0.331-1.419-0.479-2.135c-0.21-1.003-0.691-1.792-1.475-2.49
	c-1.261-1.122-2.732-1.735-4.325-2.197c-0.942-0.277-1.585,0.021-2.155,0.682c-0.865,1.003-1.231,2.158-1.037,3.477
	c0.296,1.942,1.058,3.707,2.089,5.361c0.615,0.987,1.44,1.715,2.696,1.757c0.195,0.005,0.38,0.143,0.594,0.232
	c-0.004,1.968-0.315,3.921,0.566,5.906c-0.827,0.383-1.518,0.628-2.135,0.996c-2.207,1.323-3.421,3.342-3.906,5.814
	c-0.438,2.242-0.806,4.494-1.202,6.738c-0.158,0.917-0.351,1.094-1.246,1.133c-0.216,0.007-0.433-0.005-0.649,0.003
	c-2.146,0.089-4.577,1.943-5.354,4.112c0.744,0.887,1.687,1.381,2.887,1.391c0.684,0.005,1.374,0.053,2.065,0.063
	c1.974,0.048,3.956,0.121,5.93,0.105c1.16-0.01,2.174-0.87,2.327-1.856c0.252-1.613,0.402-3.25,0.717-4.854
	c0.193-0.951,0.554-1.876,0.941-2.772c0.528-1.222,1.521-1.789,2.869-1.808c0.978-0.017,1.983-0.022,2.791-0.742
	c0.26,0.203,0.451,0.377,0.664,0.508c1.175,0.702,2.313,1.472,3.717,1.713c0.729,0.125,1.329-0.083,1.632-0.71
	C35.384,83.763,36.113,83.148,35.333,82.304 M21.711,66.408c-0.382-0.044-0.85-0.323-1.051-0.642
	c-0.957-1.526-1.828-3.107-1.925-4.974c-0.02-0.301-0.011-0.608,0.06-0.892c0.117-0.472,0.412-0.764,0.944-0.61
	c0.742,0.217,1.491,0.418,2.208,0.695c1.818,0.685,2.441,2.146,2.497,3.956C24.421,65.324,23.075,66.578,21.711,66.408
	 M26.232,81.478c-1.122-0.065-2.124,0.299-3.067,0.845c-0.702,0.407-1.116,1.003-1.527,1.774c-1.265,2.339-1.242,4.88-1.541,7.378
	c-0.145,1.246-0.323,1.381-1.584,1.535c-2.452,0.311-4.861-0.174-7.49-0.287c0.98-1.132,2.033-1.599,3.339-1.619
	c0.789-0.014,1.589,0.099,2.271-0.588c0.582-0.585,0.949-1.244,1.108-1.98c0.557-2.519,0.974-5.062,1.559-7.573
	c0.459-1.971,1.797-3.966,3.968-3.971c0.425-0.001,0.851,0.269,1.272,0.44c0.104,0.045,0.169,0.192,0.244,0.293
	c0.877,1.104,1.748,2.212,2.807,3.545C26.967,81.372,26.594,81.494,26.232,81.478 M33.201,82.93
	c-0.903-0.136-1.694-0.598-2.319-1.207c-1.728-1.675-3.356-3.436-4.748-5.413c-1.344-1.922-1.845-4.044-1.853-6.327
	c0-1.262,0.573-2.309,1.325-3.279c0.375-0.479,0.817-0.564,1.371-0.402c1.544,0.446,2.987,1.086,4.171,2.214
	c0.872,0.826,1.373,1.879,1.636,3.025c0.524,2.269,0.443,4.521-0.377,6.942c-0.603-0.708-1.214-1.289-1.65-1.979
	c-1.237-1.989-1.884-4.136-1.597-6.516c0.126-1.029-0.025-1.13-1.303-1.36c-1.055,2.086-0.994,4.189-0.059,6.302
	c0.914,2.063,2.099,3.924,3.824,5.445c0.716,0.641,1.209,1.525,1.809,2.303C33.353,82.76,33.273,82.841,33.201,82.93"/>
<path fill="#231F20" d="M149.757,89.73c-0.216-0.02-0.432-0.019-0.648-0.038c-0.891-0.094-1.075-0.28-1.182-1.198
	c-0.281-2.262-0.52-4.529-0.836-6.792c-0.352-2.496-1.46-4.579-3.593-6.018c-0.589-0.401-1.266-0.685-2.071-1.111
	c0.988-1.936,0.783-3.902,0.886-5.867c0.212-0.078,0.41-0.205,0.605-0.2c1.256,0.027,2.118-0.656,2.779-1.606
	c1.118-1.597,1.982-3.318,2.377-5.243c0.272-1.304-0.031-2.478-0.84-3.526c-0.533-0.692-1.159-1.029-2.122-0.805
	c-1.608,0.383-3.11,0.915-4.43,1.967c-0.821,0.655-1.351,1.416-1.607,2.408c-0.188,0.7-0.401,1.399-0.602,2.105
	c-0.908,0.268-1.816,0.517-2.711,0.807c-2.541,0.811-4.509,2.334-5.472,4.871c-0.826,2.183-1.335,4.452-0.799,6.818
	c0.206,0.913,0.468,1.814,0.638,2.733c0.056,0.301-0.039,0.684-0.193,0.951c-0.357,0.584-0.729,1.181-1.21,1.649
	c-0.824,0.802-0.137,1.456,0.131,2.098c0.27,0.65,0.863,0.89,1.599,0.804c1.407-0.163,2.585-0.871,3.804-1.51
	c0.219-0.119,0.412-0.288,0.689-0.47c0.769,0.761,1.771,0.824,2.748,0.893c1.344,0.091,2.298,0.71,2.767,1.959
	c0.339,0.911,0.647,1.86,0.782,2.82c0.229,1.619,0.296,3.254,0.461,4.885c0.099,0.994,1.064,1.908,2.222,1.98
	c1.973,0.124,3.955,0.149,5.928,0.217c0.691,0.025,1.374,0.016,2.065,0.049c1.192,0.053,2.16-0.389,2.951-1.233
	C154.221,91.918,151.895,89.936,149.757,89.73 M143.293,60.076c0.74-0.238,1.498-0.4,2.25-0.575
	c0.533-0.124,0.818,0.183,0.909,0.654c0.056,0.295,0.04,0.601,0.012,0.901c-0.197,1.859-1.153,3.389-2.191,4.862
	c-0.217,0.307-0.706,0.559-1.083,0.584c-1.379,0.095-2.648-1.229-2.598-2.61C140.739,62.087,141.448,60.661,143.293,60.076
	 M133.203,81.297c-0.665,0.575-1.472,0.993-2.382,1.081c-0.074-0.094-0.142-0.179-0.216-0.265c0.635-0.745,1.182-1.602,1.931-2.203
	c1.798-1.425,3.089-3.219,4.113-5.229c1.048-2.059,1.223-4.155,0.283-6.295c-1.29,0.16-1.445,0.253-1.383,1.288
	c0.158,2.392-0.604,4.501-1.947,6.412c-0.465,0.672-1.107,1.212-1.748,1.893c-0.687-2.468-0.646-4.723-0.006-6.952
	c0.323-1.136,0.888-2.153,1.804-2.932c1.235-1.063,2.71-1.623,4.283-1.986c0.562-0.13,0.999-0.021,1.342,0.478
	c0.705,1.01,1.221,2.085,1.152,3.347c-0.133,2.278-0.754,4.369-2.193,6.209C136.74,78.048,135.019,79.72,133.203,81.297
	 M144.936,93.237c-1.243-0.229-1.415-0.366-1.492-1.625c-0.161-2.511-0.01-5.04-1.138-7.443c-0.37-0.794-0.751-1.411-1.437-1.854
	c-0.906-0.598-1.886-1.014-3.011-1.011c-0.362-0.003-0.728-0.146-1.346-0.282c1.124-1.273,2.06-2.33,2.989-3.387
	c0.086-0.096,0.159-0.239,0.266-0.279c0.423-0.149,0.869-0.395,1.295-0.369c2.16,0.121,3.396,2.186,3.746,4.178
	c0.448,2.54,0.728,5.103,1.141,7.647c0.127,0.743,0.456,1.422,1.006,2.037c0.643,0.723,1.448,0.654,2.234,0.711
	c1.305,0.091,2.33,0.614,3.241,1.789C149.806,93.328,147.374,93.681,144.936,93.237"/>
</svg>
