<?xml version="1.0" encoding="utf-8"?>
<!-- Generator: Adobe Illustrator 15.1.0, SVG Export Plug-In . SVG Version: 6.00 Build 0)  -->
<!DOCTYPE svg PUBLIC "-//W3C//DTD SVG 1.1//EN" "http://www.w3.org/Graphics/SVG/1.1/DTD/svg11.dtd">
<svg version="1.1" id="Layer_1" xmlns="http://www.w3.org/2000/svg" xmlns:xlink="http://www.w3.org/1999/xlink" x="0px" y="0px"
	 width="615.957px" height="590.425px" viewBox="0 0 615.957 590.425" enable-background="new 0 0 615.957 590.425"
	 xml:space="preserve">
<g>
	<g>
		<polygon fill="#FFFFFF" points="251.936,251.894 245.123,254.451 238.459,257.049 231.925,259.999 225.173,262.375 
			218.386,264.659 211.689,267.185 205.137,270.083 198.443,272.623 191.723,275.108 185.049,277.621 185.943,284.762 
			186.353,291.987 186.978,299.187 188.044,306.345 188.694,313.546 189.444,320.735 190.186,327.928 190.852,335.126 
			191.493,342.33 191.944,349.55 192.979,356.715 193.668,363.913 194.184,371.129 195.179,378.299 195.736,385.513 
			196.723,392.682 197.225,399.902 197.929,407.102 198.886,414.272 199.133,421.516 200.045,428.694 200.847,435.882 
			201.64,443.074 202.287,450.277 202.731,457.505 203.482,464.709 204.399,471.889 211.578,471.902 218.766,472.027 
			225.947,472.337 233.135,472.167 240.325,472.101 247.509,472.198 254.698,472.258 261.885,472.287 269.072,472.458 
			276.257,472.817 283.446,472.916 290.635,472.908 297.826,472.807 305.019,472.751 312.207,472.926 319.399,472.791 
			326.59,472.935 333.781,473.017 340.967,473.204 348.155,473.526 355.35,473.121 362.536,473.677 369.729,473.725 376.92,473.492 
			384.114,473.752 391.312,474.149 398.524,474.149 398.521,466.764 398.793,459.487 399.225,452.254 399.622,445.046 
			399.959,437.845 400.107,430.639 400.434,423.448 400.548,416.245 400.647,409.044 401.203,401.858 401.506,394.665 
			401.744,387.467 401.859,380.267 402.125,373.069 402.201,365.865 402.291,358.661 402.627,351.465 402.831,344.265 
			403.438,337.078 403.643,329.881 403.991,322.687 404.061,315.482 404.462,308.29 404.413,301.079 404.983,293.894 
			405.273,286.692 405.171,279.473 405.484,272.324 398.925,270.149 392.297,267.985 385.776,265.507 379.104,263.473 
			372.615,260.897 365.949,258.853 359.391,256.474 352.791,254.2 346.08,251.956 340.725,256.865 335.531,261.815 330.007,266.397 
			324.845,271.384 319.492,276.154 314.225,281.027 308.926,285.874 303.53,290.788 297.913,286.167 291.995,282.143 
			286.202,277.949 280.709,273.354 274.878,269.208 269.248,264.8 263.389,260.688 257.632,256.431 		"/>
		
			<polygon fill="none" stroke="#000000" stroke-width="5" stroke-linecap="round" stroke-linejoin="round" stroke-miterlimit="10" points="
			251.936,251.894 245.123,254.451 238.459,257.049 231.925,259.999 225.173,262.375 218.386,264.659 211.689,267.185 
			205.137,270.083 198.443,272.623 191.723,275.108 185.049,277.621 185.943,284.762 186.353,291.987 186.978,299.187 
			188.044,306.345 188.694,313.546 189.444,320.735 190.186,327.928 190.852,335.126 191.493,342.33 191.944,349.55 
			192.979,356.715 193.668,363.913 194.184,371.129 195.179,378.299 195.736,385.513 196.723,392.682 197.225,399.902 
			197.929,407.102 198.886,414.272 199.133,421.516 200.045,428.694 200.847,435.882 201.64,443.074 202.287,450.277 
			202.731,457.505 203.482,464.709 204.399,471.889 211.578,471.902 218.766,472.027 225.947,472.337 233.135,472.167 
			240.325,472.101 247.509,472.198 254.698,472.258 261.885,472.287 269.072,472.458 276.257,472.817 283.446,472.916 
			290.635,472.908 297.826,472.807 305.019,472.751 312.207,472.926 319.399,472.791 326.59,472.935 333.781,473.017 
			340.967,473.204 348.155,473.526 355.35,473.121 362.536,473.677 369.729,473.725 376.92,473.492 384.114,473.502 
			391.312,473.649 398.524,473.649 398.521,466.514 398.793,459.362 399.225,452.192 399.622,445.015 399.959,437.83 
			400.107,430.631 400.434,423.444 400.548,416.243 400.647,409.043 401.203,401.858 401.506,394.665 401.744,387.467 
			401.859,380.267 402.125,373.069 402.201,365.865 402.291,358.661 402.627,351.465 402.831,344.265 403.438,337.078 
			403.643,329.881 403.991,322.687 404.061,315.482 404.462,308.29 404.413,301.079 404.983,293.894 405.273,286.692 
			405.171,279.473 405.484,272.324 398.925,270.149 392.297,267.985 385.776,265.507 379.104,263.473 372.615,260.897 
			365.949,258.853 359.391,256.474 352.791,254.2 346.08,251.956 340.725,256.865 335.531,261.815 330.007,266.397 324.845,271.384 
			319.492,276.154 314.225,281.027 308.926,285.874 303.53,290.788 297.913,286.167 291.995,282.143 286.202,277.949 
			280.709,273.354 274.878,269.208 269.248,264.8 263.389,260.688 257.632,256.431 		"/>
	</g>
	<g>
		<g>
			<polygon fill="#FFFFFF" points="402.884,561.167 395.771,561.805 388.592,561.49 381.418,561.581 374.251,562.18 
				367.066,561.353 359.9,561.862 352.73,562.15 345.56,562.419 338.383,562.397 331.203,561.966 324.027,562.149 316.852,562.672 
				309.584,562.868 308.84,555.449 308.508,548.07 307.22,540.796 306.141,533.498 305.381,526.162 304.552,518.834 303.658,511.51 
				303.184,504.279 302.097,511.407 301.385,518.709 300.884,526.031 300.57,533.37 300.167,540.704 299.305,547.995 
				299.06,555.346 298.155,562.849 290.515,562.839 283.084,562.542 275.656,561.971 268.214,562.856 260.793,561.819 
				253.361,561.797 245.923,562.339 238.491,562.237 231.059,561.865 223.621,561.932 216.182,562.388 208.742,562.282 
				201.246,561.83 201.597,554.315 201.854,546.859 201.73,539.399 201.964,531.941 201.773,524.483 201.554,517.022 
				202.248,509.572 202.435,502.115 202.493,494.655 202.303,487.19 202.416,479.729 202.147,472.26 202.054,464.446 
				209.694,464.47 216.981,464.38 224.265,465.094 231.55,465.005 238.838,465.202 246.123,464.839 253.412,465.144 
				260.698,464.545 267.986,465.189 275.273,465.269 282.562,464.562 289.85,464.658 297.14,464.61 304.431,464.465 311.721,464.98 
				319.01,464.557 326.301,465.278 333.593,464.877 340.88,465.183 348.17,465.259 355.46,465.262 362.75,465.108 370.042,464.725 
				377.337,465.333 384.629,464.853 391.927,464.951 399.315,464.82 399.734,472.31 400.164,479.71 399.668,487.147 
				400.571,494.532 401.053,501.927 400.534,509.365 401.139,516.758 401.084,524.177 401.775,531.57 402.112,538.979 
				401.971,546.404 402.208,553.818 			"/>
			
				<polygon fill="none" stroke="#000000" stroke-width="5" stroke-linecap="round" stroke-linejoin="round" stroke-miterlimit="10" points="
				402.884,561.167 395.771,561.805 388.592,561.49 381.418,561.581 374.251,562.18 367.066,561.353 359.9,561.862 352.73,562.15 
				345.56,562.419 338.383,562.397 331.203,561.966 324.027,562.149 316.852,562.672 309.584,562.868 308.84,555.449 
				308.508,548.07 307.22,540.796 306.141,533.498 305.381,526.162 304.552,518.834 303.658,511.51 303.184,504.279 
				302.097,511.407 301.385,518.709 300.884,526.031 300.57,533.37 300.167,540.704 299.305,547.995 299.06,555.346 
				298.155,562.849 290.515,562.839 283.084,562.542 275.656,561.971 268.214,562.856 260.793,561.819 253.361,561.797 
				245.923,562.339 238.491,562.237 231.059,561.865 223.621,561.932 216.182,562.388 208.742,562.282 201.246,561.83 
				201.597,554.315 201.854,546.859 201.73,539.399 201.964,531.941 201.773,524.483 201.554,517.022 202.248,509.572 
				202.435,502.115 202.493,494.655 202.303,487.19 202.416,479.729 202.147,472.26 202.054,464.446 209.694,464.47 216.981,464.38 
				224.265,465.094 231.55,465.005 238.838,465.202 246.123,464.839 253.412,465.144 260.698,464.545 267.986,465.189 
				275.273,465.269 282.562,464.562 289.85,464.658 297.14,464.61 304.431,464.465 311.721,464.98 319.01,464.557 326.301,465.278 
				333.593,464.877 340.88,465.183 348.17,465.259 355.46,465.262 362.75,465.108 370.042,464.725 377.337,465.333 384.629,464.853 
				391.927,464.951 399.315,464.82 399.734,472.31 400.164,479.71 399.668,487.147 400.571,494.532 401.053,501.927 
				400.534,509.365 401.139,516.758 401.084,524.177 401.775,531.57 402.112,538.979 401.971,546.404 402.208,553.818 			"/>
		</g>
	</g>
	
		<polygon fill="#FFFFFF" stroke="#000000" stroke-width="5" stroke-linecap="round" stroke-linejoin="round" stroke-miterlimit="10" points="
		268.943,213.345 245.272,256.55 301.658,283.559 354.303,258.664 321.318,209.805 	"/>
	<g>
		<path fill="#00C7E9" d="M221.57,152.52c-0.459-2.362-1.093-4.645-1.482-6.926c-0.406-2.378-0.568-4.741-0.9-7.026
			c-0.348-2.393-0.816-4.71-1.085-6.997c-0.283-2.41-0.715-4.741-0.913-7.026c-0.21-2.427-0.19-4.798-0.306-7.078
			c-0.125-2.447-0.374-4.805-0.394-7.074c-0.022-2.47,0.139-4.833,0.237-7.081c0.109-2.497,0.066-4.88,0.318-7.087
			c0.289-2.529,1.099-4.793,1.566-6.918c0.563-2.562,1.021-4.884,1.832-6.82c1.066-2.547,2.532-4.36,3.994-5.736
			c1.862-1.752,3.883-2.671,6.321-2.343c0.345-2.485,0.634-4.909,1.289-7.16c0.695-2.389,1.806-4.571,2.819-6.707
			c1.055-2.223,2.045-4.466,3.412-6.427c1.392-1.997,3.241-3.621,4.917-5.359c1.675-1.736,3.396-3.427,5.318-4.917
			c1.897-1.47,3.903-2.824,6.005-4.068c2.062-1.22,4.302-2.136,6.527-3.15c2.181-0.995,4.286-2.247,6.591-3.055
			c2.267-0.794,4.569-1.606,6.925-2.231c2.328-0.617,4.802-0.675,7.188-1.137c2.373-0.459,4.727-1.036,7.128-1.353
			c2.405-0.316,4.825-0.439,7.23-0.623c2.43-0.185,4.842-0.373,7.242-0.432c2.476-0.061,4.894-0.292,7.246-0.197
			c2.476,0.099,4.863,0.547,7.203,0.812c2.46,0.278,4.886,0.383,7.197,0.835c2.427,0.475,4.678,1.416,6.942,2.073
			c2.37,0.688,4.737,1.199,6.932,2.076c2.285,0.913,4.458,1.967,6.556,3.074c2.168,1.143,4.29,2.309,6.261,3.645
			c2.02,1.369,3.717,3.107,5.532,4.664c1.844,1.581,3.914,2.908,5.55,4.667c1.646,1.77,3.123,3.707,4.562,5.643
			c1.438,1.933,2.602,4.061,3.836,6.143c1.226,2.066,2.376,4.181,3.404,6.378c1.016,2.171,2.207,4.301,3.033,6.586
			c0.814,2.252,1.102,4.694,1.735,7.042c0.623,2.311,1.288,4.625,1.738,7.015c0.444,2.353,0.785,4.737,1.063,7.153
			c0.274,2.379,0.589,4.773,0.707,7.202c0.115,2.393,0.381,4.812,0.347,7.242c-0.034,2.397-0.573,4.793-0.751,7.215
			c-0.176,2.393-0.46,4.78-0.774,7.186c-0.312,2.381-0.57,4.776-1.016,7.159c-0.44,2.363-0.696,4.779-1.267,7.134
			c-0.565,2.338-1.341,4.633-2.032,6.953c-0.688,2.307-1.292,4.654-2.102,6.934c-0.807,2.271-1.776,4.49-2.701,6.723
			c-0.923,2.228-2.046,4.368-3.085,6.549c-1.037,2.178-2.197,4.288-3.35,6.41c-1.151,2.121-2.094,4.364-3.357,6.419
			c-1.265,2.057-2.569,4.098-3.944,6.079c-1.378,1.984-3.118,3.697-4.604,5.596c-1.489,1.903-3.024,3.747-4.621,5.554
			c-1.6,1.811-3.199,3.602-4.904,5.307c-1.782,1.783-3.202,3.764-4.866,5.324c-1.851,1.734-3.757,3.205-5.479,4.675
			c-1.943,1.659-3.982,2.933-5.788,4.271c-2.068,1.532-4.046,2.828-5.972,3.96c-2.221,1.307-4.189,2.693-6.278,3.503
			c-2.36,0.916-4.687,1.527-6.963,1.859c-2.395,0.349-4.794,0.323-7.197,0.085c-2.303-0.228-4.642-0.726-7.045-1.438
			c-2.177-0.645-4.487-1.323-6.819-2.322c-2.083-0.893-4.115-2.201-6.373-3.346c-2.031-1.03-4.095-2.237-6.304-3.45
			c-2.007-1.101-4.265-1.968-6.446-3.204c-2.003-1.134-4.051-2.38-6.222-3.615c-2.124-1.208-4.18-2.409-6.126-3.658
			c-2.055-1.318-4.034-2.648-5.898-4.021c-1.961-1.445-3.794-2.97-5.551-4.487c-1.837-1.586-3.515-3.274-5.137-4.95
			c-1.676-1.732-3.031-3.685-4.486-5.527c-1.481-1.876-3.106-3.621-4.368-5.626c-1.262-2.003-2.394-4.095-3.446-6.242
			c-1.033-2.107-1.779-4.362-2.619-6.622c-0.813-2.185-1.802-4.357-2.443-6.697C222.245,157.295,222.034,154.91,221.57,152.52z"/>
		<path fill="none" stroke="#000000" stroke-width="5" stroke-linecap="round" stroke-linejoin="round" stroke-miterlimit="10" d="
			M221.57,152.52c-0.459-2.362-1.093-4.645-1.482-6.926c-0.406-2.378-0.568-4.741-0.9-7.026c-0.348-2.393-0.816-4.71-1.085-6.997
			c-0.283-2.41-0.715-4.741-0.913-7.026c-0.21-2.427-0.19-4.798-0.306-7.078c-0.125-2.447-0.374-4.805-0.394-7.074
			c-0.022-2.47,0.139-4.833,0.237-7.081c0.109-2.497,0.066-4.88,0.318-7.087c0.289-2.529,1.099-4.793,1.566-6.918
			c0.563-2.562,1.021-4.884,1.832-6.82c1.066-2.547,2.532-4.36,3.994-5.736c1.862-1.752,3.883-2.671,6.321-2.343
			c0.345-2.485,0.634-4.909,1.289-7.16c0.695-2.389,1.806-4.571,2.819-6.707c1.055-2.223,2.045-4.466,3.412-6.427
			c1.392-1.997,3.241-3.621,4.917-5.359c1.675-1.736,3.396-3.427,5.318-4.917c1.897-1.47,3.903-2.824,6.005-4.068
			c2.062-1.22,4.302-2.136,6.527-3.15c2.181-0.995,4.286-2.247,6.591-3.055c2.267-0.794,4.569-1.606,6.925-2.231
			c2.328-0.617,4.802-0.675,7.188-1.137c2.373-0.459,4.727-1.036,7.128-1.353c2.405-0.316,4.825-0.439,7.23-0.623
			c2.43-0.185,4.842-0.373,7.242-0.432c2.476-0.061,4.894-0.292,7.246-0.197c2.476,0.099,4.863,0.547,7.203,0.812
			c2.46,0.278,4.886,0.383,7.197,0.835c2.427,0.475,4.678,1.416,6.942,2.073c2.37,0.688,4.737,1.199,6.932,2.076
			c2.285,0.913,4.458,1.967,6.556,3.074c2.168,1.143,4.29,2.309,6.261,3.645c2.02,1.369,3.717,3.107,5.532,4.664
			c1.844,1.581,3.914,2.908,5.55,4.667c1.646,1.77,3.123,3.707,4.562,5.643c1.438,1.933,2.602,4.061,3.836,6.143
			c1.226,2.066,2.376,4.181,3.404,6.378c1.016,2.171,2.207,4.301,3.033,6.586c0.814,2.252,1.102,4.694,1.735,7.042
			c0.623,2.311,1.288,4.625,1.738,7.015c0.444,2.353,0.785,4.737,1.063,7.153c0.274,2.379,0.589,4.773,0.707,7.202
			c0.115,2.393,0.381,4.812,0.347,7.242c-0.034,2.397-0.573,4.793-0.751,7.215c-0.176,2.393-0.46,4.78-0.774,7.186
			c-0.312,2.381-0.57,4.776-1.016,7.159c-0.44,2.363-0.696,4.779-1.267,7.134c-0.565,2.338-1.341,4.633-2.032,6.953
			c-0.688,2.307-1.292,4.654-2.102,6.934c-0.807,2.271-1.776,4.49-2.701,6.723c-0.923,2.228-2.046,4.368-3.085,6.549
			c-1.037,2.178-2.197,4.288-3.35,6.41c-1.151,2.121-2.094,4.364-3.357,6.419c-1.265,2.057-2.569,4.098-3.944,6.079
			c-1.378,1.984-3.118,3.697-4.604,5.596c-1.489,1.903-3.024,3.747-4.621,5.554c-1.6,1.811-3.199,3.602-4.904,5.307
			c-1.782,1.783-3.202,3.764-4.866,5.324c-1.851,1.734-3.757,3.205-5.479,4.675c-1.943,1.659-3.982,2.933-5.788,4.271
			c-2.068,1.532-4.046,2.828-5.972,3.96c-2.221,1.307-4.189,2.693-6.278,3.503c-2.36,0.916-4.687,1.527-6.963,1.859
			c-2.395,0.349-4.794,0.323-7.197,0.085c-2.303-0.228-4.642-0.726-7.045-1.438c-2.177-0.645-4.487-1.323-6.819-2.322
			c-2.083-0.893-4.115-2.201-6.373-3.346c-2.031-1.03-4.095-2.237-6.304-3.45c-2.007-1.101-4.265-1.968-6.446-3.204
			c-2.003-1.134-4.051-2.38-6.222-3.615c-2.124-1.208-4.18-2.409-6.126-3.658c-2.055-1.318-4.034-2.648-5.898-4.021
			c-1.961-1.445-3.794-2.97-5.551-4.487c-1.837-1.586-3.515-3.274-5.137-4.95c-1.676-1.732-3.031-3.685-4.486-5.527
			c-1.481-1.876-3.106-3.621-4.368-5.626c-1.262-2.003-2.394-4.095-3.446-6.242c-1.033-2.107-1.779-4.362-2.619-6.622
			c-0.813-2.185-1.802-4.357-2.443-6.697C222.245,157.295,222.034,154.91,221.57,152.52z"/>
	</g>
	<g>
		<path fill="#FFFFFF" d="M374.665,142.731c2.362-1.528,4.364-2.279,6.131-2.487c2.579-0.303,4.703,0.582,6.161,2.268
			c1.32,1.528,2.197,3.767,2.736,6.161c0.477,2.116,0.466,4.454,0.43,6.709c-0.038,2.382-0.423,4.658-0.928,6.618
			c-0.33,1.286-1.379,4.051-3.048,6.755c-1.325,2.148-2.989,4.114-5.054,5.269c-2.054,1.149-4.271,1.814-6.962,0.328
			c-0.473,2.402-0.89,4.582-1.463,6.871c-0.595,2.376-1.318,4.678-2.016,6.933c-0.724,2.34-1.782,4.514-2.61,6.722
			c-0.859,2.294-1.729,4.524-2.694,6.675c-1.004,2.235-1.817,4.511-2.928,6.591c-1.154,2.161-2.434,4.204-3.694,6.197
			c-1.31,2.07-2.587,4.117-4.003,6.005c-1.468,1.958-2.959,3.864-4.531,5.626c-1.628,1.824-3.544,3.317-5.272,4.93
			c-1.784,1.666-3.457,3.409-5.336,4.848c-1.936,1.482-4.027,2.688-6.048,3.927c-2.073,1.271-4.198,2.375-6.347,3.39
			c-2.193,1.037-4.319,2.201-6.575,2.968c-2.29,0.779-4.653,1.303-6.989,1.803c-2.357,0.504-4.741,0.855-7.128,1.074
			c-2.455,0.225-4.911,0.18-7.355,0.087c-2.454-0.094-4.864-0.491-7.287-0.889c-2.416-0.396-4.846-0.726-7.211-1.407
			c-2.349-0.676-4.734-1.324-7.013-2.264c-2.257-0.931-4.294-2.359-6.465-3.532c-2.148-1.161-4.449-2.096-6.493-3.477
			c-2.023-1.367-3.847-3.035-5.751-4.602c-1.886-1.553-3.74-3.156-5.492-4.89c-1.737-1.72-3.397-3.526-4.984-5.41
			c-1.576-1.87-2.944-3.903-4.356-5.92c-1.403-2.004-3.074-3.854-4.299-5.988c-1.218-2.123-2.333-4.333-3.359-6.57
			c-1.02-2.224-1.537-4.662-2.351-6.985c-0.809-2.308-1.882-4.546-2.472-6.938c-0.585-2.372-0.74-4.842-1.096-7.283
			c-0.352-2.413-0.698-5.053-0.812-7.522c-2.113,1.785-4.58,2.272-7.069,1.486c-2.041-0.645-4.167-1.927-6.068-4.213
			c-1.417-1.705-2.555-3.942-3.722-6.521c-0.947-2.094-1.933-4.398-2.627-7.049c-0.595-2.271-1.272-4.714-1.628-7.382
			c-0.334-2.507-0.064-4.785,0.359-6.759c0.533-2.484,1.459-4.615,2.874-6.085c1.629-1.693,3.828-2.575,6.12-2.656
			c2.035-0.072,4.361,0.362,6.514,1.774c1.658,1.087,3.158,3.039,4.687,5.11c1.406-2.067,2.63-4.33,3.764-6.432
			c1.151-2.133,2.404-4.22,3.271-6.53c0.824-2.195,1.318-4.578,1.884-7.059c0.511-2.24,0.692-4.647,0.99-7.215
			c0.263-2.269,0.702-4.656,0.797-7.247c0.085-2.285-0.172-4.705-0.218-7.287c-0.041-2.299,0.255-4.737,0.11-7.304
			c-0.131-2.308-0.423-4.723-0.639-7.27c-0.196-2.316-0.437-4.717-0.704-7.249c2.201,0.986,4.288,2.121,6.465,2.998
			c2.238,0.901,4.601,1.388,6.811,2.177c2.272,0.812,4.555,1.463,6.793,2.163c2.303,0.72,4.451,1.853,6.715,2.458
			c2.333,0.624,4.696,1,6.983,1.509c2.359,0.524,4.673,1.112,6.978,1.521c2.381,0.422,4.75,0.716,7.068,1.021
			c2.4,0.315,4.791,0.323,7.119,0.521c2.416,0.206,4.773,0.615,7.104,0.704c2.428,0.092,4.812-0.143,7.141-0.168
			c2.433-0.027,4.827,0.269,7.145,0.125c2.438-0.151,4.788-0.651,7.088-0.919c2.435-0.283,4.794-0.584,7.062-0.982
			c2.428-0.426,4.735-1.005,6.959-1.544c2.416-0.585,4.809-0.896,6.968-1.591c2.398-0.771,4.467-2.053,6.524-2.926
			c2.369-1.005,4.53-1.966,6.413-3.059c2.326-1.349,4.312-2.556,5.831-3.949c1.064,2.058,2.042,4.208,2.981,6.538
			c0.876,2.174,1.972,4.362,2.737,6.725c0.729,2.25,0.967,4.706,1.594,7.085c0.606,2.306,1.294,4.625,1.804,7.016
			c0.501,2.349,0.936,4.729,1.34,7.124c0.403,2.383,0.877,4.761,1.184,7.155c0.31,2.413,0.795,4.805,1.005,7.195
			c0.215,2.439-0.054,4.888,0.056,7.266C374.38,138.067,374.665,140.372,374.665,142.731z"/>
		<path fill="none" stroke="#000000" stroke-width="5" stroke-linecap="round" stroke-linejoin="round" stroke-miterlimit="10" d="
			M374.665,142.731c2.362-1.528,4.364-2.279,6.131-2.487c2.579-0.303,4.703,0.582,6.161,2.268c1.32,1.528,2.197,3.767,2.736,6.161
			c0.477,2.116,0.466,4.454,0.43,6.709c-0.038,2.382-0.423,4.658-0.928,6.618c-0.33,1.286-1.379,4.051-3.048,6.755
			c-1.325,2.148-2.989,4.114-5.054,5.269c-2.054,1.149-4.271,1.814-6.962,0.328c-0.473,2.402-0.89,4.582-1.463,6.871
			c-0.595,2.376-1.318,4.678-2.016,6.933c-0.724,2.34-1.782,4.514-2.61,6.722c-0.859,2.294-1.729,4.524-2.694,6.675
			c-1.004,2.235-1.817,4.511-2.928,6.591c-1.154,2.161-2.434,4.204-3.694,6.197c-1.31,2.07-2.587,4.117-4.003,6.005
			c-1.468,1.958-2.959,3.864-4.531,5.626c-1.628,1.824-3.544,3.317-5.272,4.93c-1.784,1.666-3.457,3.409-5.336,4.848
			c-1.936,1.482-4.027,2.688-6.048,3.927c-2.073,1.271-4.198,2.375-6.347,3.39c-2.193,1.037-4.319,2.201-6.575,2.968
			c-2.29,0.779-4.653,1.303-6.989,1.803c-2.357,0.504-4.741,0.855-7.128,1.074c-2.455,0.225-4.911,0.18-7.355,0.087
			c-2.454-0.094-4.864-0.491-7.287-0.889c-2.416-0.396-4.846-0.726-7.211-1.407c-2.349-0.676-4.734-1.324-7.013-2.264
			c-2.257-0.931-4.294-2.359-6.465-3.532c-2.148-1.161-4.449-2.096-6.493-3.477c-2.023-1.367-3.847-3.035-5.751-4.602
			c-1.886-1.553-3.74-3.156-5.492-4.89c-1.737-1.72-3.397-3.526-4.984-5.41c-1.576-1.87-2.944-3.903-4.356-5.92
			c-1.403-2.004-3.074-3.854-4.299-5.988c-1.218-2.123-2.333-4.333-3.359-6.57c-1.02-2.224-1.537-4.662-2.351-6.985
			c-0.809-2.308-1.882-4.546-2.472-6.938c-0.585-2.372-0.74-4.842-1.096-7.283c-0.352-2.413-0.698-5.053-0.812-7.522
			c-2.113,1.785-4.58,2.272-7.069,1.486c-2.041-0.645-4.167-1.927-6.068-4.213c-1.417-1.705-2.555-3.942-3.722-6.521
			c-0.947-2.094-1.933-4.398-2.627-7.049c-0.595-2.271-1.272-4.714-1.628-7.382c-0.334-2.507-0.064-4.785,0.359-6.759
			c0.533-2.484,1.459-4.615,2.874-6.085c1.629-1.693,3.828-2.575,6.12-2.656c2.035-0.072,4.361,0.362,6.514,1.774
			c1.658,1.087,3.158,3.039,4.687,5.11c1.406-2.067,2.63-4.33,3.764-6.432c1.151-2.133,2.404-4.22,3.271-6.53
			c0.824-2.195,1.318-4.578,1.884-7.059c0.511-2.24,0.692-4.647,0.99-7.215c0.263-2.269,0.702-4.656,0.797-7.247
			c0.085-2.285-0.172-4.705-0.218-7.287c-0.041-2.299,0.255-4.737,0.11-7.304c-0.131-2.308-0.423-4.723-0.639-7.27
			c-0.196-2.316-0.437-4.717-0.704-7.249c2.201,0.986,4.288,2.121,6.465,2.998c2.238,0.901,4.601,1.388,6.811,2.177
			c2.272,0.812,4.555,1.463,6.793,2.163c2.303,0.72,4.451,1.853,6.715,2.458c2.333,0.624,4.696,1,6.983,1.509
			c2.359,0.524,4.673,1.112,6.978,1.521c2.381,0.422,4.75,0.716,7.068,1.021c2.4,0.315,4.791,0.323,7.119,0.521
			c2.416,0.206,4.773,0.615,7.104,0.704c2.428,0.092,4.812-0.143,7.141-0.168c2.433-0.027,4.827,0.269,7.145,0.125
			c2.438-0.151,4.788-0.651,7.088-0.919c2.435-0.283,4.794-0.584,7.062-0.982c2.428-0.426,4.735-1.005,6.959-1.544
			c2.416-0.585,4.809-0.896,6.968-1.591c2.398-0.771,4.467-2.053,6.524-2.926c2.369-1.005,4.53-1.966,6.413-3.059
			c2.326-1.349,4.312-2.556,5.831-3.949c1.064,2.058,2.042,4.208,2.981,6.538c0.876,2.174,1.972,4.362,2.737,6.725
			c0.729,2.25,0.967,4.706,1.594,7.085c0.606,2.306,1.294,4.625,1.804,7.016c0.501,2.349,0.936,4.729,1.34,7.124
			c0.403,2.383,0.877,4.761,1.184,7.155c0.31,2.413,0.795,4.805,1.005,7.195c0.215,2.439-0.054,4.888,0.056,7.266
			C374.38,138.067,374.665,140.372,374.665,142.731z"/>
	</g>
	<g>
		<path fill="#FFFFFF" d="M300.521,277.558c-3.699,0.101-1.471,3.431-2.854,6.863c-1.381,3.43-1.116,3.537-2.497,6.967
			c-1.382,3.432-1.693,3.307-3.075,6.739c-1.382,3.433-1.415,3.419-2.796,6.851s-1.205,3.503-2.587,6.935
			c-1.382,3.434-1.343,3.449-2.725,6.882c-1.381,3.431-1.405,3.422-2.786,6.853c-1.383,3.434-1.325,3.457-2.707,6.892
			c-1.384,3.436-1.687,3.314-3.07,6.75c-1.384,3.437-3.25,3.321-2.699,6.984c0.5,3.33,2.56,2.339,4.833,4.822
			c2.273,2.484,2.002,2.732,4.275,5.217c2.274,2.484,2.583,2.203,4.856,4.688c2.273,2.483,2.065,2.674,4.338,5.157
			c2.275,2.485,2.388,2.382,4.663,4.867c2.276,2.487,2.122,2.629,4.397,5.116c2.277,2.487,1.261,5.006,4.633,5.013
			c3.477,0.008,2.301-2.727,4.74-5.204c2.44-2.478,2.457-2.462,4.897-4.94c2.438-2.478,2.407-2.509,4.846-4.985
			c2.441-2.479,2.673-2.251,5.113-4.73c2.443-2.48,2.487-2.438,4.93-4.919c2.443-2.48,4.055-1.668,4.598-5.106
			c0.573-3.635-1.221-3.384-2.743-6.733s-1.726-3.257-3.248-6.606c-1.521-3.348-1.434-3.388-2.955-6.735
			c-1.521-3.349-1.72-3.259-3.241-6.608c-1.522-3.349-1.138-3.523-2.659-6.873c-1.522-3.349-1.601-3.313-3.123-6.662
			c-1.521-3.351-1.457-3.38-2.979-6.729c-1.521-3.349-1.825-3.211-3.347-6.559c-1.523-3.352-1.353-3.429-2.876-6.78
			c-1.523-3.354-2.496-3.048-3.142-6.674C302.804,280.222,304.204,277.458,300.521,277.558z"/>
		<path fill="none" stroke="#000000" stroke-width="5" stroke-linecap="round" stroke-linejoin="round" stroke-miterlimit="10" d="
			M300.521,277.558c-3.699,0.101-1.471,3.431-2.854,6.863c-1.381,3.43-1.116,3.537-2.497,6.967
			c-1.382,3.432-1.693,3.307-3.075,6.739c-1.382,3.433-1.415,3.419-2.796,6.851s-1.205,3.503-2.587,6.935
			c-1.382,3.434-1.343,3.449-2.725,6.882c-1.381,3.431-1.405,3.422-2.786,6.853c-1.383,3.434-1.325,3.457-2.707,6.892
			c-1.384,3.436-1.687,3.314-3.07,6.75c-1.384,3.437-3.25,3.321-2.699,6.984c0.5,3.33,2.56,2.339,4.833,4.822
			c2.273,2.484,2.002,2.732,4.275,5.217c2.274,2.484,2.583,2.203,4.856,4.688c2.273,2.483,2.065,2.674,4.338,5.157
			c2.275,2.485,2.388,2.382,4.663,4.867c2.276,2.487,2.122,2.629,4.397,5.116c2.277,2.487,1.261,5.006,4.633,5.013
			c3.477,0.008,2.301-2.727,4.74-5.204c2.44-2.478,2.457-2.462,4.897-4.94c2.438-2.478,2.407-2.509,4.846-4.985
			c2.441-2.479,2.673-2.251,5.113-4.73c2.443-2.48,2.487-2.438,4.93-4.919c2.443-2.48,4.055-1.668,4.598-5.106
			c0.573-3.635-1.221-3.384-2.743-6.733s-1.726-3.257-3.248-6.606c-1.521-3.348-1.434-3.388-2.955-6.735
			c-1.521-3.349-1.72-3.259-3.241-6.608c-1.522-3.349-1.138-3.523-2.659-6.873c-1.522-3.349-1.601-3.313-3.123-6.662
			c-1.521-3.351-1.457-3.38-2.979-6.729c-1.521-3.349-1.825-3.211-3.347-6.559c-1.523-3.352-1.353-3.429-2.876-6.78
			c-1.523-3.354-2.496-3.048-3.142-6.674C302.804,280.222,304.204,277.458,300.521,277.558z"/>
	</g>
	<g>
		<path fill="#FFFFFF" d="M279.752,269.936c-1.639,3.385,1.849,3.294,3.71,6.562c1.862,3.271,1.844,3.282,3.707,6.553
			c1.863,3.274,1.966,3.215,3.83,6.489s0.473,4.587,3.613,6.668c2.829,1.874,3.437,0.263,6.824,0.468
			c3.387,0.205,3.811,1.906,6.727,0.17c2.954-1.758,1.682-2.939,3.162-6.042c1.479-3.102,1.219-3.225,2.698-6.327
			c1.48-3.104,1.698-3,3.179-6.104c1.481-3.106,1.477-3.108,2.958-6.215c1.48-3.106,4.812-3.419,2.72-6.151
			c-2.2-2.873-3.464,0.183-7.066,0.52c-3.604,0.337-3.599,0.396-7.202,0.733c-3.601,0.337-3.624,0.097-7.225,0.434
			c-3.604,0.337-3.581,0.595-7.185,0.932c-3.607,0.337-3.604,0.977-7.188,0.442C283.056,268.479,281.331,266.675,279.752,269.936z"
			/>
		<path fill="none" stroke="#000000" stroke-width="5" stroke-linecap="round" stroke-linejoin="round" stroke-miterlimit="10" d="
			M279.752,269.936c-1.639,3.385,1.849,3.294,3.71,6.562c1.862,3.271,1.844,3.282,3.707,6.553c1.863,3.274,1.966,3.215,3.83,6.489
			s0.473,4.587,3.613,6.668c2.829,1.874,3.437,0.263,6.824,0.468c3.387,0.205,3.811,1.906,6.727,0.17
			c2.954-1.758,1.682-2.939,3.162-6.042c1.479-3.102,1.219-3.225,2.698-6.327c1.48-3.104,1.698-3,3.179-6.104
			c1.481-3.106,1.477-3.108,2.958-6.215c1.48-3.106,4.812-3.419,2.72-6.151c-2.2-2.873-3.464,0.183-7.066,0.52
			c-3.604,0.337-3.599,0.396-7.202,0.733c-3.601,0.337-3.624,0.097-7.225,0.434c-3.604,0.337-3.581,0.595-7.185,0.932
			c-3.607,0.337-3.604,0.977-7.188,0.442C283.056,268.479,281.331,266.675,279.752,269.936z"/>
	</g>
	<g>
		<polygon fill="#FFFFFF" points="248.581,240.781 254.95,244.713 261.489,248.097 268.08,251.384 274.403,255.169 281.082,258.291 
			287.302,262.269 294.109,265.178 300.249,269.11 295.01,274.374 289.875,279.875 284.715,285.361 279.758,291.505 
			274.368,285.773 268.425,281.183 262.884,276.135 257.277,271.168 251.66,266.204 245.896,261.395 240.371,256.197 
			244.416,248.473 		"/>
		
			<polygon fill="none" stroke="#000000" stroke-width="5" stroke-linecap="round" stroke-linejoin="round" stroke-miterlimit="10" points="
			248.581,240.781 254.95,244.713 261.489,248.097 268.08,251.384 274.403,255.169 281.082,258.291 287.302,262.269 
			294.109,265.178 300.249,269.11 295.01,274.374 289.875,279.875 284.715,285.361 279.758,291.505 274.368,285.773 
			268.425,281.183 262.884,276.135 257.277,271.168 251.66,266.204 245.896,261.395 240.371,256.197 244.416,248.473 		"/>
	</g>
	<g>
		<polygon fill="#FFFFFF" points="344.84,241.93 338.588,246.242 332.226,249.704 326.069,253.503 319.851,257.195 313.899,261.333 
			307.866,265.35 301.114,268.887 306.719,274.5 312.006,279.946 316.886,285.783 322.414,290.898 326.944,285.696 332.026,280.906 
			337.296,276.294 341.955,271.098 346.746,266.021 351.411,260.814 356.685,255.872 350.668,249.053 		"/>
		
			<polygon fill="none" stroke="#000000" stroke-width="5" stroke-linecap="round" stroke-linejoin="round" stroke-miterlimit="10" points="
			344.84,241.93 338.588,246.242 332.226,249.704 326.069,253.503 319.851,257.195 313.899,261.333 307.866,265.35 301.114,268.887 
			306.719,274.5 312.006,279.946 316.886,285.783 322.414,290.898 326.944,285.696 332.026,280.906 337.296,276.294 
			341.955,271.098 346.746,266.021 351.411,260.814 356.685,255.872 350.668,249.053 		"/>
	</g>
	<g>
		<path fill="none" stroke="#000000" stroke-width="5" stroke-linecap="round" stroke-linejoin="round" stroke-miterlimit="10" d="
			M308.411,151.925c0.669,3.543,0.796,2.776,1.491,7.062c0.338,2.083,0.669,4.522,1.043,7.142c0.323,2.273,0.235,4.744,0.526,7.203
			c0.282,2.385,0.662,4.791,0.862,7.162c0.211,2.497,0.371,4.928,0.434,7.198c0.074,2.701,0.202,5.171-0.024,7.215
			c-0.399,3.604-1.428,5.807-3.188,5.807c-2.585,0-4.885-0.068-6.763-0.515c-4.012-0.955-3.36-0.845-6.188-2.708"/>
	</g>
	<g>
		<path fill="none" stroke="#000000" stroke-width="5" stroke-linecap="round" stroke-linejoin="round" stroke-miterlimit="10" d="
			M279.665,210.249c0,1.828,0.896,4.284,2.666,6.526c1.341,1.697,3.31,3.194,5.426,4.562c1.906,1.232,4.123,2.05,6.499,2.638
			c2.195,0.543,4.528,1.093,7,0.794c2.179-0.264,4.438-1.038,6.745-2.162c1.94-0.945,3.745-2.438,5.722-4.117"/>
	</g>
	<g>
		<path fill="#FFFFFF" d="M260.499,108.468c3.418-2.077,3.016-1.604,7.46-2.711c2.316-0.577,4.96-1.014,7.859-0.854
			c2.491,0.137,5.052,0.656,7.679,1.826"/>
		<path fill="none" stroke="#000000" stroke-width="5" stroke-linecap="round" stroke-linejoin="round" stroke-miterlimit="10" d="
			M260.499,108.468c3.418-2.077,3.016-1.604,7.46-2.711c2.316-0.577,4.96-1.014,7.859-0.854c2.491,0.137,5.052,0.656,7.679,1.826"/>
	</g>
	<g>
		<path fill="#FFFFFF" d="M330.469,108.658c3.601-1.758,3.158-1.353,7.766-1.864c2.343-0.26,5.099-0.52,8.003,0.074
			c2.403,0.491,4.839,1.647,7.361,3.137"/>
		<path fill="none" stroke="#000000" stroke-width="5" stroke-linecap="round" stroke-linejoin="round" stroke-miterlimit="10" d="
			M330.469,108.658c3.601-1.758,3.158-1.353,7.766-1.864c2.343-0.26,5.099-0.52,8.003,0.074c2.403,0.491,4.839,1.647,7.361,3.137"/>
	</g>
	<g>
		<g>
			<g>
				<path fill="#FFFFFF" d="M297.105,140.474c0,2.356-0.236,4.646-0.737,6.852c-0.518,2.277-1.099,4.543-2.09,6.597
					c-1.007,2.088-2.281,4.067-3.712,5.861c-1.439,1.802-3.198,3.346-5,4.785c-1.793,1.432-3.803,2.564-5.89,3.572
					c-2.054,0.991-4.193,1.839-6.47,2.356c-2.205,0.501-4.496,1.031-6.853,1.031s-4.659-0.48-6.864-0.981
					c-2.277-0.518-4.359-1.511-6.413-2.502c-2.088-1.007-4.178-2.001-5.972-3.434c-1.802-1.439-3.583-2.98-5.022-4.782
					c-1.432-1.793-2.599-3.842-3.606-5.93c-0.991-2.054-1.569-4.308-2.087-6.585c-0.501-2.205-1.02-4.483-1.02-6.84
					c0-2.628,0.576-4.896,1.195-6.889c0.75-2.416,2.025-4.259,3.559-5.876c1.568-1.653,3.337-3.104,5.577-4.081
					c2.011-0.877,4.233-1.696,6.672-2.151c2.179-0.406,4.554-0.306,6.994-0.463c2.248-0.145,4.581-0.325,6.988-0.325
					s4.765-0.21,7.013-0.065c2.44,0.157,4.788,0.467,6.967,0.875c2.439,0.455,4.565,1.484,6.575,2.361
					c2.24,0.978,4.199,2.114,5.766,3.767c1.533,1.617,2.694,3.553,3.444,5.967C296.738,135.585,297.105,137.846,297.105,140.474z"/>
				
					<path fill="none" stroke="#000000" stroke-width="5" stroke-linecap="round" stroke-linejoin="round" stroke-miterlimit="10" d="
					M297.105,140.474c0,2.356-0.236,4.646-0.737,6.852c-0.518,2.277-1.099,4.543-2.09,6.597c-1.007,2.088-2.281,4.067-3.712,5.861
					c-1.439,1.802-3.198,3.346-5,4.785c-1.793,1.432-3.803,2.564-5.89,3.572c-2.054,0.991-4.193,1.839-6.47,2.356
					c-2.205,0.501-4.496,1.031-6.853,1.031s-4.659-0.48-6.864-0.981c-2.277-0.518-4.359-1.511-6.413-2.502
					c-2.088-1.007-4.178-2.001-5.972-3.434c-1.802-1.439-3.583-2.98-5.022-4.782c-1.432-1.793-2.599-3.842-3.606-5.93
					c-0.991-2.054-1.569-4.308-2.087-6.585c-0.501-2.205-1.02-4.483-1.02-6.84c0-2.628,0.576-4.896,1.195-6.889
					c0.75-2.416,2.025-4.259,3.559-5.876c1.568-1.653,3.337-3.104,5.577-4.081c2.011-0.877,4.233-1.696,6.672-2.151
					c2.179-0.406,4.554-0.306,6.994-0.463c2.248-0.145,4.581-0.325,6.988-0.325s4.765-0.21,7.013-0.065
					c2.44,0.157,4.788,0.467,6.967,0.875c2.439,0.455,4.565,1.484,6.575,2.361c2.24,0.978,4.199,2.114,5.766,3.767
					c1.533,1.617,2.694,3.553,3.444,5.967C296.738,135.585,297.105,137.846,297.105,140.474z"/>
			</g>
			<g>
				<path fill="#FFFFFF" d="M316.543,140.474c0,2.356,0.369,4.637,0.87,6.842c0.518,2.277,1.316,4.428,2.308,6.482
					c1.007,2.088,1.97,4.233,3.401,6.027c1.439,1.802,3.18,3.392,4.981,4.831c1.794,1.432,3.817,2.592,5.905,3.6
					c2.054,0.991,4.201,1.93,6.479,2.448c2.205,0.501,4.543,0.771,6.899,0.771s4.598-0.696,6.803-1.197
					c2.277-0.518,4.504-1.069,6.559-2.06c2.088-1.007,3.899-2.418,5.693-3.851c1.802-1.439,3.714-2.787,5.153-4.589
					c1.432-1.793,2.433-3.902,3.44-5.99c0.99-2.055,2.025-4.146,2.543-6.423c0.501-2.205,0.403-4.534,0.403-6.891
					c0-2.628-0.146-4.908-0.766-6.9c-0.751-2.416-1.946-4.359-3.481-5.976c-1.568-1.653-3.388-3.144-5.628-4.122
					c-2.011-0.877-4.314-1.464-6.753-1.919c-2.179-0.406-4.515-0.776-6.954-0.933c-2.248-0.145-4.605-0.152-7.013-0.152
					s-4.736,0.455-6.985,0.6c-2.439,0.157-4.747,0.391-6.926,0.798c-2.438,0.455-4.68,1.007-6.689,1.885
					c-2.24,0.978-4.309,2.071-5.876,3.725c-1.533,1.617-2.401,3.742-3.151,6.156C317.14,135.627,316.543,137.846,316.543,140.474z"
					/>
				
					<path fill="none" stroke="#000000" stroke-width="5" stroke-linecap="round" stroke-linejoin="round" stroke-miterlimit="10" d="
					M316.543,140.474c0,2.356,0.369,4.637,0.87,6.842c0.518,2.277,1.316,4.428,2.308,6.482c1.007,2.088,1.97,4.233,3.401,6.027
					c1.439,1.802,3.18,3.392,4.981,4.831c1.794,1.432,3.817,2.592,5.905,3.6c2.054,0.991,4.201,1.93,6.479,2.448
					c2.205,0.501,4.543,0.771,6.899,0.771s4.598-0.696,6.803-1.197c2.277-0.518,4.504-1.069,6.559-2.06
					c2.088-1.007,3.899-2.418,5.693-3.851c1.802-1.439,3.714-2.787,5.153-4.589c1.432-1.793,2.433-3.902,3.44-5.99
					c0.99-2.055,2.025-4.146,2.543-6.423c0.501-2.205,0.403-4.534,0.403-6.891c0-2.628-0.146-4.908-0.766-6.9
					c-0.751-2.416-1.946-4.359-3.481-5.976c-1.568-1.653-3.388-3.144-5.628-4.122c-2.011-0.877-4.314-1.464-6.753-1.919
					c-2.179-0.406-4.515-0.776-6.954-0.933c-2.248-0.145-4.605-0.152-7.013-0.152s-4.736,0.455-6.985,0.6
					c-2.439,0.157-4.747,0.391-6.926,0.798c-2.438,0.455-4.68,1.007-6.689,1.885c-2.24,0.978-4.309,2.071-5.876,3.725
					c-1.533,1.617-2.401,3.742-3.151,6.156C317.14,135.627,316.543,137.846,316.543,140.474z"/>
			</g>
			<g>
				
					<path fill="none" stroke="#000000" stroke-width="5" stroke-linecap="round" stroke-linejoin="round" stroke-miterlimit="10" d="
					M298.047,139.833c2.28-2.568,2.402-2.308,6.02-3.275c1.902-0.509,4.104-0.397,6.665,0.523c1.803,0.648,3.735,1.663,5.766,3.515"
					/>
			</g>
		</g>
	</g>
	<g>
		<path d="M276.709,157.114c0,2.951-2.066,5.518-4.769,5.518s-5.109-2.567-5.109-5.518s2.407-5.562,5.109-5.562
			S276.709,154.163,276.709,157.114z"/>
	</g>
	<g>
		<path d="M343.913,157.114c0,2.951-2.305,5.208-5.007,5.208c-2.7,0-4.671-2.256-4.671-5.208s1.971-5.148,4.671-5.148
			C341.608,151.965,343.913,154.163,343.913,157.114z"/>
	</g>
	<g>
		<path fill="#FFFFFF" d="M177.465,261.724c-0.003-1.874,2.249-2.067,6.085-1.174c1.875,0.436,4.11,1.19,6.693,2.149
			c1.999,0.743,4.284,1.39,6.634,2.399c2.032,0.872,4.072,2.083,6.322,3.125c2.046,0.947,4.297,1.698,6.49,2.764
			c2.053,0.998,4.057,2.259,6.212,3.343c2.057,1.034,4.156,2.099,6.284,3.198c2.059,1.063,4.281,1.895,6.386,3.004
			c2.062,1.087,4.036,2.392,6.123,3.511c2.064,1.107,4.165,2.174,6.235,3.3c2.067,1.125,4.017,2.467,6.072,3.599
			c2.071,1.142,4.257,2.057,6.298,3.193c2.077,1.157,4.018,2.513,6.043,3.652c2.083,1.172,4.217,2.185,6.225,3.324
			c2.095,1.189,4.111,2.41,6.099,3.549c2.11,1.207,4.297,2.135,6.259,3.266c2.138,1.234,4.011,2.706,5.938,3.825
			c2.189,1.272,4.21,2.494,6.074,3.586c2.315,1.355,4.455,2.395,6.173,3.409c3.843,2.269,2.532,3.615,6.055,3.553
			c3.609-0.063,2.245-1.378,6.121-3.777c1.74-1.078,3.773-2.409,6.108-3.85c1.883-1.162,4.111-2.152,6.313-3.506
			c1.945-1.195,3.959-2.529,6.108-3.846c1.98-1.214,3.864-2.76,5.984-4.054c2.004-1.224,4.255-2.164,6.356-3.441
			c2.022-1.23,3.867-2.838,5.955-4.102c2.038-1.234,4.248-2.239,6.325-3.491c2.054-1.237,4.042-2.612,6.11-3.852
			c2.07-1.24,4.25-2.297,6.312-3.525c2.083-1.241,4.159-2.469,6.212-3.683c2.101-1.241,4.024-2.73,6.069-3.927
			c2.122-1.243,4.22-2.438,6.254-3.616c2.149-1.244,4.223-2.485,6.242-3.636c2.189-1.247,4.454-2.15,6.452-3.262
			c2.256-1.255,4.405-2.361,6.361-3.408c2.407-1.288,4.41-2.706,6.264-3.613c3.277-1.605,5.693-2.262,6.764-2.369
			c1.1-0.11,1.685,2.234,1.849,6.643c0.077,2.069-0.02,4.564-0.077,7.408c-0.046,2.258,0.09,4.745-0.016,7.41
			c-0.092,2.332-0.623,4.788-0.744,7.38c-0.11,2.372-0.145,4.848-0.267,7.401c-0.115,2.397-0.304,4.864-0.419,7.391
			c-0.111,2.419,0.112,4.904,0.009,7.414c-0.1,2.434-0.379,4.897-0.463,7.392c-0.082,2.45-0.055,4.926-0.115,7.411
			c-0.06,2.462-0.028,4.938-0.059,7.41c-0.031,2.475-0.09,4.947-0.084,7.41c0.006,2.485,0.148,4.955,0.199,7.407
			c0.049,2.45,0.029,4.896,0.063,7.323c0.035,2.46-0.149,4.906-0.131,7.327c0.019,2.47-0.063,4.913-0.063,7.325
			c0.001,2.48-0.034,4.924-0.053,7.324c-0.02,2.492-0.089,4.935-0.131,7.32c-0.044,2.51,0.36,4.966,0.291,7.334
			c-0.075,2.532-0.209,4.978-0.314,7.317c-0.115,2.568-0.327,5.011-0.481,7.31c-0.176,2.631-0.676,5.045-0.904,7.266
			c-0.287,2.783-0.571,5.212-0.945,7.242c-0.691,3.745-1.319,6.234-2.333,6.844c-1.13,0.678-3.325,1.976-6.266,3.852
			c-1.791,1.143-3.815,2.567-6.137,4.049c-1.917,1.224-3.968,2.594-6.178,3.997c-1.975,1.254-4.229,2.296-6.392,3.659
			c-2.01,1.268-3.959,2.787-6.095,4.121c-2.038,1.274-4.226,2.41-6.348,3.723c-2.062,1.275-4.178,2.527-6.291,3.818
			c-2.084,1.273-4.04,2.79-6.147,4.058c-2.109,1.269-4.287,2.424-6.392,3.667c-2.134,1.261-4.265,2.493-6.367,3.708
			c-2.16,1.248-4.35,2.374-6.447,3.551c-2.198,1.234-4.423,2.29-6.518,3.42c-2.249,1.213-4.324,2.551-6.411,3.613
			c-2.329,1.186-4.47,2.429-6.541,3.384c-2.486,1.147-4.922,1.728-6.941,2.472c-3.004,1.107-5.348,2.104-7.028,2.104
			c-1.49,0-3.948-0.775-7.198-1.736c-2.055-0.607-4.43-1.333-7.04-2.255c-2.155-0.761-4.475-1.624-6.936-2.564
			c-2.194-0.839-4.438-1.888-6.827-2.847c-2.215-0.89-4.663-1.439-7.007-2.414c-2.227-0.926-4.498-1.907-6.809-2.895
			c-2.236-0.955-4.332-2.336-6.619-3.335c-2.244-0.981-4.661-1.626-6.925-2.636c-2.251-1.005-4.372-2.319-6.617-3.34
			c-2.257-1.026-4.48-2.105-6.704-3.136c-2.265-1.049-4.513-2.076-6.715-3.116c-2.273-1.074-4.597-1.946-6.772-2.996
			c-2.287-1.104-4.418-2.376-6.562-3.436c-2.307-1.141-4.591-2.105-6.687-3.175c-2.344-1.196-4.633-2.17-6.654-3.248
			c-2.437-1.3-4.528-2.665-6.393-3.746c-2.882-1.67-5.122-2.908-6.295-3.894c-0.766-0.643-1.409-3.043-2.09-6.65
			c-0.365-1.936-0.944-4.22-1.293-6.858c-0.278-2.106-0.119-4.473-0.39-6.969c-0.236-2.179-0.711-4.471-0.944-6.908
			c-0.211-2.218-0.16-4.559-0.37-6.963c-0.196-2.243-0.606-4.543-0.802-6.926c-0.186-2.26-0.596-4.56-0.782-6.927
			c-0.179-2.273-0.1-4.613-0.281-6.97c-0.175-2.284-0.627-4.582-0.805-6.929c-0.174-2.294,0.04-4.644-0.137-6.983
			c-0.174-2.301-0.468-4.612-0.646-6.944c-0.181-2.378-0.367-4.789-0.554-7.226c-0.183-2.388-0.151-4.815-0.337-7.241
			c-0.184-2.398-0.751-4.781-0.935-7.198c-0.184-2.409-0.472-4.815-0.653-7.226c-0.182-2.418,0.128-4.868-0.049-7.27
			c-0.179-2.429-0.551-4.828-0.723-7.22c-0.175-2.438-0.223-4.861-0.388-7.241c-0.17-2.45-0.402-4.86-0.559-7.228
			c-0.163-2.468-0.566-4.868-0.711-7.221c-0.153-2.489-0.03-4.922-0.158-7.254c-0.139-2.519-0.527-4.924-0.632-7.224
			c-0.118-2.569,0.171-5.004,0.102-7.252C177.815,266.282,177.468,263.862,177.465,261.724z"/>
		<path fill="none" stroke="#000000" stroke-width="5" stroke-linecap="round" stroke-linejoin="round" stroke-miterlimit="10" d="
			M177.465,261.724c-0.003-1.874,2.249-2.067,6.085-1.174c1.875,0.436,4.11,1.19,6.693,2.149c1.999,0.743,4.284,1.39,6.634,2.399
			c2.032,0.872,4.072,2.083,6.322,3.125c2.046,0.947,4.297,1.698,6.49,2.764c2.053,0.998,4.057,2.259,6.212,3.343
			c2.057,1.034,4.156,2.099,6.284,3.198c2.059,1.063,4.281,1.895,6.386,3.004c2.062,1.087,4.036,2.392,6.123,3.511
			c2.064,1.107,4.165,2.174,6.235,3.3c2.067,1.125,4.017,2.467,6.072,3.599c2.071,1.142,4.257,2.057,6.298,3.193
			c2.077,1.157,4.018,2.513,6.043,3.652c2.083,1.172,4.217,2.185,6.225,3.324c2.095,1.189,4.111,2.41,6.099,3.549
			c2.11,1.207,4.297,2.135,6.259,3.266c2.138,1.234,4.011,2.706,5.938,3.825c2.189,1.272,4.21,2.494,6.074,3.586
			c2.315,1.355,4.455,2.395,6.173,3.409c3.843,2.269,2.532,3.615,6.055,3.553c3.609-0.063,2.245-1.378,6.121-3.777
			c1.74-1.078,3.773-2.409,6.108-3.85c1.883-1.162,4.111-2.152,6.313-3.506c1.945-1.195,3.959-2.529,6.108-3.846
			c1.98-1.214,3.864-2.76,5.984-4.054c2.004-1.224,4.255-2.164,6.356-3.441c2.022-1.23,3.867-2.838,5.955-4.102
			c2.038-1.234,4.248-2.239,6.325-3.491c2.054-1.237,4.042-2.612,6.11-3.852c2.07-1.24,4.25-2.297,6.312-3.525
			c2.083-1.241,4.159-2.469,6.212-3.683c2.101-1.241,4.024-2.73,6.069-3.927c2.122-1.243,4.22-2.438,6.254-3.616
			c2.149-1.244,4.223-2.485,6.242-3.636c2.189-1.247,4.454-2.15,6.452-3.262c2.256-1.255,4.405-2.361,6.361-3.408
			c2.407-1.288,4.41-2.706,6.264-3.613c3.277-1.605,5.693-2.262,6.764-2.369c1.1-0.11,1.685,2.234,1.849,6.643
			c0.077,2.069-0.02,4.564-0.077,7.408c-0.046,2.258,0.09,4.745-0.016,7.41c-0.092,2.332-0.623,4.788-0.744,7.38
			c-0.11,2.372-0.145,4.848-0.267,7.401c-0.115,2.397-0.304,4.864-0.419,7.391c-0.111,2.419,0.112,4.904,0.009,7.414
			c-0.1,2.434-0.379,4.897-0.463,7.392c-0.082,2.45-0.055,4.926-0.115,7.411c-0.06,2.462-0.028,4.938-0.059,7.41
			c-0.031,2.475-0.09,4.947-0.084,7.41c0.006,2.485,0.148,4.955,0.199,7.407c0.049,2.45,0.029,4.896,0.063,7.323
			c0.035,2.46-0.149,4.906-0.131,7.327c0.019,2.47-0.063,4.913-0.063,7.325c0.001,2.48-0.034,4.924-0.053,7.324
			c-0.02,2.492-0.089,4.935-0.131,7.32c-0.044,2.51,0.36,4.966,0.291,7.334c-0.075,2.532-0.209,4.978-0.314,7.317
			c-0.115,2.568-0.327,5.011-0.481,7.31c-0.176,2.631-0.676,5.045-0.904,7.266c-0.287,2.783-0.571,5.212-0.945,7.242
			c-0.691,3.745-1.319,6.234-2.333,6.844c-1.13,0.678-3.325,1.976-6.266,3.852c-1.791,1.143-3.815,2.567-6.137,4.049
			c-1.917,1.224-3.968,2.594-6.178,3.997c-1.975,1.254-4.229,2.296-6.392,3.659c-2.01,1.268-3.959,2.787-6.095,4.121
			c-2.038,1.274-4.226,2.41-6.348,3.723c-2.062,1.275-4.178,2.527-6.291,3.818c-2.084,1.273-4.04,2.79-6.147,4.058
			c-2.109,1.269-4.287,2.424-6.392,3.667c-2.134,1.261-4.265,2.493-6.367,3.708c-2.16,1.248-4.35,2.374-6.447,3.551
			c-2.198,1.234-4.423,2.29-6.518,3.42c-2.249,1.213-4.324,2.551-6.411,3.613c-2.329,1.186-4.47,2.429-6.541,3.384
			c-2.486,1.147-4.922,1.728-6.941,2.472c-3.004,1.107-5.348,2.104-7.028,2.104c-1.49,0-3.948-0.775-7.198-1.736
			c-2.055-0.607-4.43-1.333-7.04-2.255c-2.155-0.761-4.475-1.624-6.936-2.564c-2.194-0.839-4.438-1.888-6.827-2.847
			c-2.215-0.89-4.663-1.439-7.007-2.414c-2.227-0.926-4.498-1.907-6.809-2.895c-2.236-0.955-4.332-2.336-6.619-3.335
			c-2.244-0.981-4.661-1.626-6.925-2.636c-2.251-1.005-4.372-2.319-6.617-3.34c-2.257-1.026-4.48-2.105-6.704-3.136
			c-2.265-1.049-4.513-2.076-6.715-3.116c-2.273-1.074-4.597-1.946-6.772-2.996c-2.287-1.104-4.418-2.376-6.562-3.436
			c-2.307-1.141-4.591-2.105-6.687-3.175c-2.344-1.196-4.633-2.17-6.654-3.248c-2.437-1.3-4.528-2.665-6.393-3.746
			c-2.882-1.67-5.122-2.908-6.295-3.894c-0.766-0.643-1.409-3.043-2.09-6.65c-0.365-1.936-0.944-4.22-1.293-6.858
			c-0.278-2.106-0.119-4.473-0.39-6.969c-0.236-2.179-0.711-4.471-0.944-6.908c-0.211-2.218-0.16-4.559-0.37-6.963
			c-0.196-2.243-0.606-4.543-0.802-6.926c-0.186-2.26-0.596-4.56-0.782-6.927c-0.179-2.273-0.1-4.613-0.281-6.97
			c-0.175-2.284-0.627-4.582-0.805-6.929c-0.174-2.294,0.04-4.644-0.137-6.983c-0.174-2.301-0.468-4.612-0.646-6.944
			c-0.181-2.378-0.367-4.789-0.554-7.226c-0.183-2.388-0.151-4.815-0.337-7.241c-0.184-2.398-0.751-4.781-0.935-7.198
			c-0.184-2.409-0.472-4.815-0.653-7.226c-0.182-2.418,0.128-4.868-0.049-7.27c-0.179-2.429-0.551-4.828-0.723-7.22
			c-0.175-2.438-0.223-4.861-0.388-7.241c-0.17-2.45-0.402-4.86-0.559-7.228c-0.163-2.468-0.566-4.868-0.711-7.221
			c-0.153-2.489-0.03-4.922-0.158-7.254c-0.139-2.519-0.527-4.924-0.632-7.224c-0.118-2.569,0.171-5.004,0.102-7.252
			C177.815,266.282,177.468,263.862,177.465,261.724z"/>
	</g>
	<g>
		<g>
			<g>
				<path fill="#00C7E9" d="M165.823,272.141c-0.003-1.792,2.026-2.349,5.897-1.807c1.921,0.27,4.242,0.861,6.909,1.593
					c2.067,0.566,4.314,1.334,6.756,2.139c2.109,0.695,4.379,1.377,6.724,2.225c2.13,0.77,4.272,1.797,6.562,2.675
					c2.14,0.82,4.391,1.561,6.645,2.461c2.146,0.858,4.361,1.695,6.589,2.613c2.15,0.886,4.381,1.684,6.586,2.615
					c2.155,0.911,4.347,1.806,6.536,2.749c2.159,0.931,4.302,1.938,6.476,2.892c2.162,0.948,4.351,1.855,6.51,2.816
					c2.166,0.964,4.219,2.172,6.366,3.139c2.171,0.979,4.284,2.054,6.417,3.026c2.178,0.992,4.434,1.755,6.553,2.731
					c2.186,1.006,4.339,1.991,6.442,2.968c2.198,1.021,4.232,2.264,6.315,3.24c2.216,1.039,4.483,1.785,6.54,2.757
					c2.245,1.062,4.284,2.295,6.304,3.257c2.299,1.096,4.502,1.99,6.458,2.93c2.434,1.169,4.644,2.072,6.448,2.946
					c4.043,1.96,2.77,3.354,6.312,3.338c3.659-0.016,2.427-1.257,6.607-3.264c1.866-0.896,3.984-2.169,6.497-3.372
					c2.021-0.968,4.348-1.783,6.719-2.915c2.084-0.996,4.346-1.937,6.656-3.038c2.12-1.01,4.318-2.077,6.598-3.16
					c2.145-1.02,4.295-2.19,6.553-3.261c2.163-1.025,4.259-2.308,6.502-3.367c2.178-1.029,4.495-1.845,6.727-2.897
					c2.19-1.031,4.392-2.097,6.613-3.14c2.203-1.034,4.474-1.948,6.688-2.984c2.214-1.035,4.299-2.345,6.506-3.373
					c2.226-1.037,4.542-1.852,6.74-2.87c2.239-1.037,4.363-2.271,6.553-3.279c2.253-1.038,4.646-1.683,6.824-2.679
					c2.273-1.039,4.433-2.199,6.599-3.179c2.299-1.041,4.445-2.231,6.593-3.19c2.338-1.043,4.583-2.021,6.702-2.95
					c2.402-1.052,4.626-2.088,6.693-2.965c2.551-1.082,4.954-1.704,6.896-2.469c3.492-1.375,5.852-2.301,6.872-2.403
					c1.106-0.11,1.38,2.289,1.541,6.619c0.076,2.033,0.49,4.478,0.431,7.276c-0.048,2.218-0.138,4.659-0.244,7.281
					c-0.093,2.291-0.376,4.717-0.498,7.268c-0.111,2.331-0.438,4.752-0.561,7.264c-0.115,2.355-0.093,4.792-0.208,7.277
					c-0.11,2.377,0.071,4.818-0.031,7.289c-0.099,2.393-0.584,4.809-0.668,7.266c-0.081,2.405,0.11,4.845,0.052,7.291
					c-0.059,2.417-0.214,4.847-0.244,7.283c-0.029,2.428,0.062,4.86,0.068,7.287c0.007,2.438-0.087,4.872-0.037,7.288
					c0.05,2.45,0.357,4.89,0.392,7.317c0.035,2.46-0.062,4.905-0.044,7.326c0.019,2.47,0.031,4.916,0.031,7.327
					c0.001,2.48-0.06,4.926-0.078,7.327c-0.02,2.492,0.121,4.939,0.079,7.325c-0.044,2.511-0.239,4.955-0.31,7.323
					c-0.074,2.532-0.214,4.975-0.319,7.315c-0.115,2.568-0.134,5.021-0.288,7.318c-0.176,2.632-0.348,5.081-0.576,7.302
					c-0.287,2.783-0.924,5.18-1.298,7.21c-0.691,3.745-1.384,6.181-2.397,6.789c-1.046,0.628-3.42,1.624-6.592,3.33
					c-1.868,1.004-3.884,2.497-6.344,3.794c-2.01,1.06-4.304,2.005-6.645,3.224c-2.074,1.079-4.159,2.424-6.45,3.604
					c-2.112,1.089-4.33,2.172-6.594,3.328c-2.139,1.092-4.278,2.33-6.525,3.467c-2.158,1.092-4.369,2.188-6.604,3.309
					c-2.176,1.091-4.46,2.038-6.686,3.143c-2.192,1.089-4.438,2.108-6.657,3.198c-2.209,1.084-4.453,2.11-6.667,3.185
					c-2.226,1.08-4.496,2.054-6.707,3.112c-2.241,1.072-4.333,2.413-6.536,3.451c-2.262,1.064-4.537,2.023-6.735,3.038
					c-2.286,1.055-4.59,1.947-6.781,2.934c-2.316,1.043-4.467,2.285-6.647,3.233c-2.361,1.027-4.704,1.831-6.867,2.726
					c-2.434,1.008-4.639,2.16-6.768,2.971c-2.584,0.983-4.971,1.705-7.015,2.347c-3.169,0.995-5.659,1.353-7.22,1.353
					c-1.399,0-3.699-0.633-6.827-1.521c-1.96-0.557-4.294-1.006-6.8-1.852c-2.058-0.695-4.218-1.66-6.582-2.521
					c-2.099-0.766-4.308-1.585-6.605-2.463c-2.12-0.81-4.293-1.715-6.549-2.606c-2.133-0.843-4.395-1.528-6.622-2.432
					c-2.141-0.868-4.37-1.64-6.574-2.554c-2.147-0.89-4.184-2.121-6.369-3.044c-2.153-0.909-4.393-1.655-6.562-2.587
					c-2.159-0.928-4.341-1.814-6.495-2.755c-2.163-0.944-4.226-2.102-6.363-3.05c-2.168-0.962-4.428-1.677-6.548-2.633
					c-2.175-0.981-4.387-1.812-6.488-2.776c-2.184-1.003-4.254-2.14-6.333-3.113c-2.196-1.029-4.201-2.301-6.249-3.283
					c-2.216-1.063-4.393-1.976-6.397-2.968c-2.252-1.114-4.376-2.141-6.309-3.143c-2.343-1.214-4.494-2.218-6.276-3.225
					c-2.783-1.571-4.684-3.047-5.788-3.974c-0.766-0.643-1.503-2.831-2.184-6.439c-0.365-1.935-0.852-4.226-1.2-6.864
					c-0.278-2.106-0.403-4.438-0.674-6.935c-0.236-2.179-0.695-4.472-0.928-6.91c-0.212-2.217-0.164-4.559-0.375-6.963
					c-0.196-2.243-0.74-4.532-0.936-6.915c-0.186-2.26-0.09-4.602-0.277-6.969c-0.18-2.274-0.279-4.599-0.46-6.955
					c-0.175-2.284-0.368-4.603-0.545-6.949c-0.174-2.294-0.351-4.614-0.527-6.953c-0.174-2.302-0.718-4.594-0.896-6.926
					c-0.188-2.475,0.042-4.996-0.152-7.49c-0.194-2.483-0.645-4.954-0.842-7.441c-0.197-2.492-0.347-4.986-0.544-7.467
					c-0.199-2.5-0.4-4.99-0.596-7.463c-0.198-2.509-0.401-5-0.593-7.464c-0.196-2.518-0.502-4.998-0.688-7.451
					c-0.191-2.529-0.283-5.026-0.459-7.467c-0.185-2.546-0.382-5.037-0.546-7.465c-0.174-2.564-0.232-5.065-0.378-7.474
					c-0.158-2.592-0.282-5.087-0.402-7.468c-0.132-2.637-0.22-5.134-0.298-7.469C165.732,276.887,165.827,274.387,165.823,272.141z"
					/>
				
					<path fill="none" stroke="#000000" stroke-width="5" stroke-linecap="round" stroke-linejoin="round" stroke-miterlimit="10" d="
					M165.823,272.141c-0.003-1.792,2.026-2.349,5.897-1.807c1.921,0.27,4.242,0.861,6.909,1.593
					c2.067,0.566,4.314,1.334,6.756,2.139c2.109,0.695,4.379,1.377,6.724,2.225c2.13,0.77,4.272,1.797,6.562,2.675
					c2.14,0.82,4.391,1.561,6.645,2.461c2.146,0.858,4.361,1.695,6.589,2.613c2.15,0.886,4.381,1.684,6.586,2.615
					c2.155,0.911,4.347,1.806,6.536,2.749c2.159,0.931,4.302,1.938,6.476,2.892c2.162,0.948,4.351,1.855,6.51,2.816
					c2.166,0.964,4.219,2.172,6.366,3.139c2.171,0.979,4.284,2.054,6.417,3.026c2.178,0.992,4.434,1.755,6.553,2.731
					c2.186,1.006,4.339,1.991,6.442,2.968c2.198,1.021,4.232,2.264,6.315,3.24c2.216,1.039,4.483,1.785,6.54,2.757
					c2.245,1.062,4.284,2.295,6.304,3.257c2.299,1.096,4.502,1.99,6.458,2.93c2.434,1.169,4.644,2.072,6.448,2.946
					c4.043,1.96,2.77,3.354,6.312,3.338c3.659-0.016,2.427-1.257,6.607-3.264c1.866-0.896,3.984-2.169,6.497-3.372
					c2.021-0.968,4.348-1.783,6.719-2.915c2.084-0.996,4.346-1.937,6.656-3.038c2.12-1.01,4.318-2.077,6.598-3.16
					c2.145-1.02,4.295-2.19,6.553-3.261c2.163-1.025,4.259-2.308,6.502-3.367c2.178-1.029,4.495-1.845,6.727-2.897
					c2.19-1.031,4.392-2.097,6.613-3.14c2.203-1.034,4.474-1.948,6.688-2.984c2.214-1.035,4.299-2.345,6.506-3.373
					c2.226-1.037,4.542-1.852,6.74-2.87c2.239-1.037,4.363-2.271,6.553-3.279c2.253-1.038,4.646-1.683,6.824-2.679
					c2.273-1.039,4.433-2.199,6.599-3.179c2.299-1.041,4.445-2.231,6.593-3.19c2.338-1.043,4.583-2.021,6.702-2.95
					c2.402-1.052,4.626-2.088,6.693-2.965c2.551-1.082,4.954-1.704,6.896-2.469c3.492-1.375,5.852-2.301,6.872-2.403
					c1.106-0.11,1.38,2.289,1.541,6.619c0.076,2.033,0.49,4.478,0.431,7.276c-0.048,2.218-0.138,4.659-0.244,7.281
					c-0.093,2.291-0.376,4.717-0.498,7.268c-0.111,2.331-0.438,4.752-0.561,7.264c-0.115,2.355-0.093,4.792-0.208,7.277
					c-0.11,2.377,0.071,4.818-0.031,7.289c-0.099,2.393-0.584,4.809-0.668,7.266c-0.081,2.405,0.11,4.845,0.052,7.291
					c-0.059,2.417-0.214,4.847-0.244,7.283c-0.029,2.428,0.062,4.86,0.068,7.287c0.007,2.438-0.087,4.872-0.037,7.288
					c0.05,2.45,0.357,4.89,0.392,7.317c0.035,2.46-0.062,4.905-0.044,7.326c0.019,2.47,0.031,4.916,0.031,7.327
					c0.001,2.48-0.06,4.926-0.078,7.327c-0.02,2.492,0.121,4.939,0.079,7.325c-0.044,2.511-0.239,4.955-0.31,7.323
					c-0.074,2.532-0.214,4.975-0.319,7.315c-0.115,2.568-0.134,5.021-0.288,7.318c-0.176,2.632-0.348,5.081-0.576,7.302
					c-0.287,2.783-0.924,5.18-1.298,7.21c-0.691,3.745-1.384,6.181-2.397,6.789c-1.046,0.628-3.42,1.624-6.592,3.33
					c-1.868,1.004-3.884,2.497-6.344,3.794c-2.01,1.06-4.304,2.005-6.645,3.224c-2.074,1.079-4.159,2.424-6.45,3.604
					c-2.112,1.089-4.33,2.172-6.594,3.328c-2.139,1.092-4.278,2.33-6.525,3.467c-2.158,1.092-4.369,2.188-6.604,3.309
					c-2.176,1.091-4.46,2.038-6.686,3.143c-2.192,1.089-4.438,2.108-6.657,3.198c-2.209,1.084-4.453,2.11-6.667,3.185
					c-2.226,1.08-4.496,2.054-6.707,3.112c-2.241,1.072-4.333,2.413-6.536,3.451c-2.262,1.064-4.537,2.023-6.735,3.038
					c-2.286,1.055-4.59,1.947-6.781,2.934c-2.316,1.043-4.467,2.285-6.647,3.233c-2.361,1.027-4.704,1.831-6.867,2.726
					c-2.434,1.008-4.639,2.16-6.768,2.971c-2.584,0.983-4.971,1.705-7.015,2.347c-3.169,0.995-5.659,1.353-7.22,1.353
					c-1.399,0-3.699-0.633-6.827-1.521c-1.96-0.557-4.294-1.006-6.8-1.852c-2.058-0.695-4.218-1.66-6.582-2.521
					c-2.099-0.766-4.308-1.585-6.605-2.463c-2.12-0.81-4.293-1.715-6.549-2.606c-2.133-0.843-4.395-1.528-6.622-2.432
					c-2.141-0.868-4.37-1.64-6.574-2.554c-2.147-0.89-4.184-2.121-6.369-3.044c-2.153-0.909-4.393-1.655-6.562-2.587
					c-2.159-0.928-4.341-1.814-6.495-2.755c-2.163-0.944-4.226-2.102-6.363-3.05c-2.168-0.962-4.428-1.677-6.548-2.633
					c-2.175-0.981-4.387-1.812-6.488-2.776c-2.184-1.003-4.254-2.14-6.333-3.113c-2.196-1.029-4.201-2.301-6.249-3.283
					c-2.216-1.063-4.393-1.976-6.397-2.968c-2.252-1.114-4.376-2.141-6.309-3.143c-2.343-1.214-4.494-2.218-6.276-3.225
					c-2.783-1.571-4.684-3.047-5.788-3.974c-0.766-0.643-1.503-2.831-2.184-6.439c-0.365-1.935-0.852-4.226-1.2-6.864
					c-0.278-2.106-0.403-4.438-0.674-6.935c-0.236-2.179-0.695-4.472-0.928-6.91c-0.212-2.217-0.164-4.559-0.375-6.963
					c-0.196-2.243-0.74-4.532-0.936-6.915c-0.186-2.26-0.09-4.602-0.277-6.969c-0.18-2.274-0.279-4.599-0.46-6.955
					c-0.175-2.284-0.368-4.603-0.545-6.949c-0.174-2.294-0.351-4.614-0.527-6.953c-0.174-2.302-0.718-4.594-0.896-6.926
					c-0.188-2.475,0.042-4.996-0.152-7.49c-0.194-2.483-0.645-4.954-0.842-7.441c-0.197-2.492-0.347-4.986-0.544-7.467
					c-0.199-2.5-0.4-4.99-0.596-7.463c-0.198-2.509-0.401-5-0.593-7.464c-0.196-2.518-0.502-4.998-0.688-7.451
					c-0.191-2.529-0.283-5.026-0.459-7.467c-0.185-2.546-0.382-5.037-0.546-7.465c-0.174-2.564-0.232-5.065-0.378-7.474
					c-0.158-2.592-0.282-5.087-0.402-7.468c-0.132-2.637-0.22-5.134-0.298-7.469C165.732,276.887,165.827,274.387,165.823,272.141z"
					/>
			</g>
			<g>
				<path fill="#00C7E9" d="M312.228,321.418c0,3.623,0.169,3.623,0.169,7.245c0,3.62,0.097,3.62,0.097,7.241
					c0,3.622,0.116,3.622,0.116,7.244c0,3.621-0.371,3.621-0.371,7.243s0.095,3.622,0.095,7.244s0.253,3.622,0.253,7.244
					c0,3.623-0.316,3.623-0.316,7.246c0,3.622,0.021,3.622,0.021,7.244c0,3.623-0.023,3.623-0.023,7.246
					c0,3.624,0.045,3.624,0.045,7.247s-0.136,3.623-0.136,7.246s0.428,3.623,0.428,7.246c0,3.624-0.18,3.624-0.18,7.248
					s-0.169,3.624-0.169,7.248c0,3.621,0.36,3.621,0.36,7.243c0,3.624-0.118,3.624-0.118,7.247s-0.301,3.623-0.301,7.246
					s0.287,3.623,0.287,7.247s-0.073,3.624-0.073,7.248c0,3.626-0.077,3.626-0.077,7.251s0.1,3.625,0.1,7.249
					c0,3.627-0.213,3.627-0.213,7.254s0.133,3.627,0.133,7.254"/>
				
					<path fill="none" stroke="#000000" stroke-width="5" stroke-linecap="round" stroke-linejoin="round" stroke-miterlimit="10" d="
					M312.228,321.418c0,3.623,0.169,3.623,0.169,7.245c0,3.62,0.097,3.62,0.097,7.241c0,3.622,0.116,3.622,0.116,7.244
					c0,3.621-0.371,3.621-0.371,7.243s0.095,3.622,0.095,7.244s0.253,3.622,0.253,7.244c0,3.623-0.316,3.623-0.316,7.246
					c0,3.622,0.021,3.622,0.021,7.244c0,3.623-0.023,3.623-0.023,7.246c0,3.624,0.045,3.624,0.045,7.247s-0.136,3.623-0.136,7.246
					s0.428,3.623,0.428,7.246c0,3.624-0.18,3.624-0.18,7.248s-0.169,3.624-0.169,7.248c0,3.621,0.36,3.621,0.36,7.243
					c0,3.624-0.118,3.624-0.118,7.247s-0.301,3.623-0.301,7.246s0.287,3.623,0.287,7.247s-0.073,3.624-0.073,7.248
					c0,3.626-0.077,3.626-0.077,7.251s0.1,3.625,0.1,7.249c0,3.627-0.213,3.627-0.213,7.254s0.133,3.627,0.133,7.254"/>
			</g>
			<g>
				<path fill="#00C7E9" d="M293.248,320.833c0.073,3.644,0.337,3.638,0.41,7.281c0.073,3.642-0.205,3.647-0.132,7.289
					c0.072,3.644,0.13,3.643,0.203,7.286c0.073,3.643-0.133,3.646-0.061,7.289c0.073,3.644,0.13,3.642,0.202,7.285
					c0.073,3.643,0.079,3.643,0.152,7.286c0.072,3.644,0.104,3.644,0.176,7.287c0.073,3.644,0.143,3.642,0.215,7.285
					c0.072,3.644,0.189,3.642,0.262,7.285c0.073,3.645-0.02,3.646,0.053,7.291s0.278,3.641,0.351,7.284
					c0.073,3.645,0.166,3.643,0.239,7.287s0.046,3.646,0.119,7.29c0.072,3.645-0.345,3.653-0.273,7.298
					c0.073,3.644,0.52,3.635,0.592,7.277c0.073,3.645-0.017,3.646,0.056,7.291c0.072,3.644-0.247,3.65-0.174,7.294
					c0.073,3.645,0.242,3.642,0.314,7.286c0.073,3.646,0.169,3.644,0.242,7.288c0.073,3.646,0.189,3.645,0.261,7.292
					c0.073,3.646-0.299,3.652-0.226,7.298c0.073,3.648,0.167,3.646,0.24,7.294c0.073,3.648,0.327,3.644,0.399,7.291"/>
				
					<path fill="none" stroke="#000000" stroke-width="5" stroke-linecap="round" stroke-linejoin="round" stroke-miterlimit="10" d="
					M293.248,320.833c0.073,3.644,0.337,3.638,0.41,7.281c0.073,3.642-0.205,3.647-0.132,7.289c0.072,3.644,0.13,3.643,0.203,7.286
					c0.073,3.643-0.133,3.646-0.061,7.289c0.073,3.644,0.13,3.642,0.202,7.285c0.073,3.643,0.079,3.643,0.152,7.286
					c0.072,3.644,0.104,3.644,0.176,7.287c0.073,3.644,0.143,3.642,0.215,7.285c0.072,3.644,0.189,3.642,0.262,7.285
					c0.073,3.645-0.02,3.646,0.053,7.291s0.278,3.641,0.351,7.284c0.073,3.645,0.166,3.643,0.239,7.287s0.046,3.646,0.119,7.29
					c0.072,3.645-0.345,3.653-0.273,7.298c0.073,3.644,0.52,3.635,0.592,7.277c0.073,3.645-0.017,3.646,0.056,7.291
					c0.072,3.644-0.247,3.65-0.174,7.294c0.073,3.645,0.242,3.642,0.314,7.286c0.073,3.646,0.169,3.644,0.242,7.288
					c0.073,3.646,0.189,3.645,0.261,7.292c0.073,3.646-0.299,3.652-0.226,7.298c0.073,3.648,0.167,3.646,0.24,7.294
					c0.073,3.648,0.327,3.644,0.399,7.291"/>
			</g>
		</g>
		<g>
			<path d="M408.668,372.703c1.741-0.395,3.111,3.066,3.291,5.589c1.076,14.671-6.807,24.92-19.737,32.156
				c-6.688,3.74-23.371,4.968-31.178,3.213c-14.439-3.246-28.071-16.182-29.181-33.062c-0.753-11.421,2.793-22.05,9.293-31.869
				c5.757-8.694,13.943-13.418,23.252-16.166c8.062-2.37,18.094-1.171,25.457,2.677c7.101,3.72,11.063,10.424,15.045,16.97
				c0.837,1.383,1.468,2.966,2.374,4.868c0,0,0.936,3.015-1.788,3.3c-2.717,0.283-3.593-2.641-3.593-2.641
				c-0.899-1.511-1.974-3.056-2.78-4.72c-6.517-13.438-18.981-16.026-31.879-14.814c-8.539,0.801-15.447,5.62-20.974,13.784
				c-5.477,8.072-8.051,15.368-8.562,24.861c-0.556,10.073,3.134,18.074,11.467,24.876c10.507,8.571,20.946,8.646,33.521,5.317
				c16.759-4.443,22.214-12.138,23.322-29.462C406.177,375.044,405.488,373.42,408.668,372.703z"/>
			<path d="M395.43,392.757c-1.582-10.33-3.163-20.655-4.775-31.164c-6.724,3.233-15.23,12.201-13.445,19.324
				c1.007,4.009,1.105,8.255,1.442,12.409c0.14,1.728-0.175,3.506-0.278,5.253l-1.312,0.244c-0.612-1.022-1.526-1.984-1.792-3.093
				c-1.449-6.138-3.026-12.263-3.979-18.489c-0.534-3.527-1.913-5.656-5.257-6.698c-4.684-1.456-8.657-3.1-14.011-4.848
				c0.243,4.752,0.73,9.065,1.062,13.407c0.292,3.753,0.599,7.511,0.823,11.267c0.084,1.473-1.256,3.062-1.575,4.561
				c-0.625-0.058-1.262-0.103-1.891-0.155c-0.904-11.093-1.812-22.187-2.805-34.382c4.279,0.989,7.614,1.344,10.599,2.544
				c4.597,1.846,8.865,4.504,13.463,6.313c1.504,0.593,4.171,0.239,5.363-0.774c3.659-3.132,6.773-6.883,10.294-10.194
				c1.155-1.087,3.482-2.529,4.258-2.081c1.328,0.778,2.336,2.844,2.632,4.506c1.464,8.322,2.709,16.673,3.899,25.035
				C398.495,388.221,399.13,390.966,395.43,392.757"/>
			<path d="M365.668,359.531c-1.895,0.956-2.377-0.199-2.572-1.728c-0.276-2.128-0.344-4.302-0.832-6.37
				c-0.726-3.078,0.405-4.722,3.305-5.791c4.82-1.774,6.367-0.952,6.707,3.968c0.282-0.172,0.569-0.354,0.851-0.531
				c1.229,1.941,3.557,3.935,3.448,5.791c-0.175,3.03-2.229,5.769-5.763,6.319c-1.925,0.3-4.396,1.65-5.206-1.704
				c2.295-0.523,4.645-0.897,6.85-1.682c0.642-0.229,1.18-1.671,1.127-2.533c-0.02-0.46-1.358-1.132-2.157-1.223
				C367.762,353.645,365.688,355.69,365.668,359.531 M370.378,348.279c-5.816-0.349-6.289,0.2-4.496,4.37
				C367.244,351.335,368.45,350.153,370.378,348.279"/>
			<path d="M368.519,386.563c0.238,2.306-0.37,4.951-1.773,6.517c-1.171,1.312-3.394,2.574-4.934,2.362
				c-1.184-0.174-2.584-2.574-2.906-4.187c-0.573-2.813-0.878-5.869-0.393-8.664c0.621-3.584,2.754-4.518,5.746-2.472
				C366.489,381.643,368.277,384.257,368.519,386.563z M359.748,387.413c1.563,1.87,2.697,3.216,3.833,4.57
				c0.913-1.608,2.693-3.308,2.524-4.79c-0.196-1.709-2.11-3.226-3.278-4.822C361.898,383.885,360.972,385.405,359.748,387.413"/>
			<path d="M386.305,391.458c-0.595-1.983-0.944-4.093-1.848-5.925c-0.278-0.569-0.96-4.752-0.96-4.752s-2.422-0.176-2.721-0.493
				c-1.213-1.289-1.629-2.341,0.161-3.021c2.284-0.859,4.718-1.313,7.612-2.083c-0.183,1.444-0.026,2.295-0.376,2.607
				c-2.613,2.379-1.615,4.987-0.843,7.741c0.513,1.828,0.521,3.796,0.752,5.709C387.49,391.315,386.899,391.385,386.305,391.458"/>
		</g>
	</g>
	<g>
		<path fill="#FFFFFF" d="M458.609,347.839c0,2.41,0.077,4.731-0.059,6.943c-0.149,2.414-0.297,4.739-0.637,6.921
			c-0.372,2.393-1.214,4.578-1.854,6.692c-0.695,2.298-1.579,4.398-2.639,6.371c-1.105,2.059-2.365,3.951-3.925,5.659
			c-1.516,1.66-3.117,3.334-5.115,4.666c-1.821,1.214-3.91,2.228-6.173,3.171c-2.005,0.836-4.209,1.532-6.59,2.157
			c-2.299,0.605-4.508,1.039-6.582,1.269c-2.44,0.271-4.708,0.331-6.705,0.15c-2.649-0.24-4.952-0.733-6.529-1.625
			c-2.333-1.318-3.36-3.524-2.439-5.817c0.606-1.51,2.318-2.941,4.723-4.68c1.522-1.102,3.238-2.56,5.583-3.702
			c1.795-0.876,3.944-1.503,6.262-2.383c-5.441,1.65-6.909,2.162-7.729,2.572c-1.074,0.537-1.094,0.682-7.842,2.042
			c-2.619,0.528-5.342,0.216-7.623-0.642c-2.764-1.039-5.022-2.856-5.375-5.209c-0.295-1.968,0.729-4.34,3.471-6.72
			c1.56-1.354,3.686-2.837,6.54-4.207c2.031-0.975,4.451-1.914,7.236-2.859c2.222-0.754,4.822-1.143,7.57-1.861
			c-3.798,1.394-3.472,0.835-7.851,2.044c-2.447,0.676-5.262,1.185-7.884,1.889c-2.986,0.802-5.805,1.536-7.83,2.026
			c-2.994,0.725-5.21,0.473-6.765-0.564c-2.013-1.344-2.67-3.731-2.401-6.147c0.248-2.228,1.229-4.515,3.291-5.918
			c1.902-1.295,4.068-2.415,6.459-3.546c2.062-0.976,4.321-1.895,6.826-2.77c2.163-0.755,4.491-1.513,7.035-2.205
			c2.229-0.607,4.549-1.341,7.104-1.909c-2.34,0.474-4.613,1.408-6.966,1.967c-2.427,0.577-4.923,0.668-7.177,1.148
			c-2.616,0.558-5.001,1.213-7.109,1.362c-3.158,0.225-5.668-0.092-6.855-1.622c-1.041-1.342-0.913-3.578,0.282-6.997
			c0.848-2.425,2.232-4.289,4-5.919c1.714-1.579,3.732-2.811,6.104-3.811c2.124-0.896,4.422-1.652,6.922-2.209
			c2.291-0.51,4.66-1.195,7.149-1.517c2.373-0.306,4.815-0.589,7.27-0.804c2.427-0.212,4.87-0.399,7.282-0.6
			c2.473-0.204,4.948-0.444,7.306-0.717c1.377,0.551,4.134,1.225,7.209,2.537c2.072,0.885,4.116,2.321,6.109,4.348
			c1.571,1.598,3.066,3.529,4.208,6.192c0.878,2.049,1.656,4.417,2.104,7.262C458.355,342.513,458.609,345.021,458.609,347.839z"/>
		<path fill="none" stroke="#000000" stroke-width="5" stroke-linecap="round" stroke-linejoin="round" stroke-miterlimit="10" d="
			M458.609,347.839c0,2.41,0.077,4.731-0.059,6.943c-0.149,2.414-0.297,4.739-0.637,6.921c-0.372,2.393-1.214,4.578-1.854,6.692
			c-0.695,2.298-1.579,4.398-2.639,6.371c-1.105,2.059-2.365,3.951-3.925,5.659c-1.516,1.66-3.117,3.334-5.115,4.666
			c-1.821,1.214-3.91,2.228-6.173,3.171c-2.005,0.836-4.209,1.532-6.59,2.157c-2.299,0.605-4.508,1.039-6.582,1.269
			c-2.44,0.271-4.708,0.331-6.705,0.15c-2.649-0.24-4.952-0.733-6.529-1.625c-2.333-1.318-3.36-3.524-2.439-5.817
			c0.606-1.51,2.318-2.941,4.723-4.68c1.522-1.102,3.238-2.56,5.583-3.702c1.795-0.876,3.944-1.503,6.262-2.383
			c-5.441,1.65-6.909,2.162-7.729,2.572c-1.074,0.537-1.094,0.682-7.842,2.042c-2.619,0.528-5.342,0.216-7.623-0.642
			c-2.764-1.039-5.022-2.856-5.375-5.209c-0.295-1.968,0.729-4.34,3.471-6.72c1.56-1.354,3.686-2.837,6.54-4.207
			c2.031-0.975,4.451-1.914,7.236-2.859c2.222-0.754,4.822-1.143,7.57-1.861c-3.798,1.394-3.472,0.835-7.851,2.044
			c-2.447,0.676-5.262,1.185-7.884,1.889c-2.986,0.802-5.805,1.536-7.83,2.026c-2.994,0.725-5.21,0.473-6.765-0.564
			c-2.013-1.344-2.67-3.731-2.401-6.147c0.248-2.228,1.229-4.515,3.291-5.918c1.902-1.295,4.068-2.415,6.459-3.546
			c2.062-0.976,4.321-1.895,6.826-2.77c2.163-0.755,4.491-1.513,7.035-2.205c2.229-0.607,4.549-1.341,7.104-1.909
			c-2.34,0.474-4.613,1.408-6.966,1.967c-2.427,0.577-4.923,0.668-7.177,1.148c-2.616,0.558-5.001,1.213-7.109,1.362
			c-3.158,0.225-5.668-0.092-6.855-1.622c-1.041-1.342-0.913-3.578,0.282-6.997c0.848-2.425,2.232-4.289,4-5.919
			c1.714-1.579,3.732-2.811,6.104-3.811c2.124-0.896,4.422-1.652,6.922-2.209c2.291-0.51,4.66-1.195,7.149-1.517
			c2.373-0.306,4.815-0.589,7.27-0.804c2.427-0.212,4.87-0.399,7.282-0.6c2.473-0.204,4.948-0.444,7.306-0.717
			c1.377,0.551,4.134,1.225,7.209,2.537c2.072,0.885,4.116,2.321,6.109,4.348c1.571,1.598,3.066,3.529,4.208,6.192
			c0.878,2.049,1.656,4.417,2.104,7.262C458.355,342.513,458.609,345.021,458.609,347.839z"/>
	</g>
	<g>
		<path fill="#FFFFFF" d="M147.168,353.784c0,2.525,0.154,4.819,0.362,6.94c0.25,2.541,0.68,4.775,1.235,6.817
			c0.662,2.438,1.393,4.582,2.499,6.45c1.207,2.039,2.791,3.643,4.539,5.195c1.654,1.47,3.287,3.144,5.437,4.352
			c1.891,1.063,4.087,1.866,6.37,2.851c2.001,0.863,4.097,1.869,6.404,2.754c2.571,0.986,5.11,1.552,7.426,1.991
			c2.84,0.538,5.426,0.457,7.633,0.293c3.379-0.253,5.808-1.106,6.886-2.613c1.199-1.678,0.759-3.973-2.178-6.582
			c-1.49-1.324-3.726-2.507-6.545-3.944c-1.984-1.012-4.256-2.255-6.974-3.287c2.857,0.866,4.855,1.312,6.235,1.756
			c3.121,1.004,3.45,1.541,6.08,2.098c1.328,0.279,3.228,0.607,6.311,1.229c2.772,0.559,5.539,0.169,7.599-0.77
			c2.631-1.198,4.129-3.45,3.333-6.159c-0.518-1.764-2.122-3.574-4.983-5.613c-1.727-1.229-3.764-2.783-6.548-4.029
			c-2.073-0.928-4.478-1.84-7.211-2.745c-2.229-0.738-4.832-1.317-7.539-2.025c-0.934-3.113,2.765,0.567,6.453,1.369
			c1.917,0.416,4.162,0.661,6.4,1.155c2.144,0.471,4.286,1.153,6.31,1.609c2.479,0.558,4.681,1.221,6.302,1.613
			c2.994,0.725,5.256,0.141,6.81-0.896c2.013-1.344,3.049-3.731,2.781-6.147c-0.247-2.228-1.588-4.465-3.65-5.869
			c-1.915-1.303-4.285-2.31-6.889-3.446c-2.184-0.953-4.548-1.949-7.179-2.805c-2.309-0.752-4.763-1.528-7.391-2.219
			c-2.38-0.625-4.823-1.427-7.447-2.012c2.212,0.447,4.339,1.084,6.475,1.422c2.284,0.363,4.489,0.818,6.584,1.005
			c2.396,0.213,4.655,0.065,6.658-0.03c2.613-0.124,4.817-0.561,6.454-1.369c2.144-1.059,3.151-2.751,2.933-5.343
			c-0.234-2.78-1.389-4.812-3.205-6.562c-1.669-1.606-3.702-3.11-6.337-4.062c-2.215-0.8-4.721-1.438-7.388-1.909
			c-2.402-0.424-4.96-0.688-7.568-0.94c-2.497-0.242-5.07-0.195-7.617-0.36c-2.566-0.166-5.119-0.397-7.599-0.565
			c-2.645-0.179-5.194-0.421-7.579-0.697c-1.83,0.737-4.15,1.363-6.594,2.396c-1.987,0.841-4.007,1.98-5.917,3.693
			c-1.561,1.399-2.878,3.236-4.125,5.588c-0.968,1.827-1.838,3.925-2.49,6.503c-0.516,2.039-1.288,4.274-1.543,6.87
			C146.973,348.869,147.168,351.225,147.168,353.784z"/>
		<path fill="none" stroke="#000000" stroke-width="5" stroke-linecap="round" stroke-linejoin="round" stroke-miterlimit="10" d="
			M147.168,353.784c0,2.525,0.154,4.819,0.362,6.94c0.25,2.541,0.68,4.775,1.235,6.817c0.662,2.438,1.393,4.582,2.499,6.45
			c1.207,2.039,2.791,3.643,4.539,5.195c1.654,1.47,3.287,3.144,5.437,4.352c1.891,1.063,4.087,1.866,6.37,2.851
			c2.001,0.863,4.097,1.869,6.404,2.754c2.571,0.986,5.11,1.552,7.426,1.991c2.84,0.538,5.426,0.457,7.633,0.293
			c3.379-0.253,5.808-1.106,6.886-2.613c1.199-1.678,0.759-3.973-2.178-6.582c-1.49-1.324-3.726-2.507-6.545-3.944
			c-1.984-1.012-4.256-2.255-6.974-3.287c2.857,0.866,4.855,1.312,6.235,1.756c3.121,1.004,3.45,1.541,6.08,2.098
			c1.328,0.279,3.228,0.607,6.311,1.229c2.772,0.559,5.539,0.169,7.599-0.77c2.631-1.198,4.129-3.45,3.333-6.159
			c-0.518-1.764-2.122-3.574-4.983-5.613c-1.727-1.229-3.764-2.783-6.548-4.029c-2.073-0.928-4.478-1.84-7.211-2.745
			c-2.229-0.738-4.832-1.317-7.539-2.025c-0.934-3.113,2.765,0.567,6.453,1.369c1.917,0.416,4.162,0.661,6.4,1.155
			c2.144,0.471,4.286,1.153,6.31,1.609c2.479,0.558,4.681,1.221,6.302,1.613c2.994,0.725,5.256,0.141,6.81-0.896
			c2.013-1.344,3.049-3.731,2.781-6.147c-0.247-2.228-1.588-4.465-3.65-5.869c-1.915-1.303-4.285-2.31-6.889-3.446
			c-2.184-0.953-4.548-1.949-7.179-2.805c-2.309-0.752-4.763-1.528-7.391-2.219c-2.38-0.625-4.823-1.427-7.447-2.012
			c2.212,0.447,4.339,1.084,6.475,1.422c2.284,0.363,4.489,0.818,6.584,1.005c2.396,0.213,4.655,0.065,6.658-0.03
			c2.613-0.124,4.817-0.561,6.454-1.369c2.144-1.059,3.151-2.751,2.933-5.343c-0.234-2.78-1.389-4.812-3.205-6.562
			c-1.669-1.606-3.702-3.11-6.337-4.062c-2.215-0.8-4.721-1.438-7.388-1.909c-2.402-0.424-4.96-0.688-7.568-0.94
			c-2.497-0.242-5.07-0.195-7.617-0.36c-2.566-0.166-5.119-0.397-7.599-0.565c-2.645-0.179-5.194-0.421-7.579-0.697
			c-1.83,0.737-4.15,1.363-6.594,2.396c-1.987,0.841-4.007,1.98-5.917,3.693c-1.561,1.399-2.878,3.236-4.125,5.588
			c-0.968,1.827-1.838,3.925-2.49,6.503c-0.516,2.039-1.288,4.274-1.543,6.87C146.973,348.869,147.168,351.225,147.168,353.784z"/>
	</g>
	<g>
		<g>
			
				<polyline fill="none" stroke="#000000" stroke-width="5" stroke-linecap="round" stroke-linejoin="round" stroke-miterlimit="10" points="
				38.324,176.851 41.243,183.374 43.231,190.243 45.857,196.876 48.137,203.634 50.742,210.273 53.922,216.699 56.469,223.36 
				58.709,230.137 60.628,237.029 63.688,243.504 66.281,250.158 68.543,256.935 			"/>
		</g>
		<g>
			
				<polyline fill="none" stroke="#000000" stroke-width="5" stroke-linecap="round" stroke-linejoin="round" stroke-miterlimit="10" points="
				68.214,163.923 70.975,170.526 73.425,177.244 75.85,183.965 78.136,190.74 81.028,197.294 83.4,204.038 85.631,210.835 
				87.774,217.661 90.73,224.197 92.711,231.093 95.44,237.716 			"/>
		</g>
		<g>
			
				<polyline fill="none" stroke="#000000" stroke-width="5" stroke-linecap="round" stroke-linejoin="round" stroke-miterlimit="10" points="
				100.223,176.76 93.539,179.429 86.898,182.183 80.361,185.185 73.738,187.998 67.144,190.875 60.337,193.261 53.909,196.53 
				47.076,198.849 40.514,201.812 34.122,205.183 27.367,207.711 			"/>
		</g>
		<g>
			
				<polyline fill="none" stroke="#000000" stroke-width="5" stroke-linecap="round" stroke-linejoin="round" stroke-miterlimit="10" points="
				32.637,244.896 38.985,241.912 45.385,239.034 51.713,236.02 57.838,232.575 64.459,230.16 70.543,226.623 77.063,223.995 
				83.14,220.435 89.631,217.753 96.016,214.834 102.548,212.211 108.742,208.882 			"/>
		</g>
		<g>
			
				<polyline fill="none" stroke="#000000" stroke-width="5" stroke-linecap="round" stroke-linejoin="round" stroke-miterlimit="10" points="
				112.583,157.043 115.981,150.962 118.743,144.52 122.867,138.85 125.509,132.337 129.646,126.661 132.766,120.264 
				134.491,127.261 136.364,134.094 137.3,141.151 139.608,147.88 141.378,154.737 142.926,161.648 143.954,168.685 145.84,175.511 
				147.344,182.432 148.855,189.352 150.907,196.142 152.674,203.002 153.62,210.054 155.478,216.896 157.59,223.68 159.225,230.58 
							"/>
		</g>
		<g>
			
				<polyline fill="none" stroke="#000000" stroke-width="5" stroke-linecap="round" stroke-linejoin="round" stroke-miterlimit="10" points="
				126.863,233.042 133.594,230.625 140.442,228.564 147.303,226.547 154.053,224.178 160.906,222.129 167.691,219.875 
				174.499,217.676 181.397,215.744 188.204,213.522 			"/>
		</g>
	</g>
	<g>
		<g>
			
				<polyline fill="none" stroke="#000000" stroke-width="5" stroke-linecap="round" stroke-linejoin="round" stroke-miterlimit="10" points="
				408.079,214.727 415.431,214.994 422.768,214.394 430.079,213.66 437.313,212.397 444.624,211.255 451.272,208.004 
				458.057,205.124 463.729,200.417 468.514,194.828 471.787,188.171 472.465,180.801 472.386,173.709 472.226,166.559 
				470.416,159.644 468.096,152.911 465.332,146.359 462.562,139.762 458.294,134.016 454.513,127.985 450.19,122.32 
				445.049,117.374 440.646,111.705 			"/>
		</g>
		<g>
			
				<polyline fill="none" stroke="#000000" stroke-width="5" stroke-linecap="round" stroke-linejoin="round" stroke-miterlimit="10" points="
				445.372,121.871 443.035,128.468 441.297,135.268 438.542,141.726 436.353,148.371 434.17,155.025 431.996,161.687 
				429.856,168.36 427.539,174.784 425.665,181.358 423.596,187.868 421.494,194.363 418.877,200.689 416.863,207.226 
				414.551,213.661 			"/>
		</g>
		<g>
			
				<polyline fill="none" stroke="#000000" stroke-width="5" stroke-linecap="round" stroke-linejoin="round" stroke-miterlimit="10" points="
				526.227,258.53 533.438,258.117 540.624,257.608 547.804,256.929 554.966,255.886 561.837,253.613 568.385,250.61 
				574.646,247.117 580.076,242.463 584.444,236.822 587.96,230.452 588.583,223.194 588.662,216.197 587.776,209.256 
				586.027,202.502 583.846,195.889 581.103,189.464 577.688,183.352 573.234,177.951 568.693,172.663 564.164,167.286 
				558.727,162.806 			"/>
		</g>
		<g>
			
				<polyline fill="none" stroke="#000000" stroke-width="5" stroke-linecap="round" stroke-linejoin="round" stroke-miterlimit="10" points="
				563.896,173.091 561.481,179.815 558.652,186.394 557.043,193.402 553.912,199.873 552.23,206.858 549.388,213.442 
				547.538,220.373 545.13,226.764 543.353,233.371 540.298,239.547 538.332,246.087 536.253,252.596 534.441,259.201 
				532.287,265.689 			"/>
		</g>
		<g>
			
				<polyline fill="none" stroke="#000000" stroke-width="5" stroke-linecap="round" stroke-linejoin="round" stroke-miterlimit="10" points="
				464.197,227.854 468.522,222.13 473.717,217.149 478.059,211.44 482.936,206.19 487.638,200.795 492.285,195.349 
				496.813,189.799 501.17,184.101 506.278,179.045 510.562,173.282 515.282,167.897 519.805,162.335 524.389,156.819 
				529.393,151.187 527.575,158.746 526.949,166.151 525.907,173.487 523.877,180.656 522.958,188.014 521.387,195.256 
				520.551,202.626 519.366,209.938 517.708,217.169 516.426,224.466 516.068,231.922 514.201,239.12 513.181,246.467 
				511.983,253.784 			"/>
		</g>
		<g>
			
				<polyline fill="none" stroke="#000000" stroke-width="5" stroke-linecap="round" stroke-linejoin="round" stroke-miterlimit="10" points="
				481.572,197.879 488.056,201.17 494.891,203.756 501.367,207.059 507.911,210.237 514.504,213.329 520.805,217.013 			"/>
		</g>
	</g>
</g>
</svg>
