<?xml version="1.0" encoding="utf-8"?>
<!-- Generator: Adobe Illustrator 15.1.0, SVG Export Plug-In . SVG Version: 6.00 Build 0)  -->
<!DOCTYPE svg PUBLIC "-//W3C//DTD SVG 1.1//EN" "http://www.w3.org/Graphics/SVG/1.1/DTD/svg11.dtd">
<svg version="1.1" id="Layer_1" xmlns="http://www.w3.org/2000/svg" xmlns:xlink="http://www.w3.org/1999/xlink" x="0px" y="0px"
	 width="160px" height="132px" viewBox="0 0 160 132" enable-background="new 0 0 160 132" xml:space="preserve">
<path fill="#231F20" d="M64.518,113.791c0.438-1.804,0.79-3.248,1.17-4.811c-1.947-0.864-2.771-2.474-3.526-4.188
	c-1.219-2.766-2.637-5.447-3.763-8.249c-0.481-1.2-0.73-2.646-0.581-3.919c0.777-6.589,1.027-13.246,2.863-19.695
	c1.667-5.86,3.899-11.464,6.927-16.747c1.631-2.846,3.193-5.745,5.034-8.453c2.501-3.677,5.099-7.308,7.915-10.748
	c2.875-3.508,5.94-6.882,9.147-10.091c3.86-3.863,7.976-7.472,11.949-11.225c3.545-3.347,7.054-6.733,10.562-10.121
	c0.6-0.58,1.065-1.366,2.305-0.793c-0.075,0.48-0.022,1.089-0.271,1.528c-0.788,1.388-1.62,2.76-2.558,4.05
	c-1.99,2.737-3.368,5.778-5.016,9.231c0.947-0.239,1.467-0.324,1.952-0.499c1.503-0.543,2.971-1.189,4.498-1.638
	c0.441-0.128,1.247,0.125,1.508,0.482c0.254,0.346,0.165,1.104-0.025,1.582c-0.277,0.689-0.778,1.291-1.188,1.927
	c-3.335,5.193-5.725,10.863-8.186,16.483c-2.765,6.316-5.375,12.704-7.91,19.117c-3.104,7.848-5.252,15.925-6.257,24.367
	c-0.642,5.396-2.284,10.673-3.441,16.012c-1.393,6.429-5.811,9.777-11.729,11.624c-0.08,0.023-0.165,0.035-0.244,0.062
	c-1.147,0.405-2.293,0.816-3.439,1.224c-0.202,1.997-0.491,3.992-0.542,5.995c-0.012,0.484,0.668,1.221,1.199,1.445
	c4.723,2.009,9.414,4.206,14.803,3.3c2.773-0.463,5.442-1.113,7.527-3.192c1.902-1.898,2.394-5.197,0.986-7.469
	c-0.836-1.35-2.101-2.158-3.728-2.307c-2.271-0.208-4.797,1.185-5.873,3.237c-1.165,2.221,0.271,4.64,2.769,4.659
	c1.162,0.01,1.933-0.679,2.178-1.999c0.145-0.774,0.23-1.561,0.387-2.634c2.531,3.047,1.772,5.478-1.545,6.198
	c-1.841,0.399-3.529-0.062-5.02-1.141c-1.521-1.1-2.006-3.224-1.256-4.999c2.187-5.17,9.748-6.516,13.616-2.423
	c2.06,2.18,1.968,6.589-0.23,9.097c-1.478,1.687-3.314,2.892-5.477,3.464c-5.31,1.407-10.594,1.891-15.797-0.57
	c-1.429-0.675-3-1.054-4.603-1.601c-1.01,1.445-0.928,3.069-1.114,4.604c-0.339,2.796-0.417,2.781-3.142,3.266
	c-3.377,0.602-6.84,0.306-10.197,1.355c-2.167,0.678-4.522,0.246-6.646-0.78c-3.846-1.856-5.221-5.983-3.261-9.743
	c1.4-2.69,3.466-4.46,6.54-5.044C57.298,112.356,60.763,111.928,64.518,113.791 M68.387,96.872c0.398-0.83,0.783-1.668,1.199-2.49
	c0.827-1.635,0.771-3.038-0.382-4.646c-1.722-2.403-2.852-5.146-3.021-8.175c-0.025-0.44,0.107-0.892,0.165-1.337
	c0.189-0.051,0.379-0.101,0.569-0.151c1.601,2.949,1.17,6.865,4.162,9.666c0.872-2.199,1.631-4.117,2.392-6.032l-0.026,0.027
	c2.354-5.393,4.723-10.777,7.033-16.189c0.2-0.47,0.118-1.141-0.03-1.661c-0.571-2.011-1.25-3.993-1.822-6.005
	c-0.11-0.383,0.075-0.852,0.17-1.676c1.92,1.971,1.361,4.614,2.913,6.495c0.362-0.504,0.641-0.812,0.831-1.166
	c3.176-5.931,6.33-11.875,9.51-17.804c0.633-1.18,1.307-2.346,2.062-3.453c0.2-0.294,0.764-0.34,1.722-0.724
	c-0.505,1.204-0.72,1.896-1.066,2.519c-5.136,9.177-10.128,18.414-14.093,28.188c-2.104,5.19-3.704,10.461-4.522,15.982
	c-0.067,0.449,0.036,0.925,0.071,1.599c2.783-1.186,2.787-4.689,5.423-5.993c-0.013,3.026-2.188,6.687-4.621,8.219
	c-0.618,0.387-1.477,0.803-1.664,1.387c-0.44,1.371-0.542,2.854-0.815,4.498c3.892-0.586,4.419-4.8,7.468-6.042
	c0.311,3.155-3.653,7.346-8.149,8.753c-0.541,2.456-1.188,4.98-1.256,7.843c1.568-0.532,2.754-0.938,3.943-1.336
	c4.29-1.427,7.18-4.324,8.647-8.544c1.965-5.66,3.392-11.474,3.903-17.449c0.654-7.605,2.396-14.936,5.118-22.042
	c5.089-13.274,10.231-26.531,17.493-38.828c0.059-0.098-0.059-0.295-0.162-0.74c-1.13,0.632-2.204,1.208-3.261,1.825
	c-1.236,0.718-2.42,1.539-3.698,2.163c-0.438,0.215-1.276,0.17-1.603-0.123c-0.281-0.256-0.258-1.085-0.088-1.559
	c0.312-0.862,0.863-1.632,1.262-2.466c0.814-1.699,1.593-3.413,2.385-5.121c-3.21,2.266-6.108,4.684-8.835,7.279
	c-2.917,2.778-5.697,5.702-8.493,8.606c-2.277,2.361-4.551,4.732-6.717,7.194c-4.859,5.524-8.588,11.816-12.366,18.099
	c-4.673,7.771-7.5,16.164-9.07,25.009c-0.734,4.134-1.093,8.337-1.551,12.52c-0.078,0.721,0.055,1.548,0.345,2.213
	c1.646,3.772,3.363,7.515,5.079,11.257c0.087,0.191,0.371,0.292,0.84,0.641c1.104-3.478,2.244-6.76,2.635-10.257L68.387,96.872z
	 M55.699,127.834c1.592-0.278,3.112-0.414,4.539-0.854c0.698-0.215,1.568-0.896,1.762-1.544c0.792-2.646,1.356-5.358,1.997-8.049
	c0.202-0.849-0.141-1.376-0.882-1.86c-3.385-2.204-6.946-2.403-10.562-0.83c-2.807,1.222-4.155,3.717-4.3,6.612
	c-0.14,2.806,1.655,4.688,4.1,5.797C53.385,127.572,54.611,127.609,55.699,127.834 M63.445,126.12
	c4.177,0.146,4.877-0.382,5.408-3.692c0.025-0.164,0.04-0.335,0.062-0.499c0.803-5.817,1.516-11.649,2.435-17.448
	c0.827-5.222,1.883-10.41,2.821-15.613c0.071-0.398,0.009-0.817,0.009-1.713C68.475,99.87,66.616,113.045,63.445,126.12"/>
<path fill="#FFFFFF" d="M68.413,96.843c-0.392,3.498-1.533,6.778-2.636,10.257c-0.469-0.348-0.752-0.449-0.84-0.641
	c-1.716-3.742-3.433-7.484-5.078-11.257c-0.291-0.666-0.424-1.492-0.346-2.213c0.458-4.183,0.817-8.386,1.551-12.521
	c1.569-8.844,4.397-17.237,9.07-25.008c3.777-6.283,7.506-12.574,12.366-18.099c2.166-2.462,4.439-4.832,6.717-7.194
	c2.796-2.904,5.577-5.828,8.493-8.606c2.727-2.595,5.624-5.013,8.836-7.279c-0.793,1.708-1.571,3.423-2.386,5.121
	c-0.398,0.833-0.949,1.605-1.263,2.467c-0.169,0.472-0.192,1.302,0.089,1.557c0.325,0.294,1.165,0.338,1.602,0.124
	c1.28-0.624,2.463-1.445,3.698-2.163c1.057-0.616,2.132-1.193,3.262-1.825c0.104,0.444,0.221,0.642,0.162,0.74
	c-7.262,12.298-12.404,25.554-17.494,38.829c-2.722,7.105-4.464,14.436-5.117,22.041c-0.513,5.976-1.938,11.788-3.903,17.449
	c-1.467,4.22-4.358,7.118-8.646,8.545c-1.191,0.396-2.377,0.802-3.944,1.334c0.067-2.861,0.715-5.385,1.256-7.842
	c4.495-1.407,8.46-5.598,8.148-8.753c-3.049,1.241-3.575,5.456-7.468,6.042c0.272-1.646,0.375-3.126,0.814-4.499
	c0.187-0.583,1.046-0.999,1.664-1.387c2.434-1.531,4.608-5.191,4.621-8.219c-2.636,1.305-2.641,4.809-5.423,5.994
	c-0.035-0.674-0.138-1.149-0.071-1.599c0.818-5.522,2.417-10.791,4.522-15.982c3.965-9.774,8.958-19.011,14.093-28.189
	c0.347-0.621,0.561-1.315,1.065-2.519c-0.957,0.385-1.521,0.431-1.721,0.725c-0.755,1.107-1.429,2.273-2.062,3.453
	c-3.18,5.928-6.335,11.873-9.509,17.804c-0.191,0.354-0.47,0.662-0.832,1.166c-1.552-1.881-0.993-4.524-2.913-6.495
	c-0.095,0.825-0.281,1.293-0.17,1.676c0.573,2.011,1.251,3.994,1.823,6.006c0.147,0.52,0.23,1.19,0.03,1.66
	c-2.31,5.412-4.679,10.797-7.032,16.189c-1.661-2.396-2.387-5.106-2.789-7.95c-0.116-0.815-0.076-1.827-1.049-2.285
	c-0.216,0.198-0.433,0.299-0.439,0.413c-0.163,2.901,0.376,5.677,1.94,8.124c0.481,0.752,1.559,1.124,2.364,1.671
	c-0.76,1.915-1.52,3.834-2.392,6.032c-2.991-2.8-2.561-6.717-4.162-9.665c-0.189,0.05-0.379,0.1-0.568,0.151
	c-0.058,0.445-0.19,0.896-0.165,1.336c0.169,3.029,1.298,5.771,3.021,8.174c1.153,1.608,1.209,3.012,0.382,4.646
	c-0.416,0.822-0.801,1.66-1.199,2.49c-1.055-1.99-2.095-3.989-3.169-5.972c-1.042-1.923-0.702-4.405-2.497-6.084
	c-0.222,0.726-0.341,1.44-0.202,2.102c0.663,3.159,2.227,5.942,3.901,8.64C66.795,96.166,67.733,96.424,68.413,96.843
	 M83.947,57.741c0.473-2.229,0.363-2.764-0.77-3.775C82.909,55.339,82.772,56.56,83.947,57.741"/>
<path fill="#FFFFFF" d="M55.7,127.834c-1.088-0.224-2.315-0.26-3.347-0.729c-2.446-1.107-4.24-2.99-4.1-5.795
	c0.145-2.896,1.492-5.392,4.3-6.613c3.616-1.573,7.176-1.373,10.562,0.832c0.74,0.482,1.084,1.01,0.882,1.858
	c-0.64,2.69-1.205,5.403-1.997,8.05c-0.195,0.647-1.063,1.328-1.762,1.544C58.812,127.42,57.29,127.555,55.7,127.834"/>
<path fill="#FFFFFF" d="M63.445,126.12c3.171-13.075,5.03-26.25,10.736-38.966c0,0.896,0.062,1.314-0.009,1.713
	c-0.938,5.203-1.995,10.392-2.821,15.613c-0.919,5.799-1.632,11.631-2.435,17.448c-0.022,0.164-0.037,0.335-0.062,0.499
	C68.322,125.738,67.622,126.266,63.445,126.12"/>
<path fill="#231F20" d="M68.413,96.843c-0.679-0.419-1.617-0.677-1.993-1.285c-1.675-2.697-3.239-5.48-3.902-8.64
	c-0.138-0.661-0.02-1.376,0.202-2.102c1.797,1.679,1.455,4.161,2.498,6.084c1.074,1.982,2.114,3.981,3.168,5.972L68.413,96.843z"/>
<path fill="#231F20" d="M73.469,83.707c-0.805-0.547-1.883-0.919-2.364-1.671c-1.563-2.447-2.103-5.223-1.94-8.124
	c0.007-0.114,0.223-0.215,0.439-0.413c0.974,0.458,0.934,1.47,1.049,2.285c0.402,2.844,1.128,5.555,2.789,7.95L73.469,83.707z"/>
<path fill="#231F20" d="M83.947,57.741c-1.175-1.181-1.038-2.402-0.77-3.775C84.311,54.977,84.42,55.511,83.947,57.741"/>
</svg>
