<?xml version="1.0" encoding="utf-8"?>
<!-- Generator: Adobe Illustrator 15.1.0, SVG Export Plug-In . SVG Version: 6.00 Build 0)  -->
<!DOCTYPE svg PUBLIC "-//W3C//DTD SVG 1.1//EN" "http://www.w3.org/Graphics/SVG/1.1/DTD/svg11.dtd">
<svg version="1.1" id="Layer_1" xmlns="http://www.w3.org/2000/svg" xmlns:xlink="http://www.w3.org/1999/xlink" x="0px" y="0px"
	 width="160px" height="132px" viewBox="0 0 160 132" enable-background="new 0 0 160 132" xml:space="preserve">
<path fill="#231F20" d="M79.932,121.079c-3.308-0.498-6.619-0.969-9.922-1.5c-3.6-0.579-7.199-1.214-10.468-2.946
	c-4.289-2.271-8.61-4.49-12.795-6.941c-2.643-1.548-5.239-3.279-7.531-5.297c-2.079-1.832-3.898-4.036-5.515-6.303
	c-3.542-4.964-6.509-10.291-8.052-16.228c-1.078-4.146-2.177-8.387-2.382-12.628c-0.182-3.754,0.648-7.612,1.4-11.348
	c1.585-7.866,4.85-15.085,9.015-21.922c2.921-4.794,6.964-8.572,11.277-11.975C51.964,18.468,60.017,15,68.765,13.24
	c1.54-0.312,3.157-0.245,4.74-0.332c1.118-0.063,2.32,0.157,3.342-0.18c3.209-1.059,6.32-0.384,9.369,0.419
	c5.235,1.376,10.403,3.01,15.61,4.496c5.7,1.627,10.544,4.733,14.844,8.701c2.736,2.527,5.57,5.04,7.827,7.971
	c2.022,2.626,3.532,5.718,4.884,8.773c2.191,4.957,3.908,10.094,5.057,15.422c0.545,2.53,0.131,5.271,1.613,7.62
	c0.176,0.28-0.117,0.869-0.223,1.31c-0.461,1.9-0.812,3.84-1.427,5.689c-1.233,3.717-2.463,7.448-3.963,11.062
	c-4.349,10.471-11.498,18.63-20.622,25.312c-4.892,3.584-10.072,6.383-15.73,8.411c-0.704,0.254-1.438,0.448-2.105,0.773
	c-3.084,1.5-6.268,2.406-9.746,1.93c-0.733-0.102-1.493-0.015-2.241-0.015C79.973,120.761,79.952,120.92,79.932,121.079
	 M118.019,68.558c0.244-1.486,1.216-1.76,2.242-1.925c2.948-0.474,5.885-1.12,8.853-1.335c2.724-0.196,3.326-0.639,2.764-3.76
	c-0.132-0.731-0.396-1.439-0.613-2.154c-0.868-2.857-1.944-5.671-2.576-8.579c-2.065-9.495-7.639-16.809-14.669-23.001
	c-8.175-7.201-18.382-10.11-28.798-12.279c-0.828-0.172-1.77,0.203-2.75,0.337c-0.052-0.115-0.1-0.438-0.285-0.584
	c-1.312-1.042-2.683-0.311-3.976,0.021c-1.18,0.304-1.007,1.454-0.975,2.361c0.115,3.362,0.299,6.721,0.427,10.083
	c0.064,1.677-0.065,3.305-2.042,4.798c-0.307-1.55-0.609-2.67-0.741-3.809c-0.417-3.618-0.703-7.252-1.177-10.861
	c-0.24-1.824-0.629-2.097-2.399-1.951c-1.481,0.122-2.972,0.38-4.406,0.772c-6.899,1.885-13.416,4.599-19.231,8.872
	c-4.176,3.066-7.92,6.568-10.933,10.775c-5.032,7.028-7.895,15.023-9.895,23.336c-0.53,2.205-1.102,4.523-0.433,7.139
	c1.436-0.075,2.806-0.142,4.175-0.221c2.05-0.117,4.098-0.306,6.148-0.345c1.043-0.018,2.596-0.32,2.636,1.255
	c0.038,1.474-1.425,1.469-2.547,1.527c-1.12,0.056-2.246,0.011-3.364,0.089c-1.768,0.119-3.541,0.234-5.294,0.475
	c-2.355,0.323-2.488,0.543-2.144,2.874c0.95,6.433,2.908,12.482,6.09,18.219c3.237,5.835,7.437,10.718,12.685,14.751
	c0.797,0.611,1.763,1.005,2.654,1.493c0.861,0.474,1.756,0.895,2.581,1.423c0.782,0.501,1.46,1.164,2.242,1.666
	c6.059,3.89,12.7,6.358,19.755,7.566c2.721,0.467,5.569,0.217,8.359,0.232c1.299,0.008,1.811-0.809,1.718-2.033
	c-0.055-0.745-0.224-1.484-0.241-2.228c-0.056-2.518-0.115-5.037-0.062-7.554c0.014-0.615,0.458-1.221,0.704-1.832
	c0.248,0.028,0.496,0.056,0.742,0.081c0.203,1.427,0.492,2.848,0.584,4.28c0.137,2.143,0.074,4.298,0.205,6.443
	c0.15,2.461,0.85,2.993,3.192,2.539c1.007-0.193,2.009-0.46,2.978-0.797c7.844-2.731,15.06-6.594,21.283-12.147
	c2.504-2.238,5.192-4.379,7.223-7.008c4.059-5.254,7.482-10.98,10.096-17.095c1.384-3.238,2.189-6.729,3.18-10.128
	c0.189-0.647,0.028-1.397,0.028-2.204C127.243,67.842,122.709,70.112,118.019,68.558"/>
<path fill="#FFFFFF" d="M118.02,68.558c4.688,1.555,9.224-0.716,13.99-0.421c0,0.806,0.162,1.556-0.026,2.204
	c-0.991,3.399-1.797,6.889-3.182,10.128c-2.611,6.116-6.036,11.84-10.095,17.094c-2.031,2.629-4.718,4.772-7.223,7.009
	c-6.224,5.556-13.439,9.416-21.283,12.147c-0.969,0.337-1.971,0.604-2.977,0.797c-2.345,0.454-3.043-0.079-3.192-2.54
	c-0.131-2.144-0.069-4.3-0.206-6.442c-0.091-1.434-0.382-2.854-0.583-4.279c-0.248-0.027-0.496-0.054-0.744-0.081
	c-0.246,0.61-0.69,1.216-0.703,1.832c-0.054,2.515,0.007,5.035,0.062,7.553c0.018,0.743,0.186,1.482,0.242,2.228
	c0.092,1.225-0.42,2.041-1.719,2.032c-2.791-0.015-5.639,0.235-8.359-0.23c-7.055-1.208-13.696-3.678-19.755-7.568
	c-0.782-0.502-1.46-1.165-2.242-1.666c-0.826-0.527-1.72-0.948-2.581-1.422c-0.891-0.489-1.858-0.882-2.655-1.494
	c-5.248-4.032-9.448-8.916-12.685-14.751c-3.182-5.735-5.139-11.786-6.089-18.218c-0.344-2.331-0.211-2.549,2.143-2.874
	c1.754-0.241,3.527-0.355,5.295-0.475c1.118-0.077,2.243-0.032,3.363-0.089c1.122-0.059,2.585-0.055,2.548-1.526
	c-0.04-1.576-1.593-1.274-2.636-1.254c-2.051,0.038-4.099,0.225-6.148,0.343c-1.369,0.08-2.739,0.146-4.175,0.22
	c-0.67-2.614-0.098-4.932,0.433-7.138c2-8.312,4.862-16.308,9.895-23.335c3.013-4.208,6.757-7.709,10.932-10.777
	c5.816-4.272,12.333-6.986,19.232-8.872c1.434-0.392,2.925-0.648,4.405-0.771c1.771-0.147,2.159,0.127,2.399,1.95
	c0.475,3.608,0.761,7.243,1.178,10.86c0.131,1.141,0.433,2.26,0.741,3.81c1.977-1.492,2.106-3.12,2.042-4.798
	c-0.129-3.361-0.312-6.722-0.428-10.083c-0.031-0.906-0.204-2.059,0.976-2.361c1.293-0.331,2.664-1.063,3.976-0.021
	c0.187,0.147,0.232,0.471,0.285,0.585c0.981-0.135,1.922-0.51,2.75-0.338c10.416,2.169,20.623,5.078,28.799,12.28
	c7.029,6.193,12.603,13.505,14.668,23.001c0.633,2.909,1.708,5.721,2.575,8.579c0.218,0.715,0.482,1.423,0.614,2.155
	c0.563,3.12-0.04,3.562-2.763,3.759c-2.968,0.215-5.905,0.861-8.854,1.335C119.235,66.798,118.263,67.071,118.02,68.558
	 M102.539,34.693c-0.92-0.637-1.895-0.455-2.916,0.232c-1.003,0.676-2.016,1.366-3.105,1.878
	c-10.061,4.73-20.144,9.411-30.201,14.151c-0.614,0.289-1.328,0.847-1.531,1.439c-0.847,2.469-1.716,4.959-2.199,7.515
	c-0.605,3.204-0.693,6.505-1.264,9.719c-1.419,7.99-2.995,15.953-4.472,23.934c-0.085,0.461,0.142,0.979,0.259,1.684
	c1.298-0.689,2.327-1.302,3.408-1.798c5.179-2.381,10.405-4.657,15.548-7.11c4.217-2.012,8.347-4.207,12.502-6.347
	c1.002-0.517,2.01-1.084,2.047-2.436c0.119-4.377,2.089-8.294,3.158-12.431c1.963-7.593,4.256-15.103,6.428-22.643
	C100.915,40.005,101.684,37.54,102.539,34.693"/>
<path fill="#231F20" d="M102.539,34.693c-0.856,2.847-1.623,5.312-2.338,7.788c-2.173,7.54-4.466,15.05-6.428,22.643
	c-1.07,4.137-3.04,8.054-3.158,12.431c-0.037,1.352-1.046,1.919-2.048,2.436c-4.155,2.14-8.284,4.335-12.501,6.347
	c-5.143,2.453-10.37,4.729-15.548,7.11c-1.082,0.496-2.111,1.108-3.408,1.798c-0.117-0.705-0.345-1.223-0.26-1.684
	c1.478-7.98,3.053-15.943,4.473-23.934c0.57-3.214,0.658-6.515,1.264-9.719c0.482-2.556,1.352-5.046,2.198-7.515
	c0.204-0.593,0.918-1.15,1.532-1.439c10.056-4.739,20.14-9.421,30.2-14.151c1.09-0.512,2.104-1.202,3.105-1.878
	C100.645,34.238,101.619,34.057,102.539,34.693 M87.658,78.132c-2.296-2.793-4.586-5.584-6.882-8.374
	c-1.292-1.57-3.167-0.679-4.743-0.986c-0.539-0.104-1.501,0.928-1.963,1.64c-2.43,3.739-4.757,7.547-7.132,11.324
	c-0.446,0.708-0.997,1.354-1.413,2.077c-1.222,2.124-2.401,4.273-3.775,6.731C67.039,89.007,85.482,80.086,87.658,78.132
	 M94.838,40.614c-0.194-0.24-0.391-0.48-0.586-0.72c-4.346,2.086-8.713,4.137-13.036,6.269c-4.363,2.15-9.276,3.188-13.499,6.373
	c2.556,3.06,4.909,5.877,7.284,8.72c5.044-1.137,4.983-1.183,7.981-5.17c3.304-4.397,6.739-8.696,10.106-13.045
	C93.699,42.253,94.257,41.424,94.838,40.614 M90.802,65.411c-2.183,1.036-3.062,0.214-3.9-0.654
	c-1.166-1.209-2.241-2.514-3.471-3.653c-1.243-1.15-1.451-1.042-2.615,0.809c2.72,2.643,5.447,5.307,8.198,7.945
	c0.24,0.231,0.645,0.292,1.343,0.592c0.829-2.966,1.613-5.771,2.277-8.146c-2.446-2.344-4.558-4.369-6.902-6.617
	c-0.825,1.119-1.461,1.979-2.168,2.938C85.933,60.845,88.156,62.93,90.802,65.411 M66.119,54.131
	c-0.662,2.266-1.431,4.009,0.218,5.63c1.992,1.957,3.985,3.916,6.026,5.821c0.459,0.429,1.12,0.642,1.938,1.092
	c0.182-2.019-0.098-3.331-1.324-4.468c-0.804-0.746-1.297-1.815-2.022-2.658C69.463,57.812,67.912,56.131,66.119,54.131
	 M65.303,61.382c-1.374,2.755-1.586,3.929-0.613,4.776c2.014,1.755,4.16,3.356,6.453,5.183c0.716-0.962,1.242-1.668,1.882-2.526
	c-1.699-1.747-3.222-3.364-4.805-4.922C67.374,63.062,66.421,62.339,65.303,61.382 M89.031,51.241
	c-0.717,1.029-1.43,2.058-2.169,3.122c1.207,1.146,2.193,2.134,3.234,3.06c0.991,0.882,1.672,2.195,3.505,2.67
	c0.234-1.553,1.025-3.209,0.512-4.162C93.066,53.987,91.879,51.79,89.031,51.241 M64.14,68.164c-1.018,1.226-1.52,2.594-0.417,3.571
	c1.539,1.365,2.905,3.101,5.075,3.718c0.797-0.941,1.736-1.82,0.736-2.956C68.014,70.774,66.25,69.306,64.14,68.164 M90.054,49.662
	c1.92,1.315,3.541,2.429,5.161,3.539c1.949-3.362,1.517-4.684-2.446-6.872C91.856,47.448,90.908,48.612,90.054,49.662
	 M89.554,72.953c-2.813-2.756-5.292-5.185-7.772-7.612c-0.199,0.174-0.398,0.348-0.599,0.523c0.917,3.676,4.237,5.733,6.334,8.613
	c0.168,0.23,0.649,0.235,1.147,0.396C89.004,74.141,89.3,73.502,89.554,72.953 M62.856,73.531c-1.612,3.229-1.282,4.5,1.457,6.009
	c1.396,0.77,1.73,0.578,2.982-1.8C66.106,76.083,64.882,74.414,62.856,73.531 M64.651,82.034c-1.21-0.902-2.231-1.662-3.352-2.496
	c-1.333,3.783-1.254,4.155,1.167,5.536C63.118,84.169,63.786,83.238,64.651,82.034 M96.855,46.431
	c1.811-2.776,1.748-3.501-0.381-4.529c-0.594,0.828-1.207,1.684-1.936,2.697C95.473,45.338,96.154,45.877,96.855,46.431
	 M59.155,89.944c2.387-2.215,2.39-2.238,0.775-3.738C59.643,87.592,59.398,88.769,59.155,89.944"/>
<path fill="#FFFFFF" d="M87.658,78.131c-2.176,1.954-20.62,10.875-25.908,12.412c1.374-2.458,2.553-4.605,3.775-6.729
	c0.417-0.725,0.967-1.37,1.413-2.078c2.375-3.778,4.702-7.584,7.132-11.325c0.462-0.712,1.425-1.744,1.963-1.638
	c1.577,0.306,3.451-0.584,4.744,0.986C83.072,72.547,85.363,75.338,87.658,78.131"/>
<path fill="#FFFFFF" d="M94.839,40.613c-0.582,0.811-1.14,1.64-1.75,2.428c-3.368,4.349-6.804,8.647-10.108,13.045
	c-2.997,3.987-2.936,4.033-7.981,5.17c-2.375-2.843-4.727-5.66-7.283-8.72c4.223-3.186,9.136-4.223,13.499-6.373
	c4.323-2.132,8.69-4.183,13.036-6.269C94.447,40.135,94.644,40.374,94.839,40.613"/>
<path fill="#FFFFFF" d="M90.802,65.41c-2.646-2.479-4.87-4.564-7.237-6.786c0.707-0.958,1.342-1.817,2.168-2.938
	c2.344,2.248,4.455,4.273,6.901,6.618c-0.664,2.374-1.448,5.179-2.276,8.144c-0.699-0.299-1.103-0.359-1.344-0.591
	c-2.752-2.638-5.479-5.302-8.199-7.945c1.166-1.851,1.373-1.959,2.616-0.809c1.229,1.139,2.306,2.444,3.472,3.653
	C87.74,65.625,88.619,66.446,90.802,65.41"/>
<path fill="#FFFFFF" d="M66.118,54.13c1.793,2,3.346,3.683,4.836,5.418c0.725,0.844,1.219,1.91,2.022,2.657
	c1.227,1.139,1.507,2.449,1.325,4.469c-0.818-0.449-1.479-0.662-1.939-1.093c-2.041-1.903-4.034-3.862-6.026-5.819
	C64.687,58.141,65.456,56.397,66.118,54.13"/>
<path fill="#FFFFFF" d="M65.303,61.381c1.119,0.957,2.07,1.682,2.916,2.513c1.584,1.556,3.107,3.175,4.805,4.922
	c-0.639,0.856-1.165,1.562-1.882,2.525c-2.292-1.825-4.439-3.429-6.453-5.184C63.717,65.312,63.929,64.138,65.303,61.381"/>
<path fill="#FFFFFF" d="M89.03,51.24c2.849,0.55,4.036,2.746,5.084,4.69c0.513,0.954-0.279,2.609-0.513,4.163
	c-1.834-0.476-2.514-1.789-3.506-2.671c-1.039-0.926-2.026-1.913-3.233-3.061C87.602,53.299,88.315,52.271,89.03,51.24"/>
<path fill="#FFFFFF" d="M64.14,68.164c2.112,1.143,3.874,2.61,5.394,4.333c1.001,1.136,0.061,2.016-0.736,2.955
	c-2.17-0.616-3.536-2.351-5.075-3.717C62.62,70.758,63.123,69.391,64.14,68.164"/>
<path fill="#FFFFFF" d="M90.054,49.661c0.854-1.05,1.804-2.214,2.716-3.332c3.963,2.188,4.394,3.51,2.445,6.871
	C93.595,52.091,91.974,50.978,90.054,49.661"/>
<path fill="#FFFFFF" d="M89.554,72.952c-0.254,0.55-0.55,1.188-0.89,1.922c-0.498-0.161-0.979-0.166-1.147-0.396
	c-2.097-2.879-5.417-4.938-6.334-8.614c0.2-0.175,0.399-0.348,0.599-0.522C84.262,67.769,86.74,70.196,89.554,72.952"/>
<path fill="#FFFFFF" d="M62.856,73.53c2.025,0.884,3.25,2.553,4.439,4.21c-1.252,2.378-1.586,2.569-2.983,1.8
	C61.575,78.03,61.245,76.76,62.856,73.53"/>
<path fill="#FFFFFF" d="M64.651,82.033c-0.865,1.204-1.534,2.136-2.185,3.04c-2.421-1.38-2.5-1.753-1.167-5.535
	C62.42,80.372,63.441,81.133,64.651,82.033"/>
<path fill="#FFFFFF" d="M96.855,46.431c-0.701-0.556-1.383-1.094-2.314-1.831c0.727-1.017,1.34-1.869,1.934-2.697
	C98.604,42.93,98.666,43.654,96.855,46.431"/>
<path fill="#FFFFFF" d="M59.155,89.944c0.244-1.176,0.488-2.353,0.775-3.738C61.544,87.706,61.542,87.729,59.155,89.944"/>
</svg>
