<?xml version="1.0" encoding="utf-8"?>
<!-- Generator: Adobe Illustrator 15.1.0, SVG Export Plug-In . SVG Version: 6.00 Build 0)  -->
<!DOCTYPE svg PUBLIC "-//W3C//DTD SVG 1.1//EN" "http://www.w3.org/Graphics/SVG/1.1/DTD/svg11.dtd">
<svg version="1.1" id="Layer_1" xmlns="http://www.w3.org/2000/svg" xmlns:xlink="http://www.w3.org/1999/xlink" x="0px" y="0px"
	 width="160px" height="132px" viewBox="0 0 160 132" enable-background="new 0 0 160 132" xml:space="preserve">
<path fill="#231F20" d="M104.781,46.266c0.685,1.596,1.266,2.949,1.85,4.304c2.404,5.567,4.855,11.117,7.189,16.715
	c0.834,2,0.535,2.348-1.474,3.043c-7.591,2.622-15.153,5.329-22.765,7.889c-11.153,3.754-22.29,7.549-33.661,10.635
	c-4.403,1.194-8.623,3.058-12.952,4.54c-2.117,0.727-4.292,1.284-6.443,1.91c-0.358,0.105-0.732,0.154-1.09,0.257
	c-5.246,1.512-6.796,3.911-6.01,9.336c0.106,0.737,0.321,1.46,0.466,2.19c0.57,2.881-0.365,5.428-2.105,7.588
	c-1.32,1.64-3.431,1.944-5.397,1.622c-1.819-0.297-2.723-1.823-3.277-3.504c-0.616-1.866-0.252-3.684,0.217-5.515
	c0.532-2.078,1.179-4.152,1.443-6.268c0.339-2.707-0.058-3.102-2.954-4.101c0.662-0.54,1.192-0.981,1.732-1.41
	c2.996-2.373,5.988-4.75,8.994-7.11c1.76-1.382,3.565-2.709,5.312-4.105c5.614-4.491,11.151-9.077,16.833-13.48
	c4.28-3.315,8.739-6.401,13.113-9.599c3.461-2.531,6.888-5.111,10.377-7.603c2.43-1.734,4.949-3.345,7.412-5.033
	c2.385-1.638,4.738-3.32,7.125-4.952c3.615-2.473,7.256-4.904,10.871-7.375c7.018-4.799,13.975-9.687,21.055-14.39
	c3.262-2.167,6.678-4.138,10.174-5.899c1.692-0.854,3.721-1.377,5.612-1.426c4.187-0.11,6.034,2.7,5.397,6.843
	c-0.61,3.964-3.487,6.1-6.108,8.348c-3.608,3.094-7.517,5.847-11.383,8.624c-1.113,0.8-2.544,1.145-3.791,1.773
	c-3.843,1.935-7.802,3.545-11.968,4.656C107.348,45.097,106.193,45.7,104.781,46.266 M57.158,69.302
	c1.218,1.189,2.461,1.96,3.066,3.077c1.567,2.9,1.638,3.046,4.953,2.249c0.817-0.196,1.63-0.53,2.453-0.557
	c0.902-0.031,2.06-0.083,2.673,0.411c1.698,1.368,2.943,0.816,4.469-0.284c2.709-1.954,4.349-1.608,6.439,1.046
	c2.197,2.79,2.197,2.792,5.607,1.638c0.53-0.179,1.057-0.376,1.582-0.57c3.938-1.463,7.847-3.013,11.823-4.359
	c2.562-0.869,5.238-1.396,7.837-2.164c1.125-0.333,2.185-0.893,3.43-1.416c-0.344-1.042-0.535-1.849-0.865-2.594
	c-3.557-8.021-7.123-16.035-10.715-24.038c-0.674-1.501-1.455-1.656-2.854-0.698c-3.696,2.534-7.452,4.981-11.065,7.624
	c-5.797,4.245-11.564,8.535-17.212,12.974c-2.706,2.126-5.121,4.616-8.337,6.037C59.352,68.158,58.305,68.732,57.158,69.302
	 M26.985,94.001c2.092-0.396,4.191-0.755,6.273-1.198c4.186-0.889,8.433-1.585,12.526-2.797c5.723-1.693,11.309-3.843,16.989-5.69
	c5.06-1.648,10.184-3.102,15.249-4.734c2.523-0.815,2.727-2.226,0.796-4.062c-0.795-0.755-1.597-0.938-2.513-0.344
	c-0.861,0.558-1.647,1.239-2.539,1.737c-1.071,0.596-2.407,1.233-3.358,0.152c-1.442-1.64-2.927-1.215-4.568-0.65
	c-0.703,0.245-1.438,0.412-2.169,0.555c-3.111,0.612-3.566,0.353-4.817-2.667c-0.856-2.064-1.508-2.564-3.644-1.775
	c-3.465,1.28-6.929,2.599-9.794,5.136c-3.841,3.399-7.68,6.833-11.795,9.878C31.129,89.387,28.89,91.401,26.985,94.001
	 M105.15,42.883c0.322-0.076,0.781-0.161,1.226-0.296c1.953-0.593,3.938-1.101,5.842-1.827c3.298-1.257,6.817-2.22,9.751-4.083
	c5.333-3.385,10.704-6.78,15.27-11.271c1.494-1.468,2.418-3.005,2.69-5.031c0.386-2.84-0.972-4.364-3.802-3.903
	c-1.538,0.251-3.051,0.853-4.487,1.493c-6.249,2.792-11.956,6.482-17.389,10.624c-3.699,2.82-7.449,5.573-11.179,8.354
	c-0.957,0.713-2.146,1.246-1.592,2.854C102.158,41.761,103.4,42.907,105.15,42.883 M28.007,96.144
	c-2.742-0.487-3.634-0.179-3.621,1.671c0.023,3.529-1.01,6.745-2.071,10.033c-0.455,1.409-0.308,3.17,0.062,4.648
	c0.5,2.001,2.62,2.322,3.806,0.609c0.587-0.849,0.922-2.08,0.872-3.113c-0.095-1.938-0.561-3.855-0.857-5.784
	C25.753,101.322,25.39,98.445,28.007,96.144"/>
<path fill="#FFFFFF" d="M57.158,69.302c1.146-0.569,2.194-1.145,3.283-1.625c3.215-1.421,5.631-3.91,8.337-6.036
	c5.647-4.44,11.414-8.73,17.211-12.975c3.614-2.643,7.371-5.091,11.065-7.624c1.4-0.958,2.182-0.803,2.854,0.698
	c3.593,8.002,7.159,16.018,10.716,24.038c0.33,0.745,0.522,1.551,0.865,2.594c-1.245,0.523-2.304,1.082-3.43,1.415
	c-2.6,0.771-5.274,1.296-7.836,2.164c-3.977,1.348-7.887,2.898-11.824,4.36c-0.525,0.194-1.051,0.391-1.582,0.57
	c-3.41,1.153-3.41,1.151-5.607-1.639c-2.089-2.653-3.73-3-6.438-1.045c-1.526,1.101-2.772,1.653-4.469,0.284
	c-0.613-0.494-1.771-0.442-2.673-0.411c-0.823,0.027-1.636,0.361-2.454,0.557c-3.314,0.797-3.385,0.651-4.953-2.249
	C59.619,71.263,58.375,70.49,57.158,69.302"/>
<path fill="#FFFFFF" d="M26.985,94.001c1.905-2.601,4.144-4.613,6.636-6.461c4.115-3.046,7.954-6.479,11.795-9.879
	c2.865-2.536,6.329-3.854,9.794-5.136c2.136-0.789,2.788-0.289,3.644,1.777c1.251,3.018,1.706,3.277,4.817,2.667
	c0.731-0.145,1.466-0.312,2.169-0.556c1.641-0.563,3.126-0.988,4.568,0.65c0.951,1.081,2.287,0.444,3.358-0.153
	c0.892-0.497,1.678-1.18,2.539-1.735c0.916-0.595,1.718-0.411,2.513,0.344c1.931,1.836,1.726,3.247-0.796,4.061
	c-5.065,1.635-10.189,3.087-15.25,4.734c-5.679,1.848-11.265,3.998-16.988,5.692c-4.093,1.212-8.34,1.906-12.526,2.797
	C31.176,93.245,29.076,93.605,26.985,94.001"/>
<path fill="#FFFFFF" d="M105.152,42.883c-1.752,0.024-2.994-1.122-3.672-3.087c-0.554-1.607,0.635-2.141,1.592-2.854
	c3.729-2.78,7.479-5.533,11.178-8.354c5.434-4.142,11.141-7.832,17.39-10.624c1.437-0.641,2.949-1.242,4.487-1.493
	c2.83-0.461,4.187,1.063,3.803,3.903c-0.273,2.026-1.198,3.563-2.689,5.031c-4.566,4.49-9.938,7.886-15.271,11.271
	c-2.935,1.863-6.454,2.826-9.751,4.083c-1.904,0.727-3.891,1.234-5.842,1.827C105.932,42.722,105.473,42.807,105.152,42.883
	 M131.099,21.061c-0.274,0.043-0.562,0.05-0.823,0.135c-3.376,1.095-5.486,3.67-7.283,6.501c-0.283,0.445,0.107,1.631,0.556,2.165
	c0.847,1.009,2.051,1.074,3.315,0.605c2.94-1.092,4.932-3.292,6.564-5.79C134.492,23.049,133.082,21.034,131.099,21.061"/>
<path fill="#FFFFFF" d="M28.007,96.144c-2.617,2.302-2.254,5.179-1.809,8.064c0.296,1.929,0.762,3.847,0.857,5.784
	c0.05,1.033-0.285,2.265-0.872,3.113c-1.186,1.713-3.306,1.392-3.806-0.609c-0.37-1.479-0.517-3.239-0.062-4.648
	c1.061-3.288,2.094-6.504,2.071-10.033C24.373,95.965,25.265,95.656,28.007,96.144"/>
<path fill="#231F20" d="M131.1,21.062c1.983-0.028,3.392,1.986,2.328,3.614c-1.633,2.498-3.623,4.698-6.564,5.79
	c-1.264,0.47-2.469,0.403-3.315-0.605c-0.448-0.534-0.84-1.719-0.557-2.165c1.798-2.831,3.907-5.406,7.284-6.501
	C130.537,21.11,130.824,21.104,131.1,21.062 M131.279,23.224c-2.803,1.173-4.631,2.695-5.969,5.011
	C127.727,28.312,129.93,26.505,131.279,23.224"/>
<path fill="#FFFFFF" d="M131.279,23.224c-1.35,3.281-3.553,5.089-5.969,5.011C126.648,25.919,128.477,24.396,131.279,23.224"/>
</svg>
