<?xml version="1.0" encoding="utf-8"?>
<!-- Generator: Adobe Illustrator 15.1.0, SVG Export Plug-In . SVG Version: 6.00 Build 0)  -->
<!DOCTYPE svg PUBLIC "-//W3C//DTD SVG 1.1//EN" "http://www.w3.org/Graphics/SVG/1.1/DTD/svg11.dtd">
<svg version="1.1" id="Layer_1" xmlns="http://www.w3.org/2000/svg" xmlns:xlink="http://www.w3.org/1999/xlink" x="0px" y="0px"
	 width="160px" height="132px" viewBox="0 0 160 132" enable-background="new 0 0 160 132" xml:space="preserve">
<path fill="#231F20" d="M88.301,108.267c0.529,0.039,1.06,0.1,1.592,0.11c2.636,0.06,5.273,0.1,7.91,0.158
	c1.141,0.022,1.986,0.854,1.935,1.864c-0.093,1.754-1.552,3.236-3.616,3.503c-1.27,0.164-2.572,0.177-3.858,0.18
	c-1.074,0.002-1.558,0.438-1.841,1.291c-0.908,2.725,0.184,5.634,2.895,7.292c0.461,0.282,1.107,0.381,1.688,0.473
	c0.662,0.104,1.406-0.013,2.004,0.198c0.472,0.165,1.09,0.679,1.099,1.045c0.031,1.34-0.151,2.669-1.354,3.73
	c-0.809,0.713-1.663,1.079-2.871,1.014c-2.641-0.146-5.286-0.235-7.932-0.241c-3.185-0.007-6.366,0.159-9.548,0.134
	c-3.664-0.029-7.329-0.143-10.989-0.306c-1.769-0.078-2.201-0.572-2.314-2.09c-0.04-0.525-0.102-1.049-0.152-1.571
	c-0.157-1.646,0.215-2.08,2.117-2.375c0.525-0.082,1.078-0.067,1.615-0.045c1.797,0.073,3.104-0.554,4.074-1.867
	c1.372-1.857,1.354-4.474-0.111-6.082c-0.703-0.77-1.519-1.294-2.709-1.368c-1.216-0.078-2.432-0.219-3.637-0.384
	c-1.693-0.231-2.067-0.669-1.924-2.124c0.237-2.385,0.994-3.091,3.809-3.566c1.197-0.203,2.395-0.409,3.587-0.63
	c0.09-0.018,0.146-0.172,0.287-0.354c-2.5-1.462-4.964-2.982-7.518-4.379c-5.147-2.815-9.54-6.274-13.377-10.383
	c-2.791-2.99-5.083-6.184-7.14-9.545c-0.189-0.311-0.417-0.608-0.555-0.936c-1.341-3.118-2.686-6.235-3.987-9.367
	c-0.708-1.706-0.183-2.701,1.896-3.201c2.217-0.534,4.521-0.8,6.754-1.288c2.757-0.603,5.479-1.32,8.221-1.973
	c2.092-0.5,4.215-0.917,6.279-1.488c1.149-0.318,2.194-0.903,3.311-1.323c1.762-0.662,2.431-1.944,2.775-3.442
	c0.222-0.97,0.544-1.924,0.712-2.899c0.117-0.684,0.06-1.39,0.066-2.088c0.008-0.923,0.002-1.849,0.002-2.99
	c-1.625-1.191-2.25-2.987-2.368-4.976c-0.03-0.522-0.224-1.036-0.275-1.558c-0.085-0.868-0.773-1.15-1.605-1.359
	c-0.866-0.217-1.26,0.265-1.616,0.772c-0.722,1.034-1.713,1.784-2.959,2.335c-1.356,0.599-2.767,0.745-4.133,0.238
	c-3.289-1.22-6.018-2.94-6.919-6.187c-0.163-0.592-0.497-1.229-0.975-1.666c-1.985-1.813-2.165-4.763-0.226-6.624
	c1.012-0.971,2.256-1.752,3.844-1.79c3.325-0.08,5.383-1.656,6.756-4.078c0.505-0.892,0.997-1.799,1.358-2.739
	c1.309-3.385,3.358-6.257,7.298-7.909c-0.129-0.535-0.25-0.978-0.339-1.425c-0.481-2.401,1.08-4.721,4.271-4.558
	c1.395,0.071,2.452-0.203,3.262-1.323c1.25-1.729,3.347-1.783,5.278-1.302c1.44,0.359,2.502,0.239,3.786-0.352
	c1.574-0.727,3.275-0.736,4.782,0.323c0.519,0.364,1.016,0.39,1.68,0.153c3.116-1.11,6.386-0.447,8.676,1.724
	c1,0.946,1.943,1.937,2.872,2.937c0.433,0.464,0.893,0.689,1.579,0.488c0.579-0.168,1.182-0.28,1.745-0.478
	c1.942-0.682,3.502-0.006,4.761,1.148c0.816,0.75,1.512,1.689,1.931,2.65c0.714,1.634,1.269,3.333,1.705,5.04
	c0.77,3.024,1.438,6.068,2.064,9.117c0.213,1.026,0.751,1.63,1.843,2.101c2.636,1.134,3.875,4.197,2.512,6.444
	c-0.739,1.22-1.809,2.336-2.933,3.324c-1.279,1.127-3.094,1.383-4.758,0.967c-2.69-0.671-4.009,0.29-5.356,2.201
	c-1.958,2.778-3.27,5.748-4.588,8.745c-0.376,0.857-0.878,1.728-1.557,2.421c-0.809,0.824-1.192,1.675-1.093,2.717
	c0.081,0.873,0.135,1.749,0.282,2.613c0.238,1.413,1.177,2.127,2.816,2.62c3.03,0.903,6.101,1.595,9.24,2.086
	c3.999,0.625,8.005,1.229,12.012,1.809c0.794,0.114,1.316,0.447,1.346,1.095c0.046,1.035,0.251,2.181-0.161,3.096
	c-1.645,3.641-2.717,7.469-5.014,10.904c-3.048,4.56-6.047,9.118-10.342,12.951c-3.133,2.799-6.761,5.055-10.326,7.386
	c-2.38,1.556-4.808,3.054-7.693,3.89c-0.668,0.192-1.242,0.621-1.859,0.94C88.164,108,88.233,108.133,88.301,108.267 M69.308,51.942
	c-0.14,1.762-0.26,3.383-0.403,5.004c-0.077,0.873-0.107,1.758-0.312,2.609c-0.45,1.86-1.631,3.288-3.599,4.225
	c-2.273,1.084-4.621,1.969-7.228,2.262c-0.399,0.044-0.781,0.197-1.176,0.276c-5.072,1.039-9.937,2.754-15.158,3.325
	c-2.675,0.294-2.996,0.938-1.991,3.039c0.102,0.218,0.209,0.433,0.316,0.646c1.236,2.462,2.465,4.925,3.716,7.383
	c0.244,0.479,0.53,0.952,0.869,1.387c2.195,2.808,4.337,5.648,6.638,8.392c2.867,3.418,6.015,6.638,10.13,9.03
	c1.968,1.144,3.893,2.358,5.953,3.365c4.235,2.066,8.242,4.503,12.956,5.817c1.5,0.417,2.549,0.319,3.661-0.635
	c0.698-0.601,1.584-1.224,2.504-1.414c2.406-0.495,4.627-1.396,6.651-2.482c2.986-1.599,5.745-3.522,8.52-5.398
	c1.596-1.078,3.161-2.234,4.515-3.527c3.361-3.214,6.316-6.649,8.885-10.42c2.959-4.349,4.686-9.054,6.782-13.667
	c0.122-0.27,0.17-0.566,0.228-0.854c0.174-0.887-0.185-1.464-1.275-1.656c-0.796-0.142-1.565-0.391-2.363-0.518
	c-4.002-0.639-8.022-1.192-12.006-1.897c-2.117-0.375-4.146-1.183-6.273-1.439c-1.743-0.211-2.481-1.002-2.904-2.25
	c-0.206-0.612-0.254-1.262-0.433-1.884c-0.234-0.82-0.076-1.736-0.667-2.453c-2.378,0.345-4.643,0.686-6.912,0.999
	c-2.666,0.369-5.45,0.459-7.764-0.728c-2.948-1.513-5.98-3.026-8.297-5.305C72.004,52.323,70.962,51.911,69.308,51.942
	 M70.295,43.201c0.225-0.072,0.448-0.143,0.673-0.213c0.353,0.583,0.795,1.141,1.04,1.756c0.529,1.325,1.155,2.655,1.388,4.027
	c0.506,2.98,2.363,4.993,5.121,6.783c3.355,2.176,6.814,3.28,10.978,2.492c0.794-0.149,1.603-0.271,2.41-0.344
	c4.023-0.371,6.356-2.365,7.365-5.64c1.001-3.245,2.565-6.258,4.864-8.984c1.802-2.139,2.593-4.466,1.733-7.102
	c-0.201-0.613-0.232-1.267-0.368-1.897c-0.61-2.812-1.181-5.629-1.87-8.427c-0.314-1.282-0.871-2.52-1.352-3.867
	c-3.023,0.863-5.521-0.108-7.925-1.218c-1.488-0.687-2.968-0.787-4.521-0.467c-1.114,0.23-2.22,0.542-3.273,0.924
	c-1.04,0.378-2.046,0.554-3.161,0.309c-4.445-0.976-5.84,0.56-7.604,2.636c-0.631,0.741-1.358,1.457-2.183,2.033
	c-2.712,1.887-4.916,4.176-7.141,6.454c-0.905,0.927-1.35,1.873-0.517,3.018c0.119,0.163,0.067,0.417,0.104,0.707
	c-0.521-0.242-0.915-0.424-1.457-0.678c-1.354,1.76-1.455,3.688-1.549,5.576c-0.016,0.303,0.902,0.808,1.469,0.923
	c0.773,0.157,0.96-0.458,1.052-1.014c0.097-0.586,0.224-1.168,0.383-1.985c1.212,1.344,1.618,3.034,1.08,4.489
	c-0.479,1.298-0.291,2.559,0.097,3.796c0.64,2.047,2.588,3.276,5.368,3.422C71.607,48.207,70.574,45.769,70.295,43.201
	 M81.654,8.561c0.626,0.448,1.098,0.871,1.658,1.171c1.859,0.999,2.459,2.745,3.455,4.249c0.14,0.213,0.004,0.752-0.217,0.897
	c-0.209,0.137-0.728,0.004-1.061-0.113c-0.223-0.079-0.397-0.318-0.527-0.518c-1.574-2.403-4.062-4.032-6.497-5.707
	c-1.535-1.057-3.416-0.762-4.548,0.924c0.314,0.186,0.761,0.367,1.076,0.654c1.443,1.313,2.867,2.642,4.257,3.999
	c0.427,0.416,0.625,1.008,0.05,1.415c-0.625,0.441-1.127,0.018-1.534-0.409c-0.216-0.227-0.425-0.458-0.612-0.701
	c-1.379-1.783-3.468-2.795-5.669-3.543c-0.988-0.333-2.272-0.221-3.37-0.057c-1.037,0.155-1.559,1.028-1.599,2.009
	c-0.036,0.873,0.373,1.581,1.369,1.704c1.834,0.227,2.907,1.426,4.258,2.261c1.424,0.879,2.295,2.124,2.803,3.564
	c0.165,0.47,0.381,0.929,0.649,1.568c0.517-0.386,0.851-0.577,1.1-0.831c1.151-1.179,2.634-1.588,4.366-1.457
	c0.742,0.056,1.509,0.027,2.222,0.185c1.058,0.234,1.93,0.025,2.92-0.335c1.668-0.611,3.422-1.224,5.196-1.405
	c2.136-0.218,4.317-0.072,6.074,1.394c1.848,1.544,2.58,1.519,5.126,0.102c-0.155-0.614-0.203-1.333-0.515-1.951
	c-1.892-3.764-4.41-7.136-8.701-9.192c-0.944-0.453-2.182-0.58-3.292-0.607c-0.855-0.021-1.09,0.626-0.562,1.242
	c0.32,0.373,0.745,0.68,1.103,1.03c1.072,1.052,2.204,2.066,3.169,3.188c0.456,0.531,0.633,1.264,0.826,1.929
	c0.052,0.174-0.302,0.437-0.64,0.885c-0.531-0.592-0.907-1.041-1.32-1.463c-1.306-1.339-2.569-2.712-3.965-3.978
	c-0.646-0.585-1.327-1.063-1.798-1.826C85.845,7.12,83.447,6.961,81.654,8.561 M53.224,31.096c0.073,0.515,0.172,0.86,0.162,1.205
	c-0.05,1.817-2.311,3.021-4.232,2.272c-0.851-0.332-0.919-0.624-0.333-1.704c0.289,0.099,0.587,0.194,0.88,0.3
	c0.708,0.255,1.377,0.21,1.77-0.391c0.168-0.255,0.19-0.725,0.022-0.963c-0.425-0.604-1.138-0.514-1.818-0.328
	c-0.128,0.037-0.249,0.092-0.371,0.144c-2.14,0.92-3.205,2.796-2.737,4.823c0.235,1.021,0.927,1.293,1.838,0.561
	c1.209-0.97,2.642-1.449,4.186-1.662c3.184-0.438,4.917-2.157,6.104-4.586c1.05-2.147,2.278-4.235,3.567-6.286
	c0.94-1.496,2.746-2.072,4.789-1.607c-0.577,0.397-1.051,0.685-1.471,1.02c-0.833,0.664-1.753,1.283-2.419,2.059
	c-0.677,0.788-1.072,1.75-1.621,2.622c-1.316,2.091-2.077,4.461-4.198,6.144c-0.706,0.562-0.465,1.131-0.043,1.729
	c0.767,1.085,1.053,2.27,0.781,3.523c-0.191,0.879-0.81,1.481-1.829,1.701c-0.999,0.215-1.903-0.054-2.637-0.627
	c-0.991-0.775-0.871-1.865,0.316-2.565c0.196,0.371,0.319,0.771,0.592,1.068c0.224,0.244,0.758,0.578,0.923,0.502
	c0.341-0.158,0.7-0.543,0.751-0.87c0.291-1.874-1.484-2.986-3.485-2.224c-0.372,0.141-0.731,0.312-1.078,0.494
	c-1.977,1.038-2.424,2.656-1.241,4.344c1.106,1.577,2.848,2.515,4.696,3.237c1.721,0.674,3.194-0.111,4.385-1.149
	c1.058-0.922,1.474-1.935,0.742-3.321c-1.25-2.366-0.269-4.688,2.195-6.327c0.884-0.589,1.733-1.325,2.29-2.15
	c1.708-2.528,3.889-4.629,6.776-6.177c0.404-0.215,0.77-0.482,1.17-0.702c1.476-0.808,1.776-1.988,1.444-3.361
	c-0.478-1.975-1.676-3.502-3.575-4.726c-0.912-0.587-1.707-0.768-2.789-0.634c-3.352,0.412-5.468,2.21-6.983,4.608
	c-0.905,1.432-1.494,3.008-2.346,4.468C57.159,27.683,56.163,29.999,53.224,31.096 M71.189,122.248
	c3.961,0.676,7.596,0.605,11.244,0.519c2.218-0.055,4.445,0.1,6.668,0.165c0.558,0.017,1.114,0.054,1.739,0.086
	c-0.092-0.328-0.082-0.467-0.158-0.539c-2.037-1.914-2.589-4.153-2.052-6.66c0.104-0.479,0.016-0.988,0.016-1.644
	c-5.579-0.236-10.951-0.463-16.641-0.703C73.843,116.546,74.113,119.413,71.189,122.248 M64.641,123.761
	c0.062,0.884,0.098,1.568,0.162,2.256c0.143,1.543,0.282,1.661,2.089,1.681c9.158,0.101,18.316,0.186,27.476,0.303
	c0.917,0.011,1.403-0.315,1.591-1.04c0.104-0.396,0.219-0.8,0.242-1.204c0.063-1.091-0.204-1.419-1.437-1.47
	c-4.131-0.167-8.262-0.353-12.396-0.396c-2.905-0.027-5.797,0.169-8.722-0.077C70.781,123.572,67.866,123.761,64.641,123.761
	 M89.158,113.115c0.002-0.053,0.006-0.104,0.008-0.158c2.037,0,4.075,0.047,6.108-0.016c1.418-0.042,2.149-0.641,2.424-1.741
	c0.202-0.821-0.065-1.206-1.055-1.34c-1.071-0.145-2.156-0.313-3.232-0.307c-2.634,0.013-5.27,0.111-7.902,0.202
	c-1.614,0.056-3.296,0.449-4.82,0.176c-2.229-0.398-4.34-1.273-6.513-1.926c-0.694-0.207-1.432-0.521-2.125-0.479
	c-1.891,0.111-3.781,0.324-5.646,0.618c-1.691,0.265-2.381,1.164-2.139,2.664c0.054,0.334,0.418,0.747,0.769,0.896
	c0.464,0.196,1.052,0.199,1.591,0.23c2.503,0.148,5.006,0.283,7.51,0.413C79.145,112.607,84.151,112.859,89.158,113.115
	 M107.581,35.16c1.193-1.207,2.16-2.407,3.391-3.351c0.848-0.649,1.051-1.193,0.83-2.102c-0.55-2.287-0.896-4.61-1.482-6.888
	c-0.702-2.724-1.026-5.555-2.625-8.056c-0.444-0.696-0.991-1.388-1.663-1.922c-1.065-0.847-1.991-0.79-3.077-0.017
	c-1.004,0.714-1.08,1.025-0.383,2.276c1.3,2.336,2.331,4.712,2.095,7.377c-0.046,0.503,0.214,1.028,0.352,1.54
	c0.47,1.759,1.004,3.508,1.409,5.278C106.87,31.231,107.198,33.188,107.581,35.16 M108.043,36.942c0,0.903,0.031,1.644-0.006,2.381
	c-0.051,0.94,0.529,1.333,1.517,1.545c2.499,0.541,5.934-0.963,6.807-3.047c0.134-0.322,0.234-0.689,0.197-1.022
	c-0.125-1.099-0.267-2.199-0.522-3.28c-0.082-0.342-0.475-0.732-0.847-0.906c-1.158-0.543-2.402-0.885-3.653-0.204
	c-1.257,0.684-2.128,1.634-2.244,2.958c-0.08,0.931,0.539,1.525,1.479,1.897c0.933,0.369,1.734,0.14,2.361-0.501
	c0.291-0.301,0.688-0.718,0.635-1.032c-0.085-0.503-0.505-0.963-0.808-1.485c0.82-0.222,1.559-0.035,1.747,0.551
	c0.197,0.614,0.213,1.421-0.098,1.975c-0.754,1.342-2.688,1.803-4.403,1.181C109.536,37.709,108.923,37.357,108.043,36.942"/>
<path fill="#FFFFFF" d="M69.307,51.943c1.655-0.031,2.696,0.379,3.562,1.23c2.317,2.277,5.35,3.792,8.297,5.305
	c2.313,1.187,5.098,1.097,7.764,0.729c2.27-0.313,4.533-0.654,6.912-1c0.591,0.718,0.433,1.634,0.667,2.454
	c0.179,0.621,0.227,1.271,0.433,1.885c0.423,1.248,1.161,2.038,2.904,2.249c2.128,0.257,4.155,1.066,6.273,1.439
	c3.983,0.705,8.004,1.259,12.006,1.897c0.797,0.128,1.567,0.377,2.363,0.518c1.092,0.193,1.449,0.771,1.275,1.658
	c-0.058,0.288-0.105,0.584-0.228,0.853c-2.098,4.613-3.823,9.318-6.782,13.667c-2.568,3.772-5.523,7.209-8.885,10.421
	c-1.354,1.294-2.919,2.449-4.515,3.526c-2.774,1.876-5.533,3.801-8.52,5.399c-2.024,1.085-4.245,1.988-6.651,2.483
	c-0.92,0.188-1.806,0.812-2.504,1.412c-1.112,0.956-2.161,1.053-3.661,0.636c-4.714-1.315-8.721-3.751-12.956-5.818
	c-2.061-1.005-3.985-2.22-5.953-3.365c-4.115-2.393-7.263-5.61-10.13-9.03c-2.3-2.743-4.443-5.583-6.638-8.391
	c-0.339-0.435-0.625-0.908-0.869-1.388c-1.251-2.456-2.479-4.921-3.716-7.381c-0.107-0.215-0.214-0.431-0.316-0.646
	c-1.005-2.103-0.684-2.746,1.993-3.041c5.22-0.571,10.084-2.286,15.157-3.323c0.395-0.08,0.777-0.231,1.176-0.277
	c2.607-0.292,4.955-1.176,7.228-2.262c1.967-0.938,3.148-2.365,3.599-4.226c0.205-0.851,0.236-1.736,0.312-2.607
	C69.048,55.326,69.167,53.704,69.307,51.943 M71.203,65.979c-0.856,1.059-0.175,1.542,0.48,1.917
	c1.564,0.896,3.172,1.739,4.781,2.573c1.209,0.628,2.501,0.996,4.484,0.689C77.594,69.161,74.379,67.726,71.203,65.979
	 M84.457,65.699c-0.311-0.408-0.594-0.859-0.967-1.248c-0.386-0.395-0.799-0.827-1.312-1.051c-0.297-0.13-0.875,0.043-1.206,0.233
	c-0.12,0.07,0.001,0.641,0.188,0.886c0.512,0.671,1.13,1.282,1.676,1.937c0.769,0.922,1.768,1.123,2.734,0.298
	c1.332-1.137,2.503-2.413,3.731-3.64c0.035-0.037-0.094-0.194-0.169-0.339C86.801,62.759,86.437,65.078,84.457,65.699
	 M89.177,71.863c0.477,0.779,1.113,0.645,1.826,0.248c1.709-0.947,3.438-1.871,5.122-2.846c0.328-0.189,0.504-0.575,0.819-0.957
	C95.076,68.202,90.695,70.261,89.177,71.863"/>
<path fill="#FFFFFF" d="M70.295,43.201c0.278,2.569,1.312,5.005,2.205,7.508c-2.78-0.145-4.728-1.375-5.368-3.421
	c-0.387-1.237-0.575-2.498-0.097-3.796c0.539-1.455,0.133-3.145-1.08-4.489c-0.159,0.816-0.286,1.399-0.383,1.984
	c-0.091,0.557-0.279,1.172-1.052,1.015c-0.567-0.114-1.485-0.621-1.469-0.922c0.094-1.889,0.196-3.817,1.549-5.576
	c0.542,0.253,0.936,0.435,1.457,0.679c-0.037-0.291,0.014-0.544-0.104-0.708c-0.833-1.145-0.388-2.092,0.517-3.017
	c2.225-2.279,4.429-4.567,7.141-6.455c0.826-0.576,1.552-1.292,2.183-2.033c1.763-2.076,3.159-3.612,7.604-2.635
	c1.115,0.244,2.121,0.068,3.161-0.31c1.054-0.384,2.159-0.695,3.273-0.924c1.553-0.32,3.032-0.22,4.521,0.466
	c2.403,1.111,4.901,2.081,7.925,1.219c0.48,1.347,1.037,2.585,1.352,3.867c0.689,2.798,1.26,5.616,1.87,8.427
	c0.136,0.629,0.168,1.283,0.368,1.897c0.859,2.636,0.068,4.962-1.733,7.101c-2.299,2.727-3.863,5.741-4.864,8.985
	c-1.009,3.275-3.342,5.269-7.365,5.64c-0.808,0.073-1.616,0.193-2.41,0.344c-4.163,0.788-7.622-0.315-10.978-2.492
	c-2.758-1.79-4.615-3.804-5.121-6.783c-0.233-1.373-0.859-2.703-1.388-4.028c-0.245-0.614-0.688-1.172-1.04-1.755
	C70.744,43.059,70.52,43.129,70.295,43.201 M87.17,42.559c-0.735-1.037-1.592-1.156-2.561-0.89c-0.992,0.275-1.354,0.974-1.24,1.793
	c0.144,1.022,0.619,1.979,1.825,2.353c2.316,0.72,4.651,1.207,7.118,0.319c1.215-0.436,1.818-1.028,1.933-2.177
	c0.255-2.551-0.385-5.008-1.153-7.403c-0.558-1.745-1.231-3.439-1.367-5.263c-0.028-0.376-0.339-0.734-0.685-1.431
	c-0.673,2.582,0.17,4.544,0.773,6.574c0.668,2.244,1.083,4.551,1.448,6.848c0.084,0.526-0.296,1.309-0.772,1.664
	c-1.466,1.085-5.646,0.897-7.133-0.208c-0.588-0.44-1.032-0.993-0.695-1.688c0.311-0.645,0.998-0.433,1.598-0.376
	C86.444,42.688,86.64,42.629,87.17,42.559 M96.938,49.944c-1.804-0.564-3.114-0.865-4.3-1.376c-0.926-0.398-1.733-0.556-2.694-0.187
	c-1.033,0.396-2.04,0.409-3.138-0.012c-0.514-0.194-1.354-0.089-1.888,0.146c-1.618,0.716-3.279,1.068-5.098,0.956
	c-0.374-0.023-0.765,0.184-1.147,0.285c0.492,0.494,0.964,0.708,1.46,0.77c1.657,0.206,3.245,0.021,4.712-0.73
	c0.583-0.297,1.157-0.629,1.887-0.272c1.185,0.578,2.353,0.361,3.512-0.091c0.478-0.187,0.973-0.35,1.391,0.15
	c-0.816,0.572-2.177,0.107-2.576,1.202c1.542,0.524,4.103,0.546,6.414,0.02C95.857,50.716,96.177,50.401,96.938,49.944 M74.3,32.125
	l-0.069,0.495c0.495,0.136,0.98,0.312,1.487,0.399c1.592,0.276,3.192,0.518,4.789,0.771c0.933,0.147,1.861,0.329,2.802,0.426
	c1.654,0.171,2.598-0.257,3.182-1.361c0.714-1.345,0.471-2.864-0.604-3.782c-0.593,0.714-0.593,0.714-0.673,1.85
	c-0.104,1.475-0.651,1.972-2.38,2.01c-0.736,0.014-1.482-0.112-2.219-0.207c-1.609-0.208-3.211-0.458-4.823-0.647
	C75.307,32.022,74.799,32.106,74.3,32.125 M93.495,30.206l-0.615,0.393c-0.066,0.159-0.21,0.327-0.185,0.472
	c0.134,0.808,0.27,1.619,0.48,2.413c0.365,1.381,1.271,2,2.92,1.781c2.135-0.282,4.246-0.703,6.354-1.12
	c0.543-0.106,1.247-0.216,1.239-0.974c-0.564-0.585-1.215-0.24-1.838-0.097c-1.438,0.332-2.868,0.701-4.316,1.004
	c-2.296,0.479-2.519,0.347-3.104-1.599c-0.135-0.451-0.273-0.902-0.45-1.342C93.852,30.817,93.659,30.515,93.495,30.206
	 M82.575,37.064c-2.654-1.288-4.131-1.103-4.948,0.523C79.308,38.155,80.815,37.849,82.575,37.064 M102.15,37.743
	c-1.641-0.784-2.903-0.935-4.221-0.502c-0.316,0.104-0.532,0.436-0.792,0.662c0.318,0.245,0.621,0.683,0.958,0.701
	C99.352,38.672,100.583,38.492,102.15,37.743"/>
<path fill="#FFFFFF" d="M81.654,8.561c1.793-1.6,4.19-1.442,5.251,0.277c0.471,0.763,1.152,1.241,1.798,1.826
	c1.396,1.266,2.659,2.64,3.965,3.978c0.413,0.422,0.789,0.871,1.32,1.463c0.338-0.447,0.691-0.709,0.64-0.885
	c-0.194-0.665-0.371-1.397-0.827-1.93c-0.963-1.121-2.096-2.135-3.168-3.187c-0.357-0.352-0.782-0.658-1.103-1.031
	c-0.526-0.616-0.293-1.262,0.562-1.242c1.11,0.028,2.348,0.155,3.292,0.608c4.29,2.056,6.81,5.427,8.701,9.192
	c0.312,0.618,0.359,1.337,0.516,1.951c-2.547,1.417-3.279,1.442-5.127-0.102c-1.757-1.467-3.938-1.612-6.074-1.395
	c-1.776,0.181-3.528,0.795-5.196,1.405c-0.99,0.361-1.862,0.57-2.919,0.335c-0.714-0.158-1.48-0.129-2.222-0.184
	c-1.734-0.131-3.217,0.277-4.368,1.456c-0.247,0.253-0.582,0.445-1.099,0.831c-0.268-0.641-0.484-1.099-0.649-1.569
	c-0.508-1.44-1.379-2.685-2.803-3.563c-1.352-0.834-2.424-2.034-4.258-2.26c-0.996-0.125-1.404-0.832-1.369-1.705
	c0.04-0.981,0.562-1.855,1.599-2.01c1.098-0.164,2.382-0.275,3.37,0.059c2.202,0.747,4.29,1.758,5.669,3.542
	c0.188,0.244,0.396,0.475,0.612,0.701c0.406,0.427,0.909,0.85,1.533,0.409c0.576-0.407,0.378-0.999-0.048-1.414
	c-1.39-1.357-2.814-2.686-4.257-4c-0.316-0.287-0.763-0.468-1.077-0.654c1.133-1.685,3.012-1.98,4.548-0.922
	c2.433,1.674,4.921,3.304,6.495,5.707c0.132,0.2,0.307,0.439,0.528,0.518c0.333,0.116,0.852,0.249,1.061,0.112
	c0.222-0.145,0.356-0.684,0.217-0.896c-0.996-1.504-1.597-3.251-3.455-4.25C82.752,9.432,82.28,9.01,81.654,8.561"/>
<path fill="#FFFFFF" d="M53.224,31.096c2.939-1.097,3.935-3.412,5.174-5.536c0.852-1.459,1.44-3.036,2.345-4.467
	c1.516-2.397,3.631-4.196,6.983-4.608c1.082-0.133,1.877,0.046,2.789,0.633c1.899,1.224,3.098,2.752,3.575,4.725
	c0.332,1.374,0.031,2.554-1.444,3.362c-0.401,0.22-0.767,0.486-1.168,0.702c-2.889,1.549-5.069,3.649-6.777,6.177
	c-0.556,0.825-1.405,1.561-2.29,2.15c-2.463,1.64-3.445,3.961-2.195,6.328c0.732,1.385,0.315,2.398-0.742,3.32
	c-1.189,1.038-2.664,1.823-4.384,1.149c-1.848-0.722-3.589-1.66-4.696-3.237c-1.182-1.688-0.736-3.307,1.239-4.344
	c0.349-0.182,0.708-0.353,1.08-0.494c2.001-0.762,3.775,0.35,3.485,2.224c-0.05,0.325-0.41,0.711-0.751,0.869
	c-0.165,0.077-0.698-0.257-0.922-0.501c-0.273-0.297-0.396-0.698-0.593-1.068c-1.186,0.701-1.305,1.791-0.314,2.565
	c0.733,0.573,1.639,0.843,2.636,0.627c1.019-0.22,1.637-0.821,1.829-1.701c0.272-1.254-0.015-2.437-0.781-3.523
	c-0.421-0.598-0.663-1.167,0.043-1.728c2.121-1.683,2.882-4.054,4.198-6.144c0.549-0.873,0.944-1.835,1.621-2.624
	c0.666-0.776,1.586-1.393,2.419-2.059c0.42-0.335,0.894-0.622,1.471-1.019c-2.043-0.465-3.848,0.111-4.789,1.608
	c-1.29,2.049-2.517,4.138-3.567,6.285c-1.188,2.429-2.921,4.146-6.104,4.586c-1.544,0.212-2.978,0.691-4.187,1.662
	c-0.911,0.732-1.603,0.46-1.838-0.562c-0.468-2.026,0.597-3.903,2.737-4.823c0.122-0.052,0.244-0.106,0.371-0.142
	c0.68-0.188,1.393-0.278,1.818,0.326c0.167,0.238,0.146,0.708-0.022,0.963c-0.393,0.601-1.062,0.646-1.77,0.39
	c-0.293-0.105-0.591-0.201-0.88-0.299c-0.587,1.08-0.519,1.372,0.332,1.704c1.922,0.75,4.182-0.455,4.232-2.272
	C53.396,31.957,53.295,31.611,53.224,31.096"/>
<path fill="#FFFFFF" d="M70.962,122.247c2.925-2.834,2.655-5.7,0.816-8.774c5.689,0.239,11.062,0.467,16.642,0.703
	c0,0.655,0.088,1.163-0.016,1.643c-0.537,2.507,0.016,4.746,2.052,6.66c0.076,0.071,0.066,0.211,0.157,0.539
	c-0.623-0.031-1.181-0.07-1.738-0.086c-2.223-0.065-4.449-0.22-6.668-0.166C78.558,122.854,74.923,122.923,70.962,122.247"/>
<path fill="#FFFFFF" d="M64.801,123.761c3.225,0,6.14-0.188,9.006,0.054c2.924,0.246,5.817,0.048,8.723,0.076
	c4.133,0.042,8.264,0.228,12.394,0.396c1.233,0.051,1.501,0.378,1.438,1.469c-0.023,0.406-0.139,0.808-0.242,1.205
	c-0.188,0.724-0.674,1.051-1.591,1.039c-9.159-0.116-18.318-0.201-27.476-0.302c-1.807-0.02-1.946-0.139-2.089-1.681
	C64.898,125.33,64.863,124.644,64.801,123.761"/>
<path fill="#FFFFFF" d="M89.158,113.115c-5.008-0.256-10.014-0.508-15.021-0.769c-2.503-0.13-5.008-0.264-7.511-0.412
	c-0.539-0.031-1.127-0.034-1.59-0.23c-0.351-0.148-0.716-0.562-0.77-0.896c-0.242-1.5,0.447-2.399,2.139-2.664
	c1.866-0.294,3.755-0.507,5.646-0.618c0.692-0.041,1.432,0.272,2.125,0.479c2.171,0.652,4.283,1.527,6.513,1.926
	c1.523,0.273,3.206-0.12,4.819-0.175c2.633-0.092,5.269-0.19,7.902-0.203c1.076-0.006,2.161,0.162,3.232,0.307
	c0.99,0.134,1.257,0.52,1.056,1.34c-0.275,1.101-1.007,1.699-2.425,1.741c-2.033,0.062-4.071,0.016-6.108,0.016
	C89.164,113.011,89.161,113.063,89.158,113.115"/>
<path fill="#FFFFFF" d="M107.581,35.16c-0.383-1.971-0.711-3.928-1.154-5.865c-0.405-1.769-0.94-3.519-1.409-5.277
	c-0.138-0.512-0.397-1.037-0.353-1.54c0.237-2.666-0.794-5.042-2.094-7.377c-0.696-1.252-0.621-1.563,0.384-2.278
	c1.085-0.772,2.011-0.83,3.076,0.019c0.672,0.533,1.219,1.226,1.663,1.922c1.6,2.502,1.923,5.331,2.626,8.056
	c0.586,2.277,0.933,4.601,1.481,6.887c0.221,0.909,0.019,1.453-0.83,2.103C109.741,32.752,108.774,33.952,107.581,35.16"/>
<path fill="#FFFFFF" d="M108.043,36.942c0.88,0.415,1.493,0.768,2.162,1.01c1.715,0.623,3.649,0.161,4.403-1.181
	c0.311-0.554,0.295-1.361,0.098-1.975c-0.188-0.586-0.927-0.773-1.747-0.551c0.303,0.522,0.723,0.982,0.808,1.485
	c0.053,0.313-0.344,0.731-0.635,1.032c-0.627,0.641-1.429,0.87-2.361,0.501c-0.94-0.372-1.56-0.967-1.479-1.897
	c0.116-1.324,0.987-2.273,2.244-2.958c1.251-0.681,2.495-0.339,3.653,0.204c0.372,0.174,0.765,0.564,0.847,0.906
	c0.256,1.081,0.397,2.182,0.522,3.28c0.037,0.333-0.063,0.701-0.197,1.022c-0.873,2.084-4.308,3.588-6.807,3.047
	c-0.987-0.212-1.567-0.605-1.517-1.545C108.074,38.586,108.043,37.845,108.043,36.942"/>
<path fill="#231F20" d="M71.203,65.979c3.176,1.747,6.391,3.183,9.746,5.181c-1.982,0.307-3.275-0.062-4.484-0.688
	c-1.61-0.835-3.217-1.679-4.781-2.574C71.028,67.521,70.347,67.038,71.203,65.979"/>
<path fill="#231F20" d="M84.457,65.698c1.979-0.619,2.345-2.939,4.676-2.923c0.074,0.146,0.204,0.304,0.169,0.338
	c-1.228,1.227-2.399,2.503-3.731,3.641c-0.969,0.824-1.966,0.624-2.734-0.298c-0.546-0.655-1.165-1.265-1.676-1.938
	c-0.186-0.244-0.31-0.813-0.188-0.886c0.331-0.189,0.908-0.362,1.205-0.232c0.514,0.226,0.927,0.657,1.312,1.053
	C83.863,64.84,84.146,65.292,84.457,65.698"/>
<path fill="#231F20" d="M89.177,71.863c1.519-1.603,5.899-3.661,7.768-3.555c-0.315,0.382-0.491,0.768-0.819,0.957
	c-1.685,0.975-3.413,1.898-5.122,2.846C90.29,72.508,89.653,72.643,89.177,71.863"/>
<path fill="#231F20" d="M87.17,42.559c-0.53,0.07-0.726,0.129-0.911,0.114c-0.6-0.057-1.287-0.267-1.598,0.376
	c-0.337,0.695,0.106,1.248,0.695,1.687c1.486,1.108,5.667,1.295,7.133,0.209c0.477-0.354,0.856-1.137,0.772-1.663
	c-0.365-2.297-0.78-4.604-1.448-6.848c-0.604-2.029-1.446-3.992-0.773-6.574c0.346,0.697,0.655,1.056,0.685,1.431
	c0.137,1.823,0.81,3.518,1.367,5.263c0.769,2.396,1.408,4.852,1.153,7.403c-0.114,1.149-0.718,1.741-1.932,2.177
	c-2.468,0.888-4.803,0.401-7.119-0.319c-1.205-0.375-1.682-1.331-1.825-2.353c-0.115-0.819,0.248-1.518,1.24-1.793
	C85.578,41.402,86.435,41.522,87.17,42.559"/>
<path fill="#231F20" d="M96.938,49.943c-0.763,0.458-1.081,0.773-1.467,0.861c-2.311,0.527-4.871,0.506-6.413-0.019
	c0.4-1.095,1.76-0.63,2.576-1.203c-0.417-0.5-0.913-0.336-1.391-0.15c-1.159,0.45-2.326,0.668-3.512,0.089
	c-0.729-0.356-1.305-0.025-1.887,0.273c-1.467,0.75-3.057,0.936-4.712,0.73c-0.497-0.062-0.968-0.276-1.461-0.771
	c0.384-0.102,0.774-0.308,1.148-0.285c1.816,0.113,3.479-0.239,5.099-0.955c0.532-0.235,1.372-0.341,1.886-0.146
	c1.098,0.419,2.105,0.409,3.139,0.011c0.961-0.369,1.769-0.211,2.694,0.188C93.823,49.079,95.133,49.381,96.938,49.943"/>
<path fill="#231F20" d="M74.3,32.125c0.499-0.018,1.006-0.103,1.491-0.045c1.613,0.188,3.216,0.438,4.824,0.646
	c0.736,0.095,1.482,0.221,2.219,0.207c1.729-0.038,2.275-0.534,2.38-2.01c0.08-1.134,0.08-1.134,0.673-1.85
	c1.074,0.919,1.317,2.439,0.604,3.783c-0.584,1.105-1.528,1.532-3.182,1.361c-0.94-0.098-1.869-0.279-2.801-0.427
	c-1.598-0.252-3.198-0.496-4.79-0.77c-0.507-0.088-0.992-0.264-1.486-0.4L74.3,32.125z"/>
<path fill="#231F20" d="M93.494,30.206c0.165,0.309,0.358,0.611,0.486,0.93c0.177,0.44,0.315,0.892,0.45,1.344
	c0.586,1.945,0.809,2.078,3.104,1.597c1.448-0.302,2.878-0.67,4.315-1.002c0.624-0.144,1.274-0.489,1.839,0.097
	c0.007,0.758-0.696,0.869-1.239,0.975c-2.107,0.417-4.22,0.836-6.354,1.119c-1.649,0.219-2.555-0.399-2.92-1.781
	c-0.211-0.794-0.347-1.605-0.48-2.412c-0.025-0.147,0.119-0.314,0.185-0.472L93.494,30.206z"/>
<path fill="#231F20" d="M82.575,37.064c-1.76,0.785-3.267,1.091-4.947,0.523C78.445,35.961,79.92,35.776,82.575,37.064"/>
<path fill="#231F20" d="M102.15,37.743c-1.567,0.75-2.799,0.93-4.055,0.861c-0.337-0.018-0.64-0.456-0.958-0.701
	c0.26-0.226,0.476-0.558,0.792-0.662C99.247,36.808,100.51,36.958,102.15,37.743"/>
</svg>
