<?xml version="1.0" encoding="utf-8"?>
<!-- Generator: Adobe Illustrator 15.1.0, SVG Export Plug-In . SVG Version: 6.00 Build 0)  -->
<!DOCTYPE svg PUBLIC "-//W3C//DTD SVG 1.1//EN" "http://www.w3.org/Graphics/SVG/1.1/DTD/svg11.dtd">
<svg version="1.1" id="Layer_1" xmlns="http://www.w3.org/2000/svg" xmlns:xlink="http://www.w3.org/1999/xlink" x="0px" y="0px"
	 width="160px" height="132px" viewBox="0 0 160 132" enable-background="new 0 0 160 132" xml:space="preserve">
<path fill="#231F20" d="M130.248,91.097c-2.467-3.427-5.982-5.517-10.045-6.641c-0.462-0.128-0.989-0.019-1.654-0.019
	c0.455,1.114,1.104,1.748,2.071,1.959c2.54,0.554,4.47,2.103,6.281,3.82c2.213,2.098,3.979,4.463,3.352,7.752
	c-0.364,1.9-0.938,3.77-1.536,5.613c-0.19,0.589-0.661,1.22-1.183,1.543c-3.193,1.976-6.39,3.953-9.994,5.149
	c-1.522,0.507-3.032,1.082-4.48,1.766c-2.481,1.171-4.881,2.513-7.366,3.674c-4.006,1.872-8.046,3.672-12.089,5.46
	c-0.738,0.325-1.528,0.82-2.428,0.34c1.216-3.088,1.296-3.443,1.031-4.681c-0.183-0.85-0.176-1.823-0.607-2.522
	c-0.992-1.608-2.199-3.084-3.324-4.609c-0.034-0.05-0.112-0.08-0.176-0.092c-1.562-0.333-3.115-0.764-4.695-0.965
	c-1.99-0.256-4.006-0.312-6.009-0.478c-2.939-0.243-5.875-0.543-8.816-0.751c-1.915-0.136-3.711-0.574-5.3-1.682
	c-1.974-1.375-3.894-2.834-5.911-4.141c-2.908-1.882-4.758-4.697-6.201-7.636c-1.555-3.167-2.682-6.596-3.585-10.018
	c-1.041-3.948-1.659-8.01-2.406-12.032c-0.27-1.447-0.551-2.925-0.533-4.386c0.071-5.7,0.068-11.411,0.461-17.092
	c0.358-5.177,0.397-10.278-0.355-15.438c-0.478-3.275-1.406-6.245-3.193-9.001c-1.163-1.794-2.387-3.509-4.471-4.738
	c2.708-2.007,5.338-3.712,8.347-4.669c6.895-2.191,13.824-4.277,20.742-6.395c2.052-0.628,4.117-1.21,6.172-1.82
	c3.812-1.134,7.728-1.628,11.672-1.996c1.734-0.161,3.465-0.418,5.173-0.756c2.318-0.46,4.137,0.223,5.337,2.232
	c0.958,1.602,2,3.225,2.564,4.981c1.931,6.006,1.425,12.115-0.096,18.078c-1.464,5.732-2.858,11.442-3.233,17.367
	c-0.238,3.781-0.048,7.492,1.062,11.153c1.084,3.574,2.961,6.733,4.713,9.983c2.774,5.148,7.07,8.666,11.914,11.659
	c0.484,0.299,0.987,0.48,1.486-0.411c-0.427-0.396-0.86-0.867-1.361-1.252c-2.244-1.722-4.368-3.546-5.957-5.938
	c-1.595-2.402-3.285-4.74-4.917-7.117c-2.994-4.361-4.724-9.189-5.002-14.466c-0.339-6.43,0.623-12.723,2.466-18.873
	c1.458-4.866,2.362-9.838,1.94-14.876c-0.399-4.771-1.534-9.401-5.405-12.837c-1.086-0.962-2.145-1.528-3.593-1.366
	c-3.729,0.417-7.492,0.624-11.182,1.255c-3.828,0.656-7.591,1.693-11.374,2.598c-1.956,0.466-3.924,0.915-5.834,1.531
	c-4.405,1.415-8.794,2.878-13.156,4.416c-2.716,0.958-5.474,1.887-8.027,3.192c-3.214,1.643-6.182,3.756-9.54,5.161
	c-1.293,0.542-2.117,1.561-2.645,2.882c-1.039,2.604-0.97,5.186-0.33,7.884c0.635,2.678,1.829,4.438,4.877,4.184
	c0.194-0.016,0.398,0.052,0.594,0.099c1.024,0.237,1.976,0.382,2.55-0.859c0.126-0.272,0.672-0.431,1.048-0.493
	c1.054-0.174,2.121-0.266,3.181-0.405c0.11-0.014,0.206-0.126,0.341-0.215c-0.29-0.198-0.565-0.384-1.111-0.755
	c0.921-0.219,1.534-0.365,2.372-0.563c0.329,2.316,0.901,4.433,0.874,6.539c-0.074,5.829-0.464,11.654-0.603,17.484
	c-0.09,3.746-0.155,7.515,0.142,11.245c0.233,2.922,1.078,5.791,1.58,8.696c0.755,4.374,1.87,8.645,3.297,12.849
	c1.346,3.964,3.506,7.431,6.432,10.333c2.565,2.544,5.445,4.782,8.783,6.299c1.087,0.493,2.214,1.045,3.373,1.205
	c2.917,0.402,5.864,0.592,8.799,0.875c1.498,0.145,3.03,0.161,4.376,0.922c-0.59,0.253-1.188,0.487-1.803,0.691
	c-0.188,0.062-0.312,0.176-0.406,0.306c-0.277,0.03-0.554,0.055-0.829,0.053c-2.365-0.022-4.287,1.033-5.994,2.507
	c-3.65,3.15-3.252,9.221,0.676,12.1c1.653,1.211,3.523,1.577,5.455,1.852c3.049,0.433,6.082,0.345,8.86-1.07
	c3.644-1.853,7.264-3.717,11.111-5.136c3.015-1.112,5.944-2.457,8.911-3.703c0.616-0.26,1.236-0.519,1.835-0.818
	c2.338-1.169,4.641-2.413,7.01-3.517c2.307-1.074,4.684-1.999,7.02-3.012c2.084-0.902,4.146-1.855,6.234-2.745
	c0.909-0.387,1.669-0.901,1.978-1.868c0.667-2.1,1.521-4.176,1.886-6.33C132.374,96.63,132.041,93.583,130.248,91.097
	 M41.726,32.519c-1.928,0.917-3.833,1.89-5.795,2.724c-0.489,0.207-1.266,0.166-1.734-0.086c-1.045-0.564-2.074-1.237-2.918-2.06
	c-0.442-0.432-0.48-1.278-0.7-1.936c0.084-0.028,0.167-0.055,0.251-0.083c0-0.266,0.095-0.583-0.015-0.79
	c-0.817-1.524-0.109-2.936,0.23-4.393c0.613-2.631,3.306-3.959,5.647-2.561c2.935,1.755,4.721,4.46,5.702,7.711
	C42.6,31.728,42.368,32.214,41.726,32.519 M83.097,110.587c0.137-0.078,0.227-0.179,0.293-0.288
	c1.135,0.087,2.225,0.545,3.324,1.315c1.256,0.879,2.163,1.961,2.998,3.163c-2.47,1.054-4.914,2.157-7.346,3.293
	c0.268-1.182-0.037-2.503-0.963-3.837c-0.5-0.721-1.063-1.396-1.627-2.067C80.92,111.723,82.028,111.197,83.097,110.587
	 M79.177,119.566c-0.055,0.026-0.083,0.064-0.126,0.097c-0.634,0.159-1.32-0.048-2.14-0.661c0.668-0.42,1.231-0.839,1.85-1.146
	c0.849-0.425,1.327-1.025,1.267-1.986c0.993,1.328,1.038,2.207,0.151,3.093c-0.109,0.108-0.219,0.202-0.328,0.288
	C79.627,119.357,79.4,119.458,79.177,119.566 M90.462,119.318c-1.312,3.812-4.367,5.71-7.872,6.851
	c-2.444,0.793-5.079,0.398-7.546-0.297c-3.027-0.855-4.956-3.315-5.088-6.297c-0.129-2.924,1.547-4.761,3.94-6.042
	c2.544-1.361,5.425-0.245,6.099,2.28c-1.904-0.103-3.26,1.038-4.597,2.132c-0.316,0.257-0.529,0.992-0.402,1.383
	c0.68,2.085,2.768,2.844,4.729,1.811c0.052-0.027,0.097-0.058,0.148-0.084c0.052-0.016,0.099-0.015,0.151-0.04
	c3.46-1.678,6.96-3.263,10.497-4.771C90.864,117.219,90.838,118.228,90.462,119.318"/>
<path fill="#231F20" d="M58.945,24.173c1.495,0.332,1.703,0.252,2.06-0.784c0.224-0.652,0.423-1.314,0.753-2.349
	c0.571,0.78,0.862,1.178,1.25,1.708c0.326-0.443,0.638-0.869,1.251-1.702c0.353,0.731,0.613,1.27,0.846,1.751
	c1.762-0.857,2.42-1.902,2.158-3.548c-0.157-0.984-0.182-2.004-0.133-3.001c0.043-0.861,0.281-1.711,1.154-2.238
	c0.992,0.288,1.252,1.059,1.221,1.873c-0.041,1.063-0.246,2.12-0.397,3.177c-0.075,0.529-0.272,1.054-0.261,1.577
	c0.023,1.136,0.804,1.561,1.77,0.967c0.881-0.542,1.519-1.283,1.708-2.369c0.145-0.827,0.396-1.635,0.635-2.599
	c1.02,0.447,0.951,1.092,0.914,1.755c-0.036,0.619-0.007,1.24-0.007,1.99c2.191-0.635,1.136-2.69,2.073-3.754
	c1.148,0.285,0.61,1.438,1.227,2.027c1.424-0.349,0.953-2.056,1.969-2.887c0.389,0.541,0.745,1.035,1.343,1.867
	c0.539-1.4,0.971-2.526,1.432-3.724c0.94,0.273,0.812,1.033,0.942,1.633c0.383,1.751,0.543,1.835,2.262,1.258
	c0.443-0.149,0.91-0.332,1.359-0.313c0.311,0.012,0.844,0.333,0.854,0.534c0.013,0.309-0.327,0.896-0.541,0.908
	c-1.625,0.077-3.271,1.726-4.882-0.19c-0.771,1.011-1.624,1.589-2.817,0.981c-0.709,0.887-1.238,1.846-2.554,1.817
	c-0.432-0.009-0.849,0.592-1.318,0.813c-0.519,0.246-1.132,0.602-1.631,0.51c-0.856-0.159-1.438,0.136-1.992,0.652
	c-1.123,1.05-2.296,1.354-3.377,0.41c-2.688,1.03-5.159,2.181-7.749,2.89c-1.5,0.411-3.022,0.378-4.2,1.707
	c-0.646,0.728-1.571,0.522-2.204-0.402c-0.325-0.473-0.812-0.834-1.267-1.288c-1.261,1.201-1.418,3.196-3.6,3.871
	c0.322-0.749,0.485-1.208,0.711-1.637c0.466-0.888,1.007-1.736,1.44-2.638c0.628-1.304,0.867-2.646,0.325-4.08
	c-0.408-1.076-0.198-2.072,0.869-3.122c0.338,0.6,0.701,1,0.789,1.453c0.14,0.714,0.088,1.465,0.129,2.2
	c0.04,0.734,0.018,1.481,0.155,2.198c0.188,0.98,0.814,1.847,1.752,2.005c1.076,0.182,1.369-0.929,1.665-1.714
	c0.276-0.74,0.272-1.584,0.551-2.323c0.161-0.427,0.636-0.735,0.971-1.096c0.213,0.425,0.571,0.839,0.605,1.278
	C59.207,22.87,59.026,23.53,58.945,24.173"/>
<path fill="#231F20" d="M65.499,29.634c1.213,0.456,1.271,1.244,1.083,2.063c-0.208,0.914-0.53,1.8-0.795,2.701
	c-0.19,0.646-0.426,1.307,0.383,1.823c1.086-0.147,1.396-1.092,1.808-1.904c0.358-0.711,0.528-1.577,1.645-1.41
	c0.161,0.023,0.36-0.146,0.531-0.245c1.514-0.882,1.536-0.911,2.844,0.19c0.677,0.569,1.336,0.868,2.195,0.481
	c0.78-0.352,0.708-1.037,0.729-1.713c0.037-1.242,0.29-2.383,1.591-3.053c1.492,0.908,0.49,2.333,0.743,3.631
	c1.503-0.531,2.356-1.435,2.627-2.934c0.196-1.077,0.168-2.268,1.2-3.117c1.474,1.043,0.189,2.457,0.727,3.815
	c0.746-0.579,1.387-1.076,2.181-1.692c0.171,0.627,0.299,1.096,0.431,1.575c1.588,0.17,2.838-1.458,4.607-0.662
	c-0.192,0.316-0.299,0.739-0.506,0.795c-1.666,0.458-3.338,1.081-5.037,1.193c-1.793,0.117-3.321,0.279-4.668,1.715
	c-1.443,1.538-3.623,1.661-5.575,1.868c-0.833,0.088-1.765-0.771-2.778-1.259c-0.76,0.128-0.974,0.814-1.076,1.578
	c-0.062,0.464,0.003,0.979-0.177,1.387c-0.195,0.445-0.555,1.021-0.946,1.116c-0.346,0.083-0.833-0.417-1.429-0.759
	c-0.878,0.791-2.057,1.314-3.358,0.354c-0.673,0.549-1.199,1.087-1.823,1.456c-0.491,0.291-1.155,0.607-1.652,0.499
	c-0.883-0.194-1.611-0.343-2.432,0.251c-0.245,0.178-0.982-0.113-1.355-0.381c-0.34-0.245-0.491-0.75-0.808-1.28
	c-0.32,0.503-0.537,0.905-0.811,1.263c-0.936,1.217-1.689,1.104-2.282-0.359c-0.268-0.658-0.435-1.358-0.709-2.239
	c-1.556,1.54-0.22,3.879-1.892,5.256c-0.693-0.836-0.167-1.645-0.067-2.342c0.189-1.309,0.547-2.61,0.995-3.855
	c0.136-0.375,0.793-0.74,1.229-0.762c0.268-0.014,0.674,0.588,0.833,0.986c0.295,0.734,0.454,1.522,0.711,2.435
	c1.442-0.892,0.904-2.742,2.026-3.616c0.906,0.237,0.811,1.011,0.98,1.619c0.156,0.555,0.279,1.121,0.535,2.166
	c0.726-0.94,1.171-1.517,1.729-2.24c0.519,0.599,0.973,1.125,1.421,1.643c1.744-0.367,2.596-1.266,2.794-2.868
	c0.132-1.061,0.219-2.141,0.508-3.161C64.612,30.926,65.125,30.299,65.499,29.634"/>
<path fill="#231F20" d="M93.865,88.021c0.847,0.522,1.38,0.85,1.901,1.171c0.983-1.299-0.607-2.282-0.243-3.717
	c0.762,0.431,1.401,0.792,2.286,1.293c0.107-0.732,0.205-1.292,0.267-1.854c0.056-0.508,0.072-1.02,0.118-1.739
	c0.892,0.476,1.6,0.853,2.53,1.349c0.161-0.915,0.271-1.532,0.388-2.19c0.782,0,1.614,0.167,2.331-0.049
	c0.628-0.191,1.125-0.812,1.7-1.258c0.639,1.409,0.321,2.317-1.019,2.55c-1.044,0.182-1.8,0.472-2.478,1.382
	c-0.391,0.522-1.397,0.585-2.375,0.946c-0.099,0.303-0.168,0.937-0.491,1.391c-0.324,0.458-0.899,0.739-1.422,1.141
	c-0.316,2.099-0.316,2.099-2.506,2.314c-1.153,2.215-2.274,2.81-4.908-0.395c-1.249,0.13-2.369,0.246-3.678,0.383
	c-0.227,1.487-1.206,2.609-2.998,2.941c-0.249,0.045-0.548,0.188-0.694,0.382c-1.292,1.721-3.123,1.858-5.117,1.602
	c-0.445,1.716-0.819,3.432-3.054,2.839c-1.378,1.965-1.82,2.087-3.758,0.795c-0.996-0.664-1.879-1.5-2.808-2.264
	c-0.382-0.314-0.753-0.643-1.261-0.819c0.788,2.167,2.678,3.26,4.763,4.562c-0.599,0.247-0.946,0.525-1.113,0.441
	c-1.925-0.968-4.071-1.691-4.873-4.022c-0.108-0.314-0.241-0.633-0.275-0.96c-0.073-0.677-0.125-1.513,0.646-1.705
	c0.433-0.107,1.096,0.296,1.518,0.64c1.239,1.009,2.375,2.147,3.625,3.145c0.489,0.391,1.186,0.841,1.816,0.223
	c0.646-0.633,0.364-1.33-0.037-2.015c-0.832-1.423-1.887-2.755-2.044-4.581c0.786-0.277,1.227,0.109,1.519,0.648
	c0.571,1.061,1.077,2.156,1.616,3.233c0.356,0.712,0.629,1.523,1.74,1.491c1.391-1.269,0.455-2.997,0.692-4.49
	c1.2-0.222,0.922,1.047,1.767,1.394c1.066-0.585,2.875,0.714,3.819-1.315c-0.269-0.612-0.573-1.31-0.922-2.102
	c0.919-0.264,1.241,0.279,1.574,0.75c0.441,0.623,0.974,0.9,1.723,0.58c0.696-0.3,1.074-0.842,0.992-1.583
	c-0.161-1.451-0.391-2.893-0.604-4.425c1-0.231,1.114,0.498,1.345,1.083c0.392,0.997,0.75,2.023,2.136,2.384
	c0.418-0.644,0.839-1.291,1.255-1.933c0.939-0.224,1.135,0.451,1.422,1.071c0.335,0.723,0.666,1.47,1.144,2.098
	c0.229,0.301,0.805,0.499,1.192,0.458c0.236-0.024,0.516-0.574,0.597-0.927C93.75,89.72,93.76,89.053,93.865,88.021"/>
<path fill="#231F20" d="M54.507,45.318c0.037,0.487,0.152,0.984,0.091,1.458c-0.086,0.661-0.292,1.308-0.469,1.953
	c-0.165,0.606-0.354,1.349,0.385,1.534c0.448,0.11,1.201-0.208,1.53-0.585c0.639-0.729,1.073-1.638,1.794-2.793
	c0.385,0.995,0.668,1.729,0.972,2.511c1.738-1.652,1.738-1.652,3.473-1.662c0.869-1.061,0.09-2.836,1.527-3.781
	c1.406,0.656,0.086,2.161,0.969,3.054c2.351,0.18,1.523-2.599,3.152-3.524c0.265,0.987,0.489,1.822,0.718,2.671
	c2.092,0.073,2.155-2.037,3.394-3c0.351,0.485,0.643,0.89,0.964,1.334c0.465-0.229,0.919-0.454,1.461-0.72
	c0.39,0.636,0.724,1.182,1.099,1.795c1.02-0.447,0.875-1.208,0.872-2.023c-0.003-1.528,0.107-3.061,0.267-4.582
	c0.05-0.483,0.404-0.937,0.624-1.412c1.505,0.812,2.024,1.831,1.707,3.283c-0.157,0.718-0.394,1.422-0.628,2.12
	c-0.273,0.812-0.201,1.52,0.721,1.768c0.859,0.232,1.396-0.217,1.615-1.073c0.132-0.515,0.243-1.054,0.484-1.518
	c0.16-0.308,0.535-0.5,0.972-0.881c0.24,0.723,0.414,1.25,0.705,2.127c0.561-0.754,1.035-1.269,1.36-1.866
	c0.325-0.6,0.499-1.283,0.978-1.976c0.358,1.958,1.401,2.894,3.298,2.691c-0.438,1.742-0.773,1.822-3.462,1.048
	c-1.538,0.886-2.97,1.711-4.402,2.536c-0.116,0.067-0.236,0.159-0.362,0.169c-1.599,0.139-3.283-0.199-4.692,0.978
	c-0.165,0.137-0.757-0.129-1.087-0.321c-1.397-0.81-2.703-0.883-3.987,0.255c-0.724,0.642-1.558,1.011-2.592,0.71
	c-0.356-0.105-0.818-0.092-1.161,0.044c-1.346,0.539-2.654,1.171-3.997,1.719c-0.35,0.142-0.789,0.049-1.162,0.158
	c-0.482,0.139-1.013,0.276-1.391,0.579c-1.357,1.088-1.336,1.113-2.98,0.119c-1.166,1.108-2.416,2.16-4.128,1.131
	c-0.605,0.728-1.125,1.352-1.887,2.269C51.366,52.023,53.534,45.954,54.507,45.318 M77.942,40.058
	c-0.101-0.019-0.202-0.04-0.304-0.058c-0.098,0.458-0.198,0.916-0.297,1.374c0.111,0.021,0.224,0.044,0.334,0.065
	C77.764,40.978,77.853,40.518,77.942,40.058"/>
<path fill="#231F20" d="M73.167,52.298c1.424,1.52,0.111,2.9,0.364,4.292c1.445,0.079,1.492-1.343,2.136-1.911
	c1.216,0.415,2.385,0.812,3.734,1.272c0.53-0.806,1.057-1.608,1.578-2.4c2.39,1.209,2.386,1.206,4.162-0.826
	c0.244-0.279,0.546-0.506,0.993-0.916c0.143,0.516,0.289,0.805,0.293,1.096c0.017,1.782,0.254,1.98,2.092,1.707
	c0.176-0.026,0.367,0.05,0.563,0.082c-0.536,1.436-1.236,1.963-2.27,1.386c-1.259-0.707-2.316-1.102-3.672-0.192
	c-0.438,0.292-1.282-0.02-2.016-0.06c-0.556,0.667-1.141,1.37-1.786,2.144c-0.694-0.362-1.258-0.656-2.095-1.092
	c-0.398,0.462-0.824,0.961-1.272,1.483c-1.842-0.565-3.594-0.637-5.433,0.638c-1.258,0.873-2.907,1.313-4.445,1.587
	c-0.681,0.121-1.576-0.565-2.271-1.038c-0.625-0.423-1.104-0.99-1.935-0.429c-0.866,0.583-1.179,1.348-0.89,2.385
	c0.018,0.063,0.098,0.12,0.093,0.175c-0.036,0.428,0.067,0.99-0.165,1.25c-0.44,0.494-0.971,0.206-1.393-0.208
	c-0.141-0.138-0.306-0.251-0.46-0.375c-0.8,0.485-1.544,1.235-2.376,1.351c-0.791,0.109-1.677-0.44-2.734-0.767
	c-0.604,0.641-1.433,1.519-2.262,2.396c-0.146-0.094-0.292-0.187-0.438-0.281c0.123-0.37,0.148-0.829,0.386-1.098
	c1.535-1.744,2.291-3.699,2.157-6.07c-0.088-1.549,0.307-2.279,1.174-3.382c0.889,1.366,0.807,2.799,0.595,4.236
	c-0.087,0.593-0.359,1.158-0.446,1.75c-0.113,0.773,0.063,1.527,0.827,1.893c0.878,0.421,1.411-0.232,1.79-0.86
	c0.553-0.913,0.989-1.897,1.417-2.735c0.833-0.312,1.658-0.496,2.344-0.909c0.945-0.571,1.735-0.618,2.528,0.187
	c0.236,0.238,0.476,0.482,0.752,0.667c1.416,0.94,2.394,0.504,2.704-1.146c0.122-0.644,0.284-1.309,0.583-1.882
	c0.133-0.255,0.658-0.426,0.994-0.41c0.188,0.01,0.468,0.467,0.506,0.75c0.08,0.583,0.024,1.187,0.024,1.929
	c1.118-0.186,1.6-0.936,1.916-1.82c0.224-0.629,0.279-1.323,0.536-1.934C72.316,53.589,72.735,53.027,73.167,52.298"/>
<path fill="#231F20" d="M84.975,60.751c0.245,0.804,0.557,1.511,0.658,2.247c0.091,0.65-0.108,1.336-0.069,2
	c0.025,0.428,0.134,1.011,0.424,1.215c0.25,0.176,0.819-0.047,1.229-0.16c1.382-0.383,2.755-0.797,4.149-1.204
	c0.187,1.405-0.302,2.147-1.596,2.128c-1.109-0.018-2.112,0.04-3.025,0.716c-0.145,0.106-0.453,0.191-0.566,0.113
	c-1.977-1.344-3.439,1.091-5.282,0.715c-0.133-0.025-0.363,0.181-0.477,0.335c-0.738,1-1.71,1.215-2.904,0.796
	c-0.35,0.468-0.691,0.872-0.977,1.313c-0.595,0.926-1.219,1.211-2.477,1.063c-1.661-0.196-3.521,0.02-4.954,1.117
	c-1.54,1.181-3,1.748-4.749,0.16c-0.361,0.667-0.639,1.178-0.915,1.69c-1.012,1.887-1.54,2.061-3.446,1.13
	c-2.189,2.078-3.455,1.775-4.629-1.126c-0.292-0.725-0.542-1.468-0.879-2.392c-1.374,1.381-0.487,3.446-1.87,4.682
	c-0.594-2.065,0.118-4.779,1.629-6.379c1.068,0.256,1.308,1.167,1.566,2.068c0.203,0.705,0.296,1.481,0.666,2.088
	c0.307,0.506,0.902,1.055,1.444,1.146c0.781,0.132,1.076-0.666,1.255-1.325c0.202-0.743,0.335-1.504,0.521-2.363
	c1.472,0.501,0.69,2.131,1.875,2.76c1.879-1.259,1.874-3.561,2.657-5.537c0.824,0.289,0.753,0.952,0.916,1.48
	c0.271,0.875,0.366,1.971,1.647,1.917c1.036-0.043,2.225-1.339,2.337-2.415c0.134-1.265,0.206-2.54,0.389-3.798
	c0.1-0.681,0.374-1.338,0.608-2.137c1.499,1.486,1.681,2.698,1.081,5.96c1.075,0.75,1.66-0.333,2.388-0.686
	c1.809,0.698,2.192,0.556,2.876-1.179c0.33-0.838,0.557-1.718,0.946-2.942c0.542,1.142,0.909,1.916,1.277,2.69
	c0.169,0.006,0.339,0.013,0.508,0.018c0.5-0.946,0.999-1.891,1.583-2.996c0.236,0.284,0.443,0.444,0.527,0.654
	c0.287,0.707,0.805,0.869,1.463,0.644c0.698-0.238,1.139-0.722,1.088-1.501c-0.054-0.8-0.233-1.596-0.221-2.391
	C83.657,62.218,83.734,61.32,84.975,60.751"/>
<path fill="#231F20" d="M57.564,89.351c1.064-1.466,0.588-3.168,0.378-4.88c-0.137-1.107-0.232-2.275,0.901-3.255
	c2.493,1.99,1.025,4.566,0.957,6.963c2.56-0.196,2.156-2.562,3.382-4.061c0.172,0.782,0.271,1.256,0.379,1.728
	c0.231,1.02,0.907,1.451,1.712,0.829c0.786-0.608,1.295-1.574,2.04-2.527c0.191,0.142,0.576,0.423,1.043,0.767
	c0.409-0.462,0.799-0.901,1.277-1.441c0.674,0.048,1.295,1.116,2.211,0.246c0.656-0.624,0.836-1.306,0.954-2.119
	c0.126-0.854,0.37-1.69,1.152-2.212c1.405,0.647,0.257,1.892,0.754,2.697c1.465-0.519,1.667-0.752,1.411-2.262
	c-0.238-1.397-0.04-2.688,0.688-3.867c0.258-0.417,0.75-0.688,1.136-1.025c0.349,0.435,0.824,0.818,1.021,1.313
	c0.437,1.1,0.395,2.229-0.177,3.31c-0.21,0.397-0.375,0.817-0.611,1.343c2.512,0.732,2.265-1.806,3.497-2.754
	c0.478,0.709,0.902,1.342,1.366,2.031c1.521-0.406,1.3-2.076,2.259-3.062c0.383,0.509,0.717,0.953,1.251,1.663
	c0.625-0.98,1.165-1.827,1.77-2.776c0.815,0.603,1.541,1.141,2.504,1.854c0.336-0.767,0.611-1.332,0.837-1.916
	c0.469-1.226,0.706-1.257,1.902-0.213c-0.601,0.77-1.201,1.54-1.801,2.313c-0.507,0.653-1.134,0.93-1.939,0.6
	c-0.425-0.173-0.837-0.368-1.202-0.532c-1.239,0.625-1.354,3.052-3.318,1.81c-2.061,1.784-2.061,1.784-3.922,0.925
	c-0.915,1.319-2.109,1.974-3.779,1.362c-0.253-0.094-0.659,0.074-0.933,0.228c-1.676,0.939-3.319,1.939-5.006,2.859
	c-0.579,0.317-1.245,0.48-1.883,0.679c-1.27,0.398-2.619,0.592-3.632,1.595c-0.227,0.225-0.575,0.409-0.887,0.444
	c-1.522,0.172-3.018,0.349-4.249,1.423c-0.206,0.179-0.641,0.144-0.967,0.126C59.255,89.517,58.471,89.43,57.564,89.351
	 M77.02,79.298c0.182,0.041,0.363,0.081,0.544,0.119c0.541-0.789,1.049-1.586-0.074-2.604C77.334,77.643,77.177,78.47,77.02,79.298
	 M59.132,84.872c0.083-0.007,0.168-0.015,0.252-0.022c-0.03-0.291-0.059-0.584-0.088-0.874c-0.08,0.008-0.159,0.016-0.238,0.022
	C59.082,84.29,59.107,84.582,59.132,84.872"/>
<path fill="#231F20" d="M91.924,104.294c0.204-0.471,0.327-0.766,0.459-1.059s0.271-0.58,0.494-1.056
	c0.641,0.418,1.157,0.803,1.716,1.111c1.008,0.558,1.757,0.242,1.854-0.897c0.082-0.979-0.093-1.979-0.166-3.153
	c0.576,0.104,1.115,0.202,1.654,0.301c1.396-0.794-0.217-2.138,0.584-3.169c0.776,0.576,1.511,1.122,2.244,1.669
	c0.14-0.086,0.277-0.171,0.415-0.257c-0.092-0.845-0.183-1.69-0.323-2.994c1.088,1.032,1.858,1.763,2.923,2.772
	c0.425-1.258,0.728-2.153,1.075-3.186c0.664,0.258,1.314,0.512,1.998,0.777c1.094-1.062,0.135-2.329,0.429-3.638
	c0.711,0.281,1.344,0.532,2.239,0.888c0.339-0.948,0.658-1.842,1.049-2.935c0.585,0.426,1.133,0.825,1.746,1.272
	c0.761-0.29,1.068-1.715,2.271-0.994c1.254,0.754,3.325-0.403,4.212,1.904c-1.166-0.117-2.117-0.305-3.063-0.276
	c-0.763,0.021-1.516,0.313-2.274,0.474c-0.695,0.146-1.395,0.272-2.231,0.435c-0.571,0.435-1.312,0.967-2.015,1.548
	c-0.29,0.24-0.566,0.55-0.727,0.887c-0.856,1.785-0.843,1.792-2.892,1.713c-0.196,0.354-0.43,0.747-0.633,1.155
	c-0.348,0.697-0.885,0.915-1.651,0.836c-0.429-0.043-0.879,0.127-1.318,0.192c-1.703,0.25-2.655,1.553-3.695,2.698
	c-0.336,0.369-0.506,0.916-0.674,1.41c-0.723,2.123-1.309,2.407-3.396,1.601c-0.18-0.069-0.383-0.081-0.704-0.146
	c-0.229,0.541-0.434,1.09-0.689,1.612c-0.361,0.741-0.888,0.938-1.627,0.461c-0.949-0.613-1.91-1.207-2.881-1.784
	c-0.938-0.558-1.511-1.324-1.449-2.452c0.052-0.962,0.697-1.351,1.495-0.801c0.82,0.565,1.516,1.312,2.269,1.975
	C91.024,103.528,91.415,103.857,91.924,104.294 M88.919,103.548c0.116-0.108,0.234-0.219,0.352-0.327
	c-0.336-0.287-0.672-0.575-1.009-0.86c-0.083,0.087-0.167,0.176-0.251,0.266C88.313,102.933,88.615,103.241,88.919,103.548"/>
<path fill="#231F20" d="M100.594,106.226c0.227,0.757,0.435,1.256,0.514,1.775c0.076,0.493,0.017,1.009,0.017,1.609
	c1.977-0.106,2.195-1.774,3.059-2.89c0.752,0.5,1.443,0.957,2.381,1.578c0.496-0.669,0.93-1.251,1.316-1.772
	c3.099,0.677,3.333,0.491,4.632-3.553c2.654,0.952,2.652,0.951,3.828-1.88c0.1-0.237,0.259-0.448,0.41-0.708
	c0.931,0.146,1.17,1.857,2.313,1.07c0.682-0.469,1.157-1.237,1.804-1.962c0.794,0.425,1.649,1.246,2.474,1.217
	c0.867-0.03,1.704-0.875,2.555-1.365c-0.218,2.265-2.08,3.174-4.756,2.225c-1.22,0.886-2.438,2.12-4.254,1.143
	c-0.749,1.453-1.658,2.424-3.297,2.462c-0.322,0.009-0.694,0.564-0.936,0.938c-0.89,1.377-1.996,2.322-3.759,2.234
	c-0.306-0.015-0.743,0.078-0.913,0.288c-1.081,1.327-2.288,1.148-3.512,0.213c-1.13,1.209-2.117,2.269-3.76,2.405
	c-0.406,0.033-0.801,0.812-1.109,1.303c-0.601,0.965-1.248,1.85-2.298,2.397c-0.61-0.843-0.078-1.279,0.34-1.656
	c1.336-1.202,2.036-2.578,1.69-4.447C99.178,108.016,99.309,107.109,100.594,106.226"/>
<path fill="#FFFFFF" d="M30.829,31.077c0-0.266,0.096-0.583-0.015-0.791c-0.817-1.523-0.109-2.935,0.23-4.393
	c0.613-2.631,3.306-3.958,5.647-2.559c2.935,1.753,4.721,4.46,5.702,7.71c0.207,0.682-0.025,1.17-0.668,1.476
	c-1.928,0.916-3.833,1.888-5.795,2.723c-0.489,0.208-1.266,0.165-1.734-0.087c-1.045-0.564-2.074-1.237-2.918-2.06
	c-0.441-0.432-0.48-1.278-0.7-1.936C30.662,31.132,30.745,31.105,30.829,31.077"/>
<path fill="#FFFFFF" d="M80.001,115.833c1.021,1.349,1.072,2.233,0.177,3.129c-0.966,0.967-1.943,1.031-3.268,0.04
	c0.668-0.42,1.231-0.84,1.85-1.146c0.867-0.432,1.351-1.046,1.266-2.041L80.001,115.833z"/>
<path fill="#FFFFFF" d="M77.942,40.058c-0.089,0.46-0.178,0.92-0.267,1.381c-0.111-0.021-0.223-0.043-0.334-0.065
	c0.099-0.458,0.199-0.916,0.297-1.374C77.74,40.018,77.841,40.039,77.942,40.058"/>
<path fill="#FFFFFF" d="M77.02,79.298c0.157-0.827,0.313-1.656,0.471-2.485c1.122,1.019,0.614,1.814,0.074,2.604
	C77.383,79.378,77.202,79.339,77.02,79.298"/>
<path fill="#FFFFFF" d="M59.132,84.872c-0.025-0.29-0.05-0.582-0.074-0.874c0.079-0.007,0.158-0.015,0.238-0.022
	c0.029,0.29,0.059,0.583,0.088,0.874C59.3,84.857,59.215,84.865,59.132,84.872"/>
<path fill="#FFFFFF" d="M88.919,103.548c-0.304-0.307-0.605-0.615-0.908-0.922c0.084-0.09,0.168-0.179,0.251-0.266
	c0.337,0.285,0.673,0.573,1.009,0.86C89.153,103.329,89.035,103.439,88.919,103.548"/>
</svg>
