<?xml version="1.0" encoding="utf-8"?>
<!-- Generator: Adobe Illustrator 15.1.0, SVG Export Plug-In . SVG Version: 6.00 Build 0)  -->
<!DOCTYPE svg PUBLIC "-//W3C//DTD SVG 1.1//EN" "http://www.w3.org/Graphics/SVG/1.1/DTD/svg11.dtd">
<svg version="1.1" id="Layer_1" xmlns="http://www.w3.org/2000/svg" xmlns:xlink="http://www.w3.org/1999/xlink" x="0px" y="0px"
	 width="160px" height="132px" viewBox="0 0 160 132" enable-background="new 0 0 160 132" xml:space="preserve">
<path fill="#231F20" d="M104.227,126.937c-3.654-0.22-7.304-0.53-10.96-0.631c-2.842-0.078-5.688,0.086-8.532,0.173
	c-5.574,0.166-11.147,0.368-16.721,0.521c-1.041,0.029-2.089-0.193-3.128-0.151c-3.014,0.118-6.03,0.265-9.039,0.49
	c-2.855,0.214-5.677,0.234-8.498-0.394c-1.67-0.371-2.611-1.16-2.865-2.962c-0.834-5.931-1.749-11.856-1.603-17.865
	c0.204-8.383-0.387-16.735-0.821-25.094c-0.359-6.901-0.738-13.808-1.328-20.693c-0.286-3.343-1.068-6.645-1.637-9.962
	c-0.097-0.572-0.287-1.129-0.368-1.702c-0.11-0.776,0.044-1.425,0.676-2.039c0.606-0.588,1.092-1.36,1.448-2.136
	c0.812-1.777,1.938-3.318,3.331-4.651c0.467-0.448,1.15-0.789,1.789-0.92c4.513-0.936,9.088-1.073,13.689-1.206
	c4.551-0.13,3.739,0.047,5.206-3.712c3.213-8.239,6.661-16.368,10.905-24.141c0.555-1.018,1-2.094,1.499-3.142
	c0.419-0.879,0.998-1.553,2.044-1.698c1.566-0.216,2.16,0.247,2.674,1.761c0.952,2.804,2.028,5.566,3.016,8.358
	c1.14,3.229,2.28,6.461,3.343,9.716c1.175,3.592,2.252,7.215,3.389,10.819c0.417,1.326,0.554,1.427,1.99,1.436
	c2.268,0.017,4.537-0.052,6.803,0c2.73,0.061,5.457,0.245,8.186,0.31c2.033,0.048,4.07,0.018,6.103-0.025
	c1.279-0.027,1.938,0.54,2.473,1.727c0.717,1.592,0.91,3.196,0.969,4.893c0.232,6.622,0.405,13.25,0.82,19.861
	c0.368,5.853,1.096,11.684,1.539,17.534c0.356,4.692,0.562,9.397,0.768,14.099c0.254,5.747,0.458,11.497,0.641,17.247
	c0.059,1.854,0.093,3.722-0.081,5.564c-0.088,0.938-0.463,1.992-1.051,2.717c-1.424,1.753-3.031,3.362-4.612,4.98
	c-0.296,0.302-0.812,0.479-1.248,0.534c-1.15,0.145-2.312,0.247-3.472,0.265c-2.441,0.037-4.885,0.012-7.328,0.012
	C104.23,126.865,104.229,126.901,104.227,126.937 M50.689,121.031c0.779,0.046,1.682,0.158,2.584,0.146
	c7.555-0.103,15.11-0.221,22.666-0.351c1.102-0.02,2.201-0.137,3.303-0.188c3.133-0.141,6.265-0.312,9.399-0.392
	c2.488-0.062,4.98,0.046,7.469-0.021c3.312-0.089,6.619-0.308,9.928-0.412c4.064-0.128,8.13-0.195,12.194-0.291
	c0.173-0.004,0.348-0.014,0.521-0.029c0.759-0.063,1.166-0.469,1.167-1.239c0.007-2.325,0.065-4.651-0.003-6.975
	c-0.163-5.632-0.379-11.264-0.592-16.896c-0.162-4.296-0.244-8.6-0.556-12.887c-0.407-5.619-1.168-11.215-1.478-16.838
	c-0.374-6.787-0.481-13.591-0.595-20.39c-0.026-1.498-0.212-2.839-0.967-4.145c-0.747-1.292-1.16-1.532-2.628-1.464
	c-2.146,0.099-4.296,0.153-6.442,0.121c-3.776-0.056-7.552-0.2-11.328-0.292c-1.394-0.034-2.79-0.009-4.186-0.035
	c-3.593-0.065-7.188-0.254-10.778-0.187c-4.238,0.077-8.47,0.398-12.706,0.562c-4.586,0.178-9.182,0.199-13.76,0.484
	c-2.185,0.136-4.348,0.694-6.508,1.119c-1.113,0.22-1.686,0.972-1.662,2.126c0.032,1.568,0.001,3.141,0.13,4.7
	c0.236,2.837,0.608,5.661,0.852,8.497c0.209,2.431,0.315,4.871,0.473,7.306c0.312,4.813,0.652,9.622,0.935,14.435
	c0.243,4.115,0.419,8.233,0.632,12.351c0.383,7.429,0.744,14.858,1.171,22.284C50.092,115.015,50.415,117.891,50.689,121.031
	 M65.188,37.292c0.94,0.041,1.56,0.106,2.175,0.086c2.435-0.079,4.869-0.198,7.304-0.275c1.45-0.045,2.903-0.046,4.354-0.054
	c2.081-0.012,4.163-0.048,6.242-0.002c1.622,0.036,3.221,0.02,4.971-0.574c-2.846-9.417-5.731-18.736-9.226-27.832
	c-0.837,0.145-1.472,0.391-2.075,0.328c-0.945-0.098-1.363,0.362-1.738,1.097c-0.872,1.705-1.888,3.344-2.665,5.089
	c-2.575,5.779-5.084,11.585-7.582,17.396C66.334,33.98,65.86,35.469,65.188,37.292 M44.215,43.932
	c-0.295,0.12-0.428,0.131-0.489,0.204c-1.082,1.277-2.176,2.543-3.209,3.86c-0.218,0.277-0.286,0.747-0.267,1.12
	c0.029,0.575,0.201,1.142,0.299,1.714c0.569,3.315,1.378,6.612,1.65,9.952c0.595,7.29,0.92,14.602,1.347,21.905
	c0.078,1.334,0.116,2.669,0.174,4.006c0.219,4.986,0.655,9.978,0.604,14.962c-0.072,7.052,0.508,14.033,1.429,21.003
	c0.061,0.459,0.281,0.896,0.49,1.533c1.661-1.79,2.836-3.328,2.546-5.743c-0.492-4.087-0.766-8.203-1.004-12.313
	c-0.248-4.292-0.319-8.592-0.52-12.885c-0.157-3.356-0.884-6.687-0.421-10.07c0.053-0.394-0.044-0.809-0.069-1.214
	c-0.246-3.94-0.502-7.882-0.732-11.823c-0.197-3.359-0.301-6.726-0.557-10.082c-0.335-4.397-0.789-8.787-1.168-13.182
	C44.236,45.922,44.25,44.958,44.215,43.932 M48.322,124.713c0.778,0.236,1.434,0.597,2.094,0.604
	c2.321,0.028,4.646-0.031,6.966-0.123c2.317-0.089,4.631-0.352,6.948-0.368c3.542-0.025,7.087,0.2,10.627,0.128
	c4.935-0.099,9.865-0.478,14.8-0.541c3.481-0.046,6.967,0.262,10.451,0.356c4.295,0.115,8.59,0.182,12.884,0.25
	c1.341,0.021,2.497-0.394,3.374-1.494c0.431-0.543,1.002-0.972,1.472-1.487c0.236-0.262,0.388-0.604,0.659-1.04
	c-0.617-0.048-1.021-0.119-1.42-0.104c-2.03,0.088-4.06,0.234-6.092,0.289c-2.324,0.062-4.652,0.028-6.977,0.077
	c-5.572,0.115-11.144,0.254-16.715,0.386c-0.406,0.01-0.813,0.027-1.22,0.053c-2.897,0.183-5.793,0.438-8.693,0.538
	c-5.11,0.175-10.224,0.28-15.337,0.365c-3.547,0.059-7.098,0.112-10.641,0.004C49.93,122.559,48.942,123.054,48.322,124.713"/>
<path fill="#FFFFFF" d="M50.689,121.031c-0.274-3.14-0.596-6.016-0.762-8.9c-0.428-7.427-0.789-14.856-1.172-22.284
	c-0.212-4.117-0.389-8.236-0.631-12.352c-0.283-4.812-0.623-9.622-0.935-14.434c-0.157-2.436-0.264-4.875-0.473-7.306
	c-0.244-2.837-0.616-5.661-0.853-8.497c-0.129-1.56-0.098-3.133-0.13-4.7c-0.024-1.155,0.549-1.907,1.662-2.125
	c2.161-0.426,4.324-0.984,6.509-1.121c4.579-0.285,9.173-0.305,13.76-0.483c4.236-0.165,8.468-0.486,12.706-0.563
	c3.59-0.066,7.185,0.123,10.778,0.187c1.396,0.026,2.792,0,4.186,0.036c3.776,0.091,7.552,0.236,11.328,0.292
	c2.146,0.032,4.297-0.023,6.442-0.123c1.468-0.067,1.881,0.174,2.628,1.466c0.755,1.305,0.94,2.646,0.967,4.144
	c0.113,6.799,0.221,13.602,0.595,20.39c0.31,5.622,1.07,11.219,1.478,16.839c0.312,4.285,0.394,8.589,0.556,12.887
	c0.213,5.63,0.429,11.262,0.592,16.896c0.068,2.321,0.01,4.648,0.003,6.974c-0.001,0.771-0.408,1.175-1.167,1.24
	c-0.174,0.014-0.349,0.025-0.521,0.029c-4.064,0.095-8.13,0.161-12.194,0.291c-3.309,0.104-6.616,0.322-9.927,0.411
	c-2.488,0.067-4.981-0.042-7.47,0.021c-3.134,0.08-6.266,0.251-9.399,0.393c-1.102,0.05-2.201,0.167-3.303,0.187
	c-7.555,0.13-15.111,0.249-22.666,0.352C52.371,121.188,51.468,121.078,50.689,121.031 M53.483,47.195
	c-0.202,0.971-0.523,1.802-0.524,2.634c-0.003,4.177,0.021,8.359,0.146,12.535c0.088,2.959,0.399,5.911,0.523,8.869
	c0.168,4.005,0.237,8.015,0.377,12.022c0.13,3.715,0.29,7.43,0.451,11.145c0.241,5.51,0.71,11.014,0.361,16.537
	c-0.018,0.289,0.006,0.583,0.043,0.87c0.165,1.298,0.678,1.834,1.989,2.02c0.458,0.064,0.929,0.05,1.394,0.053
	c4.004,0.02,8.008,0.059,12.012,0.046c3.197-0.013,6.395-0.078,9.591-0.14c2.845-0.056,5.69-0.126,8.533-0.202
	c1.916-0.053,3.833-0.088,5.744-0.202c1.971-0.118,3.932-0.372,5.902-0.475c3.243-0.169,6.491-0.229,9.734-0.406
	c2.138-0.117,3.236-1.43,3.175-3.637c-0.058-2.09-0.196-4.182-0.183-6.27c0.045-6.045,0.217-12.09,0.21-18.132
	c-0.007-6.447-0.089-12.896-0.272-19.342c-0.15-5.28-0.497-10.555-0.759-15.833c-0.006-0.115-0.016-0.232-0.032-0.346
	c-0.235-1.629-0.803-2.054-2.461-1.964c-1.912,0.104-3.828,0.187-5.743,0.216c-3.256,0.048-6.513,0.105-9.769,0.056
	c-7.08-0.111-14.16-0.276-21.238-0.438c-2.373-0.054-4.745-0.256-7.116-0.23c-3.484,0.038-6.967,0.21-10.449,0.35
	C54.558,46.954,54,47.109,53.483,47.195"/>
<path fill="#FFFFFF" d="M65.188,37.292c0.672-1.824,1.146-3.311,1.759-4.739c2.498-5.812,5.008-11.619,7.582-17.396
	c0.777-1.747,1.793-3.385,2.665-5.09c0.375-0.734,0.793-1.195,1.739-1.096c0.602,0.062,1.237-0.184,2.075-0.33
	c3.494,9.096,6.38,18.417,9.226,27.833c-1.75,0.594-3.35,0.608-4.971,0.572c-2.079-0.046-4.161-0.008-6.242,0.002
	c-1.451,0.008-2.903,0.009-4.354,0.054c-2.435,0.077-4.869,0.197-7.304,0.276C66.748,37.399,66.128,37.333,65.188,37.292"/>
<path fill="#FFFFFF" d="M44.216,43.932c0.033,1.025,0.021,1.989,0.104,2.946c0.379,4.396,0.833,8.784,1.168,13.183
	c0.256,3.355,0.361,6.721,0.557,10.082c0.23,3.941,0.486,7.883,0.732,11.823c0.025,0.404,0.123,0.819,0.069,1.214
	c-0.463,3.383,0.264,6.714,0.42,10.069c0.2,4.294,0.272,8.594,0.52,12.884c0.238,4.112,0.511,8.229,1.004,12.314
	c0.291,2.415-0.885,3.954-2.546,5.743c-0.208-0.639-0.43-1.074-0.49-1.532c-0.92-6.97-1.5-13.953-1.429-21.004
	c0.051-4.984-0.385-9.976-0.604-14.963c-0.059-1.335-0.096-2.672-0.174-4.005c-0.427-7.303-0.751-14.614-1.347-21.904
	c-0.272-3.34-1.081-6.637-1.65-9.952c-0.099-0.573-0.27-1.14-0.299-1.715c-0.02-0.374,0.049-0.842,0.267-1.121
	c1.032-1.315,2.127-2.581,3.208-3.858C43.788,44.063,43.92,44.051,44.216,43.932"/>
<path fill="#FFFFFF" d="M48.322,124.713c0.62-1.659,1.608-2.154,3.181-2.106c3.543,0.108,7.094,0.055,10.641-0.004
	c5.113-0.085,10.227-0.19,15.337-0.365c2.9-0.101,5.796-0.355,8.693-0.538c0.406-0.025,0.813-0.043,1.22-0.053
	c5.571-0.132,11.143-0.271,16.715-0.386c2.324-0.049,4.652-0.015,6.977-0.077c2.032-0.055,4.062-0.201,6.092-0.289
	c0.399-0.016,0.803,0.056,1.42,0.104c-0.271,0.437-0.423,0.778-0.659,1.04c-0.47,0.516-1.041,0.944-1.472,1.487
	c-0.877,1.101-2.033,1.516-3.374,1.494c-4.294-0.068-8.589-0.135-12.884-0.25c-3.484-0.095-6.97-0.402-10.451-0.356
	c-4.935,0.063-9.865,0.442-14.8,0.541c-3.541,0.072-7.085-0.153-10.627-0.128c-2.316,0.017-4.63,0.279-6.948,0.368
	c-2.321,0.092-4.645,0.151-6.966,0.123C49.756,125.31,49.1,124.949,48.322,124.713"/>
<path fill="#231F20" d="M112.963,84.462c-0.008-6.447-0.089-12.896-0.272-19.342c-0.15-5.28-0.499-10.555-0.76-15.833
	c-0.006-0.115-0.016-0.232-0.032-0.346c-0.235-1.629-0.804-2.054-2.461-1.964c-1.913,0.104-3.828,0.187-5.743,0.216
	c-3.256,0.048-6.514,0.105-9.769,0.055c-7.08-0.11-14.16-0.275-21.238-0.437c-2.373-0.054-4.745-0.256-7.115-0.23
	c-3.485,0.038-6.967,0.21-10.45,0.35c-0.563,0.023-1.122,0.178-1.639,0.264c-0.202,0.971-0.522,1.802-0.523,2.634
	c-0.003,4.177,0.021,8.359,0.146,12.535c0.088,2.959,0.398,5.911,0.522,8.869c0.168,4.005,0.237,8.016,0.376,12.022
	c0.13,3.715,0.29,7.43,0.452,11.145c0.24,5.51,0.71,11.014,0.361,16.536c-0.018,0.29,0.007,0.584,0.043,0.871
	c0.165,1.298,0.679,1.834,1.989,2.02c0.458,0.064,0.929,0.05,1.394,0.053c4.004,0.02,8.008,0.059,12.013,0.046
	c3.197-0.013,6.394-0.078,9.59-0.14c2.845-0.056,5.689-0.127,8.533-0.202c1.916-0.054,3.833-0.088,5.744-0.202
	c1.971-0.118,3.932-0.372,5.901-0.475c3.244-0.169,6.493-0.229,9.735-0.406c2.139-0.117,3.236-1.43,3.175-3.638
	c-0.057-2.089-0.197-4.181-0.183-6.269C112.796,96.549,112.969,90.504,112.963,84.462 M63.512,86.508
	c-1.151-2.621-1.301-5.237-0.316-7.961c0.203-0.562-0.028-1.374-0.271-1.985c-0.442-1.109-0.386-2.132,0.076-3.204
	c1.609-3.738,4.471-6.152,8.115-7.753c2.046-0.899,3.78-0.234,5.257,1.189c1.696,1.635,1.128,4.743-1.214,6.089
	c-1.144,0.658-1.756,1.418-1.851,2.684c-0.052,0.692-0.449,1.143-1.046,1.503c-0.333,0.201-0.545,0.604-0.925,1.051
	c1.896,0.142,3.097-0.527,3.203-1.913c0.1-1.287,0.726-1.915,1.717-2.561c0.691-0.45,1.164-1.262,1.672-1.956
	c0.335-0.457,0.559-0.995,0.921-1.66c1.029,0.473,1.941,0.968,2.906,1.314c1.72,0.619,3.511,1.094,4.108,3.156
	c0.015,0.051,0.063,0.106,0.111,0.13c1.52,0.768,3.003,1.626,4.577,2.252c0.689,0.272,1.599,0.136,2.022-1.02
	c-0.604,0-1.119,0.149-1.474-0.026c-1.499-0.739-2.996-1.509-4.391-2.424c-0.366-0.241-0.435-1.04-0.504-1.6
	c-0.098-0.774-0.466-1.285-1.224-1.116c-1.399,0.311-2.476-0.396-3.636-0.905c-0.843-0.369-1.702-0.703-2.697-1.111
	c-0.734-1.393-0.621-2.18,0.851-2.972c3.249-1.753,6.701-2.2,10.282-1.202c1.028,0.286,1.92,0.839,2.399,1.877
	c0.495,1.071,1.341,1.495,2.519,1.502c0.743,0.005,1.51,0.165,2.223,0.39c1.806,0.569,2.992,2.34,2.661,4.171
	c-0.216,1.187,0.146,2.036,0.918,2.828c0.243,0.25,0.479,0.508,0.732,0.746c0.9,0.837,1.051,1.833,0.403,2.826
	c-0.825,1.265-0.614,2.376,0.152,3.557c1.027,1.582,1.366,3.28,0.843,5.162c-0.213,0.763-0.171,1.617-0.143,2.426
	c0.063,1.965,0.262,3.928,0.26,5.891c0,1.354-0.244,2.709-0.393,4.183c-1.008-0.36-1.88-0.642-2.729-0.979
	c-2.328-0.924-4.761-0.965-7.215-0.937c-2.104,0.025-3.044-1.374-2.218-3.312c1.181-2.768,2.412-5.514,3.642-8.315
	c1.927,0.201,3.148-0.522,3.562-2.219c0.494-2.028-0.479-4.092-2.212-4.768c-0.787-0.307-1.543-0.691-2.564-1.152
	c-0.065,0.737-0.212,1.389-0.164,2.024c0.326,4.24-0.691,8.198-2.497,11.984c-1.045,2.192-2.504,4.053-4.593,5.356
	c-1.868,1.168-3.711,1.331-5.755,0.248c-4.873-2.575-7.292-6.822-8.426-11.972c-0.446-2.027-0.699-4.097-1.036-6.125
	c-2.056-0.054-3.904,2.026-3.749,4.142c0.042,0.575,0.207,1.143,0.306,1.715c0.224,1.294,0.961,2.124,2.266,2.305
	c0.939,0.131,1.344,0.668,1.728,1.476c0.744,1.567,1.569,3.112,2.498,4.578c0.945,1.492,1.259,3.022,0.919,4.733
	c-0.669-0.046-1.42-0.057-1.524-0.075c-0.56-0.092-1.147-0.098-1.715-0.045c-1.273,0.119-2.541,0.286-3.809,0.446
	c-1.197,0.149-2.392,0.313-3.791,0.498c-0.047-0.622-0.082-1.176-0.132-1.729c-0.191-2.075-0.336-4.156-0.607-6.223
	c-0.101-0.773,0.061-1.395,0.507-1.946C63.871,88.763,64.019,87.663,63.512,86.508 M94.053,85.142v-4.482
	c1.472,0.296,2.177,1.174,2.171,2.504C96.218,84.396,95.836,84.757,94.053,85.142 M75.84,97.499
	c1.217,0.607,2.348,1.112,3.419,1.721c1.883,1.071,3.792,1.009,5.656,0.096c1.237-0.605,2.362-1.434,3.716-2.273
	c0.404,1.408,0.753,2.68,1.139,3.938c0.226,0.738-0.212,1.083-0.744,1.369c-2.127,1.152-4.396,1.814-6.823,1.738
	c-2.826-0.086-4.458-0.789-7.001-2.873C75.395,100.084,75.6,98.896,75.84,97.499 M69.606,86.366
	c-1.124,0.144-1.385-0.584-1.618-1.287c-0.42-1.271-0.073-2.335,1.14-3.496C69.366,83.336,69.777,84.783,69.606,86.366
	 M111.222,109.175c0.022,0.814-0.057,1.498-1.065,1.692c-1.032,0.199-1.304,0.029-1.658-0.967c-0.642-1.798-1.341-3.575-2.043-5.353
	c-0.148-0.372-0.341-0.786-0.638-1.031c-1.429-1.178-1.667-2.862-2.003-4.509c-0.069-0.338-0.154-0.711-0.078-1.031
	c0.616-2.581,0.43-5.144,0.037-7.739c-0.16-1.06,0.012-2.204,0.216-3.274c0.239-1.262,0.13-2.378-0.48-3.529
	c-0.836-1.571-1.315-3.217-0.48-5.005c0.591-1.266-0.127-2.303-0.95-3.129c-0.885-0.891-1.262-1.82-1.268-3.087
	c-0.014-2.786-1.951-4.973-4.726-5.405c-1.387-0.215-2.43-0.683-3.357-1.861c-1.226-1.559-3.076-2.271-5.081-2.3
	c-3.419-0.05-6.754,0.28-9.533,2.608c-0.576,0.483-1.142,0.439-1.752,0.029c-0.481-0.322-1-0.594-1.523-0.845
	c-1.157-0.556-2.36-0.641-3.552-0.148c-4.225,1.742-7.657,4.354-9.453,8.732c-0.549,1.337-0.774,2.706-0.165,4.065
	c0.393,0.874,0.36,1.711-0.01,2.527c-0.944,2.087-0.603,4.115,0.307,6.069c0.671,1.444,0.834,2.717-0.31,4.017
	c-0.605,0.689-0.597,1.535-0.309,2.463c0.786,2.533,0.737,5.166,0.639,7.778c-0.016,0.431-0.394,0.962-0.761,1.241
	c-1.426,1.088-2.916,2.093-4.6,3.283c-0.146-1.419-0.33-2.673-0.392-3.933c-0.161-3.251-0.243-6.507-0.404-9.757
	c-0.212-4.295-0.508-8.586-0.694-12.883c-0.182-4.18-0.247-8.366-0.403-12.548c-0.177-4.704-0.399-9.403-0.601-14.104
	c-0.01-0.233-0.021-0.465-0.024-0.698c-0.031-2.157-0.013-2.234,2.207-2.295c4.585-0.125,9.174-0.301,13.758-0.236
	c3.769,0.053,7.532,0.442,11.299,0.646c2.376,0.128,4.758,0.273,7.136,0.259c6.451-0.04,12.903-0.16,19.354-0.25
	c0.233-0.003,0.465-0.011,0.698-0.011c1.877-0.001,1.906,0.085,2,1.952c0.135,2.667,0.411,5.327,0.538,7.994
	c0.125,2.612,0.191,5.23,0.193,7.846c0.005,6.282-0.022,12.563-0.083,18.845c-0.042,4.533-0.218,9.066-0.227,13.601
	C110.973,102.32,111.129,105.747,111.222,109.175"/>
<path fill="#FFFFFF" d="M107.458,110.988c-0.676,0.036-1.235,0.071-1.796,0.109c-4.115,0.225-8.225,0.465-12.34,0.661
	c-1.389,0.072-2.792,0.021-4.188,0.051c-5.919,0.117-11.845,0.239-17.771,0.362c-3.6,0.073-7.199,0.132-10.798,0.22
	c-3.862,0.087-3.962-0.095-4.086-3.811c-0.065-2.116,1.033-3.375,2.516-4.466c1.033-0.756,2.167-1.358,3.229-2.063
	c1.454-0.953,3.054-1.345,4.778-1.434c1.628-0.08,3.243-0.269,4.857-0.428c0.188-0.017,1.214,0.523,1.941,0.835
	c0,1.157,0.604,1.636,2.327,2.735c2.515,1.607,5.286,2.108,8.195,1.526c1.927-0.385,3.875-0.778,5.583-1.884
	c1.681-1.09,1.768-1.287,1.105-3.229c-0.059-0.151-0.036-0.334-0.043-0.494c2.058-0.762,7.562,0.19,10.209,1.717
	C104.833,103.499,106.484,106.887,107.458,110.988"/>
<path fill="#FFFFFF" d="M56.625,104.467c-0.145-1.419-0.329-2.674-0.391-3.932c-0.162-3.252-0.244-6.507-0.405-9.758
	c-0.211-4.295-0.508-8.586-0.693-12.883c-0.181-4.18-0.247-8.365-0.404-12.548c-0.176-4.703-0.398-9.403-0.601-14.105
	c-0.01-0.232-0.02-0.465-0.023-0.697c-0.032-2.157-0.013-2.234,2.206-2.294c4.586-0.126,9.174-0.302,13.758-0.237
	c3.77,0.054,7.533,0.443,11.3,0.646c2.377,0.127,4.757,0.273,7.135,0.258c6.451-0.039,12.903-0.161,19.354-0.249
	c0.233-0.003,0.465-0.012,0.697-0.012c1.878-0.001,1.906,0.087,2,1.953c0.136,2.667,0.411,5.326,0.539,7.994
	c0.125,2.613,0.191,5.23,0.193,7.846c0.004,6.281-0.021,12.562-0.082,18.845c-0.043,4.533-0.219,9.065-0.229,13.599
	c-0.007,3.428,0.148,6.855,0.242,10.282c0.022,0.814-0.058,1.499-1.065,1.692c-1.032,0.199-1.303,0.029-1.658-0.967
	c-0.643-1.797-1.341-3.576-2.044-5.352c-0.148-0.373-0.34-0.788-0.636-1.031c-1.429-1.18-1.668-2.863-2.004-4.51
	c-0.069-0.337-0.154-0.711-0.078-1.031c0.616-2.581,0.43-5.144,0.038-7.739c-0.161-1.06,0.011-2.204,0.214-3.275
	c0.24-1.261,0.131-2.377-0.479-3.528c-0.836-1.571-1.316-3.217-0.48-5.005c0.591-1.267-0.127-2.303-0.95-3.13
	c-0.885-0.889-1.262-1.819-1.268-3.086c-0.014-2.785-1.952-4.974-4.726-5.404c-1.386-0.216-2.43-0.683-3.356-1.862
	c-1.227-1.559-3.077-2.271-5.082-2.3c-3.419-0.05-6.755,0.281-9.533,2.61c-0.576,0.481-1.142,0.438-1.753,0.029
	c-0.481-0.324-1-0.596-1.523-0.847c-1.158-0.555-2.361-0.64-3.552-0.148c-4.225,1.742-7.657,4.354-9.453,8.732
	c-0.549,1.337-0.774,2.706-0.164,4.064c0.393,0.875,0.359,1.711-0.011,2.528c-0.943,2.086-0.602,4.115,0.307,6.07
	c0.671,1.444,0.835,2.717-0.309,4.018c-0.605,0.688-0.597,1.533-0.309,2.461c0.786,2.533,0.736,5.165,0.639,7.779
	c-0.016,0.43-0.394,0.961-0.761,1.241C59.799,102.271,58.31,103.276,56.625,104.467"/>
<path fill="#FFFFFF" d="M88.631,97.042c0.404,1.408,0.752,2.68,1.139,3.938c0.226,0.738-0.212,1.083-0.744,1.369
	c-2.127,1.152-4.396,1.814-6.823,1.738c-2.826-0.086-4.458-0.789-7.001-2.873c0.195-1.131,0.399-2.319,0.641-3.716
	c1.216,0.607,2.346,1.111,3.418,1.722c1.884,1.07,3.792,1.008,5.656,0.095C86.151,98.71,87.277,97.882,88.631,97.042"/>
<path fill="#FFFFFF" d="M94.053,85.142v-4.482c1.472,0.296,2.177,1.174,2.171,2.503C96.218,84.396,95.836,84.757,94.053,85.142"/>
<path fill="#FFFFFF" d="M69.128,81.583c0.238,1.752,0.649,3.2,0.478,4.783c-1.124,0.145-1.385-0.584-1.617-1.287
	C67.568,83.809,67.916,82.743,69.128,81.583"/>
<path fill="#231F20" d="M76.952,89.873c0.571-0.969,1.353-1.117,2.293-1.1c1.086,0.019,2.178-0.095,3.262-0.201
	c1.54-0.151,3.078-0.39,4.751,0.034c-0.382,1.354-0.551,2.649-1.099,3.759c-1.069,2.165-2.722,3.344-5.215,2.054
	C79.54,93.692,78.024,92.036,76.952,89.873 M78.486,90.016c0.208,0.334,0.296,0.551,0.445,0.709c0.596,0.63,1.19,1.265,1.821,1.858
	c1.162,1.091,1.683,1.148,2.906,0.4c1.312-0.802,1.774-1.891,1.396-3.246C82.932,89.827,80.814,89.917,78.486,90.016"/>
<path fill="#231F20" d="M86.118,84.971c-1.158,1.283-2.23,2.246-3.95,1.792c-1-0.266-2.004-0.531-2.975-0.883
	c-0.364-0.133-0.639-0.514-0.954-0.781c0.064-0.136,0.128-0.272,0.192-0.408c0.625,0.15,1.271,0.246,1.872,0.464
	c1.317,0.476,2.534,0.61,3.751-0.342C84.78,84.247,84.852,84.338,86.118,84.971"/>
<path fill="#231F20" d="M77.808,79.866c-0.077,0.428-0.074,0.864-0.244,1.214c-0.182,0.372-0.484,0.869-0.815,0.941
	c-0.612,0.134-1.227-0.27-1.283-0.894c-0.07-0.771,0.052-1.586,0.244-2.345c0.074-0.292,0.604-0.7,0.862-0.659
	c0.385,0.063,0.786,0.422,1.039,0.76C77.795,79.129,77.752,79.545,77.808,79.866"/>
<path fill="#231F20" d="M87.188,80.288c-0.084,0.466-0.07,0.785-0.203,1.022c-0.155,0.278-0.419,0.648-0.672,0.679
	c-0.256,0.031-0.719-0.243-0.81-0.487c-0.314-0.86-0.569-1.755-0.713-2.657c-0.047-0.295,0.293-0.908,0.498-0.929
	c0.393-0.037,1.012,0.132,1.185,0.423C86.847,78.965,86.996,79.724,87.188,80.288"/>
<path fill="#FFFFFF" d="M78.486,90.016c2.328-0.099,4.445-0.188,6.569-0.278c0.378,1.355-0.084,2.444-1.396,3.246
	c-1.224,0.748-1.744,0.69-2.906-0.4c-0.631-0.594-1.226-1.229-1.821-1.858C78.782,90.566,78.694,90.35,78.486,90.016"/>
</svg>
