<?xml version="1.0" encoding="utf-8"?>
<!-- Generator: Adobe Illustrator 15.1.0, SVG Export Plug-In . SVG Version: 6.00 Build 0)  -->
<!DOCTYPE svg PUBLIC "-//W3C//DTD SVG 1.1//EN" "http://www.w3.org/Graphics/SVG/1.1/DTD/svg11.dtd">
<svg version="1.1" id="Layer_1" xmlns="http://www.w3.org/2000/svg" xmlns:xlink="http://www.w3.org/1999/xlink" x="0px" y="0px"
	 width="160px" height="132px" viewBox="0 0 160 132" enable-background="new 0 0 160 132" xml:space="preserve">
<path fill="#231F20" d="M92.742,66.441c3.198,4.049,4.938,8.646,7.122,13.006c0.73,1.458,1.462,2.925,2.331,4.301
	c1.979,3.129,3.965,6.26,6.097,9.285c1.962,2.786,4.082,5.46,6.198,8.133c1.827,2.308,3.208,4.877,3.968,7.665
	c1.315,4.832,0.033,9.273-2.909,13.196c-1.258,1.677-3.271,2.249-5.318,2.468c-4.993,0.535-9.04-0.925-12.394-4.937
	c-2.711-3.244-4.253-6.96-5.593-10.78c-3.56-10.146-6.9-20.37-10.338-30.562c-0.639-1.896-1.291-3.787-1.982-5.664
	c-0.537-1.46-1.321-2.367-3.163-2.547c-4.339-0.421-8.663-1.086-12.954-1.868c-3.793-0.692-7.576-1.621-10.964-3.536
	c-4.429-2.5-8.011-5.995-10.059-10.667c-1.046-2.388-1.263-5.144-1.824-7.737c-0.172-0.794-0.196-1.619-0.358-2.416
	c-1.393-6.869-0.279-13.336,2.563-19.717c1.674-3.755,4.235-6.746,6.764-9.827c1.71-2.085,4.229-3.01,6.539-4.107
	c5.864-2.789,12.085-4.554,18.522-5.351c4.473-0.555,8.97-0.127,13.037,1.922c2.347,1.183,4.502,2.87,6.479,4.627
	c2.421,2.153,4.938,4.263,6.54,7.211c2.078,3.832,3.591,7.793,3.659,12.23c0.054,3.401,0.257,6.802,0.384,10.204
	c0.226,6.053-1.617,11.561-4.592,16.718c-1.522,2.638-3.381,5.048-5.928,6.85C93.876,65.033,93.363,65.784,92.742,66.441
	 M108.353,122.84c1.475-0.815,2.911-1.437,4.135-2.348c0.969-0.72,1.937-1.667,2.451-2.732c2.309-4.779,1.267-9.325-1.404-13.607
	c-1.647-2.641-3.445-5.188-5.22-7.749c-5.744-8.295-10.868-16.974-15.84-25.746c-1.346-2.377-2.671-4.711-5.048-6.328
	c-2.084-1.418-3.64-1.514-5.846,0.197c-1.522,1.178-1.773,2.595-0.896,4.782c0.994,2.476,2.052,4.931,2.918,7.451
	c2.264,6.583,4.409,13.209,6.659,19.798c1.34,3.926,2.797,7.812,4.188,11.721c1.411,3.964,3.696,7.409,6.27,10.688
	c1.439,1.833,3.289,2.938,5.616,3.271C107.025,122.337,107.686,122.635,108.353,122.84 M102.413,31.118
	c0.392-4.705-1.245-8.388-3.24-12.018c-1.229-2.237-3.299-3.594-5.02-5.304c-3.42-3.401-7.282-6.158-12.272-6.676
	c-1.83-0.191-3.717-0.226-5.542-0.017c-4.482,0.514-9.062,0.443-13.38,2.019c-3.32,1.214-6.757,2.201-9.537,4.54
	C45.467,20.356,41.544,28.923,41.917,39.3c0.209,5.84,2.945,10.635,7.629,13.993c5.475,3.926,11.534,6.743,18.374,7.386
	c3.048,0.286,5.939,0.214,8.381-2.332c2.018-2.103,4.745-3.654,7.681-3.678c3.537-0.029,6.174-1.203,8.448-3.832
	c2.077-2.401,4.752-4.264,6.404-7.065C101.216,39.728,102.881,35.498,102.413,31.118 M71.81,62.637
	c-11.184-0.394-20.655-4.313-28.478-12.281c0.237,1.145,0.508,2.226,1.045,3.153c2.806,4.843,6.772,8.434,12.047,10.365
	c4.104,1.503,8.354,2.553,12.686,3.215c0.337,0.052,0.7-0.072,1.03-0.11C70.726,65.457,71.272,64.036,71.81,62.637 M92.979,61.76
	c-0.049-2.668-2.106-4.696-4.4-4.738c-0.495-0.008-0.984-0.217-1.482-0.287c-0.715-0.102-1.448-0.284-2.154-0.215
	c-4.071,0.398-7.12,2.775-9.988,5.396c-0.742,0.68-1.343,1.622-1.729,2.557c-0.734,1.781,0.086,2.932,1.936,3.018
	c1.583,0.076,2.605-0.566,3.351-2.021c2.425-4.74,7.186-5.556,10.947-1.959c0.107,0.103,0.198,0.224,0.312,0.317
	c1.143,0.944,1.987,0.804,2.673-0.522C92.742,62.725,92.878,62.063,92.979,61.76 M102.743,41.087
	c-2.398,6.033-8.195,9.212-11.856,14.051c1.026,0.936,2.032,1.625,2.723,2.549c0.717,0.959,1.128,2.147,1.786,3.463
	C100.488,55.247,103.08,48.739,102.743,41.087"/>
<path fill="#FFFFFF" d="M108.353,122.841c-0.667-0.205-1.327-0.504-2.015-0.604c-2.327-0.335-4.178-1.439-5.617-3.271
	c-2.573-3.279-4.858-6.727-6.27-10.688c-1.391-3.91-2.849-7.797-4.189-11.723c-2.249-6.589-4.395-13.214-6.658-19.798
	c-0.866-2.519-1.923-4.974-2.918-7.45c-0.878-2.186-0.627-3.604,0.896-4.783c2.206-1.709,3.763-1.613,5.846-0.196
	c2.376,1.617,3.701,3.951,5.048,6.329c4.971,8.772,10.095,17.449,15.841,25.746c1.772,2.56,3.571,5.106,5.219,7.748
	c2.67,4.281,3.714,8.829,1.404,13.606c-0.515,1.065-1.482,2.013-2.451,2.734C111.265,121.402,109.827,122.023,108.353,122.841
	 M99.911,113.004c1.566-1.398,0.967-2.538,0.494-3.595c-1.811-4.053-3.67-8.083-5.521-12.116c-0.184-0.401-0.353-0.887-0.681-1.123
	c-0.361-0.26-0.908-0.392-1.348-0.341c-0.163,0.019-0.384,0.729-0.34,1.094c0.07,0.574,0.297,1.142,0.538,1.678
	c1.838,4.116,3.684,8.229,5.563,12.325C98.929,111.606,99.412,112.212,99.911,113.004"/>
<path fill="#FFFFFF" d="M102.413,31.118c0.469,4.378-1.197,8.61-3.58,12.653c-1.652,2.804-4.327,4.665-6.404,7.067
	c-2.274,2.627-4.911,3.802-8.448,3.831c-2.936,0.023-5.663,1.574-7.681,3.678c-2.441,2.546-5.333,2.617-8.381,2.331
	c-6.839-0.642-12.898-3.459-18.373-7.384c-4.685-3.36-7.421-8.154-7.63-13.994c-0.372-10.378,3.55-18.943,11.505-25.638
	c2.78-2.338,6.217-3.325,9.537-4.54c4.32-1.577,8.899-1.505,13.38-2.019c1.825-0.209,3.712-0.173,5.543,0.017
	c4.989,0.518,8.852,3.273,12.271,6.675c1.721,1.711,3.791,3.068,5.02,5.305C101.168,22.729,102.805,26.413,102.413,31.118
	 M98.583,33.226c-0.041-3.346-0.174-6.042-1.355-8.491c-1.62-3.36-3.738-6.38-6.57-8.877c-4.3-3.794-9.474-5.172-14.996-5.108
	c-3.232,0.037-6.489,0.656-9.679,1.293c-5.659,1.133-10.286,4.093-13.855,8.624c-1.188,1.507-2.125,3.21-3.239,4.778
	c-2.74,3.856-3.808,8.17-3.465,12.827c0.225,3.062,0.895,6.055,2.865,8.519c2.114,2.646,4.703,4.783,7.943,5.875
	c2.52,0.852,5.125,1.486,7.727,2.051c3.991,0.868,8.053,1.554,12.126,0.956c5.461-0.804,10.267-3.139,14.554-6.68
	C95.84,44.697,98.47,39.265,98.583,33.226"/>
<path fill="#FFFFFF" d="M71.81,62.636c-0.538,1.401-1.083,2.822-1.669,4.344c-0.331,0.038-0.694,0.161-1.03,0.109
	c-4.332-0.663-8.581-1.713-12.686-3.215c-5.275-1.931-9.241-5.522-12.047-10.365c-0.537-0.927-0.808-2.008-1.045-3.154
	C51.154,58.324,60.626,62.244,71.81,62.636"/>
<path fill="#FFFFFF" d="M92.979,61.76c-0.102,0.304-0.236,0.965-0.534,1.545c-0.686,1.327-1.53,1.468-2.673,0.523
	c-0.114-0.095-0.206-0.214-0.312-0.317c-3.762-3.596-8.522-2.781-10.948,1.959c-0.744,1.456-1.768,2.098-3.351,2.023
	c-1.85-0.089-2.67-1.239-1.935-3.019c0.385-0.937,0.986-1.878,1.728-2.558c2.867-2.621,5.917-5,9.989-5.397
	c0.705-0.069,1.438,0.115,2.153,0.216c0.498,0.07,0.987,0.278,1.481,0.287C90.873,57.064,92.931,59.091,92.979,61.76"/>
<path fill="#FFFFFF" d="M102.743,41.087c0.337,7.652-2.255,14.16-7.348,20.063c-0.658-1.315-1.069-2.503-1.786-3.463
	c-0.69-0.924-1.696-1.613-2.723-2.549C94.548,50.299,100.345,47.12,102.743,41.087"/>
<path fill="#231F20" d="M99.911,113.004c-0.499-0.792-0.982-1.397-1.294-2.078c-1.88-4.097-3.726-8.209-5.563-12.325
	c-0.241-0.536-0.468-1.104-0.538-1.678c-0.044-0.364,0.177-1.075,0.34-1.094c0.439-0.051,0.986,0.081,1.348,0.341
	c0.328,0.236,0.497,0.722,0.681,1.123c1.852,4.033,3.711,8.063,5.521,12.116C100.878,110.466,101.478,111.605,99.911,113.004"/>
<path fill="#231F20" d="M98.583,33.226c-0.113,6.039-2.742,11.471-7.945,15.767c-4.287,3.541-9.093,5.876-14.554,6.679
	c-4.073,0.599-8.135-0.087-12.126-0.955c-2.602-0.566-5.207-1.199-7.727-2.051c-3.24-1.093-5.829-3.229-7.943-5.875
	c-1.97-2.466-2.64-5.458-2.865-8.52c-0.343-4.657,0.725-8.972,3.465-12.826c1.115-1.569,2.051-3.271,3.239-4.78
	c3.569-4.53,8.196-7.49,13.855-8.622c3.19-0.638,6.446-1.256,9.679-1.294c5.521-0.064,10.694,1.313,14.995,5.108
	c2.832,2.497,4.95,5.518,6.57,8.876C98.409,27.183,98.543,29.88,98.583,33.226 M96.742,33.154c0.197-7.646-3.59-13.332-9.439-17.464
	c-4.317-3.051-9.549-3.872-14.895-2.923c-1.605,0.286-3.204,0.617-4.819,0.812c-5.842,0.704-10.575,3.404-13.928,8.186
	c-2.029,2.896-3.837,6.005-5.3,9.222c-1.229,2.7-1.619,5.79-0.64,8.682c1.698,5.022,5.233,8.586,9.968,10.807
	c5.328,2.501,11.073,3.327,16.9,3.146c2.326-0.071,4.74-0.608,6.913-1.452c3.019-1.168,5.772-2.842,8.331-4.987
	C94.288,43.447,96.563,38.869,96.742,33.154"/>
<path fill="#FFFFFF" d="M96.742,33.154c-0.179,5.715-2.454,10.292-6.909,14.028c-2.559,2.145-5.312,3.819-8.331,4.987
	c-2.173,0.844-4.588,1.38-6.913,1.453c-5.828,0.18-11.574-0.646-16.9-3.146c-4.734-2.222-8.27-5.786-9.969-10.808
	c-0.979-2.893-0.588-5.982,0.64-8.682c1.464-3.216,3.271-6.326,5.301-9.222c3.353-4.782,8.085-7.482,13.928-8.186
	c1.616-0.195,3.215-0.526,4.819-0.812c5.346-0.949,10.577-0.128,14.895,2.923C93.151,19.821,96.938,25.508,96.742,33.154
	 M52.548,29.55c-0.221,0.023-0.442,0.048-0.663,0.071c-1.13,1.23-0.635,2.701-0.458,4.111c0.304,2.415,1.787,4.325,2.84,6.414
	c1.259,2.499,3.208,4.43,5.441,6.061c0.83,0.604,1.765,1.095,2.707,1.511c0.694,0.307,1.531,0.374,1.926-0.492
	c0.427-0.938-0.318-1.273-0.996-1.651c-1.093-0.615-2.218-1.207-3.209-1.965c-3.566-2.729-5.537-6.475-6.649-10.743
	C53.198,31.754,52.862,30.656,52.548,29.55"/>
<path fill="#231F20" d="M52.548,29.55c0.314,1.105,0.65,2.204,0.939,3.316c1.112,4.268,3.083,8.013,6.649,10.743
	c0.991,0.759,2.116,1.351,3.209,1.965c0.677,0.378,1.423,0.714,0.996,1.651c-0.395,0.865-1.231,0.798-1.926,0.492
	c-0.942-0.416-1.877-0.907-2.707-1.511c-2.233-1.631-4.182-3.562-5.441-6.061c-1.053-2.089-2.536-3.999-2.84-6.414
	c-0.178-1.41-0.672-2.881,0.458-4.111C52.106,29.598,52.327,29.573,52.548,29.55"/>
</svg>
